<svg xmlns="http://www.w3.org/2000/svg" width="72" height="72" viewBox="0 0 72 72">
  <g id="Group_34761" data-name="Group 34761" transform="translate(-179 -2183)">
    <rect id="Rectangle_1762" data-name="Rectangle 1762" width="72" height="72" rx="10" transform="translate(179 2183)" fill="#d7ff35"/>
    <g id="Group_34747" data-name="Group 34747" transform="translate(169.662 2173.669)">
      <path id="Path_2393" data-name="Path 2393" d="M23.507,45.2A21.693,21.693,0,0,1,58.639,28.166h-3.3a1.085,1.085,0,1,0,0,2.17h6.137A1.085,1.085,0,0,0,62.56,29.25V23.114a1.085,1.085,0,1,0-2.17,0v3.673A23.866,23.866,0,0,0,28.328,62.073a1.085,1.085,0,1,0,1.534-1.534A21.555,21.555,0,0,1,23.507,45.2Z" fill="#191919"/>
      <path id="Path_2394" data-name="Path 2394" d="M132.206,437.809c-.615-.3-1.225-.633-1.81-.989a1.085,1.085,0,1,0-1.13,1.852c.645.394,1.315.76,1.993,1.089a1.085,1.085,0,1,0,.948-1.951Z" transform="translate(-96.484 -373.089)" fill="#191919"/>
      <path id="Path_2395" data-name="Path 2395" d="M437.931,132.4a1.085,1.085,0,0,0,1.953-.946c-.327-.675-.692-1.346-1.086-1.993a1.085,1.085,0,0,0-1.854,1.128C437.3,131.181,437.634,131.791,437.931,132.4Z" transform="translate(-373.196 -96.668)" fill="#191919"/>
      <path id="Path_2396" data-name="Path 2396" d="M253.9,467.768c-.685.081-1.378.13-2.06.146a1.085,1.085,0,0,0,.025,2.169h.026c.75-.017,1.511-.071,2.263-.16a1.085,1.085,0,1,0-.254-2.155Z" transform="translate(-206.12 -401.027)" fill="#191919"/>
      <path id="Path_2397" data-name="Path 2397" d="M190.727,462.2c-.675-.113-1.353-.26-2.017-.437a1.085,1.085,0,0,0-.56,2.1c.73.2,1.477.356,2.22.48a1.085,1.085,0,1,0,.357-2.14Z" transform="translate(-149.124 -395.606)" fill="#191919"/>
      <path id="Path_2398" data-name="Path 2398" d="M468.994,250.854a1.085,1.085,0,0,0-1.111,1.058c-.017.686-.067,1.379-.149,2.06a1.086,1.086,0,0,0,.949,1.206,1.191,1.191,0,0,0,.13.007,1.085,1.085,0,0,0,1.076-.956c.089-.748.144-1.51.163-2.263A1.085,1.085,0,0,0,468.994,250.854Z" transform="translate(-400.99 -206.18)" fill="#191919"/>
      <path id="Path_2399" data-name="Path 2399" d="M420.988,371.212a1.086,1.086,0,0,0-1.507.288c-.386.567-.8,1.123-1.24,1.651a1.084,1.084,0,1,0,1.671,1.383c.481-.581.94-1.191,1.364-1.815A1.085,1.085,0,0,0,420.988,371.212Z" transform="translate(-356.313 -314.129)" fill="#191919"/>
      <path id="Path_2400" data-name="Path 2400" d="M461.828,188.919c.176.661.322,1.339.435,2.017a1.085,1.085,0,0,0,1.069.907,1.109,1.109,0,0,0,.178-.015,1.085,1.085,0,0,0,.893-1.248c-.123-.746-.285-1.493-.478-2.22a1.085,1.085,0,0,0-2.1.558Z" transform="translate(-395.658 -149.318)" fill="#191919"/>
      <path id="Path_2401" data-name="Path 2401" d="M372.956,418.392c-.53.439-1.086.855-1.651,1.238a1.085,1.085,0,0,0,1.217,1.8c.622-.421,1.233-.879,1.816-1.361a1.085,1.085,0,0,0-1.383-1.673Z" transform="translate(-313.948 -356.456)" fill="#191919"/>
      <path id="Path_2402" data-name="Path 2402" d="M453.4,313.761a1.086,1.086,0,0,0-1.363.7c-.208.651-.45,1.3-.721,1.933a1.085,1.085,0,1,0,1.994.855c.3-.7.566-1.412.794-2.129A1.084,1.084,0,0,0,453.4,313.761Z" transform="translate(-386.169 -262.644)" fill="#191919"/>
      <path id="Path_2403" data-name="Path 2403" d="M316.187,451.406c-.626.268-1.276.51-1.933.72a1.085,1.085,0,0,0,.659,2.067c.723-.23,1.439-.5,2.128-.792a1.085,1.085,0,1,0-.854-1.995Z" transform="translate(-262.447 -386.256)" fill="#191919"/>
      <path id="Path_2404" data-name="Path 2404" d="M93.513,201.07a3.68,3.68,0,0,0-2.978-3.63,4.517,4.517,0,0,0-5.09,2.393,1.085,1.085,0,1,0,1.941.97,2.329,2.329,0,0,1,2.651-1.252,1.574,1.574,0,0,1,1.307,1.518c0,1.131-1.307,2-2.69,2.928-1.558,1.04-3.323,2.218-3.323,4.17a1.085,1.085,0,0,0,1.085,1.085h6.013a1.085,1.085,0,1,0,0-2.17h-4.3a13.709,13.709,0,0,1,1.727-1.281c1.714-1.144,3.655-2.441,3.655-4.732Z" transform="translate(-57.484 -158.089)" fill="#191919"/>
      <path id="Path_2405" data-name="Path 2405" d="M181.63,199.266a1.085,1.085,0,0,0-1.085-1.085h-.882v-5.763a1.085,1.085,0,0,0-1.931-.679l-5.492,6.848a1.085,1.085,0,0,0,.846,1.763h4.407V203.4a1.085,1.085,0,1,0,2.17,0v-3.051h.881A1.085,1.085,0,0,0,181.63,199.266Zm-4.136-1.085h-2.146l2.146-2.677Z" transform="translate(-135.342 -152.713)" fill="#191919"/>
      <path id="Path_2406" data-name="Path 2406" d="M288.237,185.352a1.083,1.083,0,0,0-1.277.851l-2.441,12.2a1.085,1.085,0,0,0,.851,1.277,1.1,1.1,0,0,0,.214.021,1.085,1.085,0,0,0,1.063-.872l2.441-12.2A1.084,1.084,0,0,0,288.237,185.352Z" transform="translate(-236.397 -147.321)" fill="#191919"/>
      <path id="Path_2407" data-name="Path 2407" d="M353.841,209.267a1.086,1.086,0,0,0,1-.668l4.068-9.763a1.085,1.085,0,0,0-1-1.5h-5.492a1.085,1.085,0,1,0,0,2.17h3.865l-3.442,8.262a1.086,1.086,0,0,0,1,1.5Z" transform="translate(-296.434 -158.102)" fill="#191919"/>
    </g>
  </g>
</svg>
