<svg xmlns="http://www.w3.org/2000/svg" width="72" height="72" viewBox="0 0 72 72">
  <g id="Group_34760" data-name="Group 34760" transform="translate(-179 -2183)">
    <rect id="Rectangle_1762" data-name="Rectangle 1762" width="72" height="72" rx="10" transform="translate(179 2183)" fill="#d7ff35"/>
    <g id="Group_34908" data-name="Group 34908" transform="translate(0 4.508)">
      <g id="Layer_2" transform="translate(189 2193)">
        <g id="Group_34748" data-name="Group 34748" transform="translate(31.159 31.237)">
          <path id="Path_2408" data-name="Path 2408" d="M51.439,57.2a2.262,2.262,0,0,1-1.65-.707l-9.981-9.981a2.262,2.262,0,0,1-.707-1.65,2.141,2.141,0,0,1,.707-1.65l3.3-3.3a2.279,2.279,0,0,1,3.3,0l9.981,9.981a2.262,2.262,0,0,1,.707,1.65,2.14,2.14,0,0,1-.707,1.65l-3.3,3.3a2.141,2.141,0,0,1-1.65.707Zm-6.681-16.5a.714.714,0,0,0-.55.236l-3.3,3.3a.76.76,0,0,0,0,1.1l9.981,9.981a.76.76,0,0,0,1.1,0l3.3-3.3a.76.76,0,0,0,0-1.1l-9.981-9.981A.714.714,0,0,0,44.759,40.693Z" transform="translate(-39.1 -39.2)" fill="#191919"/>
        </g>
        <g id="Group_34749" data-name="Group 34749" transform="translate(11.431 15.361)">
          <path id="Path_2409" data-name="Path 2409" d="M18.716,25.288H16.358A2.316,2.316,0,0,1,14,22.93V21.358A2.316,2.316,0,0,1,16.358,19h2.358v1.572H16.358a.743.743,0,0,0-.786.786V22.93a.743.743,0,0,0,.786.786h2.358Z" transform="translate(-14 -19)" fill="#191919"/>
        </g>
        <g id="Group_34750" data-name="Group 34750" transform="translate(15.361 12.217)">
          <path id="Path_2410" data-name="Path 2410" d="M19,15h1.572v9.431H19Z" transform="translate(-19 -15)" fill="#191919"/>
        </g>
        <g id="Group_34751" data-name="Group 34751" transform="translate(26.364 15.361)">
          <path id="Path_2411" data-name="Path 2411" d="M33,19h1.572v6.288H33Z" transform="translate(-33 -19)" fill="#191919"/>
        </g>
        <g id="Group_34752" data-name="Group 34752" transform="translate(44.441 15.361)">
          <path id="Path_2412" data-name="Path 2412" d="M56,19h1.572v6.288H56Z" transform="translate(-56 -19)" fill="#191919"/>
        </g>
        <g id="Group_34753" data-name="Group 34753" transform="translate(45.227 16.147)">
          <path id="Path_2413" data-name="Path 2413" d="M60.93,25.5H59.358v-3.93H57V20h2.358a1.577,1.577,0,0,1,1.572,1.572Z" transform="translate(-57 -20)" fill="#191919"/>
        </g>
        <g id="Group_34754" data-name="Group 34754" transform="translate(27.15 16.147)">
          <path id="Path_2414" data-name="Path 2414" d="M41.074,25.5H39.5v-3.93H37.93V25.5H36.358v-3.93H34V20h2.358a1.328,1.328,0,0,1,.786.236A1.328,1.328,0,0,1,37.93,20H39.5a1.577,1.577,0,0,1,1.572,1.572Z" transform="translate(-34 -20)" fill="#191919"/>
        </g>
        <g id="Group_34755" data-name="Group 34755" transform="translate(35.01 16.933)">
          <path id="Path_2415" data-name="Path 2415" d="M47.144,25.716H45.572A1.577,1.577,0,0,1,44,24.144V22.572A1.577,1.577,0,0,1,45.572,21h1.572v1.572H45.572v1.572h1.572Z" transform="translate(-44 -21)" fill="#191919"/>
        </g>
        <g id="Group_34756" data-name="Group 34756" transform="translate(35.01 14.575)">
          <path id="Path_2416" data-name="Path 2416" d="M48.716,25.073H47.144V20.358a.743.743,0,0,0-.786-.786H44V18h2.358a2.316,2.316,0,0,1,2.358,2.358Z" transform="translate(-44 -18)" fill="#191919"/>
        </g>
        <g id="Group_34757" data-name="Group 34757" transform="translate(41.297 16.147)">
          <path id="Path_2417" data-name="Path 2417" d="M52,20h1.572v5.5H52Z" transform="translate(-52 -20)" fill="#191919"/>
        </g>
        <path id="Path_2418" data-name="Path 2418" d="M52,16h1.572v1.572H52Z" transform="translate(-10.703 -2.997)" fill="#191919"/>
        <path id="Path_2419" data-name="Path 2419" d="M34.3,23.22h-1.65a13.876,13.876,0,0,1-2.594,4.716l-.472.55,4.48,4.48-1.1,1.1-4.48-4.48-.55.472a14.93,14.93,0,1,1,4.951-15.483h1.65a16.508,16.508,0,1,0-6.13,17.134l4.558,4.558,3.3-3.3-4.558-4.558A16.08,16.08,0,0,0,34.3,23.22Z" fill="#191919"/>
        <path id="Path_2420" data-name="Path 2420" d="M30.128,24.077a11.784,11.784,0,1,1,.314-8.645h1.65a13.311,13.311,0,1,0-.236,8.645Z" transform="translate(-0.856 -0.856)" fill="#191919"/>
        <g id="Group_34758" data-name="Group 34758" transform="translate(18.505 15.361)">
          <path id="Path_2421" data-name="Path 2421" d="M26.144,25.288a3.144,3.144,0,1,1,3.144-3.144A3.153,3.153,0,0,1,26.144,25.288Zm0-4.716a1.572,1.572,0,1,0,1.572,1.572A1.577,1.577,0,0,0,26.144,20.572Z" transform="translate(-23 -19)" fill="#191919"/>
        </g>
        <path id="Path_2422" data-name="Path 2422" d="M10,25h1.572v1.572H10Z" transform="translate(-1.712 -4.923)" fill="#191919"/>
      </g>
      <g id="Group_34880" data-name="Group 34880" transform="translate(215.896 2187.492)">
        <g id="Group_34889" data-name="Group 34889" transform="translate(8.929)">
          <g id="Group_34888" data-name="Group 34888">
            <path id="Path_2761" data-name="Path 2761" d="M19.211,2.646A9.48,9.48,0,0,0,17.6,1.113a7.414,7.414,0,0,0-.984-.627A6.015,6.015,0,0,0,15.455,0a5.66,5.66,0,0,0,.18,1.249,7.181,7.181,0,0,0,.348,1.082c-.334.1-.74.236-1.2.413-.3.132-.619.251-.945.427a9.955,9.955,0,0,0-1.007.566c-.346.2-.669.473-1.007.712a10.4,10.4,0,0,0-.922.88,6.543,6.543,0,0,0-.775,1c-.108.176-.234.34-.325.52s-.17.365-.251.542a5.112,5.112,0,0,0-.364,1.05A4.26,4.26,0,0,0,9,9.4a6.255,6.255,0,0,0-.074.812c.008.241.013.451.019.624.01.342.013.538.013.538s.037-.193.1-.53c.031-.167.07-.368.114-.6A6.048,6.048,0,0,1,9.414,9.5a3.863,3.863,0,0,1,.361-.837,4.591,4.591,0,0,1,.524-.85l.313-.413c.11-.135.252-.251.374-.377a5.3,5.3,0,0,1,.822-.682,8.949,8.949,0,0,1,.9-.548c.332-.133.624-.3.951-.4a7.644,7.644,0,0,1,.918-.276c.291-.085.585-.123.84-.177.164-.024.315-.043.46-.061-.017.043-.035.085-.05.129a7.746,7.746,0,0,0-.346,1.29c-.037.229-.067.461-.091.7a5.237,5.237,0,0,0-.006.752,5.551,5.551,0,0,0,.682-.317c.2-.12.406-.244.6-.373A7.671,7.671,0,0,0,17.7,6.215a9.685,9.685,0,0,0,1.579-2.009l.056-.092A1.27,1.27,0,0,0,19.211,2.646Z" transform="translate(-8.929)"/>
          </g>
        </g>
        <g id="Group_34907" data-name="Group 34907" transform="translate(10.882 4.803)">
          <g id="Group_34906" data-name="Group 34906">
            <path id="Path_2770" data-name="Path 2770" d="M21.336,5.628c-.018-.341-.033-.536-.033-.536s-.027.193-.085.532c-.027.167-.058.37-.1.6a6.035,6.035,0,0,1-.216.754,3.712,3.712,0,0,1-.334.847,4.531,4.531,0,0,1-.5.865c-.1.139-.2.28-.3.424s-.244.258-.366.388a5.2,5.2,0,0,1-.8.706,8.628,8.628,0,0,1-.888.574c-.326.142-.614.318-.938.423a7.293,7.293,0,0,1-.909.3c-.288.094-.578.141-.833.2-.163.029-.315.054-.458.075.013-.044.031-.086.046-.13a7.92,7.92,0,0,0,.308-1.3c.029-.23.051-.463.068-.7a5.31,5.31,0,0,0-.015-.751,5.262,5.262,0,0,0-.673.337c-.2.125-.4.256-.586.39a7.7,7.7,0,0,0-1,.88,9.68,9.68,0,0,0-1.518,2.056l-.054.092a1.269,1.269,0,0,0,.168,1.463,9.575,9.575,0,0,0,1.653,1.484,7.117,7.117,0,0,0,1,.6,5.756,5.756,0,0,0,1.177.452,6.079,6.079,0,0,0-.217-1.241,7.151,7.151,0,0,0-.381-1.072c.332-.108.731-.258,1.183-.448.291-.14.61-.27.932-.456a9.285,9.285,0,0,0,.986-.6c.34-.206.655-.492.988-.742a10.549,10.549,0,0,0,.9-.907,6.54,6.54,0,0,0,.744-1.022c.1-.18.222-.347.308-.53s.158-.37.234-.55a5.183,5.183,0,0,0,.334-1.06,4.293,4.293,0,0,0,.157-.967,5.991,5.991,0,0,0,.051-.814C21.357,6.012,21.345,5.8,21.336,5.628Z" transform="translate(-11 -5.092)"/>
          </g>
        </g>
      </g>
    </g>
  </g>
</svg>
