<svg xmlns="http://www.w3.org/2000/svg" width="72" height="72" viewBox="0 0 72 72">
  <g id="Group_34759" data-name="Group 34759" transform="translate(-179 -2183)">
    <rect id="Rectangle_1762" data-name="Rectangle 1762" width="72" height="72" rx="10" transform="translate(179 2183)" fill="#d7ff35"/>
    <g id="Group_34909" data-name="Group 34909" transform="translate(192 2196)">
      <g id="Group_34910" data-name="Group 34910">
        <g id="Group_34909-2" data-name="Group 34909">
          <path id="Path_2771" data-name="Path 2771" d="M46,27.253V21.714l-2.777-.878a12.5,12.5,0,0,0-.953-2.3l1.342-2.583L39.7,12.033l-2.583,1.343a12.531,12.531,0,0,0-2.3-.953L33.93,9.645H30.419V8.161H31.9V0H0V8.161H1.484v2.968H0V19.29H1.484v2.968H0v8.161H20.032v-.027c.007.014.013.029.02.043L18.71,33.018l3.917,3.917,2.595-1.348a20.009,20.009,0,0,0,2.971,1.11v6.335a2.968,2.968,0,0,0,5.935,0V36.716l.111-.017.074-.015a12.562,12.562,0,0,0,2.8-1.092L39.7,36.935l3.917-3.917L42.27,30.435a12.5,12.5,0,0,0,.953-2.3ZM1.484,1.484H30.419V6.677H1.484Zm1.484,9.645V8.161H28.935V9.645h-.543l-.47,1.484Zm24.01,1.484a12.628,12.628,0,0,0-1.767.762l-1.466-.762Zm-25.494,0H22.047L18.71,15.949l.965,1.857H1.484Zm18.21,6.677a12.447,12.447,0,0,0-.594,1.546l-2.777.878v.543H2.968V19.29ZM1.484,28.935V23.742H16.323v3.511l2.777.878c.082.273.186.538.286.8Zm31.161,14.1a1.484,1.484,0,0,1-2.968,0V41.548h2.968Zm.464-13.772-.464.188V40.065H29.677V29.448l-.464-.188a5.173,5.173,0,0,1-3.246-4.812,4.6,4.6,0,0,1,2.226-3.983v3.276a2.968,2.968,0,0,0,5.935,0V20.466a4.6,4.6,0,0,1,2.226,3.983A5.173,5.173,0,0,1,33.109,29.26Zm1.02,1.168a6.647,6.647,0,0,0,3.71-5.98,6.275,6.275,0,0,0-4.173-5.881l-1.02-.413v5.588a1.484,1.484,0,0,1-2.968,0V18.154l-1.02.414a6.274,6.274,0,0,0-4.173,5.881,6.648,6.648,0,0,0,3.71,5.98v1.655a8.161,8.161,0,1,1,5.935,0Zm7.939-3.719-.143.556a11.079,11.079,0,0,1-1.184,2.861l-.293.5.516.515.831,1.6-2.379,2.379-1.6-.83-.516-.515-.495.292a11.055,11.055,0,0,1-2.676,1.131V33.656a9.645,9.645,0,1,0-5.935,0v1.491a14.617,14.617,0,0,1-2.676-1.085l-.495-.292-.516.515-1.6.83-2.379-2.379.831-1.6.516-.515-.293-.5A11.054,11.054,0,0,1,20.4,27.265l-.145-.556h-.729l-1.718-.543V22.8l1.718-.544h.729L20.4,21.7a11.08,11.08,0,0,1,1.184-2.861l.293-.5-.516-.515-.831-1.6,2.379-2.379,1.6.83.516.515.495-.292a11.074,11.074,0,0,1,2.862-1.184l.557-.144v-.729l.543-1.718h3.365l.544,1.718v.729l.556.144A11.074,11.074,0,0,1,36.805,14.9l.495.292.516-.515,1.6-.83,2.379,2.379-.831,1.6-.516.515.293.5A11.054,11.054,0,0,1,41.925,21.7l.144.557H42.8l1.718.543v3.365L42.8,26.71Z"/>
        </g>
      </g>
      <g id="Group_34912" data-name="Group 34912" transform="translate(3.172 3.173)">
        <g id="Group_34911" data-name="Group 34911" transform="translate(0 0)">
          <rect id="Rectangle_1811" data-name="Rectangle 1811" width="2" height="2" transform="translate(-0.172 -0.172)"/>
        </g>
      </g>
      <g id="Group_34914" data-name="Group 34914" transform="translate(5.552 3.173)">
        <g id="Group_34913" data-name="Group 34913" transform="translate(0 0)">
          <rect id="Rectangle_1812" data-name="Rectangle 1812" width="1" height="2" transform="translate(0.448 -0.172)"/>
        </g>
      </g>
      <g id="Group_34916" data-name="Group 34916" transform="translate(8.724 3.173)">
        <g id="Group_34915" data-name="Group 34915" transform="translate(0 0)">
          <rect id="Rectangle_1813" data-name="Rectangle 1813" width="1" height="2" transform="translate(0.276 -0.172)"/>
        </g>
      </g>
      <g id="Group_34918" data-name="Group 34918" transform="translate(3.172 14.276)">
        <g id="Group_34917" data-name="Group 34917" transform="translate(0 0)">
          <rect id="Rectangle_1814" data-name="Rectangle 1814" width="2" height="2" transform="translate(-0.172 -0.276)"/>
        </g>
      </g>
      <g id="Group_34920" data-name="Group 34920" transform="translate(5.552 14.276)">
        <g id="Group_34919" data-name="Group 34919" transform="translate(0 0)">
          <rect id="Rectangle_1815" data-name="Rectangle 1815" width="1" height="2" transform="translate(0.448 -0.276)"/>
        </g>
      </g>
      <g id="Group_34922" data-name="Group 34922" transform="translate(8.724 14.276)">
        <g id="Group_34921" data-name="Group 34921" transform="translate(0 0)">
          <rect id="Rectangle_1816" data-name="Rectangle 1816" width="1" height="2" transform="translate(0.276 -0.276)"/>
        </g>
      </g>
      <g id="Group_34924" data-name="Group 34924" transform="translate(3.172 25.379)">
        <g id="Group_34923" data-name="Group 34923" transform="translate(0 0)">
          <rect id="Rectangle_1817" data-name="Rectangle 1817" width="2" height="2" transform="translate(-0.172 -0.379)"/>
        </g>
      </g>
      <g id="Group_34926" data-name="Group 34926" transform="translate(5.552 25.379)">
        <g id="Group_34925" data-name="Group 34925" transform="translate(0 0)">
          <rect id="Rectangle_1818" data-name="Rectangle 1818" width="1" height="2" transform="translate(0.448 -0.379)"/>
        </g>
      </g>
      <g id="Group_34928" data-name="Group 34928" transform="translate(8.724 25.379)">
        <g id="Group_34927" data-name="Group 34927" transform="translate(0 0)">
          <rect id="Rectangle_1819" data-name="Rectangle 1819" width="1" height="2" transform="translate(0.276 -0.379)"/>
        </g>
      </g>
    </g>
  </g>
</svg>
