<svg xmlns="http://www.w3.org/2000/svg" xmlns:xlink="http://www.w3.org/1999/xlink" width="72" height="72" viewBox="0 0 72 72">
  <defs>
    <linearGradient id="linear-gradient" x1="0.5" x2="0.5" y2="1" gradientUnits="objectBoundingBox">
      <stop offset="0" stop-color="#D7FF00"/>
      <stop offset="1" stop-color="#D7FF00"/>
    </linearGradient>
  </defs>
  <g id="Group_34760" data-name="Group 34760" transform="translate(-179 -2183)">
    <rect id="Rectangle_1762" data-name="Rectangle 1762" width="72" height="72" rx="10" transform="translate(179 2183)" fill="url(#linear-gradient)"/>
    <g id="Group_35211" data-name="Group 35211" transform="translate(187.5 2191.512)">
      <path id="Path_2759" data-name="Path 2759" d="M50.4,17.729H46.91a4.12,4.12,0,0,0-3.368-3.368V11.62L50.63,8.8a.694.694,0,0,0,0-1.292c-1.606-.627-7.558-2.976-7.558-2.976a.685.685,0,0,0-.94.627v9.163a4.12,4.12,0,0,0-3.368,3.368H35.28a.7.7,0,0,0-.7.7V29.476H20.281a.722.722,0,0,0-.7.666V41.224H5.2a.722.722,0,0,0-.7.666v8.419a.722.722,0,0,0,.666.7h45.19a.722.722,0,0,0,.7-.666V18.433a.67.67,0,0,0-.666-.7Zm-6.853-7.558V6.216l4.973,2Zm-.666,5.522a2.772,2.772,0,0,1,2.663,2.036H40.214a2.772,2.772,0,0,1,2.663-2.036ZM5.91,42.634H19.616v7.049H5.91ZM20.947,30.886H34.653V49.722H20.947Zm28.743,18.8H36.024V19.1H49.73Z" transform="translate(0 0)" fill="#191919"/>
      <path id="Path_2760" data-name="Path 2760" d="M45.226,44.6l6.618,3.838a.582.582,0,0,0,.352.078h4.621a.7.7,0,0,0,.7-.666v-.666A2.139,2.139,0,0,0,56.23,45.23l-2.35-1.018a3.134,3.134,0,0,1-.313-2.937.649.649,0,0,0-.313-.822l-3.133-1.8a.651.651,0,0,0-.9.235A7.2,7.2,0,0,1,47.5,40.609a7.848,7.848,0,0,0-2.506,3.25A.548.548,0,0,0,45.226,44.6Zm3.054-2.976a10.649,10.649,0,0,0,1.684-1.566l2.154,1.253a4.466,4.466,0,0,0,.822,3.877.819.819,0,0,0,.235.157l2.506,1.1a.774.774,0,0,1,.47.7H52.392l-5.913-3.407A5.906,5.906,0,0,1,48.28,41.627Z" transform="translate(-24.592 -20.727)" fill="#191919"/>
      <path id="Path_2761" data-name="Path 2761" d="M6.744,74.543l6.618,3.838a.582.582,0,0,0,.352.078h4.621a.7.7,0,0,0,.7-.7,2.513,2.513,0,0,0-1.331-2.624l-2.35-1.018a3.134,3.134,0,0,1-.313-2.937.649.649,0,0,0-.313-.822l-3.133-1.8a.651.651,0,0,0-.9.235,7.2,7.2,0,0,1-1.723,1.723,8.279,8.279,0,0,0-2.545,3.25.617.617,0,0,0,.313.783Zm3.015-2.976A10.648,10.648,0,0,0,11.443,70L13.6,71.253a4.466,4.466,0,0,0,.822,3.877.819.819,0,0,0,.235.157l2.506,1.1a.774.774,0,0,1,.47.7H13.91L8,73.681a5.743,5.743,0,0,1,1.762-2.115Z" transform="translate(-1.147 -38.918)" fill="#191919"/>
    </g>
  </g>
</svg>
