<svg xmlns="http://www.w3.org/2000/svg" xmlns:xlink="http://www.w3.org/1999/xlink" width="72" height="72" viewBox="0 0 72 72">
  <defs>
    <linearGradient id="linear-gradient" x1="0.5" x2="0.5" y2="1" gradientUnits="objectBoundingBox">
      <stop offset="0" stop-color="#D7FF00"/>
      <stop offset="1" stop-color="#D7FF00"/>
    </linearGradient>
  </defs>
  <g id="Group_34761" data-name="Group 34761" transform="translate(-179 -2183)">
    <rect id="Rectangle_1762" data-name="Rectangle 1762" width="72" height="72" rx="10" transform="translate(179 2183)" fill="url(#linear-gradient)"/>
    <g id="Group_35210" data-name="Group 35210" transform="translate(190 2194)">
      <path id="Path_2735" data-name="Path 2735" d="M7.061,44.062A3.061,3.061,0,1,0,4,41,3.061,3.061,0,0,0,7.061,44.062Zm0-4.592A1.531,1.531,0,1,1,5.531,41,1.531,1.531,0,0,1,7.061,39.471Z" transform="translate(-0.704 -8.67)" fill="#191919"/>
      <path id="Path_2736" data-name="Path 2736" d="M1.765,54.593h9.184a.765.765,0,0,0,.765-.765V50.766A3.826,3.826,0,0,0,7.888,46.94H4.826A3.826,3.826,0,0,0,1,50.766v3.061A.765.765,0,0,0,1.765,54.593Zm.765-3.826a2.3,2.3,0,0,1,2.3-2.3H7.888a2.3,2.3,0,0,1,2.3,2.3v2.3H2.531Z" transform="translate(0 -10.782)" fill="#191919"/>
      <path id="Path_2737" data-name="Path 2737" d="M55.061,44.062A3.061,3.061,0,1,0,52,41,3.061,3.061,0,0,0,55.061,44.062Zm0-4.592A1.531,1.531,0,1,1,53.531,41,1.531,1.531,0,0,1,55.061,39.471Z" transform="translate(-11.97 -8.67)" fill="#191919"/>
      <path id="Path_2738" data-name="Path 2738" d="M55.888,46.94H52.826A3.826,3.826,0,0,0,49,50.766v3.061a.765.765,0,0,0,.765.765h9.184a.765.765,0,0,0,.765-.765V50.766A3.826,3.826,0,0,0,55.888,46.94Zm2.3,6.122H50.531v-2.3a2.3,2.3,0,0,1,2.3-2.3h3.061a2.3,2.3,0,0,1,2.3,2.3Z" transform="translate(-11.266 -10.782)" fill="#191919"/>
      <path id="Path_2739" data-name="Path 2739" d="M38.132,56.663A.765.765,0,0,0,38.9,55.9V52.836a3.826,3.826,0,0,0-3.826-3.826H32.01v-.4H32.1a2.3,2.3,0,0,0,1.439-2.166V44.211a1.483,1.483,0,0,0,.658-1.852l.429-.8a3.643,3.643,0,0,0-.084-3.612A4.041,4.041,0,0,0,31.023,36H26.875a4.041,4.041,0,0,0-3.52,1.944,3.643,3.643,0,0,0-.084,3.612l.429.8a1.483,1.483,0,0,0,.658,1.852v2.235A2.3,2.3,0,0,0,25.8,48.574h.084v.436H22.826A3.826,3.826,0,0,0,19,52.836V55.9a.765.765,0,0,0,.765.765ZM24.694,40.982l-.077-.145a2.089,2.089,0,0,1,.054-2.1,2.518,2.518,0,0,1,2.2-1.2h4.148a2.518,2.518,0,0,1,2.2,1.2,2.089,2.089,0,0,1,.054,2.1l-.077.145-.429-1.4a.765.765,0,0,0-.949-.52l-2.878.765-2.878-.765a.765.765,0,0,0-.911.5Zm.429,1.906a.765.765,0,0,0,.727-.52l.543-1.63,2.372.6a.765.765,0,0,0,.367,0l2.372-.6.543,1.63a.765.765,0,0,0,.727.52.765.765,0,0,0-.765.765v2.793a.765.765,0,0,1-.482.7l-2.3.918a.765.765,0,0,1-.566,0l-2.3-.918a.765.765,0,0,1-.482-.7V43.653A.765.765,0,0,0,25.122,42.887Zm5.357,6.337v.551a1.531,1.531,0,0,1-3.061,0v-.551l.681.268a2.227,2.227,0,0,0,1.7,0Zm-9.949,3.612a2.3,2.3,0,0,1,2.3-2.3h3.161a3.061,3.061,0,0,0,5.923,0h3.161a2.3,2.3,0,0,1,2.3,2.3v2.3H20.531Z" transform="translate(-4.225 -8.215)" fill="#191919"/>
      <path id="Path_2740" data-name="Path 2740" d="M10.134,30.3a.765.765,0,0,0-.612-.513l-1.179-.176-.536-1.14a.765.765,0,0,0-1.393,0l-.536,1.14L4.7,29.789a.758.758,0,0,0-.436,1.278l.88.9-.207,1.278a.765.765,0,0,0,1.125.765l1.01-.559,1.048.582a.769.769,0,0,0,1.125-.811L9.04,31.947l.88-.88a.765.765,0,0,0,.214-.765Zm-2.464.865a.765.765,0,0,0-.207.658v.107H7.418a.765.765,0,0,0-.765,0H6.606v-.107a.765.765,0,0,0-.207-.658l-.038-.1h.115a.765.765,0,0,0,.6-.459.765.765,0,0,0,.582.429H7.77Z" transform="translate(-0.716 -6.343)" fill="#191919"/>
      <path id="Path_2741" data-name="Path 2741" d="M58.134,30.3a.765.765,0,0,0-.612-.513l-1.179-.176-.536-1.14a.765.765,0,0,0-1.393,0l-.536,1.14-1.179.176a.758.758,0,0,0-.436,1.278l.88.9-.207,1.278a.765.765,0,0,0,1.125.765l1.01-.559,1.048.582a.769.769,0,0,0,1.125-.811l-.207-1.278.88-.88a.765.765,0,0,0,.214-.765Zm-2.426.888a.765.765,0,0,0-.207.658v.107h-.046a.765.765,0,0,0-.765,0h-.046v-.107a.765.765,0,0,0-.207-.658l-.077-.122h.115a.765.765,0,0,0,.6-.459.765.765,0,0,0,.582.429h.115Z" transform="translate(-11.982 -6.343)" fill="#191919"/>
      <path id="Path_2742" data-name="Path 2742" d="M23.039,12.2a.765.765,0,0,0,.176.765l2.793,2.862-.658,4.048a.765.765,0,0,0,1.125.765l3.413-1.844,3.413,1.89a.769.769,0,0,0,1.125-.811l-.658-4.048,2.793-2.862a.758.758,0,0,0-.436-1.278L32.3,11.1,30.584,7.443a.765.765,0,0,0-1.393,0L27.477,11.1l-3.826.582a.765.765,0,0,0-.612.513Zm5.074.352a.765.765,0,0,0,.574-.429l1.2-2.556,1.2,2.556a.765.765,0,0,0,.574.429l2.755.429L32.4,15.042a.765.765,0,0,0-.207.658l.474,2.878-2.411-1.332a.765.765,0,0,0-.765,0l-2.411,1.332.513-2.878a.765.765,0,0,0-.207-.658l-2.02-2.066Z" transform="translate(-5.164 -1.407)" fill="#191919"/>
      <path id="Path_2743" data-name="Path 2743" d="M16.31,20.058a11.892,11.892,0,0,0,.7,2.3l1.408-.589a10.653,10.653,0,0,1-.612-2.005Z" transform="translate(-3.593 -4.403)" fill="#191919"/>
      <path id="Path_2744" data-name="Path 2744" d="M17.2,10.26l1.416.582A10.752,10.752,0,0,1,19.6,8.989L18.325,8.14A12.8,12.8,0,0,0,17.2,10.26Z" transform="translate(-3.802 -1.676)" fill="#191919"/>
      <path id="Path_2745" data-name="Path 2745" d="M16,16.275H17.53a10.928,10.928,0,0,1,.2-2.066l-1.531-.3a12.245,12.245,0,0,0-.2,2.365Z" transform="translate(-3.52 -3.03)" fill="#191919"/>
      <path id="Path_2746" data-name="Path 2746" d="M45.937,17a10.569,10.569,0,0,1-.207,2.089l1.531.3A12.52,12.52,0,0,0,47.467,17H45.937Z" transform="translate(-10.498 -3.755)" fill="#191919"/>
      <path id="Path_2747" data-name="Path 2747" d="M18.71,25.649A12.176,12.176,0,0,0,20.241,27.5l1.087-1.079A11.257,11.257,0,0,1,19.988,24.8Z" transform="translate(-4.157 -5.586)" fill="#191919"/>
      <path id="Path_2748" data-name="Path 2748" d="M41.86,6.737A10.423,10.423,0,0,1,43.2,8.351l1.27-.857A11.8,11.8,0,0,0,42.939,5.65Z" transform="translate(-9.59 -1.092)" fill="#191919"/>
      <path id="Path_2749" data-name="Path 2749" d="M37.892,2.19,37.31,3.575a10.821,10.821,0,0,1,1.86.987l.842-1.278a12.244,12.244,0,0,0-2.12-1.094Z" transform="translate(-8.522 -0.279)" fill="#191919"/>
      <path id="Path_2750" data-name="Path 2750" d="M34.059,2.729,34.349,1.2A12.727,12.727,0,0,0,32,1V2.53a10.913,10.913,0,0,1,2.059.2Z" transform="translate(-7.276)" fill="#191919"/>
      <path id="Path_2751" data-name="Path 2751" d="M46.328,10.82l-1.408.589a10.829,10.829,0,0,1,.612,2.005l1.531-.3a11.38,11.38,0,0,0-.735-2.3Z" transform="translate(-10.308 -2.305)" fill="#191919"/>
      <path id="Path_2752" data-name="Path 2752" d="M20.66,5.251,21.747,6.33A10.423,10.423,0,0,1,23.361,4.99l-.849-1.27A11.786,11.786,0,0,0,20.66,5.251Z" transform="translate(-4.614 -0.639)" fill="#191919"/>
      <path id="Path_2753" data-name="Path 2753" d="M28.126,1.31a12.451,12.451,0,0,0-2.3.7l.6,1.416a10.14,10.14,0,0,1,2.005-.62Z" transform="translate(-5.828 -0.073)" fill="#191919"/>
      <path id="Path_2754" data-name="Path 2754" d="M44.92,25.051a12.467,12.467,0,0,0,1.133-2.112l-1.416-.589A10.477,10.477,0,0,1,43.65,24.2Z" transform="translate(-10.01 -5.011)" fill="#191919"/>
      <path id="Path_2755" data-name="Path 2755" d="M40.639,29.5a12.176,12.176,0,0,0,1.852-1.531L41.4,26.89a10.8,10.8,0,0,1-1.615,1.339Z" transform="translate(-9.104 -6.077)" fill="#191919"/>
      <path id="Path_2756" data-name="Path 2756" d="M23.13,29.928a12.428,12.428,0,0,0,2.112,1.125l.589-1.416a10,10,0,0,1-1.852-.987Z" transform="translate(-5.194 -6.49)" fill="#191919"/>
      <path id="Path_2757" data-name="Path 2757" d="M29.191,30.74,28.9,32.271a12.245,12.245,0,0,0,2.372.2V30.939a11.089,11.089,0,0,1-2.082-.2Z" transform="translate(-6.548 -6.98)" fill="#191919"/>
      <path id="Path_2758" data-name="Path 2758" d="M34.75,30.552l.291,1.531a12.107,12.107,0,0,0,2.3-.7l-.589-1.416a10.278,10.278,0,0,1-2,.582Z" transform="translate(-7.921 -6.8)" fill="#191919"/>
    </g>
  </g>
</svg>
