<svg xmlns="http://www.w3.org/2000/svg" xmlns:xlink="http://www.w3.org/1999/xlink" width="72" height="72" viewBox="0 0 72 72">
  <defs>
    <linearGradient id="linear-gradient" x1="0.5" x2="0.5" y2="1" gradientUnits="objectBoundingBox">
      <stop offset="0" stop-color="#D7FF00"/>
      <stop offset="1" stop-color="#D7FF00"/>
    </linearGradient>
  </defs>
  <g id="Group_34759" data-name="Group 34759" transform="translate(-179 -2183)">
    <rect id="Rectangle_1762" data-name="Rectangle 1762" width="72" height="72" rx="10" transform="translate(179 2183)" fill="url(#linear-gradient)"/>
    <g id="Group_35212" data-name="Group 35212" transform="translate(189.999 2195.5)">
      <path id="Path_2762" data-name="Path 2762" d="M384.335,273.686a.987.987,0,1,0-1.372,1.419l1.515,1.465a.987.987,0,0,0,.686.277h.017a.988.988,0,0,0,.693-.3l4.633-4.808a.987.987,0,1,0-1.421-1.369l-3.947,4.1Zm0,0" transform="translate(-344.917 -242.976)" fill="#191919"/>
      <path id="Path_2763" data-name="Path 2763" d="M46.477,18.592A3.978,3.978,0,0,0,50.5,14.672V4.419A3.978,3.978,0,0,0,46.477.5H8.014A3.977,3.977,0,0,0,3.99,4.419v2.6A4.1,4.1,0,0,0,0,11.114V33.7a4.1,4.1,0,0,0,4.1,4.1H16.413l-.49,2.04H14.058a2.871,2.871,0,1,0,0,5.742H28.575a2.871,2.871,0,1,0,0-5.742H26.711l-.489-2.04h9.553A17.729,17.729,0,0,0,37.263,39.4c.259.248,1.018.9,1.774,1.482,1.471,1.132,2.028,1.315,2.411,1.345.04,0,.091.007.153.007.448,0,1.5-.2,3.784-2.324a19,19,0,0,0,3.386-4.043c2.008-3.579,1.844-8.778,1.567-11.558a.988.988,0,0,0-.623-.822l-7.083-2.763V18.592Zm-17,24.115a.9.9,0,0,1-.9.9H14.058a.9.9,0,1,1,0-1.794H28.575a.9.9,0,0,1,.9.9Zm-4.791-2.871H17.953l.49-2.04h5.749ZM47.051,34.9a17.047,17.047,0,0,1-2.865,3.427,8.757,8.757,0,0,1-2.577,1.916,19.219,19.219,0,0,1-2.98-2.269A11.229,11.229,0,0,1,34.8,30.427c-.068-1.274-.113-3.962-.021-5.371l6.859-2.6,6.788,2.648c.331,4.086-.164,7.632-1.378,9.8ZM40.658,20.719,33.51,23.427a.985.985,0,0,0-.627.78,49.352,49.352,0,0,0-.051,6.325q.016.291.045.579H25.236a.987.987,0,0,0,0,1.974h8.02a12.258,12.258,0,0,0,1.158,2.736H4.1A2.124,2.124,0,0,1,1.974,33.7v-.615H17.508a.987.987,0,1,0,0-1.974H1.974v-20A2.122,2.122,0,0,1,3.99,9v5.674a3.977,3.977,0,0,0,4.023,3.919H25.295a.987.987,0,1,0,0-1.974H8.014a2,2,0,0,1-2.049-1.945V4.419A2,2,0,0,1,8.014,2.474H46.477a2,2,0,0,1,2.052,1.945V14.672a2,2,0,0,1-2.052,1.945H33.171a.987.987,0,1,0,0,1.974h7.488v2.128Zm0,0" fill="#191919"/>
      <path id="Path_2764" data-name="Path 2764" d="M358.436,109.836a.965.965,0,0,0-.685.279.921.921,0,0,0-.291.685.982.982,0,0,0,.277.682l.005.005a.972.972,0,0,0,.694.28.96.96,0,0,0,.953-.956.946.946,0,0,0-.28-.688A.907.907,0,0,0,358.436,109.836Zm0,0" transform="translate(-322.201 -98.551)" fill="#191919"/>
      <path id="Path_2765" data-name="Path 2765" d="M422.8,51.207a.926.926,0,0,0,1.778.422l2.726-6.762a.737.737,0,0,0,.061-.3.926.926,0,0,0-1.789-.4l-2.718,6.748a.7.7,0,0,0-.059.285Zm0,0" transform="translate(-381.093 -38.827)" fill="#191919"/>
      <path id="Path_2766" data-name="Path 2766" d="M299.472,72.054a1.591,1.591,0,0,0-.777-1.451,4.438,4.438,0,0,0-1.141-.45,3.061,3.061,0,0,1-.615-.215.2.2,0,0,1-.087-.134.221.221,0,0,1,.1-.181.537.537,0,0,1,.33-.1,1.5,1.5,0,0,1,.383.07l.218.073a1.612,1.612,0,0,0,.47.1.7.7,0,0,0,.531-.235.784.784,0,0,0,.207-.539.876.876,0,0,0-.537-.758,2.456,2.456,0,0,0-1.172-.257,2.383,2.383,0,0,0-1.588.537,1.769,1.769,0,0,0-.643,1.4,1.442,1.442,0,0,0,.657,1.286,4.5,4.5,0,0,0,1.127.439,4.857,4.857,0,0,1,.654.221.244.244,0,0,1,.182.265.318.318,0,0,1-.14.271.679.679,0,0,1-.419.126,2.376,2.376,0,0,1-.744-.168,2.145,2.145,0,0,0-.613-.157.689.689,0,0,0-.526.232.8.8,0,0,0-.2.551v.039a.922.922,0,0,0,.632.794,3.247,3.247,0,0,0,1.39.265,2.459,2.459,0,0,0,1.672-.559,1.884,1.884,0,0,0,.646-1.47Zm0,0" transform="translate(-266.021 -60.825)" fill="#191919"/>
      <path id="Path_2767" data-name="Path 2767" d="M146.015,55.6h-.372l.008-.808a.8.8,0,0,0-.263-.615.831.831,0,0,0-.6-.26.873.873,0,0,0-.875.875V55.6h-.154a.8.8,0,0,0-.571.223.732.732,0,0,0-.243.559.806.806,0,0,0,.814.794h.165v3.257a.9.9,0,0,0,.061.344.82.82,0,0,0,.188.28.833.833,0,0,0,.615.26.817.817,0,0,0,.621-.263.883.883,0,0,0,.243-.623l-.011-3.243h.366a.778.778,0,0,0,.568-.237.756.756,0,0,0,.235-.556.782.782,0,0,0-.794-.794Zm0,0" transform="translate(-128.845 -48.152)" fill="#191919"/>
      <path id="Path_2768" data-name="Path 2768" d="M88.125,48.833V47.145a.832.832,0,0,0-.26-.615.852.852,0,0,0-.615-.26.864.864,0,0,0-.623.26.852.852,0,0,0-.26.615V53.56a.879.879,0,0,0,1.759,0V50.91a.741.741,0,0,1,.244-.562.8.8,0,0,1,.584-.235.749.749,0,0,1,.556.238.79.79,0,0,1,.232.57V53.56a.854.854,0,0,0,.26.623.863.863,0,0,0,.623.26.8.8,0,0,0,.615-.263.853.853,0,0,0,.26-.62V50.669a2.155,2.155,0,0,0-3.375-1.836Zm0,0" transform="translate(-77.847 -41.255)" fill="#191919"/>
      <path id="Path_2769" data-name="Path 2769" d="M236.6,71.564a2.122,2.122,0,0,0-.213-.447,2.914,2.914,0,0,0-.425-.536,2.6,2.6,0,0,0-1.9-.791,2.793,2.793,0,0,0-1.384.353.937.937,0,0,0-1.032-.375.858.858,0,0,0-.548.9V76.9a.822.822,0,0,0,.26.626.859.859,0,0,0,.623.26.828.828,0,0,0,.615-.263.854.854,0,0,0,.26-.612v-2a2.788,2.788,0,0,0,1.205.263,2.654,2.654,0,0,0,2.692-2.692,2.681,2.681,0,0,0-.154-.914Zm-2.564,1.923a1.038,1.038,0,1,1,1.037-1.037A1.037,1.037,0,0,1,234.037,73.487Zm0,0" transform="translate(-208.302 -62.401)" fill="#191919"/>
      <path id="Path_2770" data-name="Path 2770" d="M188.109,55.6h-.375l.008-.808a.8.8,0,0,0-.26-.615A.867.867,0,0,0,186,54.8V55.6h-.151a.8.8,0,0,0-.57.223.731.731,0,0,0-.243.559.8.8,0,0,0,.813.794h.162v3.257a.9.9,0,0,0,.064.344.881.881,0,0,0,.8.54.813.813,0,0,0,.621-.263.861.861,0,0,0,.243-.623l-.008-3.243h.364a.774.774,0,0,0,.568-.237.759.759,0,0,0,.237-.556.787.787,0,0,0-.794-.794Zm0,0" transform="translate(-166.787 -48.152)" fill="#191919"/>
      <path id="Path_2771" data-name="Path 2771" d="M388.72,49.591l2.726-6.765a.71.71,0,0,0,.062-.294.926.926,0,0,0-1.789-.4L387,48.884a.7.7,0,0,0-.062.285.926.926,0,0,0,1.778.422Zm0,0" transform="translate(-348.774 -36.99)" fill="#191919"/>
      <path id="Path_2772" data-name="Path 2772" d="M358.338,79.382a.936.936,0,0,0,.953-.953.959.959,0,0,0-.953-.956,1,1,0,0,0-.688.268.94.94,0,0,0,0,1.376A1.011,1.011,0,0,0,358.338,79.382Zm0,0" transform="translate(-322.102 -69.38)" fill="#191919"/>
      <path id="Path_2773" data-name="Path 2773" d="M287.35,163.906h-.019a.987.987,0,1,0,0,1.974h.019a.987.987,0,1,0,0-1.974Zm0,0" transform="translate(-258.099 -147.288)" fill="#191919"/>
      <path id="Path_2774" data-name="Path 2774" d="M206.908,310.844h-.02a.987.987,0,0,0,0,1.974h.02a.987.987,0,0,0,0-1.974Zm0,0" transform="translate(-185.592 -279.732)" fill="#191919"/>
    </g>
  </g>
</svg>
