<svg xmlns="http://www.w3.org/2000/svg" width="1645.204" height="1267.09" viewBox="0 0 1645.204 1267.09">
  <g id="Group_37905" data-name="Group 37905" transform="translate(-137.453 -6072.081)">
    <path id="Path_51429" data-name="Path 51429" d="M140,6694.081V6827.71s1.74,19.024,40.913,19.024H1752.025s25.659-1.093,27.975,30.47c-.332,32,0,208.979,0,208.979s3.023,29.842-26.244,31.276c-29.554-.574-1584.033,0-1584.033,0s-26.23-3.809-29.723,25.734c.412,29.712,0,239.249,0,239.249s-1.829,20.968,34.149,20.527,1554.384-.533,1554.384-.533" transform="translate(0 -622)" fill="none" stroke="#d7ff35" stroke-width="5"/>
    <path id="Path_51430" data-name="Path 51430" d="M140,6692.305V6827.71s1.74,19.024,40.913,19.024H1752.025s25.659-1.093,27.975,30.47c-.332,32,0,208.979,0,208.979s3.023,29.842-26.244,31.276c-29.554-.574-1584.033,0-1584.033,0s-26.23-3.809-29.723,25.734c.412,29.712,0,239.249,0,239.249s-1.829,20.968,34.149,20.527,1574.581,0,1574.581,0H1780" transform="translate(0 -66.305)" fill="none" stroke="#d7ff35" stroke-width="5"/>
  </g>
</svg>
