<svg xmlns="http://www.w3.org/2000/svg" width="84" height="84" viewBox="0 0 84 84">
  <g id="Group_37692" data-name="Group 37692" transform="translate(-261.635 -2496)">
    <rect id="Rectangle_16472" data-name="Rectangle 16472" width="84" height="84" rx="6" transform="translate(261.635 2496)" fill="#d7ff35"/>
    <g id="SEO_1_" transform="translate(277.635 2508.963)">
      <g id="Group_41628" data-name="Group 41628" transform="translate(13.192 26.398)">
        <g id="Group_41607" data-name="Group 41607" transform="translate(0.975 0.85)">
          <g id="Group_41606" data-name="Group 41606">
            <path id="Path_51783" data-name="Path 51783" d="M61.666,55.454A.972.972,0,0,0,60.3,55.3L46.764,66.087l-6.913-5.334a.971.971,0,0,0-1.3.1l-7.125,7.59a.972.972,0,0,0,1.417,1.331l6.522-6.947,6.818,5.26a.972.972,0,0,0,1.2-.009L61.512,56.819a.971.971,0,0,0,.154-1.365Z" transform="translate(-31.16 -55.087)" fill="#96ceb4"/>
          </g>
        </g>
        <g id="Group_41609" data-name="Group 41609" transform="translate(0.389 18.861)">
          <g id="Group_41608" data-name="Group 41608">
            <path id="Path_51784" data-name="Path 51784" d="M32.175,94.7h-.742a1.567,1.567,0,0,0-1.562,1.562v4.272a1.567,1.567,0,0,0,1.562,1.562h.742a1.567,1.567,0,0,0,1.562-1.562V96.265A1.567,1.567,0,0,0,32.175,94.7Z" transform="translate(-29.871 -94.703)" fill="#71a58a"/>
          </g>
        </g>
        <g id="Group_41611" data-name="Group 41611" transform="translate(7.398 13.254)">
          <g id="Group_41610" data-name="Group 41610">
            <path id="Path_51785" data-name="Path 51785" d="M47.592,82.37H46.85a1.567,1.567,0,0,0-1.562,1.562v9.879a1.567,1.567,0,0,0,1.562,1.562h.742a1.567,1.567,0,0,0,1.562-1.562V83.932A1.567,1.567,0,0,0,47.592,82.37Z" transform="translate(-45.288 -82.37)" fill="#71a58a"/>
          </g>
        </g>
        <g id="Group_41613" data-name="Group 41613" transform="translate(14.408 16.992)">
          <g id="Group_41612" data-name="Group 41612">
            <path id="Path_51786" data-name="Path 51786" d="M63.009,90.592h-.742A1.566,1.566,0,0,0,60.7,92.154V98.3a1.567,1.567,0,0,0,1.562,1.562h.742A1.567,1.567,0,0,0,64.571,98.3V92.154A1.567,1.567,0,0,0,63.009,90.592Z" transform="translate(-60.705 -90.592)" fill="#71a58a"/>
          </g>
        </g>
        <g id="Group_41615" data-name="Group 41615" transform="translate(21.416 13.722)">
          <g id="Group_41614" data-name="Group 41614">
            <path id="Path_51787" data-name="Path 51787" d="M78.424,83.4h-.742A1.567,1.567,0,0,0,76.12,84.96v9.412a1.567,1.567,0,0,0,1.562,1.562h.742a1.567,1.567,0,0,0,1.562-1.562V84.96A1.567,1.567,0,0,0,78.424,83.4Z" transform="translate(-76.12 -83.398)" fill="#71a58a"/>
          </g>
        </g>
        <g id="Group_41617" data-name="Group 41617" transform="translate(28.426 7.179)">
          <g id="Group_41616" data-name="Group 41616">
            <path id="Path_51788" data-name="Path 51788" d="M93.841,69.009H93.1a1.567,1.567,0,0,0-1.562,1.562V86.525A1.567,1.567,0,0,0,93.1,88.087h.742A1.567,1.567,0,0,0,95.4,86.525V70.571a1.567,1.567,0,0,0-1.562-1.562Z" transform="translate(-91.537 -69.009)" fill="#71a58a"/>
          </g>
        </g>
        <g id="Group_41619" data-name="Group 41619" transform="translate(0 12.928)">
          <g id="Group_41618" data-name="Group 41618">
            <circle id="Ellipse_53" data-name="Ellipse 53" cx="1.947" cy="1.947" r="1.947" fill="#ff6f69"/>
          </g>
        </g>
        <g id="Group_41621" data-name="Group 41621" transform="translate(7.151 5.383)">
          <g id="Group_41620" data-name="Group 41620">
            <circle id="Ellipse_54" data-name="Ellipse 54" cx="1.947" cy="1.947" r="1.947" fill="#ff6f69"/>
          </g>
        </g>
        <g id="Group_41623" data-name="Group 41623" transform="translate(14.719 11.059)">
          <g id="Group_41622" data-name="Group 41622">
            <circle id="Ellipse_55" data-name="Ellipse 55" cx="1.947" cy="1.947" r="1.947" fill="#ff6f69"/>
          </g>
        </g>
        <g id="Group_41625" data-name="Group 41625" transform="translate(21.403 5.638)">
          <g id="Group_41624" data-name="Group 41624">
            <circle id="Ellipse_56" data-name="Ellipse 56" cx="1.947" cy="1.947" r="1.947" fill="#ff6f69"/>
          </g>
        </g>
        <g id="Group_41627" data-name="Group 41627" transform="translate(28.412)">
          <g id="Group_41626" data-name="Group 41626">
            <circle id="Ellipse_57" data-name="Ellipse 57" cx="1.947" cy="1.947" r="1.947" fill="#ff6f69"/>
          </g>
        </g>
      </g>
      <g id="Group_41630" data-name="Group 41630" transform="translate(14.671 13.107)">
        <g id="Group_41629" data-name="Group 41629">
          <path id="Path_51789" data-name="Path 51789" d="M64.639,23.985H37.513a5.259,5.259,0,0,0-5.244,5.244v.913a5.259,5.259,0,0,0,5.244,5.244H64.639a5.259,5.259,0,0,0,5.244-5.244v-.913A5.259,5.259,0,0,0,64.639,23.985Z" transform="translate(-32.269 -23.985)" fill="#99734a"/>
        </g>
      </g>
      <g id="Group_41632" data-name="Group 41632" transform="translate(15.91 14.301)">
        <g id="Group_41631" data-name="Group 41631">
          <path id="Path_51790" data-name="Path 51790" d="M65.624,26.613H39.5a4.506,4.506,0,0,0,0,9.012H65.625a4.506,4.506,0,1,0,0-9.012Z" transform="translate(-34.995 -26.613)" fill="#ffeead"/>
        </g>
      </g>
      <g id="Group_41634" data-name="Group 41634" transform="translate(42.861 14.301)">
        <g id="Group_41633" data-name="Group 41633">
          <path id="Path_51791" data-name="Path 51791" d="M97.951,26.612H94.272v9.012h3.679a4.506,4.506,0,1,0,0-9.012Z" transform="translate(-94.272 -26.612)" fill="#96ceb4"/>
        </g>
      </g>
      <g id="Group_41661" data-name="Group 41661" transform="translate(-0.001 4.037)">
        <g id="Group_41658" data-name="Group 41658">
          <g id="Group_41636" data-name="Group 41636" transform="translate(5.507 21.448)">
            <g id="Group_41635" data-name="Group 41635">
              <path id="Path_51792" data-name="Path 51792" d="M18.312,51.7l-.7-.344a1.485,1.485,0,0,0-1.98.679l-3.368,6.888a1.485,1.485,0,0,0,.679,1.98l.7.344a1.485,1.485,0,0,0,1.98-.679l3.368-6.888A1.485,1.485,0,0,0,18.312,51.7Z" transform="translate(-12.112 -51.211)" fill="#96ceb4"/>
            </g>
          </g>
          <g id="Group_41638" data-name="Group 41638" transform="translate(0 28.734)">
            <g id="Group_41637" data-name="Group 41637">
              <path id="Path_51793" data-name="Path 51793" d="M7.954,67.646l-.332-.162a2.46,2.46,0,0,0-3.281,1.126L.247,76.982a2.46,2.46,0,0,0,1.126,3.281l.332.162A2.46,2.46,0,0,0,4.987,79.3l4.094-8.372A2.461,2.461,0,0,0,7.954,67.646Z" transform="translate(0.001 -67.235)" fill="#ff6f69"/>
            </g>
          </g>
          <g id="Group_41655" data-name="Group 41655" transform="translate(1.9)">
            <g id="Group_41640" data-name="Group 41640">
              <g id="Group_41639" data-name="Group 41639">
                <circle id="Ellipse_58" data-name="Ellipse 58" cx="13.5" cy="13.5" r="13.5" fill="#ff6f69"/>
              </g>
            </g>
            <g id="Group_41642" data-name="Group 41642" transform="translate(1.148 1.148)">
              <g id="Group_41641" data-name="Group 41641">
                <circle id="Ellipse_59" data-name="Ellipse 59" cx="12.352" cy="12.352" r="12.352" fill="#fff"/>
              </g>
            </g>
            <g id="Group_41644" data-name="Group 41644" transform="translate(2.018 2.018)">
              <g id="Group_41643" data-name="Group 41643">
                <circle id="Ellipse_60" data-name="Ellipse 60" cx="11.482" cy="11.482" r="11.482" fill="#99734a"/>
              </g>
            </g>
            <g id="Group_41646" data-name="Group 41646" transform="translate(2.018 4.136)">
              <g id="Group_41645" data-name="Group 41645">
                <path id="Path_51794" data-name="Path 51794" d="M26.724,13.134H13.454a11.485,11.485,0,0,0-.385,18.443H27.132a11.472,11.472,0,0,0-.408-18.443Z" transform="translate(-8.616 -13.134)" fill="#ffeead"/>
              </g>
            </g>
            <g id="Group_41654" data-name="Group 41654" transform="translate(2.757 8.487)">
              <g id="Group_41648" data-name="Group 41648" transform="translate(0 0.014)">
                <g id="Group_41647" data-name="Group 41647">
                  <path id="Path_51795" data-name="Path 51795" d="M15.283,27.4c-.387-.273-1.034-.69-1.436-.963-.531-.36-.919-.632-.919-1.107A.639.639,0,0,1,13.6,24.7a.631.631,0,0,1,.647.431c.029.1.058.216.086.331a1.017,1.017,0,0,0,1.034.7A1.129,1.129,0,0,0,16.519,24.9a1.947,1.947,0,0,0-.4-1.207,2.987,2.987,0,0,0-2.428-.963c-1.982,0-3.219,1.121-3.219,3,0,1.624,1.063,2.3,2.011,2.917.245.158.474.316.718.474.675.416,1.092.689,1.092,1.25a.846.846,0,0,1-.877.847.789.789,0,0,1-.79-.589,2.333,2.333,0,0,1-.072-.46,1.032,1.032,0,0,0-1.078-1.006c-.833,0-1.235.676-1.235,1.451a2.344,2.344,0,0,0,1.408,2.184,4.474,4.474,0,0,0,1.825.345c2.184,0,3.39-1.293,3.39-3.075A2.955,2.955,0,0,0,15.283,27.4Z" transform="translate(-10.241 -22.734)" fill="#e05858"/>
                </g>
              </g>
              <g id="Group_41650" data-name="Group 41650" transform="translate(7.555 0.158)">
                <g id="Group_41649" data-name="Group 41649">
                  <path id="Path_51796" data-name="Path 51796" d="M32.447,31.47a1.355,1.355,0,0,0-1.106-.345H29.387V28.942h1.666c.4,0,1.034-.015,1.25-.647a1.3,1.3,0,0,0,.058-.36,1.023,1.023,0,0,0-.23-.661,1.456,1.456,0,0,0-1.078-.345H29.387v-1.81h1.839a1.593,1.593,0,0,0,1.135-.3.906.906,0,0,0,.3-.718c0-1.048-1.034-1.048-1.451-1.048H28.568a1.835,1.835,0,0,0-1.235.3,1.617,1.617,0,0,0-.474,1.394v6.8a1.633,1.633,0,0,0,.359,1.307,1.8,1.8,0,0,0,1.336.345h2.758a1.427,1.427,0,0,0,1.121-.331.932.932,0,0,0,.273-.689.994.994,0,0,0-.26-.7Z" transform="translate(-26.859 -23.051)" fill="#e05858"/>
                </g>
              </g>
              <g id="Group_41653" data-name="Group 41653" transform="translate(14.321)">
                <g id="Group_41652" data-name="Group 41652">
                  <g id="Group_41651" data-name="Group 41651">
                    <path id="Path_51797" data-name="Path 51797" d="M48.19,24.082A3.262,3.262,0,0,0,45.216,22.7a3.983,3.983,0,0,0-2.256.575c-1.163.79-1.221,2.083-1.221,4.166,0,2.787,0,3.864.762,4.726a3.668,3.668,0,0,0,2.7.963,3.467,3.467,0,0,0,2.931-1.193c.445-.647.574-1.35.574-3.65,0-2.873-.144-3.563-.517-4.209Zm-2.083,5.962c-.015.273-.072,1.005-.877,1.005-.847,0-.876-.819-.9-1.666-.015-.46-.015-.919-.015-1.379,0-.575,0-1.81.057-2.313.029-.244.1-.89.819-.89.546,0,.791.331.877.905.057.416.072,1.652.072,2.2,0,.042-.014,1.81-.029,2.141Z" transform="translate(-41.739 -22.703)" fill="#e05858"/>
                  </g>
                </g>
              </g>
            </g>
          </g>
          <g id="Group_41657" data-name="Group 41657" transform="translate(4.156 27.6)">
            <g id="Group_41656" data-name="Group 41656">
              <path id="Path_51798" data-name="Path 51798" d="M14.689,66.537,11.336,64.9A1.526,1.526,0,0,0,10,67.639l3.354,1.64a1.526,1.526,0,0,0,1.341-2.742Z" transform="translate(-9.141 -64.743)" fill="#e05858"/>
            </g>
          </g>
        </g>
        <g id="Group_41660" data-name="Group 41660" transform="translate(7.533 2.73)">
          <g id="Group_41659" data-name="Group 41659">
            <path id="Path_51799" data-name="Path 51799" d="M32.628,13.711a11.178,11.178,0,0,0-15.768-.792.887.887,0,0,0,1.19,1.315,9.4,9.4,0,0,1,13.263.666.887.887,0,1,0,1.315-1.19Z" transform="translate(-16.568 -10.041)" fill="#fff"/>
          </g>
        </g>
      </g>
    </g>
  </g>
</svg>
