<svg xmlns="http://www.w3.org/2000/svg" width="84" height="84" viewBox="0 0 84 84">
  <g id="Group_37692" data-name="Group 37692" transform="translate(-261.635 -2496)">
    <rect id="Rectangle_16472" data-name="Rectangle 16472" width="84" height="84" rx="6" transform="translate(261.635 2496)" fill="#d7ff35"/>
    <g id="Group_41701" data-name="Group 41701" transform="translate(278.635 2512.997)">
      <path id="Path_51830" data-name="Path 51830" d="M4.545,0H45.454A4.546,4.546,0,0,1,50,4.548V40.912a4.546,4.546,0,0,1-4.545,4.545H4.545A4.546,4.546,0,0,1,0,40.912V4.548A4.546,4.546,0,0,1,4.545,0Z" fill="#f0eaf9"/>
      <path id="Path_51831" data-name="Path 51831" d="M2.273,85.34H47.727A2.273,2.273,0,0,1,50,87.613h0a2.273,2.273,0,0,1-2.273,2.273H2.273A2.273,2.273,0,0,1,0,87.613H0A2.273,2.273,0,0,1,2.273,85.34Z" transform="translate(0 -76.246)" fill="#e1d5f3"/>
      <path id="Path_51832" data-name="Path 51832" d="M4.545,0H45.454A4.546,4.546,0,0,1,50,4.548h0v6.818H0V4.548A4.546,4.546,0,0,1,4.545,0Z" fill="#5628b4"/>
      <path id="Path_51833" data-name="Path 51833" d="M23.607,0H64.516a2.273,2.273,0,0,1,2.273,2.273h0a2.273,2.273,0,0,1-2.273,2.273H23.607a2.273,2.273,0,0,1-2.273-2.273h0A2.273,2.273,0,0,1,23.607,0Z" transform="translate(-19.061)" fill="#6f48bf"/>
      <path id="Path_51834" data-name="Path 51834" d="M22.47,85.34H65.652a1.136,1.136,0,0,1,1.136,1.136h0a1.136,1.136,0,0,1-1.136,1.136H22.47a1.136,1.136,0,0,1-1.136-1.136h0A1.136,1.136,0,0,1,22.47,85.34Z" transform="translate(-19.061 -76.246)" fill="#421198"/>
      <path id="Path_51835" data-name="Path 51835" d="M315.712,149.337a1.136,1.136,0,0,0-1.136,1.136h0v23.864a2.273,2.273,0,0,1-2.273,2.273H299.8a1.136,1.136,0,1,0,0,2.273h12.5a4.546,4.546,0,0,0,4.545-4.545V150.473a1.136,1.136,0,0,0-1.136-1.136Z" transform="translate(-266.849 -133.425)" fill="#d9c9ef"/>
      <path id="Path_51836" data-name="Path 51836" d="M1.136,192h0a1.136,1.136,0,0,1,1.136,1.136v18.182a1.136,1.136,0,0,1-1.136,1.136h0A1.136,1.136,0,0,1,0,211.318V193.136A1.136,1.136,0,0,1,1.136,192Z" transform="translate(0 -171.543)" fill="#dfd2f2"/>
      <circle id="Ellipse_65" data-name="Ellipse 65" cx="1.136" cy="1.136" r="1.136" transform="translate(4.546 4.549)" fill="#f7b236"/>
      <circle id="Ellipse_66" data-name="Ellipse 66" cx="1.136" cy="1.136" r="1.136" transform="translate(9.091 4.549)" fill="#b39ddd"/>
      <circle id="Ellipse_67" data-name="Ellipse 67" cx="1.136" cy="1.136" r="1.136" transform="translate(13.636 4.549)" fill="#d80e70"/>
      <g id="Group_41701-2" data-name="Group 41701" transform="translate(4.545 15.912)">
        <path id="Path_51837" data-name="Path 51837" d="M195.667,165.249H172.94a2.273,2.273,0,0,1-2.273-2.273V151.613a2.273,2.273,0,0,1,2.273-2.273h22.727a2.273,2.273,0,0,1,2.273,2.273v11.363A2.273,2.273,0,0,1,195.667,165.249Z" transform="translate(-157.031 -149.34)" fill="#b39ddd"/>
        <path id="Path_51838" data-name="Path 51838" d="M49.485,158.431H44.94a2.273,2.273,0,0,1-2.273-2.273v-4.545a2.273,2.273,0,0,1,2.273-2.273h4.545a2.273,2.273,0,0,1,2.273,2.273v4.545A2.273,2.273,0,0,1,49.485,158.431Z" transform="translate(-42.667 -149.34)" fill="#b39ddd"/>
        <path id="Path_51839" data-name="Path 51839" d="M49.485,307.76H44.94a2.273,2.273,0,0,1-2.273-2.273v-4.545a2.273,2.273,0,0,1,2.273-2.273h4.545a2.273,2.273,0,0,1,2.273,2.273v4.545A2.273,2.273,0,0,1,49.485,307.76Z" transform="translate(-42.667 -282.761)" fill="#b39ddd"/>
        <path id="Path_51840" data-name="Path 51840" d="M171.8,320h6.818a1.136,1.136,0,0,1,1.136,1.136h0a1.136,1.136,0,0,1-1.136,1.136H171.8a1.136,1.136,0,0,1-1.136-1.136h0A1.136,1.136,0,0,1,171.8,320Z" transform="translate(-157.031 -301.819)" fill="#b39ddd"/>
        <path id="Path_51841" data-name="Path 51841" d="M385.133,320h2.273a1.136,1.136,0,0,1,1.136,1.136h0a1.136,1.136,0,0,1-1.136,1.136h-2.273A1.136,1.136,0,0,1,384,321.136h0A1.136,1.136,0,0,1,385.133,320Z" transform="translate(-347.634 -301.819)" fill="#b39ddd"/>
        <path id="Path_51842" data-name="Path 51842" d="M278.473,320h6.818a1.136,1.136,0,0,1,1.136,1.136h0a1.136,1.136,0,0,1-1.136,1.136h-6.818a1.136,1.136,0,0,1-1.136-1.136h0A1.136,1.136,0,0,1,278.473,320Z" transform="translate(-252.337 -301.819)" fill="#b39ddd"/>
        <path id="Path_51843" data-name="Path 51843" d="M171.8,362.67h9.091a1.136,1.136,0,0,1,1.136,1.136h0a1.136,1.136,0,0,1-1.136,1.136H171.8a1.136,1.136,0,0,1-1.136-1.136h0A1.136,1.136,0,0,1,171.8,362.67Z" transform="translate(-157.031 -339.943)" fill="#b39ddd"/>
        <path id="Path_51844" data-name="Path 51844" d="M299.8,362.67h2.273a1.136,1.136,0,0,1,1.136,1.136h0a1.136,1.136,0,0,1-1.136,1.136H299.8a1.136,1.136,0,0,1-1.136-1.136h0A1.136,1.136,0,0,1,299.8,362.67Z" transform="translate(-271.394 -339.943)" fill="#b39ddd"/>
        <path id="Path_51845" data-name="Path 51845" d="M50.621,258.279H43.8a1.136,1.136,0,0,1-1.136-1.136h0a1.136,1.136,0,0,1,1.136-1.136h6.818a1.136,1.136,0,0,1,1.136,1.136h0A1.136,1.136,0,0,1,50.621,258.279Z" transform="translate(-42.667 -244.642)" fill="#b39ddd"/>
      </g>
      <path id="Path_51846" data-name="Path 51846" d="M82.182,320H79.909a11.364,11.364,0,0,0-11.364,11.364h0v.06a2.284,2.284,0,0,1-2.329,2.212h-1.08a1.136,1.136,0,1,0,0,2.273h7.955a11.364,11.364,0,0,0,11.364-11.364V320Z" transform="translate(-57.182 -285.909)" fill="#f7b236"/>
      <path id="Path_51847" data-name="Path 51847" d="M84.454,324.548V320H82.182a11.364,11.364,0,0,1-11.364,11.364H68.546v.06a2.284,2.284,0,0,1-2.329,2.212h-1.08a1.136,1.136,0,1,0,0,2.273h7.955a11.364,11.364,0,0,0,11.364-11.364Z" transform="translate(-57.182 -285.909)" fill="#f58b04"/>
      <path id="Path_51848" data-name="Path 51848" d="M277.966,107.432a2.6,2.6,0,0,0-2.661-.628h0A32.8,32.8,0,0,0,256.9,123.061l-.9,1.791V129.4h4.545l1.791-.9a32.8,32.8,0,0,0,16.257-18.409h0a2.6,2.6,0,0,0-.628-2.661Z" transform="translate(-228.727 -95.304)" fill="#d80e70"/>
      <ellipse id="Ellipse_68" data-name="Ellipse 68" cx="2.273" cy="6.047" rx="2.273" ry="6.047" transform="translate(33.695 28.614) rotate(-135)" fill="#e976af"/>
      <path id="Path_51849" data-name="Path 51849" d="M275.3,106.8c-.393.139-.767.318-1.153.471A20.529,20.529,0,0,1,256,127.071V129.4h4.545l1.791-.9a32.8,32.8,0,0,0,16.257-18.409A2.6,2.6,0,0,0,275.3,106.8Z" transform="translate(-228.727 -95.304)" fill="#a60068"/>
      <path id="Path_51850" data-name="Path 51850" d="M234.667,281.882l2.273,2.273,4.545-2.273-4.545-4.545Z" transform="translate(-209.667 -247.789)" fill="#5628b4"/>
      <path id="Path_51851" data-name="Path 51851" d="M240.277,297.022l1.044,1.044,4.545-2.273-2.181-2.181a2.411,2.411,0,0,0-3.861.627h0a2.411,2.411,0,0,0,.452,2.783Z" transform="translate(-214.049 -261.7)" fill="#420f9b"/>
      <ellipse id="Ellipse_69" data-name="Ellipse 69" cx="1.77" cy="4.521" rx="1.77" ry="4.521" transform="translate(15.169 44.259) rotate(-135)" fill="#fbda9e"/>
    </g>
  </g>
</svg>
