<svg xmlns="http://www.w3.org/2000/svg" width="84" height="84" viewBox="0 0 84 84">
  <g id="Group_37692" data-name="Group 37692" transform="translate(-261.635 -2495.5)">
    <rect id="Rectangle_16472" data-name="Rectangle 16472" width="84" height="84" rx="6" transform="translate(261.635 2495.5)" fill="#d7ff35"/>
    <g id="Group_41702" data-name="Group 41702" transform="translate(276.635 2512)">
      <path id="Path_51852" data-name="Path 51852" d="M58.81,48.5h-49A1.82,1.82,0,0,0,8,50.315v23.59H60.625V50.315A1.82,1.82,0,0,0,58.81,48.5Zm0,0" transform="translate(-7.093 -42.556)" fill="#9bfbff"/>
      <path id="Path_51853" data-name="Path 51853" d="M60.625,272.5v3.629a1.82,1.82,0,0,1-1.815,1.815h-49A1.82,1.82,0,0,1,8,276.129V272.5Zm0,0" transform="translate(-7.093 -241.151)" fill="#e0e0e2"/>
      <path id="Path_51854" data-name="Path 51854" d="M120,8.5h27.22V41.164H120Zm0,0" transform="translate(-106.39 -7.093)" fill="#ffeb99"/>
      <path id="Path_51855" data-name="Path 51855" d="M153.405,384.5v5.444H128V384.5Zm0,0" transform="translate(-113.483 -340.448)" fill="#57565c"/>
      <path id="Path_51856" data-name="Path 51856" d="M208,320.5h7.259v7.259H208Zm0,0" transform="translate(-184.41 -283.707)" fill="#acabb1"/>
      <path id="Path_51857" data-name="Path 51857" d="M359.571,86.318a2.722,2.722,0,0,1-.635,1.751l-1.162,1.388-4.173-3.5,1.171-1.388a2.722,2.722,0,0,1,4.8,1.751Zm0,0" transform="translate(-313.497 -73.678)" fill="#a78966"/>
      <path id="Path_51858" data-name="Path 51858" d="M269,205.924l-5,1.724.835-5.226Zm0,0" transform="translate(-234.058 -179.021)" fill="#a78966"/>
      <path id="Path_51859" data-name="Path 51859" d="M271.285,115.484l9.345-11.113,4.167,3.5-9.345,11.113Zm0,0" transform="translate(-240.517 -92.091)" fill="#64c37d"/>
      <path id="Path_51860" data-name="Path 51860" d="M144,256.5h11.8v1.815H144Zm0,0" transform="translate(-127.668 -226.966)"/>
      <path id="Path_51861" data-name="Path 51861" d="M144,216.5h9.981v1.815H144Zm0,0" transform="translate(-127.668 -191.502)"/>
      <path id="Path_51862" data-name="Path 51862" d="M51.717,5.037H41.737V1.407A.907.907,0,0,0,40.83.5H13.61a.907.907,0,0,0-.907.907V5.037H2.722A2.722,2.722,0,0,0,0,7.759v27.22A2.722,2.722,0,0,0,2.722,37.7H22.683v5.444H14.517a.907.907,0,0,0-.907.907v4.537H11.8V50.4H42.644V48.588H40.83V44.052a.907.907,0,0,0-.907-.907H31.756V37.7H51.717a2.722,2.722,0,0,0,2.722-2.722V7.759A2.722,2.722,0,0,0,51.717,5.037Zm0,1.815a.907.907,0,0,1,.907.907V30.442H41.737V20.216l4.4-5.241a3.629,3.629,0,0,0-4.4-5.578V6.851ZM34.831,25.623l-2.78-2.333,8.166-9.73L43,15.893Zm-3.414-.5,1.716,1.44-2.057.71ZM44.746,13.808l-.583.694-2.78-2.333.583-.695a1.815,1.815,0,1,1,2.78,2.333ZM14.517,2.315H39.922v8.772L30.078,22.82a.907.907,0,0,0-.2.44l-.831,5.226a.907.907,0,0,0,1.192,1l5-1.724a.9.9,0,0,0,.4-.272l4.285-5.109V33.164H14.517ZM2.722,6.851H12.7v23.59H1.815V7.759a.907.907,0,0,1,.907-.907ZM39.015,48.588H15.425V44.959h23.59Zm-9.073-5.444H24.5V37.7h5.444Zm21.776-7.259h-49a.907.907,0,0,1-.907-.907V32.256H12.7v1.815a.907.907,0,0,0,.907.907H40.83a.907.907,0,0,0,.907-.907V32.256H52.625v2.722A.907.907,0,0,1,51.718,35.886Zm0,0"/>
      <path id="Path_51863" data-name="Path 51863" d="M432,288.5h1.815v1.815H432Zm0,0" transform="translate(-383.004 -255.336)"/>
      <path id="Path_51864" data-name="Path 51864" d="M144,32.5h3.629v1.815H144Zm0,0" transform="translate(-127.668 -28.371)"/>
      <path id="Path_51865" data-name="Path 51865" d="M192,32.5h15.424v1.815H192Zm0,0" transform="translate(-170.224 -28.371)"/>
      <path id="Path_51866" data-name="Path 51866" d="M144,72.5h20.868v1.815H144Zm0,0" transform="translate(-127.668 -63.834)"/>
      <path id="Path_51867" data-name="Path 51867" d="M144,112.5h1.815v1.815H144Zm0,0" transform="translate(-127.668 -99.297)"/>
      <path id="Path_51868" data-name="Path 51868" d="M176,112.5h1.815v1.815H176Zm0,0" transform="translate(-156.039 -99.297)"/>
      <path id="Path_51869" data-name="Path 51869" d="M208,112.5h9.981v1.815H208Zm0,0" transform="translate(-184.41 -99.297)"/>
      <path id="Path_51870" data-name="Path 51870" d="M144,152.5h5.444v1.815H144Zm0,0" transform="translate(-127.668 -134.761)"/>
      <path id="Path_51871" data-name="Path 51871" d="M208,152.5h6.351v1.815H208Zm0,0" transform="translate(-184.41 -134.761)"/>
    </g>
  </g>
</svg>
