<svg xmlns="http://www.w3.org/2000/svg" width="84" height="84" viewBox="0 0 84 84">
  <g id="Group_37692" data-name="Group 37692" transform="translate(-261.635 -2495.5)">
    <rect id="Rectangle_16472" data-name="Rectangle 16472" width="84" height="84" rx="6" transform="translate(261.635 2495.5)" fill="#d7ff35"/>
    <g id="Group_41704" data-name="Group 41704" transform="translate(278.135 2511.18)">
      <g id="Group_41704-2" data-name="Group 41704" transform="translate(5.719 9.857)">
        <path id="Path_51892" data-name="Path 51892" d="M47.52,12.36V43.231a4.839,4.839,0,0,1-4.832,4.832H12.422A4.839,4.839,0,0,1,7.59,43.231V12.36Z" transform="translate(-7.024 -11.794)" fill="#e5e8ff"/>
        <path id="Path_51893" data-name="Path 51893" d="M42.542,48.482H12.268a5.4,5.4,0,0,1-5.4-5.4V12.206a.563.563,0,0,1,.566-.566H47.358a.563.563,0,0,1,.566.566V43.077a5.4,5.4,0,0,1-5.382,5.406ZM8.009,12.771V43.077a4.262,4.262,0,0,0,4.259,4.259H42.534a4.262,4.262,0,0,0,4.259-4.259V12.771Z" transform="translate(-6.87 -11.64)" fill="#161c1c"/>
      </g>
      <g id="Group_41705" data-name="Group 41705" transform="translate(5.727 3.32)">
        <path id="Path_51894" data-name="Path 51894" d="M47.52,10.577V8.872A4.839,4.839,0,0,0,42.688,4.04H12.422A4.839,4.839,0,0,0,7.59,8.872v1.705Z" transform="translate(-7.032 -3.474)" fill="#04b5a4"/>
        <path id="Path_51895" data-name="Path 51895" d="M47.368,10.989H7.446a.563.563,0,0,1-.566-.566V8.718a5.4,5.4,0,0,1,5.4-5.4H42.544a5.4,5.4,0,0,1,5.4,5.4v1.705a.575.575,0,0,1-.574.566ZM8.011,9.857H46.8V8.718a4.262,4.262,0,0,0-4.259-4.259H12.27A4.262,4.262,0,0,0,8.011,8.718Z" transform="translate(-6.88 -3.32)" fill="#161c1c"/>
      </g>
      <g id="Group_41706" data-name="Group 41706" transform="translate(10.386 6.589)">
        <path id="Path_51896" data-name="Path 51896" d="M13.376,8.612a.608.608,0,0,1-.4-.165.451.451,0,0,1-.118-.181.527.527,0,0,1-.047-.22.593.593,0,0,1,.165-.4.513.513,0,0,1,.189-.118.553.553,0,0,1,.613.118.593.593,0,0,1,.165.4.682.682,0,0,1-.039.22.743.743,0,0,1-.126.181.576.576,0,0,1-.181.126A.682.682,0,0,1,13.376,8.612Z" transform="translate(-12.81 -7.481)" fill="#161c1c"/>
      </g>
      <g id="Group_41707" data-name="Group 41707" transform="translate(12.783 6.589)">
        <path id="Path_51897" data-name="Path 51897" d="M16.426,8.611a.682.682,0,0,1-.22-.039.985.985,0,0,1-.189-.126.451.451,0,0,1-.118-.181.521.521,0,0,1-.039-.22.624.624,0,0,1,.157-.4.587.587,0,0,1,.189-.118.519.519,0,0,1,.432,0,.6.6,0,0,1,.181.118.593.593,0,0,1,.165.4.682.682,0,0,1-.039.22.623.623,0,0,1-.306.306A.674.674,0,0,1,16.426,8.611Z" transform="translate(-15.86 -7.48)" fill="#161c1c"/>
      </g>
      <g id="Group_41708" data-name="Group 41708" transform="translate(15.172 6.589)">
        <path id="Path_51898" data-name="Path 51898" d="M19.466,8.611a.682.682,0,0,1-.22-.039.742.742,0,0,1-.181-.126.471.471,0,0,1-.126-.181.682.682,0,0,1-.039-.22.593.593,0,0,1,.165-.4.553.553,0,0,1,.181-.118.519.519,0,0,1,.432,0,.642.642,0,0,1,.189.118.593.593,0,0,1,.165.4.527.527,0,0,1-.047.22.717.717,0,0,1-.118.181.608.608,0,0,1-.4.165Z" transform="translate(-18.9 -7.48)" fill="#161c1c"/>
      </g>
      <g id="Group_41709" data-name="Group 41709" transform="translate(23.076 6.589)">
        <path id="Path_51899" data-name="Path 51899" d="M47.731,8.611H29.526a.566.566,0,0,1,0-1.131H47.731a.566.566,0,1,1,0,1.131Z" transform="translate(-28.96 -7.48)" fill="#161c1c"/>
      </g>
      <g id="Group_41710" data-name="Group 41710" transform="translate(2.121 32.415)">
        <path id="Path_51900" data-name="Path 51900" d="M19.254,48.836a8.482,8.482,0,1,1-8.486-8.486A8.49,8.49,0,0,1,19.254,48.836Z" transform="translate(-2.29 -40.35)" fill="#04b5a4"/>
      </g>
      <g id="Group_41711" data-name="Group 41711" transform="translate(1.555 31.857)">
        <path id="Path_51901" data-name="Path 51901" d="M10.614,57.743a9.051,9.051,0,1,1,9.051-9.051A9.057,9.057,0,0,1,10.614,57.743Zm0-16.979a7.92,7.92,0,1,0,7.92,7.92A7.925,7.925,0,0,0,10.614,40.764Z" transform="translate(-1.57 -39.64)" fill="#161c1c"/>
      </g>
      <g id="Group_41712" data-name="Group 41712" transform="translate(6.45 32.164)">
        <path id="Path_51902" data-name="Path 51902" d="M9.953,46.009l2.341,2.781,8.054-8.761,2.318,1.862L12.247,53.018,7.8,48.036Z" transform="translate(-7.8 -40.03)" fill="#fff"/>
      </g>
      <g id="Group_41713" data-name="Group 41713" transform="translate(5.883 31.589)">
        <path id="Path_51903" data-name="Path 51903" d="M12.092,53.435a.577.577,0,0,1-.424-.189L7.221,48.257a.568.568,0,0,1,.039-.794l2.153-2.027a.606.606,0,0,1,.424-.157.543.543,0,0,1,.4.2l1.925,2.286,7.614-8.289a.562.562,0,0,1,.77-.055l2.318,1.862a.58.58,0,0,1,.212.4.587.587,0,0,1-.149.424L12.509,53.254a.6.6,0,0,1-.416.181ZM8.439,47.911l3.669,4.109,9.578-10.23-1.43-1.147-7.692,8.376a.537.537,0,0,1-.432.181.565.565,0,0,1-.424-.2L9.751,46.67Z" transform="translate(-7.078 -39.298)" fill="#161c1c"/>
      </g>
      <g id="Group_41714" data-name="Group 41714" transform="translate(26.172 32.195)">
        <path id="Path_51904" data-name="Path 51904" d="M48.575,41.2H33.466a.566.566,0,1,1,0-1.131H48.575a.566.566,0,0,1,0,1.131Z" transform="translate(-32.9 -40.07)" fill="#161c1c"/>
      </g>
      <g id="Group_41715" data-name="Group 41715" transform="translate(26.172 35.872)">
        <path id="Path_51905" data-name="Path 51905" d="M44.191,45.881H33.466a.566.566,0,1,1,0-1.131H44.183a.563.563,0,0,1,.566.566.557.557,0,0,1-.558.566Z" transform="translate(-32.9 -44.75)" fill="#161c1c"/>
      </g>
      <g id="Group_41716" data-name="Group 41716" transform="translate(26.172 39.55)">
        <path id="Path_51906" data-name="Path 51906" d="M47.169,50.561h-13.7a.566.566,0,1,1,0-1.131h13.7a.566.566,0,1,1,0,1.131Z" transform="translate(-32.9 -49.43)" fill="#161c1c"/>
      </g>
      <g id="Group_41717" data-name="Group 41717" transform="translate(1.5 14.084)">
        <path id="Path_51907" data-name="Path 51907" d="M50.589,19.4v9.711a1.658,1.658,0,0,1-1.658,1.658H3.886A1.665,1.665,0,0,1,2.22,29.109V19.4A1.665,1.665,0,0,1,3.886,17.74H48.939a1.652,1.652,0,0,1,1.65,1.658Z" transform="translate(-1.654 -17.174)" fill="#ffd24f"/>
        <path id="Path_51908" data-name="Path 51908" d="M48.777,31.179H3.731A2.233,2.233,0,0,1,1.5,28.955V19.244A2.228,2.228,0,0,1,3.731,17.02H48.785a2.227,2.227,0,0,1,2.224,2.224v9.712a2.238,2.238,0,0,1-2.231,2.224ZM3.731,18.151a1.09,1.09,0,0,0-1.092,1.092v9.711a1.1,1.1,0,0,0,1.092,1.092H48.785a1.1,1.1,0,0,0,1.092-1.092V19.244a1.1,1.1,0,0,0-1.092-1.092Z" transform="translate(-1.5 -17.02)" fill="#161c1c"/>
      </g>
      <g id="Group_41718" data-name="Group 41718" transform="translate(1.5 14.084)">
        <path id="Path_51909" data-name="Path 51909" d="M15.09,17.74H3.886A1.665,1.665,0,0,0,2.22,19.4v9.711a1.665,1.665,0,0,0,1.666,1.658h11.2Z" transform="translate(-1.654 -17.174)" fill="#ff4148"/>
        <path id="Path_51910" data-name="Path 51910" d="M14.936,31.179H3.731A2.233,2.233,0,0,1,1.5,28.955V19.244A2.228,2.228,0,0,1,3.731,17.02h11.2a.563.563,0,0,1,.566.566V30.605a.575.575,0,0,1-.566.574ZM3.731,18.151a1.09,1.09,0,0,0-1.092,1.092v9.711a1.1,1.1,0,0,0,1.092,1.092H14.37v-11.9Z" transform="translate(-1.5 -17.02)" fill="#161c1c"/>
      </g>
      <g id="Group_41719" data-name="Group 41719" transform="translate(4.525 17.18)">
        <path id="Path_51911" data-name="Path 51911" d="M11.2,22.571a3.009,3.009,0,1,1-4.243,0A3.014,3.014,0,0,1,11.2,22.571Z" transform="translate(-5.505 -21.117)" fill="#ff4148"/>
        <path id="Path_51912" data-name="Path 51912" d="M8.925,28.118a3.581,3.581,0,1,1,2.53-1.053A3.522,3.522,0,0,1,8.925,28.118Zm0-6.019a2.393,2.393,0,0,0-1.721.715,2.447,2.447,0,0,0,0,3.457,2.5,2.5,0,0,0,3.457,0,2.447,2.447,0,0,0,0-3.457A2.456,2.456,0,0,0,8.925,22.1Z" transform="translate(-5.35 -20.96)" fill="#161c1c"/>
      </g>
      <g id="Group_41720" data-name="Group 41720" transform="translate(9.656 22.319)">
        <path id="Path_51913" data-name="Path 51913" d="M12.61,28.22,14.1,29.713" transform="translate(-12.036 -27.654)" fill="#fff"/>
        <path id="Path_51914" data-name="Path 51914" d="M13.939,30.124a.572.572,0,0,1-.4-.165l-1.493-1.493a.567.567,0,0,1,.8-.8l1.493,1.493a.569.569,0,0,1,0,.8A.558.558,0,0,1,13.939,30.124Z" transform="translate(-11.88 -27.5)" fill="#161c1c"/>
      </g>
      <g id="Group_41721" data-name="Group 41721" transform="translate(18.597 17.636)">
        <path id="Path_51915" data-name="Path 51915" d="M24.729,28.336a.34.34,0,0,1-.244-.086.313.313,0,0,1-.11-.212l-1.108-6.215a.071.071,0,0,1-.008-.039v-.031a.189.189,0,0,1,.055-.141.2.2,0,0,1,.149-.063h1.021c.165,0,.259.071.283.2l.731,4.1.786-2.554a.591.591,0,0,1,.094-.165.272.272,0,0,1,.22-.086h.613a.262.262,0,0,1,.22.086.419.419,0,0,1,.086.165l.794,2.538.715-4.094c.016-.134.118-.2.291-.2h1.021a.215.215,0,0,1,.149.063.189.189,0,0,1,.055.141v.031a.071.071,0,0,1-.008.039L29.428,28.03a.348.348,0,0,1-.11.212.354.354,0,0,1-.244.086h-.786a.292.292,0,0,1-.236-.086.381.381,0,0,1-.11-.173l-1.037-3-1.029,3a.426.426,0,0,1-.11.173.327.327,0,0,1-.244.086h-.794Z" transform="translate(-23.26 -21.54)" fill="#242b2b"/>
        <path id="Path_51916" data-name="Path 51916" d="M34.879,28.336a.34.34,0,0,1-.244-.086.313.313,0,0,1-.11-.212l-1.108-6.215a.071.071,0,0,1-.008-.039v-.031a.189.189,0,0,1,.055-.141.2.2,0,0,1,.149-.063h1.021c.165,0,.259.071.283.2l.731,4.1.786-2.554a.591.591,0,0,1,.094-.165.272.272,0,0,1,.22-.086h.613a.262.262,0,0,1,.22.086.419.419,0,0,1,.086.165l.794,2.538.715-4.094c.016-.134.118-.2.291-.2h1.021a.215.215,0,0,1,.149.063.189.189,0,0,1,.055.141v.031a.071.071,0,0,1-.008.039L39.578,28.03a.348.348,0,0,1-.11.212.354.354,0,0,1-.244.086h-.786a.292.292,0,0,1-.236-.086.381.381,0,0,1-.11-.173l-1.037-3-1.029,3a.426.426,0,0,1-.11.173.327.327,0,0,1-.244.086h-.794Z" transform="translate(-25.435 -21.54)" fill="#242b2b"/>
        <path id="Path_51917" data-name="Path 51917" d="M45.037,28.336a.34.34,0,0,1-.244-.086.362.362,0,0,1-.118-.212l-1.108-6.215a.071.071,0,0,1-.008-.039v-.031a.189.189,0,0,1,.055-.141.2.2,0,0,1,.149-.063h1.021c.165,0,.259.071.283.2l.731,4.1.786-2.554a.591.591,0,0,1,.094-.165.272.272,0,0,1,.22-.086h.613a.262.262,0,0,1,.22.086.419.419,0,0,1,.086.165l.794,2.538.715-4.094c.016-.134.118-.2.291-.2h1.021a.215.215,0,0,1,.149.063.189.189,0,0,1,.055.141v.031a.071.071,0,0,1-.008.039L49.728,28.03a.348.348,0,0,1-.11.212.354.354,0,0,1-.244.086h-.786a.292.292,0,0,1-.236-.086.38.38,0,0,1-.11-.173l-1.037-3-1.029,3a.426.426,0,0,1-.11.173.327.327,0,0,1-.244.086h-.786Z" transform="translate(-27.61 -21.54)" fill="#242b2b"/>
        <path id="Path_51918" data-name="Path 51918" d="M53.854,29.761a.241.241,0,0,1-.244-.244V28.434a.241.241,0,0,1,.244-.244h1.084a.241.241,0,0,1,.244.244v1.084a.241.241,0,0,1-.244.244Z" transform="translate(-29.763 -22.965)" fill="#242b2b"/>
        <path id="Path_51919" data-name="Path 51919" d="M57.264,29.761a.241.241,0,0,1-.244-.244V28.434a.241.241,0,0,1,.244-.244h1.084a.241.241,0,0,1,.244.244v1.084a.241.241,0,0,1-.244.244Z" transform="translate(-30.494 -22.965)" fill="#242b2b"/>
      </g>
    </g>
  </g>
</svg>
