<svg xmlns="http://www.w3.org/2000/svg" width="84" height="84" viewBox="0 0 84 84">
  <g id="Group_37692" data-name="Group 37692" transform="translate(-261.635 -2495.5)">
    <rect id="Rectangle_16472" data-name="Rectangle 16472" width="84" height="84" rx="6" transform="translate(261.635 2495.5)" fill="#d7ff35"/>
    <g id="Group_41703" data-name="Group 41703" transform="translate(279.635 2510.548)">
      <g id="Color" transform="translate(0.571 3.522)">
        <rect id="Rectangle_16567" data-name="Rectangle 16567" width="47.592" height="26.271" rx="12" transform="translate(0 20.198)" fill="#03a9f4"/>
        <rect id="Rectangle_16568" data-name="Rectangle 16568" width="19.417" height="40.738" rx="6" transform="translate(44.165 23.625) rotate(90)" fill="#eceff1"/>
        <g id="Group_41703-2" data-name="Group 41703" transform="translate(2.475 0.001)">
          <path id="Path_51872" data-name="Path 51872" d="M110.831,10.506l-2.154,2.154a1.142,1.142,0,1,0,1.615,1.615l2.154-2.154a1.142,1.142,0,1,0-1.615-1.615Z" transform="translate(-70.139 -7.994)" fill="#ffb300"/>
          <path id="Path_51873" data-name="Path 51873" d="M110.831,40.275l-2.154-2.154a1.142,1.142,0,1,1,1.615-1.615l2.154,2.154a1.142,1.142,0,1,1-1.615,1.615Z" transform="translate(-70.139 -24.095)" fill="#ffb300"/>
          <path id="Path_51874" data-name="Path 51874" d="M9.95,10.506,12.1,12.66a1.142,1.142,0,1,1-1.615,1.615L8.335,12.121A1.142,1.142,0,1,1,9.95,10.506Z" transform="translate(-8 -7.994)" fill="#ffb300"/>
          <path id="Path_51875" data-name="Path 51875" d="M9.95,40.275,12.1,38.121a1.142,1.142,0,1,0-1.615-1.615L8.335,38.66A1.142,1.142,0,1,0,9.95,40.275Z" transform="translate(-8 -24.095)" fill="#ffb300"/>
          <path id="Path_51876" data-name="Path 51876" d="M44.233,5.541l2.889,4.7a2.284,2.284,0,0,0,1.409,1.023l5.359,1.294a2.284,2.284,0,0,1,1.2,3.7l-3.575,4.2a2.284,2.284,0,0,0-.538,1.656l.423,5.5A2.284,2.284,0,0,1,48.255,29.9l-5.1-2.1a2.284,2.284,0,0,0-1.741,0l-5.1,2.1a2.284,2.284,0,0,1-3.148-2.287l.423-5.5a2.284,2.284,0,0,0-.538-1.656l-3.574-4.2a2.284,2.284,0,0,1,1.2-3.7l5.359-1.294a2.284,2.284,0,0,0,1.409-1.023l2.889-4.7a2.284,2.284,0,0,1,3.892,0Z" transform="translate(-20.966 -4.453)" fill="#ffb300"/>
        </g>
        <path id="Path_51877" data-name="Path 51877" d="M69.437,10.884,64,18.37V4.45a2.26,2.26,0,0,1,1.946,1.089l2.89,4.694a2.292,2.292,0,0,0,.6.651Z" transform="translate(-40.204 -4.45)" fill="#ffa000"/>
        <path id="Path_51878" data-name="Path 51878" d="M49.162,41.01,40.98,52.268a2.261,2.261,0,0,1-.933-2.022l.423-5.5a2.284,2.284,0,0,0-.107-.879Z" transform="translate(-25.366 -27.09)" fill="#ffa000"/>
        <path id="Path_51879" data-name="Path 51879" d="M76.8,31.9l-3.571,4.2a2.3,2.3,0,0,0-.434.777L64,34.012l13.234-4.3A2.259,2.259,0,0,1,76.8,31.9Z" transform="translate(-40.204 -20.093)" fill="#ffa000"/>
        <path id="Path_51880" data-name="Path 51880" d="M37.037,21.35l5.437,7.485-13.234-4.3a2.253,2.253,0,0,1,1.633-1.512l5.357-1.3A2.3,2.3,0,0,0,37.037,21.35Z" transform="translate(-18.678 -14.916)" fill="#ffa000"/>
        <path id="Path_51881" data-name="Path 51881" d="M72.178,52.268a2.252,2.252,0,0,1-2.212.267l-5.094-2.1A2.3,2.3,0,0,0,64,50.262V41.01Z" transform="translate(-40.204 -27.09)" fill="#ffa000"/>
      </g>
      <g id="Outline" transform="translate(0 2.952)">
        <path id="Path_51882" data-name="Path 51882" d="M109.768,13.75l2.154-2.153A1.713,1.713,0,1,0,109.5,9.174l-2.154,2.153a1.713,1.713,0,0,0,2.423,2.423Zm-1.615-1.615,2.154-2.154a.571.571,0,1,1,.808.808l-2.155,2.154a.571.571,0,1,1-.808-.808Z" transform="translate(-66.164 -6.494)"/>
        <path id="Path_51883" data-name="Path 51883" d="M109.768,35.174a1.713,1.713,0,0,0-2.423,2.423L109.5,39.75a1.713,1.713,0,1,0,2.423-2.423Zm1.346,3.769a.571.571,0,0,1-.808,0l-2.153-2.154a.571.571,0,1,1,.808-.808l2.154,2.154a.574.574,0,0,1,0,.807Z" transform="translate(-66.164 -22.595)"/>
        <path id="Path_51884" data-name="Path 51884" d="M9.156,13.75a1.713,1.713,0,0,0,2.423-2.423L9.425,9.174A1.713,1.713,0,1,0,7,11.6ZM7.809,9.981a.571.571,0,0,1,.808,0l2.153,2.154a.571.571,0,1,1-.806.808L7.809,10.789a.571.571,0,0,1,0-.808Z" transform="translate(-4.025 -6.494)"/>
        <path id="Path_51885" data-name="Path 51885" d="M9.425,39.75,11.579,37.6a1.713,1.713,0,0,0-2.423-2.423L7,37.327A1.713,1.713,0,1,0,9.425,39.75ZM7.809,38.135l2.155-2.154a.571.571,0,1,1,.808.808L8.619,38.943a.571.571,0,1,1-.808-.808Z" transform="translate(-4.025 -22.595)"/>
        <path id="Path_51886" data-name="Path 51886" d="M57.571,89.257a.571.571,0,0,0,.571-.571V85.83h3.046v2.855a.571.571,0,1,0,1.142,0V83.165a2.665,2.665,0,0,0-5.33,0v5.521A.571.571,0,0,0,57.571,89.257Zm.571-6.092a1.523,1.523,0,0,1,3.046,0v1.523H58.142Z" transform="translate(-35.298 -50.975)"/>
        <path id="Path_51887" data-name="Path 51887" d="M96.142,89.257h1.839a2.733,2.733,0,0,0,2.73-2.73v-3.3a2.733,2.733,0,0,0-2.73-2.73H96.142A1.142,1.142,0,0,0,95,81.642v6.472A1.142,1.142,0,0,0,96.142,89.257Zm0-7.615h1.839a1.59,1.59,0,0,1,1.588,1.588v3.3a1.59,1.59,0,0,1-1.588,1.588H96.142Z" transform="translate(-58.83 -50.975)"/>
        <path id="Path_51888" data-name="Path 51888" d="M22.322,80.5H20.142A1.142,1.142,0,0,0,19,81.642v6.472a1.142,1.142,0,0,0,1.142,1.142h2.179a2.392,2.392,0,0,0,2.389-2.389V86.7a2.383,2.383,0,0,0-.843-1.818,2.383,2.383,0,0,0,.843-1.818v-.171A2.392,2.392,0,0,0,22.322,80.5Zm1.247,6.367a1.249,1.249,0,0,1-1.247,1.247H20.142V85.45h2.179A1.249,1.249,0,0,1,23.569,86.7Zm0-3.807a1.249,1.249,0,0,1-1.247,1.247H20.142V81.642h2.179a1.249,1.249,0,0,1,1.247,1.247Z" transform="translate(-11.766 -50.975)"/>
        <path id="Path_51889" data-name="Path 51889" d="M76.571,89.257a.571.571,0,0,0,.571-.571V83.018l2.741,5.729a.761.761,0,0,0,1.447-.327V81.071a.571.571,0,0,0-1.142,0v5.668l-2.741-5.729A.761.761,0,0,0,76,81.338v7.348A.571.571,0,0,0,76.571,89.257Z" transform="translate(-47.064 -50.975)"/>
        <path id="Path_51890" data-name="Path 51890" d="M38,81.642v7.044a.571.571,0,0,0,1.142,0V86l3.423,3.112a.571.571,0,1,0,.768-.845L40.239,85.45h1a2.475,2.475,0,1,0,0-4.95H39.142A1.142,1.142,0,0,0,38,81.642Zm1.142,0h2.094a1.333,1.333,0,0,1,0,2.665H39.142Z" transform="translate(-23.532 -50.975)"/>
        <path id="Path_51891" data-name="Path 51891" d="M43.594,23.149h-9.81l-.155-2.01a1.7,1.7,0,0,1,.4-1.242l3.574-4.2a2.856,2.856,0,0,0-1.5-4.626L30.744,9.778a1.7,1.7,0,0,1-1.057-.768L26.8,4.312a2.856,2.856,0,0,0-4.865,0l-2.888,4.7a1.7,1.7,0,0,1-1.057.768L12.63,11.071a2.855,2.855,0,0,0-1.5,4.628L14.7,19.9a1.7,1.7,0,0,1,.4,1.242l-.155,2.01H5.14A5.146,5.146,0,0,0,0,28.289V45.422a5.146,5.146,0,0,0,5.14,5.14H43.594a5.146,5.146,0,0,0,5.14-5.14V28.289A5.146,5.146,0,0,0,43.594,23.149Zm-6.857-8.191-3.575,4.2a2.916,2.916,0,0,0-.31.443l-6.637-2.157,10.927-3.553a1.7,1.7,0,0,1-.4,1.069ZM32.49,21.227l.424,5.5a1.7,1.7,0,0,1-.3,1.1l-6.754-9.3L32.5,20.686a2.88,2.88,0,0,0-.01.541ZM29.964,10.709a2.869,2.869,0,0,0,.512.177l5.359,1.294a1.7,1.7,0,0,1,.952.621L25.86,16.354ZM24.938,4.194a1.7,1.7,0,0,1,.888.718l2.888,4.694a2.863,2.863,0,0,0,.325.431l-4.1,5.647Zm0,15.005,6.753,9.3a1.7,1.7,0,0,1-1.139-.057l-5.1-2.1a2.891,2.891,0,0,0-.517-.158ZM20.019,9.607l2.888-4.694a1.7,1.7,0,0,1,.888-.718V15.684l-4.1-5.647a2.882,2.882,0,0,0,.325-.431ZM16.234,20.686l6.638-2.157-6.755,9.294a1.7,1.7,0,0,1-.3-1.1l.424-5.5a2.88,2.88,0,0,0-.01-.541ZM23.8,19.2V26.18a2.891,2.891,0,0,0-.517.158l-5.1,2.1a1.7,1.7,0,0,1-1.142.056ZM12.9,12.184l5.359-1.294a2.862,2.862,0,0,0,.513-.177l4.1,5.646L11.945,12.807a1.7,1.7,0,0,1,.954-.622ZM12,14.958a1.7,1.7,0,0,1-.406-1.069l10.927,3.553L15.881,19.6a2.894,2.894,0,0,0-.31-.443ZM15.85,29.165a2.838,2.838,0,0,0,2.767.33l4.31-1.776h2.88L30.116,29.5a2.86,2.86,0,0,0,3.814-1.777h8.522a1.715,1.715,0,0,1,1.713,1.713V44.28a1.715,1.715,0,0,1-1.713,1.713H6.282A1.715,1.715,0,0,1,4.569,44.28V29.431a1.715,1.715,0,0,1,1.713-1.713H14.8a2.84,2.84,0,0,0,1.046,1.447ZM47.592,45.422a4,4,0,0,1-4,4H5.14a4,4,0,0,1-4-4V28.289a4,4,0,0,1,4-4h9.722l-.176,2.284h-8.4a2.859,2.859,0,0,0-2.856,2.856V44.28a2.859,2.859,0,0,0,2.856,2.855h36.17a2.859,2.859,0,0,0,2.855-2.856V29.431a2.859,2.859,0,0,0-2.856-2.856h-8.4l-.176-2.284h9.722a4,4,0,0,1,4,4Z" transform="translate(0 -2.952)"/>
      </g>
    </g>
  </g>
</svg>
