<svg xmlns="http://www.w3.org/2000/svg" width="84" height="84" viewBox="0 0 84 84">
  <g id="Group_37692" data-name="Group 37692" transform="translate(-261.635 -2496)">
    <rect id="Rectangle_16472" data-name="Rectangle 16472" width="84" height="84" rx="6" transform="translate(261.635 2496)" fill="#d7ff35"/>
    <g id="Group_41662" data-name="Group 41662" transform="translate(277.355 2510.74)">
      <g id="Group_41674" data-name="Group 41674" transform="translate(1.871 1.843)">
        <g id="Group_41662-2" data-name="Group 41662" transform="translate(26.293)">
          <path id="Path_51800" data-name="Path 51800" d="M56.843,11.56l-2.215-.544a8.473,8.473,0,0,0-1.04-2.506l1.182-1.955a.643.643,0,0,0-.095-.78L53.557,4.656a.643.643,0,0,0-.78-.095L50.822,5.744A8.473,8.473,0,0,0,48.316,4.7l-.544-2.223A.635.635,0,0,0,47.149,2H45.565a.626.626,0,0,0-.615.481L44.406,4.7A8.473,8.473,0,0,0,41.9,5.736L39.945,4.554a.643.643,0,0,0-.78.095L38.046,5.767a.643.643,0,0,0-.095.78L39.134,8.5a8.473,8.473,0,0,0-1.04,2.506l-2.223.552a.632.632,0,0,0-.481.615v1.584a.626.626,0,0,0,.481.615l2.215.544a8.341,8.341,0,0,0,1.04,2.5l-1.182,1.955a.643.643,0,0,0,.095.78l1.119,1.119a.643.643,0,0,0,.78.095l1.955-1.182a8.473,8.473,0,0,0,2.506,1.04l.544,2.215a.632.632,0,0,0,.615.481h1.584a.626.626,0,0,0,.615-.481l.544-2.215a8.473,8.473,0,0,0,2.506-1.04l1.955,1.182a.643.643,0,0,0,.78-.095l1.119-1.119a.643.643,0,0,0,.095-.78l-1.182-1.955a8.514,8.514,0,0,0,1.04-2.5l2.215-.544a.632.632,0,0,0,.481-.615V12.175A.587.587,0,0,0,56.843,11.56ZM46.361,17.566a4.595,4.595,0,1,1,4.595-4.595A4.595,4.595,0,0,1,46.361,17.566Z" transform="translate(-35.39 -2)" fill="#5d5b68"/>
        </g>
        <g id="Group_41663" data-name="Group 41663" transform="translate(0 12.461)">
          <path id="Path_51801" data-name="Path 51801" d="M40.957,19.394a1.584,1.584,0,0,0-1.584-1.584H3.614A1.584,1.584,0,0,0,2.03,19.394V40.966H40.957Z" transform="translate(-2.03 -17.81)" fill="#009aff"/>
        </g>
        <g id="Group_41664" data-name="Group 41664" transform="translate(15.684 12.461)" opacity="0.35">
          <path id="Path_51802" data-name="Path 51802" d="M43.588,17.81H21.93a3.152,3.152,0,0,0,3.153,3.153H42.02v4.224a3.152,3.152,0,0,0,3.153,3.153V19.394A1.584,1.584,0,0,0,43.588,17.81Z" transform="translate(-21.93 -17.81)" fill="#fff"/>
        </g>
        <g id="Group_41665" data-name="Group 41665" transform="translate(0 35.616)">
          <path id="Path_51803" data-name="Path 51803" d="M2.03,47.19V52.4a1.584,1.584,0,0,0,1.584,1.584H39.372A1.584,1.584,0,0,0,40.957,52.4V47.19Z" transform="translate(-2.03 -47.19)" fill="#e6e9ee"/>
        </g>
        <g id="Group_41666" data-name="Group 41666" transform="translate(0 12.405)" opacity="0.1">
          <path id="Path_51804" data-name="Path 51804" d="M31.972,43.063A25.323,25.323,0,0,1,6.649,17.74H3.614A1.584,1.584,0,0,0,2.03,19.324V46.1a1.584,1.584,0,0,0,1.584,1.584h35.75A1.584,1.584,0,0,0,40.949,46.1V43.063Z" transform="translate(-2.03 -17.74)"/>
        </g>
        <g id="Group_41667" data-name="Group 41667" transform="translate(13.666 42.41)">
          <path id="Path_51805" data-name="Path 51805" d="M19.37,55.81H30.964V59.1H19.37Z" transform="translate(-19.37 -55.81)" fill="#aab2bd"/>
        </g>
        <g id="Group_41668" data-name="Group 41668" transform="translate(8.835 45.697)">
          <path id="Path_51806" data-name="Path 51806" d="M32.912,59.98H14.824a1.584,1.584,0,0,0-1.584,1.584v1.584H34.5V61.564A1.6,1.6,0,0,0,32.912,59.98Z" transform="translate(-13.24 -59.98)" fill="#e6e9ee"/>
        </g>
        <g id="Group_41669" data-name="Group 41669" transform="translate(22.494 21.658)">
          <path id="Path_51807" data-name="Path 51807" d="M55.31,29.48H32.154a1.584,1.584,0,0,0-1.584,1.584v3.641H56.894V31.064A1.584,1.584,0,0,0,55.31,29.48Z" transform="translate(-30.57 -29.48)" fill="#ff4823"/>
        </g>
        <g id="Group_41670" data-name="Group 41670" transform="translate(22.565 21.658)" opacity="0.1">
          <path id="Path_51808" data-name="Path 51808" d="M35.893,32.932a3.451,3.451,0,0,1-3.452-3.452h-.2a1.584,1.584,0,0,0-1.584,1.584v3.641H56.984V32.924H35.893Z" transform="translate(-30.66 -29.48)"/>
        </g>
        <g id="Group_41671" data-name="Group 41671" transform="translate(22.494 26.892)">
          <path id="Path_51809" data-name="Path 51809" d="M30.57,36.12V56.509a1.584,1.584,0,0,0,1.584,1.584H55.31a1.584,1.584,0,0,0,1.584-1.584V36.12Z" transform="translate(-30.57 -36.12)" fill="#fec200"/>
        </g>
        <g id="Group_41672" data-name="Group 41672" transform="translate(25.662 30.06)">
          <path id="Path_51810" data-name="Path 51810" d="M53.789,40.14H35.378a.79.79,0,0,0-.788.788v7.314a.79.79,0,0,0,.788.788H53.789a.79.79,0,0,0,.788-.788V40.928A.785.785,0,0,0,53.789,40.14Z" transform="translate(-34.59 -40.14)" fill="#e6e9ee"/>
        </g>
        <g id="Group_41673" data-name="Group 41673" transform="translate(22.494 26.884)" opacity="0.1">
          <path id="Path_51811" data-name="Path 51811" d="M52.551,53.954A17.847,17.847,0,0,1,34.708,36.11H30.57V56.5a1.584,1.584,0,0,0,1.584,1.584H55.31A1.584,1.584,0,0,0,56.894,56.5V53.946H52.551Z" transform="translate(-30.57 -36.11)"/>
        </g>
      </g>
      <g id="Group_41700" data-name="Group 41700" transform="translate(1.28 1.26)">
        <g id="Group_41675" data-name="Group 41675" transform="translate(0 12.453)">
          <path id="Path_51812" data-name="Path 51812" d="M24.365,41.4H1.871a.6.6,0,0,1-.591-.591V19.235A2.18,2.18,0,0,1,3.455,17.06H39.213a2.18,2.18,0,0,1,2.175,2.175v7.613a.591.591,0,1,1-1.182,0V19.235a.994.994,0,0,0-.993-.993H3.455a1,1,0,0,0-.993.993V40.208h21.9a.6.6,0,0,1,0,1.19Z" transform="translate(-1.28 -17.06)" fill="#211e27"/>
        </g>
        <g id="Group_41676" data-name="Group 41676" transform="translate(0 35.608)">
          <path id="Path_51813" data-name="Path 51813" d="M24.365,54.416H3.455A2.18,2.18,0,0,1,1.28,52.241v-5.21a.591.591,0,1,1,1.182,0v5.21a1,1,0,0,0,.993.993h20.91a.591.591,0,0,1,0,1.182Z" transform="translate(-1.28 -46.44)" fill="#211e27"/>
        </g>
        <g id="Group_41677" data-name="Group 41677" transform="translate(19.254 38.8)">
          <circle id="Ellipse_61" data-name="Ellipse 61" cx="0.796" cy="0.796" r="0.796" fill="#211e27"/>
        </g>
        <g id="Group_41678" data-name="Group 41678" transform="translate(13.666 42.402)">
          <path id="Path_51814" data-name="Path 51814" d="M19.211,59.529a.6.6,0,0,1-.591-.591V55.651a.591.591,0,1,1,1.182,0v3.287A.6.6,0,0,1,19.211,59.529Z" transform="translate(-18.62 -55.06)" fill="#211e27"/>
        </g>
        <g id="Group_41679" data-name="Group 41679" transform="translate(22.494 21.658)">
          <path id="Path_51815" data-name="Path 51815" d="M56.735,35.148H30.411a.6.6,0,0,1-.591-.591V30.915A2.18,2.18,0,0,1,32,28.74H55.151a2.18,2.18,0,0,1,2.175,2.175v3.641A.6.6,0,0,1,56.735,35.148ZM31,33.965H56.144v-3.05a.989.989,0,0,0-.993-.993H32a1,1,0,0,0-.993.993Z" transform="translate(-29.82 -28.74)" fill="#211e27"/>
        </g>
        <g id="Group_41682" data-name="Group 41682" transform="translate(3.964 19.635)">
          <g id="Group_41680" data-name="Group 41680">
            <path id="Path_51816" data-name="Path 51816" d="M9.581,32.712a.585.585,0,0,1-.418-.173l-2.68-2.68a.59.59,0,0,1,0-.835l2.68-2.68a.591.591,0,0,1,.835.835L7.737,29.441,10,31.7a.6.6,0,0,1,0,.835A.572.572,0,0,1,9.581,32.712Z" transform="translate(-6.31 -26.172)" fill="#211e27"/>
          </g>
          <g id="Group_41681" data-name="Group 41681" transform="translate(10.792 0)">
            <path id="Path_51817" data-name="Path 51817" d="M20.592,32.712a.585.585,0,0,1-.418-.173.6.6,0,0,1,0-.835l2.262-2.262-2.262-2.262a.591.591,0,1,1,.835-.835l2.68,2.68a.59.59,0,0,1,0,.835l-2.68,2.68a.585.585,0,0,1-.418.173Z" transform="translate(-20.002 -26.173)" fill="#211e27"/>
          </g>
        </g>
        <g id="Group_41683" data-name="Group 41683" transform="translate(8.32 17.21)">
          <path id="Path_51818" data-name="Path 51818" d="M12.43,34.488a.59.59,0,0,1-.536-.843l4.76-10.206a.592.592,0,0,1,1.072.5l-4.76,10.206A.6.6,0,0,1,12.43,34.488Z" transform="translate(-11.836 -23.096)" fill="#211e27"/>
        </g>
        <g id="Group_41684" data-name="Group 41684" transform="translate(22.494 26.884)">
          <path id="Path_51819" data-name="Path 51819" d="M55.151,58.526H32A2.18,2.18,0,0,1,29.82,56.35V35.961a.6.6,0,0,1,.591-.591H56.735a.6.6,0,0,1,.591.591v20.4a2.178,2.178,0,0,1-2.175,2.167ZM31,36.552V56.358a.994.994,0,0,0,.993.993H55.151a1,1,0,0,0,.993-.993V36.552Z" transform="translate(-29.82 -35.37)" fill="#211e27"/>
        </g>
        <g id="Group_41687" data-name="Group 41687" transform="translate(25.662 42.316)">
          <g id="Group_41685" data-name="Group 41685">
            <path id="Path_51820" data-name="Path 51820" d="M42.029,56.132h-7.6a.591.591,0,0,1,0-1.182h7.6a.591.591,0,0,1,0,1.182Z" transform="translate(-33.84 -54.95)" fill="#211e27"/>
          </g>
          <g id="Group_41686" data-name="Group 41686" transform="translate(0 3.373)">
            <path id="Path_51821" data-name="Path 51821" d="M38.064,60.412H34.431a.591.591,0,1,1,0-1.182h3.633a.591.591,0,1,1,0,1.182Z" transform="translate(-33.84 -59.23)" fill="#211e27"/>
          </g>
        </g>
        <g id="Group_41690" data-name="Group 41690" transform="translate(38.052 42.316)">
          <g id="Group_41688" data-name="Group 41688" transform="translate(0)">
            <path id="Path_51822" data-name="Path 51822" d="M57.749,56.132h-7.6a.591.591,0,0,1,0-1.182h7.6a.591.591,0,0,1,0,1.182Z" transform="translate(-49.56 -54.95)" fill="#211e27"/>
          </g>
          <g id="Group_41689" data-name="Group 41689" transform="translate(0 3.373)">
            <path id="Path_51823" data-name="Path 51823" d="M53.784,60.412H50.151a.591.591,0,1,1,0-1.182h3.633a.591.591,0,1,1,0,1.182Z" transform="translate(-49.56 -59.23)" fill="#211e27"/>
          </g>
        </g>
        <g id="Group_41691" data-name="Group 41691" transform="translate(25.662 30.052)">
          <path id="Path_51824" data-name="Path 51824" d="M54.419,49.463H34.431a.6.6,0,0,1-.591-.591v-8.89a.6.6,0,0,1,.591-.591H54.419a.6.6,0,0,1,.591.591v8.89A.6.6,0,0,1,54.419,49.463Zm-19.4-1.182H53.827V40.572H35.022Z" transform="translate(-33.84 -39.39)" fill="#211e27"/>
        </g>
        <g id="Group_41692" data-name="Group 41692" transform="translate(25.657 30.047)">
          <path id="Path_51825" data-name="Path 51825" d="M34.43,49.461a.6.6,0,0,1-.544-.355.589.589,0,0,1,.3-.78l19.987-8.89a.591.591,0,0,1,.481,1.08l-19.98,8.89A.551.551,0,0,1,34.43,49.461Z" transform="translate(-33.834 -39.384)" fill="#211e27"/>
        </g>
        <g id="Group_41693" data-name="Group 41693" transform="translate(25.665 30.047)">
          <path id="Path_51826" data-name="Path 51826" d="M54.419,49.461a.6.6,0,0,1-.236-.047L34.2,40.516a.591.591,0,1,1,.481-1.08l19.987,8.89a.589.589,0,0,1,.3.78.6.6,0,0,1-.544.355Z" transform="translate(-33.844 -39.384)" fill="#211e27"/>
        </g>
        <g id="Group_41694" data-name="Group 41694" transform="translate(25.67 24.062)">
          <circle id="Ellipse_62" data-name="Ellipse 62" cx="0.796" cy="0.796" r="0.796" fill="#211e27"/>
        </g>
        <g id="Group_41695" data-name="Group 41695" transform="translate(28.523 24.062)">
          <circle id="Ellipse_63" data-name="Ellipse 63" cx="0.796" cy="0.796" r="0.796" fill="#211e27"/>
        </g>
        <g id="Group_41696" data-name="Group 41696" transform="translate(31.376 24.062)">
          <circle id="Ellipse_64" data-name="Ellipse 64" cx="0.796" cy="0.796" r="0.796" fill="#211e27"/>
        </g>
        <g id="Group_41697" data-name="Group 41697" transform="translate(26.293)">
          <path id="Path_51827" data-name="Path 51827" d="M52.949,21.909a1.173,1.173,0,0,1-.638-.181l-1.655-1a8.829,8.829,0,0,1-2.364.922.6.6,0,0,1-.709-.441.589.589,0,0,1,.441-.709,7.889,7.889,0,0,0,2.325-.962.577.577,0,0,1,.615,0l1.955,1.182L54.1,19.592l-1.174-2.01a.594.594,0,0,1,0-.615,7.683,7.683,0,0,0,.962-2.325.6.6,0,0,1,.433-.441l2.215-.544.032-1.631-2.254-.591a.589.589,0,0,1-.433-.441,7.821,7.821,0,0,0-.969-2.325.577.577,0,0,1,0-.615L54.091,6.1,52.964,4.917l-2.01,1.174a.577.577,0,0,1-.615,0,7.908,7.908,0,0,0-2.325-.969.6.6,0,0,1-.441-.433L47.03,2.474l-1.624-.039-.591,2.254a.589.589,0,0,1-.441.433,7.821,7.821,0,0,0-2.325.969.577.577,0,0,1-.615,0L39.479,4.909,38.3,6.036l1.174,2.01a.594.594,0,0,1,0,.615,7.908,7.908,0,0,0-.969,2.325.6.6,0,0,1-.433.441l-2.215.544L35.822,13.6a.631.631,0,0,1,.449.741.591.591,0,0,1-.7.457,1.215,1.215,0,0,1-.93-1.19V12.026a1.224,1.224,0,0,1,.93-1.19l1.876-.465a8.953,8.953,0,0,1,.835-2.01l-1-1.655A1.227,1.227,0,0,1,37.462,5.2l1.119-1.119A1.227,1.227,0,0,1,40.086,3.9l1.655,1a9.334,9.334,0,0,1,2.01-.835l.465-1.876a1.215,1.215,0,0,1,1.19-.93H46.99a1.224,1.224,0,0,1,1.19.93l.465,1.876a8.953,8.953,0,0,1,2.01.835l1.655-1a1.229,1.229,0,0,1,1.505.181l1.119,1.127a1.227,1.227,0,0,1,.181,1.505l-1,1.655a8.953,8.953,0,0,1,.835,2.01l1.876.465a1.229,1.229,0,0,1,.938,1.19v1.584a1.224,1.224,0,0,1-.93,1.19l-1.876.465a8.953,8.953,0,0,1-.835,2.01l1,1.655a1.227,1.227,0,0,1-.181,1.505l-1.119,1.119a1.282,1.282,0,0,1-.875.347Z" transform="translate(-34.64 -1.26)" fill="#211e27"/>
        </g>
        <g id="Group_41698" data-name="Group 41698" transform="translate(32.669 6.368)">
          <path id="Path_51828" data-name="Path 51828" d="M49.579,19.4a.591.591,0,0,1-.213-1.143,4,4,0,1,0-5.454-3.728,3.921,3.921,0,0,0,.221,1.3.587.587,0,0,1-.37.749.594.594,0,0,1-.749-.37,5.184,5.184,0,1,1,6.778,3.153.509.509,0,0,1-.213.039Z" transform="translate(-42.73 -9.34)" fill="#211e27"/>
        </g>
        <g id="Group_41699" data-name="Group 41699" transform="translate(8.835 45.689)">
          <path id="Path_51829" data-name="Path 51829" d="M28.324,63.581H13.081a.6.6,0,0,1-.591-.591V61.405a2.18,2.18,0,0,1,2.175-2.175H26.748a.591.591,0,0,1,0,1.182H14.665a1,1,0,0,0-.993.993V62.4h14.66a.591.591,0,1,1-.008,1.182Z" transform="translate(-12.49 -59.23)" fill="#211e27"/>
        </g>
      </g>
    </g>
  </g>
</svg>
