<svg id="Group_37918" data-name="Group 37918" xmlns="http://www.w3.org/2000/svg" xmlns:xlink="http://www.w3.org/1999/xlink" width="667.53" height="564.731" viewBox="0 0 667.53 564.731">
  <defs>
    <clipPath id="clip-path">
      <rect id="Rectangle_16574" data-name="Rectangle 16574" width="667.53" height="564.731" fill="none"/>
    </clipPath>
    <clipPath id="clip-path-2">
      <rect id="Rectangle_16530" data-name="Rectangle 16530" width="667.53" height="564.733" fill="none"/>
    </clipPath>
    <clipPath id="clip-path-3">
      <rect id="Rectangle_16532" data-name="Rectangle 16532" width="245.972" height="421.662" fill="none"/>
    </clipPath>
    <linearGradient id="linear-gradient" x1="-0.226" y1="1.06" x2="-0.226" y2="1.06" gradientUnits="objectBoundingBox">
      <stop offset="0" stop-color="#f9ed5b"/>
      <stop offset="1" stop-color="#bbe96c"/>
    </linearGradient>
    <clipPath id="clip-path-5">
      <rect id="Rectangle_16533" data-name="Rectangle 16533" width="176.62" height="176.619" fill="none"/>
    </clipPath>
    <clipPath id="clip-path-6">
      <rect id="Rectangle_16534" data-name="Rectangle 16534" width="155.548" height="155.549" fill="none"/>
    </clipPath>
    <clipPath id="clip-path-7">
      <rect id="Rectangle_16535" data-name="Rectangle 16535" width="127.821" height="127.821" fill="none"/>
    </clipPath>
    <clipPath id="clip-path-8">
      <rect id="Rectangle_16537" data-name="Rectangle 16537" width="245.971" height="17.692" fill="none"/>
    </clipPath>
    <clipPath id="clip-path-9">
      <rect id="Rectangle_16539" data-name="Rectangle 16539" width="245.971" height="22.375" fill="none"/>
    </clipPath>
    <clipPath id="clip-path-10">
      <rect id="Rectangle_16540" data-name="Rectangle 16540" width="10.499" height="10.242" fill="none"/>
    </clipPath>
    <clipPath id="clip-path-11">
      <rect id="Rectangle_16541" data-name="Rectangle 16541" width="152.1" height="28.865" fill="none"/>
    </clipPath>
    <clipPath id="clip-path-12">
      <rect id="Rectangle_16567" data-name="Rectangle 16567" width="211.978" height="48.641" fill="none"/>
    </clipPath>
    <clipPath id="clip-path-13">
      <rect id="Rectangle_16571" data-name="Rectangle 16571" width="47.465" height="56.561" fill="none"/>
    </clipPath>
  </defs>
  <g id="Group_37917" data-name="Group 37917" clip-path="url(#clip-path)">
    <g id="Group_37885" data-name="Group 37885" transform="translate(0 -0.002)">
      <g id="Group_37884" data-name="Group 37884" clip-path="url(#clip-path-2)">
        <path id="Path_51665" data-name="Path 51665" d="M920.1,80.611l9.494,10.842c.7.269,1.277-.161,2.707-1.213,2.558-1.88,5.116-3.761,7.738-5.551a2.05,2.05,0,0,1,1.73-.063c2.8,1.354,5.513,2.878,8.323,4.2.871.411,1.252.759,1.254,1.774.007,4.056.128,8.111.206,12.123,3.5,1.2,12.6,1.908,15.723,1.193.619-3.814,1.311-7.7,1.849-11.611.168-1.216.554-1.65,1.805-1.968a81.215,81.215,0,0,0,8.558-2.8c1.137-.427,1.9-.557,2.859.413,2.488,2.514,5.128,4.877,7.659,7.35.68.665,1.266.823,1.994.2q5.134-4.425,10.263-8.855c.841-.725.188-1.327-.2-1.883-1.969-2.815-3.925-5.641-5.986-8.388a2.221,2.221,0,0,1-.122-2.9c1.744-2.99,3.292-6.093,5.043-9.387l12.956-.3a46.3,46.3,0,0,0,1.023-15.647l-12.53-2.085c-1.391-3.892-2.6-7.526-4.016-11.077a1.746,1.746,0,0,1,.441-2.258c2.441-2.49,4.8-5.056,7.229-7.563.524-.542.835-.985.353-1.733a44.3,44.3,0,0,0-8.638-10.208,1.392,1.392,0,0,0-2.026-.035c-2.923,2.085-5.885,4.115-8.8,6.213a1.618,1.618,0,0,1-2.046.153c-3.023-1.593-6.118-3.057-9.243-4.439a1.375,1.375,0,0,1-.954-1.492c-.094-4.056-.218-8.112-.334-12.272A49.689,49.689,0,0,0,958.95.176c-.738,4.435-1.471,8.841-2.173,13.058l-12.324,4.072c-2.258-2.134-4.841-4.61-7.466-7.043-2.154-2-1.613-2.146-4.182-.334a4.917,4.917,0,0,1-.832.382l-6.109,5.351a9.665,9.665,0,0,1-1.151,1.417c-1.186,1.009-1.344,1.9-.31,3.24,2.154,2.8,4.133,5.74,6.114,8.669a1.879,1.879,0,0,1,.11,1.566c-1.284,2.775-2.812,5.446-3.946,8.278a2.3,2.3,0,0,1-2.578,1.7c-3.843.019-7.685.2-11.914.323-.4,5.237-.785,10.346-1.177,15.512.966.18,1.521.292,2.078.385,3.439.572,6.873,1.174,10.321,1.684.979.145,1.3.587,1.6,1.5,1.017,3.153,2.237,6.24,3.275,9.387a2.073,2.073,0,0,1-.383,1.712c-1.91,2.128-3.936,4.15-5.889,6.241-1.58,1.691-2.16,2.325-1.913,3.328m25.635-13.347a23.323,23.323,0,0,1,2.18-32.912h0a23.323,23.323,0,0,1,30.732,35.093h0a23.324,23.324,0,0,1-32.912-2.181" transform="translate(-525.028 0.004)" fill="#a3b523"/>
        <path id="Path_51666" data-name="Path 51666" d="M971.169,258.536l-18.051,18.376c-.384,1.289.459,2.253,2.524,4.661,3.694,4.307,7.39,8.616,10.931,13.048a3.666,3.666,0,0,1,.345,3.076c-2.039,5.166-4.39,10.211-6.376,15.4-.615,1.607-1.186,2.334-2.993,2.473-7.228.556-14.44,1.315-21.579,1.991-1.668,6.4-1.712,22.721-.018,28.184,6.882.592,13.9,1.3,20.943,1.741,2.191.135,3.015.765,3.75,2.953a145.439,145.439,0,0,0,6.135,14.879c.914,1.97,1.247,3.312-.352,5.153-4.148,4.771-8.006,9.793-12.075,14.636-1.094,1.3-1.3,2.368-.083,3.581q8.575,8.558,17.159,17.106c1.406,1.4,2.391.158,3.33-.611,4.753-3.887,9.529-7.751,14.147-11.794,1.734-1.518,3.046-1.628,5.148-.605,5.563,2.707,11.3,5.051,17.407,7.73.7,7.117,1.476,14.975,2.271,23.052a82.787,82.787,0,0,0,28.026-.274c.706-7.847,1.412-15.7,2.035-22.613,6.752-3,13.067-5.643,19.207-8.642a3.121,3.121,0,0,1,4.083.484c4.766,4.017,9.656,7.886,14.449,11.87,1.037.861,1.869,1.357,3.137.4,6.406-4.852,12.319-10.179,17.037-16.764,1.052-1.468.812-2.392-.208-3.617-4.109-4.929-8.124-9.937-12.254-14.849a2.89,2.89,0,0,1-.548-3.625c2.433-5.6,4.628-11.314,6.672-17.07a2.457,2.457,0,0,1,2.531-1.9c7.217-.711,14.429-1.475,21.828-2.24a88.819,88.819,0,0,0,.014-27.715l-23.566-2.122-8.909-21.421c3.5-4.311,7.568-9.247,11.551-14.252,3.27-4.107,3.608-3.162.036-7.5a8.764,8.764,0,0,1-.793-1.431L1087.707,260.1a17.191,17.191,0,0,1-2.68-1.863c-1.957-1.979-3.56-2.14-5.818-.118-4.7,4.214-9.677,8.136-14.633,12.059a3.358,3.358,0,0,1-2.776.406c-5.118-1.917-10.085-4.283-15.282-5.925-2.544-.8-3.187-1.952-3.381-4.367-.549-6.848-1.38-13.672-2.173-21.192l-27.806-.02c-.191,1.746-.316,2.749-.407,3.755-.558,6.206-1.172,12.408-1.619,18.622-.127,1.765-.871,2.4-2.467,3.053-5.483,2.235-10.822,4.823-16.292,7.1a3.7,3.7,0,0,1-3.1-.452c-4.05-3.118-7.926-6.46-11.914-9.66-3.227-2.588-4.434-3.539-6.19-2.964m27.227,43.9a41.689,41.689,0,1,1,.525,58.955h0A41.689,41.689,0,0,1,998.4,302.438Z" transform="translate(-538.681 -137.787)" fill="#a16eb0"/>
        <path id="Path_51667" data-name="Path 51667" d="M762.154,146.827h0l-.062-.021c-.585-.211-1.18-.4-1.781-.572-.2-.059-.409-.121-.616-.175s-.437-.109-.657-.161-.445-.107-.671-.156-.424-.087-.639-.128c-.24-.046-.48-.089-.721-.129q-.308-.051-.617-.1c-.261-.037-.523-.069-.786-.1-.191-.022-.382-.045-.574-.064-.3-.029-.6-.05-.905-.069-.159-.01-.318-.024-.477-.031-.466-.022-.933-.036-1.4-.036H536.28q-.754,0-1.5.038a29.1,29.1,0,0,0-2.936.3q-.723.111-1.434.257a29.2,29.2,0,0,0-23.1,25.639,29.739,29.739,0,0,0-.15,2.988V617.181a29.223,29.223,0,0,0,19.211,27.482h0c.049.018.1.033.15.05.555.2,1.12.378,1.69.543.206.059.411.121.618.176s.437.108.657.161.446.106.671.155.425.087.639.128c.239.047.48.089.721.13.205.034.41.066.617.1.261.037.523.069.786.1.191.022.382.045.575.063.3.029.6.05.905.07.159.01.318.023.478.031.466.022.933.036,1.4.036H752.244a29.189,29.189,0,0,0,29.121-29.221V174.31a29.225,29.225,0,0,0-19.211-27.482" transform="translate(-292.283 -83.615)" fill="#3b314a"/>
      </g>
    </g>
    <g id="Group_37887" data-name="Group 37887" transform="translate(228.993 101.297)">
      <g id="Group_37886" data-name="Group 37886" clip-path="url(#clip-path-3)">
        <rect id="Rectangle_16531" data-name="Rectangle 16531" width="484.551" height="450.959" transform="matrix(0.605, -0.796, 0.796, 0.605, -203.124, 267.316)" fill="url(#linear-gradient)"/>
      </g>
    </g>
    <g id="Group_37916" data-name="Group 37916" transform="translate(0 -0.002)">
      <g id="Group_37915" data-name="Group 37915" clip-path="url(#clip-path-2)">
        <g id="Group_37890" data-name="Group 37890" transform="translate(264.132 157.046)" opacity="0.2">
          <g id="Group_37889" data-name="Group 37889">
            <g id="Group_37888" data-name="Group 37888" clip-path="url(#clip-path-5)">
              <path id="Path_51668" data-name="Path 51668" d="M800.034,458.973a88.31,88.31,0,1,1-88.31-88.31,88.31,88.31,0,0,1,88.31,88.31" transform="translate(-623.414 -370.663)" fill="#a3b523"/>
            </g>
          </g>
        </g>
        <g id="Group_37893" data-name="Group 37893" transform="translate(274.667 167.582)" opacity="0.2">
          <g id="Group_37892" data-name="Group 37892">
            <g id="Group_37891" data-name="Group 37891" clip-path="url(#clip-path-6)">
              <path id="Path_51669" data-name="Path 51669" d="M803.829,473.3a77.774,77.774,0,1,1-77.774-77.774A77.774,77.774,0,0,1,803.829,473.3" transform="translate(-648.28 -395.529)" fill="#a3b523"/>
            </g>
          </g>
        </g>
        <g id="Group_37896" data-name="Group 37896" transform="translate(288.531 181.445)" opacity="0.2">
          <g id="Group_37895" data-name="Group 37895">
            <g id="Group_37894" data-name="Group 37894" clip-path="url(#clip-path-7)">
              <path id="Path_51670" data-name="Path 51670" d="M808.822,492.161a63.911,63.911,0,1,1-63.91-63.911,63.91,63.91,0,0,1,63.91,63.911" transform="translate(-681.001 -428.25)" fill="#a3b523"/>
            </g>
          </g>
        </g>
        <g id="Group_37899" data-name="Group 37899" transform="translate(228.993 505.27)" opacity="0.2">
          <g id="Group_37898" data-name="Group 37898">
            <g id="Group_37897" data-name="Group 37897" clip-path="url(#clip-path-8)">
              <rect id="Rectangle_16536" data-name="Rectangle 16536" width="245.972" height="17.691" fill="#a3b523"/>
            </g>
          </g>
        </g>
        <g id="Group_37902" data-name="Group 37902" transform="translate(228.993 101.301)" opacity="0.2">
          <g id="Group_37901" data-name="Group 37901">
            <g id="Group_37900" data-name="Group 37900" clip-path="url(#clip-path-9)">
              <rect id="Rectangle_16538" data-name="Rectangle 16538" width="245.972" height="22.377" transform="translate(0 -0.002)" fill="#a3b523"/>
            </g>
          </g>
        </g>
        <path id="Path_51671" data-name="Path 51671" d="M421.223,776.645l.862.775a1.059,1.059,0,0,0,1.491-.037L438.883,760.5a1.047,1.047,0,0,0-.115-1.48l-.863-.775a1.058,1.058,0,0,0-1.491.037l-15.306,16.883a1.047,1.047,0,0,0,.115,1.48" transform="translate(-242.544 -436.818)" fill="#3b314a"/>
        <path id="Path_51672" data-name="Path 51672" d="M297.144,769.346c2.046-1.669,17.867,5.3,17.666,7.722S325.851,803,325.851,803l19.425-15.541.008.005c.172-.562,2.014-6.607,2.1-7.688.094-1.134,3.376-3.119,4.9-2.827s-1.3,2.211-1.49,2.563c-.505.959,1.449,1.318,1.449,1.318s5.613-3.091,5.732-4.908,1.278-5.627,2.49-4.831c.626.411.62,3.114.425,4.4.361-1.456.871-3.1,1.368-3.263.908-.3,1.36.861,1.195,1.43s-1.631,6.751-2.076,7.446c-.435.68-9.5,8.007-10.8,9.6,0,0-25.125,28.82-26.914,29.574-1.569.661-7.166-9.271-12.454-15.864s-20.455-29.849-14.062-35.065" transform="translate(-170.358 -443.236)" fill="#f7a491"/>
        <path id="Path_51673" data-name="Path 51673" d="M154.568,1257s-3.453,3.38-3.531,4.621-.306,14.531,1.1,15.771,5.549,2.12,4.219,3.516c-1.006,1.055-8.746.829-13.875.546-1.5-.083-3.375-12.07-3.968-13.832-.861-2.559-2.956-8.322-2.173-10.106.381-.869,2.207-2.655,4.779-4.322,2.705-1.753,5.294-5.657,5.294-5.657Z" transform="translate(-78.478 -718.97)" fill="#f48c7f"/>
        <path id="Path_51674" data-name="Path 51674" d="M258.254,1288.191s-3.09,8.759-3.094,8.781c-.23,1.387-1.134,4.816-1.134,6.077,0,4.739,21.3-4.022,16.525-6.122a5.063,5.063,0,0,1-1.929-3.321c-.219-2.485,1.794-5.6,1.794-5.6Z" transform="translate(-146.399 -742.292)" fill="#f7a491"/>
        <path id="Path_51675" data-name="Path 51675" d="M294.839,903.526s1.553,15.7,1.553,15.934c0,25.4,5.017,75.008,4.063,79.784-2.328,11.646-27.382,71.058-27.382,71.058l-13.541-1.624,17.645-71.133-6.493-28.632-9.188-56.6Z" transform="translate(-149.572 -520.713)" fill="#a3b523"/>
        <path id="Path_51676" data-name="Path 51676" d="M186.641,920.46l-2.57,14.881-6.951,61.243-26.474,59.856s3.724,8.709,9.218,9.933L202,1004.919l26.174-78.635-.919-17.47Z" transform="translate(-86.819 -523.76)" fill="#bbd631"/>
        <path id="Path_51677" data-name="Path 51677" d="M328.9,759.391l-18.776,1.924s-.861-15.445-.861-22.814c0-8.938.758-20.452,1.835-20.2,3.019.7,7.086,2.368,9.506,5.706,8.377,11.549,8.3,35.388,8.3,35.388" transform="translate(-178.231 -413.961)" fill="#642d78"/>
        <path id="Path_51678" data-name="Path 51678" d="M270.431,736.116c.393,2.726,7.611,76.816,7.611,76.816-34.189,16.568-53.053,2.951-53.053,2.951s1.119-52.027-.222-59.109c-.887-4.685-1.993-35.818,1.033-36.69a75.493,75.493,0,0,1,13.188-2.812c4.142-.432,20.234-.682,23.112.289a36.831,36.831,0,0,1,8.331,18.556" transform="translate(-128.988 -413.152)" fill="#a16eb0"/>
        <path id="Path_51679" data-name="Path 51679" d="M138.952,1260.688s7.957,22.481,11.072,23.566c.827.288,4.8,1.019,5.544,2.781a7.635,7.635,0,0,1,0,2.3H138.983s-2.1-9.906-2.927-14.257c0,0-4.39-10.634-3.9-11.6s6.8-2.792,6.8-2.792" transform="translate(-76.14 -726.55)" fill="#3b314a"/>
        <path id="Path_51680" data-name="Path 51680" d="M251.167,1316.688l2.439-7.731s5.122,2.174,7.683,1.812a77.27,77.27,0,0,0,7.561-1.812c10.222,3.376,18.6,5.015,17.074,7.731Z" transform="translate(-144.751 -754.369)" fill="#3b314a"/>
        <path id="Path_51681" data-name="Path 51681" d="M358.733,863.611a4.337,4.337,0,0,0,.516-.385c-.608-7.259-.5-14.292,1.772-16.67-.054-.114-.551-1.172-1.069-2.27-2.632,2.042-3.881,7.467-3.391,16.273a15.133,15.133,0,0,0,.347,1.823c.762.841,1.455,1.384,1.825,1.228" transform="translate(-205.431 -486.572)" fill="#f7a491"/>
        <path id="Path_51682" data-name="Path 51682" d="M144.706,837.278a2.065,2.065,0,0,1-.008-.477c.5-5.131,4.75-48.217,5.465-50.048.645-1.654,19.687-28.981,19.687-28.981l9.36,12.794L160.9,795.077c-.411,1.557-7.018,30.642-7.018,30.642s-1.354,5.3-1.961,8.478c.277.765.548,1.488.789,2.081a19.148,19.148,0,0,0,1.973,3.181,21.819,21.819,0,0,1,2.339,4.15c.194.748.543,2.3.741,3.242s.469,2.032.514,2.541a4.914,4.914,0,0,0,.592,1.365.819.819,0,0,1-.964,1.183c-.666-.222-1.183-1.086-1.5-1.625-.9-1.52-1.382-4.3-1.606-4.148s-1.013,4.855-1.138,5.388-1.072,6-1.607,7-1.242.832-1.43.206c-.162-.539.59-8.189.59-8.189s.093-.976-.332-.671-1.122,7.249-1.419,8.265-.971,1.555-1.544.738c-.7-.993.5-8.359.5-8.359s.134-.926-.26-.84-.888,6-1.195,6.517a.777.777,0,0,1-1.451-.158c-.435-1,.692-7.572.692-7.572s-.056-.522-.3-.349-1.026,5.189-1.535,5.653a.538.538,0,0,1-.783.011c-.933-.639.5-5.409.483-7.781s1.082-5.037.755-7.861c-.021-.178-.078-.613-.115-.886" transform="translate(-82.566 -436.713)" fill="#f8a492"/>
        <path id="Path_51683" data-name="Path 51683" d="M170.9,755.916l16.266,10.958s9.168-13.688,14.089-18.562c6.165-6.1-2.246-24.806-6.218-23.748-8.885,2.366-24.137,31.352-24.137,31.352" transform="translate(-98.491 -417.55)" fill="#a16eb0"/>
        <path id="Path_51684" data-name="Path 51684" d="M259.137,678.688,256.7,694.778s8.885,19.159,14.189,17.5c4.451-1.394,1.713-18.346,1.713-18.346s-2.426-9.1-1.7-13.659-11.77-1.582-11.77-1.582" transform="translate(-147.942 -390.586)" fill="#f7a491"/>
        <path id="Path_51685" data-name="Path 51685" d="M273.942,680.27c.727-4.555-11.77-1.582-11.77-1.582l-.2,1.334a7.413,7.413,0,0,0,1.355,2.242,16.43,16.43,0,0,0,10.928,4.963,24.93,24.93,0,0,1-.311-6.957" transform="translate(-150.977 -390.586)" fill="#f47458"/>
        <path id="Path_51686" data-name="Path 51686" d="M256.291,619.42c-.353-.129-2.831,18.326,1.872,23.4s13.865,6.74,17.152,2.74c3.635-4.424,3.453-24.258-3.859-29.482s-15.165,3.337-15.165,3.337" transform="translate(-147.147 -354.082)" fill="#f7a491"/>
        <path id="Path_51687" data-name="Path 51687" d="M256.372,594.925a20.293,20.293,0,0,0-10.657,6.1c-2.566.3-6.054,1.727-9.655,7.711-4.429,7.357-1.158,15.508,4,19.507s5.083,8.619,5.083,8.619l.815-2.39a13.394,13.394,0,0,0,.646-5.628,11.02,11.02,0,0,0-.834-3.384c-1.24-2.671,2.663-4.445,3.758-6.667.843-1.711.883-5.625,2.211-8.454l1.585-2.159s3.659-2.857,7.237-2.051,3.064-12.687-4.187-11.2" transform="translate(-134.847 -342.796)" fill="#3b314a"/>
        <path id="Path_51688" data-name="Path 51688" d="M263.716,653.672c.037,2.251-.982,4.095-2.279,4.117s-2.376-1.785-2.413-4.036.983-4.095,2.279-4.117,2.376,1.785,2.413,4.036" transform="translate(-149.278 -374.392)" fill="#f7a491"/>
        <path id="Path_51689" data-name="Path 51689" d="M288.124,670.942l7.089-.368a3.11,3.11,0,0,1-3.137,2.962c-3.8.308-3.952-2.594-3.952-2.594" transform="translate(-166.05 -386.459)" fill="#fff"/>
        <path id="Path_51690" data-name="Path 51690" d="M1371.926,813.445s13.654,29.965,16.549,35.536,8.282,22.739,8.529,23.589-6.888,10.436-5.54,10.926,3.247-4.833,4.666-4.011,4.774,14.532,5.654,13.969c1.646-1.052-1.734-8.465-.872-8.811s2.818,8.055,4.469,8-2.59-7.79-2.089-8.374,4.951,6.755,5.942,5.41c.538-.731-4.113-6.433-3.119-6.806s5.221,3.446,5.759,2.543-3.963-2.73-5.157-5.463-3.455-4.112-4.095-8.994-.891-22.321-5.266-31.5-13.991-29.489-13.991-29.489Z" transform="translate(-790.66 -466.795)" fill="#f7a491"/>
        <path id="Path_51691" data-name="Path 51691" d="M1278.718,697.418a44.949,44.949,0,0,0-4.073-21.581c-2.834-5.923-9.848-9.285-16.243-9.293-20.308-.026-22.891,26.921-35.818,37.315-3.95,3.176-8.365,5.763-12.1,9.188-13.8,12.647-7.584,36.06,5.089,47.147,8.794,7.695,22.616,12.066,33.455,6.052,5.658-3.14,9.953-8.359,13.013-14.078,4.343-8.116,7.142-17.48,10.231-26.13,3.288-9.207,6.043-18.791,6.449-28.62" transform="translate(-693.109 -384.137)" fill="#3b314a"/>
        <path id="Path_51692" data-name="Path 51692" d="M1206.148,664.972c.937-.68,3.31,4.158,4.45,4.111s-.787-6.77.071-7.289c1.581-.956,2.564,7.234,3.319,6.84s.157-8.888,1.791-8.441-.3,8.874.7,8.812,1.092-8,3.177-8.482c1.114-.258-1.881,13.543-.874,14.737s5.291-3.2,6.381-2.333-8.39,7.313-8.537,8.179-2.109,19.393-1.853,25.519c2.114.119,14.067,2.485,16.052,2.554-1.314,3.874,1.917,7.878.835,11.8-6.7-.592-26.626-2.113-27.877-3.55-3.807-4.378,3.17-31.43,4.777-36.173s.035-6.716.12-9.626-3.467-5.974-2.53-6.653" transform="translate(-693.11 -380.467)" fill="#f7a491"/>
        <path id="Path_51693" data-name="Path 51693" d="M1282.5,1103.869c1.688-1.244,3.051-2.067,8.445-4.682.352-.171,1.632-.986,2.094-1.269a16.252,16.252,0,0,0,3.36-2.974c.967-1.079,1.427-4.536,1.645-7.292-.555-6.155-9.474-104.873-11.356-115.56-1.941-11.031,1.016-27.857,1.016-27.857l6.886-2.6,13.071,45.3-1.031,34.485s3.074,9.94,3.462,15.88-4.443,54.156-4.443,54.156h0a25.216,25.216,0,0,0,.259,4.258c.355,1.8,2.33,5.516,1.424,7.213a4.553,4.553,0,0,1-1.942,2.122l-23.487.379c-1.28.021-.434-.8.6-1.565" transform="translate(-738.406 -542.677)" fill="#f48c7f"/>
        <path id="Path_51694" data-name="Path 51694" d="M1328.705,934.219s8.156,12.3,10.1,22.487-1.426,41.476,2.31,54.82c2.023,7.223,9.686,18.378,10.852,27.712s5.219,36.275,5.219,36.275c.613,2.829,1.574,6.327,2.821,7.953a23.4,23.4,0,0,1,3.073,4.053c1.425,2.8.637,6.969-.414,9.266-.539,1.179.038,1.175-1.191,1.555a7.54,7.54,0,0,1-9.056-4.261,21.678,21.678,0,0,1-1.777-7.831,36.593,36.593,0,0,0-1.285-8.279l-26.07-63.952-18.873-55.191-4.835-28.425Z" transform="translate(-748.964 -536.201)" fill="#f79c8d"/>
        <path id="Path_51695" data-name="Path 51695" d="M1422.628,1305.918c5.642,1.031,9.4-2.277,11.35-4.754,1.434,2.805,2.134,6.992,1.078,9.3-.929,2.03-3.644,1.972-5.782,2.051a5.58,5.58,0,0,1-5.13-3.147,18.906,18.906,0,0,1-1.517-3.448" transform="translate(-819.881 -749.877)" fill="#3b314a"/>
        <path id="Path_51696" data-name="Path 51696" d="M1290.741,1309.775a21.219,21.219,0,0,0,13.372-.526c.662,1.881,1.54,4.242,1.074,5.6-.57,1.667-1.382,2.044-2.1,2.063-5.674.149-20.783.352-25.109.408a.708.708,0,0,1-.549-1.164c1.073-1.284,12.848-6.1,13.31-6.384" transform="translate(-736.105 -754.537)" fill="#3b314a"/>
        <path id="Path_51697" data-name="Path 51697" d="M1318.427,1011.794c-.487.033-.979.065-1.472.095l-.075,0q-.726.044-1.458.082l-.088,0q-.732.038-1.469.07l-.075,0q-.75.032-1.5.057c-5.568.183-12.444.113-16.857-.638-2.249-22.519-3.087-43.07-3.92-47.618-2.019-11.032,1.76-28.443,1.76-28.443l-.3-4.134.968-2.638,30.291,3.819s8.481,12.3,10.5,22.486-1.482,41.476,2.4,54.819c0,0-8.648,1.348-18.7,2.032" transform="translate(-743.975 -535.185)" fill="#642d78"/>
        <path id="Path_51698" data-name="Path 51698" d="M1258.48,770.368s22.68-2.373,29.372-.133,11.394,11.8,7.821,17.152-35.758-1.657-35.758-1.657Z" transform="translate(-725.28 -443.341)" fill="#a3b523"/>
        <path id="Path_51699" data-name="Path 51699" d="M1318.073,766.831s11.218-.694,15.656,4.006-9.845,41.886-10.652,47.869,4.114,21.891,4.114,21.891-26.353,5.153-33.885.309c0,0-1.383-43.437-.576-47.711s8.108-21.237,9.722-22.946,15.621-3.418,15.621-3.418" transform="translate(-744.872 -441.913)" fill="#bbd631"/>
        <path id="Path_51700" data-name="Path 51700" d="M1330.427,732.167s.058.321.162.867c.5,2.621,2.426,11.315,3.728,13.706,1.573,2.888-5.383,12.1-12.079,10.977-1.992-.335,1.685-8.465,1.508-9.326-.339-1.648-.8-3.9-1.267-6.2-.265-1.3-.533-2.62-.785-3.859-.716-3.522-1.3-6.4-1.3-6.4Z" transform="translate(-760.962 -421.816)" fill="#f7a491"/>
        <g id="Group_37905" data-name="Group 37905" transform="translate(559.435 310.108)" opacity="0.5">
          <g id="Group_37904" data-name="Group 37904">
            <g id="Group_37903" data-name="Group 37903" clip-path="url(#clip-path-10)">
              <path id="Path_51701" data-name="Path 51701" d="M1330.59,733.036c-.1-.547-.162-.867-.162-.867l-10.032-.243s.584,2.881,1.3,6.4c.251,1.232.517,2.544.781,3.838a9.506,9.506,0,0,0,4.79-2.334,12.289,12.289,0,0,0,3.628-5.244c-.124-.616-.227-1.148-.3-1.554" transform="translate(-1320.397 -731.925)" fill="#f47458"/>
            </g>
          </g>
        </g>
        <path id="Path_51702" data-name="Path 51702" d="M1314.871,680.16a9.192,9.192,0,0,1,7.693,3.195c2.964,3.725,6.159,15.246-1.2,21.509s-14.638-.827-15.717-8.344-1.5-16.631,9.228-16.36" transform="translate(-752.159 -391.969)" fill="#f7a491"/>
        <path id="Path_51703" data-name="Path 51703" d="M1300.36,712.961c.878,1.66,2.354,2.58,3.3,2.053s.991-2.3.112-3.959-2.354-2.579-3.3-2.053-.991,2.3-.112,3.959" transform="translate(-749.054 -408.521)" fill="#f7a491"/>
        <path id="Path_51704" data-name="Path 51704" d="M1326.888,677.131s6.318,10.955,10.837,11.461,5.113,6.327,5.113,6.327-1.616-13.414-6.09-16a17.047,17.047,0,0,0-9.86-1.789" transform="translate(-764.704 -390.171)" fill="#3b314a"/>
        <path id="Path_51705" data-name="Path 51705" d="M1349.54,706.635c-.367,1.946.372,3.73,1.651,3.985s2.615-1.115,2.982-3.06-.371-3.73-1.651-3.985-2.614,1.115-2.982,3.06" transform="translate(-777.704 -405.46)" fill="#f7a491"/>
        <path id="Path_51706" data-name="Path 51706" d="M1326.235,722.791l-6.455.925a2.851,2.851,0,0,0,3.351,2.105c3.475-.4,3.1-3.03,3.1-3.03" transform="translate(-760.608 -416.553)" fill="#fff"/>
        <path id="Path_51707" data-name="Path 51707" d="M1369.728,812.591s-12.672-18.958-13.811-25.922,5.129-15.582,11.528-14.916,17.336,32.383,17.336,32.383Z" transform="translate(-781.357 -444.75)" fill="#bbd631"/>
        <path id="Path_51708" data-name="Path 51708" d="M798.389,518.023h7.059a3,3,0,0,0,1.119-.032,5.341,5.341,0,0,0,1.088-.845c-.367-.281-.726-.789-1.1-.8-2.116-.08-4.236-.041-6.355-.042H798.46v-4.628c2.449,0,4.836.02,7.221-.012.741-.01,1.885.308,1.914-.834.03-1.2-1.129-.848-1.861-.858-2.392-.033-4.785-.012-7.263-.012v-4.67c2.382,0,4.765.027,7.147-.015.765-.013,2.021.395,1.984-.874-.036-1.222-1.279-.8-2.05-.815-2.34-.043-4.681-.016-7.085-.016v-4.648c2.324,0,4.57,0,6.817,0a3.754,3.754,0,0,0,1.26-.047,4.978,4.978,0,0,0,1.115-.812c-.366-.284-.723-.8-1.1-.813-2.021-.086-4.047-.047-6.072-.052-.509,0-1.019,0-1.532,0,.338-5.383,6.477-10.535,12.891-10.948,6.643-.428,13.158,4.437,14.4,10.948-2.127,0-4.219,0-6.31,0a5.379,5.379,0,0,0-1.541.063c-.369.114-.644.529-.96.811.325.276.631.755.98.789,1.12.109,2.256.058,3.386.061,1.549,0,3.1,0,4.778,0v4.646h-6.626a3.338,3.338,0,0,0-1.121.024,9.256,9.256,0,0,0-1.405.818c.452.293.893.818,1.357.839,2.115.091,4.236.042,6.355.042h1.477v4.667H819.9a4.375,4.375,0,0,0-1.4.034,4.078,4.078,0,0,0-1.063.855c.333.267.647.73,1,.764,1.12.107,2.255.058,3.384.061,1.551,0,3.1,0,4.766,0V516.3h-5.957a10.711,10.711,0,0,0-2.111.044c-.4.082-.73.536-1.091.822.366.284.722.8,1.1.813,2.163.081,4.331.042,6.5.044h1.66c0,3.562.058,6.985-.019,10.406a37.1,37.1,0,0,1-.516,7.558,13.151,13.151,0,0,1-9.927,10.158,14.164,14.164,0,0,1-17.837-13.637c.009-4.753,0-9.507,0-14.484" transform="translate(-460.122 -280.213)" fill="#fffdf5"/>
        <path id="Path_51709" data-name="Path 51709" d="M789.534,603.022c1.624.561,3.325.905,4.983,1.347v23.42h6.3V604.265c.787-.154,1.441-.25,2.078-.411,9.942-2.508,16.4-8.61,19.07-18.576,1.316-4.907.669-9.926.767-14.9a2.925,2.925,0,0,0-2.947-3.254c-1.767-.005-2.917,1.2-2.956,3.221-.041,2.115-.027,4.234.025,6.349.125,5.158-.744,10-4,14.235a19.053,19.053,0,0,1-34.163-10.06c-.205-3.19-.084-6.4-.144-9.6a7.987,7.987,0,0,0-.267-2.361,2.828,2.828,0,0,0-3.2-1.754,2.937,2.937,0,0,0-2.459,3.006c-.052,3.107-.044,6.216-.012,9.324a25.05,25.05,0,0,0,16.92,23.538" transform="translate(-445.254 -326.835)" fill="#fffdf5"/>
        <path id="Path_51710" data-name="Path 51710" d="M1179.739,148.51l.833,7.428c.22.322.591.309,1.512.285,1.646-.043,3.292-.087,4.939-.072a1.064,1.064,0,0,1,.755.485c.79,1.4,1.5,2.858,2.3,4.254a.874.874,0,0,1,.008,1.127c-1.2,1.729-2.347,3.492-3.5,5.223a23.024,23.024,0,0,0,6.342,5.163c1.393-1.441,2.839-2.892,4.226-4.4a1.013,1.013,0,0,1,1.351-.3,42.284,42.284,0,0,0,4.473,1.343c.611.155.974.325,1.1,1.022.315,1.807.74,3.6,1.085,5.4.093.484.3.725.792.674q3.5-.364,6.992-.732c.573-.06.473-.509.472-.861-.006-1.782,0-3.564-.066-5.344a1.153,1.153,0,0,1,.807-1.27c1.628-.757,3.206-1.62,4.927-2.5l5.606,3.709a24.006,24.006,0,0,0,5.069-6.36l-4.719-4.6c.561-2.07,1.121-3.975,1.57-5.907a.906.906,0,0,1,.857-.831c1.776-.337,3.543-.73,5.318-1.08.383-.076.647-.172.663-.634a22.962,22.962,0,0,0-.656-6.9.722.722,0,0,0-.852-.615c-1.862.022-3.725.01-5.586.04a.839.839,0,0,1-.917-.54c-.816-1.573-1.7-3.113-2.622-4.627a.714.714,0,0,1,.035-.918c1.162-1.755,2.309-3.519,3.492-5.324a25.755,25.755,0,0,0-6.238-5.077l-4.792,4.918-6.453-1.915c-.33-1.577-.7-3.4-1.094-5.21-.326-1.488-.051-1.391-1.682-1.38a2.566,2.566,0,0,1-.467-.083l-4.186.469a4.98,4.98,0,0,1-.911.263c-.8.078-1.133.409-1.091,1.288.088,1.831.061,3.668.036,5.5a.973.973,0,0,1-.417.7c-1.369.8-2.81,1.487-4.131,2.356a1.192,1.192,0,0,1-1.6-.038c-1.642-1.13-3.331-2.192-5.17-3.39l-5.094,6.257c.358.362.561.574.771.779,1.3,1.262,2.579,2.535,3.9,3.773a.909.909,0,0,1,.236,1.114c-.5,1.644-.895,3.32-1.385,4.967a1.072,1.072,0,0,1-.669.616c-1.444.341-2.906.6-4.356.914-1.173.253-1.608.35-1.8.851m14.869,1.907a12.1,12.1,0,1,1,13.37,10.674,12.1,12.1,0,0,1-13.37-10.674" transform="translate(-679.9 -70.36)" fill="#bbd631"/>
        <path id="Path_51711" data-name="Path 51711" d="M344,67.943l2.873,17.983,9.6-12.643,31.864-30.447L360.047,54.189S346.3,62.216,345.72,63.182A37.606,37.606,0,0,0,344,67.943" transform="translate(-198.25 -24.685)" fill="#642d78"/>
        <path id="Path_51712" data-name="Path 51712" d="M306.23,61.347l60.343-18.512L322.231,67.944Z" transform="translate(-176.485 -24.685)" fill="#a16eb0"/>
        <path id="Path_51713" data-name="Path 51713" d="M375.425,79.535l-19.649-7.993,39.351-28.707Z" transform="translate(-205.039 -24.685)" fill="#a16eb0"/>
        <path id="Path_51714" data-name="Path 51714" d="M188.224,215.216a40.274,40.274,0,0,1-.452-4.367c-.065-1.35-.064-2.73,0-4.1l1.485.074c-.066,1.323-.068,2.654,0,3.955a38.6,38.6,0,0,0,.435,4.205q.1.608.213,1.212l-1.46.28c-.082-.425-.156-.848-.221-1.257m1.077-18.077a56.509,56.509,0,0,1,3.312-9.128l1.35.622a55.054,55.054,0,0,0-3.226,8.886ZM233.613,180.8q-.147-.041-.294-.086l.437-1.421.242.072a.843.843,0,0,0,.157,0,6.852,6.852,0,0,0,3.809-1.674,6.3,6.3,0,0,0,1.523-3.3l1.466.243a7.863,7.863,0,0,1-1.9,4.063,8.27,8.27,0,0,1-4.831,2.153,1.92,1.92,0,0,1-.614-.052m-36.307-1.274a77.454,77.454,0,0,1,5.778-7.773l1.136.959a75.859,75.859,0,0,0-5.666,7.623Zm27.3-8.137a18.062,18.062,0,0,1-.731-4.337,21.312,21.312,0,0,1,.029-2.506l1.482.1a19.893,19.893,0,0,0-.027,2.331,16.574,16.574,0,0,0,.67,3.979,13.707,13.707,0,0,0,1.075,2.576l-1.307.708a15.185,15.185,0,0,1-1.192-2.855m4.674-9.3-.207-.032.22-1.47.225.035a14.95,14.95,0,0,1,8.591,4.5l-1.1,1a13.445,13.445,0,0,0-7.728-4.029m-18.63,3.465a33.983,33.983,0,0,1,5.563-3.161c1.159-.408,2.233-.741,3.283-1.021l.382,1.436c-1.012.269-2.05.592-3.172.987a30.713,30.713,0,0,0-5.233,3Zm15.72-10.5a33.241,33.241,0,0,1,5.23-8.262l1.126.971a31.754,31.754,0,0,0-5,7.892Z" transform="translate(-108.188 -84.599)" fill="#a16eb0"/>
        <path id="Path_51715" data-name="Path 51715" d="M309.576,129.866a28.627,28.627,0,0,1,4.243-2.191l-.567-1.374a30.217,30.217,0,0,0-4.464,2.305Z" transform="translate(-177.959 -72.787)" fill="#a16eb0"/>
        <g id="Group_37908" data-name="Group 37908" transform="translate(275.713 441.944)" opacity="0.2">
          <g id="Group_37907" data-name="Group 37907">
            <g id="Group_37906" data-name="Group 37906" clip-path="url(#clip-path-11)">
              <path id="Path_51716" data-name="Path 51716" d="M788.413,1071.955H665.18a14.433,14.433,0,1,1,0-28.865H788.413a14.433,14.433,0,1,1,0,28.865" transform="translate(-650.747 -1043.09)" fill="#a3b523"/>
            </g>
          </g>
        </g>
        <g id="Group_37911" data-name="Group 37911" transform="translate(245.307 362.749)" opacity="0.5">
          <g id="Group_37910" data-name="Group 37910">
            <g id="Group_37909" data-name="Group 37909" clip-path="url(#clip-path-12)">
              <rect id="Rectangle_16542" data-name="Rectangle 16542" width="4.925" height="25.32" transform="translate(8.479 11.661)" fill="#a3b523"/>
              <rect id="Rectangle_16543" data-name="Rectangle 16543" width="4.925" height="18.99" transform="translate(17.352 14.825)" fill="#a3b523"/>
              <rect id="Rectangle_16544" data-name="Rectangle 16544" width="4.925" height="25.32" transform="translate(26.224 11.661)" fill="#a3b523"/>
              <rect id="Rectangle_16545" data-name="Rectangle 16545" width="4.925" height="47.863" transform="translate(35.097)" fill="#a3b523"/>
              <rect id="Rectangle_16546" data-name="Rectangle 16546" width="4.925" height="34.982" transform="translate(43.969 6.829)" fill="#a3b523"/>
              <rect id="Rectangle_16547" data-name="Rectangle 16547" width="4.925" height="47.863" transform="translate(124.157)" fill="#a3b523"/>
              <rect id="Rectangle_16548" data-name="Rectangle 16548" width="4.925" height="29.984" transform="translate(133.029 9.329)" fill="#a3b523"/>
              <rect id="Rectangle_16549" data-name="Rectangle 16549" width="4.925" height="13.992" transform="translate(141.287 17.325)" fill="#a3b523"/>
              <rect id="Rectangle_16550" data-name="Rectangle 16550" width="4.925" height="22.321" transform="translate(149.277 13.16)" fill="#a3b523"/>
              <rect id="Rectangle_16551" data-name="Rectangle 16551" width="4.925" height="45.853" transform="translate(157.442 1.393)" fill="#a3b523"/>
              <rect id="Rectangle_16552" data-name="Rectangle 16552" width="4.925" height="18.99" transform="translate(165.861 14.825)" fill="#a3b523"/>
              <rect id="Rectangle_16553" data-name="Rectangle 16553" width="4.925" height="29.984" transform="translate(174.581 9.329)" fill="#a3b523"/>
              <rect id="Rectangle_16554" data-name="Rectangle 16554" width="4.925" height="48.641" transform="translate(182.698 0)" fill="#a3b523"/>
              <rect id="Rectangle_16555" data-name="Rectangle 16555" width="4.925" height="28.484" transform="translate(190.678 9.329)" fill="#a3b523"/>
              <rect id="Rectangle_16556" data-name="Rectangle 16556" width="4.925" height="14.565" transform="translate(199.004 16.288)" fill="#a3b523"/>
              <rect id="Rectangle_16557" data-name="Rectangle 16557" width="4.925" height="8.608" transform="translate(207.054 19.267)" fill="#a3b523"/>
              <rect id="Rectangle_16558" data-name="Rectangle 16558" width="4.925" height="12.493" transform="translate(0 17.325)" fill="#a3b523"/>
              <rect id="Rectangle_16559" data-name="Rectangle 16559" width="4.925" height="47.863" transform="translate(87.826)" fill="#a3b523"/>
              <rect id="Rectangle_16560" data-name="Rectangle 16560" width="4.925" height="34.982" transform="translate(96.699 6.829)" fill="#a3b523"/>
              <rect id="Rectangle_16561" data-name="Rectangle 16561" width="4.925" height="18.99" transform="translate(52.843 14.825)" fill="#a3b523"/>
              <rect id="Rectangle_16562" data-name="Rectangle 16562" width="4.925" height="13.992" transform="translate(61.715 17.325)" fill="#a3b523"/>
              <rect id="Rectangle_16563" data-name="Rectangle 16563" width="4.925" height="18.99" transform="translate(106.296 14.825)" fill="#a3b523"/>
              <rect id="Rectangle_16564" data-name="Rectangle 16564" width="4.925" height="29.984" transform="translate(115.168 9.329)" fill="#a3b523"/>
              <rect id="Rectangle_16565" data-name="Rectangle 16565" width="4.925" height="22.321" transform="translate(70.588 13.16)" fill="#a3b523"/>
              <rect id="Rectangle_16566" data-name="Rectangle 16566" width="4.925" height="29.984" transform="translate(79.461 9.329)" fill="#a3b523"/>
            </g>
          </g>
        </g>
        <path id="Path_51717" data-name="Path 51717" d="M1445.428,578.257l-40.254,14.25a3.75,3.75,0,0,1-4.786-2.283l-9.121-25.768a3.748,3.748,0,0,1,2.283-4.785l40.254-14.251a3.749,3.749,0,0,1,4.785,2.283l9.122,25.768a3.749,3.749,0,0,1-2.283,4.785" transform="translate(-801.682 -314.207)" fill="#bbd631"/>
        <path id="Path_51718" data-name="Path 51718" d="M1393.537,619.462l-8.875,19.444,16.187-9.534Z" transform="translate(-798 -357.003)" fill="#bbd631"/>
        <path id="Path_51719" data-name="Path 51719" d="M1433.038,583.8l4.208-1.611s3.892-5.92,3.545-7.388-2.3-4.132-1.611-4.806a2.952,2.952,0,0,1,4.122-.142c1.294,1.062,2.417,6.247,3.034,6.4a23.856,23.856,0,0,0,4.607-1.419,3.341,3.341,0,0,1,3.4.658l0,0a1.782,1.782,0,0,1,.345,2.216l-.658,1.133,1.1.718a1.78,1.78,0,0,1,.525,2.454l-.54.839.721.4a1.781,1.781,0,0,1,.6,2.584l-.495.7.167.147a1.78,1.78,0,0,1,.248,2.393l-.506.683-11.209,4.289a8.25,8.25,0,0,1-3.294.538l-4.192.857a.929.929,0,0,1-1.058-.591l-3.6-9.865a.928.928,0,0,1,.54-1.186" transform="translate(-825.536 -327.965)" fill="#fff"/>
        <path id="Path_51720" data-name="Path 51720" d="M84.84,466.21H6.883A6.9,6.9,0,0,0,0,473.117v45.573A6.9,6.9,0,0,0,6.883,525.6H61.431c3.507,4.91,9.865,13.7,10.426,13.7.526,0-.486-8.305-1.2-13.7H84.84a6.9,6.9,0,0,0,6.883-6.907V473.117a6.9,6.9,0,0,0-6.883-6.907" transform="translate(0 -268.682)" fill="#bbd631"/>
        <path id="Path_51721" data-name="Path 51721" d="M295.99,337.591h98.418a9.429,9.429,0,0,1,9.413,9.445v62.32a9.429,9.429,0,0,1-9.413,9.445H328c-4.8,6.715-13.49,18.739-14.258,18.739-.719,0,.665-11.357,1.64-18.739H295.99a9.429,9.429,0,0,1-9.413-9.445v-62.32a9.429,9.429,0,0,1,9.413-9.445" transform="translate(-165.158 -194.557)" fill="#a16eb0"/>
        <path id="Path_51722" data-name="Path 51722" d="M471.967,413.205H424.119a.29.29,0,0,0-.29.29v3.688a.29.29,0,0,0,.29.29h47.848a.29.29,0,0,0,.29-.29V413.5a.29.29,0,0,0-.29-.29" transform="translate(-244.259 -238.134)" fill="#fff"/>
        <path id="Path_51723" data-name="Path 51723" d="M312.425,417.473h39.923a.275.275,0,0,0,.275-.275V413.48a.275.275,0,0,0-.275-.275H312.425a.275.275,0,0,0-.275.275V417.2a.275.275,0,0,0,.275.275" transform="translate(-179.896 -238.134)" fill="#fff"/>
        <path id="Path_51724" data-name="Path 51724" d="M312.023,384.569h53.209a.275.275,0,0,0,.275-.275v-3.718a.275.275,0,0,0-.275-.275H312.023a.275.275,0,0,0-.275.275v3.718a.275.275,0,0,0,.275.275" transform="translate(-179.665 -219.171)" fill="#fff"/>
        <path id="Path_51725" data-name="Path 51725" d="M460.383,384.569H492.89a.275.275,0,0,0,.275-.275v-3.718a.275.275,0,0,0-.275-.275H460.383a.275.275,0,0,0-.275.275v3.718a.275.275,0,0,0,.275.275" transform="translate(-265.167 -219.171)" fill="#fff"/>
        <rect id="Rectangle_16568" data-name="Rectangle 16568" width="95.915" height="4.268" transform="translate(132.084 202.377)" fill="#fff"/>
        <rect id="Rectangle_16569" data-name="Rectangle 16569" width="45.615" height="4.269" transform="translate(182.384 188.884)" fill="#fff"/>
        <rect id="Rectangle_16570" data-name="Rectangle 16570" width="45.615" height="4.269" transform="translate(132.254 188.884)" fill="#fff"/>
        <path id="Path_51726" data-name="Path 51726" d="M95.674,551.228c0,2,2.619,3.623,5.85,3.623s5.851-1.622,5.851-3.623-2.619-3.623-5.851-3.623-5.85,1.622-5.85,3.623" transform="translate(-55.138 -315.591)" fill="#6c5e81"/>
        <path id="Path_51727" data-name="Path 51727" d="M73.6,374.455A26.376,26.376,0,0,1,90.88,420.763c-.019.021-4.12,4.453-4.8,9.1l-.122,2.841a3.989,3.989,0,0,1-1.033,2.509c-.056.061-.114.12-.172.177h-22.3c-.059-.057-.117-.116-.172-.177a3.984,3.984,0,0,1-1.033-2.509l-.123-2.841c-.676-4.642-4.777-9.074-4.8-9.1A26.376,26.376,0,0,1,73.6,374.455" transform="translate(-27.218 -215.802)" fill="#fff2bd"/>
        <path id="Path_51728" data-name="Path 51728" d="M86,534.725h16.48a2.967,2.967,0,0,0,2.968-2.967V518.266H83.031v13.491A2.968,2.968,0,0,0,86,534.725" transform="translate(-47.852 -298.682)" fill="#a16eb0"/>
        <g id="Group_37914" data-name="Group 37914" transform="translate(25.297 163.023)" opacity="0.3">
          <g id="Group_37913" data-name="Group 37913">
            <g id="Group_37912" data-name="Group 37912" clip-path="url(#clip-path-13)">
              <path id="Path_51729" data-name="Path 51729" d="M74.185,426.941a26.393,26.393,0,0,0,21.154-42.174,26.378,26.378,0,0,1,2.734,41.939c-.019.021-4.12,4.453-4.8,9.1l-.123,2.841a3.986,3.986,0,0,1-1.033,2.51c-.056.061-.114.12-.172.177h-22.3c-.059-.057-.117-.116-.172-.177a3.983,3.983,0,0,1-1.033-2.51l-.123-2.841c-.675-4.642-4.777-9.074-4.8-9.1a26.508,26.508,0,0,1-3.812-4.089,26.263,26.263,0,0,0,14.477,4.324" transform="translate(-59.708 -384.767)" fill="#eab054"/>
            </g>
          </g>
        </g>
        <path id="Path_51730" data-name="Path 51730" d="M95.046,428.774l5.241-22.86,4.6,13.3,1.349-.466-6.227-18-5.347,23.325L89.183,410.7l-5.073,8.565,1.228.727,3.611-6.1Z" transform="translate(-48.474 -230.952)" fill="#fff"/>
        <path id="Path_51731" data-name="Path 51731" d="M124.041,474.963l.126.013a1.206,1.206,0,0,0,1.323-1.075l3.666-35.394a1.206,1.206,0,0,0-1.075-1.324l-.126-.013a1.206,1.206,0,0,0-1.323,1.075l-3.665,35.394a1.206,1.206,0,0,0,1.075,1.323" transform="translate(-70.863 -251.942)" fill="#a16eb0"/>
        <path id="Path_51732" data-name="Path 51732" d="M86.4,474.977h0a1.269,1.269,0,0,1-1.393-1.131l-3.652-35.269a1.269,1.269,0,1,1,2.524-.261l3.652,35.268a1.269,1.269,0,0,1-1.131,1.393" transform="translate(-46.882 -251.95)" fill="#a16eb0"/>
        <path id="Path_51733" data-name="Path 51733" d="M81.1,520.747h23.661a.328.328,0,0,0,.328-.328v-1.824a.328.328,0,0,0-.328-.328H81.1a.328.328,0,0,0-.328.328v1.824a.328.328,0,0,0,.328.328" transform="translate(-46.548 -298.682)" fill="#6c5e81"/>
        <path id="Path_51734" data-name="Path 51734" d="M81.1,532.488h23.661a.328.328,0,0,0,.328-.328v-1.824a.328.328,0,0,0-.328-.328H81.1a.328.328,0,0,0-.328.328v1.824a.328.328,0,0,0,.328.328" transform="translate(-46.548 -305.449)" fill="#6c5e81"/>
        <path id="Path_51735" data-name="Path 51735" d="M81.1,545.628h23.661a.328.328,0,0,0,.328-.328v-1.824a.328.328,0,0,0-.328-.328H81.1a.328.328,0,0,0-.328.328V545.3a.328.328,0,0,0,.328.328" transform="translate(-46.548 -313.021)" fill="#6c5e81"/>
        <rect id="Rectangle_16572" data-name="Rectangle 16572" width="631.292" height="2.964" transform="translate(36.238 561.769)" fill="#c1c1c1"/>
      </g>
    </g>
  </g>
</svg>
