<svg xmlns="http://www.w3.org/2000/svg" width="57.842" height="53.813" viewBox="0 0 57.842 53.813">
  <path id="Path_2651" data-name="Path 2651" d="M27.718,62.483a3.185,3.185,0,0,1-2.163-.855L7.481,45.039a1.732,1.732,0,0,1,0-2.55L25.554,25.9a3.22,3.22,0,0,1,5.4,2.373v5.573H42.463a1.73,1.73,0,0,1,1.73,1.73V42.33L60.476,27.383,44.193,12.437v6.755a1.73,1.73,0,0,1-1.73,1.73H16.724a1.73,1.73,0,1,1,0-3.46H40.733V11.89a3.219,3.219,0,0,1,5.4-2.371L64.2,26.108a1.732,1.732,0,0,1,0,2.55L46.129,45.249a3.22,3.22,0,0,1-5.4-2.373V37.3H29.221a1.73,1.73,0,0,1-1.73-1.73V28.818L11.208,43.764,27.491,58.711V51.956a1.73,1.73,0,0,1,1.73-1.73H51.9a1.73,1.73,0,0,1,0,3.46H30.951v5.572a3.18,3.18,0,0,1-1.925,2.947,3.247,3.247,0,0,1-1.309.278Z" transform="translate(-6.921 -8.67)" fill="#d7ff00"/>
</svg>
