<svg xmlns="http://www.w3.org/2000/svg" width="57.743" height="55.818" viewBox="0 0 57.743 55.818">
  <g id="website_domain_name_magnifier_magnifying_glass_loupe" transform="translate(-1 -2)">
    <g id="Group_35611" data-name="Group 35611" transform="translate(1 2)">
      <g id="monitoring_4_">
        <ellipse id="Ellipse_24" data-name="Ellipse 24" cx="0.652" cy="1.305" rx="0.652" ry="1.305" transform="translate(11.91 3.772)" fill="#d7ff00"/>
        <ellipse id="Ellipse_25" data-name="Ellipse 25" cx="0.652" cy="1.305" rx="0.652" ry="1.305" transform="translate(7.996 3.772)" fill="#d7ff00"/>
        <ellipse id="Ellipse_26" data-name="Ellipse 26" cx="0.652" cy="1.305" rx="0.652" ry="1.305" transform="translate(4.082 3.772)" fill="#d7ff00"/>
        <path id="Path_2656" data-name="Path 2656" d="M56.355,7.925H2.462A.962.962,0,1,1,2.462,6H56.355a.962.962,0,0,1,0,1.925Z" transform="translate(-0.538 1.699)" fill="#d7ff00"/>
        <path id="Path_2657" data-name="Path 2657" d="M23.135,52.044H3.887A2.891,2.891,0,0,1,1,49.156V4.887A2.891,2.891,0,0,1,3.887,2H55.855a2.891,2.891,0,0,1,2.887,2.887V44.345a.962.962,0,1,1-1.925,0V4.887a.964.964,0,0,0-.962-.962H3.887a.964.964,0,0,0-.962.962V49.156a.964.964,0,0,0,.962.962H23.135a.962.962,0,0,1,0,1.925Z" transform="translate(-1 -2)" fill="#d7ff00"/>
      </g>
    </g>
    <g id="Group_35622" data-name="Group 35622" transform="translate(6.774 13.549)">
      <g id="Group_35616" data-name="Group 35616" transform="translate(7.699)">
        <g id="Group_35615" data-name="Group 35615">
          <circle id="Ellipse_27" data-name="Ellipse 27" cx="0.962" cy="0.962" r="0.962" transform="translate(27.909 24.059)" fill="#d7ff00"/>
          <g id="Group_35612" data-name="Group 35612" transform="translate(12.61 27.058)">
            <path id="Path_2658" data-name="Path 2658" d="M20.227,26.758a13.386,13.386,0,0,1-5.076-.989.961.961,0,1,1,.726-1.78,11.749,11.749,0,0,0,11.6-1.715.962.962,0,1,1,1.211,1.5,13.506,13.506,0,0,1-8.461,2.989Z" transform="translate(-14.551 -22.058)" fill="#d7ff00"/>
          </g>
          <g id="Group_35614" data-name="Group 35614">
            <path id="Path_2659" data-name="Path 2659" d="M26.285,44.57A18.285,18.285,0,1,1,44.57,26.285,18.307,18.307,0,0,1,26.285,44.57Zm0-34.646a16.36,16.36,0,1,0,16.36,16.36A16.379,16.379,0,0,0,26.285,9.925Z" transform="translate(-8 -8)" fill="#d7ff00"/>
            <g id="Group_35613" data-name="Group 35613" transform="translate(30.534 30.532)">
              <path id="Path_2660" data-name="Path 2660" d="M26.9,26.9a2.856,2.856,0,0,1,.8-.556l-2.194-2.2a.963.963,0,1,0-1.361,1.363L26.339,27.7a2.967,2.967,0,0,1,.556-.8Z" transform="translate(-23.864 -23.863)" fill="#d7ff00"/>
              <path id="Path_2661" data-name="Path 2661" d="M28.35,26.425a1.919,1.919,0,0,1,1.361.564L34.522,31.8A1.924,1.924,0,1,1,31.8,34.522L26.989,29.71a1.925,1.925,0,0,1,1.361-3.286Zm0-1.925a3.849,3.849,0,0,0-2.722,6.571l4.812,4.812a3.849,3.849,0,1,0,5.443-5.443l-4.812-4.812A3.823,3.823,0,0,0,28.35,24.5Z" transform="translate(-23.275 -23.273)" fill="#d7ff00"/>
            </g>
          </g>
        </g>
      </g>
      <ellipse id="Ellipse_28" data-name="Ellipse 28" cx="1.305" cy="0.652" rx="1.305" ry="0.652" transform="translate(11.355 19.622)" fill="#d7ff00"/>
      <g id="Group_35617" data-name="Group 35617" transform="translate(0 26.947)">
        <path id="Path_2662" data-name="Path 2662" d="M8.812,27.774H4.962A.963.963,0,0,1,4,26.812v-3.85A.963.963,0,0,1,4.962,22h3.85a.963.963,0,0,1,.962.962v3.85A.963.963,0,0,1,8.812,27.774ZM5.925,25.85H7.85V23.925H5.925Z" transform="translate(-4 -22)" fill="#d7ff00"/>
      </g>
      <g id="Group_35618" data-name="Group 35618" transform="translate(0 15.398)">
        <path id="Path_2663" data-name="Path 2663" d="M8.812,21.774H4.962A.963.963,0,0,1,4,20.812v-3.85A.963.963,0,0,1,4.962,16h3.85a.963.963,0,0,1,.962.962v3.85A.963.963,0,0,1,8.812,21.774ZM5.925,19.85H7.85V17.925H5.925Z" transform="translate(-4 -16)" fill="#d7ff00"/>
      </g>
      <g id="Group_35619" data-name="Group 35619" transform="translate(0 3.85)">
        <path id="Path_2664" data-name="Path 2664" d="M8.812,15.774H4.962A.963.963,0,0,1,4,14.812v-3.85A.963.963,0,0,1,4.962,10h3.85a.963.963,0,0,1,.962.962v3.85A.963.963,0,0,1,8.812,15.774ZM5.925,13.85H7.85V11.925H5.925Z" transform="translate(-4 -10)" fill="#d7ff00"/>
      </g>
      <path id="Path_2665" data-name="Path 2665" d="M15.249,23.171a4.117,4.117,0,0,1-3.85-4.331,4.117,4.117,0,0,1,3.85-4.331,3.533,3.533,0,0,1,1.975.61.963.963,0,0,1-1.074,1.6,1.592,1.592,0,0,0-.9-.283,2.209,2.209,0,0,0-1.925,2.406,2.209,2.209,0,0,0,1.925,2.406,1.616,1.616,0,0,0,1.007-.362A.963.963,0,0,1,17.439,22.4a3.539,3.539,0,0,1-2.19.768Z" transform="translate(2.842 -1.98)" fill="#d7ff00"/>
      <path id="Path_2666" data-name="Path 2666" d="M19.149,23.163a4.117,4.117,0,0,1-3.85-4.331,4.117,4.117,0,0,1,3.85-4.331A4.117,4.117,0,0,1,23,18.833,4.117,4.117,0,0,1,19.149,23.163Zm0-6.737a2.209,2.209,0,0,0-1.925,2.406,2.209,2.209,0,0,0,1.925,2.406,2.209,2.209,0,0,0,1.925-2.406A2.209,2.209,0,0,0,19.149,16.427Z" transform="translate(6.45 -1.987)" fill="#d7ff00"/>
      <g id="Group_35620" data-name="Group 35620" transform="translate(34.646 12.511)">
        <path id="Path_2667" data-name="Path 2667" d="M26.812,23.161a.963.963,0,0,1-.962-.962V17.387a.962.962,0,1,0-1.925,0v3.85a.962.962,0,0,1-1.925,0v-3.85a2.887,2.887,0,1,1,5.774,0V22.2A.963.963,0,0,1,26.812,23.161Z" transform="translate(-22 -14.5)" fill="#d7ff00"/>
      </g>
      <g id="Group_35621" data-name="Group 35621" transform="translate(30.796 12.511)">
        <path id="Path_2668" data-name="Path 2668" d="M24.812,23.161a.963.963,0,0,1-.962-.962V17.387a.962.962,0,1,0-1.925,0V22.2A.962.962,0,0,1,20,22.2V15.462a.964.964,0,0,1,1.644-.681,2.888,2.888,0,0,1,4.131,2.606V22.2A.963.963,0,0,1,24.812,23.161Z" transform="translate(-20 -14.5)" fill="#d7ff00"/>
      </g>
    </g>
  </g>
</svg>
