<svg xmlns="http://www.w3.org/2000/svg" width="57.314" height="57.314" viewBox="0 0 57.314 57.314">
  <g id="Group_35608" data-name="Group 35608" transform="translate(0 -0.001)">
    <path id="Path_2652" data-name="Path 2652" d="M48.966,8.44A28.467,28.467,0,0,0,28.8,0h0c-.1,0-.2,0-.287,0A28.673,28.673,0,0,0,2.136,39.534.84.84,0,0,0,3.69,38.9a26.757,26.757,0,0,1-1.329-4.188c2.492,3.039,6.849,5.6,12.551,7.226,1.648,5.887,4.3,10.393,7.464,12.964a26.856,26.856,0,0,1-7.392-2.977,27.142,27.142,0,0,1-9.628-9.657.84.84,0,0,0-1.45.848,28.642,28.642,0,0,0,24.606,14.2H28.8A28.657,28.657,0,0,0,48.966,8.44Zm-5.7,10.633q-.173-.908-.377-1.79a26.317,26.317,0,0,1,8.965,4.577,9.623,9.623,0,0,1,3.73,5.96H45.528V21.775a2.748,2.748,0,0,0-2.266-2.7ZM29.5,15.245a49.435,49.435,0,0,1,11.53,1.506c.189.741.363,1.5.517,2.279H29.5Zm0-1.68V1.732a10.068,10.068,0,0,1,6.329,3.933,26.794,26.794,0,0,1,4.679,9.224A51.832,51.832,0,0,0,29.5,13.565ZM27.817,1.733V13.565a54.053,54.053,0,0,0-6.007.422.84.84,0,0,0,.213,1.666,52.357,52.357,0,0,1,5.795-.408V19.03H15.77c.154-.777.328-1.538.518-2.28.643-.167,1.3-.324,1.967-.464a.84.84,0,0,0-.347-1.644q-.553.117-1.1.247a26.793,26.793,0,0,1,4.679-9.224,10.071,10.071,0,0,1,6.329-3.933ZM14.053,19.073a2.748,2.748,0,0,0-2.267,2.7v6.044H1.735a9.617,9.617,0,0,1,3.73-5.96,26.3,26.3,0,0,1,8.965-4.577q-.2.882-.376,1.79Zm-.587,2.7a1.066,1.066,0,0,1,1.065-1.065H42.783a1.066,1.066,0,0,1,1.065,1.065V35.542a1.066,1.066,0,0,1-1.065,1.065H14.532a1.066,1.066,0,0,1-1.065-1.065Zm2.821,18.791c-.189-.741-.363-1.5-.517-2.279H27.817v3.785a49.432,49.432,0,0,1-11.53-1.506ZM29.5,38.287H41.544c-.154.777-.328,1.537-.517,2.279A49.435,49.435,0,0,1,29.5,42.072Zm13.764-.042a2.749,2.749,0,0,0,2.266-2.7V29.5H55.58a9.621,9.621,0,0,1-3.73,5.959,26.294,26.294,0,0,1-8.965,4.577q.2-.882.377-1.79Zm11.7-15.631c-2.491-3.041-6.849-5.6-12.555-7.23-1.65-5.894-4.3-10.4-7.474-12.972a27.032,27.032,0,0,1,20.029,20.2ZM9.539,9.625a26.8,26.8,0,0,1,12.85-7.213c-3.174,2.569-5.827,7.078-7.477,12.972-5.706,1.628-10.063,4.189-12.555,7.23A26.8,26.8,0,0,1,9.539,9.625ZM1.735,29.5H11.787v6.044a2.748,2.748,0,0,0,2.266,2.7q.173.908.377,1.79a26.309,26.309,0,0,1-8.965-4.577,9.618,9.618,0,0,1-3.73-5.96ZM16.809,42.427a51.8,51.8,0,0,0,11.008,1.325V55.584a10.067,10.067,0,0,1-6.329-3.933,26.786,26.786,0,0,1-4.679-9.224Zm30.966,5.265a26.8,26.8,0,0,1-12.858,7.215,18.288,18.288,0,0,0,4.031-4.762.84.84,0,1,0-1.435-.874c-2.277,3.74-5.1,5.952-8.017,6.311V43.752a51.776,51.776,0,0,0,11.008-1.325c-.308,1-.648,1.964-1.02,2.88a.84.84,0,1,0,1.557.631,37.909,37.909,0,0,0,1.359-4c5.706-1.628,10.064-4.189,12.555-7.23a26.805,26.805,0,0,1-7.182,12.989Zm0,0" fill="#d7ff00"/>
    <path id="Path_2653" data-name="Path 2653" d="M144.815,214.665a1.1,1.1,0,0,0,.675.2h2.771a4.038,4.038,0,0,0,2.713-.875A3.471,3.471,0,0,0,152,211.223V206.95a3.471,3.471,0,0,0-1.021-2.766,4.038,4.038,0,0,0-2.713-.875h-2.771a1.1,1.1,0,0,0-.675.2.6.6,0,0,0-.273.483v10.191A.6.6,0,0,0,144.815,214.665Zm5.033-3.442c0,1.174-.519,1.744-1.587,1.744H146.69v-7.762h1.572c1.068,0,1.587.57,1.587,1.744Zm0,0" transform="translate(-128.362 -180.549)" fill="#d7ff00"/>
    <path id="Path_2654" data-name="Path 2654" d="M225.967,214.688a1.473,1.473,0,0,0,.748.18,1.488,1.488,0,0,0,.74-.179.578.578,0,0,0,.334-.519V208.1l3.26,6.1a1.279,1.279,0,0,0,1.223.671,1.485,1.485,0,0,0,.739-.179.577.577,0,0,0,.334-.519V203.995a.557.557,0,0,0-.327-.519,1.788,1.788,0,0,0-1.492,0,.557.557,0,0,0-.327.519v6.063l-2.916-5.635a2.565,2.565,0,0,0-.675-.9,1.582,1.582,0,0,0-.893-.213,1.529,1.529,0,0,0-.747.171.573.573,0,0,0-.327.526V214.17A.58.58,0,0,0,225.967,214.688Zm0,0" transform="translate(-200.382 -180.552)" fill="#d7ff00"/>
    <path id="Path_2655" data-name="Path 2655" d="M310.04,212.156a2.113,2.113,0,0,1-1.22.335,2.47,2.47,0,0,1-.98-.191,2.246,2.246,0,0,1-.68-.42,5.491,5.491,0,0,0-.506-.436.858.858,0,0,0-.5-.206.829.829,0,0,0-.663.39,1.276,1.276,0,0,0-.285.761c0,.5.368.963,1.093,1.379a5.126,5.126,0,0,0,2.579.618,4.1,4.1,0,0,0,2.737-.885,3.14,3.14,0,0,0,1.045-2.52,3.6,3.6,0,0,0-.382-1.693,2.987,2.987,0,0,0-.949-1.108,10.473,10.473,0,0,0-1.212-.7c-.434-.214-.842-.394-1.21-.534a2.9,2.9,0,0,1-.914-.537.969.969,0,0,1-.357-.749.959.959,0,0,1,.438-.838,2.229,2.229,0,0,1,1.276-.311,3.17,3.17,0,0,1,1.369.292,2.475,2.475,0,0,0,.791.3.722.722,0,0,0,.643-.4,1.482,1.482,0,0,0,.227-.749.879.879,0,0,0-.341-.686,2.086,2.086,0,0,0-.852-.414,8.132,8.132,0,0,0-.969-.186,7.119,7.119,0,0,0-.868-.056,5.48,5.48,0,0,0-1.376.168,4.3,4.3,0,0,0-1.221.531,2.627,2.627,0,0,0-.92,1.022,3.229,3.229,0,0,0-.343,1.511,3.2,3.2,0,0,0,.279,1.362,2.6,2.6,0,0,0,.736.96,6.314,6.314,0,0,0,1,.639c.362.189.724.361,1.076.511s.68.308.973.467a2.138,2.138,0,0,1,.7.595,1.318,1.318,0,0,1,.263.8,1.092,1.092,0,0,1-.477.971Zm0,0" transform="translate(-271.044 -179.931)" fill="#d7ff00"/>
  </g>
</svg>
