<svg id="Group_37743" data-name="Group 37743" xmlns="http://www.w3.org/2000/svg" xmlns:xlink="http://www.w3.org/1999/xlink" width="570.192" height="559.069" viewBox="0 0 570.192 559.069">
  <defs>
    <clipPath id="clip-path">
      <rect id="Rectangle_16480" data-name="Rectangle 16480" width="570.192" height="559.069" fill="none"/>
    </clipPath>
  </defs>
  <g id="Group_37742" data-name="Group 37742" clip-path="url(#clip-path)">
    <path id="Path_51283" data-name="Path 51283" d="M230.508,155.667c10.687-1.995,20.993-7.525,27.227-16.432s7.754-21.36,2.41-30.828c-3.44-6.094-9.31-10.509-15.629-13.514a53.783,53.783,0,0,0-68.035,19.033c-5.749-9.96-21.832-11.153-31.94-5.667s-16.716,16.488-18.528,27.844c-5.74,35.973,8.825,50.868,17.382,54.956" transform="translate(-14.942 -10.749)" fill="#f6e28f"/>
    <path id="Path_51284" data-name="Path 51284" d="M222.656,281.853l-25.4-28.456-.393-.457-3.475-.3-5.093-.456-.831-.068-58.336-5.109-.087.024a142.172,142.172,0,0,0-15.147,2.417,98.792,98.792,0,0,0-14.557,4.286q-.661.256-1.319.516C42.487,276.179,6.3,330.189,6.3,389.89V587.276H184.8V511.962l97.549,5.7Z" transform="translate(-0.755 -29.595)" fill="#d7ff00"/>
    <path id="Path_51285" data-name="Path 51285" d="M208.387,252.48h0a121.594,121.594,0,0,1,100.877,84.067L355.67,483.619l116.645,13.976-10.751,52.678L347.016,532.285a121.846,121.846,0,0,1-99.589-91.967l-18.613-77.644Z" transform="translate(-24.968 -30.25)" fill="#d7ff00"/>
    <path id="Path_51286" data-name="Path 51286" d="M464.156,566.481a1.259,1.259,0,0,1-.22-.018L349.388,548.477a122.853,122.853,0,0,1-100.733-93.024L230.042,377.81a1.4,1.4,0,0,1,2.722-.651L251.377,454.8a120.059,120.059,0,0,0,98.446,90.912L464.372,563.7a1.4,1.4,0,0,1-.216,2.78" transform="translate(-27.557 -45.06)" fill="#191919"/>
    <path id="Path_51287" data-name="Path 51287" d="M138.57,365.222l59.563,147.806,181.4,26.155v54.3H206.911a107.819,107.819,0,0,1-97.2-61.168L36.835,384.525" transform="translate(-4.413 -43.758)" fill="#d7ff35"/>
    <path id="Path_51288" data-name="Path 51288" d="M535.189,319.436h-166.5a1.4,1.4,0,1,1,0-2.8h166.5A20.73,20.73,0,0,0,555.9,295.932V23.506A20.732,20.732,0,0,0,535.189,2.8H245.032a20.732,20.732,0,0,0-20.707,20.708V62.613a1.4,1.4,0,0,1-2.8,0V23.506A23.534,23.534,0,0,1,245.032,0H535.189A23.535,23.535,0,0,1,558.7,23.506V295.932a23.533,23.533,0,0,1-23.507,23.5" transform="translate(-26.542 0)" fill="#fff"/>
    <path id="Path_51289" data-name="Path 51289" d="M557.3,36.157H222.926a1.4,1.4,0,0,1-1.4-1.4V23.506A23.533,23.533,0,0,1,245.032,0H535.189a23.534,23.534,0,0,1,23.506,23.506V34.758a1.4,1.4,0,0,1-1.4,1.4m-332.971-2.8H555.9V23.506A20.732,20.732,0,0,0,535.189,2.8H245.032a20.732,20.732,0,0,0-20.707,20.708Z" transform="translate(-26.542 0)" fill="#fff"/>
    <path id="Path_51290" data-name="Path 51290" d="M633.019,87.49a16.372,16.372,0,0,1-16.354,16.354H552.4a16.353,16.353,0,0,1,0-32.707h64.264A16.337,16.337,0,0,1,633.019,87.49" transform="translate(-64.226 -8.523)" fill="#fff"/>
    <path id="Path_51291" data-name="Path 51291" d="M616.475,105.053H552.21A17.773,17.773,0,0,1,534.457,87.3,17.769,17.769,0,0,1,552.21,69.547h64.265a17.747,17.747,0,0,1,12.548,30.3,17.566,17.566,0,0,1-12.548,5.2M552.21,72.345a14.955,14.955,0,1,0,0,29.91h64.265A14.97,14.97,0,0,0,631.429,87.3a14.971,14.971,0,0,0-14.954-14.955Z" transform="translate(-64.035 -8.333)" fill="#d7ff00"/>
    <path id="Path_51292" data-name="Path 51292" d="M566.4,99.019a1.742,1.742,0,0,1-1.341-.632,2.092,2.092,0,0,1-.567-1.429,2.166,2.166,0,0,1,.567-1.458,1.755,1.755,0,0,1,2.694-.037,2.195,2.195,0,0,1,.532,1.5,2.107,2.107,0,0,1-.555,1.436,1.72,1.72,0,0,1-1.33.625" transform="translate(-67.633 -11.364)" fill="#191919"/>
    <path id="Path_51293" data-name="Path 51293" d="M579.084,96.535a5.52,5.52,0,0,1-4.267-1.908A7.641,7.641,0,0,1,573,89.313a13.914,13.914,0,0,1,1.631-6.276q1.85-3.7,4.3-3.7a6.187,6.187,0,0,1,2.81.856q1.954,1.052,1.954,2.427a2.308,2.308,0,0,1-.393,1.329,1.246,1.246,0,0,1-1.076.625,1.909,1.909,0,0,1-1.2-.708,2.821,2.821,0,0,0-2.1-.71q-.892,0-1.931,2.306a9.729,9.729,0,0,0-.995,3.847,3.493,3.493,0,0,0,.878,2.521,2.9,2.9,0,0,0,2.2.87,3.563,3.563,0,0,0,1.9-.78,4.09,4.09,0,0,1,1.422-.779,1.3,1.3,0,0,1,1.069.6,2.207,2.207,0,0,1,.446,1.358q0,1.194-1.966,2.383a6.056,6.056,0,0,1-2.869,1.054" transform="translate(-68.653 -9.506)" fill="#191919"/>
    <path id="Path_51294" data-name="Path 51294" d="M592.361,96.529a4.572,4.572,0,0,1-3.677-1.939,9.192,9.192,0,0,1-1.77-5.667,11.527,11.527,0,0,1,1.4-6.016,5.408,5.408,0,0,1,4.892-3.115,4.115,4.115,0,0,1,3.677,2.444,11.06,11.06,0,0,1,1.226,5.452,12,12,0,0,1-1.434,6.047,4.844,4.844,0,0,1-4.315,2.794m.694-12.705a2.474,2.474,0,0,0-2.243,1.712,7.747,7.747,0,0,0-.694,3.388,4.388,4.388,0,0,0,.786,2.811,1.833,1.833,0,0,0,1.457.778,2.2,2.2,0,0,0,1.747-.9,4.694,4.694,0,0,0,.9-2.854q.152-4.919-1.954-4.934" transform="translate(-70.32 -9.56)" fill="#191919"/>
    <path id="Path_51295" data-name="Path 51295" d="M604.809,81.961q1.745-2.672,3.308-2.673a2.744,2.744,0,0,1,2.613,1.788,4.8,4.8,0,0,1,1.561-1.238,4.2,4.2,0,0,1,1.851-.413q2.266,0,3.075,2.978.163.613.5,4.14.325,2.472.833,8.246a1.921,1.921,0,0,1-.452,1.434,1.505,1.505,0,0,1-1.167.566q-1.33,0-1.561-1.742-.209-1.571-.428-4.442-.231-3.148-.381-4.459-.313-2.736-.8-2.733a3.313,3.313,0,0,0-1.214.7,8.964,8.964,0,0,0-1.389,1.207q0,1.741.313,5.008.322,3.346.323,5.008a2.284,2.284,0,0,1-.452,1.451,1.419,1.419,0,0,1-2.288,0,2.284,2.284,0,0,1-.452-1.451q0-1.741-.283-5.122t-.283-5.124a7.544,7.544,0,0,0-.128-1.559,11.268,11.268,0,0,0-2.694,3.405c-.039.072-.1.18-.2.321q-.046,3.085-.046,4.84c0,.286-.008.669-.025,1.155s-.023.841-.023,1.075a1.687,1.687,0,0,1-.508,1.3,1.593,1.593,0,0,1-1.146.441,1.35,1.35,0,0,1-1.329-1.128,8.714,8.714,0,0,1-.244-2.428V86.832q0-.764-.046-2.237c-.03-.981-.046-1.73-.046-2.237a7.68,7.68,0,0,1,.37-2.459q.45-1.374,1.272-1.375a1.447,1.447,0,0,1,1.157.665,2.343,2.343,0,0,1,.51,1.458,7.635,7.635,0,0,0-.1,1.314" transform="translate(-72.08 -9.408)" fill="#191919"/>
    <path id="Path_51296" data-name="Path 51296" d="M633.019,170.315a16.371,16.371,0,0,1-16.354,16.353H552.4a16.353,16.353,0,0,1,0-32.706h64.264a16.337,16.337,0,0,1,16.354,16.353" transform="translate(-64.226 -18.447)" fill="#fff"/>
    <path id="Path_51297" data-name="Path 51297" d="M616.475,187.877H552.21a17.773,17.773,0,0,1-17.753-17.752,17.774,17.774,0,0,1,17.753-17.753h64.265a17.747,17.747,0,0,1,12.548,30.3,17.557,17.557,0,0,1-12.548,5.2M552.21,155.169a14.955,14.955,0,1,0,0,29.91h64.265a14.97,14.97,0,0,0,14.954-14.954,14.971,14.971,0,0,0-14.954-14.955Z" transform="translate(-64.035 -18.256)" fill="#d7ff00"/>
    <path id="Path_51298" data-name="Path 51298" d="M569.929,183.513a1.742,1.742,0,0,1-1.341-.632,2.091,2.091,0,0,1-.567-1.429,2.166,2.166,0,0,1,.567-1.458,1.755,1.755,0,0,1,2.694-.037,2.195,2.195,0,0,1,.533,1.5,2.107,2.107,0,0,1-.555,1.436,1.72,1.72,0,0,1-1.33.625" transform="translate(-68.056 -21.488)" fill="#191919"/>
    <path id="Path_51299" data-name="Path 51299" d="M586.462,181.092q-1.423,0-1.585-1.848-.163-1.574-.323-3.161a30.7,30.7,0,0,1-.174-3.161c0-.265.013-.719.04-1.36s.041-1.093.041-1.36c0-.07.008-.252.023-.542s.023-.526.023-.709q0-1.269-.462-1.267-.99,0-1.943,1.681a14.838,14.838,0,0,0-1.491,4.263q-.022.518-.1,1.377c-.044.47-.064.929-.064,1.377,0,.29-.026.732-.076,1.323s-.076,1.03-.076,1.32a2.332,2.332,0,0,1-.457,1.48,1.419,1.419,0,0,1-2.3,0,2.336,2.336,0,0,1-.451-1.469c0-.291-.023-.728-.069-1.314s-.07-1.023-.07-1.314q0-1.495.163-4.153t.162-4.152c0-.31-.015-.775-.041-1.392s-.04-1.076-.04-1.375a2.179,2.179,0,0,1,.467-1.438,1.433,1.433,0,0,1,1.151-.569q1.515,0,1.619,2.4l.012.166q1.689-2.243,3.562-2.243a3.069,3.069,0,0,1,3.017,2.411,15.86,15.86,0,0,1,.556,4.843v1.084c-.008.467-.012.8-.012.992a24.28,24.28,0,0,0,.25,3.069,24.493,24.493,0,0,1,.248,3.054,2.173,2.173,0,0,1-.463,1.421,1.424,1.424,0,0,1-1.144.564" transform="translate(-69.127 -19.569)" fill="#191919"/>
    <path id="Path_51300" data-name="Path 51300" d="M597.23,180.806a6.149,6.149,0,0,1-4.522-1.74,7.287,7.287,0,0,1-1.943-5.422,12.917,12.917,0,0,1,1.538-6.536,5.175,5.175,0,0,1,4.615-2.962,6.085,6.085,0,0,1,3.342.855,3.888,3.888,0,0,1,1.746,3.513,3.934,3.934,0,0,1-1.422,2.978,17.343,17.343,0,0,1-2.6,1.743l-3.9,2.274a3.6,3.6,0,0,0,1.341,1.191,3.948,3.948,0,0,0,1.8.4,4.138,4.138,0,0,0,2.625-.839,2.853,2.853,0,0,1,1.539-.75q1.2,0,1.2,1.543a3.238,3.238,0,0,1-1.931,2.839,6.849,6.849,0,0,1-3.435.916m-.312-12.963a2.291,2.291,0,0,0-1.839.946,7.333,7.333,0,0,0-1.226,2.84q1.307-.749,2.6-1.482a18.363,18.363,0,0,0,2.487-1.725,3.3,3.3,0,0,0-2.024-.579" transform="translate(-70.781 -19.667)" fill="#191919"/>
    <path id="Path_51301" data-name="Path 51301" d="M614.576,167.08c-.162,0-.353-.009-.573-.024s-.409-.022-.571-.022a5.641,5.641,0,0,0-1.1.122q.207,6.168.209,8.063c0,.133,0,.38.011.741s.012.653.012.877q0,3.515-1.677,3.513a1.427,1.427,0,0,1-1.1-.518,1.948,1.948,0,0,1-.51-1.375q0-.551.035-1.65t.035-1.649q0-1.846-.21-7.909-.716-.046-2.168-.253t-1.451-1.976a2.372,2.372,0,0,1,.439-1.451,1.346,1.346,0,0,1,1.133-.6q.428,0,1.966.181c-.007-.326-.027-.863-.057-1.617-.031-.652-.046-1.155-.046-1.513a2.123,2.123,0,0,1,.474-1.419,1.447,1.447,0,0,1,1.144-.566q1.711,0,1.711,3.8l-.023,1.253a6.482,6.482,0,0,1,1.169-.137,4.893,4.893,0,0,1,1.816.227,1.839,1.839,0,0,1,.924,1.865,2.282,2.282,0,0,1-.452,1.449,1.39,1.39,0,0,1-1.144.582" transform="translate(-72.549 -18.935)" fill="#191919"/>
    <path id="Path_51302" data-name="Path 51302" d="M574.97,27.47a1.4,1.4,0,0,1-.99-.408L560.731,13.814a1.4,1.4,0,0,1,1.979-1.981L575.958,25.08a1.4,1.4,0,0,1-.988,2.39" transform="translate(-67.134 -1.369)" fill="#d7ff00"/>
    <path id="Path_51303" data-name="Path 51303" d="M561.721,27.47a1.4,1.4,0,0,1-.989-2.39L573.98,11.832a1.4,1.4,0,0,1,1.979,1.981L562.71,27.061a1.4,1.4,0,0,1-.989.408" transform="translate(-67.134 -1.369)" fill="#d7ff00"/>
    <path id="Path_51304" data-name="Path 51304" d="M543.8,21.748H524.057a1.4,1.4,0,1,1,0-2.8H543.8a1.4,1.4,0,1,1,0,2.8" transform="translate(-62.621 -2.27)" fill="#161515"/>
    <path id="Path_51305" data-name="Path 51305" d="M262.594,15.914v7.421a3.013,3.013,0,0,1-3.009,3.009h-7.421a3.014,3.014,0,0,1-3.01-3.009V15.914a3.014,3.014,0,0,1,3.01-3.009h7.421a3.013,3.013,0,0,1,3.009,3.009" transform="translate(-29.852 -1.546)" fill="#191919"/>
    <path id="Path_51306" data-name="Path 51306" d="M290.348,15.914v7.421a3.013,3.013,0,0,1-3.009,3.009h-7.421a3.014,3.014,0,0,1-3.01-3.009V15.914a3.014,3.014,0,0,1,3.01-3.009h7.421a3.013,3.013,0,0,1,3.009,3.009" transform="translate(-33.177 -1.546)" fill="#191919"/>
    <path id="Path_51307" data-name="Path 51307" d="M318.1,15.914v7.421a3.013,3.013,0,0,1-3.009,3.009h-7.421a3.014,3.014,0,0,1-3.01-3.009V15.914a3.014,3.014,0,0,1,3.01-3.009h7.421a3.013,3.013,0,0,1,3.009,3.009" transform="translate(-36.503 -1.546)" fill="#191919"/>
    <path id="Path_51308" data-name="Path 51308" d="M259.395,27.554h-7.421a4.414,4.414,0,0,1-4.408-4.41V15.725a4.414,4.414,0,0,1,4.408-4.41h7.421a4.415,4.415,0,0,1,4.409,4.41v7.419a4.415,4.415,0,0,1-4.409,4.41m-7.421-13.44a1.613,1.613,0,0,0-1.61,1.612v7.419a1.613,1.613,0,0,0,1.61,1.611h7.421a1.613,1.613,0,0,0,1.611-1.611V15.725a1.613,1.613,0,0,0-1.611-1.612Z" transform="translate(-29.662 -1.356)" fill="#fff"/>
    <path id="Path_51309" data-name="Path 51309" d="M287.148,27.554h-7.421a4.414,4.414,0,0,1-4.408-4.41V15.725a4.414,4.414,0,0,1,4.408-4.41h7.421a4.415,4.415,0,0,1,4.409,4.41v7.419a4.415,4.415,0,0,1-4.409,4.41m-7.421-13.44a1.613,1.613,0,0,0-1.61,1.612v7.419a1.613,1.613,0,0,0,1.61,1.611h7.421a1.613,1.613,0,0,0,1.611-1.611V15.725a1.613,1.613,0,0,0-1.611-1.612Z" transform="translate(-32.987 -1.356)" fill="#d7ff00"/>
    <path id="Path_51310" data-name="Path 51310" d="M314.9,27.554h-7.422a4.414,4.414,0,0,1-4.408-4.41V15.725a4.414,4.414,0,0,1,4.408-4.41H314.9a4.414,4.414,0,0,1,4.408,4.41v7.419a4.414,4.414,0,0,1-4.408,4.41m-7.422-13.44a1.613,1.613,0,0,0-1.61,1.612v7.419a1.613,1.613,0,0,0,1.61,1.611H314.9a1.613,1.613,0,0,0,1.61-1.611V15.725a1.613,1.613,0,0,0-1.61-1.612Z" transform="translate(-36.312 -1.356)" fill="#fff"/>
    <path id="Path_51311" data-name="Path 51311" d="M379.341,597.318H206.72a109.789,109.789,0,0,1-98.466-61.962L35.389,387.58a1.4,1.4,0,1,1,2.509-1.238L110.77,534.132a106.981,106.981,0,0,0,95.95,60.388H377.941V542.83L189.147,515.61a1.4,1.4,0,0,1-1.185-1.583,1.38,1.38,0,0,1,1.585-1.185l189.993,27.393a1.4,1.4,0,0,1,1.2,1.384v54.3a1.4,1.4,0,0,1-1.4,1.4" transform="translate(-4.223 -46.196)" fill="#191919"/>
    <path id="Path_51312" data-name="Path 51312" d="M206.682,509.878a1.4,1.4,0,0,1-1.232-.734l-97.1-179.833a1.4,1.4,0,1,1,2.462-1.329l97.1,179.832a1.4,1.4,0,0,1-1.23,2.064" transform="translate(-12.962 -39.209)" fill="#191919"/>
    <path id="Path_51313" data-name="Path 51313" d="M529.745,615.175v11.593a4.609,4.609,0,0,1-4.61,4.609H233.5a4.609,4.609,0,0,1-4.61-4.609v-6.984a4.609,4.609,0,0,1,4.61-4.609Z" transform="translate(-27.424 -73.706)" fill="#fff"/>
    <path id="Path_51314" data-name="Path 51314" d="M524.944,632.585H233.307a6.014,6.014,0,0,1-6.007-6.007v-6.984a6.014,6.014,0,0,1,6.007-6.007H530.952v12.992a6.015,6.015,0,0,1-6.008,6.007m-291.637-16.2a3.214,3.214,0,0,0-3.209,3.209v6.984a3.214,3.214,0,0,0,3.209,3.209H524.944a3.214,3.214,0,0,0,3.21-3.209V616.384Z" transform="translate(-27.234 -73.516)" fill="#161515"/>
    <path id="Path_51315" data-name="Path 51315" d="M575.748,442.753l-15.54,68.978L542.087,592.12H321.424l34.434-152.854a7.863,7.863,0,0,1,7.659-6.137H568.088a7.875,7.875,0,0,1,7.659,9.624" transform="translate(-38.511 -51.895)" fill="#8069ad"/>
    <path id="Path_51316" data-name="Path 51316" d="M494.118,433.129,345.369,592.12H333.913l92.993-158.991Z" transform="translate(-40.007 -51.895)" fill="#7153a2"/>
    <path id="Path_51317" data-name="Path 51317" d="M507.047,499.37,540.4,433.129h31.057Z" transform="translate(-60.751 -51.895)" fill="#7153a2"/>
    <path id="Path_51318" data-name="Path 51318" d="M591.862,442.753l-15.54,68.978L487.1,592.12H455.915L582.878,433.129H584.2a7.875,7.875,0,0,1,7.659,9.624" transform="translate(-54.625 -51.895)" fill="#7153a2"/>
    <path id="Path_51319" data-name="Path 51319" d="M487.746,522.854c-2.738,9.767-11.572,16.689-19.743,15.455s-12.563-10.156-9.825-19.923,11.565-16.666,19.736-15.431,12.569,10.132,9.831,19.9" transform="translate(-54.798 -60.243)" fill="#fff"/>
    <path id="Path_51320" data-name="Path 51320" d="M487.913,524.238c-2.737,9.756-11.567,16.688-19.733,15.451a12,12,0,0,1-9.381-7.615,13.375,13.375,0,0,0,5.783,2.318c9.6,1.457,19.976-6.689,23.2-18.144.177-.662.332-1.3.464-1.943a19.87,19.87,0,0,1-.331,9.933" transform="translate(-54.97 -61.621)" fill="#1e1238"/>
    <path id="Path_51321" data-name="Path 51321" d="M161.444,295.57c-19.487,0-40.81-17.161-42.758-45.882a1.4,1.4,0,0,1,1.3-1.49,1.417,1.417,0,0,1,1.491,1.3c1.838,27.085,21.763,43.271,39.966,43.271a30.592,30.592,0,0,0,25.218-13.022,40.586,40.586,0,0,0,7-18.551l1.792-9.2a1.4,1.4,0,1,1,2.746.533l-1.779,9.12a43.209,43.209,0,0,1-7.488,19.727,33.356,33.356,0,0,1-27.494,14.192" transform="translate(-14.22 -29.737)" fill="#191919"/>
    <path id="Path_51322" data-name="Path 51322" d="M191.889,199.226l-9.143,46.719-1.094,5.564a26.3,26.3,0,0,1-4.424,12.358c-10.921,15.369-37.235,4.514-38.9-23.005l9.44-53.766Z" transform="translate(-16.574 -22.416)" fill="#f2a481"/>
    <path id="Path_51323" data-name="Path 51323" d="M408.455,292.486a60.48,60.48,0,1,1,8.6-.606,61.414,61.414,0,0,1-8.6.606m.316-117.779a58.349,58.349,0,0,0-8.2.579,57.313,57.313,0,1,0,8.2-.579" transform="translate(-41.732 -20.597)" fill="#d7ff35"/>
    <path id="Path_51324" data-name="Path 51324" d="M419.048,292.088c-7.281,0-14.73-5.275-21.19-15.084-6.88-10.447-11.9-24.888-14.125-40.661-4.728-33.459,4.3-61.465,20.544-63.763,7.941-1.121,16.205,4.183,23.285,14.927,6.878,10.438,11.894,24.875,14.123,40.645s1.413,31.038-2.3,42.982c-3.824,12.3-10.3,19.686-18.237,20.808a15.078,15.078,0,0,1-2.1.146M406.373,175.232a12.015,12.015,0,0,0-1.7.121c-14.45,2.041-22.6,29.225-18.165,60.6,2.173,15.375,7.034,29.407,13.692,39.515,6.454,9.8,13.749,14.686,20.559,13.7,6.8-.961,12.47-7.662,15.954-18.865,3.6-11.558,4.379-26.388,2.206-41.759s-7.034-29.4-13.689-39.5c-5.917-8.978-12.546-13.814-18.853-13.814" transform="translate(-45.826 -20.66)" fill="#d7ff35"/>
    <path id="Path_51325" data-name="Path 51325" d="M389.248,210.5c-12.124,0-23.152-1.952-31.613-5.723a1.4,1.4,0,0,1-.651-1.963,60.328,60.328,0,0,1,95.1-13.438,1.4,1.4,0,0,1-.081,2.063c-10.319,8.694-26.942,15.191-45.605,17.827a122.976,122.976,0,0,1-17.145,1.233m-29.042-7.671c11.789,4.792,28.361,6.134,45.8,3.666s32.988-8.342,42.986-16.212a57.533,57.533,0,0,0-88.782,12.546" transform="translate(-42.75 -20.597)" fill="#d7ff35"/>
    <path id="Path_51326" data-name="Path 51326" d="M410.83,303.648a59.881,59.881,0,0,1-42.283-17.462,1.4,1.4,0,0,1,.082-2.064c10.316-8.689,26.938-15.189,45.605-17.827s36.441-1,48.758,4.49a1.4,1.4,0,0,1,.651,1.964,59.935,59.935,0,0,1-44.217,30.294,61.411,61.411,0,0,1-8.6.606m-39.191-18.369a57.531,57.531,0,0,0,88.782-12.546c-11.783-4.789-28.35-6.127-45.8-3.666s-32.989,8.344-42.986,16.212" transform="translate(-44.107 -31.758)" fill="#d7ff35"/>
    <path id="Path_51327" data-name="Path 51327" d="M423.751,291.974a1.4,1.4,0,0,1-1.383-1.2l-16.477-116.59a1.4,1.4,0,1,1,2.769-.393l16.478,116.59a1.4,1.4,0,0,1-1.189,1.583,1.509,1.509,0,0,1-.2.013" transform="translate(-48.629 -20.678)" fill="#d7ff35"/>
    <path id="Path_51328" data-name="Path 51328" d="M350.4,248.731a1.4,1.4,0,0,1-.194-2.785L466.8,229.469a1.4,1.4,0,0,1,.393,2.772L350.6,248.717a1.505,1.505,0,0,1-.2.013" transform="translate(-41.816 -27.492)" fill="#d7ff35"/>
    <path id="Path_51329" data-name="Path 51329" d="M326.337,138.746a2.79,2.79,0,0,1-2.222-1.2,4.517,4.517,0,0,1-.9-2.831q0-2.965.213-8.9t.213-8.9q0-3.293-.1-9.875t-.1-9.874a5.455,5.455,0,0,1,1.19-3.247,3.266,3.266,0,0,1,2.538-1.615q.741,0,3.728,1.839,3.48,2.193,4.132,2.461a28.369,28.369,0,0,1,11.228,8.716,24.5,24.5,0,0,1,5.546,15.539,25.31,25.31,0,0,1-1.909,9.754,19.227,19.227,0,0,1-5.232,7.562q-3.727,3.2-10.487,3.2a13.667,13.667,0,0,1-3.772-.623,11.333,11.333,0,0,1-4.065-2.016m12.62-30.483a68.812,68.812,0,0,0-9.341-5.692v29.354a5.93,5.93,0,0,0,2.01,1.113,8.085,8.085,0,0,0,2.526.37q4.849,0,6.961-1.78a11.566,11.566,0,0,0,3.177-4.6,15.933,15.933,0,0,0,1.179-6.049q0-7.351-6.513-12.72" transform="translate(-38.726 -11.06)" fill="#fff"/>
    <path id="Path_51330" data-name="Path 51330" d="M368.947,142.292a8.878,8.878,0,0,1-7.141-3.765q-3.278-4.122-3.436-11a22.365,22.365,0,0,1,2.717-11.684q3.414-6.047,9.5-6.049,4.49,0,7.14,4.746a21.478,21.478,0,0,1,2.381,10.585,23.26,23.26,0,0,1-2.784,11.741q-3.121,5.428-8.376,5.426m1.347-24.67q-2.761-.029-4.356,3.321a15.117,15.117,0,0,0-1.348,6.584,8.516,8.516,0,0,0,1.527,5.455,3.562,3.562,0,0,0,2.83,1.513,4.283,4.283,0,0,0,3.39-1.749,9.119,9.119,0,0,0,1.752-5.546q.292-9.546-3.8-9.577" transform="translate(-42.937 -13.155)" fill="#fff"/>
    <path id="Path_51331" data-name="Path 51331" d="M393.113,114.007q3.391-5.187,6.423-5.19a5.325,5.325,0,0,1,5.075,3.469,9.334,9.334,0,0,1,3.03-2.4,8.175,8.175,0,0,1,3.594-.8q4.4,0,5.973,5.78.314,1.187.966,8.036.628,4.8,1.617,16.013a3.751,3.751,0,0,1-.876,2.787,2.936,2.936,0,0,1-2.267,1.095q-2.585,0-3.032-3.379-.4-3.052-.831-8.628-.449-6.106-.741-8.657-.606-5.309-1.549-5.308a6.445,6.445,0,0,0-2.359,1.364,17.6,17.6,0,0,0-2.694,2.341q0,3.381.607,9.726.627,6.492.628,9.726a4.445,4.445,0,0,1-.876,2.815,2.755,2.755,0,0,1-4.447,0,4.445,4.445,0,0,1-.875-2.815q0-3.381-.55-9.949t-.551-9.947a14.667,14.667,0,0,0-.247-3.025,21.808,21.808,0,0,0-5.232,6.613c-.075.137-.2.345-.382.622q-.09,5.989-.089,9.4,0,.832-.045,2.238t-.045,2.092a3.278,3.278,0,0,1-.988,2.52,3.09,3.09,0,0,1-2.223.859,2.624,2.624,0,0,1-2.582-2.194,16.986,16.986,0,0,1-.471-4.713V123.466q0-1.483-.09-4.344t-.09-4.344a14.916,14.916,0,0,1,.718-4.775q.875-2.668,2.47-2.669a2.819,2.819,0,0,1,2.245,1.289,4.56,4.56,0,0,1,.988,2.833,15.045,15.045,0,0,0-.2,2.549" transform="translate(-46.355 -12.86)" fill="#fff"/>
    <path id="Path_51332" data-name="Path 51332" d="M447.181,142.146q-1.032,0-3.278-2.639a26.289,26.289,0,0,1-3.639,1.972,7.112,7.112,0,0,1-2.671.667q-5.412,0-8.118-3.826t-2.707-11.444a19.2,19.2,0,0,1,4-12.231q4-5.086,9.567-5.084a10.358,10.358,0,0,1,4.941,1.584q3.39,1.909,3.39,4.434a3.315,3.315,0,0,1-.517,1.849,25.33,25.33,0,0,0-.348,2.949q-.123,1.777-.124,4.155a37.635,37.635,0,0,0,.607,8.071q.066.265,1.032,3.053a18.841,18.841,0,0,1,.876,2.877,3.751,3.751,0,0,1-.909,2.583,2.741,2.741,0,0,1-2.1,1.028m-5.569-20.014q0-.951.1-2.179t.3-2.744a4.343,4.343,0,0,0-.8-.43,1.741,1.741,0,0,0-.6-.134q-3.054,0-5.344,3.159a12.118,12.118,0,0,0-2.291,7.308,12.972,12.972,0,0,0,1.078,5.974,3.468,3.468,0,0,0,3.234,2,5.949,5.949,0,0,0,2.639-.607,7.98,7.98,0,0,0,2.346-1.795q-.672-7.057-.673-10.554" transform="translate(-51.133 -13.127)" fill="#fff"/>
    <path id="Path_51333" data-name="Path 51333" d="M464.117,124.778q0,1.689.079,5.425t.078,5.426a4.429,4.429,0,0,1-.877,2.831,2.776,2.776,0,0,1-4.445,0,4.434,4.434,0,0,1-.877-2.831q0-1.689-.078-5.426t-.078-5.425q0-2.639.224-6.613t.224-6.613a4.435,4.435,0,0,1,.876-2.831,2.776,2.776,0,0,1,4.446,0,4.43,4.43,0,0,1,.877,2.831q0,2.639-.225,6.613t-.224,6.613m-1.908-21.736a3.154,3.154,0,0,1-2.494-1.275,5.122,5.122,0,0,1,0-6.226,3.154,3.154,0,0,1,2.494-1.275,3.121,3.121,0,0,1,2.481,1.275,5.163,5.163,0,0,1,0,6.226,3.121,3.121,0,0,1-2.481,1.275" transform="translate(-54.865 -11.294)" fill="#fff"/>
    <path id="Path_51334" data-name="Path 51334" d="M489.21,142.427q-2.761,0-3.076-3.588-.314-3.052-.63-6.138a60.132,60.132,0,0,1-.336-6.138q0-.771.078-2.639c.053-1.244.079-2.125.079-2.638,0-.138.015-.49.045-1.052s.044-1.023.044-1.379q0-2.462-.9-2.462-1.924,0-3.775,3.266a28.755,28.755,0,0,0-2.895,8.278q-.042,1-.189,2.671c-.083.915-.125,1.8-.125,2.674q0,.853-.144,2.568t-.148,2.567a4.533,4.533,0,0,1-.886,2.87,2.754,2.754,0,0,1-4.457.006,4.527,4.527,0,0,1-.875-2.853q0-.846-.136-2.551t-.135-2.553q0-2.9.315-8.063t.313-8.062q0-.906-.078-2.7t-.078-2.674a4.242,4.242,0,0,1,.909-2.791,2.8,2.8,0,0,1,2.235-1.1q2.942,0,3.144,4.657l.022.326q3.278-4.358,6.916-4.36,4.245,0,5.861,4.685a30.858,30.858,0,0,1,1.077,9.4v2.105q-.023,1.364-.023,1.928a47.063,47.063,0,0,0,.483,5.959,47.152,47.152,0,0,1,.484,5.931,4.207,4.207,0,0,1-.9,2.757,2.765,2.765,0,0,1-2.222,1.1" transform="translate(-56.402 -12.933)" fill="#fff"/>
    <path id="Path_51335" data-name="Path 51335" d="M184.608,250.384l-1.094,5.564A26.3,26.3,0,0,1,179.09,268.3a57.111,57.111,0,0,1-11.9-10.443,56.229,56.229,0,0,1-13.316-33.723,52,52,0,0,0,30.736,26.245" transform="translate(-18.436 -26.855)" fill="#dc8762"/>
    <path id="Path_51336" data-name="Path 51336" d="M151.61,217.566c6.944,9.833,16.339,18.427,27.854,21.933s25.289,1.031,33.176-8.063c4.706-5.426,6.932-12.522,8.852-19.443a360.786,360.786,0,0,0,11.882-60.627c-6.529,2.712-28.846,6.037-40.193,2-6.541-2.328-12.847-6.086-16.384-12.06a45.777,45.777,0,0,1-2.749,15.823c-1.7,4.753-5.7,9.037-10.725,9.519-.534-3.815-2.642-7.675-6.124-9.321-2.64-1.248-5.945-.333-8.079,1.66a14.028,14.028,0,0,0-3.809,7.726,19.337,19.337,0,0,0,.911,11.138,13.22,13.22,0,0,0,7.972,7.558" transform="translate(-17.361 -16.93)" fill="#f2a481"/>
    <path id="Path_51337" data-name="Path 51337" d="M212.029,219.436c-.207,0-.413-.009-.622-.026a6.84,6.84,0,0,1-4.889-2.564,1.68,1.68,0,0,1,2.664-2.046,3.737,3.737,0,0,0,5.181.43c2-1.862,1.293-5.38,1.03-6.414-.271-1.062-.65-2.1-1.05-3.207a26.121,26.121,0,0,1-1.486-5.2c-.72-4.955,1.278-9.8,2.883-13.7a1.679,1.679,0,0,1,3.1,1.281c-1.524,3.7-3.252,7.89-2.664,11.936a23.339,23.339,0,0,0,1.319,4.529c.411,1.133.836,2.3,1.148,3.524,1.014,3.968.268,7.594-1.993,9.7a6.766,6.766,0,0,1-4.624,1.749" transform="translate(-24.702 -22.246)" fill="#191919"/>
    <path id="Path_51338" data-name="Path 51338" d="M202.784,194.933c-.979,3.568-2.941,6.059-4.443,5.647-1.44-.4-1.919-3.556-.94-7.124.962-3.506,3-6.042,4.443-5.647,1.5.412,1.9,3.618.94,7.124" transform="translate(-23.59 -22.497)" fill="#191919"/>
    <path id="Path_51339" data-name="Path 51339" d="M232.653,194.544c-.979,3.568-2.941,6.059-4.443,5.647-1.44-.4-1.919-3.556-.94-7.124.962-3.506,3-6.042,4.443-5.647,1.5.412,1.9,3.618.94,7.124" transform="translate(-27.168 -22.45)" fill="#191919"/>
    <path id="Path_51340" data-name="Path 51340" d="M190.769,180.57a1.679,1.679,0,0,1-.547-3.266,28.781,28.781,0,0,1,15.293-.932,1.68,1.68,0,0,1-.688,3.288,25.347,25.347,0,0,0-13.51.818,1.654,1.654,0,0,1-.547.092" transform="translate(-22.655 -21.057)" fill="#191919"/>
    <path id="Path_51341" data-name="Path 51341" d="M238.9,184.394a1.669,1.669,0,0,1-.995-.328,21.482,21.482,0,0,0-11.543-4.446,1.678,1.678,0,1,1,.321-3.34,24.888,24.888,0,0,1,13.213,5.085,1.679,1.679,0,0,1-1,3.03" transform="translate(-26.94 -21.12)" fill="#191919"/>
    <path id="Path_51342" data-name="Path 51342" d="M205.3,237.867a17.842,17.842,0,0,1-16.281-10.358,1.679,1.679,0,1,1,3.047-1.412,14.543,14.543,0,0,0,17.261,7.848,1.68,1.68,0,0,1,.938,3.227,17.864,17.864,0,0,1-4.966.7" transform="translate(-22.628 -26.973)" fill="#191919"/>
    <path id="Path_51343" data-name="Path 51343" d="M153.362,181.725a1.681,1.681,0,0,1-1.236-.542,11.825,11.825,0,0,1-2.538-11.35,7.638,7.638,0,0,1,3.777-4.774,5.13,5.13,0,0,1,6.5,1.646A1.679,1.679,0,0,1,157,168.462a1.809,1.809,0,0,0-2.18-.378,4.427,4.427,0,0,0-2.031,2.75,8.527,8.527,0,0,0,1.8,8.076,1.68,1.68,0,0,1-1.236,2.816" transform="translate(-17.861 -19.713)" fill="#191919"/>
    <path id="Path_51344" data-name="Path 51344" d="M102.712,131.886a1.4,1.4,0,0,1-.917-.343L81.779,114.177H30.622a30.621,30.621,0,1,1,0-61.243H73.489a30.656,30.656,0,0,1,30.622,30.62v46.933a1.4,1.4,0,0,1-1.4,1.4M30.622,55.732a27.823,27.823,0,1,0,0,55.646H82.3a1.4,1.4,0,0,1,.917.343l18.094,15.7V83.554A27.854,27.854,0,0,0,73.489,55.732Z" transform="translate(0 -6.342)" fill="#d7ff00"/>
    <path id="Path_51345" data-name="Path 51345" d="M80.849,88.085a2.831,2.831,0,1,0,5.662,0,2.831,2.831,0,0,0-5.662,0" transform="translate(-9.687 -10.215)" fill="#d7ff00"/>
    <path id="Path_51346" data-name="Path 51346" d="M58.834,88.085a2.831,2.831,0,1,0,5.662,0,2.831,2.831,0,0,0-5.662,0" transform="translate(-7.049 -10.215)" fill="#d7ff00"/>
    <path id="Path_51347" data-name="Path 51347" d="M36.82,88.085a2.831,2.831,0,1,0,5.662,0,2.831,2.831,0,0,0-5.662,0" transform="translate(-4.412 -10.215)" fill="#d7ff00"/>
  </g>
</svg>
