<svg xmlns="http://www.w3.org/2000/svg" width="57.977" height="42.348" viewBox="0 0 57.977 42.348">
  <g id="Layer_x0020_1" transform="translate(0.012 -69)">
    <g id="_583715416" transform="translate(-0.012 69)">
      <g id="Group_35623" data-name="Group 35623" transform="translate(0 0)">
        <g id="_583714840" transform="translate(0 2.287)">
          <path id="_638317872" d="M39.664,125.139H3.238a3.393,3.393,0,0,1-3.25-3.51V89.879a.679.679,0,1,1,1.359,0v31.75a2.035,2.035,0,0,0,1.891,2.151H39.676a.681.681,0,0,1,.679.679.691.691,0,0,1-.691.679Z" transform="translate(0.012 -89.2)" fill="#d7ff00" fill-rule="evenodd"/>
        </g>
        <g id="_583714792" transform="translate(46.153 2.287)">
          <path id="_638317752" d="M408.266,102.312a.681.681,0,0,1-.679-.679V89.879a.679.679,0,1,1,1.359,0v11.753A.674.674,0,0,1,408.266,102.312Z" transform="translate(-407.587 -89.2)" fill="#d7ff00" fill-rule="evenodd"/>
        </g>
        <g id="_583714576">
          <path id="_638317440" d="M9.9,77.753H.668a.681.681,0,0,1-.679-.679V69.68A.681.681,0,0,1,.668,69H9.9a.681.681,0,0,1,.679.679v7.394A.681.681,0,0,1,9.9,77.753ZM1.347,76.394h7.87V70.359H1.347Z" transform="translate(0.012 -69)" fill="#d7ff00" fill-rule="evenodd"/>
        </g>
        <g id="_583714960" transform="translate(9.228 1.359)">
          <path id="_638316648" d="M91.407,88.394h-9.24a.681.681,0,0,1-.679-.679V81.68A.681.681,0,0,1,82.167,81H91.4a.681.681,0,0,1,.679.679v6.035a.665.665,0,0,1-.668.679Zm-8.56-1.359h7.87V82.359h-7.87Z" transform="translate(-81.488 -81)" fill="#d7ff00" fill-rule="evenodd"/>
        </g>
        <g id="_583714696" transform="translate(18.468 1.359)">
          <path id="_638316600" d="M173,88.394h-9.228a.681.681,0,0,1-.679-.679V81.68a.681.681,0,0,1,.679-.679H173a.681.681,0,0,1,.679.679v6.035A.681.681,0,0,1,173,88.394Zm-8.549-1.359h7.87V82.359h-7.87Z" transform="translate(-163.088 -81)" fill="#d7ff00" fill-rule="evenodd"/>
        </g>
        <g id="_583715032" transform="translate(27.696 1.359)">
          <path id="_638316720" d="M254.5,88.394h-9.228a.681.681,0,0,1-.679-.679V81.68a.681.681,0,0,1,.679-.679H254.5a.681.681,0,0,1,.679.679v6.035A.681.681,0,0,1,254.5,88.394Zm-8.549-1.359h7.87V82.359h-7.87Z" transform="translate(-244.588 -81)" fill="#d7ff00" fill-rule="evenodd"/>
        </g>
        <g id="_583715728" transform="translate(36.925 1.359)">
          <path id="_638316096" d="M335.995,88.394h-9.228a.681.681,0,0,1-.679-.679V81.68a.681.681,0,0,1,.679-.679h9.228a.681.681,0,0,1,.679.679v6.035A.674.674,0,0,1,335.995,88.394Zm-8.549-1.359h7.87V82.359h-7.87Z" transform="translate(-326.087 -81)" fill="#d7ff00" fill-rule="evenodd"/>
        </g>
        <g id="_583715512" transform="translate(1.902 2.344)">
          <path id="_638315880" d="M22.9,92.9H17.468a.681.681,0,0,1-.679-.679V90.379a.681.681,0,0,1,.679-.679H22.9a.681.681,0,0,1,.679.679v1.846a.681.681,0,0,1-.679.679Zm-4.767-1.359h4.076v-.487H18.136Z" transform="translate(-16.788 -89.7)" fill="#d7ff00" fill-rule="evenodd"/>
        </g>
        <g id="_583715056" transform="translate(11.131 3.453)">
          <path id="_638316504" d="M104.4,102.7H98.967a.681.681,0,0,1-.679-.679v-1.846a.681.681,0,0,1,.679-.679H104.4a.681.681,0,0,1,.679.679v1.846A.681.681,0,0,1,104.4,102.7Zm-4.756-1.359h4.076v-.487H99.647Z" transform="translate(-98.288 -99.5)" fill="#d7ff00" fill-rule="evenodd"/>
        </g>
        <g id="_583715080" transform="translate(20.359 3.453)">
          <path id="_638315256" d="M185.9,102.7h-5.435a.681.681,0,0,1-.679-.679v-1.846a.681.681,0,0,1,.679-.679H185.9a.681.681,0,0,1,.679.679v1.846A.674.674,0,0,1,185.9,102.7Zm-4.756-1.359h4.076v-.487h-4.076Z" transform="translate(-179.788 -99.5)" fill="#d7ff00" fill-rule="evenodd"/>
        </g>
        <g id="_583715968" transform="translate(29.599 3.453)">
          <path id="_638315616" d="M267.5,102.7h-5.435a.681.681,0,0,1-.679-.679v-1.846a.681.681,0,0,1,.679-.679H267.5a.681.681,0,0,1,.679.679v1.846A.681.681,0,0,1,267.5,102.7Zm-4.767-1.359h4.076v-.487h-4.076Z" transform="translate(-261.387 -99.5)" fill="#d7ff00" fill-rule="evenodd"/>
        </g>
        <g id="_583716304" transform="translate(38.827 3.453)">
          <path id="_638315184" d="M349,102.7h-5.435a.681.681,0,0,1-.679-.679v-1.846a.681.681,0,0,1,.679-.679H349a.681.681,0,0,1,.679.679v1.846A.681.681,0,0,1,349,102.7Zm-4.756-1.359h4.076v-.487h-4.076Z" transform="translate(-342.887 -99.5)" fill="#d7ff00" fill-rule="evenodd"/>
        </g>
        <g id="_583716040" transform="translate(12.07 11.584)">
          <path id="_638314416" d="M118.273,194.671a11.685,11.685,0,1,1,11.685-11.685,11.7,11.7,0,0,1-11.685,11.685Zm0-22.023A10.327,10.327,0,1,0,128.6,182.974,10.337,10.337,0,0,0,118.273,172.647Z" transform="translate(-106.588 -171.3)" fill="#d7ff00" fill-rule="evenodd"/>
        </g>
        <g id="_583716376" transform="translate(18.14 11.584)">
          <path id="_638314800" d="M165.8,194.673c-1.6,0-3.057-1.291-4.11-3.623a22.331,22.331,0,0,1,0-16.124c1.053-2.344,2.5-3.623,4.11-3.623s3.057,1.291,4.11,3.623a22.333,22.333,0,0,1,0,16.124C168.872,193.382,167.412,194.673,165.8,194.673Zm0-22.023c-1.019,0-2.061,1.03-2.865,2.819a21.09,21.09,0,0,0,0,15.014c.8,1.789,1.846,2.819,2.865,2.819s2.061-1.03,2.865-2.819a21.09,21.09,0,0,0,0-15.014c-.793-1.789-1.846-2.819-2.865-2.819Z" transform="translate(-160.188 -171.302)" fill="#d7ff00" fill-rule="evenodd"/>
        </g>
        <g id="_583715824" transform="translate(12.071 17.641)">
          <path id="_638314920" d="M118.274,236.032a20.2,20.2,0,0,1-8.062-1.506c-2.344-1.053-3.623-2.5-3.623-4.11s1.291-3.057,3.623-4.11a22.332,22.332,0,0,1,16.124,0c2.344,1.053,3.623,2.5,3.623,4.11s-1.291,3.057-3.623,4.11a20.2,20.2,0,0,1-8.062,1.506Zm0-9.874a18.909,18.909,0,0,0-7.507,1.381c-1.789.8-2.819,1.846-2.819,2.865s1.03,2.061,2.819,2.865a21.09,21.09,0,0,0,15.014,0c1.789-.8,2.819-1.846,2.819-2.865s-1.03-2.061-2.819-2.865A19.067,19.067,0,0,0,118.274,226.158Z" transform="translate(-106.589 -224.799)" fill="#d7ff00" fill-rule="evenodd"/>
        </g>
        <g id="_583717024" transform="translate(23.077 11.572)">
          <path id="_638313840" d="M204.467,194.582a.681.681,0,0,1-.679-.679V171.879a.679.679,0,1,1,1.359,0V193.9A.681.681,0,0,1,204.467,194.582Z" transform="translate(-203.788 -171.2)" fill="#d7ff00" fill-rule="evenodd"/>
        </g>
        <g id="_583716952" transform="translate(35.688 14.041)">
          <path id="_638313864" d="M326.307,221.309a.713.713,0,0,1-.215-.034c-5.843-1.948-8.5-5.05-9.7-7.3a9.534,9.534,0,0,1-1.223-4.586V198.21a.676.676,0,0,1,.26-.532.73.73,0,0,1,.589-.125c5.1,1.325,9.715-4.246,9.76-4.3a.666.666,0,0,1,.532-.249.7.7,0,0,1,.532.249c.045.057,4.665,5.628,9.761,4.3a.681.681,0,0,1,.849.657v11.164a9.534,9.534,0,0,1-1.223,4.586c-1.2,2.253-3.861,5.356-9.7,7.3A.459.459,0,0,1,326.307,221.309Zm-9.772-22.273v10.395a8.362,8.362,0,0,0,1.1,3.974c1.54,2.842,4.541,5.084,8.673,6.511,4.144-1.427,7.134-3.669,8.673-6.511a8.338,8.338,0,0,0,1.1-3.974V199.048a7.687,7.687,0,0,1-1.121.079c-4.042,0-7.394-3.08-8.651-4.416C324.937,196.161,321.075,199.693,316.535,199.037Z" transform="translate(-315.162 -193.001)" fill="#d7ff00" fill-rule="evenodd"/>
        </g>
        <g id="_583717216" transform="translate(37.488 16.351)">
          <path id="_638313528" d="M340.407,237.089a.713.713,0,0,1-.215-.034c-4.88-1.631-7.1-4.224-8.107-6.115a8.038,8.038,0,0,1-1.019-3.861v-9.251a.676.676,0,0,1,.26-.532.73.73,0,0,1,.589-.125c4.144,1.076,7.926-3.476,7.971-3.521a.66.66,0,0,1,.521-.249.7.7,0,0,1,.532.249c.034.045,3.816,4.6,7.96,3.521a.681.681,0,0,1,.849.657v9.251a8.037,8.037,0,0,1-1.019,3.861c-1.008,1.891-3.227,4.484-8.107,6.115A.656.656,0,0,1,340.407,237.089Zm-7.983-18.434v8.492a6.856,6.856,0,0,0,.906,3.238c1.257,2.31,3.7,4.144,7.077,5.311,3.374-1.166,5.82-3,7.077-5.311a6.883,6.883,0,0,0,.906-3.25v-8.481a6.56,6.56,0,0,1-.815.045c-3.306,0-6.058-2.446-7.168-3.612-1.11,1.155-3.861,3.612-7.168,3.612A6.835,6.835,0,0,1,332.424,218.655Z" transform="translate(-331.063 -213.402)" fill="#d7ff00" fill-rule="evenodd"/>
        </g>
        <g id="_583717336" transform="translate(41.477 26.734)">
          <path id="_638313192" d="M373.047,314.123h-2.8a3.846,3.846,0,0,1-3.963-3.7v-4.642a.681.681,0,0,1,.679-.679h9.364a.681.681,0,0,1,.679.679v4.642A3.846,3.846,0,0,1,373.047,314.123Zm-5.4-7.677v3.963a2.487,2.487,0,0,0,2.6,2.344h2.8a2.487,2.487,0,0,0,2.6-2.344v-3.963h-8.005Z" transform="translate(-366.287 -305.098)" fill="#d7ff00" fill-rule="evenodd"/>
        </g>
        <g id="_583716760" transform="translate(42.36 20.959)">
          <path id="_638313168" d="M382.375,261.221a.681.681,0,0,1-.679-.679V258.4a3.131,3.131,0,0,0-6.25,0v2.14a.679.679,0,0,1-1.359,0V258.4a4.488,4.488,0,0,1,8.968,0v2.14a.681.681,0,0,1-.679.679Z" transform="translate(-374.087 -254.099)" fill="#d7ff00" fill-rule="evenodd"/>
        </g>
        <g id="_583716736" transform="translate(44.228 22.725)">
          <path id="_638312952" d="M395.118,275.054a.681.681,0,0,1-.679-.679v-1.812a1.389,1.389,0,0,0-1.245-1.506,1.4,1.4,0,0,0-1.246,1.506v1.812a.679.679,0,1,1-1.359,0v-1.812a2.616,2.616,0,1,1,5.209,0v1.812A.681.681,0,0,1,395.118,275.054Z" transform="translate(-390.589 -269.698)" fill="#d7ff00" fill-rule="evenodd"/>
        </g>
      </g>
    </g>
  </g>
</svg>
