<svg xmlns="http://www.w3.org/2000/svg" width="53.44" height="59.85" viewBox="0 0 53.44 59.85">
  <g id="Group_34335" data-name="Group 34335" transform="translate(-0.496)">
    <path id="Path_51232" data-name="Path 51232" d="M373.792,130.27a4.608,4.608,0,0,1-.8.342h0l2,16.741H375v-.037q1.1-.054,2.3-.036a4.124,4.124,0,0,0,3.9-2.605c1.863-4.854-1.567-10.328-7.406-14.406Zm0,0" transform="translate(-328.95 -115.042)" fill="#fed2a4"/>
    <path id="Path_51233" data-name="Path 51233" d="M46.8,78.632c-18.643-8.8-36.3,4.815-36.3,21.8v.7a24.558,24.558,0,0,0,16.335,23.141,10.737,10.737,0,0,0,10.607-1.759c4.5-3.924,3.451-8.461,3.451-10.393a12.856,12.856,0,0,1,7.029-11.464l2.038-18.107Zm0,0" transform="translate(-8.831 -67.004)" fill="#fed2a4"/>
    <path id="Path_51234" data-name="Path 51234" d="M337.51,240.916c0,12.266-1.57,22.911-3.507,22.911s-3.507-10.646-3.507-22.911c0-2.83.084-5.782.274-8.615a16.443,16.443,0,0,0,6.466.013h0C337.42,235.076,337.51,238.023,337.51,240.916Zm0,0" transform="translate(-291.424 -205.146)" fill="#ff637b"/>
    <path id="Path_51235" data-name="Path 51235" d="M330.141,19.948a4.676,4.676,0,1,1-9.352,0c0-2.582,4.676-9.948,4.676-9.948S330.141,17.366,330.141,19.948Zm0,0" transform="translate(-282.852 -8.831)" fill="#7c8388"/>
    <path id="Path_51236" data-name="Path 51236" d="M337.533,133.052h0l-2.913-.02a50.647,50.647,0,0,0-1.78,11.6,16.444,16.444,0,0,0,6.466.013,50.866,50.866,0,0,0-1.773-11.6Zm0,0" transform="translate(-293.494 -117.481)" fill="#f2f2fc"/>
    <path id="Path_51237" data-name="Path 51237" d="M207.51,129.507A3.507,3.507,0,1,1,204,126,3.507,3.507,0,0,1,207.51,129.507Zm0,0" transform="translate(-176.621 -111.271)" fill="#ff637b"/>
    <path id="Path_51238" data-name="Path 51238" d="M157.51,379.507A3.507,3.507,0,1,1,154,376,3.507,3.507,0,0,1,157.51,379.507Zm0,0" transform="translate(-132.466 -332.047)" fill="#c3ea21"/>
    <path id="Path_51239" data-name="Path 51239" d="M97.51,179.507A3.507,3.507,0,1,1,94,176,3.507,3.507,0,0,1,97.51,179.507Zm0,0" transform="translate(-79.479 -155.426)" fill="#6aa9ff"/>
    <path id="Path_51240" data-name="Path 51240" d="M67.51,299.507A3.507,3.507,0,1,1,64,296,3.507,3.507,0,0,1,67.51,299.507Zm0,0" transform="translate(-52.986 -261.399)" fill="#ffda2d"/>
    <path id="Path_51241" data-name="Path 51241" d="M85.172,166a4.676,4.676,0,1,0,4.676,4.676A4.681,4.681,0,0,0,85.172,166Zm0,7.014a2.338,2.338,0,1,1,2.338-2.338A2.341,2.341,0,0,1,85.172,173.014Zm0,0" transform="translate(-70.648 -146.595)"/>
    <path id="Path_51242" data-name="Path 51242" d="M199.848,120.676a4.676,4.676,0,1,0-4.676,4.676A4.681,4.681,0,0,0,199.848,120.676Zm-7.014,0a2.338,2.338,0,1,1,2.338,2.338A2.341,2.341,0,0,1,192.834,120.676Zm0,0" transform="translate(-167.79 -102.44)"/>
    <path id="Path_51243" data-name="Path 51243" d="M50.5,290.676A4.676,4.676,0,1,0,55.172,286a4.681,4.681,0,0,0-4.676,4.676Zm4.676-2.338a2.338,2.338,0,1,1-2.338,2.338A2.34,2.34,0,0,1,55.172,288.338Zm0,0" transform="translate(-44.155 -252.568)"/>
    <path id="Path_51244" data-name="Path 51244" d="M140.5,370.676A4.676,4.676,0,1,0,145.172,366,4.681,4.681,0,0,0,140.5,370.676Zm7.014,0a2.338,2.338,0,1,1-2.338-2.338A2.34,2.34,0,0,1,147.51,370.676Zm0,0" transform="translate(-123.635 -323.216)"/>
    <path id="Path_51245" data-name="Path 51245" d="M49.653,11.117c0-2.781-4.047-9.3-4.858-10.574a1.169,1.169,0,0,0-1.974,0c-.709,1.116-3.887,6.231-4.679,9.359a26.426,26.426,0,0,0-21.73.269A25.97,25.97,0,0,0,2.423,27.361a1.169,1.169,0,1,0,2.271.556A23.744,23.744,0,0,1,17.418,12.281c6.377-3.039,13.7-2.979,20.7.153A5.859,5.859,0,0,0,40.9,16.188a59.263,59.263,0,0,0-1.529,10.889c-.124,1.86-.207,3.835-.248,5.88a13.95,13.95,0,0,0-7,13.182c.139,2.187.348,5.493-3.1,8.495a9.512,9.512,0,0,1-9.448,1.539A23.5,23.5,0,0,1,4.18,36.8a1.169,1.169,0,1,0-2.323.264A25.74,25.74,0,0,0,18.8,58.375,11.848,11.848,0,0,0,30.571,56.4c4.313-3.76,4.039-8.083,3.892-10.405A11.617,11.617,0,0,1,39.1,35.765v0c0,5.537.424,16.386,2.209,21.445.254.721.929,2.635,2.467,2.635s2.214-1.915,2.468-2.635c1.774-5.027,2.208-15.8,2.208-21.445,0-.8-.007-1.592-.02-2.362q.541-.008,1.1,0a5.283,5.283,0,0,0,5.009-3.355c2.148-5.6-1.845-11.171-6.555-14.843a5.841,5.841,0,0,0,1.673-4.093ZM43.808,3.41c1.686,2.855,3.507,6.421,3.507,7.707a3.507,3.507,0,1,1-7.014,0C40.3,9.831,42.121,6.265,43.808,3.41Zm0,13.552a5.859,5.859,0,0,0,.615-.033,55.186,55.186,0,0,1,1.342,9.258,15.458,15.458,0,0,1-3.982-.009,55.042,55.042,0,0,1,1.344-9.256,5.83,5.83,0,0,0,.681.04Zm-.034,40.12c-1.889-4.04-2.338-16.207-2.338-21.312,0-.653.015-2.091.016-2.095.027-1.78.087-3.509.178-5.159a17.654,17.654,0,0,0,4.29.008c.068,1.245.118,2.524.15,3.819.028,1.1.042,2.25.042,3.427,0,5.264-.475,17.328-2.338,21.311Zm8.579-27.867a2.936,2.936,0,0,1-2.79,1.856c-.4-.006-.8-.006-1.192,0-.045-1.355-.111-2.689-.2-3.98,0-.008,0-.016,0-.023a67.148,67.148,0,0,0-1.237-9.7c4.731,3.829,6.795,8.262,5.417,11.852Zm0,0" transform="translate(-1.195 0)"/>
    <path id="Path_51246" data-name="Path 51246" d="M2.834,267.169A1.169,1.169,0,1,1,1.665,266,1.169,1.169,0,0,1,2.834,267.169Zm0,0" transform="translate(0 -234.906)"/>
  </g>
</svg>
