<svg xmlns="http://www.w3.org/2000/svg" width="60" height="60" viewBox="0 0 60 60">
  <g id="Fill_Outline" data-name="Fill Outline" transform="translate(-2 -2)">
    <g id="Color">
      <path id="Path_51036" data-name="Path 51036" d="M35,40V34H31.638a12.883,12.883,0,0,0-1.582-3.813l2.379-2.379-4.243-4.243-2.379,2.379A12.883,12.883,0,0,0,22,24.362V21H16v3.362a12.883,12.883,0,0,0-3.813,1.582L9.808,23.565,5.565,27.808l2.379,2.379A12.883,12.883,0,0,0,6.362,34H3v6H6.362a12.883,12.883,0,0,0,1.582,3.813L5.565,46.192l4.243,4.243,2.378-2.379A12.9,12.9,0,0,0,16,49.638V53h6V49.638a12.9,12.9,0,0,0,3.814-1.582l2.378,2.379,4.243-4.243-2.379-2.379A12.883,12.883,0,0,0,31.638,40ZM19,44a7,7,0,1,1,7-7,7,7,0,0,1-7,7Z" fill="#93999a"/>
      <path id="Path_51037" data-name="Path 51037" d="M35,40V34H31.64a13.223,13.223,0,0,0-1.58-3.81l2.38-2.38-4.25-4.25-2.38,2.38A13.223,13.223,0,0,0,22,24.36V21H16v3.36a12.589,12.589,0,0,0-2.5.89v7.43a7,7,0,1,1-1.44,5.2,15.906,15.906,0,0,1-5.37-5.01A11.22,11.22,0,0,0,6.36,34H3v6H6.36a13.223,13.223,0,0,0,1.58,3.81L5.56,46.19l4.25,4.24,2.38-2.37A13.223,13.223,0,0,0,16,49.64V53h6V49.64a13.223,13.223,0,0,0,3.81-1.58l2.38,2.37,4.25-4.24-2.38-2.38A13.223,13.223,0,0,0,31.64,40Z" fill="#656b76"/>
      <path id="Path_51038" data-name="Path 51038" d="M60,31V21H55.281a17.9,17.9,0,0,0-1.52-3.69l3.331-3.331L50.021,6.908,46.69,10.239A17.918,17.918,0,0,0,43,8.719V4H33V8.719a17.918,17.918,0,0,0-3.69,1.52L25.979,6.908l-7.071,7.071,3.331,3.331A17.9,17.9,0,0,0,20.719,21H16V31h4.719a17.918,17.918,0,0,0,1.52,3.69l-3.331,3.331,7.071,7.071,3.331-3.331A17.918,17.918,0,0,0,33,43.281V48H43V43.281a17.918,17.918,0,0,0,3.69-1.52l3.331,3.331,7.071-7.071L53.761,34.69A17.918,17.918,0,0,0,55.281,31Zm-11.8-.87a10.958,10.958,0,0,1-7.59,6.55A10.723,10.723,0,0,1,38,37,10.994,10.994,0,0,1,27,26a11.233,11.233,0,0,1,.31-2.61,11.007,11.007,0,0,1,6.57-7.59A10.84,10.84,0,0,1,38,15,11.01,11.01,0,0,1,48.2,30.13Z" fill="#e9f1f2"/>
      <path id="Path_51039" data-name="Path 51039" d="M60,31V26.83a25.9,25.9,0,0,1-11.55-4.28,10.991,10.991,0,0,1-7.84,14.13A10.723,10.723,0,0,1,38,37,10.994,10.994,0,0,1,27,26a11.233,11.233,0,0,1,.31-2.61,11.013,11.013,0,0,1,14.14-7.84A25.9,25.9,0,0,1,37.17,4H33V8.72a17.579,17.579,0,0,0-3.69,1.52L25.98,6.91l-7.07,7.07,3.33,3.33A17.579,17.579,0,0,0,20.72,21H16V31h4.72a17.579,17.579,0,0,0,1.52,3.69l-3.33,3.33,7.07,7.07,3.33-3.33A17.579,17.579,0,0,0,33,43.28V48H43V43.28a17.579,17.579,0,0,0,3.69-1.52l3.33,3.33,7.07-7.07-3.33-3.33A17.579,17.579,0,0,0,55.28,31Z" fill="#d0d8da"/>
      <path id="Path_51040" data-name="Path 51040" d="M48.2,30.13a10.958,10.958,0,0,1-7.59,6.55L27.31,23.39l-2.95-2.95,7.08-7.08,2.44,2.44Z" fill="#fcbc04"/>
      <path id="Path_51041" data-name="Path 51041" d="M48.2,30.13a10.958,10.958,0,0,1-7.59,6.55L27.31,23.39l-2.95-2.95,7.08-7.08,3.36,3.36a5.826,5.826,0,0,1-1.66,3.18l-1.66,1.66,9.13,9.12a10.843,10.843,0,0,0,5.2-2.94Z" fill="#e59730"/>
      <path id="Path_51042" data-name="Path 51042" d="M22.243,4.172,20.828,5.586l5.657,5.657a2,2,0,0,1,0,2.828l-1.414,1.414a2,2,0,0,1-2.828,0L16.586,9.828l-1.414,1.415a4,4,0,0,0,0,5.657l4.242,4.242a6,6,0,0,0,8.486,0L32.142,16.9a6,6,0,0,0,0-8.486L27.9,4.172a4,4,0,0,0-5.657,0Z" fill="#f9e109"/>
      <path id="Path_51043" data-name="Path 51043" d="M32.14,16.9,27.9,21.14a5.993,5.993,0,0,1-8.49,0L15.17,16.9a3.993,3.993,0,0,1-.63-4.83,3.57,3.57,0,0,0,.63.83l4.24,4.24a5.993,5.993,0,0,0,8.49,0l4.24-4.24a5.742,5.742,0,0,0,1.41-2.24,5.956,5.956,0,0,1-1.41,6.24Z" fill="#fcbc04"/>
      <path id="Path_51044" data-name="Path 51044" d="M54,45l-3-8H27l-4,8L10.581,47.661A2,2,0,0,0,9,49.617V56H61V48Z" fill="#f8664f"/>
      <path id="Path_51045" data-name="Path 51045" d="M61,52v4H9V49.62a2,2,0,0,1,1.58-1.96L23,45s2,7,12,7h7.81a6,6,0,0,1,7.77-2.42A22.371,22.371,0,0,0,60.24,52Z" fill="#cc5144"/>
      <circle id="Ellipse_35" data-name="Ellipse 35" cx="6" cy="6" r="6" transform="translate(18 49)" fill="#464a51"/>
      <circle id="Ellipse_36" data-name="Ellipse 36" cx="4" cy="4" r="4" transform="translate(20 51)" fill="#656b76"/>
      <circle id="Ellipse_37" data-name="Ellipse 37" cx="2" cy="2" r="2" transform="translate(22 53)" fill="#e9f1f2"/>
      <circle id="Ellipse_38" data-name="Ellipse 38" cx="6" cy="6" r="6" transform="translate(44 49)" fill="#464a51"/>
      <circle id="Ellipse_39" data-name="Ellipse 39" cx="4" cy="4" r="4" transform="translate(46 51)" fill="#656b76"/>
      <circle id="Ellipse_40" data-name="Ellipse 40" cx="2" cy="2" r="2" transform="translate(48 53)" fill="#e9f1f2"/>
      <path id="Path_51046" data-name="Path 51046" d="M13,47.14V50a2.006,2.006,0,0,1-2,2H9V49.616a2,2,0,0,1,1.58-1.956Z" fill="#f9e109"/>
      <path id="Path_51047" data-name="Path 51047" d="M27,37l-4,8H39V37Z" fill="#84d2f4"/>
      <path id="Path_51048" data-name="Path 51048" d="M51,37H39v8H54Z" fill="#84d2f4"/>
      <path id="Path_51049" data-name="Path 51049" d="M27,37l-4,8H39Z" fill="#57b7eb"/>
      <path id="Path_51050" data-name="Path 51050" d="M39,37v8H54Z" fill="#57b7eb"/>
      <path id="Path_51051" data-name="Path 51051" d="M12.74,50.98A2,2,0,0,1,11,52H9V49.62a1.984,1.984,0,0,1,1-1.73V48a2.979,2.979,0,0,0,2.74,2.98Z" fill="#fcbc04"/>
      <g id="Group_34239" data-name="Group 34239">
        <path id="Path_51052" data-name="Path 51052" d="M25.82,55.82a2,2,0,1,1-2.64-2.64A1.891,1.891,0,0,0,23,54a2.006,2.006,0,0,0,2,2,1.891,1.891,0,0,0,.82-.18Z" fill="#d0d8da"/>
        <path id="Path_51053" data-name="Path 51053" d="M51.82,55.82a2,2,0,1,1-2.64-2.64A1.891,1.891,0,0,0,49,54a2.006,2.006,0,0,0,2,2,1.891,1.891,0,0,0,.82-.18Z" fill="#d0d8da"/>
      </g>
    </g>
    <g id="Outline_copy" data-name="Outline copy">
      <path id="Path_51054" data-name="Path 51054" d="M33,5h9V8.719a1,1,0,0,0,.723.961,16.93,16.93,0,0,1,3.483,1.434,1,1,0,0,0,1.19-.168l2.625-2.624,5.657,5.657L53.054,16.6a1,1,0,0,0-.168,1.19,16.93,16.93,0,0,1,1.434,3.483,1,1,0,0,0,.961.723H60a1,1,0,0,0,0-2H56.019a19.027,19.027,0,0,0-1.031-2.5l2.811-2.81a1,1,0,0,0,0-1.415L50.728,6.2a1,1,0,0,0-1.415,0L46.5,9.012A19.028,19.028,0,0,0,44,7.981V4a1,1,0,0,0-1-1H33a1,1,0,1,0,0,2Z" fill="#323232"/>
      <path id="Path_51055" data-name="Path 51055" d="M41.293,31.707a1,1,0,1,0,1.414-1.414l-9.15-9.15a1,1,0,1,0-1.414,1.414Z" fill="#323232"/>
      <path id="Path_51056" data-name="Path 51056" d="M27,55a3,3,0,1,0-3,3A3,3,0,0,0,27,55Zm-4,0a1,1,0,1,1,1,1A1,1,0,0,1,23,55Z" fill="#323232"/>
      <path id="Path_51057" data-name="Path 51057" d="M61.394,47.081l-6.608-2.832L54.1,42.424l3.7-3.7a1,1,0,0,0,0-1.415L54.988,34.5A19.028,19.028,0,0,0,56.019,32H60a1,1,0,0,0,1-1V25a1,1,0,0,0-2,0v5H55.281a1,1,0,0,0-.961.723,16.93,16.93,0,0,1-1.434,3.483,1,1,0,0,0,.168,1.19l2.624,2.625-2.347,2.346-1.394-3.719A1,1,0,0,0,51,36H44.627a12,12,0,0,0-9.976-21.524,7,7,0,0,0-1.8-6.769L28.606,3.465a5,5,0,0,0-7.071,0L20.121,4.879a1,1,0,0,0,0,1.414L22,8.172a1,1,0,1,0,1.414-1.414L22.242,5.586l.707-.707a3.073,3.073,0,0,1,4.243,0l4.244,4.242a5.006,5.006,0,0,1,0,7.071l-4.244,4.244a5.006,5.006,0,0,1-7.071,0l-4.242-4.244a3,3,0,0,1,0-4.243l.707-.707,4.949,4.95a3,3,0,0,0,4.243,0l1.414-1.414a3,3,0,0,0,0-4.243l-.95-.949A1,1,0,1,0,24.828,11l.95.949a1,1,0,0,1,0,1.415l-1.414,1.414a1,1,0,0,1-1.415,0L17.293,9.121a1,1,0,0,0-1.414,0l-1.414,1.414a5,5,0,0,0,0,7.071L16.858,20H16a1,1,0,0,0-1,1v2.625a14.245,14.245,0,0,0-2.644,1.067l-1.839-1.839a1,1,0,0,0-1.414,0L4.853,27.1a1,1,0,0,0,0,1.414l1.839,1.839A14.162,14.162,0,0,0,5.6,33H3a1,1,0,0,0-1,1v6a1,1,0,0,0,1,1H5.6a14.162,14.162,0,0,0,1.1,2.644L4.853,45.483A1,1,0,1,0,6.267,46.9l2.38-2.38a1,1,0,0,0,.146-1.23,12.189,12.189,0,0,1-1.46-3.521A1,1,0,0,0,6.36,39H4V35H6.36a1,1,0,0,0,.973-.766,12.189,12.189,0,0,1,1.46-3.521,1,1,0,0,0-.146-1.23L6.974,27.81,9.81,24.974l1.673,1.673a1,1,0,0,0,1.23.146A12.172,12.172,0,0,1,15,25.709V30.1a7.98,7.98,0,0,0-.126,13.759.987.987,0,0,0,.515.144,1,1,0,0,0,.516-1.856,6,6,0,0,1-.135-10.191A.931.931,0,0,0,16,32h3.981a19.027,19.027,0,0,0,1.031,2.5L18.2,37.313a1,1,0,0,0,0,1.415l4.545,4.544-.426.851L10.372,46.684A3.014,3.014,0,0,0,8,49.617V56a1,1,0,0,0,1,1h8.3A7,7,0,1,0,24,48a6.923,6.923,0,0,0-3.013.688,1,1,0,0,0,.864,1.8A4.951,4.951,0,0,1,24,50a5.015,5.015,0,1,1-4.508,2.849,1,1,0,0,0-1.8-.862A6.942,6.942,0,0,0,17,55H10V53h1a3,3,0,0,0,3-3V47.951L23.105,46H53.8L60,48.659V49H59a1,1,0,1,0,0,2h1v4H57a7,7,0,0,0-14,0H33.91a1,1,0,1,0,0,2H43.3a7,7,0,0,0,13.41,0H61a1,1,0,0,0,1-1V48a1,1,0,0,0-.606-.919ZM12,50a1,1,0,0,1-1,1H10V49.617a1,1,0,0,1,.791-.978L12,48.38Zm40.557-6H24.618l3-6H38v3a1,1,0,0,0,2,0V38H50.307ZM48,26a10.076,10.076,0,0,1-.262,2.253L35.755,16.262A9.974,9.974,0,0,1,48,26ZM32.85,17.606a6.938,6.938,0,0,0,.654-.768L47,30.339a9.938,9.938,0,0,1-6.1,5.211L27.838,22.5a6.939,6.939,0,0,0,.768-.654ZM20.322,38.021,22.946,35.4a1,1,0,0,0,.168-1.19,16.93,16.93,0,0,1-1.434-3.483A1,1,0,0,0,20.719,30H17V22h1.874A6.962,6.962,0,0,0,26,23.489L38.486,35.97c-.162.008-.323.03-.486.03a10.034,10.034,0,0,1-9.625-7.271,1,1,0,0,0-1.924.542A11.975,11.975,0,0,0,31.392,36H27a1,1,0,0,0-.9.553l-2.417,4.834ZM50,60a5,5,0,1,1,5-5,5,5,0,0,1-5,5Z" fill="#323232"/>
      <path id="Path_51058" data-name="Path 51058" d="M50,52a3,3,0,1,0,3,3,3,3,0,0,0-3-3Zm0,4a1,1,0,1,1,1-1A1,1,0,0,1,50,56Z" fill="#323232"/>
      <path id="Path_51059" data-name="Path 51059" d="M37,50a1,1,0,0,0,0-2H35a1,1,0,0,0,0,2Z" fill="#323232"/>
    </g>
  </g>
</svg>
