<svg xmlns="http://www.w3.org/2000/svg" width="60.001" height="60.002" viewBox="0 0 60.001 60.002">
  <g id="Group_34275" data-name="Group 34275" transform="translate(-5.008 -5)">
    <path id="Path_51114" data-name="Path 51114" d="M100.025,11h30.15l6.541,6.541V58.784H100.025Z" transform="translate(-83.66 -5.284)" fill="#cfe8ff" fill-rule="evenodd"/>
    <path id="Path_51115" data-name="Path 51115" d="M395.143,53.878l1.416,1.416V96.536h-1.416Z" transform="translate(-343.503 -43.036)" fill="#b6dbff" fill-rule="evenodd"/>
    <path id="Path_51116" data-name="Path 51116" d="M11.045,344.19h37.77v18.74H11.045Z" transform="translate(-5.315 -298.648)" fill="#2dd62d"/>
    <path id="Path_51117" data-name="Path 51117" d="M63.688,360.6a1.9,1.9,0,0,0,1.673,2.343v3.117H32.789v-3.117a1.9,1.9,0,0,0,1.673-2.343Z" transform="translate(-24.46 -313.1)" fill="#29b933" fill-rule="evenodd"/>
    <path id="Path_51118" data-name="Path 51118" d="M35.132,365.933H63.019a2.343,2.343,0,0,0,2.343,2.343v8.857a2.343,2.343,0,0,0-2.343,2.343H35.132a2.343,2.343,0,0,0-2.343-2.343v-8.857A2.343,2.343,0,0,0,35.132,365.933Z" transform="translate(-24.46 -317.792)" fill="#96ff96" fill-rule="evenodd"/>
    <circle id="Ellipse_41" data-name="Ellipse 41" cx="6.748" cy="6.748" r="6.748" transform="translate(17.385 61.177) rotate(-85.927)" fill="#29b933"/>
    <path id="Path_51119" data-name="Path 51119" d="M119.429,366.123a6.348,6.348,0,1,1-6.735,6.336A6.748,6.748,0,0,1,119.429,366.123Z" transform="translate(-94.815 -317.959)" fill="#2dd62d" fill-rule="evenodd"/>
    <path id="Path_51120" data-name="Path 51120" d="M319.724,344.19h.875v18.74h-.875Z" transform="translate(-277.099 -298.648)" fill="#29b933"/>
    <path id="Path_51121" data-name="Path 51121" d="M352.266,11l6.541,6.541h-6.541Z" transform="translate(-305.751 -5.284)" fill="#4eb1fc" fill-rule="evenodd"/>
    <path id="Path_51122" data-name="Path 51122" d="M145.557,174.511h4.349v16.347h-4.349Z" transform="translate(-123.75 -149.25)" fill="#4eb1fc"/>
    <path id="Path_51123" data-name="Path 51123" d="M81.832,238.53h4.349v8.695H81.832Z" transform="translate(-67.641 -205.617)" fill="#fdc72e"/>
    <path id="Path_51124" data-name="Path 51124" d="M209.282,185.03h4.349v15.089h-4.349Z" transform="translate(-179.858 -158.512)" fill="#2dd62d"/>
    <path id="Path_51125" data-name="Path 51125" d="M273.007,135.8h4.349V156.77h-4.349Z" transform="translate(-235.966 -115.162)" fill="#f89b00"/>
    <path id="Path_51126" data-name="Path 51126" d="M18.106,270.182h4.349v4.911H18.106Z" transform="translate(-11.532 -233.486)" fill="#fb545c"/>
    <path id="Path_51127" data-name="Path 51127" d="M298.6,135.8h1.29V156.77H298.6Z" transform="translate(-258.501 -115.162)" fill="#e68207"/>
    <path id="Path_51128" data-name="Path 51128" d="M234.875,185.03h1.29v15.089h-1.29Z" transform="translate(-202.392 -158.512)" fill="#29b933"/>
    <path id="Path_51129" data-name="Path 51129" d="M171.15,174.511h1.29v16.347h-1.29Z" transform="translate(-146.284 -149.25)" fill="#2a92fa"/>
    <path id="Path_51130" data-name="Path 51130" d="M107.424,238.53h1.29v8.695h-1.29Z" transform="translate(-90.175 -205.617)" fill="#f9ac00"/>
    <path id="Path_51131" data-name="Path 51131" d="M43.7,270.182h1.29v4.911H43.7Z" transform="translate(-34.066 -233.486)" fill="#e8333c"/>
    <g id="Group_34273" data-name="Group 34273" transform="translate(41.82 33.246)">
      <path id="Path_51132" data-name="Path 51132" d="M325.737,306.736c4.257,1.678,7.882,7.664,9.2,12.759,2.2,8.548-2.687,10.321-10.706,10.461-8.019-.14-12.91-1.913-10.706-10.461,1.314-5.1,4.939-11.081,9.2-12.759h3.021Z" transform="translate(-312.991 -298.916)" fill="#d19458" fill-rule="evenodd"/>
      <path id="Path_51133" data-name="Path 51133" d="M322.921,329.916c-7.235-.318-11.483-2.348-9.4-10.421,1.314-5.1,4.939-11.081,9.2-12.759h.412c4.257,1.678,7.882,7.664,9.2,12.759C334.4,327.569,330.156,329.6,322.921,329.916Z" transform="translate(-312.99 -298.916)" fill="#e6b17c" fill-rule="evenodd"/>
      <path id="Path_51134" data-name="Path 51134" d="M355.38,250.164l-2.182.006c-4.936-6.761-3.773-9.168-1.48-8.455a4.07,4.07,0,0,1,1.457.864c.639.526,1.148.771,1.694,0,1.187-1.685,2.25-1.685,3.438,0,.546.774,1.055.529,1.694,0a4.074,4.074,0,0,1,1.457-.864c2.293-.713,3.456,1.694-1.48,8.455l-2.182-.006c-.456,0-.832,0-1.208,0s-.752,0-1.208,0Z" transform="translate(-345.352 -241.314)" fill="#d19458" fill-rule="evenodd"/>
      <path id="Path_51135" data-name="Path 51135" d="M355.379,250.165h-.4l-1,0-.784,0c-4.933-6.757-3.769-9.164-1.477-8.45a4.071,4.071,0,0,1,1.457.864c.639.526,1.149.772,1.694,0,1.187-1.685,2.25-1.685,3.438,0,.545.774,1.055.529,1.694,0a6.668,6.668,0,0,1,.6-.458c.625,1.025.023,3.588-3.23,8.045l-.784,0-1,0h-.209Z" transform="translate(-345.352 -241.315)" fill="#e6b17c" fill-rule="evenodd"/>
    </g>
    <rect id="Rectangle_16306" data-name="Rectangle 16306" width="11.285" height="2.506" rx="1.253" transform="translate(47.413 40.848)" fill="#96602a"/>
    <g id="Group_34274" data-name="Group 34274" transform="translate(5.008 5)">
      <path id="Path_51136" data-name="Path 51136" d="M367.695,304.913h-6.66a1.253,1.253,0,0,0,0,2.506h6.66a1.253,1.253,0,0,0,0-2.506Z" transform="translate(-317.377 -269.065)" fill="#ab733a" fill-rule="evenodd"/>
      <path id="Path_51137" data-name="Path 51137" d="M7.289,40.891H10.2V37.413H7.289Zm-1.434.717V36.7a.719.719,0,0,1,.72-.717h4.349a.714.714,0,0,1,.714.717v4.912a.714.714,0,0,1-.714.717H6.575A.718.718,0,0,1,5.855,41.608ZM40.672,21.351H37.757v19.54h2.914Zm.72-1.434a.714.714,0,0,1,.714.717V41.608a.714.714,0,0,1-.714.717H37.043a.718.718,0,0,1-.72-.717V20.634a.719.719,0,0,1,.72-.717Zm-8.334,7.319H30.143V40.891h2.914Zm.714-1.434a.718.718,0,0,1,.72.717v15.09a.718.718,0,0,1-.72.717H29.423a.714.714,0,0,1-.714-.717V26.519a.714.714,0,0,1,.714-.717ZM17.823,33.631H14.909v7.261h2.914Zm.714-1.434a.718.718,0,0,1,.72.717v8.695a.719.719,0,0,1-.72.717H14.189a.717.717,0,0,1-.714-.717V32.913a.717.717,0,0,1,.714-.717Zm6.9-6.218H22.523V40.891h2.914Zm.72-1.434a.714.714,0,0,1,.714.717V41.608a.714.714,0,0,1-.714.717H21.809a.718.718,0,0,1-.72-.717V25.261a.719.719,0,0,1,.72-.717h4.349ZM9.086,34.866a.717.717,0,0,1-.507-1.225l14.48-14.483a.721.721,0,0,1,.789-.153l7.067,3,8.524-8.524-.4.059a.717.717,0,0,1-.207-1.419l2.546-.373a.717.717,0,0,1,.611.2.744.744,0,0,1,.2.611L41.812,15.1a.716.716,0,0,1-.708.613.687.687,0,0,1-.1-.008.717.717,0,0,1-.6-.814l.058-.4-8.864,8.865a.72.72,0,0,1-.789.153l-7.067-3L9.593,34.656a.711.711,0,0,1-.507.21Zm46.6,21.154a3.2,3.2,0,0,0-1.912-1.137v3.052c1.008-.106,1.809-.519,1.964-1.062A1.051,1.051,0,0,0,55.687,56.02Zm-3.346-2.978V49.9a2.7,2.7,0,0,0-1.5.673,1.246,1.246,0,0,0-.374.941,1.347,1.347,0,0,0,.582.961,3.866,3.866,0,0,0,1.3.563Zm4.6,2.284a2.494,2.494,0,0,1,.179,1.949c-.392,1.321-1.866,1.975-3.346,2.1v.979a.717.717,0,1,1-1.434,0V59.333a3.806,3.806,0,0,1-3.45-2.636.719.719,0,0,1,1.4-.325,2.374,2.374,0,0,0,2.05,1.5V54.526a5.862,5.862,0,0,1-2.171-.913,2.793,2.793,0,0,1-1.14-1.99,2.661,2.661,0,0,1,.778-2.039,4.152,4.152,0,0,1,2.534-1.122v-1a.717.717,0,1,1,1.434,0v1a5.677,5.677,0,0,1,.881.168A3.3,3.3,0,0,1,57.2,50.944a.718.718,0,0,1-1.4.318c-.184-.8-1.129-1.143-1.532-1.254a4.081,4.081,0,0,0-.5-.106v3.5c.115.03.236.06.351.093a4.416,4.416,0,0,1,2.817,1.835ZM63.065,54c.806,3.126.657,5.36-.461,6.83-1.371,1.8-4.314,2.641-9.549,2.734-5.236-.093-8.179-.936-9.549-2.734-1.117-1.47-1.267-3.7-.461-6.83a23.3,23.3,0,0,1,5.437-9.943c.063.006.121.009.184.009h8.778c.063,0,.127,0,.184-.009A23.244,23.244,0,0,1,63.065,54ZM28.979,60.968h8.95a3.075,3.075,0,0,1,2.258-2.258v-7.6a3.077,3.077,0,0,1-2.258-2.259h-8.95a7.459,7.459,0,0,1,0,12.112ZM20.254,48.856H11.3A3.068,3.068,0,0,1,9.04,51.115v7.6A3.066,3.066,0,0,1,11.3,60.968h8.956a7.46,7.46,0,0,1,0-12.112Zm10.4,6.056a6.033,6.033,0,1,1-6.036-6.033A6.041,6.041,0,0,1,30.65,54.912Zm12.141,8.656V62.2a5.727,5.727,0,0,1-.426-.493,5.855,5.855,0,0,1-.939-1.866.722.722,0,0,1-.518.222,1.63,1.63,0,0,0-1.63,1.626.714.714,0,0,1-.714.717h-27.9a.717.717,0,0,1-.714-.717,1.63,1.63,0,0,0-1.63-1.626.718.718,0,0,1-.714-.717v-8.86a.717.717,0,0,1,.714-.717,1.63,1.63,0,0,0,1.63-1.627.717.717,0,0,1,.714-.717h27.9a.714.714,0,0,1,.714.717,1.63,1.63,0,0,0,1.63,1.627.714.714,0,0,1,.714.717V53.77l.035-.124A24.215,24.215,0,0,1,42.791,50.3V46.256H6.442V63.568Zm6.376-23.438h7.775c2.35-3.588,2.436-5.292,2.1-5.736-.2-.259-.743-.112-.9-.062a3.292,3.292,0,0,0-1.181.706l-.035.028a2.115,2.115,0,0,1-1.6.642,1.683,1.683,0,0,1-1.14-.785c-.438-.619-.841-.96-1.135-.96s-.7.34-1.129.96a1.705,1.705,0,0,1-1.146.785,2.12,2.12,0,0,1-1.6-.642l-.029-.028a3.344,3.344,0,0,0-1.181-.706c-.167-.051-.714-.2-.91.062-.328.443-.248,2.148,2.1,5.736Zm-1.935-28.59h4.1l-4.1-4.092v4.092Zm10.212,31.1a.536.536,0,0,0,0-1.071H48.666a.536.536,0,1,0,0,1.071Zm6.3,19.067c-2.114,2.78-6.583,3.228-10.678,3.3h-.023c-3.127-.054-6.468-.33-8.818-1.7v.979a.718.718,0,0,1-.72.716H5.722a.713.713,0,0,1-.714-.716V45.539a.714.714,0,0,1,.714-.717H43.505a.719.719,0,0,1,.72.717V47.4a21.77,21.77,0,0,1,2.932-4.029,1.968,1.968,0,0,1,.49-2.95c-2.056-3.273-2.655-5.643-1.728-6.882a2.134,2.134,0,0,1,2.482-.572,4.675,4.675,0,0,1,1.665.969l.035.027a1.581,1.581,0,0,0,.484.323.645.645,0,0,0,.167-.186,3.776,3.776,0,0,1,1.59-1.425V12.976H46.518a.719.719,0,0,1-.72-.718V6.435H17.08V22.7a.717.717,0,1,1-1.434,0V5.718a.706.706,0,0,1,.213-.507A.714.714,0,0,1,16.366,5H46.518a.724.724,0,0,1,.507.21l6.537,6.541a.7.7,0,0,1,.213.507V32.67A3.805,3.805,0,0,1,55.359,34.1a.9.9,0,0,0,.167.186,1.646,1.646,0,0,0,.49-.323l.029-.027a4.659,4.659,0,0,1,1.67-.969,2.125,2.125,0,0,1,2.477.573c.927,1.238.328,3.609-1.728,6.88a1.969,1.969,0,0,1,.49,2.951,24.74,24.74,0,0,1,5.506,10.279c.922,3.58.685,6.215-.714,8.058ZM26.318,56.525a1.81,1.81,0,0,0-.985-.634v1.671c.559-.1.939-.344,1.008-.582a.554.554,0,0,0-.023-.455ZM23.9,54.018V52.3a1.524,1.524,0,0,0-.726.372.7.7,0,0,0-.213.518.8.8,0,0,0,.34.542,2.029,2.029,0,0,0,.6.289Zm3.675,1.813a3.328,3.328,0,0,0-2.137-1.411l-.1-.027v-2.1l.1.024c.253.07.847.282.95.747a.718.718,0,0,0,1.4-.318,2.562,2.562,0,0,0-1.964-1.811,4.116,4.116,0,0,0-.484-.1V50.3a.717.717,0,1,0-1.434,0v.543a3.125,3.125,0,0,0-1.762.837,2.1,2.1,0,0,0-.6,1.616,2.183,2.183,0,0,0,.887,1.571,4.115,4.115,0,0,0,1.48.65V57.5a1.35,1.35,0,0,1-1.066-.869.719.719,0,0,0-1.4.326A2.862,2.862,0,0,0,23.9,58.969v.56a.717.717,0,1,0,1.434,0v-.519a2.644,2.644,0,0,0,2.384-1.627,1.975,1.975,0,0,0-.144-1.552Zm-15.188-.2a.717.717,0,1,1,0-1.434H13.8a.717.717,0,0,1,0,1.434Zm25.175-.717a.717.717,0,0,1-.714.717H35.424a.717.717,0,0,1,0-1.434h1.423A.717.717,0,0,1,37.561,54.912Z" transform="translate(-5.008 -5)" fill="#021047" fill-rule="evenodd"/>
    </g>
  </g>
</svg>
