<svg xmlns="http://www.w3.org/2000/svg" width="48.126" height="60.013" viewBox="0 0 48.126 60.013">
  <g id="Layer_53" transform="translate(-27.792)">
    <g id="Group_34363" data-name="Group 34363" transform="translate(27.792 0)">
      <path id="Path_51276" data-name="Path 51276" d="M30.554,21.75l6.34-6.34a4.4,4.4,0,0,1,1.657-1.033L45.491,12c-1.2,2.185-.216,4.875.312,6.052a.642.642,0,0,0,.865.312l2.4-1.081L50.558,19.3v31a37.658,37.658,0,0,1-11.431-3.026,1.649,1.649,0,0,1-.937-1.537l.5-18.251a.365.365,0,0,0-.336-.36.452.452,0,0,0-.192.048L36.1,28.57a.792.792,0,0,1-1.081-.168L30.482,22.83a.837.837,0,0,1,.072-1.081Z" transform="translate(-29.711 -9.118)" fill="#ef4460"/>
      <path id="Path_51277" data-name="Path 51277" d="M101.529,10.04l1.489,2.017,1.489-2.017c4.323-5.667.816-7.54.816-7.54h-4.587S97.23,4.4,101.529,10.04Z" transform="translate(-82.195 -1.9)" fill="#ef4460"/>
      <path id="Path_51278" data-name="Path 51278" d="M134.2,96.8h21.564v2.69H134.2Z" transform="translate(-108.647 -74.133)" fill="#3a70bf"/>
      <path id="Path_51279" data-name="Path 51279" d="M187.5,242.3h9.173v2.69H187.5Z" transform="translate(-149.148 -185.577)" fill="#3a70bf"/>
      <path id="Path_51280" data-name="Path 51280" d="M132.5,242.3h9.173v2.69H132.5Z" transform="translate(-107.355 -185.577)" fill="#3a70bf"/>
      <path id="Path_51281" data-name="Path 51281" d="M189.546,140.327l.336-32.227H179.1v9.966l2.473,22.261Z" transform="translate(-142.765 -83.604)" fill="#5290db"/>
      <path id="Path_51282" data-name="Path 51282" d="M134.536,140.327h7.949l2.5-22.261V108.1H134.2Z" transform="translate(-108.647 -83.604)" fill="#5290db"/>
      <path id="Path_51283" data-name="Path 51283" d="M119.231,35.077V32.364h7.3l-.144-4.875a.365.365,0,0,1,.336-.36.452.452,0,0,1,.192.048l2.065,1.393a.792.792,0,0,0,1.081-.168l4.491-5.571a.809.809,0,0,0-.048-1.081l-6.34-6.34a4.4,4.4,0,0,0-1.657-1.033L119.567,12c1.2,2.185.216,4.875-.312,6.052a.642.642,0,0,1-.865.312l-2.4-1.081L114.5,19.3v31a37.547,37.547,0,0,0,4.875-.816Z" transform="translate(-93.678 -9.118)" fill="#ef4460"/>
      <g id="Group_34362" data-name="Group 34362" transform="translate(0.586 0.6)">
        <path id="Path_51284" data-name="Path 51284" d="M121.516,2.5s3.506,1.9-.816,7.54l2.4,1.081a.662.662,0,0,0,.865-.312c.744-1.633,2.4-6.316-2.449-8.309Z" transform="translate(-98.976 -2.5)" fill="#fc657e"/>
        <path id="Path_51285" data-name="Path 51285" d="M94.394,2.5s-3.506,1.9.816,7.54l-2.4,1.081a.662.662,0,0,1-.865-.312C91.176,9.176,89.52,4.493,94.394,2.5Z" transform="translate(-76.44 -2.5)" fill="#fc657e"/>
        <path id="Path_51286" data-name="Path 51286" d="M164.168,23.54a4.7,4.7,0,0,0-1.2-.84c-.648,2.209-1.873,7.468-.36,12.607a.359.359,0,0,1,.312.024l2.065,1.393a.792.792,0,0,0,1.081-.168l4.491-5.6a.809.809,0,0,0-.048-1.081Z" transform="translate(-130.269 -17.849)" fill="#fc657e"/>
        <path id="Path_51287" data-name="Path 51287" d="M36.83,23.54a4.7,4.7,0,0,1,1.2-.84c.648,2.209,1.873,7.468.36,12.607a.359.359,0,0,0-.312.024l-2.065,1.393a.792.792,0,0,1-1.081-.168l-4.515-5.6a.809.809,0,0,1,.048-1.081Z" transform="translate(-30.234 -17.849)" fill="#fc657e"/>
      </g>
      <path id="Path_51288" data-name="Path 51288" d="M171.969,96.8a1.357,1.357,0,1,0-.024,2.714h11.479V96.8Z" transform="translate(-136.306 -74.133)" fill="#3a70bf"/>
      <path id="Path_51289" data-name="Path 51289" d="M174.8,98.245a1.343,1.343,0,0,0-1.345-1.345h-1.489a1.357,1.357,0,1,0-.024,2.714h1.513a1.379,1.379,0,0,0,1.345-1.369Z" transform="translate(-136.306 -74.21)" fill="#29589f"/>
      <path id="Path_51290" data-name="Path 51290" d="M211.7,111.438a3.388,3.388,0,0,0,2.906,3.362l.072-6.7H211.7Z" transform="translate(-167.536 -82.834)" fill="#29589f"/>
      <path id="Path_51291" data-name="Path 51291" d="M137.078,111.438a3.388,3.388,0,0,1-2.906,3.362l-.072-6.7h2.978Z" transform="translate(-108.571 -82.834)" fill="#29589f"/>
      <path id="Path_51292" data-name="Path 51292" d="M168.4,114.968l2.569,1.993V108.1H168.4Z" transform="translate(-134.634 -82.863)" fill="#3a70bf"/>
      <circle id="Ellipse_49" data-name="Ellipse 49" cx="0.744" cy="0.744" r="0.744" transform="translate(4.349 24.67)" fill="#f5c84c"/>
      <circle id="Ellipse_50" data-name="Ellipse 50" cx="0.744" cy="0.744" r="0.744" transform="translate(20.918 48.078)" fill="#87d147"/>
      <circle id="Ellipse_51" data-name="Ellipse 51" cx="0.744" cy="0.744" r="0.744" transform="translate(46.133 12.722)" fill="#fc657e"/>
      <path id="Path_51293" data-name="Path 51293" d="M203.274,23.689a2.557,2.557,0,0,1-2.065-2.041.052.052,0,0,0-.048-.048c-.024,0-.024.024-.048.048a2.618,2.618,0,0,1-2.065,2.041.052.052,0,0,0-.048.048c0,.024.024.024.048.048a2.557,2.557,0,0,1,2.065,2.041.052.052,0,0,0,.048.048c.024,0,.024-.024.048-.048a2.618,2.618,0,0,1,2.065-2.041.048.048,0,1,0,0-.1Z" transform="translate(-157.886 -16.413)" fill="#f5c84c"/>
      <path id="Path_51294" data-name="Path 51294" d="M89.1,182.2h-.5v-.5a.7.7,0,0,0-1.393,0v.5h-.5a.7.7,0,1,0,0,1.393h.5v.5a.7.7,0,1,0,1.393,0v-.5h.5a.7.7,0,1,0,0-1.393Z" transform="translate(-72.022 -138.637)" fill="#70d6f9"/>
      <path id="Path_51295" data-name="Path 51295" d="M65.544,56.8v2.626a.588.588,0,0,0,.6.586h9.173a.588.588,0,0,0,.6-.586V56.8a.588.588,0,0,0-.6-.586h-.144l.264-24.333c.168-15.4-.024,1.711.072-9.189a.588.588,0,0,0-.6-.586H61.221l-.1-3.7,1.657,1.078a1.413,1.413,0,0,0,1.873-.281l4.467-5.462a1.342,1.342,0,0,0-.1-1.829L62.686,5.72a5.288,5.288,0,0,0-1.873-1.149l-6.748-2.25A5.884,5.884,0,0,0,51.135.047.716.716,0,0,0,50.919,0H46.332a1.08,1.08,0,0,0-.24.047,5.906,5.906,0,0,0-2.93,2.274l-6.748,2.25A4.973,4.973,0,0,0,34.542,5.72L28.2,11.909a1.342,1.342,0,0,0-.1,1.829L32.572,19.2a1.413,1.413,0,0,0,1.873.281L36.1,18.4l-.48,17.324a2.2,2.2,0,0,0,1.273,2.039,37.793,37.793,0,0,0,11.647,3h.1a36.8,36.8,0,0,0,4.226-.656l.168,16.058h-.144a.588.588,0,0,0-.6.586V59.38a.588.588,0,0,0,.6.586h9.173a.588.588,0,0,0,.6-.586V56.754a.59.59,0,0,0-.384-.539L64.1,40.321l1.825,15.894A.683.683,0,0,0,65.544,56.8Zm9.173,2.039H66.744V57.387h7.973ZM72.556,25.927h1.753l-.048,5.181a2.736,2.736,0,0,1-1.7-2.508Zm1.753-1.172H66.72a1.9,1.9,0,0,0,0-1.453h7.588Zm-9.365-1.477a.739.739,0,1,1,.024,1.477H63.454a.738.738,0,1,1,0-1.477ZM63.526,32.8l-1.369-1.031V25.927h1.369Zm-9.582-6.869H55.7V28.6a2.712,2.712,0,0,1-1.7,2.508Zm0-1.172V23.3h7.708a1.9,1.9,0,0,0,0,1.453Zm14.24-11.745-4.467,5.462a.226.226,0,0,1-.288.047l-2.065-1.36a1.051,1.051,0,0,0-.168-.094h-.024a21.755,21.755,0,0,1,.264-10.854,2.752,2.752,0,0,1,.408.328l6.34,6.212a.181.181,0,0,1,0,.258ZM52.816,8.463a.046.046,0,0,1-.072.023l-1.729-.774c1.057-1.453,2.041-3.329,1.8-5.11C54.113,4.22,53.7,6.587,52.816,8.463Zm-7.18-5.907A2.378,2.378,0,0,1,46.5,1.172h4.226a2.339,2.339,0,0,1,.913,1.618C51.9,5.2,49.214,8.017,48.614,8.932,47.989,7.97,45.132,4.993,45.636,2.555Zm.576,5.157-1.729.774a.09.09,0,0,1-.072-.023c-.889-1.875-1.321-4.243,0-5.861C44.171,4.384,45.18,6.259,46.212,7.713ZM33.8,18.52a.226.226,0,0,1-.288-.047l-4.467-5.462a.19.19,0,0,1,.024-.281l6.316-6.165a2.751,2.751,0,0,1,.408-.328,21.755,21.755,0,0,1,.264,10.854.726.726,0,0,0-.192.094Zm3.05,17.254.5-17.816a.986.986,0,0,0-.144-.516A22.949,22.949,0,0,0,36.895,5.65l5.667-1.9a8,8,0,0,0,.792,5.181,1.291,1.291,0,0,0,1.657.61l1.945-.867,1.081,1.43V39.547a37.411,37.411,0,0,1-10.59-2.837A.967.967,0,0,1,36.847,35.773Zm12.367,3.774V10.127L50.295,8.7l1.945.867a1.27,1.27,0,0,0,1.657-.61c.072-.141.144-.3.192-.422a7.85,7.85,0,0,0,.6-4.782l5.667,1.9a22.949,22.949,0,0,0-.312,11.792.928.928,0,0,0-.144.516l.12,4.149H53.344a.588.588,0,0,0-.6.586l.072,9.189.072,7.056a32.9,32.9,0,0,1-3.674.61Zm4.8-7.22A3.931,3.931,0,0,0,56.9,28.576V25.9h4.058v6.118a.607.607,0,0,0,.24.469l2.329,1.758v.774L61.1,56.192h-6.82Zm7.492,26.513H53.537V57.387h7.973Zm3.218-32.913h6.628V28.6a3.931,3.931,0,0,0,2.882,3.751l-.264,23.864h-6.82L64.727,35.046Z" transform="translate(-27.792 0)"/>
    </g>
  </g>
</svg>
