<svg xmlns="http://www.w3.org/2000/svg" width="59.996" height="52.336" viewBox="0 0 59.996 52.336">
  <g id="Group_34278" data-name="Group 34278" transform="translate(-0.002 -32.685)">
    <g id="Group_34294" data-name="Group 34294" transform="translate(0.588 33.303)">
      <g id="Group_34278-2" data-name="Group 34278" transform="translate(8.371 8.652)">
        <path id="Path_51138" data-name="Path 51138" d="M96.084,124.452H76.433v-3.328c0-10.021,16.413-11.367,16.413-6.9v1.095h.86a2.384,2.384,0,0,1,2.377,2.377Z" transform="translate(-76.433 -111.793)" fill="#4a4d71" fill-rule="evenodd"/>
      </g>
      <g id="Group_34279" data-name="Group 34279" transform="translate(14.3 8.652)">
        <path id="Path_51139" data-name="Path 51139" d="M136.311,114.946v1.095h.86a2.387,2.387,0,0,1,2.377,2.381v6.03h1.209V117.7a2.384,2.384,0,0,0-2.377-2.377h-.86v-1.095c0-2.652-5.782-3.258-10.483-1.215C131.459,111.665,136.311,112.515,136.311,114.946Z" transform="translate(-127.036 -111.793)" fill="#414470" fill-rule="evenodd"/>
      </g>
      <g id="Group_34280" data-name="Group 34280" transform="translate(4.047 31.32)">
        <path id="Path_51140" data-name="Path 51140" d="M67.92,314.987v5.829H39.54v-5.829a5.393,5.393,0,0,1,2.79-4.8c.1-.057.2-.111.3-.164.866-.465,1.742-.9,2.628-1.313q.822-.385,1.655-.745c2.218-.965,4.493-1.832,6.82-2.732,2.327.9,4.6,1.767,6.82,2.732.555.242,1.107.489,1.654.745.886.413,1.762.848,2.628,1.313.1.053.2.107.3.164a5.391,5.391,0,0,1,2.792,4.8Z" transform="translate(-39.54 -305.234)" fill="#0fbebe" fill-rule="evenodd"/>
      </g>
      <g id="Group_34281" data-name="Group 34281" transform="translate(13.025 27.837)">
        <path id="Path_51141" data-name="Path 51141" d="M121.363,275.514h3.127l2.083,5.545-5.21,5.337-5.213-5.337,2.086-5.545Z" transform="translate(-116.15 -275.514)" fill="#f7c5b8" fill-rule="evenodd"/>
      </g>
      <g id="Group_34282" data-name="Group 34282" transform="translate(13.45 27.837)">
        <path id="Path_51142" data-name="Path 51142" d="M124.565,275.514h3.127l1.661,4.42a9.645,9.645,0,0,1-9.576,0l1.661-4.42Z" transform="translate(-119.777 -275.514)" fill="#fcac8f" fill-rule="evenodd"/>
      </g>
      <g id="Group_34283" data-name="Group 34283" transform="translate(7.6 15.096)">
        <path id="Path_51143" data-name="Path 51143" d="M71.694,175.79c.723,4.59,4.39,8.083,8.8,8.083s8.076-3.492,8.8-8.083a2.209,2.209,0,0,0,1.835-2.237,2.184,2.184,0,0,0-2.106-2.253,2.014,2.014,0,0,0-1.219.415l-.8-3.238a2.217,2.217,0,0,0-2.484-1.667l-4.373.64-3.941.114a3.118,3.118,0,0,0-3.03,3.117v1.035a2,2,0,0,0-1.215-.415,2.184,2.184,0,0,0-2.106,2.253A2.21,2.21,0,0,0,71.694,175.79Z" transform="translate(-69.859 -166.786)" fill="#f7c5b8" fill-rule="evenodd"/>
      </g>
      <path id="Path_51144" data-name="Path 51144" d="M89.059,379.012a1.106,1.106,0,1,0,1.107,1.105A1.106,1.106,0,0,0,89.059,379.012Z" transform="translate(-78.233 -339.047)" fill="#e2f0fa"/>
      <g id="Group_34284" data-name="Group 34284" transform="translate(0 46.902)">
        <path id="Path_51145" data-name="Path 51145" d="M5,438.21H52.381v4.2H5Z" transform="translate(-5 -438.21)" fill="#d88654" fill-rule="evenodd"/>
      </g>
      <g id="Group_34285" data-name="Group 34285" transform="translate(29.712 0)">
        <path id="Path_51146" data-name="Path 51146" d="M260.022,37.956h19a1.469,1.469,0,0,1,1.463,1.463v6.291a1.466,1.466,0,0,1-1.463,1.46h-11.96v3.767L263.3,47.17h-3.278a1.466,1.466,0,0,1-1.463-1.46V39.419A1.469,1.469,0,0,1,260.022,37.956Z" transform="translate(-258.559 -37.956)" fill="#ffd54f" fill-rule="evenodd"/>
      </g>
      <g id="Group_34286" data-name="Group 34286" transform="translate(29.769 0)">
        <path id="Path_51147" data-name="Path 51147" d="M279.382,37.956h.07a1.469,1.469,0,0,1,1.463,1.463v6.291a1.466,1.466,0,0,1-1.463,1.46h-11.96v3.767l-3.763-3.767h-3.278a1.468,1.468,0,0,1-1.406-1.061h18.931a1.469,1.469,0,0,0,1.463-1.463V38.358A1.437,1.437,0,0,0,279.382,37.956Z" transform="translate(-259.045 -37.956)" fill="#ffc328" fill-rule="evenodd"/>
      </g>
      <g id="Group_34287" data-name="Group 34287" transform="translate(4.048 36.439)">
        <path id="Path_51148" data-name="Path 51148" d="M65.407,348.919a5.382,5.382,0,0,1,2.518,4.634v5.829H39.545v-1.771H66.183v-5.829A5.49,5.49,0,0,0,65.407,348.919Z" transform="translate(-39.545 -348.919)" fill="#0ab0b0" fill-rule="evenodd"/>
      </g>
      <g id="Group_34288" data-name="Group 34288" transform="translate(34.005 23.119)">
        <path id="Path_51149" data-name="Path 51149" d="M297.551,235.254h.911v4.721h-.911a2.36,2.36,0,1,1,0-4.721Zm15.626,0h.914a2.36,2.36,0,0,1,0,4.721h-.914Z" transform="translate(-295.19 -235.254)" fill="#f7c5b8" fill-rule="evenodd"/>
      </g>
      <g id="Group_34289" data-name="Group 34289" transform="translate(0 46.902)">
        <path id="Path_51150" data-name="Path 51150" d="M33.514,438.21H52.381v4.2H5v-1.852H33.514Z" transform="translate(-5 -438.21)" fill="#c97745" fill-rule="evenodd"/>
      </g>
      <g id="Group_34290" data-name="Group 34290" transform="translate(30.446 35.518)">
        <path id="Path_51151" data-name="Path 51151" d="M293.2,350.813v5.829H264.818v-5.829a5.4,5.4,0,0,1,2.789-4.8c.1-.054.2-.107.3-.164a98.279,98.279,0,0,1,11.1-4.788,97.973,97.973,0,0,1,11.1,4.788l.3.164A5.4,5.4,0,0,1,293.2,350.813Z" transform="translate(-264.818 -341.059)" fill="#8399fe" fill-rule="evenodd"/>
      </g>
      <g id="Group_34291" data-name="Group 34291" transform="translate(40.467 30.693)">
        <path id="Path_51152" data-name="Path 51152" d="M350.336,299.887h8.337v6.251a1.809,1.809,0,0,1-1.56,1.972H351.9a1.806,1.806,0,0,1-1.56-1.972Z" transform="translate(-350.336 -299.887)" fill="#f7c5b8" fill-rule="evenodd"/>
      </g>
      <g id="Group_34292" data-name="Group 34292" transform="translate(37.276 14.92)">
        <path id="Path_51153" data-name="Path 51153" d="M328.928,165.279H332a5.836,5.836,0,0,1,5.819,5.819v8.243A5.837,5.837,0,0,1,332,185.164h-3.074a5.839,5.839,0,0,1-5.823-5.823V171.1A5.839,5.839,0,0,1,328.928,165.279Z" transform="translate(-323.105 -165.279)" fill="#4a4d71" fill-rule="evenodd"/>
      </g>
      <g id="Group_34293" data-name="Group 34293" transform="translate(48.348 15.345)">
        <path id="Path_51154" data-name="Path 51154" d="M419.5,173.2v10.443a5.787,5.787,0,0,1-1.446,3.83,5.964,5.964,0,0,1-.455.465c.154-.064.308-.134.455-.208a5.842,5.842,0,0,0,3.188-5.19V174.3a5.835,5.835,0,0,0-3.643-5.394A5.812,5.812,0,0,1,419.5,173.2Z" transform="translate(-417.597 -168.908)" fill="#414470" fill-rule="evenodd"/>
      </g>
    </g>
    <path id="Path_51155" data-name="Path 51155" d="M31.421,71.677a.82.82,0,1,0,1.363-.914,6.363,6.363,0,0,0-2.165-1.992l-.087-.048c-.073-.041-.145-.082-.223-.122-.923-.5-1.905-.982-2.99-1.479q-.779-.359-1.635-.727-.468-.2-.961-.408h0L24.19,64.57h0a10.489,10.489,0,0,0,4.172-6.5A3.059,3.059,0,0,0,30.286,55.2a3.125,3.125,0,0,0-.844-2.151h0v-5.1a3.186,3.186,0,0,0-3.182-3.182h-.033V44.5c0-1.966-2.155-3.236-5.49-3.236a15.262,15.262,0,0,0-8.061,2.352A8.973,8.973,0,0,0,8.3,51.343v1.793h0a3.131,3.131,0,0,0-.761,2.06,3.057,3.057,0,0,0,1.926,2.876,10.474,10.474,0,0,0,4.169,6.5L13.1,65.989c-.374.155-.734.308-1.086.46-.526.227-1.028.451-1.51.673-1.082.5-2.065.983-2.993,1.481-.074.039-.148.08-.219.12l-.087.048-.011.006a6.16,6.16,0,0,0-3.181,5.476v4.963H.822a.82.82,0,0,0-.82.82V84.2a.82.82,0,0,0,.82.82H28.1a.82.82,0,1,0,0-1.641H1.643V80.856h26.7a.82.82,0,1,0,0-1.641H5.659V74.252A4.555,4.555,0,0,1,8.009,70.2l.084-.047c.064-.035.129-.071.2-.107.7-.375,1.433-.744,2.219-1.117v3.044a2.413,2.413,0,1,0,1.642,0v-3.8q.666-.294,1.39-.6h0l4.789,4.9a.82.82,0,0,0,1.174,0l4.786-4.9h0c.484.2.946.4,1.39.6v3.152A2.841,2.841,0,0,0,23.5,74.209v1.734a.82.82,0,0,0,1.641,0V74.209a1.266,1.266,0,0,1,1.348-1.339h.016a1.266,1.266,0,0,1,1.35,1.339v1.734a.82.82,0,0,0,1.641,0V74.21a2.841,2.841,0,0,0-2.18-2.876v-2.4c.79.375,1.523.744,2.221,1.118l.012.007c.061.032.12.064.177.1l.088.049a4.732,4.732,0,0,1,1.606,1.475ZM11.328,75.02a.772.772,0,1,1,.771-.771A.773.773,0,0,1,11.328,75.02ZM9.944,51.343a7.46,7.46,0,0,1,3.632-6.351,13.555,13.555,0,0,1,7.161-2.083c2.23,0,3.849.671,3.849,1.595v1.083a.82.82,0,0,0,.82.82h.854A1.543,1.543,0,0,1,27.8,47.948V52.17h0a2.639,2.639,0,0,0-.422-.033,2.812,2.812,0,0,0-.65.076l-.555-2.248a3.015,3.015,0,0,0-3.381-2.274l-4.29.632-3.865.111a3.888,3.888,0,0,0-3.8,3.731,2.727,2.727,0,0,0-.393-.028,2.768,2.768,0,0,0-.5.047v-.84Zm1.049,5.942a.819.819,0,0,0-.7-.686,1.37,1.37,0,0,1-1.111-1.4A1.484,1.484,0,0,1,9.642,54.1l.027-.024.023-.021a1.173,1.173,0,0,1,.756-.282,1.161,1.161,0,0,1,.71.246.82.82,0,0,0,1.319-.65v-1.03a2.286,2.286,0,0,1,2.207-2.27l3.913-.112a.885.885,0,0,0,.1-.008l4.338-.637a1.38,1.38,0,0,1,1.548,1.043l.794,3.212a.821.821,0,0,0,1.3.453,1.147,1.147,0,0,1,1.416,0l.006,0,.031.025.013.01a1.481,1.481,0,0,1,.509,1.137,1.367,1.367,0,0,1-1.106,1.4.819.819,0,0,0-.7.684,8.839,8.839,0,0,1-3.992,6.2s0,0-.007,0l0,0a.822.822,0,0,0-.148.09h0l0,0-.006,0a7.441,7.441,0,0,1-7.527,0l0,0a.816.816,0,0,0-.165-.1h-.006a0,0,0,0,1,0,0A8.836,8.836,0,0,1,10.993,57.285ZM18.915,70.74,14.7,66.42l.382-1.016a9.076,9.076,0,0,0,7.672,0h0l.382,1.017ZM17.481,59.8a1.974,1.974,0,0,0,1.434.816,1.972,1.972,0,0,0,1.431-.816.82.82,0,1,1,1.263,1.047,3.54,3.54,0,0,1-2.695,1.41,3.543,3.543,0,0,1-2.7-1.41A.82.82,0,1,1,17.481,59.8Zm-2.406-4.27a.525.525,0,0,0-.525.525.82.82,0,1,1-1.641,0,2.166,2.166,0,1,1,4.331,0,.82.82,0,1,1-1.641,0,.526.526,0,0,0-.525-.525Zm5.514.525a2.166,2.166,0,1,1,4.331,0,.82.82,0,0,1-1.641,0,.525.525,0,1,0-1.05,0,.82.82,0,0,1-1.641,0ZM31.747,43.468h2.915l3.493,3.493a.82.82,0,0,0,.58.24.842.842,0,0,0,.314-.062.821.821,0,0,0,.506-.758V43.468H50.6A2.274,2.274,0,0,0,52.87,41.2V34.957a2.274,2.274,0,0,0-2.27-2.272H31.747a2.273,2.273,0,0,0-2.269,2.272V41.2a2.273,2.273,0,0,0,2.269,2.272Zm-.628-8.511a.63.63,0,0,1,.628-.63H50.6a.629.629,0,0,1,.628.63V41.2a.637.637,0,0,1-.628.63H38.736a.821.821,0,0,0-.82.821V44.4l-2.333-2.333a.82.82,0,0,0-.58-.24H31.747a.638.638,0,0,1-.628-.63Zm3.488,3.119a.82.82,0,0,1,.82-.82h1.166a.82.82,0,0,1,0,1.641H35.427A.82.82,0,0,1,34.607,38.076Zm5.165,0a.82.82,0,0,1,.82-.82h1.163a.82.82,0,0,1,0,1.641H40.593A.82.82,0,0,1,39.772,38.076Zm5.162,0a.82.82,0,0,1,.82-.82H46.92a.82.82,0,1,1,0,1.641H45.754A.82.82,0,0,1,44.934,38.076Zm11.872,34.86-.086-.048-.218-.12A66.747,66.747,0,0,0,50.059,69.8v-1.92a6.592,6.592,0,0,0,3.162-5.627v-.312H53.3a3.162,3.162,0,0,0,0-6.324h-.083V54.08a6.6,6.6,0,0,0-6.6-6.6H43.575a6.6,6.6,0,0,0-6.594,6.6v1.542H36.9a3.162,3.162,0,1,0,0,6.324h.082v.312a6.6,6.6,0,0,0,3.163,5.628V69.8a67.243,67.243,0,0,0-6.438,2.963c-.076.04-.15.081-.223.122l-.1.053A6.147,6.147,0,0,0,30.2,78.415V84.2a.82.82,0,0,0,.82.82H59.178A.82.82,0,0,0,60,84.2V78.415A6.153,6.153,0,0,0,56.806,72.937ZM53.221,57.262H53.3a1.521,1.521,0,1,1,0,3.042h-.083ZM36.981,60.3H36.9a1.521,1.521,0,1,1,0-3.042h.082Zm1.642,1.953V54.08a4.959,4.959,0,0,1,4.952-4.956h3.049a4.962,4.962,0,0,1,4.957,4.956v8.178a4.958,4.958,0,0,1-2.661,4.389h0l-.013.005-.014.008q-.035.016-.068.036h0a4.935,4.935,0,0,1-2.2.513H43.575A4.915,4.915,0,0,1,41.4,66.7h0l0,0h0a.816.816,0,0,0-.1-.051l-.006,0h0A4.955,4.955,0,0,1,38.623,62.258Zm9.786,8.068c-.058.575-.406.964-.721.964H42.516c-.316,0-.665-.39-.722-.968,0,0,0,0,0,0a.379.379,0,0,0-.005-.056c0-.035,0-.07,0-.105V68.6a6.55,6.55,0,0,0,1.79.247h3.049a6.568,6.568,0,0,0,1.794-.248h0v1.554c0,.033,0,.064,0,.1h0a.19.19,0,0,1,0,.026.106.106,0,0,1,0,.027.045.045,0,0,1,0,.018h0Zm9.947,13.055H53.544V77.723a.82.82,0,0,0-1.641,0v5.657H38.3V77.723a.821.821,0,0,0-1.642,0v5.657H31.843V78.415a4.541,4.541,0,0,1,2.346-4.042l.1-.055c.057-.033.116-.066.178-.1l.011-.006a63.638,63.638,0,0,1,5.948-2.752,2.355,2.355,0,0,0,2.092,1.468h5.172a2.355,2.355,0,0,0,2.092-1.469,63.987,63.987,0,0,1,5.948,2.754c.066.034.13.07.195.107l.082.045a4.546,4.546,0,0,1,2.352,4.047v4.966Z"/>
  </g>
</svg>
