<svg xmlns="http://www.w3.org/2000/svg" width="60" height="42.703" viewBox="0 0 60 42.703">
  <g id="Group_34123" data-name="Group 34123" transform="translate(0 -73.802)">
    <g id="Group_34121" data-name="Group 34121" transform="translate(1.025 75.396)">
      <path id="Path_50964" data-name="Path 50964" d="M25.953,136.095l-6.09-16.732a1.094,1.094,0,0,1,0-.748L25.509,103.1a1.094,1.094,0,0,0-.654-1.4l-1.37-.5a1.094,1.094,0,0,0-1.4.654l-6.1,16.759a1.094,1.094,0,0,0,0,.748l6.544,17.979a1.094,1.094,0,0,0,1.4.654l1.37-.5a1.094,1.094,0,0,0,.654-1.4Z" transform="translate(-14.767 -98.993)" fill="#8d9ca8"/>
      <path id="Path_50965" data-name="Path 50965" d="M22.449,326.133H74.612v-9.6H23.543a1.094,1.094,0,0,0-1.094,1.094Z" transform="translate(-20.405 -292.06)" fill="#fea613"/>
      <path id="Path_50966" data-name="Path 50966" d="M392.132,180.566v15.488H376.69v-27.68a1.093,1.093,0,0,1,1.094-1.094h7.734a1.091,1.091,0,0,1,1,.648l1.664,3.727,3.768,8.442.16.357A.268.268,0,0,1,392.132,180.566Z" transform="translate(-336.215 -160.285)" fill="#fad448"/>
      <path id="Path_50967" data-name="Path 50967" d="M380.792,167.28a1.093,1.093,0,0,0-1.094,1.094v27.68H376.69v-27.68a1.093,1.093,0,0,1,1.094-1.094Z" transform="translate(-334.12 -160.285)" fill="#ffc344"/>
      <path id="Path_50968" data-name="Path 50968" d="M422.163,207.722h-9.379a1.093,1.093,0,0,1-1.094-1.094v-6.255a1.093,1.093,0,0,1,1.094-1.094h5.611Z" transform="translate(-366.43 -186.535)" fill="#99e6fc"/>
      <path id="Path_50969" data-name="Path 50969" d="M415.792,207.722h-3.008a1.093,1.093,0,0,1-1.094-1.094v-6.255a1.093,1.093,0,0,1,1.094-1.094h3.008a1.093,1.093,0,0,0-1.094,1.094v6.255A1.093,1.093,0,0,0,415.792,207.722Z" transform="translate(-366.43 -186.535)" fill="#62dbfb"/>
      <path id="Path_50970" data-name="Path 50970" d="M95.106,99.781l-6.156,16.914a.548.548,0,0,1-.588.355L73.4,115.019l-5.178-.7a.57.57,0,0,1-.219-.079l-4.5-2.844-12.677-8a.506.506,0,0,1-.112-.1.547.547,0,0,1-.111-.555l6.156-16.914.016-.04a.083.083,0,0,1,.01-.019.548.548,0,0,1,.562-.3l14.857,2.017,5.277.716a.551.551,0,0,1,.219.081l4.417,2.789L94.883,99.13A.55.55,0,0,1,95.106,99.781Z" transform="translate(-44.684 -85.464)" fill="#fea613"/>
      <path id="Path_50971" data-name="Path 50971" d="M163.776,103.836l-8.716,23.948-5.178-.7a.57.57,0,0,1-.219-.079l-4.5-2.844,8.7-23.908,5.277.716a.551.551,0,0,1,.219.081Z" transform="translate(-130.154 -98.229)" fill="#9facba"/>
      <path id="Path_50972" data-name="Path 50972" d="M26.552,316.53a1.094,1.094,0,0,0-1.094,1.094v8.505H22.45v-8.505a1.094,1.094,0,0,1,1.094-1.094Z" transform="translate(-20.406 -292.056)" fill="#fb8801"/>
      <path id="Path_50973" data-name="Path 50973" d="M64.983,377.149H7.966A.511.511,0,0,1,7.5,376.6v-3.691a.511.511,0,0,1,.466-.547H64.983a.511.511,0,0,1,.466.547V376.6A.511.511,0,0,1,64.983,377.149Z" transform="translate(-7.5 -340.257)" fill="#d8ecfe"/>
      <path id="Path_50974" data-name="Path 50974" d="M11.055,377.145H8.047A.547.547,0,0,1,7.5,376.6v-3.691a.547.547,0,0,1,.547-.547h3.008a.547.547,0,0,0-.547.547V376.6A.547.547,0,0,0,11.055,377.145Z" transform="translate(-7.5 -340.253)" fill="#c4e2ff"/>
      <path id="Path_50975" data-name="Path 50975" d="M59.954,85.964,53.062,104.9l-2.346-1.482a.547.547,0,0,1-.111-.555l6.156-16.914.016-.04a.083.083,0,0,1,.01-.019.547.547,0,0,1,.552-.278Z" transform="translate(-44.684 -85.585)" fill="#fb8801"/>
      <path id="Path_50976" data-name="Path 50976" d="M156.886,100.8l-9.127,25.072-2.548-1.609L153.9,100.39Z" transform="translate(-129.728 -98.349)" fill="#8d9ca8"/>
      <g id="Group_34118" data-name="Group 34118" transform="translate(19.102 28.347)">
        <circle id="Ellipse_25" data-name="Ellipse 25" cx="6.152" cy="6.152" r="6.152" transform="translate(0 0.001)" fill="#8d9ca8"/>
        <path id="Path_50977" data-name="Path 50977" d="M185.486,356.979a6.152,6.152,0,1,1,0-11.933,6.153,6.153,0,0,0,0,11.933Z" transform="translate(-177.83 -344.86)" fill="#7a8c98"/>
        <circle id="Ellipse_26" data-name="Ellipse 26" cx="2.051" cy="2.051" r="2.051" transform="translate(4.102 4.102)" fill="#d8ecfe"/>
      </g>
      <g id="Group_34119" data-name="Group 34119" transform="translate(40.13 28.347)">
        <circle id="Ellipse_27" data-name="Ellipse 27" cx="6.152" cy="6.152" r="6.152" transform="translate(0 0.001)" fill="#8d9ca8"/>
        <circle id="Ellipse_28" data-name="Ellipse 28" cx="2.051" cy="2.051" r="2.051" transform="translate(4.238 4.102)" fill="#d8ecfe"/>
        <path id="Path_50978" data-name="Path 50978" d="M382.826,356.979a6.152,6.152,0,1,1,0-11.933,6.153,6.153,0,0,0,0,11.933Z" transform="translate(-375.033 -344.86)" fill="#7a8c98"/>
      </g>
      <g id="Group_34120" data-name="Group 34120" transform="translate(5.469 28.347)">
        <circle id="Ellipse_29" data-name="Ellipse 29" cx="6.152" cy="6.152" r="6.152" transform="translate(0 0.001)" fill="#8d9ca8"/>
        <path id="Path_50979" data-name="Path 50979" d="M55.156,356.979a6.152,6.152,0,1,1,0-11.933,6.153,6.153,0,0,0,0,11.933Z" transform="translate(-47.5 -344.86)" fill="#7a8c98"/>
        <circle id="Ellipse_30" data-name="Ellipse 30" cx="2.051" cy="2.051" r="2.051" transform="translate(4.102 4.102)" fill="#d8ecfe"/>
      </g>
      <path id="Path_50980" data-name="Path 50980" d="M455.73,286.15v4.594h-4.823a.547.547,0,0,1-.547-.547v-3.5a.547.547,0,0,1,.547-.547Z" transform="translate(-399.813 -263.235)" fill="#fe646f"/>
      <path id="Path_50981" data-name="Path 50981" d="M455.73,286.15v4.594h-4.823a.547.547,0,0,1-.547-.547v-3.5a.547.547,0,0,1,.547-.547Z" transform="translate(-399.813 -263.235)" fill="#fd8087"/>
    </g>
    <g id="Group_34122" data-name="Group 34122" transform="translate(0 73.802)">
      <path id="Path_50982" data-name="Path 50982" d="M58.652,107.422h-.394V95.657a1.1,1.1,0,0,0-.1-.454L53.369,84.468a1.815,1.815,0,0,0-1.659-1.079H45.081a1.818,1.818,0,0,0-1.8,1.572L29.65,76.353a1.358,1.358,0,0,0-.539-.2l-4.506-.612-.02,0L11.854,73.814a1.356,1.356,0,0,0-1.449.875l-.546,1.5-.032-.013-1.174-.428a1.819,1.819,0,0,0-2.328,1.085L1.1,91.2a1.822,1.822,0,0,0,0,1.241l3.071,8.439h-.6A1.818,1.818,0,0,0,1.752,102.7v4.726h-.4A1.349,1.349,0,0,0,0,108.77v3.164a1.349,1.349,0,0,0,1.348,1.348H5.431a6.15,6.15,0,0,0,10.818,0h4.416a6.15,6.15,0,0,0,10.818,0h3.411a.879.879,0,1,0,0-1.758H32.113a6.116,6.116,0,0,0,0-2.344H43.121a6.116,6.116,0,0,0,0,2.344H39a.879.879,0,1,0,0,1.758h4.755a6.15,6.15,0,0,0,10.818,0h4.083A1.349,1.349,0,0,0,60,111.934V108.77a1.349,1.349,0,0,0-1.348-1.348ZM55.867,94.376H49.182a.058.058,0,0,1-.059-.059V88.956a.058.058,0,0,1,.059-.059h4.239Zm.634,6.881H53.656v-2.18H56.5v2.18Zm-11.42-16.11H51.71a.057.057,0,0,1,.053.035l.874,1.957H49.182a1.818,1.818,0,0,0-1.816,1.816v5.361a1.818,1.818,0,0,0,1.816,1.816H56.5V97.32H53.245A1.349,1.349,0,0,0,51.9,98.667v3a1.349,1.349,0,0,0,1.348,1.348H56.5v4.407H54.569a6.147,6.147,0,0,0-9.547-1.619v-20.6a.058.058,0,0,1,.059-.059ZM9.364,100.88,6.073,91.84a.061.061,0,0,1,0-.04L6.3,91.18l10.243,6.468.015.009,3.846,2.428a1.336,1.336,0,0,0,.539.2l4.4.6Zm33.9,0h-3.3l3.3-9.07ZM31.9,79.852l-2.548,7a.879.879,0,1,0,1.652.6l2.417-6.641,9.738,6.149-5.051,13.877L26.7,99.289l2.9-7.982a.879.879,0,1,0-1.652-.6l-3.036,8.341-3.648-.5-3.186-2.012L25.053,77.38l3.733.507ZM11.944,75.6l11.327,1.537L16.558,95.58l-9.665-6.1Zm-9.2,16.239a.06.06,0,0,1,0-.04L7.977,77.435a.058.058,0,0,1,.075-.035l1.175.428a.058.058,0,0,1,.035.075L4.42,91.2a1.824,1.824,0,0,0,0,1.24l3.072,8.439H6.038Zm-.99,19.685V109.18H4.8a6.116,6.116,0,0,0,0,2.344Zm9.082,3.223a4.395,4.395,0,1,1,4.395-4.395A4.4,4.4,0,0,1,10.84,114.747Zm6.039-3.223a6.116,6.116,0,0,0,0-2.344h3.157a6.116,6.116,0,0,0,0,2.344Zm9.2,3.223a4.395,4.395,0,1,1,4.395-4.395A4.4,4.4,0,0,1,26.074,114.747Zm0-10.547a6.158,6.158,0,0,0-5.409,3.222H16.249a6.151,6.151,0,0,0-10.817,0H3.51V102.7a.059.059,0,0,1,.059-.059h39.7v4.785H31.483A6.158,6.158,0,0,0,26.074,104.2ZM49.16,114.747a4.395,4.395,0,1,1,4.395-4.395A4.4,4.4,0,0,1,49.16,114.747Zm9.082-3.223H55.2a6.116,6.116,0,0,0,0-2.344h3.043Z" transform="translate(0 -73.802)"/>
      <path id="Path_50983" data-name="Path 50983" d="M203.076,363.2a3.076,3.076,0,1,0,3.076,3.076A3.08,3.08,0,0,0,203.076,363.2Zm0,4.1a1.025,1.025,0,1,1,1.025-1.025A1.026,1.026,0,0,1,203.076,367.3Z" transform="translate(-176.939 -330.749)"/>
      <path id="Path_50984" data-name="Path 50984" d="M400.076,363.2a3.076,3.076,0,1,0,3.076,3.076A3.08,3.08,0,0,0,400.076,363.2Zm0,4.1a1.025,1.025,0,1,1,1.025-1.025A1.026,1.026,0,0,1,400.076,367.3Z" transform="translate(-352.723 -330.749)"/>
      <path id="Path_50985" data-name="Path 50985" d="M73.076,363.2a3.076,3.076,0,1,0,3.076,3.076A3.08,3.08,0,0,0,73.076,363.2Zm0,4.1a1.025,1.025,0,1,1,1.025-1.025A1.026,1.026,0,0,1,73.076,367.3Z" transform="translate(-60.43 -330.749)"/>
    </g>
  </g>
</svg>
