<svg xmlns="http://www.w3.org/2000/svg" width="60" height="57.422" viewBox="0 0 60 57.422">
  <g id="Group_34125" data-name="Group 34125" transform="translate(0 -11)">
    <path id="Path_50986" data-name="Path 50986" d="M67.992,39.711A28.5,28.5,0,1,1,39.5,11,28.6,28.6,0,0,1,67.992,39.711Z" transform="translate(-9.496 0)" fill="#0504a5"/>
    <path id="Path_50987" data-name="Path 50987" d="M160.041,66.448c-13.554,0-24.541-9.946-24.541-22.214S146.487,22.02,160.041,22.02q1.1,0,2.168.085A33.562,33.562,0,0,1,184.506,46c-.992,11.445-11.566,20.453-24.465,20.453Z" transform="translate(-126.975 -9.513)" fill="#1a19db"/>
    <path id="Path_50988" data-name="Path 50988" d="M211.68,452.909c0,.856-3.734,1.549-8.34,1.549s-8.34-.694-8.34-1.549,3.734-1.549,8.34-1.549S211.68,452.054,211.68,452.909Z" transform="translate(-173.34 -389.725)" fill="#0c1553"/>
    <path id="Path_50989" data-name="Path 50989" d="M59.992,187.478h0c-.085,1.127-.879,2.019-2.424,2.713a.822.822,0,0,1-1.087-.5l-.01-.024a1.081,1.081,0,0,1,.474-1.4c.974-.433,1.285-.816,1.3-.973.026-.341-1.183-2.02-7.563-4.009a108.591,108.591,0,0,0-20.308-3.818,129.043,129.043,0,0,0-12.933-.7c-2.782,0-5.357.114-7.634.345-6.579.667-8.019,2.076-8.045,2.417-.008.1.1.335.439.662.632.611.263,1.81-.558,1.81a.794.794,0,0,1-.557-.232,3.024,3.024,0,0,1-1.076-2.419c.1-1.276,1.1-2.25,3.073-2.977a27.929,27.929,0,0,1,6.571-1.3,108.617,108.617,0,0,1,20.873.354,110.136,110.136,0,0,1,20.608,3.88,29.228,29.228,0,0,1,6.277,2.615C59.243,185.04,60.088,186.2,59.992,187.478Z" transform="translate(0 -147.122)" fill="#bc157d"/>
    <path id="Path_50990" data-name="Path 50990" d="M126.866,89.362,119.8,108.716a2.56,2.56,0,0,1-3.878,1.294,2.735,2.735,0,0,1-1.14-1.924l-.675-5.633a14.04,14.04,0,0,0-1.174-5.037,2.56,2.56,0,0,0-4.659,0,17.765,17.765,0,0,0-1.155,4.875l-.694,5.795a2.735,2.735,0,0,1-1.14,1.924,2.561,2.561,0,0,1-3.878-1.294L94.34,89.362a16.109,16.109,0,0,1-.529-9.263l1.4-5.843a4.937,4.937,0,0,1,5.908-3.775l2.626.632a4.748,4.748,0,0,0,3.038-.29,9.269,9.269,0,0,1,7.639,0,4.748,4.748,0,0,0,3.038.29l2.626-.632A4.937,4.937,0,0,1,126,74.256l1.4,5.843A16.113,16.113,0,0,1,126.866,89.362Z" transform="translate(-80.604 -50.933)" fill="#ececf1"/>
    <path id="Path_50991" data-name="Path 50991" d="M109.249,111.438a2.6,2.6,0,0,0,.383.587,3.139,3.139,0,0,1-.891.7c-1.795.966-4.236.336-5-1.291L94.62,92.123a12.651,12.651,0,0,1-.682-9.244l1.806-5.831c.843-2.723,4.234-4.4,7.622-3.768l1.551.289a5.624,5.624,0,0,0-3.662,3.479L99.45,82.879a12.653,12.653,0,0,0,.682,9.244Zm16-.629-.871-5.622a11.363,11.363,0,0,0-1.514-5.027c-.842-1.307-4.871-1.868-7.225-1.494a3.554,3.554,0,0,1,2.973,1.494,11.361,11.361,0,0,1,1.514,5.027l.871,5.622a2.707,2.707,0,0,0,1.47,1.92,4.016,4.016,0,0,0,3.991-.156h0A2.629,2.629,0,0,1,125.245,110.809Z" transform="translate(-84.06 -53.651)" fill="#d3d3d8"/>
    <path id="Path_50992" data-name="Path 50992" d="M320.823,134.194c-1.945-1.746-.042-4.555-.763-9.868-.483-3.561-1.638-4.55-.811-6.02.991-1.76,3.97-2.6,5.953-1.7,3.793,1.723,2.766,9.164,2.658,9.887-.549,3.666-2.713,8.439-5.284,8.446A2.731,2.731,0,0,1,320.823,134.194Z" transform="translate(-282.514 -93.703)" fill="#fff5f5"/>
    <path id="Path_50993" data-name="Path 50993" d="M5.86,208.361v0a.9.9,0,0,1-1.189.96,18.391,18.391,0,0,1-2.08-1.07C.756,207.137-.089,205.974.007,204.7a.931.931,0,0,1,.952-.932.992.992,0,0,1,.8,1.111c-.019.251.633,1.23,3.534,2.524A1.036,1.036,0,0,1,5.86,208.361Zm53.333,1.35a.93.93,0,0,0-.952.932c-.026.341-1.466,1.75-8.045,2.417a107.105,107.105,0,0,1-20.567-.354q-1.453-.148-2.879-.323a.941.941,0,0,0-.969,1.02.98.98,0,0,0,.785,1.02q1.44.176,2.909.326a130.554,130.554,0,0,0,13.087.706c2.834,0,5.461-.117,7.785-.352a27.93,27.93,0,0,0,6.571-1.3c1.972-.728,2.977-1.7,3.073-2.977A.992.992,0,0,0,59.193,209.71Z" transform="translate(0 -170.969)" fill="#ff50b5"/>
    <path id="Path_50994" data-name="Path 50994" d="M78.876,216.71l-8,7.064a.788.788,0,0,1-1.043,0l-8-7.064a5.448,5.448,0,1,1,7.459-7.935l.5.5a.787.787,0,0,0,1.114,0l.5-.5a5.448,5.448,0,1,1,7.459,7.935Z" transform="translate(-51.797 -174.471)" fill="#ff50b5"/>
    <path id="Path_50995" data-name="Path 50995" d="M203.641,168.949l-2.192,1.936a.216.216,0,0,1-.286,0l-2.192-1.936a1.493,1.493,0,1,1,2.044-2.175l.137.137a.216.216,0,0,0,.305,0l.137-.137a1.493,1.493,0,1,1,2.045,2.175Z" transform="translate(-175.552 -137.357)" fill="#ff94d2"/>
    <path id="Path_50996" data-name="Path 50996" d="M165.175,112.612l-2.192,1.936a.216.216,0,0,1-.286,0l-2.192-1.936a1.493,1.493,0,1,1,2.044-2.175l.137.137a.216.216,0,0,0,.305,0l.137-.137a1.493,1.493,0,1,1,2.044,2.175Z" transform="translate(-141.527 -87.541)" fill="#ffaee0"/>
    <path id="Path_50997" data-name="Path 50997" d="M73.079,221.832l-2.2,1.942a.788.788,0,0,1-1.043,0l-8-7.064a5.448,5.448,0,0,1,3.88-9.524,5.512,5.512,0,0,0-.57.59,5.448,5.448,0,0,0,.581,7.567Z" transform="translate(-51.797 -174.472)" fill="#ff2ea6"/>
  </g>
</svg>
