<svg xmlns="http://www.w3.org/2000/svg" width="48.026" height="58.796" viewBox="0 0 48.026 58.796">
  <g id="Group_34323" data-name="Group 34323" transform="translate(-46.893 0)">
    <g id="Group_34323-2" data-name="Group 34323" transform="translate(66.599 0.864)">
      <path id="Path_51216" data-name="Path 51216" d="M221.4,31.39l6.737,1.868,13.65,3.786,3.69-13.246a12.869,12.869,0,0,0-24.8-6.878l-2.186,7.855c0,4.8,1.272,6.162,2.91,6.615Z" transform="translate(-218.491 -7.52)" fill="#eb5468" fill-rule="evenodd"/>
    </g>
    <g id="Group_34324" data-name="Group 34324" transform="translate(81.639 0.869)">
      <path id="Path_51217" data-name="Path 51217" d="M355.614,22.233l-3.69,13.246,5.794,1.608,3.69-13.246A12.861,12.861,0,0,0,349.461,7.568a12.883,12.883,0,0,1,6.153,14.665Z" transform="translate(-349.461 -7.568)" fill="#e5384f" fill-rule="evenodd"/>
    </g>
    <g id="Group_34325" data-name="Group 34325" transform="translate(72.233 28.78)">
      <path id="Path_51218" data-name="Path 51218" d="M285.216,252.224l-5.794-1.608-3.69,13.246a12.805,12.805,0,0,1-6.457,7.933,12.684,12.684,0,0,1-1.018,1.976,12.078,12.078,0,0,1-.7,1.006,12.92,12.92,0,0,0,13.973-9.307Z" transform="translate(-267.553 -250.616)" fill="#dddaec" fill-rule="evenodd"/>
    </g>
    <g id="Group_34326" data-name="Group 34326" transform="translate(47.754 14.675)">
      <path id="Path_51219" data-name="Path 51219" d="M65.283,127.788a10.867,10.867,0,0,0-4.923,20.567c4.055,1.8,9.037,1.758,12.825-2.217a10.82,10.82,0,0,0,2.992-7.481q0-.41-.029-.811a10.887,10.887,0,0,0-10.864-10.059Z" transform="translate(-54.393 -127.788)" fill="#ffd772" fill-rule="evenodd"/>
    </g>
    <g id="Group_34327" data-name="Group 34327" transform="translate(51.125 32.208)">
      <path id="Path_51220" data-name="Path 51220" d="M94.648,293.337l12.649,2.5a12.862,12.862,0,0,0-7.879-14.457l-.254-.1A12.9,12.9,0,0,0,86.339,283.5a12.619,12.619,0,0,0-2.6,2.978Z" transform="translate(-83.742 -280.469)" fill="#b1e4f9" fill-rule="evenodd"/>
    </g>
    <g id="Group_34328" data-name="Group 34328" transform="translate(49.14 42.579)">
      <path id="Path_51221" data-name="Path 51221" d="M90.258,380.134l-10.92-5.446-12.632-3.91a12.886,12.886,0,0,0,12.632,15.358h.023a12.931,12.931,0,0,0,10.192-5,12.036,12.036,0,0,0,.7-1.006Z" transform="translate(-66.46 -370.778)" fill="#b1e4f9" fill-rule="evenodd"/>
    </g>
    <g id="Group_34329" data-name="Group 34329" transform="translate(60.791 15.01)">
      <path id="Path_51222" data-name="Path 51222" d="M168.458,130.708c2.5,2.663,5.7,12.373-.538,17.259a12.425,12.425,0,0,1,1.876-.046,12.87,12.87,0,0,1,3.879.8,10.82,10.82,0,0,0,2.992-7.481q0-.41-.029-.811a10.884,10.884,0,0,0-8.179-9.723Z" transform="translate(-167.92 -130.708)" fill="#fbba58" fill-rule="evenodd"/>
    </g>
    <g id="Group_34330" data-name="Group 34330" transform="translate(61.32 49.516)">
      <path id="Path_51223" data-name="Path 51223" d="M184.141,433.6l-6.085-2.419c-.124.413-.258.814-.408,1.211a16.312,16.312,0,0,1-5.125,7.191c.232.013.467.02.7.02h.023a12.932,12.932,0,0,0,10.192-5A12.084,12.084,0,0,0,184.141,433.6Z" transform="translate(-172.523 -431.185)" fill="#75cef8" fill-rule="evenodd"/>
    </g>
    <g id="Group_34331" data-name="Group 34331" transform="translate(64.044 32.367)">
      <path id="Path_51224" data-name="Path 51224" d="M199.86,294.276l7.021,2.79A12.862,12.862,0,0,0,199,282.609l-.254-.1a12.677,12.677,0,0,0-2.5-.658,16.5,16.5,0,0,1,1.2,1.826,19.379,19.379,0,0,1,2.44,9.557C199.886,293.586,199.879,293.931,199.86,294.276Z" transform="translate(-196.245 -281.854)" fill="#75cef8" fill-rule="evenodd"/>
    </g>
    <g id="Group_34332" data-name="Group 34332" transform="translate(49.385 38.22)">
      <path id="Path_51225" data-name="Path 51225" d="M93.892,342.181l-13.582-5.4-9.974-3.962a12.873,12.873,0,0,0-1.067,2.093,13.2,13.2,0,0,0-.672,2.266l14.479,5.752,9.073,3.6a12.737,12.737,0,0,0,1.07-2.1A13.056,13.056,0,0,0,93.892,342.181Z" transform="translate(-68.598 -332.822)" fill="#75cef8" fill-rule="evenodd"/>
    </g>
    <g id="Group_34333" data-name="Group 34333" transform="translate(66.853 44.789)">
      <path id="Path_51226" data-name="Path 51226" d="M220.706,394.753l6.085,2.419a12.737,12.737,0,0,0,1.07-2.1,13.065,13.065,0,0,0,.672-2.253l-7.021-2.79a19.835,19.835,0,0,1-.806,4.727Z" transform="translate(-220.706 -390.026)" fill="#60b7ff" fill-rule="evenodd"/>
    </g>
    <g id="Group_34334" data-name="Group 34334" transform="translate(46.893 0)">
      <path id="Path_51227" data-name="Path 51227" d="M93.134,6.982A13.627,13.627,0,0,0,84.866.5h0a13.756,13.756,0,0,0-16.909,9.531l-1.806,6.489a11.759,11.759,0,0,0-15.164.126.861.861,0,1,0,1.122,1.307,10.036,10.036,0,0,1,16.571,7.589,9.941,9.941,0,0,1-2.388,6.479,13.788,13.788,0,0,0-12.656,2.189,10,10,0,0,1-3.9-13.272.861.861,0,1,0-1.529-.793A11.729,11.729,0,0,0,52.274,35.4,13.728,13.728,0,0,0,62.016,58.8a13.831,13.831,0,0,0,10.592-4.952q.585.051,1.171.051a13.821,13.821,0,0,0,7.6-2.287,13.682,13.682,0,0,0,5.66-7.744l1.4-5.016a.861.861,0,0,0-1.66-.462l-1.4,5.016A12.1,12.1,0,0,1,73.8,52.17a13.708,13.708,0,0,0-5.837-19.478,11.648,11.648,0,0,0,2.43-6.819l18.441,5.114-.976,3.5a.861.861,0,1,0,1.659.462l4.9-17.578A13.582,13.582,0,0,0,93.134,6.982ZM73.208,49.512a12.058,12.058,0,0,1-.638,1.349l-22.18-8.81a12.2,12.2,0,0,1,.467-1.419,12.041,12.041,0,0,1,.634-1.34l22.182,8.813a12.177,12.177,0,0,1-.465,1.407Zm-15.625,6.71A12.012,12.012,0,0,1,50.07,43.777L71.61,52.334A12.067,12.067,0,0,1,57.582,56.222ZM73.088,40.34A11.9,11.9,0,0,1,74,46.38L52.448,37.819a12.049,12.049,0,0,1,14.035-3.9h0a11.942,11.942,0,0,1,6.605,6.417ZM92.756,16.911,89.3,29.328,70.306,24.061A11.675,11.675,0,0,0,67.553,17.9l2.061-7.4A12.032,12.032,0,0,1,84.4,2.162h0a12.015,12.015,0,0,1,8.353,14.75Z" transform="translate(-46.893 0)"/>
      <path id="Path_51228" data-name="Path 51228" d="M166.616,207.421a.861.861,0,0,0,0-1.723h-.023a.861.861,0,0,0,0,1.723Z" transform="translate(-152.085 -182.076)"/>
      <path id="Path_51229" data-name="Path 51229" d="M145.57,248.212h.023a.861.861,0,1,0,0-1.723h-.023a.861.861,0,1,0,0,1.723Z" transform="translate(-133.476 -218.183)"/>
      <path id="Path_51230" data-name="Path 51230" d="M105.31,218.277a.861.861,0,0,0,0-1.723h-.026a.861.861,0,1,0,0,1.723Z" transform="translate(-97.816 -191.686)"/>
      <path id="Path_51231" data-name="Path 51231" d="M132.808,167.826h-.023a.861.861,0,0,0,0,1.723h.023a.861.861,0,0,0,0-1.723Z" transform="translate(-122.159 -148.554)"/>
    </g>
  </g>
</svg>
