<svg xmlns="http://www.w3.org/2000/svg" width="60.007" height="55.435" viewBox="0 0 60.007 55.435">
  <g id="Group_34307" data-name="Group 34307" transform="translate(0.001 -19.503)">
    <g id="Group_34305" data-name="Group 34305" transform="translate(0.879 20.382)">
      <path id="Path_51173" data-name="Path 51173" d="M96.379,117v38.441a4.688,4.688,0,0,1-4.688,4.688h-39.5a4.688,4.688,0,0,1-4.688-4.688V117Z" transform="translate(-42.819 -106.455)" fill="#f5f5f5"/>
      <path id="Path_51174" data-name="Path 51174" d="M54.539,160.132H52.195a4.688,4.688,0,0,1-4.688-4.688V117h2.344v38.441A4.688,4.688,0,0,0,54.539,160.132Z" transform="translate(-42.819 -106.455)" fill="#e6e6e6"/>
      <path id="Path_51175" data-name="Path 51175" d="M96.379,135v15.275a5.614,5.614,0,0,1-.938.079h-.82A5.626,5.626,0,0,1,89,144.731a5.626,5.626,0,0,1-11.251,0,5.625,5.625,0,0,1-5.626,5.626H72a5.626,5.626,0,0,1-5.626-5.626,5.625,5.625,0,0,1-5.626,5.626h-.234a5.626,5.626,0,0,1-5.626-5.626,5.625,5.625,0,0,1-5.626,5.626h-.82a5.614,5.614,0,0,1-.938-.079V135Z" transform="translate(-42.819 -122.345)" fill="#e6e6e6"/>
      <path id="Path_51176" data-name="Path 51176" d="M20.842,108.175,19.7,116.034a14.863,14.863,0,0,0-.118,1.868c0,.1,0,.2-.007.293a5.626,5.626,0,0,1-5.619,5.333h-.82A5.627,5.627,0,0,1,7.514,118.2c0-.1-.007-.195-.007-.293a4.184,4.184,0,0,1,.4-1.786l4.288-7.941L16.136,107Z" transform="translate(-7.507 -97.627)" fill="#fd646f"/>
      <path id="Path_51177" data-name="Path 51177" d="M121.993,108.175V117.9c0,.1,0,.2-.007.293a5.626,5.626,0,0,1-5.619,5.333h-.234a5.627,5.627,0,0,1-5.619-5.333c0-.1-.007-.195-.007-.293a14.861,14.861,0,0,1,.118-1.868l1.145-7.859L116.72,107Z" transform="translate(-98.436 -97.627)" fill="#ffc682"/>
      <path id="Path_51178" data-name="Path 51178" d="M219.875,108.175V117.9c0,.1,0,.2-.007.293a5.626,5.626,0,0,1-5.619,5.333h-.117a5.626,5.626,0,0,1-5.619-5.333c0-.1-.007-.195-.007-.293v-9.728l5.8-1.172Z" transform="translate(-184.95 -97.627)" fill="#fd646f"/>
      <path id="Path_51179" data-name="Path 51179" d="M316.758,117.9c0,.1,0,.2-.007.293a5.626,5.626,0,0,1-11.237,0c0-.1-.007-.195-.007-.293v-9.728L310.722,107l4.89,1.172,1.04,7.858A16.613,16.613,0,0,1,316.758,117.9Z" transform="translate(-270.582 -97.627)" fill="#ffc682"/>
      <path id="Path_51180" data-name="Path 51180" d="M404.945,117.9c0,.1,0,.2-.007.293a5.626,5.626,0,0,1-5.618,5.333h-.82a5.627,5.627,0,0,1-5.619-5.333c0-.1-.007-.195-.007-.293a16.613,16.613,0,0,0-.107-1.869l-1.04-7.858L395.981,107l4.275,1.172,4.288,7.941a4.134,4.134,0,0,1,.3.871,4.2,4.2,0,0,1,.1.915Z" transform="translate(-346.697 -97.627)" fill="#fd646f"/>
      <path id="Path_51181" data-name="Path 51181" d="M156.241,279.252a.879.879,0,0,0-.862-1.053H135.567l-.03-.14a3.238,3.238,0,0,0-3.153-2.556h-1.5a.879.879,0,1,0,0,1.758h1.5a1.472,1.472,0,0,1,1.433,1.162l2.612,12.339a3.239,3.239,0,0,0,2.221,2.413,2.637,2.637,0,1,0,4.917.142H147.5a2.637,2.637,0,1,0,4.972,0h.21a.879.879,0,1,0,0-1.758h-13.1a1.472,1.472,0,0,1-1.433-1.162l-.225-1.065h15.564a.879.879,0,0,0,.862-.705l.924-4.578a.872.872,0,0,0,.045-.221ZM141.96,294.2a.879.879,0,1,1-.879-.879A.88.88,0,0,1,141.96,294.2Zm8.907,0a.879.879,0,1,1-.879-.879A.88.88,0,0,1,150.868,294.2Zm2.847-11.31h-4.137l.366-2.93h4.362Zm-10.568,4.688-.366-2.93h4.806l-.366,2.93Zm-.586-4.688-.366-2.93h5.978l-.366,2.93Zm-2.138-2.93.366,2.93h-4.23l-.62-2.93Zm-3.491,4.688h4.077l.366,2.93h-3.823Zm12.061,2.93.366-2.93h4l-.591,2.93Z" transform="translate(-115.649 -246.38)" fill="#50758d"/>
      <path id="Path_51182" data-name="Path 51182" d="M7.567,202.5H19.624a5.626,5.626,0,0,1-5.619,5.333h-.82A5.627,5.627,0,0,1,7.567,202.5Z" transform="translate(-7.56 -181.935)" fill="#fc4755"/>
      <path id="Path_51183" data-name="Path 51183" d="M110.567,202.5h11.471a5.626,5.626,0,0,1-5.619,5.333h-.234a5.627,5.627,0,0,1-5.619-5.333Z" transform="translate(-98.488 -181.935)" fill="#ffac5c"/>
      <path id="Path_51184" data-name="Path 51184" d="M208.567,202.5h11.354a5.626,5.626,0,0,1-5.619,5.333h-.117a5.626,5.626,0,0,1-5.619-5.333Z" transform="translate(-185.003 -181.935)" fill="#fc4755"/>
      <path id="Path_51185" data-name="Path 51185" d="M305.567,202.5H316.8a5.626,5.626,0,0,1-11.237,0Z" transform="translate(-270.635 -181.935)" fill="#ffac5c"/>
      <path id="Path_51186" data-name="Path 51186" d="M413.624,202.5a5.626,5.626,0,0,1-5.619,5.333h-.82a5.627,5.627,0,0,1-5.619-5.333Z" transform="translate(-355.384 -181.935)" fill="#fc4755"/>
      <path id="Path_51187" data-name="Path 51187" d="M47.507,37.551v-5.86A4.688,4.688,0,0,1,52.195,27h39.5a4.688,4.688,0,0,1,4.688,4.688v5.86Z" transform="translate(-42.819 -27.003)" fill="#50758d"/>
      <g id="Group_34304" data-name="Group 34304" transform="translate(6.71 2.608)">
        <path id="Path_51188" data-name="Path 51188" d="M70.1,53.6a2.635,2.635,0,1,0-4.042-3.383L65.39,51a2.635,2.635,0,1,0,4.042,3.383Z" transform="translate(-64.757 -49.254)" fill="#2b597f"/>
        <path id="Path_51189" data-name="Path 51189" d="M129.351,53.852a2.635,2.635,0,1,0-4.042-3.383l-.67.781a2.635,2.635,0,1,0,4.042,3.383Z" transform="translate(-117.063 -49.475)" fill="#2b597f"/>
        <path id="Path_51190" data-name="Path 51190" d="M188.351,53.852a2.635,2.635,0,1,0-4.042-3.383l-.67.781a2.635,2.635,0,1,0,4.042,3.383l.67-.781Z" transform="translate(-169.148 -49.475)" fill="#2b597f"/>
      </g>
      <path id="Path_51191" data-name="Path 51191" d="M73.394,54.527a2.637,2.637,0,1,1,2.637-2.637A2.64,2.64,0,0,1,73.394,54.527Z" transform="translate(-63.344 -46.645)" fill="#fd646f"/>
      <path id="Path_51192" data-name="Path 51192" d="M132.644,54.777a2.637,2.637,0,1,1,2.637-2.637A2.64,2.64,0,0,1,132.644,54.777Z" transform="translate(-115.65 -46.866)" fill="#ffc682"/>
      <path id="Path_51193" data-name="Path 51193" d="M191.644,54.777a2.637,2.637,0,1,1,2.637-2.637A2.64,2.64,0,0,1,191.644,54.777Z" transform="translate(-167.735 -46.866)" fill="#93ddb7"/>
      <path id="Path_51194" data-name="Path 51194" d="M278.939,53.852a2.635,2.635,0,0,0-2-4.348H261.347a2.633,2.633,0,0,0-2.038.965l-.67.781a2.635,2.635,0,0,0,2,4.348h15.587a2.633,2.633,0,0,0,2.038-.965l.67-.781Z" transform="translate(-228.649 -46.867)" fill="#2b597f"/>
      <path id="Path_51195" data-name="Path 51195" d="M282.231,54.777H266.644a2.637,2.637,0,0,1,0-5.274h15.587a2.637,2.637,0,0,1,0,5.274Z" transform="translate(-233.945 -46.866)" fill="#f5f5f5"/>
      <path id="Path_51196" data-name="Path 51196" d="M132.644,54.777a2.637,2.637,0,1,1,2.637-2.637A2.64,2.64,0,0,1,132.644,54.777Z" transform="translate(-115.65 -46.866)" fill="#ffc682"/>
      <path id="Path_51197" data-name="Path 51197" d="M191.644,54.777a2.637,2.637,0,1,1,2.637-2.637A2.64,2.64,0,0,1,191.644,54.777Z" transform="translate(-167.735 -46.866)" fill="#93ddb7"/>
    </g>
    <g id="Group_34306" data-name="Group 34306" transform="translate(-0.001 19.503)">
      <path id="Path_51198" data-name="Path 51198" d="M70.757,51.89a2.637,2.637,0,1,0,2.637-2.637A2.64,2.64,0,0,0,70.757,51.89Zm3.516,0a.879.879,0,1,1-.879-.879A.88.88,0,0,1,74.273,51.89Z" transform="translate(-62.464 -45.766)"/>
      <path id="Path_51199" data-name="Path 51199" d="M130.007,52.14a2.637,2.637,0,1,0,2.637-2.637A2.64,2.64,0,0,0,130.007,52.14Zm3.516,0a.879.879,0,1,1-.879-.879A.88.88,0,0,1,133.523,52.14Z" transform="translate(-114.77 -45.987)"/>
      <path id="Path_51200" data-name="Path 51200" d="M189.007,52.14a2.637,2.637,0,1,0,2.637-2.637A2.64,2.64,0,0,0,189.007,52.14Zm3.516,0a.879.879,0,1,1-.879-.879A.88.88,0,0,1,192.523,52.14Z" transform="translate(-166.855 -45.987)"/>
      <path id="Path_51201" data-name="Path 51201" d="M264.007,52.14a2.64,2.64,0,0,0,2.637,2.637h15.587a2.637,2.637,0,0,0,0-5.274H266.644A2.64,2.64,0,0,0,264.007,52.14Zm19.1,0a.88.88,0,0,1-.879.879H266.644a.879.879,0,0,1,0-1.758h15.587A.88.88,0,0,1,283.11,52.14Z" transform="translate(-233.066 -45.987)"/>
      <path id="Path_51202" data-name="Path 51202" d="M60.006,40.657a5.107,5.107,0,0,0-.483-2.16c-.007-.015-.014-.029-.022-.043l-4.183-7.746V25.07A5.573,5.573,0,0,0,49.751,19.5H43.715a.879.879,0,0,0,0,1.758h6.036A3.813,3.813,0,0,1,53.56,25.07v4.981H6.446V25.07a3.813,3.813,0,0,1,3.809-3.809H39.613a.879.879,0,0,0,0-1.758H10.255A5.573,5.573,0,0,0,4.688,25.07v5.638l-1.86,3.444a.879.879,0,1,0,1.547.835l1.716-3.178H13.2l-1,6.854,0,.016a15.766,15.766,0,0,0-.125,1.978A4.752,4.752,0,0,1,7.325,45.4a4.878,4.878,0,0,1-5.567-4.747,3.9,3.9,0,0,1,.663-2.051.879.879,0,1,0-1.547-.835A5.484,5.484,0,0,0,0,40.657,6.515,6.515,0,0,0,4.688,46.9V69.371a5.573,5.573,0,0,0,5.567,5.567h39.5a5.573,5.573,0,0,0,5.567-5.567V65.679a.879.879,0,0,0-1.758,0v3.692a3.813,3.813,0,0,1-3.809,3.809h-39.5a3.813,3.813,0,0,1-3.809-3.809V47.161l.879,0a6.507,6.507,0,0,0,5.627-3.247,6.51,6.51,0,0,0,3.388,2.853.879.879,0,0,0,.6-1.651,4.764,4.764,0,0,1-3.115-4.459,14.5,14.5,0,0,1,.11-1.752l1.034-7.1h8.583v8.849a4.764,4.764,0,0,1-3.115,4.459.879.879,0,0,0,.6,1.651,6.51,6.51,0,0,0,3.388-2.853,6.507,6.507,0,0,0,5.627,3.247h.117A6.507,6.507,0,0,0,35.8,43.917a6.5,6.5,0,0,0,11.251,0,6.507,6.507,0,0,0,5.626,3.245l.879,0V61.578a.879.879,0,0,0,1.758,0V46.9a6.515,6.515,0,0,0,4.688-6.245ZM30.179,45.4h-.117a4.752,4.752,0,0,1-4.747-4.747V31.809h9.61v8.849A4.752,4.752,0,0,1,30.179,45.4Zm11.251,0a4.752,4.752,0,0,1-4.747-4.747V31.809h8.456l.937,7.085a16.061,16.061,0,0,1,.1,1.763A4.752,4.752,0,0,1,41.43,45.4Zm13.019-.1a9.3,9.3,0,0,1-1.768.1,4.752,4.752,0,0,1-4.747-4.747,17.277,17.277,0,0,0-.113-1.97l0-.015-.908-6.864h7l4.027,7.458a3.337,3.337,0,0,1,.306,1.391,4.754,4.754,0,0,1-3.8,4.651Z" transform="translate(0.001 -19.503)"/>
      <path id="Path_51203" data-name="Path 51203" d="M142.369,289.333h11.119a.879.879,0,0,0,.862-.705l1.892-9.376a.885.885,0,0,0-.862-1.053H135.567a3.247,3.247,0,0,0-3.183-2.7h-1.5a.879.879,0,1,0,0,1.758h1.5a1.472,1.472,0,0,1,1.433,1.162l2.612,12.339a3.239,3.239,0,0,0,2.221,2.413,2.637,2.637,0,1,0,4.917.142H147.5a2.637,2.637,0,1,0,4.972,0h.21a.879.879,0,1,0,0-1.758h-13.1a1.472,1.472,0,0,1-1.433-1.162l-.225-1.065h4.446Zm-.409,4.864a.879.879,0,1,1-.879-.879A.88.88,0,0,1,141.96,294.2Zm8.907,0a.879.879,0,1,1-.879-.879A.88.88,0,0,1,150.868,294.2Zm-3.281-9.552-.366,2.93h-4.074l-.366-2.93Zm-5.026-1.758-.366-2.93h5.978l-.366,2.93Zm6.431,4.688.366-2.93h4l-.591,2.93Zm4.723-4.688h-4.137l.366-2.93h4.362Zm-13.292-2.93.366,2.93h-4.23l-.62-2.93Zm-3.491,4.688h4.077l.366,2.93h-3.823Z" transform="translate(-114.769 -245.5)"/>
    </g>
  </g>
</svg>
