<svg xmlns="http://www.w3.org/2000/svg" width="60" height="59.134" viewBox="0 0 60 59.134">
  <g id="Group_34337" data-name="Group 34337" transform="translate(0.001 -0.923)">
    <path id="Path_51247" data-name="Path 51247" d="M11.812,39.625H50.249V34H11.812a2.812,2.812,0,1,0,0,5.625Z" transform="translate(-0.563 -2.068)" fill="#eceff0"/>
    <path id="Path_51248" data-name="Path 51248" d="M10.068,48a5.156,5.156,0,1,0,0,10.312s47.425-.012,47.425-.026V48.026c0-.014-47.425-.026-47.425-.026Z" transform="translate(-0.307 -2.943)" fill="#dedfdf"/>
    <path id="Path_51249" data-name="Path 51249" d="M4.584,52.906A5.156,5.156,0,0,1,9.74,47.75H57.249a1.875,1.875,0,0,0,0-3.75H9.906a8.906,8.906,0,1,0,0,17.812H57.249a1.875,1.875,0,0,0,0-3.75H9.74a5.156,5.156,0,0,1-5.156-5.156Z" transform="translate(-0.063 -2.693)" fill="#db3a3a"/>
    <path id="Path_51250" data-name="Path 51250" d="M11.564,39.375H50a1.875,1.875,0,1,1,0,3.75H11.587a6.562,6.562,0,1,1,0-13.125H50a1.875,1.875,0,1,1,0,3.75H11.564a2.812,2.812,0,1,0,0,5.625Z" transform="translate(-0.314 -1.818)" fill="#5783e4"/>
    <path id="Path_51251" data-name="Path 51251" d="M17,29.125s3.516,4.687,14.062,4.687,14.062-4.687,14.062-4.687V16H17Z" transform="translate(-1.063 -0.943)" fill="#414141"/>
    <path id="Path_51252" data-name="Path 51252" d="M30.437,2,7,11.375,30.437,20.75l23.437-9.375Z" transform="translate(-0.438 -0.067)" fill="#5a5a5a"/>
    <path id="Path_51253" data-name="Path 51253" d="M50,35.25h5.625L53.75,24H51.875Z" transform="translate(-3.126 -1.443)" fill="#ffdc32"/>
    <circle id="Ellipse_46" data-name="Ellipse 46" cx="2.344" cy="2.344" r="2.344" transform="translate(47.343 20.214)" fill="#facd1e"/>
    <path id="Path_51254" data-name="Path 51254" d="M58.124,54.6V45.822a2.806,2.806,0,0,0-.937-5.452h-4.86a2.778,2.778,0,0,0,.173-.937,2.808,2.808,0,0,0-1.875-2.64V34.745h2.982l-1.64-9.836a3.26,3.26,0,0,0-1.342-5.48V15.349l-2.441-.93,7.778-3.111L30,.923,4.038,11.308,15,15.692V27.245H11.25A7.492,7.492,0,0,0,6.88,40.827,9.843,9.843,0,0,0,9.844,60.057H57.187a2.806,2.806,0,0,0,.937-5.452ZM56.249,47.87H39.374v1.875H56.249v4.687H9.677a4.219,4.219,0,0,1,0-8.437H56.249Zm-7.5-11.25H11.25a1.875,1.875,0,1,1,0-3.75H22.477A28.233,28.233,0,0,0,30,33.807a28.233,28.233,0,0,0,7.523-.937H46.08l-.313,1.875h2.982Zm-4.266-7.5h2.223l-.313,1.875H42.057a11.388,11.388,0,0,0,2.426-1.875Zm6.909,3.75H47.981l1.181-7.084a2.625,2.625,0,0,0,1.05,0Zm-.3-10.312a1.406,1.406,0,1,1-1.406-1.406,1.406,1.406,0,0,1,1.406,1.406Zm-2.344-5.916V19.43a3.26,3.26,0,0,0-1.342,5.48l-.389,2.335H45V15.692l.614-.246ZM30,2.942l20.913,8.365L45.6,13.434,30.333,7.619l-.667,1.752,13.362,5.091L30,19.673,9.086,11.308Zm0,18.75,13.125-5.25V27.827c-.84.871-4.542,4.105-13.125,4.105s-12.293-3.242-13.125-4.1V16.442ZM5.625,34.745A5.631,5.631,0,0,1,11.25,29.12h4.267a11.388,11.388,0,0,0,2.426,1.875H11.25a3.75,3.75,0,0,0,0,7.5H49.687a.937.937,0,1,1,0,1.875H11.25a5.631,5.631,0,0,1-5.625-5.625ZM57.187,58.182H9.844a7.969,7.969,0,1,1,0-15.937H57.187a.937.937,0,1,1,0,1.875H9.677a6.094,6.094,0,1,0,0,12.187H57.187a.937.937,0,1,1,0,1.875Z" transform="translate(0)"/>
    <path id="Path_51255" data-name="Path 51255" d="M10,54H36.25v1.875H10Z" transform="translate(-0.625 -3.318)"/>
  </g>
</svg>
