<svg xmlns="http://www.w3.org/2000/svg" width="58" height="58" viewBox="0 0 58 58">
  <g id="Group_34359" data-name="Group 34359" transform="translate(-1 -1)">
    <g id="Group_34357" data-name="Group 34357" transform="translate(1.935 1.935)">
      <g id="Group_34342" data-name="Group 34342" transform="translate(0 0)">
        <path id="Path_51256" data-name="Path 51256" d="M26.323,3.871v7.484H22.581A3.741,3.741,0,0,0,18.839,15.1v9.355H3.871A1.876,1.876,0,0,1,2,22.581V3.871A1.876,1.876,0,0,1,3.871,2H24.452A1.876,1.876,0,0,1,26.323,3.871Z" transform="translate(-2 -2)" fill="#e6e9ed"/>
      </g>
      <g id="Group_34343" data-name="Group 34343" transform="translate(31.806 33.677)">
        <path id="Path_51257" data-name="Path 51257" d="M60.323,39.871v18.71a1.876,1.876,0,0,1-1.871,1.871H37.871A1.876,1.876,0,0,1,36,58.581V51.1h3.742a3.732,3.732,0,0,0,1.871-.505v5.183l13.1-6.548L43.484,43.613V38H58.452A1.876,1.876,0,0,1,60.323,39.871Z" transform="translate(-36 -38)" fill="#e6e9ed"/>
      </g>
      <g id="Group_34344" data-name="Group 34344" transform="translate(0 33.677)">
        <path id="Path_51258" data-name="Path 51258" d="M18.839,43.613v1.431A5.586,5.586,0,0,0,15.1,43.613H5.742V54.839h18.71V51.1h3.742v7.484a1.876,1.876,0,0,1-1.871,1.871H3.871A1.876,1.876,0,0,1,2,58.581V39.871A1.876,1.876,0,0,1,3.871,38H18.839Z" transform="translate(-2 -38)" fill="#ffeaa7"/>
      </g>
      <g id="Group_34345" data-name="Group 34345" transform="translate(31.806 0)">
        <path id="Path_51259" data-name="Path 51259" d="M60.323,3.871v18.71a1.876,1.876,0,0,1-1.871,1.871H43.484V18.839h10.29a2.8,2.8,0,0,0,.8-5.482,5.04,5.04,0,0,0,.131-1.066,4.678,4.678,0,0,0-8.981-1.834,2.415,2.415,0,0,0-.374-.037,2.8,2.8,0,0,0-2.75,2.264,3.753,3.753,0,0,0-2.863-1.328H36V3.871A1.876,1.876,0,0,1,37.871,2H58.452A1.876,1.876,0,0,1,60.323,3.871Z" transform="translate(-36 -2)" fill="#ffeaa7"/>
      </g>
      <g id="Group_34346" data-name="Group 34346" transform="translate(3.742 39.29)">
        <path id="Path_51260" data-name="Path 51260" d="M6,44h9.355a5.613,5.613,0,0,0,0,11.226H6Z" transform="translate(-6 -44)" fill="#ccd1d9"/>
      </g>
      <g id="Group_34347" data-name="Group 34347" transform="translate(13.097 46.185)">
        <path id="Path_51261" data-name="Path 51261" d="M25.355,51.959V55.7H16a5.618,5.618,0,0,0,5.463-4.331,3.756,3.756,0,0,0,2.021.589Z" transform="translate(-16 -51.37)" fill="#ccd1d9"/>
      </g>
      <g id="Group_34348" data-name="Group 34348" transform="translate(7.484 39.29)">
        <path id="Path_51262" data-name="Path 51262" d="M19.355,47.742a3.751,3.751,0,0,0,1.721,3.153,5.614,5.614,0,1,1-1.721-5.463Z" transform="translate(-10 -44)" fill="#69d6f4"/>
      </g>
      <g id="Group_34349" data-name="Group 34349" transform="translate(11.226 43.032)">
        <circle id="Ellipse_47" data-name="Ellipse 47" cx="2" cy="2" r="2" transform="translate(-0.161 0.032)" fill="#4fc1e9"/>
      </g>
      <g id="Group_34350" data-name="Group 34350" transform="translate(37.419 39.29)">
        <path id="Path_51263" data-name="Path 51263" d="M55.1,49.613,42,56.161V50.979a3.723,3.723,0,0,0,1.871-3.237V44Z" transform="translate(-42 -44)" fill="#ff826e"/>
      </g>
      <g id="Group_34351" data-name="Group 34351" transform="translate(7.484 14.968)">
        <circle id="Ellipse_48" data-name="Ellipse 48" cx="2" cy="2" r="2" transform="translate(-0.419 0.097)" fill="#ff826e"/>
      </g>
      <g id="Group_34352" data-name="Group 34352" transform="translate(38.411 5.613)">
        <path id="Path_51264" data-name="Path 51264" d="M55.034,13.744a2.8,2.8,0,0,1-.8,5.482H43.939V15.484a3.78,3.78,0,0,0-.879-2.414,2.8,2.8,0,0,1,2.75-2.264,2.415,2.415,0,0,1,.374.037,4.678,4.678,0,0,1,8.981,1.834A5.041,5.041,0,0,1,55.034,13.744Z" transform="translate(-43.06 -8)" fill="#e6e9ed"/>
      </g>
      <g id="Group_34353" data-name="Group 34353" transform="translate(16.839 9.355)">
        <path id="Path_51265" data-name="Path 51265" d="M42.452,15.742v3.742H20V15.742A3.741,3.741,0,0,1,23.742,12H38.71a3.736,3.736,0,0,1,3.742,3.742Z" transform="translate(-20 -12)" fill="#969faa"/>
      </g>
      <g id="Group_34354" data-name="Group 34354" transform="translate(16.839 39.29)">
        <path id="Path_51266" data-name="Path 51266" d="M42.452,44v3.742a3.751,3.751,0,0,1-3.742,3.742H23.742A3.735,3.735,0,0,1,20,47.742V44Z" transform="translate(-20 -44)" fill="#969faa"/>
      </g>
      <g id="Group_34355" data-name="Group 34355" transform="translate(16.839 16.839)">
        <path id="Path_51267" data-name="Path 51267" d="M42.452,36.839v5.613H20V20H42.452V36.839Z" transform="translate(-20 -20)" fill="#69d6f4"/>
      </g>
      <g id="Group_34356" data-name="Group 34356" transform="translate(20.581 20.581)">
        <path id="Path_51268" data-name="Path 51268" d="M24,24H38.968V38.968H24Z" transform="translate(-24 -24)" fill="#fcd770"/>
      </g>
    </g>
    <g id="Group_34358" data-name="Group 34358" transform="translate(1 1)">
      <path id="Path_51269" data-name="Path 51269" d="M31,15h5.613v1.871H31Z" transform="translate(-2.935 -1.903)"/>
      <path id="Path_51270" data-name="Path 51270" d="M27,15h1.871v1.871H27Z" transform="translate(-2.677 -1.903)"/>
      <path id="Path_51271" data-name="Path 51271" d="M28,47h7.484v1.871H28Z" transform="translate(-2.742 -3.968)"/>
      <path id="Path_51272" data-name="Path 51272" d="M39.839,39.839V23H23V39.839ZM24.871,24.871h13.1v13.1h-13.1Z" transform="translate(-2.419 -2.419)"/>
      <path id="Path_51273" data-name="Path 51273" d="M56.194,25.323A2.81,2.81,0,0,0,59,22.516V3.806A2.81,2.81,0,0,0,56.194,1H35.613a2.81,2.81,0,0,0-2.806,2.806v6.548H27.194V3.806A2.81,2.81,0,0,0,24.387,1H3.806A2.81,2.81,0,0,0,1,3.806v18.71a2.81,2.81,0,0,0,2.806,2.806H17.839v9.355H3.806A2.81,2.81,0,0,0,1,37.484v18.71A2.81,2.81,0,0,0,3.806,59H26.258a2.81,2.81,0,0,0,2.806-2.806V49.645h3.742v6.548A2.81,2.81,0,0,0,35.613,59H56.194A2.81,2.81,0,0,0,59,56.194V37.484a2.81,2.81,0,0,0-2.806-2.806H42.161V25.323ZM34.677,3.806a.936.936,0,0,1,.935-.935H56.194a.936.936,0,0,1,.935.935v18.71a.936.936,0,0,1-.935.935H42.161V19.71h9.355a3.746,3.746,0,0,0,3.742-3.742,3.7,3.7,0,0,0-1.9-3.244c.017-.168.025-.334.025-.5a5.613,5.613,0,0,0-10.476-2.8A3.742,3.742,0,0,0,39.99,11.1a4.638,4.638,0,0,0-2.506-.742H34.677ZM10.355,46.839a4.654,4.654,0,0,1,7.484-3.719v1.848a4.647,4.647,0,0,0,1.575,3.473,4.67,4.67,0,0,1-9.059-1.6Zm.1,4.677H6.613V42.161h3.846a6.527,6.527,0,0,0,0,9.355ZM52.05,14.188a1.851,1.851,0,0,1,1.337,1.779,1.873,1.873,0,0,1-1.871,1.871H42.161V15.032a4.644,4.644,0,0,0-.789-2.591A1.872,1.872,0,0,1,43.1,11.29a2.145,2.145,0,0,1,.252.029l.7.094.279-.654a3.734,3.734,0,0,1,7.076,2.319l-.2.857Zm-11.76.844v2.806H19.71V15.032a2.81,2.81,0,0,1,2.806-2.806H37.484A2.81,2.81,0,0,1,40.29,15.032ZM21.065,49.392a4.607,4.607,0,0,0,1.451.254h.935v1.871H19.6a6.489,6.489,0,0,0,1.467-2.124Zm1.451-1.617a2.81,2.81,0,0,1-2.806-2.806V42.161H40.29v2.806a2.81,2.81,0,0,1-2.806,2.806Zm17.774.911a4.658,4.658,0,0,0,1.871-3.718V42.739l8.2,4.1L40.29,51.873Zm0-8.4H19.71V19.71H40.29ZM3.806,23.452a.936.936,0,0,1-.935-.935V3.806a.936.936,0,0,1,.935-.935H24.387a.936.936,0,0,1,.935.935v6.548H22.516a4.683,4.683,0,0,0-4.677,4.677v8.419ZM27.194,56.194a.936.936,0,0,1-.935.935H3.806a.936.936,0,0,1-.935-.935V37.484a.936.936,0,0,1,.935-.935H17.839v4.376a6.546,6.546,0,0,0-2.806-.634H4.742v13.1H25.323V49.645h1.871Zm29-19.645a.936.936,0,0,1,.935.935v18.71a.936.936,0,0,1-.935.935H35.613a.936.936,0,0,1-.935-.935V49.645h2.806a4.673,4.673,0,0,0,.935-.094V54.9l16.124-8.062L42.161,40.648v-4.1Z" transform="translate(-1 -1)"/>
      <path id="Path_51274" data-name="Path 51274" d="M22.2,5.934,12.742,4.883V16.39a2.775,2.775,0,0,0-.935-.172,2.806,2.806,0,1,0,2.806,2.806V6.973l7.381.82ZM11.806,19.96a.935.935,0,1,1,.935-.935A.936.936,0,0,1,11.806,19.96Z" transform="translate(-1.516 -1.251)"/>
      <path id="Path_51275" data-name="Path 51275" d="M15.806,47a2.806,2.806,0,1,0,2.806,2.806A2.81,2.81,0,0,0,15.806,47Zm0,3.742a.935.935,0,1,1,.935-.935A.936.936,0,0,1,15.806,50.742Z" transform="translate(-1.774 -3.968)"/>
    </g>
  </g>
</svg>
