<svg xmlns="http://www.w3.org/2000/svg" width="53.314" height="58.52" viewBox="0 0 53.314 58.52">
  <g id="Group_34237" data-name="Group 34237" transform="translate(-14.281 -3.176)">
    <g id="Group_34180" data-name="Group 34180" transform="translate(14.384 3.176)">
      <g id="Group_34179" data-name="Group 34179" transform="translate(0 0)">
        <g id="Group_34130" data-name="Group 34130" transform="translate(6.809 15.202)">
          <g id="Group_34129" data-name="Group 34129">
            <g id="Group_34128" data-name="Group 34128">
              <path id="Path_50998" data-name="Path 50998" d="M79.988,71.545a3.516,3.516,0,0,0-3.516-3.516H47.282a3.516,3.516,0,0,0-3.516,3.516V90.821a3.516,3.516,0,0,0,3.516,3.516h29.19a3.516,3.516,0,0,0,3.516-3.516Z" transform="translate(-43.766 -68.029)" fill="#a54af4"/>
            </g>
          </g>
        </g>
        <g id="Group_34133" data-name="Group 34133" transform="translate(7.747 19.898)">
          <g id="Group_34132" data-name="Group 34132">
            <g id="Group_34131" data-name="Group 34131">
              <path id="Path_50999" data-name="Path 50999" d="M48.235,104.84a.469.469,0,0,1-.469-.469V90.541a.469.469,0,1,1,.938,0v13.83A.469.469,0,0,1,48.235,104.84Zm0-15.706a.469.469,0,0,1-.469-.469v-.135a.469.469,0,0,1,.938,0v.135A.469.469,0,0,1,48.235,89.135Z" transform="translate(-47.766 -88.062)" fill="#b171f4"/>
            </g>
          </g>
        </g>
        <g id="Group_34135" data-name="Group 34135" transform="translate(6.961 15.354)">
          <g id="Group_34134" data-name="Group 34134">
            <path id="Path_51000" data-name="Path 51000" d="M77.987,68.676a3.51,3.51,0,0,1,.152,1.02V88.972a3.516,3.516,0,0,1-3.516,3.516H45.433a3.509,3.509,0,0,1-1.02-.152,3.517,3.517,0,0,0,3.365,2.5h29.19a3.516,3.516,0,0,0,3.516-3.516V72.04A3.516,3.516,0,0,0,77.987,68.676Z" transform="translate(-44.413 -68.676)" fill="#893add"/>
          </g>
        </g>
        <g id="Group_34137" data-name="Group 34137" transform="translate(7.325 15.719)">
          <g id="Group_34136" data-name="Group 34136">
            <path id="Path_51001" data-name="Path 51001" d="M79.986,70.232A3.494,3.494,0,0,1,80.5,72.06V91.335a3.516,3.516,0,0,1-3.516,3.516H47.8a3.5,3.5,0,0,1-1.828-.516,3.51,3.51,0,0,0,3,1.688h29.19a3.516,3.516,0,0,0,3.516-3.516V73.232A3.51,3.51,0,0,0,79.986,70.232Z" transform="translate(-45.969 -70.232)" fill="#6c2bc1"/>
          </g>
        </g>
        <path id="Path_51002" data-name="Path 51002" d="M101.153,49.228a7.6,7.6,0,0,1-7.375-5.756H90.987a7.6,7.6,0,0,1-7.375,5.756Z" transform="translate(-67.463 -34.026)" fill="#414042"/>
        <g id="Group_34139" data-name="Group 34139" transform="translate(16.999 20.367)">
          <g id="Group_34138" data-name="Group 34138">
            <circle id="Ellipse_31" data-name="Ellipse 31" cx="7.92" cy="7.92" r="7.92" fill="#6c2bc1"/>
          </g>
        </g>
        <g id="Group_34141" data-name="Group 34141" transform="translate(22.156 23.656)">
          <g id="Group_34140" data-name="Group 34140">
            <path id="Path_51003" data-name="Path 51003" d="M109.236,112.688v-7.93a.665.665,0,0,1,1.027-.558l6.117,3.965a.665.665,0,0,1,0,1.117l-6.117,3.965A.665.665,0,0,1,109.236,112.688Z" transform="translate(-109.236 -104.092)" fill="#ffc91d"/>
          </g>
        </g>
        <g id="Group_34143" data-name="Group 34143" transform="translate(22.156 27.162)">
          <g id="Group_34142" data-name="Group 34142">
            <path id="Path_51004" data-name="Path 51004" d="M116.38,119.618l-.874-.567a.654.654,0,0,1-.3.511l-5.972,3.871v.708a.665.665,0,0,0,1.027.558l6.117-3.965A.665.665,0,0,0,116.38,119.618Z" transform="translate(-109.236 -119.051)" fill="#ffa91a"/>
          </g>
        </g>
        <g id="Group_34146" data-name="Group 34146" transform="translate(43.031 19.926)">
          <g id="Group_34145" data-name="Group 34145">
            <g id="Group_34144" data-name="Group 34144">
              <path id="Path_51005" data-name="Path 51005" d="M198.289,90.714v11.512l6.37,2.533V88.181Z" transform="translate(-198.289 -88.181)" fill="#58595b"/>
            </g>
          </g>
        </g>
        <g id="Group_34148" data-name="Group 34148" transform="translate(43.031 32.799)">
          <g id="Group_34147" data-name="Group 34147">
            <path id="Path_51006" data-name="Path 51006" d="M198.289,144.27l6.37,2.533v-1.172l-6.37-2.533Z" transform="translate(-198.289 -143.098)" fill="#414042"/>
          </g>
        </g>
        <g id="Group_34165" data-name="Group 34165" transform="translate(8.549)">
          <g id="Group_34151" data-name="Group 34151">
            <g id="Group_34150" data-name="Group 34150">
              <g id="Group_34149" data-name="Group 34149">
                <path id="Path_51007" data-name="Path 51007" d="M58.788,3.176a7.6,7.6,0,1,0,7.6,7.6,7.6,7.6,0,0,0-7.6-7.6Z" transform="translate(-51.187 -3.176)" fill="#808285"/>
              </g>
            </g>
          </g>
          <g id="Group_34153" data-name="Group 34153" transform="translate(1.673 1.673)">
            <g id="Group_34152" data-name="Group 34152">
              <path id="Path_51008" data-name="Path 51008" d="M69.009,10.315A7.6,7.6,0,0,1,58.326,21,7.6,7.6,0,1,0,69.009,10.315Z" transform="translate(-58.326 -10.315)" fill="#58595b"/>
            </g>
          </g>
          <g id="Group_34156" data-name="Group 34156" transform="translate(3.74 3.74)">
            <g id="Group_34155" data-name="Group 34155">
              <g id="Group_34154" data-name="Group 34154">
                <path id="Path_51009" data-name="Path 51009" d="M71,19.133a3.861,3.861,0,1,0,3.861,3.861A3.861,3.861,0,0,0,71,19.133Z" transform="translate(-67.143 -19.133)" fill="#d1d3d4"/>
              </g>
            </g>
          </g>
          <g id="Group_34159" data-name="Group 34159" transform="translate(17.541)">
            <g id="Group_34158" data-name="Group 34158">
              <g id="Group_34157" data-name="Group 34157">
                <path id="Path_51010" data-name="Path 51010" d="M133.617,3.176a7.6,7.6,0,1,0,7.6,7.6,7.6,7.6,0,0,0-7.6-7.6Z" transform="translate(-126.016 -3.176)" fill="#808285"/>
              </g>
            </g>
          </g>
          <g id="Group_34161" data-name="Group 34161" transform="translate(19.214 1.673)">
            <g id="Group_34160" data-name="Group 34160">
              <path id="Path_51011" data-name="Path 51011" d="M143.838,10.315A7.6,7.6,0,0,1,133.155,21a7.6,7.6,0,1,0,10.683-10.683Z" transform="translate(-133.155 -10.315)" fill="#58595b"/>
            </g>
          </g>
          <g id="Group_34164" data-name="Group 34164" transform="translate(21.281 3.74)">
            <g id="Group_34163" data-name="Group 34163">
              <g id="Group_34162" data-name="Group 34162">
                <path id="Path_51012" data-name="Path 51012" d="M145.833,19.133a3.861,3.861,0,1,0,3.861,3.861A3.861,3.861,0,0,0,145.833,19.133Z" transform="translate(-141.972 -19.133)" fill="#d1d3d4"/>
              </g>
            </g>
          </g>
        </g>
        <g id="Group_34167" data-name="Group 34167" transform="translate(49.401 19.926)">
          <g id="Group_34166" data-name="Group 34166">
            <path id="Path_51013" data-name="Path 51013" d="M228.1,104.78h-2.638v-16.6H228.1a1.172,1.172,0,0,1,1.172,1.172v14.255A1.172,1.172,0,0,1,228.1,104.78Z" transform="translate(-225.465 -88.181)" fill="#939598"/>
          </g>
        </g>
        <g id="Group_34169" data-name="Group 34169" transform="translate(49.401 19.926)">
          <g id="Group_34168" data-name="Group 34168">
            <path id="Path_51014" data-name="Path 51014" d="M228.1,88.181v14.255a1.172,1.172,0,0,1-1.172,1.172h-1.466v1.172H228.1a1.172,1.172,0,0,0,1.172-1.172V89.353A1.172,1.172,0,0,0,228.1,88.181Z" transform="translate(-225.465 -88.181)" fill="#808285"/>
          </g>
        </g>
        <g id="Group_34178" data-name="Group 34178" transform="translate(0 20.861)">
          <g id="Group_34171" data-name="Group 34171" transform="translate(2.731 2.32)">
            <g id="Group_34170" data-name="Group 34170">
              <path id="Path_51015" data-name="Path 51015" d="M26.371,102.066h4.074v10.35H26.371Z" transform="translate(-26.371 -102.066)" fill="#58595b"/>
            </g>
          </g>
          <g id="Group_34173" data-name="Group 34173" transform="translate(2.731 11.498)">
            <g id="Group_34172" data-name="Group 34172">
              <path id="Path_51016" data-name="Path 51016" d="M26.371,141.221h4.074v1.172H26.371Z" transform="translate(-26.371 -141.221)" fill="#414042"/>
            </g>
          </g>
          <g id="Group_34175" data-name="Group 34175">
            <g id="Group_34174" data-name="Group 34174">
              <path id="Path_51017" data-name="Path 51017" d="M16.085,107.16a1.366,1.366,0,0,1-1.366-1.366V93.536a1.366,1.366,0,0,1,2.731,0v12.259A1.366,1.366,0,0,1,16.085,107.16Z" transform="translate(-14.719 -92.17)" fill="#939598"/>
            </g>
          </g>
          <g id="Group_34177" data-name="Group 34177" transform="translate(0.014 0.013)">
            <g id="Group_34176" data-name="Group 34176">
              <path id="Path_51018" data-name="Path 51018" d="M16.31,92.226a1.385,1.385,0,0,1,.013.18v12.259a1.366,1.366,0,0,1-1.366,1.366,1.341,1.341,0,0,1-.18-.013,1.365,1.365,0,0,0,2.718-.18V93.579A1.365,1.365,0,0,0,16.31,92.226Z" transform="translate(-14.777 -92.226)" fill="#808285"/>
            </g>
          </g>
        </g>
      </g>
    </g>
    <g id="Group_34194" data-name="Group 34194" transform="translate(14.281 36.707)">
      <g id="Group_34182" data-name="Group 34182" transform="translate(0)">
        <g id="Group_34181" data-name="Group 34181">
          <path id="Path_51019" data-name="Path 51019" d="M26.775,146.221A12.494,12.494,0,1,0,39.27,158.715,12.509,12.509,0,0,0,26.775,146.221Z" transform="translate(-14.281 -146.221)" fill="#ffc91d"/>
        </g>
      </g>
      <g id="Group_34184" data-name="Group 34184" transform="translate(5.398 5.398)">
        <g id="Group_34183" data-name="Group 34183">
          <circle id="Ellipse_32" data-name="Ellipse 32" cx="7.097" cy="7.097" r="7.097" fill="#58595b"/>
        </g>
      </g>
      <g id="Group_34186" data-name="Group 34186" transform="translate(6.908 6.908)">
        <g id="Group_34185" data-name="Group 34185">
          <circle id="Ellipse_33" data-name="Ellipse 33" cx="5.587" cy="5.587" r="5.587" fill="#414042"/>
        </g>
      </g>
      <g id="Group_34188" data-name="Group 34188" transform="translate(0.953 0.953)">
        <g id="Group_34187" data-name="Group 34187">
          <path id="Path_51020" data-name="Path 51020" d="M29.889,150.288A11.541,11.541,0,1,0,41.43,161.829,11.541,11.541,0,0,0,29.889,150.288Zm-4.047,16.819a2.547,2.547,0,1,1,.932-3.479A2.547,2.547,0,0,1,25.842,167.107Zm.932-7.076a2.547,2.547,0,1,1-.932-3.479A2.547,2.547,0,0,1,26.774,160.031Zm3.115,10.489a2.547,2.547,0,1,1,2.547-2.547A2.547,2.547,0,0,1,29.889,170.52Zm0-12.288a2.547,2.547,0,1,1,2.547-2.547A2.547,2.547,0,0,1,29.889,158.232Zm7.526,7.943a2.547,2.547,0,1,1-.932-3.479A2.547,2.547,0,0,1,37.415,166.174Zm-.932-5.212a2.547,2.547,0,1,1,.932-3.479A2.547,2.547,0,0,1,36.483,160.963Z" transform="translate(-18.348 -150.288)" fill="#ffa91a"/>
        </g>
      </g>
      <g id="Group_34191" data-name="Group 34191" transform="translate(3.771 3.771)">
        <g id="Group_34190" data-name="Group 34190">
          <g id="Group_34189" data-name="Group 34189">
            <path id="Path_51021" data-name="Path 51021" d="M46.644,162.308a11.537,11.537,0,0,1-16.275,16.275,11.538,11.538,0,1,0,16.275-16.275Z" transform="translate(-30.369 -162.308)" fill="#f79219"/>
          </g>
        </g>
      </g>
      <g id="Group_34193" data-name="Group 34193" transform="translate(11.271 11.271)">
        <g id="Group_34192" data-name="Group 34192">
          <circle id="Ellipse_34" data-name="Ellipse 34" cx="1.224" cy="1.224" r="1.224" fill="#414042"/>
        </g>
      </g>
    </g>
    <g id="Group_34236" data-name="Group 34236" transform="translate(36.117 38.889)">
      <g id="Group_34221" data-name="Group 34221" transform="translate(0.578 7.859)">
        <g id="Group_34197" data-name="Group 34197" transform="translate(0 2.762)">
          <g id="Group_34196" data-name="Group 34196">
            <g id="Group_34195" data-name="Group 34195">
              <path id="Path_51022" data-name="Path 51022" d="M109.9,200.835V211.85a1.172,1.172,0,0,0,1.172,1.172H129.2a1.172,1.172,0,0,0,1.172-1.172V200.835Z" transform="translate(-109.901 -200.835)" fill="#808285"/>
            </g>
          </g>
        </g>
        <g id="Group_34204" data-name="Group 34204" transform="translate(3.688 6.317)">
          <g id="Group_34200" data-name="Group 34200">
            <g id="Group_34199" data-name="Group 34199">
              <g id="Group_34198" data-name="Group 34198">
                <path id="Path_51023" data-name="Path 51023" d="M138.258,216.938H126.1a.469.469,0,1,1,0-.938h12.154a.469.469,0,1,1,0,.938Z" transform="translate(-125.635 -216)" fill="#fff"/>
              </g>
            </g>
          </g>
          <g id="Group_34203" data-name="Group 34203" transform="translate(0 3.516)">
            <g id="Group_34202" data-name="Group 34202">
              <g id="Group_34201" data-name="Group 34201">
                <path id="Path_51024" data-name="Path 51024" d="M138.258,231.938H126.1a.469.469,0,1,1,0-.938h12.154a.469.469,0,1,1,0,.938Z" transform="translate(-125.635 -231)" fill="#fff"/>
              </g>
            </g>
          </g>
        </g>
        <g id="Group_34206" data-name="Group 34206" transform="translate(0 2.762)">
          <g id="Group_34205" data-name="Group 34205">
            <path id="Path_51025" data-name="Path 51025" d="M129.2,200.835v9.843a1.172,1.172,0,0,1-1.172,1.172H109.9a1.172,1.172,0,0,0,1.172,1.172H129.2a1.172,1.172,0,0,0,1.172-1.172V200.835Z" transform="translate(-109.901 -200.835)" fill="#58595b"/>
          </g>
        </g>
        <g id="Group_34220" data-name="Group 34220">
          <g id="Group_34208" data-name="Group 34208">
            <g id="Group_34207" data-name="Group 34207">
              <path id="Path_51026" data-name="Path 51026" d="M129.9,189.053h-20v2.764h20.468v-2.3A.469.469,0,0,0,129.9,189.053Z" transform="translate(-109.901 -189.053)" fill="#e6e7e8"/>
            </g>
          </g>
          <g id="Group_34210" data-name="Group 34210" transform="translate(18.827)">
            <g id="Group_34209" data-name="Group 34209">
              <path id="Path_51027" data-name="Path 51027" d="M191.86,189.522a.469.469,0,0,0-.469-.469h-1.172a.469.469,0,0,1,.469.469v2.3h1.172Z" transform="translate(-190.219 -189.053)" fill="#d1d3d4"/>
            </g>
          </g>
          <g id="Group_34213" data-name="Group 34213" transform="translate(7.679)">
            <g id="Group_34212" data-name="Group 34212">
              <g id="Group_34211" data-name="Group 34211">
                <path id="Path_51028" data-name="Path 51028" d="M142.659,191.817h3.346l1.945-2.764H144.6Z" transform="translate(-142.659 -189.053)" fill="#414042"/>
              </g>
            </g>
          </g>
          <g id="Group_34216" data-name="Group 34216" transform="translate(14.396)">
            <g id="Group_34215" data-name="Group 34215">
              <g id="Group_34214" data-name="Group 34214">
                <path id="Path_51029" data-name="Path 51029" d="M171.315,191.817h3.346l1.945-2.764H173.26Z" transform="translate(-171.315 -189.053)" fill="#414042"/>
              </g>
            </g>
          </g>
          <g id="Group_34219" data-name="Group 34219" transform="translate(0.962)">
            <g id="Group_34218" data-name="Group 34218">
              <g id="Group_34217" data-name="Group 34217">
                <path id="Path_51030" data-name="Path 51030" d="M114,191.817h3.346l1.945-2.764h-3.346Z" transform="translate(-114.003 -189.053)" fill="#414042"/>
              </g>
            </g>
          </g>
        </g>
      </g>
      <g id="Group_34235" data-name="Group 34235" transform="translate(0)">
        <g id="Group_34223" data-name="Group 34223">
          <g id="Group_34222" data-name="Group 34222">
            <path id="Path_51031" data-name="Path 51031" d="M126.646,155.544,107.781,160.6a.469.469,0,0,0-.331.574l.594,2.217,19.318-5.176a.469.469,0,0,0,.331-.574l-.473-1.764A.469.469,0,0,0,126.646,155.544Z" transform="translate(-107.433 -155.528)" fill="#e6e7e8"/>
          </g>
        </g>
        <g id="Group_34225" data-name="Group 34225" transform="translate(18.081)">
          <g id="Group_34224" data-name="Group 34224">
            <path id="Path_51032" data-name="Path 51032" d="M186.271,155.876a.469.469,0,0,0-.574-.331l-1.132.3a.469.469,0,0,1,.574.331l.473,1.765a.469.469,0,0,1-.331.574l1.132-.3a.469.469,0,0,0,.331-.574Z" transform="translate(-184.565 -155.528)" fill="#d1d3d4"/>
          </g>
        </g>
        <g id="Group_34228" data-name="Group 34228" transform="translate(8.027 1.835)">
          <g id="Group_34227" data-name="Group 34227">
            <g id="Group_34226" data-name="Group 34226">
              <path id="Path_51033" data-name="Path 51033" d="M141.678,167.4l3.232-.866,1.164-3.174-3.232.866Z" transform="translate(-141.678 -163.358)" fill="#414042"/>
            </g>
          </g>
        </g>
        <g id="Group_34231" data-name="Group 34231" transform="translate(14.516 0.097)">
          <g id="Group_34230" data-name="Group 34230">
            <g id="Group_34229" data-name="Group 34229">
              <path id="Path_51034" data-name="Path 51034" d="M169.357,159.982l3.232-.866,1.163-3.174-3.232.866Z" transform="translate(-169.357 -155.942)" fill="#414042"/>
            </g>
          </g>
        </g>
        <g id="Group_34234" data-name="Group 34234" transform="translate(1.539 3.574)">
          <g id="Group_34233" data-name="Group 34233">
            <g id="Group_34232" data-name="Group 34232">
              <path id="Path_51035" data-name="Path 51035" d="M114,174.815l3.232-.866,1.163-3.174-3.232.866Z" transform="translate(-113.998 -170.775)" fill="#414042"/>
            </g>
          </g>
        </g>
      </g>
    </g>
  </g>
</svg>
