<svg xmlns="http://www.w3.org/2000/svg" width="59.999" height="59.886" viewBox="0 0 59.999 59.886">
  <g id="Group_34384" data-name="Group 34384" transform="translate(0 -0.483)">
    <path id="Path_51453" data-name="Path 51453" d="M145.059,185.657l-.162,2.354-2.426,35.068H120.582l-1.816-26.242-.611-8.826-.162-2.354Z" transform="translate(-104.166 -163.474)" fill="#00e5ff"/>
    <path id="Path_51454" data-name="Path 51454" d="M117.993,185.657l.162,2.354h20.372v8.826h-2.271l1.162,10.664a4.722,4.722,0,0,0-.842-.621,11.785,11.785,0,0,0-11.641-10.043h-6.17l1.816,26.242h14.08a7.243,7.243,0,0,0,1.82-3.278,4.738,4.738,0,0,0,2.037-2.188l.6,5.467h3.355l2.426-35.068h0l.079-1.139,0-.038.081-1.177Z" transform="translate(-104.166 -163.474)" fill="#40c4ff"/>
    <path id="Path_51455" data-name="Path 51455" d="M53.677,461.811a4.942,4.942,0,0,1-4.942,4.943H31.553a4.94,4.94,0,0,1-4.942-4.942H53.677Z" transform="translate(-23.493 -407.267)" fill="#fdd8a8"/>
    <path id="Path_51456" data-name="Path 51456" d="M53.677,461.811a4.914,4.914,0,0,1-.6,2.354H27.206a4.913,4.913,0,0,1-.6-2.354Z" transform="translate(-23.493 -407.267)" fill="#ffc477"/>
    <path id="Path_51457" data-name="Path 51457" d="M39.069,424a2.355,2.355,0,0,1-2.354,2.354H9.885a2.353,2.353,0,0,1-1.736-3.942c.022-.026.047-.051.072-.075a2.346,2.346,0,0,1,1.664-.69H36.715A2.355,2.355,0,0,1,39.069,424Z" transform="translate(-6.648 -371.805)" fill="#ff9017"/>
    <path id="Path_51458" data-name="Path 51458" d="M43.194,422.511l-5.431,3.839H18.38L12.8,422.407c.022-.026.047-.051.072-.075a2.346,2.346,0,0,1,1.664-.69H41.369A2.344,2.344,0,0,1,43.194,422.511Z" transform="translate(-11.303 -371.805)" fill="#ff7043"/>
    <path id="Path_51459" data-name="Path 51459" d="M39.069,383.829a2.355,2.355,0,0,1-2.354,2.354H9.885a2.354,2.354,0,0,1,0-4.707H36.715A2.353,2.353,0,0,1,39.069,383.829Z" transform="translate(-6.648 -336.345)" fill="#b0ef60"/>
    <path id="Path_51460" data-name="Path 51460" d="M62.908,421.643H38.36l8.49,6,3.783-2.674,3.783,2.674Z" transform="translate(-33.865 -371.806)" fill="#fdd844"/>
    <g id="Group_34381" data-name="Group 34381" transform="translate(4.495 49.837)">
      <path id="Path_51461" data-name="Path 51461" d="M81.627,421.643,78.3,424l-1.378.973-2.039,1.442-.7-.492-6.049-4.276Z" transform="translate(-64.646 -421.643)" fill="#fdab08"/>
      <path id="Path_51462" data-name="Path 51462" d="M62.908,421.643,59.579,424H41.689l-3.329-2.354Z" transform="translate(-38.36 -421.643)" fill="#fdab08"/>
    </g>
    <path id="Path_51463" data-name="Path 51463" d="M229,9.785V9.9a1.763,1.763,0,0,1-1.364,1.718l-5.7,1.33v7.767h-3.53V10.125l8.407-2.055A1.765,1.765,0,0,1,229,9.785Z" transform="translate(-192.817 -6.652)" fill="#fdd844"/>
    <path id="Path_51464" data-name="Path 51464" d="M40.708,383.829H11.945a.977.977,0,0,1-.71-1.651l.013-.013a2.346,2.346,0,0,1,1.664-.69H39.741a2.347,2.347,0,0,1,1.678.7A.977.977,0,0,1,40.708,383.829Z" transform="translate(-9.675 -336.345)" fill="#64dd17"/>
    <path id="Path_51465" data-name="Path 51465" d="M53.677,310.554H26.611a9.414,9.414,0,0,1,9.414-9.414h8.237a9.4,9.4,0,0,1,9.414,9.414Z" transform="translate(-23.493 -265.424)" fill="#fdd8a8"/>
    <g id="Group_34382" data-name="Group 34382" transform="translate(36.715 24.419)">
      <rect id="Rectangle_16337" data-name="Rectangle 16337" width="3.53" height="19.652" transform="translate(0 1.294)" fill="#fdd844"/>
      <rect id="Rectangle_16338" data-name="Rectangle 16338" width="3.53" height="19.652" transform="translate(3.472 3.883)" fill="#fdd844"/>
      <rect id="Rectangle_16339" data-name="Rectangle 16339" width="3.53" height="19.652" transform="translate(7.002 1.294)" fill="#fdd844"/>
      <rect id="Rectangle_16340" data-name="Rectangle 16340" width="3.53" height="19.652" transform="translate(10.532 3.883)" fill="#fdd844"/>
      <rect id="Rectangle_16341" data-name="Rectangle 16341" width="3.53" height="19.652" transform="translate(14.062 3.883)" fill="#fdd844"/>
      <rect id="Rectangle_16342" data-name="Rectangle 16342" width="3.53" height="19.652" transform="translate(17.593)" fill="#fdd844"/>
    </g>
    <rect id="Rectangle_16343" data-name="Rectangle 16343" width="3.53" height="2.354" transform="translate(25.595 11.71)" fill="#fdab08"/>
    <path id="Path_51466" data-name="Path 51466" d="M151.21,120.369H126.027l.761-2.354.533-1.647h22.594l.533,1.647Z" transform="translate(-111.258 -102.305)" fill="#fff"/>
    <path id="Path_51467" data-name="Path 51467" d="M334.432,281.056v10.709H330.9v3.883h-7.061v-2.589h-3.53v2.589h-3.53v-2.589h-3.472v-12h3.422l.049.138.059.165,2.422,6.758h8.4l2.53-7.061Z" transform="translate(-276.594 -247.694)" fill="#fdab08"/>
    <path id="Path_51468" data-name="Path 51468" d="M316.773,301.14l-2.53,7.061H302.534L300,301.14h-3.766l2.589,23.771h19.123l2.589-23.771Z" transform="translate(-261.523 -265.424)" fill="#f4511e"/>
    <path id="Path_51469" data-name="Path 51469" d="M151.21,132.78H126.027l.761-2.354h23.66Z" transform="translate(-111.258 -114.715)" fill="#d8d7da"/>
    <path id="Path_51470" data-name="Path 51470" d="M129.682,154.629H97.909L99.2,150.51h29.184Z" transform="translate(-86.435 -132.446)" fill="#fff"/>
    <path id="Path_51471" data-name="Path 51471" d="M53.677,363.745H26.611a9.455,9.455,0,0,1,.3-2.354H53.38A9.461,9.461,0,0,1,53.677,363.745Z" transform="translate(-23.493 -318.615)" fill="#ffc477"/>
    <path id="Path_51472" data-name="Path 51472" d="M337.435,401.167l-1.051-9.65h14.891l-1.051,9.65Z" transform="translate(-296.965 -345.21)" fill="#b0bec5"/>
    <path id="Path_51473" data-name="Path 51473" d="M33.3,47.484A3.242,3.242,0,0,0,31.04,44.4a10.31,10.31,0,0,0-10.27-9.564H15.587l-.814-11.768H44.449L42.6,17.182H40.594l-1.294-4H30.008V7l5.015-1.17a2.637,2.637,0,0,0,2.046-2.579V3.132A2.648,2.648,0,0,0,33.792.56l-9.08,2.22v10.4H15.421l-1.294,4H12.12l-1.849,5.884H13l.814,11.768H12.533A10.31,10.31,0,0,0,2.262,44.4a3.233,3.233,0,0,0-1.244,5.439,3.233,3.233,0,0,0,1.266,5.447,5.832,5.832,0,0,0,5.776,5.085H25.242a5.832,5.832,0,0,0,5.776-5.085,3.233,3.233,0,0,0,1.266-5.447A3.227,3.227,0,0,0,33.3,47.484ZM26.477,4.165l7.734-1.89a.883.883,0,0,1,1.092.857v.116a.879.879,0,0,1-.682.86L28.243,5.6v7.585H26.478V4.165ZM16.705,14.946h21.31l.723,2.236H15.982ZM12.676,21.3l.74-2.354H41.3l.74,2.354H12.676Zm-.143,15.3H20.77a8.544,8.544,0,0,1,8.486,7.649H4.046A8.544,8.544,0,0,1,12.533,36.6Zm-9.3,9.414H30.067a1.471,1.471,0,1,1,0,2.942H3.236a1.471,1.471,0,1,1,0-2.942Zm17.316,8.745L14.839,50.72H26.265ZM15.24,53.165l-2.254,1.593L7.273,50.72h4.509ZM1.765,52.191A1.473,1.473,0,0,1,3.236,50.72h.979l4.162,2.942H3.236A1.473,1.473,0,0,1,1.765,52.191ZM25.242,58.6H8.061A4.067,4.067,0,0,1,4.1,55.427h6.776l2.112,1.493,3.783-2.674,3.783,2.674,2.112-1.493h6.541A4.067,4.067,0,0,1,25.242,58.6Zm6.3-6.413a1.473,1.473,0,0,1-1.471,1.471H25.161l4.162-2.942h.743A1.473,1.473,0,0,1,31.538,52.191Z" transform="translate(0 0)"/>
    <path id="Path_51474" data-name="Path 51474" d="M312.83,208.5v-11.3h-5.3v3.883h-5.3V198.5h-5.3v2.589h-1.706V198.5h-5.3v10h-2.1l2.781,25.536h20.706l2.781-25.536Zm-3.53-9.532h1.765V208.5H309.3V198.97Zm-1.765,3.883v9.005l-1.327,3.7h-.438V202.854Zm-3.53,0v12.709h-1.765V202.854Zm-5.3-2.589h1.765v15.3h-1.765v-15.3Zm-1.765,2.589v12.709h-1.2l-.5-1.405v-11.3Zm-5.237-2.589h1.765v8.967l-.261-.729h-1.5Zm18.037,32.008H292.2l-2.4-22.006h2.16l2.53,7.061H307.45l2.53-7.061h2.16Z" transform="translate(-254.109 -173.669)"/>
    <path id="Path_51475" data-name="Path 51475" d="M329.231,395.4H343.6l1.243-11.415H327.988Zm13.648-9.65-.859,7.884H330.814l-.859-7.884Z" transform="translate(-289.552 -338.562)"/>
    <g id="Group_34383" data-name="Group 34383" transform="translate(10.414 24.831)">
      <rect id="Rectangle_16344" data-name="Rectangle 16344" width="1.765" height="1.765" transform="translate(0 13.651)" fill="#fff"/>
      <rect id="Rectangle_16345" data-name="Rectangle 16345" width="1.765" height="1.765" transform="translate(3.569 14.71)" fill="#fff"/>
      <rect id="Rectangle_16346" data-name="Rectangle 16346" width="1.765" height="1.765" transform="translate(7.14 14.71)" fill="#fff"/>
      <rect id="Rectangle_16347" data-name="Rectangle 16347" width="1.765" height="1.765" transform="translate(10.709 13.651)" fill="#fff"/>
      <path id="Path_51476" data-name="Path 51476" d="M163.673,210.016h-2.336v-1.765h2.336Zm-4.1,0h-9.3v-1.765h9.3Z" transform="translate(-143.079 -208.251)" fill="#fff"/>
      <path id="Path_51477" data-name="Path 51477" d="M371.473,426.923h-1.648v-1.765h1.648Zm-3.413,0H366.3v-1.765h1.765Zm-3.53,0h-1.765v-1.765h1.765Z" transform="translate(-330.668 -399.74)" fill="#fff"/>
    </g>
  </g>
</svg>
