<svg id="Group_34269" data-name="Group 34269" xmlns="http://www.w3.org/2000/svg" width="60" height="60" viewBox="0 0 60 60">
  <g id="Group_34267" data-name="Group 34267" transform="translate(0.879 0.879)">
    <g id="Group_34266" data-name="Group 34266">
      <path id="Path_51086" data-name="Path 51086" d="M7.5,19.48a11.94,11.94,0,0,0,3.412,8.373,15.354,15.354,0,0,0,8.911,3.223l10.125-.695a.7.7,0,0,0,.7-.7l.356-9.786c0-2.041-.058-4.374-.958-6.056A11.978,11.978,0,0,0,19.479,7.5h0A11.978,11.978,0,0,0,7.5,19.478Z" transform="translate(-7.5 -7.5)" fill="#8ac9fe"/>
      <path id="Path_51087" data-name="Path 51087" d="M57.166,67.2V78.481a.7.7,0,0,1-.7.7H45.186a11.939,11.939,0,0,1-8.566-3.607c1.843.983,3.278.435,5.511.435A13.171,13.171,0,0,0,55.3,62.84c0-.814.595-.507.453-1.28A11.925,11.925,0,0,1,57.166,67.2Z" transform="translate(-33.207 -55.225)" fill="#60b7ff"/>
      <g id="Group_34259" data-name="Group 34259" transform="translate(5.042 4.012)">
        <path id="Path_51088" data-name="Path 51088" d="M103.47,76v7.5a.473.473,0,0,1-.238.41l-6.469,3.75a.464.464,0,0,1-.238.063l-1.757-9.132,8.638-2.83A.483.483,0,0,1,103.47,76Z" transform="translate(-89.584 -71.772)" fill="#cbe5e8"/>
        <path id="Path_51089" data-name="Path 51089" d="M64.823,45.725l-6.881,3.988-3.471-.59-3.408-3.4a.483.483,0,0,1,.174-.174L57.706,41.8a.473.473,0,0,1,.474,0l6.469,3.749a.5.5,0,0,1,.174.174Z" transform="translate(-51 -41.738)" fill="#eef5f6"/>
        <path id="Path_51090" data-name="Path 51090" d="M57.465,79.747v7.975a.463.463,0,0,1-.236-.063l-6.469-3.75a.469.469,0,0,1-.238-.41V76a.467.467,0,0,1,.063-.238Z" transform="translate(-50.523 -71.772)" fill="#deecf1"/>
      </g>
      <g id="Group_34260" data-name="Group 34260" transform="translate(0 34.283)">
        <path id="Path_51091" data-name="Path 51091" d="M19.467,323.026a14.841,14.841,0,0,1-9.219-3.36A11.929,11.929,0,0,1,7.5,312.031v0A11.978,11.978,0,0,1,19.478,300.05H28.37l1.9.533a.7.7,0,0,1,.7.7l-.1,10.618c0,6.615-4.792,11.12-11.407,11.12Z" transform="translate(-7.5 -300.05)" fill="#ffe177"/>
      </g>
      <g id="Group_34261" data-name="Group 34261" transform="translate(2.748 34.283)">
        <path id="Path_51092" data-name="Path 51092" d="M52.162,300.753v11.278a11.958,11.958,0,0,1-4.723,9.532c-2.013,1.535-4.384,1.132-7.111,1.132-2.669,0-5.281.441-7.273-1.035a12.045,12.045,0,0,1-2.1-1.993A14.486,14.486,0,0,0,49.073,300.05h2.386A.7.7,0,0,1,52.162,300.753Z" transform="translate(-30.951 -300.05)" fill="#ffd15b"/>
      </g>
      <g id="Group_34262" data-name="Group 34262" transform="translate(34.283)">
        <path id="Path_51093" data-name="Path 51093" d="M312.03,7.5a11.98,11.98,0,0,0-11.98,11.979V27.5l.52,2.9a.7.7,0,0,0,.7.7l10.791-.632c6.616,0,11.135-4.365,11.135-10.981,0-3.006-.794-5.033-2.128-7.866A11.95,11.95,0,0,0,312.031,7.5Z" transform="translate(-300.05 -7.5)" fill="#f58a97"/>
      </g>
      <g id="Group_34263" data-name="Group 34263" transform="translate(34.283 4.121)">
        <path id="Path_51094" data-name="Path 51094" d="M324.009,50.526v0a11.96,11.96,0,0,1-4.694,9.51,30.979,30.979,0,0,1-7.25,1.478l-7.25.991h-4.062a.7.7,0,0,1-.7-.7V58.55A14.994,14.994,0,0,0,321.236,44.9a15.2,15.2,0,0,0-.164-2.229A11.926,11.926,0,0,1,324.009,50.526Z" transform="translate(-300.05 -42.67)" fill="#f07281"/>
      </g>
      <path id="Path_51095" data-name="Path 51095" d="M90.271,406.928a3.4,3.4,0,0,1-5.971,0l.1-.028a.852.852,0,0,0,.625-.821v-3.87h4.521v3.87a.852.852,0,0,0,.626.821Z" transform="translate(-75.3 -355.955)" fill="#ca6e59"/>
      <path id="Path_51096" data-name="Path 51096" d="M62.373,445.521a3.075,3.075,0,0,0-2.222-2.495l-2.006-.555a3.4,3.4,0,0,1-5.971,0l-2.007.554a3.071,3.071,0,0,0-2.257,2.965v.663c4.326,2.617,10.807,2.611,14.463-1.133Z" transform="translate(-43.174 -391.497)" fill="#eef5f6"/>
      <path id="Path_51097" data-name="Path 51097" d="M62.41,449.928v1.3a11.923,11.923,0,0,1-7.254,2.447h0a11.924,11.924,0,0,1-7.126-2.35l-.116-.089v-1.31a.266.266,0,0,1,0-.031,14.506,14.506,0,0,0,12.121-2.967l.12.033a3.075,3.075,0,0,1,2.258,2.965Z" transform="translate(-43.174 -395.434)" fill="#deecf1"/>
      <path id="Path_51098" data-name="Path 51098" d="M76.181,345.548l.525.3a2.741,2.741,0,0,0,2.705,0l.525-.3a4.6,4.6,0,0,0,2.332-4v-1.169a4.21,4.21,0,0,0-8.419,0v1.169A4.6,4.6,0,0,0,76.181,345.548Z" transform="translate(-66.074 -297.656)" fill="#d78878"/>
      <path id="Path_51099" data-name="Path 51099" d="M355.051,153.265a3.075,3.075,0,0,0-.756-1.216,3.134,3.134,0,0,0-.622-.475,3.057,3.057,0,0,0-.722-.3l-1.964-.543a3.486,3.486,0,0,1-6.056,0l-1.964.543a3.076,3.076,0,0,0-2.257,2.965v2.948C345.791,157.295,351.045,156.3,355.051,153.265Z" transform="translate(-301.662 -133.945)" fill="#eef5f6"/>
      <path id="Path_51100" data-name="Path 51100" d="M355.21,157.354v1.2a11.922,11.922,0,0,1-7.284,2.469H340.71v-2.687q.707.067,1.433.068a14.935,14.935,0,0,0,10.343-4.141l.465.129a3.056,3.056,0,0,1,.722.3,3.138,3.138,0,0,1,.622.475A3.075,3.075,0,0,1,355.21,157.354Z" transform="translate(-301.662 -137.062)" fill="#deecf1"/>
      <path id="Path_51101" data-name="Path 51101" d="M382.786,115.47a3.486,3.486,0,0,1-6.056,0l.143-.04a.852.852,0,0,0,.625-.821V110.79l4.521,1.421v2.4a.852.852,0,0,0,.626.821Z" transform="translate(-333.461 -98.686)" fill="#ffb09e"/>
      <path id="Path_51102" data-name="Path 51102" d="M368.981,53.7l.525.3a2.741,2.741,0,0,0,2.705,0l.525-.3a4.6,4.6,0,0,0,2.332-4V48.527a4.21,4.21,0,0,0-8.419,0V49.7A4.6,4.6,0,0,0,368.981,53.7Z" transform="translate(-324.561 -40.009)" fill="#ffcebf"/>
      <g id="Group_34264" data-name="Group 34264" transform="translate(34.278 34.283)">
        <path id="Path_51103" data-name="Path 51103" d="M311.989,322.927c6.615,0,11.424-4.289,11.424-10.9,0-3.759-1.787-6.633-3.89-9.3a11.929,11.929,0,0,0-7.538-2.669H300.707a.7.7,0,0,0-.7.7v11.278a11.932,11.932,0,0,0,1.154,5.137C304.255,320.412,307.212,322.927,311.989,322.927Z" transform="translate(-300.004 -300.051)" fill="#eef5f6"/>
      </g>
      <g id="Group_34265" data-name="Group 34265" transform="translate(35.433 36.825)">
        <path id="Path_51104" data-name="Path 51104" d="M332.664,331.176v0a11.978,11.978,0,0,1-11.978,11.978h0a11.977,11.977,0,0,1-10.823-6.841,12.635,12.635,0,0,0,18.2-14.576A11.954,11.954,0,0,1,332.664,331.176Z" transform="translate(-309.86 -321.74)" fill="#deecf1"/>
      </g>
      <path id="Path_51105" data-name="Path 51105" d="M348.771,341.139c0,4.469-3.175,7.448-7.643,7.448-1.676,0-3.043.252-4.334-.621a8.093,8.093,0,1,1,11.98-9.859C349.183,339.074,348.771,340.021,348.771,341.139Z" transform="translate(-295.055 -295)" fill="#ade194"/>
      <path id="Path_51106" data-name="Path 51106" d="M376.091,379.654a8.091,8.091,0,0,1-12.641,6.691,12.629,12.629,0,0,0,12.069-9.686A8.066,8.066,0,0,1,376.091,379.654Z" transform="translate(-321.737 -333.399)" fill="#97da7b"/>
    </g>
  </g>
  <g id="Group_34268" data-name="Group 34268">
    <path id="Path_51107" data-name="Path 51107" d="M50.9,33.878a1.365,1.365,0,0,0-1.357,0L43,37.658a1.361,1.361,0,0,0-.681,1.177v7.56A1.359,1.359,0,0,0,43,47.571l6.549,3.781a1.366,1.366,0,0,0,1.356,0l6.545-3.779a1.361,1.361,0,0,0,.681-1.177v-7.56a1.361,1.361,0,0,0-.681-1.177Zm-.678,1.639,5.268,3.042L50.221,41.6l-5.268-3.042Zm-6.147,4.564,5.268,3.041v6.083l-5.268-3.042ZM51.1,49.206V43.122l5.268-3.041v6.083Z" transform="translate(-37.357 -29.749)"/>
    <path id="Path_51108" data-name="Path 51108" d="M334.7,325.663a8.971,8.971,0,1,0,8.67,11.283.879.879,0,1,0-1.7-.452,7.213,7.213,0,1,1,.02-3.643.879.879,0,0,0,1.7-.433A8.961,8.961,0,0,0,334.7,325.663Z" transform="translate(-287.555 -287.499)"/>
    <path id="Path_51109" data-name="Path 51109" d="M381.488,365a.879.879,0,0,0,.879-.879v-.547a2.85,2.85,0,0,0,1.842-2.194,2.518,2.518,0,0,0-1.71-2.851c-.167-.059-.327-.113-.48-.164a2.9,2.9,0,0,1-1.118-.516.768.768,0,0,1-.182-.722.634.634,0,0,1,.447-.438,1.026,1.026,0,0,1,1.055.236.879.879,0,0,0,1.278-1.207,2.745,2.745,0,0,0-1.132-.7v-.531a.879.879,0,0,0-1.758,0v.536a2.4,2.4,0,0,0-1.579,1.616,2.527,2.527,0,0,0,.544,2.362,3.992,3.992,0,0,0,1.889,1.031c.144.048.294.1.451.154a.761.761,0,0,1,.562.9,1.046,1.046,0,0,1-1.038.882,1.846,1.846,0,0,1-1.35-.351.879.879,0,1,0-.962,1.471,3.363,3.363,0,0,0,1.483.6v.433A.879.879,0,0,0,381.488,365Z" transform="translate(-334.347 -312.171)"/>
    <path id="Path_51110" data-name="Path 51110" d="M252.546,292.55H240.566a.879.879,0,0,0-.879.879V304.4h-4.114l.826-.888a.879.879,0,1,0-1.287-1.2l-2.2,2.365a.879.879,0,0,0,0,1.2l2.2,2.365a.879.879,0,0,0,1.287-1.2l-.826-.888h4.136a12.873,12.873,0,0,0,12.835,12.1h0a12.858,12.858,0,0,0,0-25.717Zm0,23.959h0a11.112,11.112,0,0,1-11.1-11.1v-11.1h11.1a11.1,11.1,0,0,1,0,22.2Z" transform="translate(-205.409 -258.267)"/>
    <path id="Path_51111" data-name="Path 51111" d="M24.838,239.691H21.086a.879.879,0,0,0,0,1.758h2.873v11.1a11.057,11.057,0,0,1-3.019,7.6,3.95,3.95,0,0,0-2.85-3.183L16,256.391v-2.027a5.492,5.492,0,0,0,1.95-4.189v-1.169a5.089,5.089,0,0,0-10.177,0v1.169a5.492,5.492,0,0,0,1.949,4.189v2.027l-2.087.576a3.951,3.951,0,0,0-2.852,3.193,11.095,11.095,0,0,1,8.072-18.711h4.09a.879.879,0,1,0,0-1.758H13.862v-4.119l.888.826a.879.879,0,1,0,1.2-1.287l-2.365-2.2a.879.879,0,0,0-1.2,0l-2.365,2.2a.879.879,0,1,0,1.2,1.287l.888-.826v4.142A12.858,12.858,0,1,0,25.717,252.55V240.57a.879.879,0,0,0-.879-.879Zm-13.355,16.72v-.973a3.638,3.638,0,0,0,2.763,0v.973a1.726,1.726,0,0,0,.279.94,2.12,2.12,0,0,1-3.32,0A1.725,1.725,0,0,0,11.483,256.411Zm-1.949-7.405a3.331,3.331,0,0,1,6.662,0v1.169a3.731,3.731,0,0,1-1.887,3.239l-.525.3a1.871,1.871,0,0,1-1.838,0l-.525-.3a3.731,3.731,0,0,1-1.887-3.239Zm3.324,14.644a11.037,11.037,0,0,1-6.369-2.014c0-.028,0-.057,0-.086v-.77a2.2,2.2,0,0,1,1.613-2.118l1.566-.433a3.873,3.873,0,0,0,6.385,0l1.566.433a2.2,2.2,0,0,1,1.612,2.118v.77c0,.027,0,.053,0,.079A11.041,11.041,0,0,1,12.857,263.65Z" transform="translate(0 -205.408)"/>
    <path id="Path_51112" data-name="Path 51112" d="M293.429,25.717H304.4v4.119l-.888-.826a.879.879,0,1,0-1.2,1.287l2.365,2.2a.879.879,0,0,0,1.2,0l2.365-2.2a.879.879,0,0,0-1.2-1.287l-.888.826V25.694A12.858,12.858,0,1,0,292.55,12.858v3.535a.879.879,0,0,0,1.758,0V12.858a11.1,11.1,0,1,1,19.2,7.588,3.949,3.949,0,0,0-2.833-3.087l-2.087-.576V14.756a5.492,5.492,0,0,0,1.95-4.189V9.4a5.089,5.089,0,0,0-10.177,0v1.169a5.492,5.492,0,0,0,1.949,4.189v2.027l-2.087.576a3.955,3.955,0,0,0-2.9,3.812v2.788h-3.007V20.747a.879.879,0,1,0-1.758,0v4.091A.879.879,0,0,0,293.429,25.717ZM304.062,16.8v-.973a3.638,3.638,0,0,0,2.763,0V16.8a1.726,1.726,0,0,0,.279.939,2.12,2.12,0,0,1-3.32,0A1.727,1.727,0,0,0,304.062,16.8ZM302.112,9.4a3.331,3.331,0,0,1,6.662,0v1.169a3.731,3.731,0,0,1-1.887,3.239l-.525.3a1.871,1.871,0,0,1-1.838,0l-.525-.3a3.731,3.731,0,0,1-1.887-3.239Zm-3.04,11.773a2.2,2.2,0,0,1,1.613-2.118l1.566-.433a3.872,3.872,0,0,0,6.385,0l1.566.433a2.2,2.2,0,0,1,1.613,2.118v.748a11.04,11.04,0,0,1-6.406,2.04h-6.336V21.171Z" transform="translate(-258.267)"/>
    <path id="Path_51113" data-name="Path 51113" d="M29.836,13.862l-.826.888a.879.879,0,1,0,1.287,1.2l2.2-2.365a.879.879,0,0,0,0-1.2l-2.2-2.365a.879.879,0,1,0-1.287,1.2l.826.888H25.693a12.74,12.74,0,0,0-2.478-6.868A.879.879,0,0,0,21.8,6.279a11.012,11.012,0,0,1,2.159,6.579v11.1h-11.1A11.1,11.1,0,1,1,18.991,3.6a.879.879,0,0,0,.972-1.464,12.859,12.859,0,1,0-7.105,23.577H24.838a.879.879,0,0,0,.879-.879V13.862Z" transform="translate(0 0)"/>
  </g>
</svg>
