<svg xmlns="http://www.w3.org/2000/svg" width="60" height="59.535" viewBox="0 0 60 59.535">
  <g id="Group_34311" data-name="Group 34311" transform="translate(0 -4.01)">
    <g id="Group_34311-2" data-name="Group 34311" transform="translate(8.275 14.973)">
      <path id="Path_51204" data-name="Path 51204" d="M92.567,140.768c.7.578,1.047.892,1.4.905.348-.013.7-.328,1.4-.905l18.428-19.051a16.068,16.068,0,0,0,0-21.416c-4.952-5.351-13.085-4.162-18.244.963l-.97.963c-.562.557-.669.557-1.244-.013l-.953-.949c-5.15-5.128-13.292-6.313-18.244-.963a16.068,16.068,0,0,0,0,21.416L76.346,124Z" transform="translate(-70.048 -96.812)" fill="#fd8087" fill-rule="evenodd"/>
    </g>
    <g id="Group_34312" data-name="Group 34312" transform="translate(25.125 14.974)">
      <path id="Path_51205" data-name="Path 51205" d="M227.489,99.4a23.584,23.584,0,0,1,4.232,13.447c0,.54-.02,1.074-.057,1.6A23.625,23.625,0,0,1,227.4,126.42a25.648,25.648,0,0,1-3.729,4.243,26.815,26.815,0,0,1-4.985,3.6q-.932.522-1.915.98l5.414,5.54c.706.578,1.057.892,1.412.905.351-.013.706-.328,1.412-.905l5.695-5.83,12.919-13.221a16,16,0,0,0,2.739-17.281,15.109,15.109,0,0,0-2.739-4.135,11.121,11.121,0,0,0-2.479-1.993,11.863,11.863,0,0,0-9.562-.892A15.4,15.4,0,0,0,227.489,99.4Z" transform="translate(-216.772 -96.824)" fill="#fe636e" fill-rule="evenodd"/>
    </g>
    <g id="Group_34313" data-name="Group 34313" transform="translate(39.878 4.896)">
      <path id="Path_51206" data-name="Path 51206" d="M351.284,30.747a9.619,9.619,0,1,0-9.62-9.62A9.636,9.636,0,0,0,351.284,30.747Z" transform="translate(-341.664 -11.51)" fill="#f8f2f0" fill-rule="evenodd"/>
    </g>
    <g id="Group_34314" data-name="Group 34314" transform="translate(45.617 4.896)">
      <path id="Path_51207" data-name="Path 51207" d="M390.674,12.145a9.618,9.618,0,0,1,5.739,8.8c0,.061,0,.122,0,.179a9.52,9.52,0,0,1-.6,3.179,9.642,9.642,0,0,1-5.566,5.624,9.616,9.616,0,1,0,.432-17.785Z" transform="translate(-390.242 -11.51)" fill="#d6dcea" fill-rule="evenodd"/>
    </g>
    <g id="Group_34315" data-name="Group 34315" transform="translate(7.118 41.609)">
      <path id="Path_51208" data-name="Path 51208" d="M62.206,325l-1.952,6.4,1.952,6.779,8.99,2.473,7.292,2c4.254,1.338,6.133.574,10.046-.7l14.341-4.648c4.117-1.334,3.5-7.056-2.523-5.1l-8.018,1.584-1.31.26a8.585,8.585,0,0,1-4.174.233L80.443,333.1l-1.163-.216a2.06,2.06,0,0,1,.688-4.05c1.551.2,3.629.483,5.407.669l.107.01c3.432.351,4.809-2.24,3.583-4.253a4.5,4.5,0,0,0-2.563-1.855l-4.829-.9c-3.131-.581-5.357.142-10.217.949l-2.737.456Z" transform="translate(-60.254 -322.3)" fill="#fed1a3" fill-rule="evenodd"/>
    </g>
    <g id="Group_34316" data-name="Group 34316" transform="translate(0.886 42.806)">
      <path id="Path_51209" data-name="Path 51209" d="M7.5,332.785v15.589a.416.416,0,0,0,.456.355h7.289a.418.418,0,0,0,.459-.355V332.785a.418.418,0,0,0-.459-.355H7.956A.416.416,0,0,0,7.5,332.785Z" transform="translate(-7.5 -332.43)" fill="#99e6fc" fill-rule="evenodd"/>
    </g>
    <g id="Group_34317" data-name="Group 34317" transform="translate(0.886 56.355)">
      <path id="Path_51210" data-name="Path 51210" d="M7.5,447.123v2.395a.416.416,0,0,0,.456.355h7.289a.418.418,0,0,0,.459-.355v-2.395a.42.42,0,0,1-.459.355H7.956A.419.419,0,0,1,7.5,447.123Z" transform="translate(-7.5 -447.123)" fill="#62dbfb" fill-rule="evenodd"/>
    </g>
    <g id="Group_34318" data-name="Group 34318" transform="translate(8.608 52.335)">
      <path id="Path_51211" data-name="Path 51211" d="M76.952,417.115v1.128l9.086,2.473,7.37,2c4.3,1.338,6.2.574,10.153-.7l14.494-4.648c2.347-.75,3.172-2.9,2.354-4.28a3.875,3.875,0,0,1-2.354,1.885l-14.494,4.648c-3.955,1.267-5.853,2.034-10.153.7l-7.37-2-9.086-2.476Z" transform="translate(-76.952 -413.095)" fill="#ffbc85" fill-rule="evenodd"/>
    </g>
    <g id="Group_34319" data-name="Group 34319" transform="translate(24.528 44.86)">
      <path id="Path_51212" data-name="Path 51212" d="M211.988,350.7a2.05,2.05,0,0,0-1.895,3.229,1.885,1.885,0,0,1,1.895-.834c1.567.2,3.668.483,5.465.669l.108.01c3.307.334,4.725-2,3.78-3.962a2.779,2.779,0,0,1-1.3,1.216,4.646,4.646,0,0,1-2.483.351l-.108-.01C215.656,351.186,213.555,350.9,211.988,350.7Z" transform="translate(-209.72 -349.815)" fill="#ffbc85" fill-rule="evenodd"/>
    </g>
    <g id="Group_34320" data-name="Group 34320" transform="translate(0 4.01)">
      <path id="Path_51213" data-name="Path 51213" d="M148.127,201.2a.886.886,0,0,0,.759-.429l1.6-2.655,2.118,3.366a.886.886,0,0,0,1.519-.032l3.41-5.958,4.58,8.346a.886.886,0,0,0,.761.46h.016a.886.886,0,0,0,.761-.433l2.853-4.79h6.88a.886.886,0,0,0,0-1.772H166a.886.886,0,0,0-.761.433l-2.318,3.891-4.595-8.374a.886.886,0,0,0-.769-.46h-.008a.886.886,0,0,0-.769.446l-3.462,6.049-2.1-3.335a.886.886,0,0,0-.75-.414h-.009a.886.886,0,0,0-.75.429l-2.082,3.459h-5.035a.886.886,0,1,0,0,1.772Z" transform="translate(-125.255 -170.492)"/>
      <path id="Path_51214" data-name="Path 51214" d="M390.359,55.795a.886.886,0,0,0-.886.886v2.613H386.86a.886.886,0,0,0,0,1.772h2.613V63.68a.886.886,0,0,0,1.772,0V61.066h2.613a.886.886,0,0,0,0-1.772h-2.613V56.681A.886.886,0,0,0,390.359,55.795Z" transform="translate(-340.861 -49.678)"/>
      <path id="Path_51215" data-name="Path 51215" d="M52.683,40.482a16.96,16.96,0,0,0,3.155-17.574,10.518,10.518,0,0,0-6.257-18.9,10.393,10.393,0,0,0-6.507,2.3.891.891,0,0,0-.137,1.245.874.874,0,0,0,1.235.138,8.52,8.52,0,0,1,5.408-1.91A8.733,8.733,0,1,1,40.974,15.5c0-.01,0-.02,0-.03a8.85,8.85,0,0,1-.053-.956,8.672,8.672,0,0,1,.906-3.887.89.89,0,0,0-.393-1.189.876.876,0,0,0-1.179.4,10.44,10.44,0,0,0-1.091,4.679c0,.149,0,.3.01.444a16.6,16.6,0,0,0-6.027,3.836l-.971.963-.013-.013-.955-.949a15.529,15.529,0,0,0-11.1-4.705,11.59,11.59,0,0,0-8.441,3.767.892.892,0,0,0,.042,1.253.874.874,0,0,0,1.242-.043,9.869,9.869,0,0,1,7.193-3.206,13.78,13.78,0,0,1,9.83,4.195l.956.95a1.868,1.868,0,0,0,1.248.686,1.84,1.84,0,0,0,1.23-.673l.971-.963A14.905,14.905,0,0,1,39.4,16.76a10.459,10.459,0,0,0,10.181,8.258,10.284,10.284,0,0,0,4.739-1.151,15.148,15.148,0,0,1-2.915,15.4L38.788,52.284l-1.044.206-.681.136a6.641,6.641,0,0,1-3.191.093l-7.518-1.386a1.163,1.163,0,0,1-.864-1.426,1.074,1.074,0,0,1,1.2-.888l.021,0,1.082.139c1.424.185,3.036.395,4.468.542,2.93.3,4.587-1.251,4.931-2.921.35-1.7-.612-3.966-3.553-4.912a1.052,1.052,0,0,0-.109-.027l-4.841-.9c-2.627-.486-4.671-.111-7.765.456-.818.15-1.746.319-2.78.49l-2.295.38-.707-.729-2.209-2.28a15.248,15.248,0,0,1-2.222-17,.889.889,0,0,0-.381-1.192.875.875,0,0,0-1.184.384,17.055,17.055,0,0,0,2.509,19.024l.013.014,2.062,2.129L9.9,43.262v-.1A1.292,1.292,0,0,0,8.562,41.92H1.331A1.29,1.29,0,0,0,0,43.161V58.75A1.29,1.29,0,0,0,1.331,59.99H8.562A1.292,1.292,0,0,0,9.9,58.75v-.107l7.9,2.168,7.3,2a14.014,14.014,0,0,0,4.232.736,18.087,18.087,0,0,0,5.76-1.245l.6-.194,14.378-4.647a4.5,4.5,0,0,0,3.171-3.236,3.172,3.172,0,0,0-.922-3.047c-.668-.611-2.238-1.487-5.265-.522l-5.22,1.029L52.67,40.5l.013-.014ZM1.758,58.218V43.692H8.139V44.3s0,0,0,.006V57.482s0,0,0,0v.733Zm45.773-5.86c1.622-.524,2.933-.477,3.6.131a1.393,1.393,0,0,1,.384,1.358,2.773,2.773,0,0,1-1.99,1.923L35.146,60.419l-.6.195c-3.439,1.12-5.166,1.683-8.944.5l-.03-.009L9.9,56.806V45.058l8.538-1.414c1.048-.174,1.984-.346,2.81-.5,3.006-.55,4.821-.882,7.132-.455l4.785.885c1.866.618,2.509,1.9,2.314,2.846-.224,1.088-1.414,1.685-3.032,1.519-1.409-.145-3.009-.353-4.421-.536-.377-.05-.739-.1-1.076-.139A2.812,2.812,0,0,0,23.78,49.5a3.023,3.023,0,0,0-.071.871,2.934,2.934,0,0,0,2.161,2.664c.036.012.521.1.521.1l7.178,1.323.023,0a7.867,7.867,0,0,0,3.03.051c.238-.043,1.208-.241,1.458-.289l1.582-.312s7.836-1.548,7.869-1.558Z" transform="translate(0 -4.01)"/>
    </g>
  </g>
</svg>
