<svg xmlns="http://www.w3.org/2000/svg" width="61.718" height="56.609" viewBox="0 0 61.718 56.609">
  <g id="Group_34366" data-name="Group 34366" transform="translate(-3 -10.781)">
    <path id="Path_51296" data-name="Path 51296" d="M42.092,15.883a2.193,2.193,0,0,0,.324-1.379,1.833,1.833,0,0,0-.338-1.224,1.156,1.156,0,0,0-.917-.387,1.113,1.113,0,0,0-.89.393,2,2,0,0,0-.336,1.3,1.99,1.99,0,0,0,.334,1.291,1.263,1.263,0,0,0,1.823.008Z" transform="translate(-12.684 -0.725)" fill="none"/>
    <path id="Path_51297" data-name="Path 51297" d="M77,34V71.425h9.849V34Zm7.222,33.485a.657.657,0,0,1-.657.657H80.283a.657.657,0,0,1-.657-.657V60.263a.657.657,0,0,1,.657-.657h3.283a.657.657,0,0,1,.657.657Zm0-11.162a.657.657,0,0,1-.657.657H80.283a.657.657,0,0,1-.657-.657V49.1a.657.657,0,0,1,.657-.657h3.283a.657.657,0,0,1,.657.657Zm0-11.162a.657.657,0,0,1-.657.657H80.283a.657.657,0,0,1-.657-.657V37.939a.657.657,0,0,1,.657-.657h3.283a.657.657,0,0,1,.657.657Z" transform="translate(-25.413 -7.974)" fill="#46b1e5"/>
    <path id="Path_51298" data-name="Path 51298" d="M8,34V71.425h9.849V34Zm7.222,33.485a.659.659,0,0,1-.657.657H11.283a.659.659,0,0,1-.657-.657V60.263a.659.659,0,0,1,.657-.657h3.283a.659.659,0,0,1,.657.657Zm0-11.162a.659.659,0,0,1-.657.657H11.283a.659.659,0,0,1-.657-.657V49.1a.659.659,0,0,1,.657-.657h3.283a.659.659,0,0,1,.657.657Zm0-11.162a.659.659,0,0,1-.657.657H11.283a.659.659,0,0,1-.657-.657V37.939a.659.659,0,0,1,.657-.657h3.283a.659.659,0,0,1,.657.657Z" transform="translate(-1.717 -7.974)" fill="#46b1e5"/>
    <g id="Group_34365" data-name="Group 34365" transform="translate(17.445 19.46)">
      <path id="Path_51299" data-name="Path 51299" d="M38,78h7.222v8.535H38Z" transform="translate(-29.465 -42.545)" fill="#85d5f6"/>
      <path id="Path_51300" data-name="Path 51300" d="M51,78h7.222v8.535H51Z" transform="translate(-33.929 -42.545)" fill="#85d5f6"/>
      <path id="Path_51301" data-name="Path 51301" d="M25,24V67.991h7.222V58.8a.657.657,0,0,1,.657-.657H49.95a.657.657,0,0,1,.657.657v9.192h7.222V24Zm3.283,5.253a.657.657,0,0,1,.657-.657h5.187a.657.657,0,0,1,.657.657V34.44a.657.657,0,0,1-.657.657H28.939a.657.657,0,0,1-.657-.657ZM34.849,54.2a.657.657,0,0,1-.657.657H28.939a.657.657,0,0,1-.657-.657V48.95a.657.657,0,0,1,.657-.657h5.253a.657.657,0,0,1,.657.657Zm0-9.849a.657.657,0,0,1-.657.657H28.939a.657.657,0,0,1-.657-.657V39.1a.657.657,0,0,1,.657-.657h5.253a.657.657,0,0,1,.657.657ZM44.7,54.2a.657.657,0,0,1-.657.657H38.788a.657.657,0,0,1-.657-.657V48.95a.657.657,0,0,1,.657-.657h5.253a.657.657,0,0,1,.657.657Zm0-9.849a.657.657,0,0,1-.657.657H38.788a.657.657,0,0,1-.657-.657V39.1a.657.657,0,0,1,.657-.657h5.253a.657.657,0,0,1,.657.657Zm0-9.849a.657.657,0,0,1-.657.657H38.788a.657.657,0,0,1-.657-.657V29.253a.657.657,0,0,1,.657-.657h5.253a.657.657,0,0,1,.657.657Zm9.849,19.7a.657.657,0,0,1-.657.657H48.637a.657.657,0,0,1-.657-.657V48.95a.657.657,0,0,1,.657-.657h5.253a.657.657,0,0,1,.657.657Zm0-9.849a.657.657,0,0,1-.657.657H48.637a.657.657,0,0,1-.657-.657V39.1a.657.657,0,0,1,.657-.657h5.253a.657.657,0,0,1,.657.657Zm0-9.849a.657.657,0,0,1-.657.657H48.637a.657.657,0,0,1-.657-.657V29.253a.657.657,0,0,1,.657-.657h5.253a.657.657,0,0,1,.657.657Z" transform="translate(-25 -24)" fill="#85d5f6"/>
    </g>
    <path id="Path_51302" data-name="Path 51302" d="M32.255,16.858v.007h.416V10.934H30.831v2.075h-2V10.934H26.995v5.931h1.833v-2.4h2v2.4H31.6v-.008Z" transform="translate(-8.24 -0.053)"/>
    <path id="Path_51303" data-name="Path 51303" d="M40.337,16.806v.106a3.3,3.3,0,0,0,1.592-.368,2.494,2.494,0,0,0,1.011-1.035,3.655,3.655,0,0,0,.35-1.705,3,3,0,0,0-.8-2.227,3.1,3.1,0,0,0-2.282-.8,3.047,3.047,0,0,0-2.253.809,3.056,3.056,0,0,0-.809,2.261,3.356,3.356,0,0,0,.408,1.731,2.5,2.5,0,0,0,1.066,1.011,3.272,3.272,0,0,0,1.062.283V16.8Zm-1.36-2.947a2,2,0,0,1,.336-1.3,1.115,1.115,0,0,1,.89-.393,1.155,1.155,0,0,1,.917.387,1.833,1.833,0,0,1,.338,1.224,2.193,2.193,0,0,1-.324,1.379,1.263,1.263,0,0,1-1.823-.009,1.986,1.986,0,0,1-.334-1.29Z" transform="translate(-11.726)"/>
    <path id="Path_51304" data-name="Path 51304" d="M50.3,16.858v.007h.444V12.4h1.869V10.934h-5.57V12.4h1.869v4.466h.731v-.008Z" transform="translate(-15.126 -0.053)"/>
    <path id="Path_51305" data-name="Path 51305" d="M59.558,16.858v.007h2.23V15.522H58.624V14.353h2.852v-1.21H58.624V12.2H61.7V10.934H56.787v5.931H58.9v-.008Z" transform="translate(-18.472 -0.053)"/>
    <path id="Path_51306" data-name="Path 51306" d="M68.6,16.858v.007h2V15.4H67.74V10.934H65.907v5.931h2.035v-.008Z" transform="translate(-21.604 -0.053)"/>
    <path id="Path_51307" data-name="Path 51307" d="M32,33h3.874v3.874H32Z" transform="translate(-9.959 -7.631)" fill="#fff"/>
    <path id="Path_51308" data-name="Path 51308" d="M30.657,37.5h5.187a.657.657,0,0,0,.657-.657V31.657A.657.657,0,0,0,35.844,31H30.657a.657.657,0,0,0-.657.657v5.187a.657.657,0,0,0,.657.657Zm.657-5.187h3.874v3.874H31.313Z" transform="translate(-9.272 -6.944)"/>
    <path id="Path_51309" data-name="Path 51309" d="M47,33h3.939v3.939H47Z" transform="translate(-15.111 -7.631)" fill="#fff"/>
    <path id="Path_51310" data-name="Path 51310" d="M50.909,31H45.657a.657.657,0,0,0-.657.657v5.253a.657.657,0,0,0,.657.657h5.253a.657.657,0,0,0,.657-.657V31.657A.657.657,0,0,0,50.909,31Zm-.657,5.253H46.313V32.313h3.939Z" transform="translate(-14.424 -6.944)"/>
    <path id="Path_51311" data-name="Path 51311" d="M62,33h3.939v3.939H62Z" transform="translate(-20.262 -7.631)" fill="#fff"/>
    <path id="Path_51312" data-name="Path 51312" d="M65.909,31H60.657a.657.657,0,0,0-.657.657v5.253a.657.657,0,0,0,.657.657h5.253a.657.657,0,0,0,.657-.657V31.657A.657.657,0,0,0,65.909,31Zm-.657,5.253H61.313V32.313h3.939Z" transform="translate(-19.575 -6.944)"/>
    <path id="Path_51313" data-name="Path 51313" d="M32,48h3.939v3.939H32Z" transform="translate(-9.959 -12.782)" fill="#fff"/>
    <path id="Path_51314" data-name="Path 51314" d="M35.909,46H30.657a.657.657,0,0,0-.657.657v5.253a.657.657,0,0,0,.657.657h5.253a.657.657,0,0,0,.657-.657V46.657A.657.657,0,0,0,35.909,46Zm-.657,5.253H31.313V47.313h3.939Z" transform="translate(-9.272 -12.095)"/>
    <path id="Path_51315" data-name="Path 51315" d="M47,48h3.939v3.939H47Z" transform="translate(-15.111 -12.782)" fill="#fff"/>
    <path id="Path_51316" data-name="Path 51316" d="M50.909,46H45.657a.657.657,0,0,0-.657.657v5.253a.657.657,0,0,0,.657.657h5.253a.657.657,0,0,0,.657-.657V46.657A.657.657,0,0,0,50.909,46Zm-.657,5.253H46.313V47.313h3.939Z" transform="translate(-14.424 -12.095)"/>
    <path id="Path_51317" data-name="Path 51317" d="M62,48h3.939v3.939H62Z" transform="translate(-20.262 -12.782)" fill="#fff"/>
    <path id="Path_51318" data-name="Path 51318" d="M65.909,46H60.657a.657.657,0,0,0-.657.657v5.253a.657.657,0,0,0,.657.657h5.253a.657.657,0,0,0,.657-.657V46.657A.657.657,0,0,0,65.909,46Zm-.657,5.253H61.313V47.313h3.939Z" transform="translate(-19.575 -12.095)"/>
    <path id="Path_51319" data-name="Path 51319" d="M32,63h3.939v3.939H32Z" transform="translate(-9.959 -17.933)" fill="#fff"/>
    <path id="Path_51320" data-name="Path 51320" d="M35.909,61H30.657a.657.657,0,0,0-.657.657v5.253a.657.657,0,0,0,.657.657h5.253a.657.657,0,0,0,.657-.657V61.657A.657.657,0,0,0,35.909,61Zm-.657,5.253H31.313V62.313h3.939Z" transform="translate(-9.272 -17.246)"/>
    <path id="Path_51321" data-name="Path 51321" d="M47,63h3.939v3.939H47Z" transform="translate(-15.111 -17.933)" fill="#fff"/>
    <path id="Path_51322" data-name="Path 51322" d="M50.909,61H45.657a.657.657,0,0,0-.657.657v5.253a.657.657,0,0,0,.657.657h5.253a.657.657,0,0,0,.657-.657V61.657A.657.657,0,0,0,50.909,61Zm-.657,5.253H46.313V62.313h3.939Z" transform="translate(-14.424 -17.246)"/>
    <path id="Path_51323" data-name="Path 51323" d="M62,63h3.939v3.939H62Z" transform="translate(-20.262 -17.933)" fill="#fff"/>
    <path id="Path_51324" data-name="Path 51324" d="M65.909,61H60.657a.657.657,0,0,0-.657.657v5.253a.657.657,0,0,0,.657.657h5.253a.657.657,0,0,0,.657-.657V61.657A.657.657,0,0,0,65.909,61Zm-.657,5.253H61.313V62.313h3.939Z" transform="translate(-19.575 -17.246)"/>
    <path id="Path_51325" data-name="Path 51325" d="M51.617,93H5v1.313H64.092V93H51.617Z" transform="translate(-0.687 -28.236)" fill="#eee"/>
    <path id="Path_51326" data-name="Path 51326" d="M64.062,66.6H62.748V28.52a.657.657,0,0,0-.657-.657H51.587V21.954a.657.657,0,0,0-.657-.657H46.992l0-1.335v-.007h-.657v.009l0,1.335H41.083l0-1.335v-.007h-.657v.009l0,1.335H35.174l0-1.335v-.007H34.52v.009l0,1.335H28.608l0-1.236v-.106h-.657v.073l0,1.27H24.012l0-1.335v-.007h-.657v.009l0,1.335H16.788a.657.657,0,0,0-.657.657v5.909H5.626a.657.657,0,0,0-.657.657V66.6H3.657A.659.659,0,0,0,3,67.258v2.626a.659.659,0,0,0,.657.657H64.062a.659.659,0,0,0,.657-.657V67.258A.659.659,0,0,0,64.062,66.6ZM51.587,29.176h9.849V66.6H51.587ZM17.445,22.611H50.274V66.6H43.051V57.409a.659.659,0,0,0-.657-.657H25.324a.659.659,0,0,0-.657.657V66.6H17.445ZM41.738,58.066V66.6H34.516V58.066Zm-8.535,0V66.6H25.98V58.066ZM6.283,29.176h9.849V66.6H6.283ZM63.405,69.227H4.313V67.914H63.405Z" transform="translate(0 -3.15)"/>
    <path id="Path_51327" data-name="Path 51327" d="M51,78h7.222v8.535H51Z" transform="translate(-16.484 -23.085)" fill="#58c0ee"/>
    <path id="Path_51328" data-name="Path 51328" d="M38,78h7.222v8.535H38Z" transform="translate(-12.02 -23.085)" fill="#45b3e6"/>
    <path id="Path_51329" data-name="Path 51329" d="M14,41h1.97v5.909H14Z" transform="translate(-3.778 -10.378)" fill="#fff"/>
    <path id="Path_51330" data-name="Path 51330" d="M15.939,39H12.657a.657.657,0,0,0-.657.657v7.222a.657.657,0,0,0,.657.657h3.283a.657.657,0,0,0,.657-.657V39.657A.657.657,0,0,0,15.939,39Zm-.657,7.222h-1.97V40.313h1.97Z" transform="translate(-3.091 -9.691)"/>
    <path id="Path_51331" data-name="Path 51331" d="M14,58h1.97v5.909H14Z" transform="translate(-3.778 -16.216)" fill="#fff"/>
    <path id="Path_51332" data-name="Path 51332" d="M15.939,56H12.657a.657.657,0,0,0-.657.657v7.222a.657.657,0,0,0,.657.657h3.283a.657.657,0,0,0,.657-.657V56.657A.657.657,0,0,0,15.939,56Zm-.657,7.222h-1.97V57.313h1.97Z" transform="translate(-3.091 -15.529)"/>
    <path id="Path_51333" data-name="Path 51333" d="M14,75h1.97v5.909H14Z" transform="translate(-3.778 -22.054)" fill="#fff"/>
    <path id="Path_51334" data-name="Path 51334" d="M15.939,73H12.657a.657.657,0,0,0-.657.657v7.222a.657.657,0,0,0,.657.657h3.283a.657.657,0,0,0,.657-.657V73.657A.657.657,0,0,0,15.939,73Zm-.657,7.222h-1.97V74.313h1.97Z" transform="translate(-3.091 -21.367)"/>
    <path id="Path_51335" data-name="Path 51335" d="M83,41h1.97v5.909H83Z" transform="translate(-27.474 -10.378)" fill="#fff"/>
    <path id="Path_51336" data-name="Path 51336" d="M84.939,39H81.657a.657.657,0,0,0-.657.657v7.222a.657.657,0,0,0,.657.657h3.283a.657.657,0,0,0,.657-.657V39.657A.657.657,0,0,0,84.939,39Zm-.657,7.222h-1.97V40.313h1.97Z" transform="translate(-26.787 -9.691)"/>
    <path id="Path_51337" data-name="Path 51337" d="M83,58h1.97v5.909H83Z" transform="translate(-27.474 -16.216)" fill="#fff"/>
    <path id="Path_51338" data-name="Path 51338" d="M84.939,56H81.657a.657.657,0,0,0-.657.657v7.222a.657.657,0,0,0,.657.657h3.283a.657.657,0,0,0,.657-.657V56.657A.657.657,0,0,0,84.939,56Zm-.657,7.222h-1.97V57.313h1.97Z" transform="translate(-26.787 -15.529)"/>
    <path id="Path_51339" data-name="Path 51339" d="M83,75h1.97v5.909H83Z" transform="translate(-27.474 -22.054)" fill="#fff"/>
    <path id="Path_51340" data-name="Path 51340" d="M84.939,73H81.657a.657.657,0,0,0-.657.657v7.222a.657.657,0,0,0,.657.657h3.283a.657.657,0,0,0,.657-.657V73.657A.657.657,0,0,0,84.939,73Zm-.657,7.222h-1.97V74.313h1.97Z" transform="translate(-26.787 -21.367)"/>
    <path id="Path_51341" data-name="Path 51341" d="M20,34h1.97V71.425H20Z" transform="translate(-5.838 -7.974)" opacity="0.2"/>
    <path id="Path_51342" data-name="Path 51342" d="M77,34h1.97V71.425H77Z" transform="translate(-25.413 -7.974)" opacity="0.2"/>
  </g>
</svg>
