<svg xmlns="http://www.w3.org/2000/svg" width="60" height="57.142" viewBox="0 0 60 57.142">
  <g id="Group_34257" data-name="Group 34257" transform="translate(0.001 -12.193)">
    <g id="Group_34248" data-name="Group 34248" transform="translate(13.034 48.653)">
      <g id="Group_34243" data-name="Group 34243" transform="translate(0 3.196)">
        <path id="Path_51060" data-name="Path 51060" d="M148.3,357.284a10.173,10.173,0,0,0,2.442,6.7H113.934a1.165,1.165,0,0,1-.951-.486,11.859,11.859,0,0,1,0-12.426,1.165,1.165,0,0,1,.951-.486h36.812A10.174,10.174,0,0,0,148.3,357.284Z" transform="translate(-111.226 -350.585)" fill="#fb3a82"/>
        <path id="Path_51061" data-name="Path 51061" d="M122.46,350.587,112.08,361.831a11.764,11.764,0,0,1-.85-4.545,10.632,10.632,0,0,1,1.758-6.213,1.163,1.163,0,0,1,.95-.486Z" transform="translate(-111.23 -350.587)" fill="#fb1466"/>
        <path id="Path_51062" data-name="Path 51062" d="M182.869,357.284a10.173,10.173,0,0,0,2.442,6.7H147.939s-2.148-2.175-2.148-6.7,2.148-6.7,2.148-6.7h37.372A10.174,10.174,0,0,0,182.869,357.284Z" transform="translate(-141.74 -350.585)" fill="#e0d3ce"/>
        <g id="Group_34242" data-name="Group 34242" transform="translate(4.051 0)">
          <path id="Path_51063" data-name="Path 51063" d="M152.97,350.587l-7.142,7.736c-.025-.33-.039-.676-.039-1.036,0-4.525,2.148-6.7,2.148-6.7Z" transform="translate(-145.79 -350.587)" fill="#cdbfbb"/>
          <path id="Path_51064" data-name="Path 51064" d="M428.827,357.291a10.171,10.171,0,0,0,2.442,6.7h-4.428a10.409,10.409,0,0,1,0-13.4h4.428A10.169,10.169,0,0,0,428.827,357.291Z" transform="translate(-391.749 -350.591)" fill="#cdbfbb"/>
        </g>
      </g>
      <g id="Group_34247" data-name="Group 34247" transform="translate(5.043)">
        <g id="Group_34245" data-name="Group 34245" transform="translate(0)">
          <path id="Path_51065" data-name="Path 51065" d="M195.3,325.262a1.945,1.945,0,0,1-1.944,1.944H156.2a1.945,1.945,0,0,1,0-3.89h37.155A1.945,1.945,0,0,1,195.3,325.262Z" transform="translate(-154.26 -323.317)" fill="#fb3a82"/>
          <g id="Group_34244" data-name="Group 34244">
            <path id="Path_51066" data-name="Path 51066" d="M163.4,323.317l-3.59,3.89h-3.6a1.945,1.945,0,0,1,0-3.89Z" transform="translate(-154.26 -323.317)" fill="#fb1466"/>
            <path id="Path_51067" data-name="Path 51067" d="M461.43,325.265a1.946,1.946,0,0,1-1.946,1.946h-3.772a1.945,1.945,0,0,0,0-3.89h3.772A1.945,1.945,0,0,1,461.43,325.265Z" transform="translate(-420.386 -323.321)" fill="#fb1466"/>
          </g>
        </g>
        <g id="Group_34246" data-name="Group 34246" transform="translate(0 15.9)">
          <path id="Path_51068" data-name="Path 51068" d="M193.356,462.885H156.2a1.945,1.945,0,1,1,0-3.889h37.155a1.945,1.945,0,0,1,0,3.889Z" transform="translate(-154.257 -458.996)" fill="#fb3a82"/>
          <path id="Path_51069" data-name="Path 51069" d="M461.43,460.944a1.944,1.944,0,0,1-1.946,1.944h-3.772a1.944,1.944,0,1,0,0-3.888h3.772A1.945,1.945,0,0,1,461.43,460.944Z" transform="translate(-420.386 -459)" fill="#fb1466"/>
        </g>
      </g>
    </g>
    <g id="Group_34256" data-name="Group 34256" transform="translate(-0.001 12.193)">
      <g id="Group_34251" data-name="Group 34251" transform="translate(0.879 23.226)">
        <g id="Group_34249" data-name="Group 34249" transform="translate(0 7.439)">
          <path id="Path_51070" data-name="Path 51070" d="M33.1,277l-3.139-3.139L8.589,293.586a3.384,3.384,0,1,0,4.782,4.782Z" transform="translate(-7.5 -273.857)" fill="#873f30"/>
          <path id="Path_51071" data-name="Path 51071" d="M14.528,305.74a3.385,3.385,0,0,1-4.785,0,3.351,3.351,0,0,1-.825-1.349,3.379,3.379,0,0,0,3.434-.822c.032-.032.065-.067.1-.1L32.177,282.1l2.174,2.174L14.622,305.641C14.591,305.675,14.559,305.708,14.528,305.74Z" transform="translate(-8.752 -281.13)" fill="#6c3328"/>
        </g>
        <path id="Path_51072" data-name="Path 51072" d="M197.865,210.382l-7.229,8.623,2.953,2.953,8.623-7.229Z" transform="translate(-169.174 -210.382)" fill="#873f30"/>
        <path id="Path_51073" data-name="Path 51073" d="M206.628,210.382l-2.336,2.786.7.7a1.321,1.321,0,0,1,0,1.868l-4.431,4.431,1.79,1.79,8.623-7.229Z" transform="translate(-177.937 -210.382)" fill="#6c3328"/>
        <g id="Group_34250" data-name="Group 34250" transform="translate(19.069 6.858)">
          <path id="Path_51074" data-name="Path 51074" d="M173.71,275.388l-2.867-2.867a2.122,2.122,0,0,1,3-3l2.867,2.867a2.122,2.122,0,1,1-3,3Z" transform="translate(-170.222 -268.899)" fill="#ba5d4f"/>
          <path id="Path_51075" data-name="Path 51075" d="M186.615,285.3a2.122,2.122,0,0,1-3,0l-2.173-2.173a2.122,2.122,0,0,0,3-3l2.173,2.173A2.121,2.121,0,0,1,186.615,285.3Z" transform="translate(-180.126 -278.808)" fill="#a34f41"/>
        </g>
      </g>
      <g id="Group_34252" data-name="Group 34252" transform="translate(23.322 3.517)">
        <path id="Path_51076" data-name="Path 51076" d="M0,0H9V14.134H0Z" transform="translate(9.993 0) rotate(45)" fill="#ba5d4f"/>
        <path id="Path_51077" data-name="Path 51077" d="M0,0H9V14.134H0Z" transform="translate(20.308 30.309) rotate(-135)" fill="#a34f41"/>
      </g>
      <g id="Group_34255" data-name="Group 34255" transform="translate(0)">
        <path id="Path_51078" data-name="Path 51078" d="M177.33,34.518l-.221-.221a2.147,2.147,0,0,1,0-3.036l10.938-10.938a2.147,2.147,0,0,1,3.036,0l.221.221a2.147,2.147,0,0,1,0,3.036L180.366,34.518a2.147,2.147,0,0,1-3.036,0Z" transform="translate(-155.798 -18.815)" fill="#873f30"/>
        <path id="Path_51079" data-name="Path 51079" d="M348.872,206.06l.221.221a2.147,2.147,0,0,0,3.036,0l10.938-10.938a2.147,2.147,0,0,0,0-3.036l-.221-.221a2.147,2.147,0,0,0-3.036,0l-10.938,10.938A2.147,2.147,0,0,0,348.872,206.06Z" transform="translate(-307.433 -170.449)" fill="#6c3328"/>
        <g id="Group_34254" data-name="Group 34254">
          <path id="Path_51080" data-name="Path 51080" d="M0,0H10.11V21.347H0Z" transform="translate(42.443 7.544) rotate(45)" fill="#fcc16d"/>
          <path id="Path_51081" data-name="Path 51081" d="M0,0H21.347V5.117H0Z" transform="translate(30.876 26.175) rotate(-45)" fill="#fca62f"/>
          <path id="Path_51082" data-name="Path 51082" d="M239.92,67.7l-1.751-.716a1.61,1.61,0,0,0-1.748.352l-12.3,12.3a1.61,1.61,0,0,0-.352,1.748l.716,1.751a1.073,1.073,0,0,0,1.753.353l14.033-14.032A1.074,1.074,0,0,0,239.92,67.7Z" transform="translate(-197.442 -60.459)" fill="#873f30"/>
          <path id="Path_51083" data-name="Path 51083" d="M304.52,132.3l.716,1.751a1.61,1.61,0,0,1-.352,1.748l-12.3,12.3a1.61,1.61,0,0,1-1.748.352l-1.751-.716a1.073,1.073,0,0,1-.353-1.753l14.032-14.032a1.074,1.074,0,0,1,1.753.353Z" transform="translate(-254.62 -117.638)" fill="#6c3328"/>
          <g id="Group_34253" data-name="Group 34253">
            <path id="Path_51084" data-name="Path 51084" d="M57.176,63.675h-.654a9.089,9.089,0,0,1-.757-1.443.879.879,0,1,0-1.624.672c.109.262.23.519.358.771H20.021a2.812,2.812,0,0,0-.766.107,10.217,10.217,0,0,1-1.292-5.233c0-.383.017-.761.05-1.131h16.84a.879.879,0,1,0,0-1.758h-16.1l2.065-2.237H54.495a10.971,10.971,0,0,0-.846,2.237H42.1a.879.879,0,1,0,0,1.758H53.341c-.034.357-.054.718-.056,1.082a.879.879,0,0,0,.875.883h0a.879.879,0,0,0,.879-.875,9.4,9.4,0,0,1,1.478-5.084h.656a2.824,2.824,0,1,0,0-5.647H46.189L56.256,37.709a3.026,3.026,0,0,0,0-4.279l-.221-.221a3.024,3.024,0,0,0-4.124-.144l-1.556-1.556.53-.53a2.483,2.483,0,0,0,.544-2.7l-.716-1.751A1.948,1.948,0,0,0,49.3,25.352l-1.222-1.222a.879.879,0,1,0-1.243,1.243l.6.6L33.583,39.825l-4.074-4.074L43.361,21.9l.539.539A.879.879,0,1,0,45.143,21.2l-1.16-1.16a1.948,1.948,0,0,0-1.173-1.414h0l-1.751-.716a2.484,2.484,0,0,0-2.7.544l-.53.53-1.556-1.556a3.024,3.024,0,0,0-.144-4.123l-.221-.221a3.026,3.026,0,0,0-4.279,0L20.688,24.017a3.026,3.026,0,0,0,0,4.279l.221.221a3.024,3.024,0,0,0,4.124.144l1.556,1.556-.53.53a2.484,2.484,0,0,0-.544,2.7l.716,1.751a1.947,1.947,0,0,0,1.394,1.169l-4.407,5.257a3,3,0,0,0-3.967,3.807l-2,1.845a.879.879,0,0,0,1.192,1.292l1.847-1.7,2.177,2.177L6.1,66.771a2.505,2.505,0,1,1-3.54-3.54L15.4,51.38a.879.879,0,1,0-1.192-1.292L1.371,61.94a4.263,4.263,0,0,0,2.889,7.4h.088a4.227,4.227,0,0,0,3.047-1.371l5.268-5.706a10.13,10.13,0,0,0,1.413,3.013,2.047,2.047,0,0,0,1.667.856h1.481a2.819,2.819,0,0,0,2.8,3.2H57.176a2.824,2.824,0,0,0,0-5.647ZM58.242,50.6a1.067,1.067,0,0,1-1.066,1.066H22.442L23.9,50.082a3,3,0,0,0,3-.549H57.176A1.067,1.067,0,0,1,58.242,50.6ZM31.726,40.455l-5.089,4.267L24.614,42.7l4.267-5.089Zm-3.834,7.32a3.018,3.018,0,0,0-.183-1.658l5.257-4.407A1.948,1.948,0,0,0,34.134,43.1l1.751.716a2.484,2.484,0,0,0,2.7-.544l.53-.53L40.673,44.3a3.031,3.031,0,0,0-.35,3.473H27.892Zm26-13.7a1.26,1.26,0,0,1,.9.371l.221.221a1.268,1.268,0,0,1,0,1.793L44.075,47.4a1.268,1.268,0,0,1-1.793,0l-.221-.221a1.269,1.269,0,0,1,0-1.793L53,34.451a1.259,1.259,0,0,1,.9-.371Zm-3.233.222-8.751,8.751L40.36,41.5l8.751-8.752ZM34.736,41.159,48.768,27.127a.185.185,0,0,1,.134-.057.214.214,0,0,1,.042,0,.187.187,0,0,1,.142.117l.716,1.751a.729.729,0,0,1-.16.794l-12.3,12.3a.73.73,0,0,1-.794.16L34.8,41.477a.195.195,0,0,1-.064-.318ZM23.049,27.646a1.259,1.259,0,0,1-.9-.371l-.221-.221a1.268,1.268,0,0,1,0-1.793L32.87,14.323a1.268,1.268,0,0,1,1.793,0l.221.221a1.268,1.268,0,0,1,0,1.793L23.946,27.275a1.261,1.261,0,0,1-.9.371Zm3.233-.222,8.752-8.752,1.55,1.55-8.752,8.752ZM27.3,31.99l12.3-12.3a.729.729,0,0,1,.794-.16l1.751.716a.194.194,0,0,1,.064.318L28.176,34.6a.194.194,0,0,1-.318-.064l-.716-1.751a.73.73,0,0,1,.16-.794ZM20.827,44.4a1.243,1.243,0,0,1,2.122-.879l2.867,2.867a1.243,1.243,0,0,1-1.758,1.758l-2.866-2.867a1.235,1.235,0,0,1-.364-.879ZM15.508,64.252A8.867,8.867,0,0,1,14.1,60.7l2.107-2.282c0,.043,0,.087,0,.13a12.2,12.2,0,0,0,1.363,5.82H15.742A.286.286,0,0,1,15.508,64.252Zm41.668,3.312H20.021a1.066,1.066,0,1,1,0-2.131H57.176a1.066,1.066,0,1,1,0,2.131Z" transform="translate(0.001 -12.193)"/>
            <path id="Path_51085" data-name="Path 51085" d="M203.206,417.166a.879.879,0,1,0,0,1.758h20.476a.879.879,0,0,0,0-1.758Z" transform="translate(-178.616 -369.707)"/>
          </g>
        </g>
      </g>
    </g>
  </g>
</svg>
