<svg xmlns="http://www.w3.org/2000/svg" width="59.549" height="60.693" viewBox="0 0 59.549 60.693">
  <g id="Group_34376" data-name="Group 34376" transform="translate(-4.397 0.001)">
    <path id="Path_51343" data-name="Path 51343" d="M22.337,261.325a2.56,2.56,0,0,1-2.57,2.57h0a2.56,2.56,0,0,1-2.57-2.57v-23.18a2.56,2.56,0,0,1,2.57-2.57h0a2.56,2.56,0,0,1,2.57,2.57Z" transform="translate(-11.133 -204.916)" fill="#80c3ff"/>
    <path id="Path_51344" data-name="Path 51344" d="M36.946,235.576h0a2.56,2.56,0,0,1,2.57,2.57v23.18a2.56,2.56,0,0,1-2.57,2.57h0" transform="translate(-28.313 -204.917)" fill="#2a8bf4"/>
    <g id="Group_34368" data-name="Group 34368" transform="translate(4.397 9.574)">
      <path id="Path_51345" data-name="Path 51345" d="M15,259.838a3.291,3.291,0,0,1-3.284-3.284v-23.18a3.284,3.284,0,1,1,6.568,0v23.18A3.291,3.291,0,0,1,15,259.838Zm0-28.32a1.859,1.859,0,0,0-1.856,1.856v23.18A1.859,1.859,0,0,0,15,258.41a1.89,1.89,0,0,0,1.856-1.856v-23.18A1.859,1.859,0,0,0,15,231.518Z" transform="translate(-10.76 -209.719)" fill="#33363a"/>
      <path id="Path_51346" data-name="Path 51346" d="M32.174,414.994a.732.732,0,0,1-.714-.714v-.619a.714.714,0,0,1,1.428,0v.619A.7.7,0,0,1,32.174,414.994Z" transform="translate(-27.938 -368.777)" fill="#33363a"/>
      <path id="Path_51347" data-name="Path 51347" d="M32.174,85.082a.732.732,0,0,1-.714-.714V74.278a.714.714,0,0,1,1.428,0v10.09A.675.675,0,0,1,32.174,85.082Z" transform="translate(-27.938 -73.564)" fill="#33363a"/>
      <path id="Path_51348" data-name="Path 51348" d="M28.993,172.889a1.178,1.178,0,0,1-1.19-1.19v-7.711a1.19,1.19,0,0,1,2.38,0V171.7A1.209,1.209,0,0,1,28.993,172.889Z" transform="translate(-24.757 -151.184)" fill="#33363a"/>
      <path id="Path_51349" data-name="Path 51349" d="M10.224,86.8a4.022,4.022,0,0,1-4-4v-6.33a.714.714,0,1,1,1.428,0V82.8a2.57,2.57,0,1,0,5.141,0v-6.33a.714.714,0,0,1,1.428,0V82.8A3.962,3.962,0,0,1,10.224,86.8Z" transform="translate(-5.988 -75.472)" fill="#33363a"/>
      <path id="Path_51350" data-name="Path 51350" d="M16.927,130.794a2.011,2.011,0,0,1-2,2H11.882a2.011,2.011,0,0,1-2-2v-3.665a2.011,2.011,0,0,1,2-2h3.046a2.011,2.011,0,0,1,2,2Z" transform="translate(-9.169 -118.419)" fill="#33363a"/>
      <path id="Path_51351" data-name="Path 51351" d="M10.156,128.369H7.11A2.712,2.712,0,0,1,4.4,125.656v-3.665a2.712,2.712,0,0,1,2.713-2.713h3.046a2.712,2.712,0,0,1,2.713,2.713v3.665A2.712,2.712,0,0,1,10.156,128.369ZM7.11,120.754a1.28,1.28,0,0,0-1.285,1.285V125.7a1.28,1.28,0,0,0,1.285,1.285h3.046a1.28,1.28,0,0,0,1.285-1.285v-3.665a1.28,1.28,0,0,0-1.285-1.285Z" transform="translate(-4.397 -113.328)" fill="#33363a"/>
    </g>
    <path id="Path_51352" data-name="Path 51352" d="M129.348,109.732a24.441,24.441,0,1,1-24.465-24.465A24.457,24.457,0,0,1,129.348,109.732Z" transform="translate(-66.169 -74.17)" fill="#fff"/>
    <path id="Path_51353" data-name="Path 51353" d="M268.443,85.267a24.465,24.465,0,1,1,0,48.929" transform="translate(-229.681 -74.17)" fill="#c8dbdb"/>
    <path id="Path_51354" data-name="Path 51354" d="M100.477,129.772a25.179,25.179,0,1,1,25.179-25.179A25.178,25.178,0,0,1,100.477,129.772Zm0-48.882a23.751,23.751,0,1,0,23.751,23.751A23.746,23.746,0,0,0,100.477,80.891Z" transform="translate(-61.715 -69.08)" fill="#33363a"/>
    <circle id="Ellipse_52" data-name="Ellipse 52" cx="16.231" cy="16.231" r="16.231" transform="translate(22.531 19.331)" fill="#fff"/>
    <path id="Path_51355" data-name="Path 51355" d="M143.734,164.766a16.231,16.231,0,1,1,32.461,0" transform="translate(-121.203 -129.204)" fill="#c8dbdb"/>
    <path id="Path_51356" data-name="Path 51356" d="M155.193,176.939a16.944,16.944,0,1,1,16.944-16.944A16.982,16.982,0,0,1,155.193,176.939Zm0-32.461a15.517,15.517,0,1,0,15.517,15.517A15.519,15.519,0,0,0,155.193,144.478Z" transform="translate(-116.431 -124.433)" fill="#33363a"/>
    <circle id="Ellipse_53" data-name="Ellipse 53" cx="9.805" cy="9.805" r="9.805" transform="translate(28.957 25.756)" fill="#c8dbdb"/>
    <path id="Path_51357" data-name="Path 51357" d="M202.911,217.517a9.8,9.8,0,1,1,0-19.61" transform="translate(-164.149 -172.15)" fill="#fff"/>
    <path id="Path_51358" data-name="Path 51358" d="M222.1,53.987a28.275,28.275,0,0,0-33.746-21.514l6.092,27.654Z" transform="translate(-160.014 -27.659)" fill="#83ed88"/>
    <path id="Path_51359" data-name="Path 51359" d="M223.823,75.535A25.15,25.15,0,0,0,193.837,56.4l5.426,24.56Z" transform="translate(-164.785 -48.541)" fill="#5fce96"/>
    <path id="Path_51360" data-name="Path 51360" d="M224.783,89.01a23.194,23.194,0,0,0-27.654-17.658l5,22.656Z" transform="translate(-167.648 -61.587)" fill="#f42535"/>
    <path id="Path_51361" data-name="Path 51361" d="M235.529,118.36h0l22.656-5A23.231,23.231,0,0,0,248,98.8Z" transform="translate(-201.051 -85.94)" fill="#fc4259"/>
    <path id="Path_51362" data-name="Path 51362" d="M223.212,89.343l1.571-.333a23.194,23.194,0,0,0-27.654-17.658l.333,1.571A23.186,23.186,0,0,1,223.212,89.343Z" transform="translate(-167.648 -61.587)" fill="#d60024"/>
    <path id="Path_51363" data-name="Path 51363" d="M332.023,109.556a23.227,23.227,0,0,0-9-10.757l-1.19,1.856a23.093,23.093,0,0,1,9.8,13.042l1.571-.333a18.967,18.967,0,0,0-.809-2.808A8.583,8.583,0,0,0,332.023,109.556Z" transform="translate(-276.126 -85.941)" fill="#f42535"/>
    <path id="Path_51364" data-name="Path 51364" d="M196.763,75.393,201.808,98l22.656-5-20.9,2.237Z" transform="translate(-167.33 -65.581)" fill="#fc4259"/>
    <path id="Path_51365" data-name="Path 51365" d="M237.29,212.944l-1.761,2.761h0l22.656-5Z" transform="translate(-201.051 -183.285)" fill="#ff647e"/>
    <g id="Group_34369" data-name="Group 34369" transform="translate(27.653 3.358)">
      <path id="Path_51366" data-name="Path 51366" d="M189.913,55.579a.758.758,0,0,1-.714-.571l-6.092-27.654a.661.661,0,0,1,.1-.524.96.96,0,0,1,.428-.333,29.044,29.044,0,0,1,34.6,22.037.661.661,0,0,1-.1.524.96.96,0,0,1-.428.333L190.1,55.484C190.009,55.579,189.961,55.579,189.913,55.579ZM184.63,27.83l5.807,26.226,26.226-5.807A27.6,27.6,0,0,0,184.63,27.83Z" transform="translate(-183.088 -25.803)" fill="#33363a"/>
      <path id="Path_51367" data-name="Path 51367" d="M219.871,85.146a.758.758,0,0,1-.714-.571,22.513,22.513,0,0,0-26.8-17.087.71.71,0,0,1-.333-1.38,23.94,23.94,0,0,1,28.51,18.182.71.71,0,0,1-.524.857Z" transform="translate(-190.389 -60.367)" fill="#33363a"/>
    </g>
    <path id="Path_51368" data-name="Path 51368" d="M115.2,113.236a13.708,13.708,0,1,1-13.708-13.708A13.711,13.711,0,0,1,115.2,113.236Z" transform="translate(-72.531 -86.575)" fill="#a07f3c"/>
    <g id="Group_34370" data-name="Group 34370" transform="translate(15.249 12.905)">
      <path id="Path_51369" data-name="Path 51369" d="M115.2,204.856a13.708,13.708,0,1,1-27.416,0" transform="translate(-87.78 -191.1)" fill="#84692c"/>
      <path id="Path_51370" data-name="Path 51370" d="M193.106,99.164v27.463a13.732,13.732,0,0,0,0-27.463Z" transform="translate(-179.398 -99.164)" fill="#84692c"/>
    </g>
    <path id="Path_51371" data-name="Path 51371" d="M193.106,204.856v13.708a13.711,13.711,0,0,0,13.708-13.708Z" transform="translate(-164.149 -178.195)" fill="#705622"/>
    <path id="Path_51372" data-name="Path 51372" d="M96.717,122.889a14.422,14.422,0,1,1,0-28.844h0a14.422,14.422,0,1,1,0,28.844Zm0-27.463h0a12.994,12.994,0,1,0,12.994,12.994,12.77,12.77,0,0,0-3.808-9.186A13.049,13.049,0,0,0,96.717,95.425Z" transform="translate(-67.76 -81.806)" fill="#33363a"/>
    <circle id="Ellipse_54" data-name="Ellipse 54" cx="9.234" cy="9.234" r="9.234" transform="translate(19.723 17.427)" fill="#bedd05"/>
    <path id="Path_51373" data-name="Path 51373" d="M122.157,143.141a9.243,9.243,0,0,1,9.234-9.234" transform="translate(-102.434 -116.48)" fill="#def21d"/>
    <path id="Path_51374" data-name="Path 51374" d="M122.157,204.856a9.234,9.234,0,1,0,18.468,0Z" transform="translate(-102.434 -178.195)" fill="#85c606"/>
    <path id="Path_51375" data-name="Path 51375" d="M122.157,204.856a9.243,9.243,0,0,0,9.234,9.234" transform="translate(-102.434 -178.195)" fill="#bedd05"/>
    <path id="Path_51376" data-name="Path 51376" d="M193.106,133.907v18.468a9.234,9.234,0,1,0,0-18.468Z" transform="translate(-164.149 -116.48)" fill="#85c606"/>
    <g id="Group_34371" data-name="Group 34371" transform="translate(28.909 17.427)">
      <path id="Path_51377" data-name="Path 51377" d="M201.974,143.141a9.243,9.243,0,0,0-9.234-9.234" transform="translate(-192.74 -133.907)" fill="#52c408"/>
      <path id="Path_51378" data-name="Path 51378" d="M193.106,204.856v9.234a9.243,9.243,0,0,0,9.234-9.234Z" transform="translate(-193.058 -195.622)" fill="#52c408"/>
    </g>
    <path id="Path_51379" data-name="Path 51379" d="M193.106,213.723a9.243,9.243,0,0,0,9.234-9.234" transform="translate(-164.149 -177.876)" fill="#25c10a"/>
    <circle id="Ellipse_55" data-name="Ellipse 55" cx="3.284" cy="3.284" r="3.284" transform="translate(25.673 23.377)" fill="#bedd05"/>
    <g id="Group_34372" data-name="Group 34372" transform="translate(25.673 23.329)">
      <path id="Path_51380" data-name="Path 51380" d="M193.106,185.824a3.284,3.284,0,1,0,0-6.568Z" transform="translate(-189.822 -179.256)" fill="#85c606"/>
      <path id="Path_51381" data-name="Path 51381" d="M167.872,182.906h6.568a3.284,3.284,0,0,0-6.568,0Z" transform="translate(-167.872 -179.574)" fill="#85c606"/>
    </g>
    <path id="Path_51382" data-name="Path 51382" d="M193.106,182.906h3.284a3.291,3.291,0,0,0-3.284-3.284Z" transform="translate(-164.149 -156.245)" fill="#52c408"/>
    <circle id="Ellipse_56" data-name="Ellipse 56" cx="1.951" cy="1.951" r="1.951" transform="translate(27.006 24.709)" fill="#bedd05"/>
    <g id="Group_34373" data-name="Group 34373" transform="translate(27.004 24.662)">
      <path id="Path_51383" data-name="Path 51383" d="M182.015,191.813a1.951,1.951,0,1,0-3.9,0Z" transform="translate(-178.11 -189.814)" fill="#85c606"/>
      <path id="Path_51384" data-name="Path 51384" d="M180.051,193.446V189.5a1.975,1.975,0,0,0,0,3.951Z" transform="translate(-178.098 -189.496)" fill="#85c606"/>
    </g>
    <path id="Path_51385" data-name="Path 51385" d="M180.063,191.5v-2a1.93,1.93,0,0,0-1.951,1.951h1.951Z" transform="translate(-151.106 -164.834)" fill="#52c408"/>
    <path id="Path_51386" data-name="Path 51386" d="M126.62,147.951A9.948,9.948,0,1,1,136.567,138,9.974,9.974,0,0,1,126.62,147.951Zm0-18.42a8.52,8.52,0,1,0,8.52,8.52A8.511,8.511,0,0,0,126.62,129.531Z" transform="translate(-97.663 -111.39)" fill="#33363a"/>
    <path id="Path_51387" data-name="Path 51387" d="M289.14,99.035c-1.19,3.57-8.044,33.318-4.474,34.508s16.231-26.559,17.42-30.129-1.047-6.426-4.617-7.615S290.378,95.466,289.14,99.035Z" transform="translate(-242.906 -82.893)" fill="#ffe108"/>
    <path id="Path_51388" data-name="Path 51388" d="M289.14,108.007c-1.19,3.57-8.044,33.318-4.474,34.508s16.231-26.559,17.42-30.129-1.761-4.379-5.331-5.569C293.186,105.58,290.378,104.437,289.14,108.007Z" transform="translate(-242.906 -91.865)" fill="#ffb206"/>
    <path id="Path_51389" data-name="Path 51389" d="M289.14,124.033c-1.19,3.57-8.044,33.318-4.474,34.508s16.231-26.559,17.42-30.129" transform="translate(-242.906 -107.891)" fill="#ff8103"/>
    <path id="Path_51390" data-name="Path 51390" d="M284.641,201.487c-2.713-.9.571-18.182,2.856-28.082l11.947,4.046C295.255,186.732,287.354,202.439,284.641,201.487Z" transform="translate(-242.88 -150.837)" fill="#ff6b06"/>
    <path id="Path_51391" data-name="Path 51391" d="M284.712,259.066c-2-.666-.714-10.424,1.047-19.467l10,3.379C291.613,251.213,286.711,259.78,284.712,259.066Z" transform="translate(-242.951 -208.416)" fill="#ed4706"/>
    <path id="Path_51392" data-name="Path 51392" d="M284.641,313.146c-1.428-.476-1.19-5.378-.333-11.376l7.52,2.57C288.877,309.623,286.021,313.622,284.641,313.146Z" transform="translate(-242.881 -262.496)" fill="#d83705"/>
    <path id="Path_51393" data-name="Path 51393" d="M280.273,129.669a1.472,1.472,0,0,1-.524-.1c-.857-.286-2.856-1,0-17.182,1.428-8.091,3.427-16.421,4.046-18.23h0c1.238-3.665,4.95-5.14,9.234-3.713s6.283,4.9,5.045,8.52c-.619,1.856-4.093,9.662-7.853,16.944C283.891,128.146,281.416,129.669,280.273,129.669Zm4.9-35.079c-.619,1.761-2.57,9.9-4,17.9-2.618,14.8-.952,15.707-.952,15.707s1.9.286,8.805-13.042a177.81,177.81,0,0,0,7.711-16.659c1.19-3.522-1.523-5.807-4.189-6.711s-6.188-.714-7.378,2.808Z" transform="translate(-238.227 -78.211)" fill="#33363a"/>
    <path id="Path_51394" data-name="Path 51394" d="M380.873,38.506a1.2,1.2,0,0,0,.952-1.428,4.7,4.7,0,0,1,3.713-5.569,1.213,1.213,0,1,0-.476-2.38,7.191,7.191,0,0,0-5.616,8.425A1.2,1.2,0,0,0,380.873,38.506Z" transform="translate(-326.119 -25.315)" fill="#92fc6b"/>
    <path id="Path_51395" data-name="Path 51395" d="M387.533,41.636a1.125,1.125,0,0,1,.952.238,1.281,1.281,0,0,1-.809.571,4.721,4.721,0,0,0-3.713,5.569,1.2,1.2,0,0,1-.952,1.428,1.239,1.239,0,0,1-1.238-.476A7.105,7.105,0,0,1,387.533,41.636Z" transform="translate(-328.256 -36.203)" fill="#70d63a"/>
    <path id="Path_51396" data-name="Path 51396" d="M376.046,34.462A1.622,1.622,0,0,1,375,34.129a1.858,1.858,0,0,1-.809-1.238,7.9,7.9,0,0,1,6.188-9.281,1.914,1.914,0,0,1,.714,3.76,4.059,4.059,0,0,0-3.189,4.76,1.9,1.9,0,0,1-1.523,2.237h0A.453.453,0,0,1,376.046,34.462Zm4.664-9.424h-.1a6.438,6.438,0,0,0-5.045,7.568.766.766,0,0,0,.19.333.513.513,0,0,0,.381.1h0a.767.767,0,0,0,.333-.19.513.513,0,0,0,.1-.381,5.474,5.474,0,0,1,4.284-6.426.482.482,0,0,0,.381-.571A.546.546,0,0,0,380.71,25.038Z" transform="translate(-321.529 -20.51)" fill="#33363a"/>
    <path id="Path_51397" data-name="Path 51397" d="M372.1,28.934a1.166,1.166,0,0,0,.1-1.714,4.793,4.793,0,0,1,.428-6.711,1.206,1.206,0,0,0,.1-1.714A1.166,1.166,0,0,0,371,18.7a7.156,7.156,0,0,0-.666,10.09A1.276,1.276,0,0,0,372.1,28.934Z" transform="translate(-316.772 -15.981)" fill="#92fc6b"/>
    <path id="Path_51398" data-name="Path 51398" d="M379.723,28.056a1.2,1.2,0,0,1,.952-.286,1.172,1.172,0,0,1-.428.9,4.793,4.793,0,0,0-.428,6.711,1.213,1.213,0,0,1-1.428,1.9A7.165,7.165,0,0,1,379.723,28.056Z" transform="translate(-324.35 -24.146)" fill="#70d63a"/>
    <path id="Path_51399" data-name="Path 51399" d="M366.836,25.1h-.143a2,2,0,0,1-1.333-.666,7.842,7.842,0,0,1-1.951-5.712,7.93,7.93,0,0,1,2.665-5.426,1.923,1.923,0,0,1,2.523,2.9,4.18,4.18,0,0,0-1.38,2.761,4.018,4.018,0,0,0,1,2.9,1.824,1.824,0,0,1,.476,1.38,2,2,0,0,1-.666,1.333h0A1.464,1.464,0,0,1,366.836,25.1Zm.524-10.8a.514.514,0,0,0-.333.143,6.6,6.6,0,0,0-2.189,4.426,6.412,6.412,0,0,0,1.571,4.664.768.768,0,0,0,.333.19.633.633,0,0,0,.381-.143.46.46,0,0,0,0-.666,5.48,5.48,0,0,1-1.333-3.95,5.407,5.407,0,0,1,1.856-3.76.517.517,0,0,0,.048-.714A.319.319,0,0,0,367.359,14.3Z" transform="translate(-312.272 -11.15)" fill="#33363a"/>
    <path id="Path_51400" data-name="Path 51400" d="M390.091,15.91a1.251,1.251,0,0,1,.1-1.714,4.793,4.793,0,0,0,.428-6.711,1.214,1.214,0,0,1,1.809-1.618,7.111,7.111,0,0,1-.666,10.09A1.08,1.08,0,0,1,390.091,15.91Z" transform="translate(-335.242 -4.766)" fill="#92fc6b"/>
    <path id="Path_51401" data-name="Path 51401" d="M391,14.381a1.352,1.352,0,0,0-.9-.428,1.2,1.2,0,0,0,.286.952,4.793,4.793,0,0,1-.428,6.711,1.166,1.166,0,0,0-.1,1.714,1.206,1.206,0,0,0,1.285.333A7.143,7.143,0,0,0,391,14.381Z" transform="translate(-335.005 -12.138)" fill="#70d63a"/>
    <path id="Path_51402" data-name="Path 51402" d="M385.912,12.287h-.143a2,2,0,0,1-1.333-.666,1.824,1.824,0,0,1-.476-1.38,2,2,0,0,1,.666-1.333,4.061,4.061,0,0,0,.381-5.712A1.9,1.9,0,0,1,385.2.483a1.824,1.824,0,0,1,1.38-.476,2,2,0,0,1,1.333.666,7.842,7.842,0,0,1,1.951,5.712,7.93,7.93,0,0,1-2.665,5.426A1.876,1.876,0,0,1,385.912,12.287Zm.571-10.8a.432.432,0,0,0-.333.143.517.517,0,0,0-.048.714,5.442,5.442,0,0,1-.524,7.711.517.517,0,0,0-.048.714h0a.46.46,0,0,0,.666,0,6.6,6.6,0,0,0,2.189-4.426,6.214,6.214,0,0,0-1.571-4.664.318.318,0,0,0-.333-.191Z" transform="translate(-330.158 0)" fill="#33363a"/>
    <path id="Path_51403" data-name="Path 51403" d="M389.676,24.754a1.2,1.2,0,0,1,.952-1.428,4.721,4.721,0,0,0,3.713-5.569,1.213,1.213,0,0,1,2.38-.476,7.191,7.191,0,0,1-5.616,8.425A1.177,1.177,0,0,1,389.676,24.754Z" transform="translate(-335.112 -14.181)" fill="#92fc6b"/>
    <path id="Path_51404" data-name="Path 51404" d="M394.784,20.979a1.233,1.233,0,0,0-.571-.809,1.369,1.369,0,0,0-.238.952,4.7,4.7,0,0,1-3.713,5.569,1.2,1.2,0,0,0-.952,1.428,1.223,1.223,0,0,0,.952.952A7.132,7.132,0,0,0,394.784,20.979Z" transform="translate(-334.794 -17.546)" fill="#70d63a"/>
    <path id="Path_51405" data-name="Path 51405" d="M385.7,22.277a1.936,1.936,0,0,1-1.9-1.523h0a1.9,1.9,0,0,1,1.523-2.237,4.059,4.059,0,0,0,3.189-4.76,1.9,1.9,0,0,1,1.523-2.237,1.876,1.876,0,0,1,1.428.286,1.858,1.858,0,0,1,.809,1.238,7.9,7.9,0,0,1-6.188,9.281A.929.929,0,0,0,385.7,22.277Zm-.476-1.809a.482.482,0,0,0,.571.381,6.438,6.438,0,0,0,5.045-7.568.767.767,0,0,0-.19-.333.513.513,0,0,0-.381-.1.482.482,0,0,0-.381.571,5.474,5.474,0,0,1-4.284,6.426A.546.546,0,0,0,385.219,20.468Z" transform="translate(-329.989 -9.99)" fill="#33363a"/>
    <path id="Path_51406" data-name="Path 51406" d="M355.578,43.928a1.228,1.228,0,0,1-.762-1.523,4.767,4.767,0,0,0-2.951-6.045,1.228,1.228,0,0,1-.761-1.523,1.249,1.249,0,0,1,1.523-.761,7.143,7.143,0,0,1,4.474,9.091A1.207,1.207,0,0,1,355.578,43.928Z" transform="translate(-301.537 -29.595)" fill="#92fc6b"/>
    <path id="Path_51407" data-name="Path 51407" d="M352.778,45.805a1.308,1.308,0,0,0-.952.1,1.232,1.232,0,0,0,.714.666,4.748,4.748,0,0,1,2.951,6.045,1.228,1.228,0,0,0,.762,1.523,1.276,1.276,0,0,0,1.285-.333A7.181,7.181,0,0,0,352.778,45.805Z" transform="translate(-302.212 -39.801)" fill="#70d63a"/>
    <path id="Path_51408" data-name="Path 51408" d="M351.192,39.925a2.79,2.79,0,0,1-.619-.1h0a1.914,1.914,0,0,1-1.19-2.427,4.116,4.116,0,0,0-.19-3.094,3.97,3.97,0,0,0-2.332-2.047,1.912,1.912,0,0,1,1.237-3.617,7.66,7.66,0,0,1,4.522,4,7.54,7.54,0,0,1,.381,6,1.957,1.957,0,0,1-.952,1.095A1.631,1.631,0,0,1,351.192,39.925Zm-3.713-9.948a.573.573,0,0,0-.476.333.5.5,0,0,0,.286.619,5.438,5.438,0,0,1,3.141,2.761,5.355,5.355,0,0,1,.286,4.189A.5.5,0,0,0,351,38.5h0a.372.372,0,0,0,.381-.048.488.488,0,0,0,.238-.286,6.275,6.275,0,0,0-.333-4.9,6.389,6.389,0,0,0-3.713-3.237C347.574,29.977,347.527,29.977,347.479,29.977Z" transform="translate(-296.77 -24.83)" fill="#33363a"/>
    <path id="Path_51409" data-name="Path 51409" d="M380.757,67.165a1.228,1.228,0,0,0,1.523-.761,4.812,4.812,0,0,1,6.045-3,1.2,1.2,0,0,0,.762-2.285A7.182,7.182,0,0,0,380,65.594,1.26,1.26,0,0,0,380.757,67.165Z" transform="translate(-326.669 -52.831)" fill="#92fc6b"/>
    <path id="Path_51410" data-name="Path 51410" d="M388.6,73.227a1.232,1.232,0,0,1,.714.666,1.308,1.308,0,0,1-.952.1,4.753,4.753,0,0,0-6.045,3,1.228,1.228,0,0,1-1.523.761,1.177,1.177,0,0,1-.809-1.047A7.13,7.13,0,0,1,388.6,73.227Z" transform="translate(-326.707 -63.368)" fill="#70d63a"/>
    <g id="Group_34374" data-name="Group 34374" transform="translate(40.261 7.262)">
      <path id="Path_51411" data-name="Path 51411" d="M376.39,63.681a2.79,2.79,0,0,1-.619-.1h0a1.9,1.9,0,0,1-1.19-2.427,7.914,7.914,0,0,1,10-4.95,1.912,1.912,0,0,1-1.237,3.617,4.079,4.079,0,0,0-5.14,2.523A1.885,1.885,0,0,1,376.39,63.681Zm-.143-1.475a.5.5,0,0,0,.619-.286,5.5,5.5,0,0,1,6.949-3.427.5.5,0,0,0,.619-.286.483.483,0,0,0-.333-.619,6.456,6.456,0,0,0-8.187,4.046.372.372,0,0,0,.048.381.736.736,0,0,0,.286.19Z" transform="translate(-362.181 -55.801)" fill="#33363a"/>
      <path id="Path_51412" data-name="Path 51412" d="M395.911,145.525a.429.429,0,0,1-.238-.048l-3.141-1.047a.708.708,0,0,1,.476-1.333l3.141,1.047a.688.688,0,0,1,.428.9A.716.716,0,0,1,395.911,145.525Z" transform="translate(-377.466 -131.695)" fill="#33363a"/>
      <path id="Path_51413" data-name="Path 51413" d="M371.552,136.459a.43.43,0,0,1-.238-.048l-.524-.19a.723.723,0,1,1,.428-1.38l.524.19a.754.754,0,0,1,.476.9A.7.7,0,0,1,371.552,136.459Z" transform="translate(-358.534 -124.533)" fill="#33363a"/>
      <path id="Path_51414" data-name="Path 51414" d="M352.981,130.831a.429.429,0,0,1-.238-.048l-.238-.048a.723.723,0,0,1,.428-1.38l.238.048a.754.754,0,0,1,.476.9A.7.7,0,0,1,352.981,130.831Z" transform="translate(-342.628 -119.762)" fill="#33363a"/>
      <path id="Path_51415" data-name="Path 51415" d="M337.255,125.345a.429.429,0,0,1-.238-.048l-.238-.048a.723.723,0,0,1,.428-1.38l.238.048a.754.754,0,0,1,.476.9A.628.628,0,0,1,337.255,125.345Z" transform="translate(-328.948 -114.99)" fill="#33363a"/>
      <path id="Path_51416" data-name="Path 51416" d="M386.036,174.416a.429.429,0,0,1-.238-.048l-3.141-1.047a.708.708,0,1,1,.476-1.333l3.141,1.047a.688.688,0,0,1,.428.9A.716.716,0,0,1,386.036,174.416Z" transform="translate(-368.877 -156.826)" fill="#33363a"/>
      <path id="Path_51417" data-name="Path 51417" d="M361.678,165.717a.429.429,0,0,1-.238-.048l-.524-.19a.723.723,0,1,1,.428-1.38l.524.19a.754.754,0,0,1,.476.9A.7.7,0,0,1,361.678,165.717Z" transform="translate(-349.945 -149.983)" fill="#33363a"/>
      <path id="Path_51418" data-name="Path 51418" d="M343.107,159.722a.517.517,0,0,1-.238-.048l-.238-.048a.723.723,0,0,1,.428-1.38l.238.048a.732.732,0,0,1,.476.9A.7.7,0,0,1,343.107,159.722Z" transform="translate(-334.039 -144.892)" fill="#33363a"/>
      <path id="Path_51419" data-name="Path 51419" d="M327.381,154.6a.517.517,0,0,1-.238-.048l-.238-.048a.754.754,0,0,1-.476-.9.732.732,0,0,1,.9-.476l.238.048a.754.754,0,0,1,.476.9A.628.628,0,0,1,327.381,154.6Z" transform="translate(-320.36 -140.439)" fill="#33363a"/>
      <path id="Path_51420" data-name="Path 51420" d="M374.7,202.942a.429.429,0,0,1-.238-.048l-3.141-1.047a.708.708,0,1,1,.476-1.333l3.141,1.047a.688.688,0,0,1,.428.9A.657.657,0,0,1,374.7,202.942Z" transform="translate(-359.016 -181.639)" fill="#33363a"/>
      <path id="Path_51421" data-name="Path 51421" d="M350.34,194.242a.517.517,0,0,1-.238-.048l-.524-.19a.723.723,0,1,1,.428-1.38l.524.19a.754.754,0,0,1,.476.9A.7.7,0,0,1,350.34,194.242Z" transform="translate(-340.083 -174.795)" fill="#33363a"/>
      <path id="Path_51422" data-name="Path 51422" d="M331.769,188.613a.429.429,0,0,1-.238-.048l-.238-.048a.723.723,0,1,1,.428-1.38l.238.048a.754.754,0,0,1,.476.9A.763.763,0,0,1,331.769,188.613Z" transform="translate(-324.176 -170.023)" fill="#33363a"/>
      <path id="Path_51423" data-name="Path 51423" d="M316.044,183.128a.517.517,0,0,1-.238-.048l-.238-.048a.732.732,0,0,1-.476-.9.754.754,0,0,1,.9-.476l.238.048a.732.732,0,0,1,.476.9A.628.628,0,0,1,316.044,183.128Z" transform="translate(-310.498 -165.252)" fill="#33363a"/>
      <path id="Path_51424" data-name="Path 51424" d="M361.167,230.736a.429.429,0,0,1-.238-.048l-3.141-1.047a.708.708,0,0,1,.476-1.333l3.141,1.047a.688.688,0,0,1,.428.9A.656.656,0,0,1,361.167,230.736Z" transform="translate(-347.245 -205.816)" fill="#33363a"/>
      <path id="Path_51425" data-name="Path 51425" d="M336.491,222.037a.429.429,0,0,1-.238-.048l-.571-.19a.723.723,0,0,1,.428-1.38l.571.19a.754.754,0,0,1,.476.9A.7.7,0,0,1,336.491,222.037Z" transform="translate(-327.994 -198.973)" fill="#33363a"/>
      <path id="Path_51426" data-name="Path 51426" d="M318.238,216.408a.429.429,0,0,1-.238-.048l-.238-.048a.723.723,0,1,1,.428-1.38l.238.048a.754.754,0,0,1,.476.9A.763.763,0,0,1,318.238,216.408Z" transform="translate(-312.406 -194.201)" fill="#33363a"/>
      <path id="Path_51427" data-name="Path 51427" d="M302.512,210.922a.429.429,0,0,1-.238-.048l-.238-.048a.723.723,0,0,1,.428-1.38l.238.048a.754.754,0,0,1,.476.9A.662.662,0,0,1,302.512,210.922Z" transform="translate(-298.727 -189.429)" fill="#33363a"/>
      <path id="Path_51428" data-name="Path 51428" d="M348.543,259.215a.43.43,0,0,1-.238-.048l-2.951-1a.708.708,0,0,1,.476-1.333l2.951,1a.688.688,0,0,1,.428.9A.672.672,0,0,1,348.543,259.215Z" transform="translate(-336.429 -230.629)" fill="#33363a"/>
      <path id="Path_51429" data-name="Path 51429" d="M325.838,251.246a.517.517,0,0,1-.238-.048l-.524-.143a.723.723,0,0,1,.428-1.38l.524.143a.732.732,0,0,1,.476.9A.7.7,0,0,1,325.838,251.246Z" transform="translate(-318.769 -224.422)" fill="#33363a"/>
      <path id="Path_51430" data-name="Path 51430" d="M309.047,245.665a.518.518,0,0,1-.238-.048l-.19-.048a.754.754,0,0,1-.476-.9.732.732,0,0,1,.9-.476l.19.048a.754.754,0,0,1,.476.9A.714.714,0,0,1,309.047,245.665Z" transform="translate(-304.453 -219.65)" fill="#33363a"/>
      <path id="Path_51431" data-name="Path 51431" d="M294.419,240.545a.517.517,0,0,1-.238-.048l-.19-.048a.754.754,0,0,1-.476-.9.732.732,0,0,1,.9-.476l.19.048a.754.754,0,0,1,.476.9A.628.628,0,0,1,294.419,240.545Z" transform="translate(-291.729 -215.196)" fill="#33363a"/>
      <path id="Path_51432" data-name="Path 51432" d="M333.007,286.325a.429.429,0,0,1-.238-.048l-3.141-1.047a.708.708,0,1,1,.476-1.333l3.141,1.047a.688.688,0,0,1,.428.9A.716.716,0,0,1,333.007,286.325Z" transform="translate(-322.75 -254.17)" fill="#33363a"/>
      <path id="Path_51433" data-name="Path 51433" d="M308.649,277.259a.517.517,0,0,1-.238-.048l-.524-.19a.754.754,0,0,1-.476-.9.732.732,0,0,1,.9-.476l.524.19a.754.754,0,0,1,.476.9A.7.7,0,0,1,308.649,277.259Z" transform="translate(-303.818 -247.008)" fill="#33363a"/>
      <path id="Path_51434" data-name="Path 51434" d="M290.078,271.631a.429.429,0,0,1-.238-.048l-.238-.048a.723.723,0,0,1,.428-1.38l.238.048a.754.754,0,0,1,.476.9A.628.628,0,0,1,290.078,271.631Z" transform="translate(-287.911 -242.237)" fill="#33363a"/>
      <path id="Path_51435" data-name="Path 51435" d="M318.013,313.754a.429.429,0,0,1-.238-.048l-3.141-1.047a.708.708,0,1,1,.476-1.333l3.141,1.047a.688.688,0,0,1,.428.9A.716.716,0,0,1,318.013,313.754Z" transform="translate(-309.707 -278.029)" fill="#33363a"/>
      <path id="Path_51436" data-name="Path 51436" d="M293.655,304.688a.517.517,0,0,1-.238-.048l-.524-.19a.754.754,0,0,1-.476-.9.732.732,0,0,1,.9-.476l.524.19a.754.754,0,0,1,.476.9A.7.7,0,0,1,293.655,304.688Z" transform="translate(-290.775 -270.867)" fill="#33363a"/>
      <path id="Path_51437" data-name="Path 51437" d="M301.922,340.451a.429.429,0,0,1-.238-.048l-3.141-1.047a.708.708,0,0,1,.476-1.333l3.141,1.047a.688.688,0,0,1,.428.9A.716.716,0,0,1,301.922,340.451Z" transform="translate(-295.71 -301.252)" fill="#33363a"/>
      <path id="Path_51438" data-name="Path 51438" d="M281.22,332.848a.429.429,0,0,1-.238-.048l-.524-.19a.723.723,0,0,1,.428-1.38l.524.19a.754.754,0,0,1,.476.9A.7.7,0,0,1,281.22,332.848Z" transform="translate(-279.958 -295.362)" fill="#33363a"/>
      <path id="Path_51439" data-name="Path 51439" d="M284,366.782a.43.43,0,0,1-.238-.048l-3.141-1.047a.708.708,0,0,1,.476-1.333l3.141,1.047a.688.688,0,0,1,.428.9A.716.716,0,0,1,284,366.782Z" transform="translate(-280.123 -324.156)" fill="#33363a"/>
    </g>
    <path id="Path_51440" data-name="Path 51440" d="M169.973,250.331c0,8.139-7.758,8.472-17.325,8.472s-17.325-.333-17.325-8.472,7.758-14.755,17.325-14.755S169.973,242.192,169.973,250.331Z" transform="translate(-113.886 -204.917)" fill="#c17e25"/>
    <path id="Path_51441" data-name="Path 51441" d="M169.973,250.331c0,8.139-7.758,8.472-17.325,8.472s-17.325-.333-17.325-8.472,7.758-14.755,17.325-14.755S169.973,242.192,169.973,250.331Z" transform="translate(-113.886 -204.917)" fill="#fff"/>
    <path id="Path_51442" data-name="Path 51442" d="M169.973,324.852c0,8.139-7.758,8.472-17.325,8.472s-17.325-.333-17.325-8.472,7.758.048,17.325.048S169.973,316.713,169.973,324.852Z" transform="translate(-113.886 -279.438)" fill="#f4f3e9"/>
    <path id="Path_51443" data-name="Path 51443" d="M153.921,357.065c-8.615,0-15.754-6.616-17.135-2.047,1.333,6,8.52,6.235,17.135,6.235s15.754-.286,17.135-6.235C169.675,350.5,162.536,357.065,153.921,357.065Z" transform="translate(-115.159 -307.414)" fill="#e0dece"/>
    <path id="Path_51444" data-name="Path 51444" d="M147.876,254.745c-8.9,0-18.039,0-18.039-9.186,0-8.52,8.091-15.469,18.039-15.469s18.039,6.949,18.039,15.469C165.915,254.745,156.729,254.745,147.876,254.745Zm0-23.227c-9.186,0-16.611,6.283-16.611,14.041,0,7.235,6.568,7.758,16.611,7.758s16.611-.524,16.611-7.758C164.487,237.8,157.062,231.518,147.876,231.518Z" transform="translate(-109.114 -200.145)" fill="#33363a"/>
    <path id="Path_51445" data-name="Path 51445" d="M220.831,281.989c0,7.854-3.76,8.71-8.377,8.71s-8.377-.857-8.377-8.71c0-4.046,3.76-7.282,8.377-7.282S220.831,277.944,220.831,281.989Z" transform="translate(-173.692 -238.955)" fill="#d3d1c1"/>
    <path id="Path_51446" data-name="Path 51446" d="M220.831,281.989c0,4.046-3.76,5.807-8.377,5.807s-8.377-1.761-8.377-5.807,3.76-7.282,8.377-7.282S220.831,277.944,220.831,281.989Z" transform="translate(-173.692 -238.955)" fill="#ffbc00"/>
    <path id="Path_51447" data-name="Path 51447" d="M212.455,275.77c4.379,0,7.949,2.9,8.377,6.568a3.6,3.6,0,0,0,.048-.714c0-4.046-3.76-7.282-8.377-7.282s-8.425,3.284-8.425,7.282a3.6,3.6,0,0,0,.048.714C204.506,278.673,208.076,275.77,212.455,275.77Z" transform="translate(-173.693 -238.638)" fill="#ffce00"/>
    <path id="Path_51448" data-name="Path 51448" d="M220.831,318.643c0,4.046-3.76,5.807-8.377,5.807s-8.377-1.761-8.377-5.807,3.76,0,8.377,0S220.831,314.6,220.831,318.643Z" transform="translate(-173.692 -275.609)" fill="#ff9100"/>
    <path id="Path_51449" data-name="Path 51449" d="M207.683,283.738c-5.616,0-9.091-2.475-9.091-6.521,0-4.426,4.093-8,9.091-8,5.045,0,9.139,3.57,9.139,8C216.774,281.215,213.3,283.738,207.683,283.738Zm0-13.089c-4.236,0-7.663,2.951-7.663,6.568,0,4.712,5.9,5.093,7.663,5.093s7.711-.381,7.711-5.093C215.346,273.6,211.919,270.649,207.683,270.649Z" transform="translate(-168.921 -234.183)" fill="#33363a"/>
    <g id="Group_34375" data-name="Group 34375" transform="translate(31.751 36.275)">
      <path id="Path_51450" data-name="Path 51450" d="M216.634,284.2h-.143a.962.962,0,0,1-.809-1.095c.381-2.665,4.141-4.379,6-4.379a.952.952,0,0,1,0,1.9c-1.238,0-3.9,1.238-4.141,2.713A.925.925,0,0,1,216.634,284.2Z" transform="translate(-215.525 -278.73)" fill="#ffef5a"/>
      <path id="Path_51451" data-name="Path 51451" d="M215.537,323.247h-.143a.962.962,0,0,1-.809-1.095,1.214,1.214,0,0,1,1.19-1,.955.955,0,0,1,.952.952.981.981,0,0,1-.524.857A.94.94,0,0,1,215.537,323.247Z" transform="translate(-214.57 -315.632)" fill="#ffef5a"/>
      <path id="Path_51452" data-name="Path 51452" d="M219.5,339.294h-.1a.472.472,0,0,1-.381-.524.51.51,0,0,1,.524-.428.45.45,0,0,1,.476.476.5.5,0,0,1-.238.428A1.684,1.684,0,0,1,219.5,339.294Z" transform="translate(-218.437 -330.584)" fill="#ffef5a"/>
    </g>
  </g>
</svg>
