<svg xmlns="http://www.w3.org/2000/svg" width="108" height="108" viewBox="0 0 108 108">
  <g id="Group_38007" data-name="Group 38007" transform="translate(-581.663 -2684.663)">
    <circle id="Ellipse_57" data-name="Ellipse 57" cx="54" cy="54" r="54" transform="translate(581.663 2684.663)" fill="#d7ff35"/>
    <g id="XMLID_1844_" transform="translate(591.663 2712.663)">
      <g id="XMLID_290_" transform="translate(20)">
        <path id="XMLID_892_" d="M66.983,0H26.508a1.017,1.017,0,0,0-1.017,1.017V8.746H21.017A1.017,1.017,0,0,0,20,9.763V48.305a3.767,3.767,0,0,0,3.763,3.763H64.237A3.767,3.767,0,0,0,68,48.305V34.674a1.017,1.017,0,1,0-2.034,0V48.305a1.731,1.731,0,0,1-1.729,1.729H27.1a3.739,3.739,0,0,0,.422-1.729V2.034H65.966V25.521a1.017,1.017,0,1,0,2.034,0V1.017A1.017,1.017,0,0,0,66.983,0ZM22.034,48.305V10.78h3.458V48.305a1.729,1.729,0,1,1-3.458,0Z" transform="translate(-20)" fill="#242424"/>
        <path id="XMLID_894_" d="M120.066,69.968a1.017,1.017,0,0,0,1.017-1.017v-3.64l2.814,4.074a1.106,1.106,0,0,0,1.25.456,1.138,1.138,0,0,0,.782-1.123V62.036a1.017,1.017,0,1,0-2.034,0V65.8L120.9,61.471a1.017,1.017,0,0,0-1.854.578v6.9A1.017,1.017,0,0,0,120.066,69.968Z" transform="translate(-108.976 -54.814)" fill="#242424"/>
        <path id="XMLID_908_" d="M210.631,63.053a1.017,1.017,0,0,0,0-2.034h-2.914a1.017,1.017,0,0,0-1.017,1.017v6.915a1.017,1.017,0,0,0,1.017,1.017h2.914a1.017,1.017,0,0,0,0-2.034h-1.9V66.511h1.682a1.017,1.017,0,1,0,0-2.034h-1.682V63.053Z" transform="translate(-187.714 -54.814)" fill="#242424"/>
        <path id="XMLID_909_" d="M386.218,67.939a2.253,2.253,0,0,1-1.656-.691,1.017,1.017,0,0,0-1.507,1.366,4.258,4.258,0,0,0,3.163,1.359,3,3,0,0,0,3.06-2.337c.183-1.025-.275-2.361-2.108-3.037-.823-.3-1.591-.634-1.854-.748a.327.327,0,0,1-.1-.3c.013-.093.083-.321.443-.43a2.151,2.151,0,0,1,1.763.412,1.017,1.017,0,0,0,1.3-1.562,4.192,4.192,0,0,0-3.652-.8,2.584,2.584,0,0,0-1.87,2.088,2.349,2.349,0,0,0,1.048,2.325,1.018,1.018,0,0,0,.141.077c.04.018,1,.444,2.074.841.208.077.883.36.809.772A1.03,1.03,0,0,1,386.218,67.939Z" transform="translate(-345.897 -54.819)" fill="#242424"/>
        <path id="XMLID_912_" d="M274.633,69.182a1.173,1.173,0,0,0,1.105.783h.008a1.172,1.172,0,0,0,1.1-.8l.009-.026,1.116-3.631,1.111,3.632c0,.014.009.027.013.041a1.173,1.173,0,0,0,1.105.783h.008a1.172,1.172,0,0,0,1.1-.8.992.992,0,0,0,.034-.128l1.343-6.8a1.017,1.017,0,0,0-2-.394l-.672,3.4-1.076-3.517a1.016,1.016,0,0,0-1.964.076l-1.058,3.442-.671-3.417a1.017,1.017,0,1,0-2,.392l1.337,6.811A1.034,1.034,0,0,0,274.633,69.182Z" transform="translate(-247.485 -54.81)" fill="#242424"/>
        <path id="XMLID_926_" d="M119,210.5a1.017,1.017,0,0,0,1.017,1.017H137.1a1.017,1.017,0,0,0,1.017-1.017V190.975a1.017,1.017,0,0,0-1.017-1.017H120.017A1.017,1.017,0,0,0,119,190.975Zm2.034-7.851,3-3,2.136,2.136h0l7.7,7.7H121.034Zm15.051,6.176-7.758-7.758,4.118-4.118,3.64,3.64Zm0-16.834v5.721l-2.921-2.921a1.017,1.017,0,0,0-1.438,0l-4.837,4.837-2.137-2.137a1.017,1.017,0,0,0-1.438,0l-2.28,2.28v-7.781Z" transform="translate(-108.932 -170.64)" fill="#242424"/>
        <path id="XMLID_1008_" d="M347.169,381.958h-9.153a1.017,1.017,0,1,0,0,2.034h9.153a1.017,1.017,0,1,0,0-2.034Z" transform="translate(-304.763 -343.115)" fill="#242424"/>
        <path id="XMLID_1009_" d="M347.169,237.958h-9.153a1.017,1.017,0,1,0,0,2.034h9.153a1.017,1.017,0,1,0,0-2.034Z" transform="translate(-304.763 -213.759)" fill="#242424"/>
        <path id="XMLID_1011_" d="M347.169,285.958h-9.153a1.017,1.017,0,1,0,0,2.034h9.153a1.017,1.017,0,1,0,0-2.034Z" transform="translate(-304.763 -256.878)" fill="#242424"/>
        <path id="XMLID_1014_" d="M347.169,189.958h-9.153a1.017,1.017,0,1,0,0,2.034h9.153a1.017,1.017,0,1,0,0-2.034Z" transform="translate(-304.763 -170.64)" fill="#242424"/>
        <path id="XMLID_1026_" d="M347.169,333.958h-9.153a1.017,1.017,0,1,0,0,2.034h9.153a1.017,1.017,0,1,0,0-2.034Z" transform="translate(-304.763 -299.996)" fill="#242424"/>
        <path id="XMLID_1027_" d="M120.017,440.034h31.322a1.017,1.017,0,0,0,0-2.034H120.017a1.017,1.017,0,1,0,0,2.034Z" transform="translate(-108.932 -393.458)" fill="#242424"/>
        <path id="XMLID_1032_" d="M473.017,285.96a1.017,1.017,0,1,0,.719.3A1.023,1.023,0,0,0,473.017,285.96Z" transform="translate(-426.034 -256.879)" fill="#242424"/>
      </g>
    </g>
  </g>
</svg>
