<svg xmlns="http://www.w3.org/2000/svg" width="108" height="108" viewBox="0 0 108 108">
  <g id="Group_38007" data-name="Group 38007" transform="translate(-581.663 -2684.663)">
    <circle id="Ellipse_57" data-name="Ellipse 57" cx="54" cy="54" r="54" transform="translate(581.663 2684.663)" fill="#d7ff35"/>
    <g id="Page-1" transform="translate(605.663 2711.663)">
      <g id="_004---Word-Processing" data-name="004---Word-Processing">
        <path id="Shape" d="M59,33.73a1,1,0,0,0-1,1V45a2,2,0,0,1-2,2H39.8a1,1,0,0,0,0,2H56a4,4,0,0,0,4-4V34.73A1,1,0,0,0,59,33.73Z" fill="#242424"/>
        <path id="Shape-2" data-name="Shape" d="M54,40v3H51a1,1,0,0,0,0,2h4a1,1,0,0,0,1-1V40a1,1,0,0,0-2,0Z" fill="#242424"/>
        <path id="Shape-3" data-name="Shape" d="M56,0H4A4,4,0,0,0,0,4V45a4,4,0,0,0,4,4H14.16a1,1,0,0,0,0-2H4a2,2,0,0,1-2-2V14H58v6.41a1,1,0,0,0,2,0V4A4,4,0,0,0,56,0ZM2,12V4A2,2,0,0,1,4,2H56a2,2,0,0,1,2,2v8Z" fill="#242424"/>
        <path id="Shape-4" data-name="Shape" d="M7,4a3,3,0,1,0,3,3A3,3,0,0,0,7,4ZM7,8A1,1,0,1,1,8,7,1,1,0,0,1,7,8Z" fill="#242424"/>
        <path id="Shape-5" data-name="Shape" d="M15,4a3,3,0,1,0,3,3A3,3,0,0,0,15,4Zm0,4a1,1,0,1,1,1-1A1,1,0,0,1,15,8Z" fill="#242424"/>
        <path id="Shape-6" data-name="Shape" d="M23,4a3,3,0,1,0,3,3A3,3,0,0,0,23,4Zm0,4a1,1,0,1,1,1-1A1,1,0,0,1,23,8Z" fill="#242424"/>
        <path id="Shape-7" data-name="Shape" d="M6,19H27a1,1,0,0,0,0-2H6a1,1,0,0,0,0,2Z" fill="#242424"/>
        <path id="Shape-8" data-name="Shape" d="M6,24H27a1,1,0,0,0,0-2H6a1,1,0,0,0,0,2Z" fill="#242424"/>
        <path id="Shape-9" data-name="Shape" d="M6,29H27a1,1,0,0,0,0-2H6a1,1,0,0,0,0,2Z" fill="#242424"/>
        <path id="Shape-10" data-name="Shape" d="M6,34H27a1,1,0,0,0,0-2H6a1,1,0,0,0,0,2Z" fill="#242424"/>
        <path id="Shape-11" data-name="Shape" d="M6,39H22.62a1,1,0,0,0,0-2H6a1,1,0,0,0,0,2Z" fill="#242424"/>
        <path id="Shape-12" data-name="Shape" d="M6,44H16a1,1,0,0,0,0-2H6a1,1,0,0,0,0,2Z" fill="#242424"/>
        <path id="Shape-13" data-name="Shape" d="M33,19H54a1,1,0,0,0,0-2H33a1,1,0,0,0,0,2Z" fill="#242424"/>
        <path id="Shape-14" data-name="Shape" d="M33,24H44a1,1,0,0,0,0-2H33a1,1,0,0,0,0,2Z" fill="#242424"/>
        <path id="Shape-15" data-name="Shape" d="M33,29h4a1,1,0,0,0,0-2H33a1,1,0,0,0,0,2Z" fill="#242424"/>
        <path id="Shape-16" data-name="Shape" d="M15.208,54.07a1.984,1.984,0,0,0,1.637.864,2.024,2.024,0,0,0,.479-.058L28.15,52.25a1.976,1.976,0,0,0,.669-.3L48.4,38.406l4.112-2.843,5.757-3.982a4.005,4.005,0,0,0,1.015-5.565l-2.276-3.29a4,4,0,0,0-5.565-1.015l-5.757,3.982L41.58,28.536,21.994,42.082a1.967,1.967,0,0,0-.515.518L15.2,51.806a1.985,1.985,0,0,0,.008,2.264ZM41.9,30.75l4.55,6.58-18.1,12.513L23.8,43.264Zm4.112-2.844,4.551,6.58L48.09,36.192l-4.55-6.58Zm6.58-4.551a2,2,0,0,1,2.783.508l2.275,3.289a2,2,0,0,1-.508,2.784L52.2,33.348l-4.551-6.58ZM22.415,44.776l4.032,5.83-4.166,1.01L20,48.317Zm-3.622,5.311L20.2,52.121l-3.347.811Z" fill="#242424"/>
      </g>
    </g>
  </g>
</svg>
