<svg xmlns="http://www.w3.org/2000/svg" width="108" height="108" viewBox="0 0 108 108">
  <g id="Group_38007" data-name="Group 38007" transform="translate(-581.663 -2684.663)">
    <circle id="Ellipse_57" data-name="Ellipse 57" cx="54" cy="54" r="54" transform="translate(581.663 2684.663)" fill="#d7ff35"/>
    <g id="Group_38049" data-name="Group 38049" transform="translate(603.663 2681.766)">
      <g id="Group_38051" data-name="Group 38051" transform="translate(7.378 32.928)">
        <g id="Group_38050" data-name="Group 38050" transform="translate(0 0)">
          <g id="Group_38049-2" data-name="Group 38049">
            <circle id="Ellipse_65" data-name="Ellipse 65" cx="0.986" cy="0.986" r="0.986" fill="#242424"/>
            <circle id="Ellipse_66" data-name="Ellipse 66" cx="0.986" cy="0.986" r="0.986" transform="translate(4.915)" fill="#242424"/>
            <circle id="Ellipse_67" data-name="Ellipse 67" cx="0.986" cy="0.986" r="0.986" transform="translate(9.829)" fill="#242424"/>
          </g>
        </g>
      </g>
      <g id="Group_38052" data-name="Group 38052" transform="translate(0 27.897)">
        <path id="Path_52072" data-name="Path 52072" d="M209.547,221.411a.938.938,0,1,0,0-1.875h-4.341a.937.937,0,0,0-.937.938v10.3a.937.937,0,0,0,.938.938h4.341a.938.938,0,1,0,0-1.875h-3.4v-3.277h3.084a.938.938,0,0,0,0-1.875h-3.084v-3.277Z" transform="translate(-178.734 -195.581)" fill="#242424"/>
        <path id="Path_52073" data-name="Path 52073" d="M113.742,229.548a3.987,3.987,0,0,1-2.929-1.233.937.937,0,1,0-1.389,1.259,5.89,5.89,0,0,0,4.318,1.849c4.167,0,6.014-5.169,1.227-6.934-1.337-.493-2.576-1.031-2.891-1.17-.726-.533-.582-1.8.653-2.171a3.829,3.829,0,0,1,3.2.728.938.938,0,0,0,1.2-1.438,5.675,5.675,0,0,0-4.94-1.086,3.1,3.1,0,0,0-1.083,5.574c.29.189,2.579,1.087,3.213,1.321C117.14,227.288,115.8,229.548,113.742,229.548Z" transform="translate(-95.534 -195.243)" fill="#242424"/>
        <path id="Path_52074" data-name="Path 52074" d="M280.86,225.292a6.137,6.137,0,1,0-6.137,6.137A6.144,6.144,0,0,0,280.86,225.292Zm-10.4,0a4.262,4.262,0,1,1,4.262,4.262A4.267,4.267,0,0,1,270.462,225.292Z" transform="translate(-235.013 -195.248)" fill="#242424"/>
        <path id="Path_52075" data-name="Path 52075" d="M62.815,59.5a4.053,4.053,0,0,0-5.732-5.732l-2.48,2.48V48.959a2.72,2.72,0,0,0-2.717-2.717H7.609a2.72,2.72,0,0,0-2.717,2.717V55.2a.938.938,0,0,0,1.875,0V48.959a.843.843,0,0,1,.842-.842H51.886a.843.843,0,0,1,.842.842v9.162l-9.2,9.2H7.609a.843.843,0,0,1-.842-.842V59.573a.938.938,0,0,0-1.875,0v6.909A2.72,2.72,0,0,0,7.609,69.2H41.65l-6.46,6.46a6.987,6.987,0,0,0-1.064,1.367H3.973a2.1,2.1,0,0,1-2.1-2.1V39.268H57.62V49.4a.938.938,0,1,0,1.875,0V31.87A3.977,3.977,0,0,0,55.522,27.9H3.973A3.977,3.977,0,0,0,0,31.87V74.929A3.977,3.977,0,0,0,3.973,78.9h29.32l-1.536,3.986a1.5,1.5,0,0,0,1.935,1.935l4.789-1.845a6.978,6.978,0,0,0,2.44-1.587l2.49-2.49H55.522A3.977,3.977,0,0,0,59.5,74.929v-7.7a.938.938,0,0,0-1.875,0v7.7a2.1,2.1,0,0,1-2.1,2.1H45.287ZM3.973,29.772H55.522a2.1,2.1,0,0,1,2.1,2.1v5.523H1.875V31.87a2.1,2.1,0,0,1,2.1-2.1ZM58.409,55.091a2.178,2.178,0,0,1,3.08,3.08l-3.078,3.078-3.08-3.08ZM40.258,79.4l-3.08-3.08L54.005,59.5l3.08,3.08Zm-2.451,1.826-3.994,1.539,1.539-3.994a5.127,5.127,0,0,1,.562-1.063l2.957,2.957A5.134,5.134,0,0,1,37.807,81.229Z" transform="translate(0 -27.897)" fill="#242424"/>
      </g>
    </g>
  </g>
</svg>
