<svg xmlns="http://www.w3.org/2000/svg" width="108" height="108" viewBox="0 0 108 108">
  <g id="Group_38007" data-name="Group 38007" transform="translate(-581.663 -2684.663)">
    <circle id="Ellipse_57" data-name="Ellipse 57" cx="54" cy="54" r="54" transform="translate(581.663 2684.663)" fill="#d7ff35"/>
    <g id="writing" transform="translate(605.663 2708.663)">
      <path id="Path_52057" data-name="Path 52057" d="M19,18c0-3.309-2.243-6-5-6s-5,2.691-5,6,2.243,6,5,6S19,21.309,19,18Zm-5,4c-1.654,0-3-1.794-3-4s1.346-4,3-4,3,1.794,3,4S15.654,22,14,22Z"/>
      <path id="Path_52058" data-name="Path 52058" d="M28,24c2.757,0,5-2.691,5-6s-2.243-6-5-6-5,2.691-5,6S25.243,24,28,24Zm0-10c1.654,0,3,1.794,3,4s-1.346,4-3,4-3-1.794-3-4S26.346,14,28,14Z"/>
      <path id="Path_52059" data-name="Path 52059" d="M26,34V30a5,5,0,1,0-10,0v4a5,5,0,0,0,10,0Zm-5-7a3,3,0,0,1,3,3v2.4a10.129,10.129,0,0,0-3-.4,10.129,10.129,0,0,0-3,.4V30A3,3,0,0,1,21,27Zm0,10a3,3,0,0,1-2.948-2.484A6.908,6.908,0,0,1,21,34a6.927,6.927,0,0,1,2.948.514A3,3,0,0,1,21,37Z"/>
      <path id="Path_52060" data-name="Path 52060" d="M52.141,21.017a3.5,3.5,0,0,0-4.859,0L42,26.3V21A21,21,0,0,0,0,21V44a6.081,6.081,0,0,0,6,6,5.993,5.993,0,0,0,5.011-2.7A5.979,5.979,0,0,0,21,47.316a6.39,6.39,0,0,0,1.2,1.318l-2.135,8.5A2.323,2.323,0,0,0,22.319,60a2.409,2.409,0,0,0,.562-.066l10.631-2.67a4.5,4.5,0,0,0,2.154-1.223l23.32-23.32a3.415,3.415,0,0,0,0-4.856ZM28.807,49.174,47.99,29.991l2.019,2.019L30.826,51.192Zm-1.431-1.4-2.013-2.013.012-.016L44.561,26.562l2.015,2.015ZM21,45.011h0a1.686,1.686,0,0,0-1.48.891,3.986,3.986,0,0,1-7.034-.024,1.687,1.687,0,0,0-1.478-.887H11a1.686,1.686,0,0,0-1.475.9A4,4,0,0,1,6,48a4.054,4.054,0,0,1-4-4V21a19,19,0,1,1,38,0v7.3L23.975,44.319a4.5,4.5,0,0,0-1.2,2.045,3.813,3.813,0,0,1-.3-.459A1.685,1.685,0,0,0,21,45.011Zm1.406,12.978a.332.332,0,0,1-.312-.084.317.317,0,0,1-.088-.3L24.49,47.72l7.789,7.789Zm11.831-3.35-2.015-2.015,19.2-19.2,2.015,2.015ZM57.577,31.3h0l-2.721,2.721-8.877-8.877L48.7,22.423a1.416,1.416,0,0,1,2.023,0l6.854,6.854a1.416,1.416,0,0,1,0,2.019Z"/>
    </g>
  </g>
</svg>
