<svg xmlns="http://www.w3.org/2000/svg" width="108" height="108" viewBox="0 0 108 108">
  <g id="Group_38007" data-name="Group 38007" transform="translate(-581.663 -2684.663)">
    <circle id="Ellipse_57" data-name="Ellipse 57" cx="54" cy="54" r="54" transform="translate(581.663 2684.663)" fill="#d7ff35"/>
    <g id="Group_38048" data-name="Group 38048" transform="translate(614.163 2708.663)">
      <path id="Path_52061" data-name="Path 52061" d="M42.7,43.955V2.208A2.211,2.211,0,0,0,40.488,0H6.283A5.789,5.789,0,0,0,.5,5.782V49.877a5.789,5.789,0,0,0,5.783,5.782H6.3v4.019a.888.888,0,0,0,1.413.717l2.436-1.781L12.581,60.4a.888.888,0,0,0,1.413-.717V55.659H40.488A2.21,2.21,0,0,0,42.7,53.451V48.26a.889.889,0,0,0-1.777,0v5.192a.431.431,0,0,1-.431.431H13.994V51.658H36.921a.888.888,0,1,0,0-1.777H4.812a.888.888,0,1,0,0,1.777H6.3v2.224H6.283a4.01,4.01,0,0,1-4.006-4.005V48.849a4.01,4.01,0,0,1,4.006-4.005H41.808a.889.889,0,0,0,.889-.889Zm-30.48,7.7v6.27L10.669,56.8a.889.889,0,0,0-1.049,0L8.072,57.928v-6.27Zm-9.94-6.973V5.783A4.01,4.01,0,0,1,6.283,1.777H40.488a.432.432,0,0,1,.431.431V43.066H6.283a5.759,5.759,0,0,0-4.005,1.618Zm0,0" transform="translate(0 0)" fill="#242424"/>
      <path id="Path_52062" data-name="Path 52062" d="M51.365,392.406a.889.889,0,1,0,0,1.777H69.853a.889.889,0,1,0,0-1.777Zm0,0" transform="translate(-44.064 -345.987)" fill="#242424"/>
      <path id="Path_52063" data-name="Path 52063" d="M242.943,392.406a.889.889,0,1,0,0,1.777H249.9a.889.889,0,1,0,0-1.777Zm0,0" transform="translate(-212.98 -345.987)" fill="#242424"/>
      <path id="Path_52064" data-name="Path 52064" d="M62.958,225.436H61.382c-.343,0-.444.311-.444.621s.089.632.444.632h.854c.255,0,.322.089.311.366a1.375,1.375,0,0,1-1.464,1.509c-1.42,0-1.576-1.731-1.576-2.707,0-1.164.189-2.7,1.576-2.7a1.142,1.142,0,0,1,1.242.987c.078.288.266.411.888.411.566,0,.71-.311.643-.666a2.5,2.5,0,0,0-2.773-2.03c-2.263.122-3.095,1.731-3.095,3.993,0,2.219.876,4,3.15,4,2.163,0,2.929-1.564,2.851-3.473-.022-.6-.222-.953-1.031-.953Zm0,0" transform="translate(-50.688 -195.619)" fill="#242424"/>
      <path id="Path_52065" data-name="Path 52065" d="M123.991,222.52c-.366,0-.732.111-.732.511v4.637a1.341,1.341,0,1,1-2.674,0v-4.637c0-.4-.366-.511-.732-.511s-.732.111-.732.511v4.5a2.8,2.8,0,1,0,5.6,0v-4.5C124.723,222.631,124.357,222.52,123.991,222.52Zm0,0" transform="translate(-104.589 -196.197)" fill="#242424"/>
      <path id="Path_52066" data-name="Path 52066" d="M179.4,222.52c-.366,0-.732.111-.732.511v6.878c0,.41.366.521.732.521s.743-.111.743-.521v-6.878C180.139,222.631,179.762,222.52,179.4,222.52Zm0,0" transform="translate(-157.088 -196.197)" fill="#242424"/>
      <path id="Path_52067" data-name="Path 52067" d="M205.942,222.9h-1.531c-.566,0-1.087.144-1.087.976v5.8c0,.843.521.987,1.087.987h1.531c2.207,0,3.072-1.819,3.072-3.882s-.887-3.883-3.072-3.883Zm0,6.423h-.965c-.122,0-.189-.044-.189-.189v-4.715c0-.144.067-.189.189-.189h.965c1.209,0,1.564,1.464,1.564,2.552S207.184,229.318,205.942,229.318Zm0,0" transform="translate(-178.831 -196.528)" fill="#242424"/>
      <path id="Path_52068" data-name="Path 52068" d="M262.465,224.229h2.474c.378,0,.466-.333.466-.665s-.1-.665-.466-.665h-3.05c-.555,0-1.087.144-1.087.976v5.813c0,.832.532.976,1.087.976h3.05c.366,0,.466-.333.466-.665s-.089-.666-.466-.666h-2.474c-.133,0-.189-.044-.189-.189v-1.83h2.252c.366,0,.466-.333.466-.665s-.1-.665-.466-.665h-2.252v-1.564C262.276,224.273,262.332,224.229,262.465,224.229Zm0,0" transform="translate(-229.508 -196.53)" fill="#242424"/>
      <path id="Path_52069" data-name="Path 52069" d="M195.53,38.066a8,8,0,1,0,8,8A8,8,0,0,0,195.53,38.066Zm0,14.214a6.219,6.219,0,1,1,6.219-6.218A6.225,6.225,0,0,1,195.53,52.28Zm0,0" transform="translate(-164.91 -33.563)" fill="#242424"/>
      <path id="Path_52070" data-name="Path 52070" d="M50.558,40.077l-.828.828a7.978,7.978,0,1,0,1.846,5.66c.009-.129.013-.317.013-.531a.888.888,0,0,0-1.777,0c0,.17,0,.323-.01.412a6.219,6.219,0,1,1-12.185-2.121,6.217,6.217,0,0,1,10.849-2.157l-5.115,5.115-2.432-2.432a.888.888,0,0,0-1.256,1.256l3.06,3.06a.889.889,0,0,0,1.256,0l7.835-7.835a.888.888,0,1,0-1.256-1.256Zm0,0" transform="translate(-30.948 -33.535)" fill="#242424"/>
      <path id="Path_52071" data-name="Path 52071" d="M228.764,72.947a.889.889,0,0,0-1.257,0l-2.539,2.539-2.539-2.539a.888.888,0,0,0-1.256,1.256l2.539,2.539-2.539,2.539a.888.888,0,0,0,1.256,1.256L224.969,78l2.539,2.539a.889.889,0,1,0,1.257-1.256l-2.539-2.539,2.539-2.539A.889.889,0,0,0,228.764,72.947Zm0,0" transform="translate(-194.339 -64.088)" fill="#242424"/>
    </g>
  </g>
</svg>
