<svg xmlns="http://www.w3.org/2000/svg" width="108" height="108" viewBox="0 0 108 108">
  <g id="Group_38007" data-name="Group 38007" transform="translate(-581.663 -2684.663)">
    <circle id="Ellipse_57" data-name="Ellipse 57" cx="54" cy="54" r="54" transform="translate(581.663 2684.663)" fill="#d7ff35"/>
    <g id="layer1" transform="translate(609.134 2432.068)">
      <path id="path12772" d="M3.126,280.595A2.615,2.615,0,0,0,.53,283.2V330a2.608,2.608,0,0,0,2.6,2.6H36.061a2.609,2.609,0,0,0,2.6-2.6v-4.332a.868.868,0,1,0-1.735,0V330a.841.841,0,0,1-.863.863H3.126A.841.841,0,0,1,2.263,330V283.2a.846.846,0,0,1,.863-.87H30v4.337a2.611,2.611,0,0,0,2.6,2.6h4.33v17.33a.868.868,0,1,0,1.735,0V288.4a.869.869,0,0,0-.251-.614l-6.935-6.935a.867.867,0,0,0-.614-.256Zm28.605,2.966,3.968,3.971h-3.1a.842.842,0,0,1-.863-.865ZM12.66,287.532a.867.867,0,1,0,0,1.733h13a.867.867,0,1,0,0-1.733Zm-6.065,6.933H25.66a.867.867,0,1,0,0-1.733H6.553a.867.867,0,0,0,.041,1.733Zm22.532,0h3.468a.867.867,0,1,0,0-1.733h-3.51a.867.867,0,0,0,.042,1.733Zm-22.532,5.2h26a.867.867,0,1,0,0-1.733H6.553a.867.867,0,0,0,.041,1.733ZM48.6,301.4a3.908,3.908,0,0,0-2.776,1.144L28.512,319.852a.867.867,0,0,0-.217.377l-1.733,6.065a.867.867,0,0,0,1.068,1.068l6.072-1.733a.868.868,0,0,0,.371-.219L51.384,308.1a3.924,3.924,0,0,0-2.783-6.7Zm0,1.713a2.208,2.208,0,0,1,1.556,3.763l-.662.662-3.109-3.11.662-.662a2.19,2.19,0,0,1,1.554-.653Zm-42.048.02a.865.865,0,0,0,.041,1.727h3.467a.866.866,0,1,0,.048-1.728Zm6.976,1.727H32.594a.867.867,0,1,0,.095-1.73.9.9,0,0,0-.095,0H13.485a.865.865,0,0,0,.045,1.727Zm31.63.794.943.943L31.3,321.405l-.941-.939Zm2.168,2.168.941.943-14.8,14.808-.943-.943Zm-40.733.506a.867.867,0,1,0,0,1.733h26a.867.867,0,1,0,0-1.733Zm0,5.2a.867.867,0,1,0,0,1.733h15.6a.867.867,0,1,0,0-1.733Zm19.065,0a.867.867,0,1,0,0,1.733h3.467a.867.867,0,1,0,0-1.733ZM6.595,320.464h17.33a.867.867,0,1,0,0-1.733H6.553a.867.867,0,0,0,.041,1.733Zm22.96,1.655,2.255,2.251-3.15.9Zm-22.96,3.546h3.467a.867.867,0,1,0,0-1.733H6.553a.867.867,0,0,0,.041,1.733Zm6.935,0h8.662a.867.867,0,1,0,0-1.733H13.485a.867.867,0,0,0,.045,1.733Z" transform="translate(0 0)" fill="#242424"/>
    </g>
  </g>
</svg>
