<svg xmlns="http://www.w3.org/2000/svg" width="59" height="54.958" viewBox="0 0 59 54.958">
  <g id="XMLID_1870_" transform="translate(0 -27)">
    <g id="XMLID_2070_" transform="translate(1.152 31.609)">
      <path id="XMLID_2677_" d="M116.6,291h24.43a10.6,10.6,0,1,1,0,21.2H116.6a10.6,10.6,0,1,1,0-21.2Z" transform="translate(-94.937 -265.188)" fill="#98a1b3"/>
      <path id="XMLID_2670_" d="M161.934,163H181.69a7.375,7.375,0,1,1,0,14.75H161.934a7.375,7.375,0,0,1,0-14.75Z" transform="translate(-137.901 -151.938)" fill="#b5bcc9"/>
      <path id="XMLID_2667_" d="M234.874,67h5.837a5.531,5.531,0,1,1,0,11.063h-5.837a5.531,5.531,0,0,1,0-11.063Z" transform="translate(-204.067 -67)" fill="#e1e3e9"/>
      <path id="XMLID_2657_" d="M31.561,258.667H17.977A14.772,14.772,0,0,0,15.9,283.6H33.637a14.772,14.772,0,0,0-2.075-24.929Z" transform="translate(-10 -236.58)" fill="#ffe6c0"/>
      <g id="XMLID_2442_" transform="translate(9.993 9.641)">
        <path id="XMLID_2445_" d="M101.5,150.667l-.01.013-3.727,4.687a4.775,4.775,0,1,0,7.475,0Z" transform="translate(-96.721 -150.667)" fill="#ffcb7c"/>
      </g>
      <g id="XMLID_1946_" transform="translate(10.166 27.6)">
        <ellipse id="XMLID_1962_" cx="4.933" cy="9.631" rx="4.933" ry="9.631" transform="translate(12.332)" fill="#f8a2aa"/>
        <g id="Group_34379" data-name="Group 34379" transform="translate(0 2.152)">
          <ellipse id="XMLID_1960_" cx="9.631" cy="4.933" rx="9.631" ry="4.933" transform="translate(13.922 13.62) rotate(-45)" fill="#f6838d"/>
          <ellipse id="XMLID_1949_" cx="4.933" cy="9.631" rx="4.933" ry="9.631" transform="translate(0 6.976) rotate(-45)" fill="#f6838d"/>
        </g>
      </g>
    </g>
    <g id="XMLID_565_" transform="translate(0 27)">
      <path id="XMLID_747_" d="M57.084,98.689a1.152,1.152,0,0,0-1.566.449,9.462,9.462,0,0,1-8.272,4.877H38.037a12.922,12.922,0,0,0,1.814-1.508,13.069,13.069,0,0,0,3.645-11.3,1.152,1.152,0,0,0-.954-.954,13.081,13.081,0,0,0-8.393,1.464,12.924,12.924,0,0,0-4.493-6.6H47.246a9.435,9.435,0,0,1,8.363,5.046,1.152,1.152,0,1,0,2.038-1.076A11.733,11.733,0,0,0,50.3,83.215a8.523,8.523,0,0,0-5.36-15.153h-2.1A6.678,6.678,0,0,0,37.8,57H31.96a6.678,6.678,0,0,0-5.043,11.063H25.186A8.488,8.488,0,0,0,19.4,70.321l-2.58-3.245a1.152,1.152,0,0,0-.9-.435h0a1.152,1.152,0,0,0-.9.434l-3.739,4.7a5.924,5.924,0,0,0-.053,7.31H9.13a1.152,1.152,0,0,0-.531.13,15.932,15.932,0,0,0-6.866,21.37,16.061,16.061,0,0,0,4.629,5.5,1.151,1.151,0,0,0,.693.231H47.246a11.768,11.768,0,0,0,10.288-6.065A1.152,1.152,0,0,0,57.084,98.689ZM24.3,95.531a10.757,10.757,0,0,1,3.1,8.449A10.713,10.713,0,0,1,15.848,92.429,10.759,10.759,0,0,1,24.3,95.531Zm17.026-3.1A10.713,10.713,0,0,1,29.772,103.98,10.713,10.713,0,0,1,41.323,92.429Zm-9.2.674q-.454.378-.876.8a12.979,12.979,0,0,0-2.659,3.86,12.978,12.978,0,0,0-2.659-3.86q-.423-.423-.879-.8a10.627,10.627,0,0,1,3.537-5.886A10.621,10.621,0,0,1,32.12,93.1ZM27.581,63.684A4.384,4.384,0,0,1,31.96,59.3H37.8a4.379,4.379,0,1,1,0,8.758H31.96A4.384,4.384,0,0,1,27.581,63.684Zm17.361,6.684a6.223,6.223,0,1,1,0,12.445H27.85a15.961,15.961,0,0,0-4.606-3.6,1.153,1.153,0,0,0-.531-.13h-2.1a5.923,5.923,0,0,0,.216-6.941,6.194,6.194,0,0,1,4.355-1.778ZM13.086,73.211l2.836-3.566,2.836,3.566A3.62,3.62,0,0,1,17.074,78.9V75.305a1.152,1.152,0,1,0-2.3,0V78.9a3.62,3.62,0,0,1-1.683-5.688ZM2.3,93.356A13.579,13.579,0,0,1,9.417,81.391h13.01A13.665,13.665,0,0,1,27.044,85.5a12.913,12.913,0,0,0-4.024,6.22,13.079,13.079,0,0,0-8.391-1.463,1.152,1.152,0,0,0-.954.954,13.069,13.069,0,0,0,3.645,11.3,12.928,12.928,0,0,0,1.813,1.508H7.447A13.507,13.507,0,0,1,2.3,93.356Z" transform="translate(0 -53.543)"/>
      <path id="XMLID_852_" d="M72.023,36.556a1.152,1.152,0,1,0,1.63,1.63,4.417,4.417,0,0,0,0-6.239,2.109,2.109,0,0,1,0-2.98,1.152,1.152,0,0,0-1.63-1.63,4.417,4.417,0,0,0,0,6.239A2.109,2.109,0,0,1,72.023,36.556Z" transform="translate(-62.582 -27)"/>
      <path id="XMLID_858_" d="M18.672,76.555a1.152,1.152,0,1,0,1.63,1.63,4.417,4.417,0,0,0,0-6.239,2.11,2.11,0,0,1,0-2.98,1.152,1.152,0,1,0-1.63-1.63,4.417,4.417,0,0,0,0,6.239,2.109,2.109,0,0,1,0,2.98Z" transform="translate(-15.379 -62.39)"/>
      <path id="XMLID_859_" d="M493.967,374.337a1.151,1.151,0,1,0,.338.815A1.161,1.161,0,0,0,493.967,374.337Z" transform="translate(-435.305 -334.013)"/>
    </g>
  </g>
</svg>
