<svg xmlns="http://www.w3.org/2000/svg" width="78.689" height="79.445" viewBox="0 0 78.689 79.445">
  <g id="Group_34673" data-name="Group 34673" transform="translate(-2.344 -2.427)">
    <path id="Path_2267" data-name="Path 2267" d="M51.177,38.5,47.112,57.374a5.765,5.765,0,0,1-5.633,4.549H26.231c-6.2,0-8.871-2.319-12.409-5.762H9.5V33.111h2.976C19.3,28.463,22.961,21.785,24.987,15.1a2.824,2.824,0,0,1,2.438-2.043,7.863,7.863,0,0,1,8.252,9.894A46.025,46.025,0,0,1,32,33.108H46.823A4.455,4.455,0,0,1,51.177,38.5Z" transform="translate(13.462 19.948)" fill="#d7ff00"/>
    <path id="Path_2268" data-name="Path 2268" d="M25.534,2.909,29.009,9.95a.86.86,0,0,0,.651.473l7.771,1.129a.865.865,0,0,1,.478,1.475l-5.624,5.483a.86.86,0,0,0-.248.766l1.328,7.739a.863.863,0,0,1-1.253.91l-6.952-3.653a.862.862,0,0,0-.8,0L17.4,27.926a.863.863,0,0,1-1.253-.91l1.328-7.739a.871.871,0,0,0-.248-.766l-5.624-5.483a.865.865,0,0,1,.478-1.475l7.771-1.129a.867.867,0,0,0,.651-.473l3.475-7.042a.867.867,0,0,1,1.553,0Z" transform="translate(16.931)" fill="#d7ff00"/>
    <path id="Path_2269" data-name="Path 2269" d="M34.532,5.3l3.475,7.042a.86.86,0,0,0,.651.473l7.771,1.129a.865.865,0,0,1,.478,1.475L41.286,20.9a.86.86,0,0,0-.248.766l1.328,7.739a.863.863,0,0,1-1.253.91L34.16,26.662a.862.862,0,0,0-.8,0L26.4,30.316a.863.863,0,0,1-1.253-.91l1.328-7.739a.871.871,0,0,0-.248-.766l-5.624-5.483a.865.865,0,0,1,.478-1.475l7.771-1.129a.867.867,0,0,0,.651-.473L32.982,5.3a.865.865,0,0,1,1.55,0Z" transform="translate(33.864 4.5)" fill="#d7ff00"/>
    <path id="Path_2270" data-name="Path 2270" d="M16.534,5.3l3.475,7.042a.86.86,0,0,0,.651.473l7.771,1.129a.865.865,0,0,1,.478,1.475L23.288,20.9a.86.86,0,0,0-.248.766l1.328,7.739a.863.863,0,0,1-1.253.91l-6.952-3.653a.862.862,0,0,0-.8,0L8.406,30.315a.863.863,0,0,1-1.253-.91l1.328-7.739a.871.871,0,0,0-.248-.766L2.606,15.42a.865.865,0,0,1,.478-1.475l7.771-1.129a.867.867,0,0,0,.654-.473L14.984,5.3a.864.864,0,0,1,1.55,0Z" transform="translate(0 4.5)" fill="#d7ff00"/>
    <path id="Path_2271" data-name="Path 2271" d="M5.441,19h8.644a1.441,1.441,0,0,1,1.441,1.441V46.372a1.441,1.441,0,0,1-1.441,1.441H5.441A1.441,1.441,0,0,1,4,46.372V20.441A1.441,1.441,0,0,1,5.441,19Z" transform="translate(3.115 31.178)" fill="#d7ff00"/>
  </g>
</svg>
