<svg xmlns="http://www.w3.org/2000/svg" width="76.554" height="80.2" viewBox="0 0 76.554 80.2">
  <g id="Group_34786" data-name="Group 34786" transform="translate(-32 -21.333)">
    <path id="Path_2286" data-name="Path 2286" d="M407.156,35.915a1.823,1.823,0,0,0,1.823-1.823V23.156a1.823,1.823,0,1,0-3.645,0V34.092A1.823,1.823,0,0,0,407.156,35.915Z" transform="translate(-309.538)" fill="#d7ff00"/>
    <path id="Path_2287" data-name="Path 2287" d="M449.823,78.581a1.823,1.823,0,0,0,1.823-1.823V65.822a1.823,1.823,0,1,0-3.645,0V76.758A1.823,1.823,0,0,0,449.823,78.581Z" transform="translate(-344.915 -35.375)" fill="#d7ff00"/>
    <path id="Path_2288" data-name="Path 2288" d="M97.823,42.667A1.823,1.823,0,0,0,96,44.49V55.426a1.823,1.823,0,1,0,3.645,0V44.49a1.823,1.823,0,0,0-1.822-1.823Z" transform="translate(-53.064 -17.688)" fill="#d7ff00"/>
    <path id="Path_2289" data-name="Path 2289" d="M55.156,106.667a1.823,1.823,0,0,0-1.823,1.823v10.936a1.823,1.823,0,1,0,3.645,0V108.49A1.823,1.823,0,0,0,55.156,106.667Z" transform="translate(-17.688 -70.752)" fill="#d7ff00"/>
    <path id="Path_2290" data-name="Path 2290" d="M408.715,198.271a1.822,1.822,0,0,0-2.577,0l-2.357,2.356V183.156a1.823,1.823,0,1,0-3.645,0v17.472l-2.357-2.356a1.823,1.823,0,1,0-2.577,2.577l5.468,5.468a1.822,1.822,0,0,0,2.577,0l5.468-5.468A1.822,1.822,0,0,0,408.715,198.271Z" transform="translate(-300.695 -132.659)" fill="#d7ff00"/>
    <path id="Path_2291" data-name="Path 2291" d="M169.384,64a20.05,20.05,0,1,0,20.05,20.05A20.05,20.05,0,0,0,169.384,64Zm3.2,28.624a7.3,7.3,0,0,1-1.381.52v1.842a1.823,1.823,0,1,1-3.645,0V93.235a9.847,9.847,0,0,1-3.814-1.743,1.822,1.822,0,1,1,2.159-2.937c2.515,1.849,4.488,1.091,5.036.815a1.9,1.9,0,0,0,1.176-1.357c0-.865-.8-1.316-2.587-2-.322-.123-.622-.239-.883-.353-.179-.079-.394-.16-.63-.25-1.628-.618-5.013-1.9-5.013-5.439a5.352,5.352,0,0,1,3.175-4.61,7.292,7.292,0,0,1,1.381-.513V73.113a1.823,1.823,0,1,1,3.645,0v1.65a9.816,9.816,0,0,1,3.814,1.73,1.823,1.823,0,1,1-2.159,2.937c-2.516-1.849-4.489-1.091-5.036-.815a1.9,1.9,0,0,0-1.176,1.357c0,.857.935,1.375,2.662,2.031.3.115.578.221.808.322.209.092.452.184.711.283,1.724.659,4.932,1.885,4.932,5.405A5.352,5.352,0,0,1,172.588,92.624Z" transform="translate(-97.284 -35.376)" fill="#d7ff00"/>
    <path id="Path_2292" data-name="Path 2292" d="M173.159,352.118a2.635,2.635,0,0,1-1.577,1.385L139.7,364.13a9.779,9.779,0,0,1-7.528-.529l-9.278-4.639a8.634,8.634,0,0,0-5.286-.793l-7.373,1.23V343.378l12.622-4.2a9.907,9.907,0,0,1,6.188-.018L145,344.381a2.548,2.548,0,0,1-1.322,4.9l-10.025-1.823a1.821,1.821,0,1,0-.656,3.582l10.025,1.823a5.733,5.733,0,0,0,1.112.1,6.145,6.145,0,0,0,3.873-1.367l22.338-3.3a2.688,2.688,0,0,1,2.816,3.819Z" transform="translate(-64.87 -263.112)" fill="#d7ff00"/>
    <path id="Path_2293" data-name="Path 2293" d="M41.724,340.742v21.007a2,2,0,0,1-2,2H34a2,2,0,0,1-2-2V340.742a2,2,0,0,1,2-2h5.732a2.007,2.007,0,0,1,2,2Z" transform="translate(0 -263.174)" fill="#d7ff00"/>
  </g>
</svg>
