<svg id="Group_34784" data-name="Group 34784" xmlns="http://www.w3.org/2000/svg" width="83.865" height="83.865" viewBox="0 0 83.865 83.865">
  <path id="Path_2274" data-name="Path 2274" d="M104.347,311.142l-3.218,3.434,1.084,1.864h4.268l1.084-1.864Z" transform="translate(-83.381 -256.537)" fill="#d7ff00"/>
  <path id="Path_2275" data-name="Path 2275" d="M20.8,17.072a11.782,11.782,0,0,1,7.323-6.5,2.141,2.141,0,0,1,2.329.774,5.28,5.28,0,0,0,4.586,2.128,5.272,5.272,0,0,0,4.559-2.1,2.156,2.156,0,0,1,2.362-.812,11.777,11.777,0,0,1,7.317,6.5,4.376,4.376,0,0,1,3.734-.323V11.981a15.683,15.683,0,0,0-.274-2.925,5.782,5.782,0,0,0-5.716-4.563A1.5,1.5,0,0,1,45.6,3.468,4.087,4.087,0,0,0,44.123,2c-1.363-.912-4.04-2-9.086-2C26.01,0,24.475,3.479,24.461,3.515a1.572,1.572,0,0,1-1.4.978,5.93,5.93,0,0,0-3.712,1.294,5.541,5.541,0,0,0-2,3.272,15.633,15.633,0,0,0-.274,2.922v4.768a4.376,4.376,0,0,1,3.734.32Z" transform="translate(-14.071)" fill="#d7ff00"/>
  <path id="Path_2276" data-name="Path 2276" d="M105.217,358.4l-1.059,11.582c.326.364.634.732.991,1.092a2.1,2.1,0,0,0,1.556.773,2.65,2.65,0,0,0,1.831-.768c.349-.35.678-.705,1-1.06L108.472,358.4h-3.256Z" transform="translate(-85.879 -295.501)" fill="#d7ff00"/>
  <path id="Path_2277" data-name="Path 2277" d="M67.855,325.907a1.587,1.587,0,0,1-.16-.2l-1.486-2.2a26.757,26.757,0,0,0,3.976,14.148l.84-9.183-1.09-1.873A2.271,2.271,0,0,1,67.855,325.907Z" transform="translate(-54.589 -266.733)" fill="#d7ff00"/>
  <path id="Path_2278" data-name="Path 2278" d="M3,330.417H15.91a29.119,29.119,0,0,1-7.188-22.3,11.886,11.886,0,0,0-5.441,2.558A8.287,8.287,0,0,0,0,316.938v10.483a3,3,0,0,0,3,3Z" transform="translate(0 -254.04)" fill="#d7ff00"/>
  <path id="Path_2279" data-name="Path 2279" d="M155.426,308.147c.075.749.135,1.694.135,2.784a29.425,29.425,0,0,1-7.32,19.513h12.921a3,3,0,0,0,3-3V316.966a8.282,8.282,0,0,0-3.281-6.264A11.866,11.866,0,0,0,155.426,308.147Z" transform="translate(-122.225 -254.068)" fill="#d7ff00"/>
  <path id="Path_2280" data-name="Path 2280" d="M150.139,323.413v-.127l-1.511,2.246a1.589,1.589,0,0,1-.16.2,2.27,2.27,0,0,1-2.08.692L145.3,328.3l.845,9.236A26.286,26.286,0,0,0,150.139,323.413Z" transform="translate(-119.798 -266.55)" fill="#d7ff00"/>
  <path id="Path_2281" data-name="Path 2281" d="M108.39,264.1v-1.158a16.153,16.153,0,0,1-5.99,0V264.1l3,3Z" transform="translate(-84.429 -216.793)" fill="#d7ff00"/>
  <path id="Path_2282" data-name="Path 2282" d="M259,273.83h32.947a3,3,0,0,0,3-3V233.4a3,3,0,0,0-3-3H259a3,3,0,0,0-3,3v37.439A3,3,0,0,0,259,273.83Zm14.976-35.942h14.976a1.5,1.5,0,1,1,0,3H273.971a1.5,1.5,0,1,1,0-3Zm0,8.985h14.976a1.5,1.5,0,1,1,0,3H273.971a1.5,1.5,0,1,1,0-3Zm0,8.985h14.976a1.5,1.5,0,1,1,0,2.995H273.971a1.5,1.5,0,1,1,0-2.995Zm0,8.985h14.976a1.5,1.5,0,1,1,0,3H273.971a1.5,1.5,0,1,1,0-3Zm-13.039-26.518a1.5,1.5,0,0,1,2.117,0l.439.439,3.434-3.434a1.5,1.5,0,0,1,2.118,2.118l-4.493,4.493a1.5,1.5,0,0,1-2.117,0l-1.5-1.5A1.5,1.5,0,0,1,260.931,238.327Zm0,8.986a1.5,1.5,0,0,1,2.117,0l.439.439,3.434-3.434a1.5,1.5,0,0,1,2.118,2.117l-4.493,4.493a1.5,1.5,0,0,1-2.117,0l-1.5-1.5A1.5,1.5,0,0,1,260.931,247.312Zm0,8.985a1.5,1.5,0,0,1,2.117,0l.439.439,3.434-3.434a1.5,1.5,0,0,1,2.118,2.118l-4.493,4.493a1.5,1.5,0,0,1-2.117,0l-1.5-1.5A1.5,1.5,0,0,1,260.931,256.3Zm0,8.986a1.5,1.5,0,0,1,2.117,0l.439.439,3.434-3.434a1.5,1.5,0,0,1,2.118,2.118l-4.493,4.493a1.5,1.5,0,0,1-2.117,0l-1.5-1.5A1.5,1.5,0,0,1,260.931,265.283Z" transform="translate(-211.073 -189.965)" fill="#d7ff00"/>
  <path id="Path_2283" data-name="Path 2283" d="M75.158,284.331l-3.811,2.859,2.544,3.765,3.816-4.075Z" transform="translate(-58.826 -234.432)" fill="#d7ff00"/>
  <path id="Path_2284" data-name="Path 2284" d="M137.705,287.19l-3.811-2.859-2.549,2.549,3.816,4.075Z" transform="translate(-108.294 -234.432)" fill="#d7ff00"/>
  <path id="Path_2285" data-name="Path 2285" d="M20.064,92.549a1.5,1.5,0,0,1,1.5,1.5,13.478,13.478,0,1,0,26.956,0,1.5,1.5,0,0,1,1.5-1.5,3,3,0,0,0,3-3V85.061a1.5,1.5,0,1,0-3,0,1.5,1.5,0,1,1-3,0c0-4.642-3.946-6.721-5.384-7.323a8.356,8.356,0,0,1-6.6,2.83,8.354,8.354,0,0,1-6.589-2.83c-1.447.6-5.391,2.681-5.391,7.323a1.5,1.5,0,0,1-3,0,1.5,1.5,0,0,0-3,0v4.493a3,3,0,0,0,2.995,3Zm8.087,4.792a1.5,1.5,0,0,1,2.1.3,5.99,5.99,0,0,0,9.585,0,1.5,1.5,0,0,1,2.4,1.8,8.985,8.985,0,0,1-14.377,0A1.5,1.5,0,0,1,28.151,97.341Z" transform="translate(-14.073 -64.095)" fill="#d7ff00"/>
</svg>
