<svg xmlns="http://www.w3.org/2000/svg" width="65.297" height="77.962" viewBox="0 0 65.297 77.962">
  <g id="Pentool" transform="translate(-7.985 -1)">
    <path id="Path_2294" data-name="Path 2294" d="M72.362,32.728H70.528a29.735,29.735,0,0,0-19.581-27.2h15.2a3.626,3.626,0,1,0,0-1.813H44.26V1.906A.907.907,0,0,0,43.353,1H37.914a.907.907,0,0,0-.907.907V3.72H15.122a3.626,3.626,0,1,0,0,1.813h15.2a29.735,29.735,0,0,0-19.581,27.2H8.905A.907.907,0,0,0,8,33.635v5.439a.907.907,0,0,0,.907.907h5.439a.907.907,0,0,0,.907-.907V33.635a.907.907,0,0,0-.907-.907H12.552A27.935,27.935,0,0,1,37.007,5.771V7.346a.907.907,0,0,0,.907.907h5.439a.907.907,0,0,0,.907-.907V5.771A27.935,27.935,0,0,1,68.715,32.728H66.923a.907.907,0,0,0-.907.907v5.439a.907.907,0,0,0,.907.907h5.439a.907.907,0,0,0,.907-.907V33.635A.907.907,0,0,0,72.362,32.728Z" fill="#d7ff00"/>
    <path id="Path_2295" data-name="Path 2295" d="M44.568,13.5a.907.907,0,0,0-1.717.405V43.287a.906.906,0,0,0,.539.829,3.626,3.626,0,1,1-2.891,0,.907.907,0,0,0,.539-.829V13.906A.907.907,0,0,0,39.32,13.5L22.1,47.949a.907.907,0,0,0,0,.811l6.6,13.192H55.2l6.6-13.192a.907.907,0,0,0,0-.811Z" transform="translate(-1.31 -1.122)" fill="#d7ff00"/>
    <rect id="Rectangle_1755" data-name="Rectangle 1755" width="32.635" height="7.252" rx="1" transform="translate(24.316 62.644)" fill="#d7ff00"/>
    <path id="Path_2296" data-name="Path 2296" d="M29,85.346a.907.907,0,0,0,.907.907H55.289a.907.907,0,0,0,.907-.907V79H29Z" transform="translate(-1.964 -7.291)" fill="#d7ff00"/>
  </g>
</svg>
