<svg xmlns="http://www.w3.org/2000/svg" width="71.306" height="87.124" viewBox="0 0 71.306 87.124">
  <g id="Group_34782" data-name="Group 34782" transform="translate(-9.079 -3.991)">
    <path id="Path_2272" data-name="Path 2272" d="M50.742,41.2a14.359,14.359,0,0,0-7.217,1.929,14.6,14.6,0,0,0-7.4,12.693c0,.327.016.653.031.98a14.622,14.622,0,1,0,14.59-15.6ZM42.669,58.124a1.653,1.653,0,0,1,.171-.14A19.746,19.746,0,0,0,47.1,54.437a.932.932,0,0,0-1.851.156A1.55,1.55,0,0,1,43.7,56.148a1.529,1.529,0,0,1-1.322-.747v-.016a1.4,1.4,0,0,1-.233-.793,4.081,4.081,0,0,1,1.384-3.049.015.015,0,0,1,.016-.016v-.016a4.176,4.176,0,0,1,2.644-.964,4.056,4.056,0,0,1,4.044,4.044c0,.389,0,1.322-1.944,3.127h.389a1.555,1.555,0,0,1,0,3.111H43.7a1.535,1.535,0,0,1-1.478-1.1,1.514,1.514,0,0,1,.451-1.6Zm14.668,2.893a1.54,1.54,0,0,1-1.1-1.478v-2.1H53.666A2.045,2.045,0,0,1,51.629,55.4V52.228a1.555,1.555,0,0,1,3.111,0v2.1h1.493v-2.1a1.551,1.551,0,0,1,1.182-1.509,1.442,1.442,0,0,1,.373-.047,1.56,1.56,0,0,1,1.555,1.556v7.311a1.56,1.56,0,0,1-1.555,1.555,1.1,1.1,0,0,1-.451-.078Z" transform="translate(15.021 20.669)" fill="#d7ff00"/>
    <path id="Path_2273" data-name="Path 2273" d="M48.031,76.491a17.673,17.673,0,0,1,7.233-14.279,17.092,17.092,0,0,1,3.22-1.882l-12.242-5.9h0l-1.1-2.721h0A20.154,20.154,0,0,0,56.182,38.148h3.578a3.7,3.7,0,0,0,3.7-3.687V28.551a3.7,3.7,0,0,0-3.469-3.687h0v-.173a20.7,20.7,0,0,0-41.4,0v.173h0a3.7,3.7,0,0,0-3.469,3.687v5.911a3.7,3.7,0,0,0,3.7,3.687h.327l.871,5.506a5.534,5.534,0,0,0,5.46,4.682,5.644,5.644,0,0,0,1.82-.3l.544-.187a17.21,17.21,0,0,0,5.6,3.858l0,0-1.1,2.724L17.621,61.512A12,12,0,0,0,11.166,69.6L9.113,78.684a1.574,1.574,0,0,0,1.524,1.9H48.513a17.261,17.261,0,0,1-.467-3.111c0-.327-.016-.653-.016-.98ZM41.793,59.816l-2.5,6.8-2.5-6.795a8.426,8.426,0,0,0,2.5.393h0a8.384,8.384,0,0,0,2.508-.4Zm-2.5-52.7A17.576,17.576,0,0,1,56.878,24.691v.158h-.7C53.864,16.247,47.16,10.1,39.289,10.1S24.714,16.247,22.4,24.849h-.7v-.158A17.6,17.6,0,0,1,39.289,7.116ZM24.232,44.883a2.413,2.413,0,0,1-1.151-1.711L22.3,38.148H22.4a22.971,22.971,0,0,0,3.267,7.062,2.324,2.324,0,0,1-1.431-.327Zm6.937,1.835,4.853-1.664a4.337,4.337,0,0,0,3.267,1.509A4.262,4.262,0,1,0,35.027,42.1l-6.238,2.147a19.631,19.631,0,0,1-3.64-7.964,22.28,22.28,0,0,1-.482-3.578,4.359,4.359,0,0,0,.622.047A5.4,5.4,0,0,0,30.516,28.6l.9-3.873A1.8,1.8,0,0,1,33.907,23.5a13.338,13.338,0,0,0,10.78-.016,1.826,1.826,0,0,1,2.473,1.244l.9,3.873a5.282,5.282,0,0,0,3.127,3.718,5.163,5.163,0,0,0,2.722.389,22.279,22.279,0,0,1-.482,3.578C52.044,42.659,47.953,47.668,42.8,49.27a12.022,12.022,0,0,1-3.515.529,12.585,12.585,0,0,1-8.12-3.08Zm5.273,5.911a14.611,14.611,0,0,0,5.693,0l.013,0,1.1,2.708a5.328,5.328,0,0,1-7.914.011l1.1-2.719Z" transform="translate(0)" fill="#d7ff00"/>
  </g>
</svg>
