<svg id="Group_34940" data-name="Group 34940" xmlns="http://www.w3.org/2000/svg" width="76" height="76" viewBox="0 0 76 76">
  <path id="Path_2331" data-name="Path 2331" d="M33.25,61.75H5.938A5.945,5.945,0,0,1,0,55.813V5.938A5.945,5.945,0,0,1,5.938,0H8.313V2.375H5.938A3.563,3.563,0,0,0,2.375,5.938V55.813a3.562,3.562,0,0,0,3.563,3.563H33.25Z" fill="#d7ff00"/>
  <path id="Path_2332" data-name="Path 2332" d="M9,0h2.376V2.375H9Z" transform="translate(1.688)" fill="#d7ff00"/>
  <path id="Path_2333" data-name="Path 2333" d="M67.625,61.75V59.375a3.562,3.562,0,0,0,3.563-3.562V5.938a3.562,3.562,0,0,0-3.562-3.562H13V0H67.625a5.945,5.945,0,0,1,5.937,5.938V55.813a5.945,5.945,0,0,1-5.937,5.937Z" transform="translate(2.438)" fill="#d7ff00"/>
  <path id="Path_2334" data-name="Path 2334" d="M0,0H4.9V2.375H0Z" transform="translate(22.599 65.049) rotate(-75.936)" fill="#d7ff00"/>
  <path id="Path_2335" data-name="Path 2335" d="M30.063,61.125H18.188A1.188,1.188,0,0,1,17,59.938V57.563A3.563,3.563,0,0,1,20.563,54h9.5v2.375h-9.5a1.188,1.188,0,0,0-1.187,1.188V58.75H30.063Z" transform="translate(3.188 10.125)" fill="#d7ff00"/>
  <path id="Path_2336" data-name="Path 2336" d="M1,42H33.063v2.375H1Z" transform="translate(0.188 7.875)" fill="#d7ff00"/>
  <path id="Path_2337" data-name="Path 2337" d="M4,46H6.375v2.375H4Z" transform="translate(0.75 8.625)" fill="#d7ff00"/>
  <path id="Path_2338" data-name="Path 2338" d="M8,46h7.125v2.375H8Z" transform="translate(1.5 8.625)" fill="#d7ff00"/>
  <path id="Path_2339" data-name="Path 2339" d="M59.688,73.375H35.938A5.945,5.945,0,0,1,30,67.438v-47.5A5.945,5.945,0,0,1,35.938,14h23.75a5.945,5.945,0,0,1,5.938,5.938v47.5a5.945,5.945,0,0,1-5.937,5.937Zm-23.75-57a3.563,3.563,0,0,0-3.562,3.563v47.5A3.563,3.563,0,0,0,35.938,71h23.75a3.562,3.562,0,0,0,3.563-3.562v-47.5a3.563,3.563,0,0,0-3.562-3.562Z" transform="translate(5.625 2.625)" fill="#d7ff00"/>
  <path id="Path_2340" data-name="Path 2340" d="M53.563,24.938H41.688c-2.225,0-3.158-1.938-3.452-3.562H31V19h8.313A1.188,1.188,0,0,1,40.5,20.188c0,.02.066,2.375,1.188,2.375H53.563c1.121,0,1.188-2.355,1.188-2.375A1.188,1.188,0,0,1,55.938,19H64.25v2.375H57.015C56.72,23,55.788,24.938,53.563,24.938Z" transform="translate(5.813 3.563)" fill="#d7ff00"/>
  <path id="Path_2341" data-name="Path 2341" d="M41,18h9.5v2.375H41Z" transform="translate(7.688 3.375)" fill="#d7ff00"/>
  <path id="Path_2342" data-name="Path 2342" d="M41,59h9.5v2.375H41Z" transform="translate(7.688 11.063)" fill="#d7ff00"/>
  <path id="Path_2343" data-name="Path 2343" d="M31,56H64.25v2.375H31Z" transform="translate(5.813 10.5)" fill="#d7ff00"/>
  <path id="Path_2344" data-name="Path 2344" d="M20.625,32.5h-4.75a1.187,1.187,0,0,1-1.187-1.187V29.572a11.8,11.8,0,0,1-1.923-.8l-1.233,1.233a1.188,1.188,0,0,1-1.679,0L6.494,26.647a1.188,1.188,0,0,1,0-1.679l1.231-1.233a11.805,11.805,0,0,1-.8-1.923H5.188A1.188,1.188,0,0,1,4,20.625v-4.75a1.187,1.187,0,0,1,1.188-1.187H6.928a11.805,11.805,0,0,1,.8-1.923L6.494,11.532a1.188,1.188,0,0,1,0-1.679L9.853,6.494a1.188,1.188,0,0,1,1.679,0l1.233,1.231a11.805,11.805,0,0,1,1.923-.8V5.188A1.188,1.188,0,0,1,15.875,4h4.75a1.188,1.188,0,0,1,1.188,1.188V6.928a11.8,11.8,0,0,1,1.923.8l1.233-1.233a1.188,1.188,0,0,1,1.679,0l3.359,3.359a1.188,1.188,0,0,1,0,1.679l-1.231,1.233a11.8,11.8,0,0,1,.8,1.923h1.741A1.188,1.188,0,0,1,32.5,15.875v4.75a1.188,1.188,0,0,1-1.187,1.188H29.572a11.805,11.805,0,0,1-.8,1.923l1.233,1.233a1.188,1.188,0,0,1,0,1.679l-3.359,3.359a1.187,1.187,0,0,1-1.679,0l-1.233-1.231a11.8,11.8,0,0,1-1.923.8v1.741A1.188,1.188,0,0,1,20.625,32.5Zm-3.562-2.375h2.375V28.664a1.187,1.187,0,0,1,.924-1.159,9.4,9.4,0,0,0,2.937-1.22,1.188,1.188,0,0,1,1.474.165l1.035,1.035,1.679-1.679-1.035-1.035a1.188,1.188,0,0,1-.165-1.474,9.4,9.4,0,0,0,1.22-2.937,1.188,1.188,0,0,1,1.159-.924h1.461V17.063H28.664a1.188,1.188,0,0,1-1.159-.924,9.4,9.4,0,0,0-1.22-2.937,1.188,1.188,0,0,1,.165-1.474l1.036-1.035L25.807,9.014l-1.035,1.036a1.188,1.188,0,0,1-1.474.165,9.4,9.4,0,0,0-2.937-1.22,1.188,1.188,0,0,1-.924-1.159V6.375H17.063V7.836a1.188,1.188,0,0,1-.924,1.159,9.4,9.4,0,0,0-2.937,1.22,1.188,1.188,0,0,1-1.474-.165L10.693,9.014,9.014,10.693l1.035,1.035a1.187,1.187,0,0,1,.165,1.474,9.4,9.4,0,0,0-1.22,2.937,1.188,1.188,0,0,1-1.159.924H6.375v2.375H7.836a1.188,1.188,0,0,1,1.159.924,9.4,9.4,0,0,0,1.22,2.937,1.188,1.188,0,0,1-.165,1.474L9.014,25.807l1.679,1.679,1.035-1.035a1.188,1.188,0,0,1,1.474-.165,9.4,9.4,0,0,0,2.937,1.22,1.187,1.187,0,0,1,.924,1.159Z" transform="translate(0.75 0.75)" fill="#d7ff00"/>
  <path id="Path_2345" data-name="Path 2345" d="M16.938,22.875a5.937,5.937,0,1,1,5.938-5.937,5.937,5.937,0,0,1-5.938,5.938Zm0-9.5A3.563,3.563,0,1,0,20.5,16.938,3.563,3.563,0,0,0,16.938,13.375Z" transform="translate(2.063 2.063)" fill="#d7ff00"/>
  <path id="Path_2346" data-name="Path 2346" d="M17.375,43.625H15v-4.75a1.188,1.188,0,0,1,1.188-1.187h1.741a11.8,11.8,0,0,1,.8-1.923l-1.233-1.233a1.187,1.187,0,0,1,0-1.679l3.359-3.359a1.188,1.188,0,0,1,1.679,0l1.233,1.231a11.8,11.8,0,0,1,1.923-.8V28.188A1.188,1.188,0,0,1,26.875,27h4.75v2.375H28.063v1.461a1.187,1.187,0,0,1-.924,1.159,9.4,9.4,0,0,0-2.937,1.22,1.187,1.187,0,0,1-1.474-.165l-1.035-1.035-1.679,1.679,1.035,1.035a1.188,1.188,0,0,1,.165,1.474,9.4,9.4,0,0,0-1.22,2.937,1.188,1.188,0,0,1-1.159.924H17.375Z" transform="translate(2.813 5.063)" fill="#d7ff00"/>
  <path id="Path_2347" data-name="Path 2347" d="M24.375,39.938H22A5.945,5.945,0,0,1,27.938,34v2.375A3.563,3.563,0,0,0,24.375,39.938Z" transform="translate(4.125 6.375)" fill="#d7ff00"/>
  <path id="Path_2348" data-name="Path 2348" d="M47.063,54.125A13.063,13.063,0,1,1,60.125,41.063,13.062,13.062,0,0,1,47.063,54.125Zm0-23.75A10.688,10.688,0,1,0,57.75,41.063,10.688,10.688,0,0,0,47.063,30.375Z" transform="translate(6.375 5.25)" fill="#d7ff00"/>
  <path id="Path_2349" data-name="Path 2349" d="M44.125,48.625a1.187,1.187,0,0,1-.839-.348L37.348,42.34a1.187,1.187,0,0,1,0-1.679L40.91,37.1a1.187,1.187,0,0,1,1.679,0l1.535,1.535,6.285-6.285a1.187,1.187,0,0,1,1.679,0l3.563,3.563a1.187,1.187,0,0,1,0,1.679L44.965,48.277A1.187,1.187,0,0,1,44.125,48.625ZM39.867,41.5l4.258,4.258,9.008-9.008L51.25,34.867l-6.285,6.285a1.187,1.187,0,0,1-1.679,0L41.75,39.617Z" transform="translate(6.938 6)" fill="#d7ff00"/>
  <path id="Path_2350" data-name="Path 2350" d="M57,4h2.375V6.375H57Z" transform="translate(10.688 0.75)" fill="#d7ff00"/>
  <path id="Path_2351" data-name="Path 2351" d="M42,4H57.438V6.375H42Z" transform="translate(7.875 0.75)" fill="#d7ff00"/>
</svg>
