<svg xmlns="http://www.w3.org/2000/svg" width="75.422" height="77.458" viewBox="0 0 75.422 77.458">
  <g id="Layer_x0020_1" transform="translate(-22.47 -0.04)">
    <path id="Path_2373" data-name="Path 2373" d="M93.275,58.387H27.087A4.622,4.622,0,0,1,22.47,53.77V4.657A4.622,4.622,0,0,1,27.087.04H93.275a4.622,4.622,0,0,1,4.617,4.617V53.77A4.622,4.622,0,0,1,93.275,58.387ZM27.087,2.461a2.2,2.2,0,0,0-2.2,2.2V53.77a2.2,2.2,0,0,0,2.2,2.2H93.275a2.2,2.2,0,0,0,2.2-2.2V4.657a2.2,2.2,0,0,0-2.2-2.2H27.087Z" fill="#d7ff00" fill-rule="evenodd"/>
    <path id="Path_2374" data-name="Path 2374" d="M97,1017.581H24a1.21,1.21,0,0,1,0-2.421H97A1.21,1.21,0,0,1,97,1017.581Z" transform="translate(-0.322 -969.045)" fill="#d7ff00" fill-rule="evenodd"/>
    <path id="Path_2375" data-name="Path 2375" d="M677.129,1243.965H660.98a1.21,1.21,0,0,1-1.21-1.21v-9.334a1.21,1.21,0,0,1,1.21-1.211h16.149a1.21,1.21,0,0,1,1.21,1.211v9.334A1.211,1.211,0,0,1,677.129,1243.965Zm-14.938-2.421h13.728v-6.913H662.191Z" transform="translate(-608.374 -1176.244)" fill="#d7ff00" fill-rule="evenodd"/>
    <path id="Path_2376" data-name="Path 2376" d="M485.7,1450.039H450.44a1.21,1.21,0,0,1-1.21-1.21v-6.222A4.772,4.772,0,0,1,454,1437.84h28.149a4.772,4.772,0,0,1,4.766,4.766v6.222a1.211,1.211,0,0,1-1.211,1.21Zm-34.05-2.42H484.49v-5.012a2.348,2.348,0,0,0-2.346-2.346H454a2.348,2.348,0,0,0-2.346,2.346v5.012Z" transform="translate(-407.39 -1372.541)" fill="#d7ff00" fill-rule="evenodd"/>
    <path id="Path_2377" data-name="Path 2377" d="M360.762,386.8a7.362,7.362,0,1,1,7.362-7.362A7.37,7.37,0,0,1,360.762,386.8Zm0-12.3a4.941,4.941,0,1,0,4.941,4.94,4.946,4.946,0,0,0-4.941-4.94Z" transform="translate(-315.91 -355.154)" fill="#d7ff00" fill-rule="evenodd"/>
    <path id="Path_2378" data-name="Path 2378" d="M1400.947,1115.521h-4.255a1.21,1.21,0,0,1,0-2.421h4.255A1.21,1.21,0,0,1,1400.947,1115.521Z" transform="translate(-1310.708 -1062.54)" fill="#d7ff00" fill-rule="evenodd"/>
    <path id="Path_2379" data-name="Path 2379" d="M1199.567,1115.521h-4.255a1.21,1.21,0,0,1,0-2.421h4.255A1.21,1.21,0,0,1,1199.567,1115.521Z" transform="translate(-1118.469 -1062.54)" fill="#d7ff00" fill-rule="evenodd"/>
    <path id="Path_2380" data-name="Path 2380" d="M983.427,1115.521h-4.255a1.21,1.21,0,0,1,0-2.421h4.255A1.21,1.21,0,0,1,983.427,1115.521Z" transform="translate(-912.139 -1062.54)" fill="#d7ff00" fill-rule="evenodd"/>
    <path id="Path_2381" data-name="Path 2381" d="M797.355,510.021h-6a1.21,1.21,0,0,1,0-2.421h6A1.21,1.21,0,0,1,797.355,510.021Z" transform="translate(-732.844 -484.523)" fill="#d7ff00" fill-rule="evenodd"/>
    <path id="Path_2382" data-name="Path 2382" d="M929.806,271.667H923.28a1.21,1.21,0,0,1-1.211-1.211v-23.8a1.21,1.21,0,0,1,1.211-1.211h6.526a1.21,1.21,0,0,1,0,2.421h-5.316v21.376h5.316a1.21,1.21,0,0,1,0,2.42Z" transform="translate(-858.769 -234.271)" fill="#d7ff00" fill-rule="evenodd"/>
    <path id="Path_2383" data-name="Path 2383" d="M930.129,510.021H923.6a1.21,1.21,0,0,1,0-2.421h6.526A1.21,1.21,0,0,1,930.129,510.021Z" transform="translate(-859.091 -484.523)" fill="#d7ff00" fill-rule="evenodd"/>
    <path id="Path_2384" data-name="Path 2384" d="M1084.972,187.47h-17.911a1.21,1.21,0,0,1-1.21-1.211v-6.029a1.21,1.21,0,0,1,1.21-1.211h17.911a1.21,1.21,0,0,1,1.21,1.211v6.029A1.211,1.211,0,0,1,1084.972,187.47Zm-16.7-2.421h15.49v-3.609h-15.49Z" transform="translate(-996.023 -170.856)" fill="#d7ff00" fill-rule="evenodd"/>
    <path id="Path_2385" data-name="Path 2385" d="M1084.972,711.77h-17.911a1.21,1.21,0,0,1-1.21-1.21v-6.029a1.21,1.21,0,0,1,1.21-1.21h17.911a1.21,1.21,0,0,1,1.21,1.21v6.029A1.211,1.211,0,0,1,1084.972,711.77Zm-16.7-2.421h15.49v-3.609h-15.49v3.609Z" transform="translate(-996.023 -671.359)" fill="#d7ff00" fill-rule="evenodd"/>
    <path id="Path_2386" data-name="Path 2386" d="M1084.972,457.612h-17.911a1.21,1.21,0,0,1-1.21-1.21v-5.231a1.21,1.21,0,0,1,1.21-1.211h17.911a1.21,1.21,0,0,1,1.21,1.211V456.4A1.211,1.211,0,0,1,1084.972,457.612Zm-16.7-2.421h15.49v-2.811h-15.49Z" transform="translate(-996.023 -429.499)" fill="#d7ff00" fill-rule="evenodd"/>
    <path id="Path_2387" data-name="Path 2387" d="M204.379,235.772c-6.112,0-5.5.64-5.5-3.885a11.354,11.354,0,0,1-2.039-.846c-3.2,3.2-2.313,3.181-6.636-1.141-1.158-1.158.689-2.4,1.891-3.6a11.308,11.308,0,0,1-.845-2.039c-4.524,0-3.884.614-3.884-5.5,0-1.605,2.126-1.21,3.885-1.21a11.321,11.321,0,0,1,.845-2.038c-3.212-3.212-3.174-2.321,1.141-6.637,1.157-1.157,2.4.692,3.6,1.892a11.308,11.308,0,0,1,2.039-.845c0-4.524-.614-3.885,5.5-3.885,1.606,0,1.21,2.127,1.21,3.885a11.389,11.389,0,0,1,2.039.845c3.2-3.2,2.336-3.159,6.636,1.142,1.135,1.136-.648,2.36-1.891,3.6a11.305,11.305,0,0,1,.845,2.039c4.524,0,3.884-.614,3.884,5.5,0,1.605-2.126,1.211-3.885,1.211a11.352,11.352,0,0,1-.845,2.039c3.2,3.2,3.183,2.314-1.141,6.636-1.136,1.135-2.361-.65-3.6-1.891a11.327,11.327,0,0,1-2.039.846c0,1.757.4,3.884-1.211,3.884Zm-3.079-2.421h1.869c0-5.237.088-2.308,3.993-4.843,1.109-.72,2.037.681,3.213,1.857l1.321-1.321c-3.71-3.71-1.564-1.7-.6-6.248.275-1.294,1.92-.959,3.585-.959V219.97c-5.24,0-2.307-.091-4.843-3.993-.721-1.109.682-2.038,1.857-3.213l-1.321-1.321c-3.71,3.71-1.7,1.565-6.248.6-1.294-.275-.959-1.919-.959-3.584H201.3c0,5.243-.092,2.307-3.992,4.843-1.109.721-2.037-.682-3.214-1.858l-1.321,1.321c3.71,3.71,1.565,1.7.6,6.249-.275,1.294-1.92.959-3.584.958v1.869c5.239,0,2.307.089,4.843,3.992.721,1.109-.68,2.037-1.857,3.214l1.321,1.321c3.71-3.71,1.7-1.564,6.248-.6,1.294.275.959,1.919.959,3.584Z" transform="translate(-157.383 -196.617)" fill="#d7ff00" fill-rule="evenodd"/>
  </g>
</svg>
