<svg xmlns="http://www.w3.org/2000/svg" width="74.184" height="75.56" viewBox="0 0 74.184 75.56">
  <g id="Group_34954" data-name="Group 34954" transform="translate(-4.661)">
    <g id="Group_34955" data-name="Group 34955" transform="translate(4.661 0)">
      <path id="Path_2352" data-name="Path 2352" d="M49.063,440.178a1.107,1.107,0,0,0,1.107,1.107H60a1.107,1.107,0,0,0,0-2.214H50.17A1.107,1.107,0,0,0,49.063,440.178Z" transform="translate(-42.51 -374.274)" fill="#d7ff00"/>
      <path id="Path_2353" data-name="Path 2353" d="M83.349,204.53h6.025a1.107,1.107,0,0,0,0-2.214H83.349a1.107,1.107,0,0,0,0,2.214Z" transform="translate(-70.793 -172.459)" fill="#d7ff00"/>
      <path id="Path_2354" data-name="Path 2354" d="M83.349,244.491h6.025a1.107,1.107,0,0,0,0-2.214H83.349a1.107,1.107,0,0,0,0,2.214Z" transform="translate(-70.793 -206.522)" fill="#d7ff00"/>
      <path id="Path_2355" data-name="Path 2355" d="M83.349,284.453h6.025a1.107,1.107,0,0,0,0-2.214H83.349a1.107,1.107,0,0,0,0,2.214Z" transform="translate(-70.793 -240.587)" fill="#d7ff00"/>
      <path id="Path_2356" data-name="Path 2356" d="M42.769,204.53H43.4a1.107,1.107,0,0,0,0-2.214h-.632a1.107,1.107,0,0,0,0,2.214Z" transform="translate(-36.201 -172.459)" fill="#d7ff00"/>
      <path id="Path_2357" data-name="Path 2357" d="M42.769,244.491H43.4a1.107,1.107,0,0,0,0-2.214h-.632a1.107,1.107,0,0,0,0,2.214Z" transform="translate(-36.201 -206.522)" fill="#d7ff00"/>
      <path id="Path_2358" data-name="Path 2358" d="M42.769,284.453H43.4a1.107,1.107,0,0,0,0-2.214h-.632a1.107,1.107,0,0,0,0,2.214Z" transform="translate(-36.201 -240.587)" fill="#d7ff00"/>
      <path id="Path_2359" data-name="Path 2359" d="M77.738,106.841H5.768a1.107,1.107,0,1,0,0,2.214H77.738a1.107,1.107,0,1,0,0-2.214Z" transform="translate(-4.661 -91.074)" fill="#d7ff00"/>
      <g id="Group_34954-2" data-name="Group 34954" transform="translate(0)">
        <path id="Path_2360" data-name="Path 2360" d="M77.946,0a1.107,1.107,0,0,0-1.107,1.107V9.78a1.107,1.107,0,1,0,2.214,0V1.109A1.107,1.107,0,0,0,77.946,0Z" transform="translate(-66.187 -0.002)" fill="#d7ff00"/>
        <path id="Path_2361" data-name="Path 2361" d="M11.794,0a1.107,1.107,0,0,0-1.107,1.107V7.07c0,.409-.117.937-1.025,1.394a2.018,2.018,0,0,1-.929.209h0a1.812,1.812,0,0,1-1-.283,1.439,1.439,0,0,1-.849-1.315V1.109a1.107,1.107,0,0,0-2.214,0V7.076a3.644,3.644,0,0,0,1.871,3.18,4.016,4.016,0,0,0,2.193.631h.007a4.238,4.238,0,0,0,1.925-.446A3.641,3.641,0,0,0,12.9,7.07V1.109A1.107,1.107,0,0,0,11.794,0Z" transform="translate(-4.662 -0.002)" fill="#d7ff00"/>
        <path id="Path_2362" data-name="Path 2362" d="M238.236,5.136l2.389-3.391A1.107,1.107,0,1,0,238.815.47l-1.932,2.742L234.954.471a1.107,1.107,0,1,0-1.811,1.274l2.385,3.39-2.823,4.007a1.107,1.107,0,1,0,1.81,1.275l2.366-3.358,2.362,3.358a1.107,1.107,0,1,0,1.81-1.274Z" transform="translate(-198.879 -0.001)" fill="#d7ff00"/>
        <path id="Path_2363" data-name="Path 2363" d="M175.046,0a1.107,1.107,0,0,0-1.107,1.107V7.07c0,.409-.117.937-1.025,1.394a2.018,2.018,0,0,1-.929.209h0a1.812,1.812,0,0,1-1-.283,1.439,1.439,0,0,1-.849-1.315V1.109a1.107,1.107,0,1,0-2.214,0V7.076a3.644,3.644,0,0,0,1.871,3.18,4.015,4.015,0,0,0,2.193.631h.007a4.238,4.238,0,0,0,1.925-.446,3.641,3.641,0,0,0,2.243-3.372V1.109A1.107,1.107,0,0,0,175.046,0Z" transform="translate(-143.822 -0.002)" fill="#d7ff00"/>
        <path id="Path_2364" data-name="Path 2364" d="M116.322.088a1.107,1.107,0,0,0-1.451.588L111.2,9.348a1.107,1.107,0,1,0,2.039.862l3.667-8.672a1.107,1.107,0,0,0-.588-1.451Z" transform="translate(-95.406 0)" fill="#d7ff00"/>
        <path id="Path_2365" data-name="Path 2365" d="M441.161,2.416h7.716a1.107,1.107,0,1,0,0-2.214h-7.716a1.107,1.107,0,1,0,0,2.214Z" transform="translate(-375.8 -0.172)" fill="#d7ff00"/>
        <path id="Path_2366" data-name="Path 2366" d="M448.877,29.381h-7.716a1.107,1.107,0,1,0,0,2.214h7.716a1.107,1.107,0,1,0,0-2.214Z" transform="translate(-375.8 -25.045)" fill="#d7ff00"/>
        <path id="Path_2367" data-name="Path 2367" d="M448.877,58.56h-7.716a1.107,1.107,0,1,0,0,2.214h7.716a1.107,1.107,0,1,0,0-2.214Z" transform="translate(-375.8 -49.918)" fill="#d7ff00"/>
      </g>
      <path id="Path_2368" data-name="Path 2368" d="M247,155.107H210.747a4.063,4.063,0,0,0-4.058,4.058v44.553a4.063,4.063,0,0,0,4.058,4.058H247a4.063,4.063,0,0,0,4.058-4.058V159.165A4.063,4.063,0,0,0,247,155.107Zm1.845,48.611A1.847,1.847,0,0,1,247,205.563H210.747a1.847,1.847,0,0,1-1.845-1.845V159.165a1.847,1.847,0,0,1,1.845-1.845H247a1.847,1.847,0,0,1,1.845,1.845Z" transform="translate(-176.874 -132.217)" fill="#d7ff00"/>
      <path id="Path_2369" data-name="Path 2369" d="M25.751,381.143H16.96a1.107,1.107,0,0,0,0,2.214h8.791A1.847,1.847,0,0,1,27.6,385.2V396.4a1.847,1.847,0,0,1-1.845,1.845H8.719A1.847,1.847,0,0,1,6.875,396.4V385.2a1.847,1.847,0,0,1,1.845-1.845h3.075a1.107,1.107,0,0,0,0-2.214H8.719A4.063,4.063,0,0,0,4.661,385.2V396.4a4.063,4.063,0,0,0,4.058,4.058H25.751a4.063,4.063,0,0,0,4.058-4.058V385.2A4.063,4.063,0,0,0,25.751,381.143Z" transform="translate(-4.661 -324.895)" fill="#d7ff00"/>
      <path id="Path_2370" data-name="Path 2370" d="M25.751,155.107H8.719a4.063,4.063,0,0,0-4.058,4.058v4.812a1.107,1.107,0,0,0,2.214,0v-4.812a1.847,1.847,0,0,1,1.845-1.845H25.751a1.847,1.847,0,0,1,1.845,1.845v19.826a1.847,1.847,0,0,1-1.845,1.845H8.719a1.847,1.847,0,0,1-1.845-1.845v-9.849a1.107,1.107,0,1,0-2.214,0v9.849a4.063,4.063,0,0,0,4.058,4.058H25.751a4.063,4.063,0,0,0,4.058-4.058V159.165A4.063,4.063,0,0,0,25.751,155.107Z" transform="translate(-4.661 -132.217)" fill="#d7ff00"/>
      <path id="Path_2371" data-name="Path 2371" d="M291.732,230.608a9.4,9.4,0,0,1-9.122-7.1,1.107,1.107,0,0,0-2.146.542,11.622,11.622,0,1,0,0-5.707,1.107,1.107,0,0,0,2.146.542,9.409,9.409,0,1,1,9.122,11.72Z" transform="translate(-239.732 -178.648)" fill="#d7ff00"/>
      <path id="Path_2372" data-name="Path 2372" d="M284.534,397.836H265.313a4.6,4.6,0,1,0,0,9.2h19.221a4.6,4.6,0,1,0,0-9.2Zm0,6.99H265.313a2.388,2.388,0,0,1,0-4.776h19.221a2.388,2.388,0,1,1,0,4.776Z" transform="translate(-222.924 -339.124)" fill="#d7ff00"/>
    </g>
  </g>
</svg>
