<svg xmlns="http://www.w3.org/2000/svg" width="76" height="76" viewBox="0 0 76 76">
  <g id="Code_x2C__coding_x2C__mobile_x2C__development" transform="translate(-1 -1)">
    <g id="XMLID_1809_" transform="translate(1 1)">
      <g id="XMLID_1832_" transform="translate(32.933 5.067)">
        <g id="Group_34957" data-name="Group 34957">
          <g id="Group_34956" data-name="Group 34956">
            <path id="Path_2388" data-name="Path 2388" d="M22.867,5.533h-7.6a1.267,1.267,0,0,1,0-2.533h7.6a1.267,1.267,0,0,1,0,2.533Z" transform="translate(-14 -3)" fill="#d7ff00"/>
          </g>
        </g>
      </g>
      <g id="XMLID_1831_" transform="translate(17.733 25.333)">
        <g id="Group_34959" data-name="Group 34959">
          <g id="Group_34958" data-name="Group 34958">
            <path id="Path_2389" data-name="Path 2389" d="M42.2,61.667H14.333A6.341,6.341,0,0,1,8,55.333V12.267a1.267,1.267,0,1,1,2.533,0V55.333a3.8,3.8,0,0,0,3.8,3.8H42.2a3.8,3.8,0,0,0,3.8-3.8V12.267a1.267,1.267,0,1,1,2.533,0V55.333A6.341,6.341,0,0,1,42.2,61.667Z" transform="translate(-8 -11)" fill="#d7ff00"/>
          </g>
        </g>
      </g>
      <g id="XMLID_1830_" transform="translate(17.733)">
        <g id="Group_34961" data-name="Group 34961">
          <g id="Group_34960" data-name="Group 34960">
            <path id="Path_2390" data-name="Path 2390" d="M47.267,36.467A1.267,1.267,0,0,1,46,35.2V7.333a3.8,3.8,0,0,0-3.8-3.8H14.333a3.8,3.8,0,0,0-3.8,3.8V35.2A1.267,1.267,0,1,1,8,35.2V7.333A6.341,6.341,0,0,1,14.333,1H42.2a6.341,6.341,0,0,1,6.333,6.333V35.2A1.267,1.267,0,0,1,47.267,36.467Z" transform="translate(-8 -1)" fill="#d7ff00"/>
          </g>
        </g>
      </g>
      <g id="XMLID_1816_" transform="translate(63.333 10.133)">
        <g id="XMLID_1824_">
          <g id="Group_34963" data-name="Group 34963">
            <g id="Group_34962" data-name="Group 34962">
              <path id="Path_2391" data-name="Path 2391" d="M27.267,7.66A1.165,1.165,0,0,1,26,6.52V6.267a1.267,1.267,0,1,1,2.533,0A1.382,1.382,0,0,1,27.267,7.66Z" transform="translate(-26 -5)" fill="#d7ff00"/>
            </g>
          </g>
        </g>
        <g id="XMLID_1818_" transform="translate(0 5.067)">
          <g id="Group_34965" data-name="Group 34965">
            <g id="Group_34964" data-name="Group 34964">
              <path id="Path_2392" data-name="Path 2392" d="M27.267,9.66A1.165,1.165,0,0,1,26,8.52V8.267a1.267,1.267,0,1,1,2.533,0A1.382,1.382,0,0,1,27.267,9.66Z" transform="translate(-26 -7)" fill="#d7ff00"/>
            </g>
          </g>
        </g>
        <g id="XMLID_1817_" transform="translate(0 10.133)">
          <g id="Group_34967" data-name="Group 34967">
            <g id="Group_34966" data-name="Group 34966">
              <path id="Path_2393" data-name="Path 2393" d="M27.267,11.66A1.165,1.165,0,0,1,26,10.52v-.253a1.267,1.267,0,1,1,2.533,0A1.382,1.382,0,0,1,27.267,11.66Z" transform="translate(-26 -9)" fill="#d7ff00"/>
            </g>
          </g>
        </g>
      </g>
      <g id="XMLID_1820_" transform="translate(10.133 52.947)">
        <g id="XMLID_1823_">
          <g id="Group_34969" data-name="Group 34969">
            <g id="Group_34968" data-name="Group 34968">
              <path id="Path_2394" data-name="Path 2394" d="M6.267,24.56A1.165,1.165,0,0,1,5,23.42v-.253a1.267,1.267,0,0,1,2.533,0A1.382,1.382,0,0,1,6.267,24.56Z" transform="translate(-5 -21.9)" fill="#d7ff00"/>
            </g>
          </g>
        </g>
        <g id="XMLID_1822_" transform="translate(0 5.067)">
          <g id="Group_34971" data-name="Group 34971">
            <g id="Group_34970" data-name="Group 34970">
              <path id="Path_2395" data-name="Path 2395" d="M6.267,26.56A1.165,1.165,0,0,1,5,25.42v-.253a1.267,1.267,0,0,1,2.533,0A1.382,1.382,0,0,1,6.267,26.56Z" transform="translate(-5 -23.9)" fill="#d7ff00"/>
            </g>
          </g>
        </g>
        <g id="XMLID_1821_" transform="translate(0 10.133)">
          <g id="Group_34973" data-name="Group 34973">
            <g id="Group_34972" data-name="Group 34972">
              <path id="Path_2396" data-name="Path 2396" d="M6.267,28.56A1.165,1.165,0,0,1,5,27.42v-.253a1.267,1.267,0,0,1,2.533,0A1.382,1.382,0,0,1,6.267,28.56Z" transform="translate(-5 -25.9)" fill="#d7ff00"/>
            </g>
          </g>
        </g>
      </g>
      <g id="XMLID_1815_" transform="translate(57 30.4)">
        <g id="Group_34975" data-name="Group 34975">
          <g id="Group_34974" data-name="Group 34974">
            <path id="Path_2397" data-name="Path 2397" d="M26.9,48.467a1.209,1.209,0,0,1-.269-.028,1.266,1.266,0,0,1-.97-1.5l.836-3.876a1.262,1.262,0,0,1,.94-.963A12.138,12.138,0,0,0,30.9,40.649a1.266,1.266,0,0,1,1.34.013l2.508,1.6L36.3,40.7l-1.6-2.488a1.269,1.269,0,0,1-.018-1.345A12.059,12.059,0,0,0,36.121,33.4a1.27,1.27,0,0,1,.958-.942l2.888-.641V29.649l-2.885-.641a1.271,1.271,0,0,1-.958-.942A12.13,12.13,0,0,0,34.68,24.6a1.26,1.26,0,0,1,.015-1.343L36.3,20.749l-1.55-1.55L32.24,20.805a1.261,1.261,0,0,1-1.34.013,12.2,12.2,0,0,0-3.463-1.447,1.262,1.262,0,0,1-.94-.963l-.623-2.875H24.767a1.267,1.267,0,1,1,0-2.533h2.128a1.266,1.266,0,0,1,1.236,1l.676,3.124a14.659,14.659,0,0,1,2.713,1.135l2.721-1.74a1.269,1.269,0,0,1,1.578.172l2.992,2.989a1.265,1.265,0,0,1,.17,1.578l-1.74,2.721A14.7,14.7,0,0,1,38.376,26.7l3.129.694a1.27,1.27,0,0,1,1,1.239v4.205a1.266,1.266,0,0,1-.993,1.236l-3.129.694a14.61,14.61,0,0,1-1.135,2.716l1.738,2.7a1.261,1.261,0,0,1-.165,1.578l-2.992,3.015a1.27,1.27,0,0,1-1.581.175L31.523,43.2A14.731,14.731,0,0,1,28.81,44.34l-.676,3.124a1.269,1.269,0,0,1-1.236,1Z" transform="translate(-23.5 -13)" fill="#d7ff00"/>
          </g>
        </g>
      </g>
      <g id="XMLID_1810_" transform="translate(55.73 40.533)">
        <g id="Group_34977" data-name="Group 34977">
          <g id="Group_34976" data-name="Group 34976">
            <path id="Path_2398" data-name="Path 2398" d="M29.059,31.131a1.266,1.266,0,0,1-.7-2.318,5.069,5.069,0,0,0-2.82-9.28,5.148,5.148,0,0,0-1.013.1,1.267,1.267,0,1,1-.509-2.483A7.817,7.817,0,0,1,25.535,17a7.6,7.6,0,0,1,4.228,13.916,1.263,1.263,0,0,1-.7.215Z" transform="translate(-22.999 -17)" fill="#d7ff00"/>
          </g>
        </g>
      </g>
      <g id="XMLID_1293_" transform="translate(10.133 21.326)">
        <g id="Group_34979" data-name="Group 34979">
          <g id="Group_34978" data-name="Group 34978">
            <path id="Path_2399" data-name="Path 2399" d="M12.6,23.559A7.6,7.6,0,0,1,8.39,9.63a1.266,1.266,0,1,1,1.4,2.108A5.068,5.068,0,0,0,12.6,21.025a4.927,4.927,0,0,0,.993-.1,1.266,1.266,0,1,1,.5,2.483,7.434,7.434,0,0,1-1.492.149Z" transform="translate(-5 -9.418)" fill="#d7ff00"/>
          </g>
        </g>
      </g>
      <g id="XMLID_1811_" transform="translate(0 10.133)">
        <g id="Group_34981" data-name="Group 34981" transform="translate(0 0)">
          <g id="Group_34980" data-name="Group 34980">
            <path id="Path_2400" data-name="Path 2400" d="M18.733,40.467H16.605a1.266,1.266,0,0,1-1.236-1l-.676-3.124a14.659,14.659,0,0,1-2.713-1.135l-2.721,1.74a1.265,1.265,0,0,1-1.578-.172L4.689,33.786a1.265,1.265,0,0,1-.17-1.578l1.74-2.721a14.7,14.7,0,0,1-1.135-2.718L2,26.075a1.27,1.27,0,0,1-1-1.239V20.631a1.266,1.266,0,0,1,.993-1.236L5.122,18.7a14.61,14.61,0,0,1,1.135-2.716l-1.735-2.7a1.261,1.261,0,0,1,.165-1.578L7.678,8.694a1.262,1.262,0,0,1,1.581-.175l2.721,1.74a14.731,14.731,0,0,1,2.713-1.135L15.369,6a1.266,1.266,0,0,1,2.475.535l-.836,3.876a1.262,1.262,0,0,1-.94.963A12.182,12.182,0,0,0,12.6,12.82a1.266,1.266,0,0,1-1.34-.013L8.755,11.2,7.2,12.77l1.6,2.488A1.259,1.259,0,0,1,8.82,16.6a12.059,12.059,0,0,0-1.444,3.463,1.27,1.27,0,0,1-.958.942l-2.885.638v2.171l2.885.641a1.27,1.27,0,0,1,.958.942A12.13,12.13,0,0,0,8.82,28.864a1.26,1.26,0,0,1-.015,1.343L7.2,32.715l1.55,1.55,2.511-1.606a1.271,1.271,0,0,1,1.34-.013,12.2,12.2,0,0,0,3.463,1.447,1.262,1.262,0,0,1,.94.963l.623,2.878h1.107a1.267,1.267,0,0,1,0,2.533Z" transform="translate(-1 -5)" fill="#d7ff00"/>
          </g>
        </g>
      </g>
      <g id="XMLID_1813_" transform="translate(25.333 31.666)">
        <g id="XMLID_1890_" transform="translate(10.134)">
          <g id="Group_34983" data-name="Group 34983">
            <g id="Group_34982" data-name="Group 34982">
              <path id="Path_2401" data-name="Path 2401" d="M16.267,26.167a1.285,1.285,0,0,1-.307-.038,1.264,1.264,0,0,1-.922-1.535L17.571,14.46a1.266,1.266,0,0,1,2.457.613L17.5,25.207a1.262,1.262,0,0,1-1.229.96Z" transform="translate(-15 -13.5)" fill="#d7ff00"/>
            </g>
          </g>
        </g>
        <g id="XMLID_1888_" transform="translate(17.733 0.002)">
          <g id="Group_34985" data-name="Group 34985">
            <g id="Group_34984" data-name="Group 34984">
              <path id="Path_2402" data-name="Path 2402" d="M19.267,26.166A1.265,1.265,0,0,1,18.37,24l4.172-4.172-4.17-4.17a1.266,1.266,0,1,1,1.791-1.791l5.067,5.067a1.268,1.268,0,0,1,0,1.791L20.164,25.8A1.272,1.272,0,0,1,19.267,26.166Z" transform="translate(-18 -13.501)" fill="#d7ff00"/>
            </g>
          </g>
        </g>
        <g id="XMLID_1887_" transform="translate(0 0.002)">
          <g id="Group_34987" data-name="Group 34987">
            <g id="Group_34986" data-name="Group 34986">
              <path id="Path_2403" data-name="Path 2403" d="M17.334,26.166a1.272,1.272,0,0,1-.9-.37L11.37,20.729a1.268,1.268,0,0,1,0-1.791l5.067-5.067a1.266,1.266,0,1,1,1.791,1.791l-4.17,4.17L18.228,24a1.268,1.268,0,0,1,0,1.791A1.254,1.254,0,0,1,17.334,26.166Z" transform="translate(-11 -13.501)" fill="#d7ff00"/>
            </g>
          </g>
        </g>
      </g>
    </g>
  </g>
</svg>
