<svg xmlns="http://www.w3.org/2000/svg" width="77" height="67.661" viewBox="0 0 77 67.661">
  <path id="Path_2416" data-name="Path 2416" d="M69.171,77.157a17.139,17.139,0,0,0,2.546-17.192l5.511-6.091a1.052,1.052,0,0,0-.031-1.445l-2-2.024a1.053,1.053,0,0,0-1.451-.044l-5.159,4.623a17.029,17.029,0,0,0-2.541-2.306V37.113a5.633,5.633,0,0,0-5.628-5.624H30.538a5.631,5.631,0,0,0-5.624,5.624v12.9a31.563,31.563,0,0,0-5.065,1.722c-4.785,2.152-7.366,5.392-7.684,9.64h-1.1v-2a1.052,1.052,0,0,0-1.052-1.052H1.552A1.052,1.052,0,0,0,.5,59.376v23.63a1.052,1.052,0,0,0,1.052,1.052H10.01a1.052,1.052,0,0,0,1.052-1.052v-2h1.762c1.875,4.83,7.018,6.076,12.09,6.506v6.007a5.633,5.633,0,0,0,5.624,5.629h29.88a5.635,5.635,0,0,0,5.628-5.629V85.409l4.75,5.632a3.288,3.288,0,0,0,4.621.387l.876-.74a3.279,3.279,0,0,0,.391-4.62ZM74.4,52.6l.6.6-5.276,5.831-.037.041-2.908,3.214a1.054,1.054,0,0,0-.071.078L57.428,72.62,51.381,63.5l1.681-.082,4.367,3.255a1.053,1.053,0,0,0,1.331-.06l7.507-6.726.005,0ZM63.025,74.852A11.041,11.041,0,1,1,48.788,57.973,11.084,11.084,0,0,1,64.1,59.008L58,64.472l-3.98-2.967a1.046,1.046,0,0,0-.681-.207l-3.907.192a1.052,1.052,0,0,0-.825,1.633l7.818,11.79a1.052,1.052,0,0,0,.8.468c.026,0,.053,0,.079,0a1.052,1.052,0,0,0,.78-.346L66.894,65.3a11.052,11.052,0,0,1-3.869,9.556Zm4-18.464L65.662,57.6a13.135,13.135,0,1,0,3.022,5.712l1.438-1.589a14.964,14.964,0,0,1-7.237,17.93l-.038.02a14.969,14.969,0,1,1,4.174-23.29ZM37.078,33.594H54.488v2.6a.42.42,0,0,1-.418.422H37.5a.427.427,0,0,1-.422-.422ZM8.957,81.953H2.6V60.428H8.957V81.953Zm5.628-2.3a1.052,1.052,0,0,0-1.009-.754H11.062V63.483h2.122a1.052,1.052,0,0,0,1.052-1.065c-.047-3.969,2.011-6.753,6.476-8.761a31.022,31.022,0,0,1,5.466-1.785h0c2.7-.647,5.541-1.078,8.173-1.476.846-.128,1.645-.249,2.417-.374a1.414,1.414,0,0,1,1.62,1.13l.269,1.381A2.814,2.814,0,0,1,36.444,55.8l-8.892,1.837a1.053,1.053,0,0,0-1.377,1.092,10.592,10.592,0,0,1-1.487,5.644c-1.278,2.308-3.138,4.1-4.739,4.554a1.786,1.786,0,0,1-1.38-.06,1.052,1.052,0,0,0-1.022,1.84,3.5,3.5,0,0,0,1.715.43,4.6,4.6,0,0,0,1.266-.187,9.536,9.536,0,0,0,4.385-3.188V85.4c-6.279-.573-9.3-2.272-10.329-5.743ZM60.419,97.045H30.538a3.525,3.525,0,0,1-3.519-3.524V92.077H63.942v1.444A3.527,3.527,0,0,1,60.419,97.045Zm3.524-7.073H27.019V64.433a12.929,12.929,0,0,0,1.272-4.8l8.579-1.772a4.926,4.926,0,0,0,3.854-5.731l-.269-1.381a3.511,3.511,0,0,0-4.021-2.806c-.761.123-1.555.243-2.4.37-2.255.341-4.656.705-7.019,1.209V37.113a3.523,3.523,0,0,1,3.519-3.519h4.435v2.6A2.53,2.53,0,0,0,37.5,38.72H54.07a2.527,2.527,0,0,0,2.522-2.527v-2.6h3.826a3.525,3.525,0,0,1,3.524,3.519V51.35A17.063,17.063,0,1,0,63.09,81.9l.852,1.01v7.058Zm11.406-1.689a1.159,1.159,0,0,1-.411.8l-.878.742a1.18,1.18,0,0,1-1.656-.139l-6.356-7.537v-2c.295-.218.586-.443.871-.682s.555-.489.819-.743l7.34,8.705A1.165,1.165,0,0,1,75.349,88.283Z" transform="translate(-0.5 -31.489)" fill="#d7ff00"/>
</svg>
