<svg xmlns="http://www.w3.org/2000/svg" width="70.539" height="75.965" viewBox="0 0 70.539 75.965">
  <g id="Group_34988" data-name="Group 34988" transform="translate(-6 -4)">
    <path id="Path_2404" data-name="Path 2404" d="M17.357,32.713A1.357,1.357,0,1,0,16,31.357,1.359,1.359,0,0,0,17.357,32.713Z" transform="translate(3.565 9.27)" fill="#d7ff00"/>
    <path id="Path_2405" data-name="Path 2405" d="M21.357,32.713A1.357,1.357,0,1,0,20,31.357,1.359,1.359,0,0,0,21.357,32.713Z" transform="translate(4.991 9.27)" fill="#d7ff00"/>
    <path id="Path_2406" data-name="Path 2406" d="M25.357,32.713A1.357,1.357,0,1,0,24,31.357,1.359,1.359,0,0,0,25.357,32.713Z" transform="translate(6.417 9.27)" fill="#d7ff00"/>
    <path id="Path_2407" data-name="Path 2407" d="M33.357,32.713H52.348a1.357,1.357,0,1,0,0-2.713H33.357a1.357,1.357,0,1,0,0,2.713Z" transform="translate(9.27 9.27)" fill="#d7ff00"/>
    <path id="Path_2408" data-name="Path 2408" d="M27,43.357a1.282,1.282,0,0,0,1.357,1.357h4.07a1.357,1.357,0,0,0,0-2.713h-4.07A1.282,1.282,0,0,0,27,43.357Z" transform="translate(7.487 13.548)" fill="#d7ff00"/>
    <path id="Path_2409" data-name="Path 2409" d="M35.357,44.713h1.357a1.357,1.357,0,1,0,0-2.713H35.357a1.357,1.357,0,0,0,0,2.713Z" transform="translate(9.983 13.548)" fill="#d7ff00"/>
    <path id="Path_2410" data-name="Path 2410" d="M28.357,48.713h1.357a1.357,1.357,0,1,0,0-2.713H28.357a1.357,1.357,0,1,0,0,2.713Z" transform="translate(7.487 14.974)" fill="#d7ff00"/>
    <path id="Path_2411" data-name="Path 2411" d="M33.357,48.713h4.07a1.357,1.357,0,1,0,0-2.713h-4.07a1.357,1.357,0,1,0,0,2.713Z" transform="translate(9.27 14.974)" fill="#d7ff00"/>
    <path id="Path_2412" data-name="Path 2412" d="M40.713,53.922v2.713a1.282,1.282,0,0,1-1.357,1.357,1.357,1.357,0,1,0,0,2.713,4,4,0,0,0,4.07-4.07V53.922a2.721,2.721,0,0,1,2.713-2.713,1.357,1.357,0,0,0,0-2.713,2.721,2.721,0,0,1-2.713-2.713V43.07A4,4,0,0,0,39.357,39a1.357,1.357,0,1,0,0,2.713,1.282,1.282,0,0,1,1.357,1.357v2.713a5.086,5.086,0,0,0,1.9,4.07A5.086,5.086,0,0,0,40.713,53.922Z" transform="translate(11.409 12.478)" fill="#d7ff00"/>
    <path id="Path_2413" data-name="Path 2413" d="M25.783,45.783V43.07a1.282,1.282,0,0,1,1.357-1.357,1.357,1.357,0,1,0,0-2.713,4,4,0,0,0-4.07,4.07v2.713A2.721,2.721,0,0,1,20.357,48.5a1.357,1.357,0,0,0,0,2.713,2.721,2.721,0,0,1,2.713,2.713v2.713a4,4,0,0,0,4.07,4.07,1.357,1.357,0,1,0,0-2.713,1.282,1.282,0,0,1-1.357-1.357V53.922a5.086,5.086,0,0,0-1.9-4.07A5.086,5.086,0,0,0,25.783,45.783Z" transform="translate(4.635 12.478)" fill="#d7ff00"/>
    <path id="Path_2414" data-name="Path 2414" d="M39.209,50H28.357a1.357,1.357,0,1,0,0,2.713H39.209a1.357,1.357,0,1,0,0-2.713Z" transform="translate(7.487 16.4)" fill="#d7ff00"/>
    <path id="Path_2415" data-name="Path 2415" d="M76.539,33.844A10.884,10.884,0,0,0,65.687,22.991h-4.07a20.4,20.4,0,0,0-40.7,0h-4.07A10.884,10.884,0,0,0,6,33.844a10.754,10.754,0,0,0,8.139,10.445v34.32A1.282,1.282,0,0,0,15.5,79.965H67.044A1.282,1.282,0,0,0,68.4,78.609V44.289A10.754,10.754,0,0,0,76.539,33.844ZM65.687,36.557V44.7H38.557V36.557ZM35.844,44.7H16.852V36.557H35.844ZM65.687,77.252H16.852V47.409H65.687ZM68.4,41.44V35.2a1.282,1.282,0,0,0-1.357-1.357H15.5A1.282,1.282,0,0,0,14.139,35.2v6.24A8.094,8.094,0,0,1,16.852,25.7h5.426a1.282,1.282,0,0,0,1.357-1.357,17.635,17.635,0,0,1,35.27,0A1.282,1.282,0,0,0,60.261,25.7h5.426a8.163,8.163,0,0,1,8.139,8.139A8.08,8.08,0,0,1,68.4,41.44Z" fill="#d7ff00"/>
  </g>
</svg>
