<svg xmlns="http://www.w3.org/2000/svg" width="94" height="94" viewBox="0 0 94 94">
  <g id="Group_34003" data-name="Group 34003" transform="translate(-353 -4829)">
    <circle id="Ellipse_17" data-name="Ellipse 17" cx="47" cy="47" r="47" transform="translate(353 4829)" fill="#d7ff35"/>
    <g id="Outline" transform="translate(359.268 4835.091)">
      <path id="Path_52119" data-name="Path 52119" d="M17.649,31.664H16v-3.3a4.127,4.127,0,0,1,4.122-4.122h28.03V22.6H46.5a.824.824,0,0,1-.583-1.407l4.946-4.946a.824.824,0,0,1,1.166,0l4.946,4.946A.824.824,0,0,1,56.4,22.6H54.747v1.649h3.3a4.127,4.127,0,0,1,4.122,4.122V44.854H60.518V28.366a2.476,2.476,0,0,0-2.473-2.473h-3.3V40.732H53.1V21.771a.824.824,0,0,1,.824-.824h.483L51.45,17.99l-2.956,2.956h.483a.824.824,0,0,1,.824.824V41.556H48.152V25.893H20.122a2.476,2.476,0,0,0-2.473,2.473ZM20.122,57.22H33.853l-1.979,6.6h-1.86v1.649H48.152V63.816h-1.86l-1.06-3.535-1.579.474.918,3.061H33.6l1.979-6.6h5.982V55.571H20.122A2.476,2.476,0,0,1,17.649,53.1v-.824H40.732V50.625H17.649V33.312H16V53.1a4.127,4.127,0,0,0,4.122,4.122ZM44.854,43.205V30.015h-3.3V48.976H20.122V47.327h3.3v-6.6a.824.824,0,0,1,.824-.824h4.946a.824.824,0,0,1,.824.824v6.6h1.649V34.961a.824.824,0,0,1,.824-.824h4.946a.824.824,0,0,1,.824.824V47.327h1.649V29.19a.824.824,0,0,1,.824-.824h4.946a.824.824,0,0,1,.824.824V43.205ZM28.366,41.556h-3.3v5.771h3.3Zm8.244-5.771h-3.3V47.327h3.3ZM20.122,27.542V29.19h1.649V27.542Zm4.946,0H23.42V29.19h1.649Zm1.649,0V29.19h1.649V27.542Zm38.023,33.7a2.472,2.472,0,0,1-1.748,4.222,2.525,2.525,0,0,1-1.748-.725L57.3,60.794a9.9,9.9,0,1,1,3.5-3.5Zm-4.222-8.969a8.244,8.244,0,1,0-8.244,8.244,8.244,8.244,0,0,0,8.244-8.244Zm3.056,10.135-3.75-3.75a9.983,9.983,0,0,1-1.165,1.165l3.75,3.75a.824.824,0,1,0,1.164-1.164Zm-4.7-10.135a6.6,6.6,0,1,1-6.6-6.6A6.6,6.6,0,0,1,58.869,52.274Zm-1.649,0a4.946,4.946,0,1,0-4.946,4.946A4.946,4.946,0,0,0,57.221,52.274Zm-8.244,0h1.649a1.651,1.651,0,0,1,1.649-1.649V48.976A3.3,3.3,0,0,0,48.976,52.274ZM59.694,20.946h1.649A4.952,4.952,0,0,0,56.4,16v1.649A3.3,3.3,0,0,1,59.694,20.946Z" fill="#191919"/>
    </g>
  </g>
</svg>
