<svg xmlns="http://www.w3.org/2000/svg" width="94" height="94" viewBox="0 0 94 94">
  <g id="Group_34003" data-name="Group 34003" transform="translate(-353 -4829)">
    <circle id="Ellipse_17" data-name="Ellipse 17" cx="47" cy="47" r="47" transform="translate(353 4829)" fill="#d7ff35"/>
    <g id="Group_38770" data-name="Group 38770" transform="translate(368.002 4844)">
      <path id="Path_52120" data-name="Path 52120" d="M20,50.621a17.9,17.9,0,0,0,8.381-2.067l4.6,7.91A7.939,7.939,0,1,0,43.844,45.607l-7.93-4.616A18.107,18.107,0,0,0,37.02,26.754a1,1,0,0,0-1.969.257C38.766,37.391,31.144,48.7,20,48.621a16.079,16.079,0,0,1-16-16c-.165-10.927,11.25-18.879,21.459-15.04a1,1,0,0,0,.681-1.88C14.661,11.383,1.814,20.329,2,32.622c-.2,9.672,8.327,18.2,18,18Zm12.727-5.273a17.739,17.739,0,0,0,2.162-2.64l7.947,4.627a5.939,5.939,0,1,1-8.122,8.123L30.1,47.522a18.193,18.193,0,0,0,2.633-2.174Z" fill="#191919"/>
      <path id="Path_52121" data-name="Path 52121" d="M24.787,22.712a1,1,0,0,0,.87-1.8A13.031,13.031,0,0,0,10.8,23.425C2.64,31.575,8.569,45.7,20,45.613c10.375.114,16.765-11.983,10.615-20.5a1,1,0,0,0-1.631,1.157A11,11,0,0,1,12.22,40.405C3.643,31.5,13.575,17.532,24.787,22.712Z" fill="#191919"/>
      <path id="Path_52122" data-name="Path 52122" d="M19.356,33.385a1,1,0,0,0,1.41-.118l8.506-10.055A3.944,3.944,0,0,0,33.53,22.7l5.609,4.078a2.99,2.99,0,1,0,5.513-.528L55,15.159v3.463a1,1,0,0,0,2,0v-6a1.038,1.038,0,0,0-1-1H50a1,1,0,0,0,0,2h3.7L43.2,24.873a3,3,0,0,0-2.89.278l-5.591-4.065a3.994,3.994,0,1,0-6.974.838l-8.5,10.052a1,1,0,0,0,.118,1.409ZM42,26.621a1,1,0,0,1,0,2A1,1,0,0,1,42,26.621Zm-11-9a2,2,0,1,1-2,2A2.008,2.008,0,0,1,31,17.621Z" fill="#191919"/>
      <path id="Path_52123" data-name="Path 52123" d="M56,3.621H19a6.007,6.007,0,0,0-6,6v3.94a1,1,0,0,0,2,0V9.621a4,4,0,0,1,4-4H56a4,4,0,0,1,4,4v30a4,4,0,0,1-4,4H45.942a1,1,0,0,0,0,2H56a6.007,6.007,0,0,0,6-6v-30a6.007,6.007,0,0,0-6-6Z" fill="#191919"/>
      <path id="Path_52124" data-name="Path 52124" d="M46,38.621a1,1,0,0,0,0,2H57a1,1,0,0,0,0-2Z" fill="#191919"/>
      <path id="Path_52125" data-name="Path 52125" d="M57,34.621H51a1,1,0,0,0,0,2h6A1,1,0,0,0,57,34.621Z" fill="#191919"/>
      <path id="Path_52126" data-name="Path 52126" d="M26,10.621a1,1,0,0,0,0-2H18a1,1,0,0,0,0,2h8Z" fill="#191919"/>
    </g>
  </g>
</svg>
