<svg xmlns="http://www.w3.org/2000/svg" width="94" height="94" viewBox="0 0 94 94">
  <g id="Group_34003" data-name="Group 34003" transform="translate(-353 -4829)">
    <circle id="Ellipse_17" data-name="Ellipse 17" cx="47" cy="47" r="47" transform="translate(353 4829)" fill="#d7ff35"/>
    <g id="Group_38769" data-name="Group 38769" transform="translate(374 4851.031)">
      <path id="Path_52116" data-name="Path 52116" d="M10.341,21.242H8.78a.78.78,0,1,0,0,1.561h1.561a2.341,2.341,0,1,0,0-4.682.78.78,0,0,1,0-1.561H11.9A.78.78,0,1,0,11.9,15H10.341a2.341,2.341,0,0,0,0,4.682.78.78,0,1,1,0,1.561Z" transform="translate(-1.099 -3.296)" fill="#191919"/>
      <path id="Path_52117" data-name="Path 52117" d="M39.659,41.612a14.042,14.042,0,0,0,1.6-12.642,13.589,13.589,0,0,0-.837-1.841l4-4v2.018a.78.78,0,1,0,1.561,0v-3.9a.78.78,0,0,0-.78-.78h-3.9a.78.78,0,1,0,0,1.561h2.018L31.946,33.4l-3.35-3.35a.78.78,0,0,0-1.1,0l-4.682,4.682a.78.78,0,1,0,1.1,1.1l4.13-4.13,3.35,3.35a.78.78,0,0,0,1.1,0l3.774-3.774a8.346,8.346,0,0,1,.271,1.276,7.9,7.9,0,0,1,.085,1.165,8.58,8.58,0,1,1-1.917-5.409.78.78,0,1,0,1.213-.981,10.144,10.144,0,1,0,2.265,6.389,9.391,9.391,0,0,0-.1-1.38,9.778,9.778,0,0,0-.588-2.291l1.774-1.774A11.9,11.9,0,0,1,39.8,29.5a12.553,12.553,0,1,1-2.308-3.923.781.781,0,0,0,1.184-1.017,14,14,0,0,0-10.626-4.875V18.121a3.121,3.121,0,0,0-6.242,0v1.561a3.115,3.115,0,0,0,.312,1.332,14.042,14.042,0,0,0-1.88,1.048c0-.014.008-.025.008-.039a.78.78,0,0,0-.78-.78H17.121V19.682h2.341a.78.78,0,1,0,0-1.561H17.121V16.56h2.341a.78.78,0,1,0,0-1.561H16.341a.78.78,0,0,0-.78.78v6.242a.78.78,0,0,0,.78.78h2.9A14.035,14.035,0,0,0,35.931,45.34l5.544,6.652a3.434,3.434,0,1,0,4.836-4.836l-6.652-5.544Zm-16.3-21.93V18.121a1.561,1.561,0,0,1,3.121,0v1.561c0,.032-.007.062-.009.093a13.912,13.912,0,0,0-2.913.653,1.557,1.557,0,0,1-.2-.746ZM44.11,51.672a1.865,1.865,0,0,1-1.436-.679l-5.508-6.609A14.155,14.155,0,0,0,38.7,42.847l6.609,5.508a1.874,1.874,0,0,1-1.2,3.317Z" transform="translate(-2.417 -3.296)" fill="#191919"/>
      <path id="Path_52118" data-name="Path 52118" d="M44.354,0H6.9A3.906,3.906,0,0,0,3,3.9V38.233a3.906,3.906,0,0,0,3.9,3.9h7.592a.78.78,0,0,0,0-1.561H6.9a2.343,2.343,0,0,1-2.341-2.341V9.363H46.695v28.87a2.343,2.343,0,0,1-2.341,2.341H43.316a.78.78,0,0,0,0,1.561h1.038a3.906,3.906,0,0,0,3.9-3.9V3.9A3.906,3.906,0,0,0,44.354,0ZM4.561,7.8V3.9A2.343,2.343,0,0,1,6.9,1.561H19.856A3.921,3.921,0,0,1,23.2,3.455L25.81,7.8Zm23.069,0L24.54,2.652a5.411,5.411,0,0,0-.866-1.091h20.68A2.343,2.343,0,0,1,46.695,3.9V7.8Z" fill="#191919"/>
      <circle id="Ellipse_61" data-name="Ellipse 61" cx="1" cy="1" r="1" transform="translate(5.628 2.969)" fill="#191919"/>
      <ellipse id="Ellipse_62" data-name="Ellipse 62" cx="0.5" cy="1" rx="0.5" ry="1" transform="translate(9.628 2.969)" fill="#191919"/>
      <ellipse id="Ellipse_63" data-name="Ellipse 63" cx="0.5" cy="1" rx="0.5" ry="1" transform="translate(12.628 2.969)" fill="#191919"/>
    </g>
  </g>
</svg>
