<svg xmlns="http://www.w3.org/2000/svg" width="94" height="94" viewBox="0 0 94 94">
  <g id="Group_34003" data-name="Group 34003" transform="translate(-353 -4829)">
    <circle id="Ellipse_17" data-name="Ellipse 17" cx="47" cy="47" r="47" transform="translate(353 4829)" fill="#d7ff35"/>
    <path id="Path_1188" data-name="Path 1188" d="M73.845,10.663,76.6,12.722a4.382,4.382,0,0,0,2.483.9l3.431.191A4.511,4.511,0,0,1,86.7,17.335l.784,3.346a4.381,4.381,0,0,0,1.321,2.288l2.506,2.352a4.511,4.511,0,0,1,.95,5.39l-1.55,3.067a4.381,4.381,0,0,0-.459,2.6l.408,3.412a4.511,4.511,0,0,1-2.737,4.74l-3.159,1.353a4.38,4.38,0,0,0-2.024,1.7l-1.881,2.876a4.511,4.511,0,0,1-5.143,1.872l-3.29-.994a4.381,4.381,0,0,0-2.642,0l-3.29.994a4.511,4.511,0,0,1-5.143-1.872l-1.881-2.876a4.38,4.38,0,0,0-2.024-1.7l-3.159-1.353a4.511,4.511,0,0,1-2.737-4.74l.408-3.412a4.381,4.381,0,0,0-.459-2.6l-1.55-3.067a4.511,4.511,0,0,1,.95-5.39l2.506-2.352a4.381,4.381,0,0,0,1.321-2.288l.784-3.346a4.511,4.511,0,0,1,4.193-3.518l3.431-.191a4.381,4.381,0,0,0,2.483-.9l2.751-2.059a4.511,4.511,0,0,1,5.473,0ZM69.354,32.314l-2.986-2.986a1.982,1.982,0,1,0-2.8,2.8l4.391,4.391a1.982,1.982,0,0,0,2.8,0c2.647-2.647,5.264-5.324,7.9-7.983a1.978,1.978,0,1,0-2.807-2.788ZM71.108,16.26a14.876,14.876,0,1,0,10.519,4.357A14.83,14.83,0,0,0,71.108,16.26ZM80.441,21.8a13.2,13.2,0,1,0,3.866,9.333A13.157,13.157,0,0,0,80.441,21.8ZM76.7,54.2l3.261,7a.315.315,0,0,0,.557.025l2.432-4.185,4.768.833a.315.315,0,0,0,.339-.443L84,48.725l-1.735,2.653A6.193,6.193,0,0,1,76.7,54.2ZM65.645,54.19a6.193,6.193,0,0,1-5.694-2.813l-1.664-2.544-4,8.6a.315.315,0,0,0,.339.443l4.768-.833,2.432,4.185a.315.315,0,0,0,.557-.025Z" transform="translate(328.55 4840.262)" fill="#191919" fill-rule="evenodd"/>
  </g>
</svg>
