<svg xmlns="http://www.w3.org/2000/svg" width="94" height="94" viewBox="0 0 94 94">
  <g id="Group_34003" data-name="Group 34003" transform="translate(-353 -4829)">
    <circle id="Ellipse_17" data-name="Ellipse 17" cx="47" cy="47" r="47" transform="translate(353 4829)" fill="#d7ff35"/>
    <path id="Path_1189" data-name="Path 1189" d="M56.079,37.5V29.168h3.288l1,2.59a13.283,13.283,0,0,1,3.9,1.616L66.8,32.247l2.986,2.986-1.123,2.535a13.263,13.263,0,0,1,1.616,3.9l2.586,1v4.224l-2.586,1a13.4,13.4,0,0,1-1.616,3.9l1.123,2.535L66.8,57.31l-2.535-1.123a13.237,13.237,0,0,1-3.9,1.616l-1,2.586H56.079V52.057a7.369,7.369,0,1,0,0-14.553Zm-1.629-19.69V61.043a2.816,2.816,0,0,1-2.814,2.814H29.123a2.815,2.815,0,0,1-2.814-2.814V17.814A2.815,2.815,0,0,1,29.123,15H51.637a2.816,2.816,0,0,1,2.814,2.814ZM34.809,24.2H50.574a.814.814,0,1,0,0-1.629H34.809a2.383,2.383,0,1,0,0,1.629ZM45.951,46.634H30.185a.814.814,0,0,0,0,1.629H45.951a2.383,2.383,0,1,0,0-1.629ZM34.809,40.243H50.574a.814.814,0,0,0,0-1.629H34.809a2.383,2.383,0,1,0,0,1.629Zm11.142-9.649H30.185a.814.814,0,1,0,0,1.629H45.951a2.383,2.383,0,1,0,0-1.629ZM34.809,56.283H50.574a.814.814,0,1,0,0-1.629H34.809a2.383,2.383,0,1,0,0,1.629Z" transform="translate(350.691 4837)" fill="#191919" fill-rule="evenodd"/>
  </g>
</svg>
