<svg xmlns="http://www.w3.org/2000/svg" width="109" height="109" viewBox="0 0 109 109">
  <g id="Group_21" data-name="Group 21" transform="translate(-1022 -1249)">
    <rect id="Rectangle_8" data-name="Rectangle 8" width="109" height="109" rx="8" transform="translate(1022 1249)" fill="#191919"/>
    <g id="Group_35178" data-name="Group 35178" transform="translate(1018.57 1267)">
      <path id="Path_2662" data-name="Path 2662" d="M84.921,9.528h-.869A6.263,6.263,0,0,0,73.5,2.782L68.987,9.528H30.21a5.787,5.787,0,0,0-5.78,5.78V52.264a5.787,5.787,0,0,0,5.78,5.78H52.663l-1.7,7.125H47.3A4.333,4.333,0,0,0,42.977,69.5v.9H38.464a1.431,1.431,0,0,0,0,2.862h38.2a1.431,1.431,0,0,0,0-2.862H72.154v-.9a4.333,4.333,0,0,0-4.328-4.328H64.165l-1.7-7.125H84.921a5.787,5.787,0,0,0,5.78-5.78V15.308a5.787,5.787,0,0,0-5.78-5.78Zm-20.5,25.155c-2.237,1.566-6.428-.563-10.431,1.573-.977-5.073-.361-9.844,4.722-10.9a9.108,9.108,0,0,1,1.966-.187l5.176,3.841c.751,2.185.469,4.338-1.434,5.671Zm1.442-15.337,4.05,3.005-3.115,3.8L63.13,23.427ZM75.879,4.374a3.4,3.4,0,1,1,5.456,4.048L71.728,20.135l-4.274-3.171ZM69.292,69.5v.9H45.839v-.9A1.468,1.468,0,0,1,47.3,68.032H67.826A1.468,1.468,0,0,1,69.292,69.5ZM61.223,65.17H53.908l1.7-7.125h3.922ZM87.84,52.264a2.922,2.922,0,0,1-2.919,2.919H30.21a2.922,2.922,0,0,1-2.919-2.919v-6.7h4.089a1.431,1.431,0,0,0,0-2.862H27.292V15.308a2.922,2.922,0,0,1,2.919-2.919H67.072l-6.637,9.918A9.777,9.777,0,0,0,53,25.449c-2.494,2.911-2.932,7.485-1.3,13.6a1.432,1.432,0,0,0,2.371.666c3.7-3.535,8.308.321,12.434-3.019a7.494,7.494,0,0,0,2.165-8.312l13.115-15.99h3.138a2.922,2.922,0,0,1,2.919,2.919V42.7H42.828a1.431,1.431,0,1,0,0,2.862H87.84Z" transform="translate(0 0)" fill="#d7ff35"/>
      <path id="Path_2663" data-name="Path 2663" d="M104.185,298.451a1.431,1.431,0,1,0,1.683,1.123,1.429,1.429,0,0,0-1.683-1.123Z" transform="translate(-67.358 -255.722)" fill="#d7ff35"/>
    </g>
  </g>
</svg>
