<svg xmlns="http://www.w3.org/2000/svg" width="109" height="109" viewBox="0 0 109 109">
  <g id="Group_21" data-name="Group 21" transform="translate(-1022 -1249)">
    <rect id="Rectangle_8" data-name="Rectangle 8" width="109" height="109" rx="8" transform="translate(1022 1249)" fill="#191919"/>
    <g id="Group_35179" data-name="Group 35179" transform="translate(1038.436 1265)">
      <path id="Path_2664" data-name="Path 2664" d="M51.48,14.8C48.106,8.121,43.282,4,37.838,4S27.57,8.122,24.2,14.8C8.3,13.692,1.64,25.208,10.556,38.427c-9.043,13.4-1.963,24.821,13.631,23.608,3.374,6.69,8.2,10.819,13.652,10.819S48.116,68.726,51.49,62.036c15.582,1.209,22.682-10.2,13.631-23.609C74.031,25.215,67.386,13.687,51.48,14.8Zm1.887,2.4c12.4-.188,16.872,8.615,10.218,19.062a49.033,49.033,0,0,0-7.951-8.107A49.063,49.063,0,0,0,52.6,17.232c.254-.007.521-.034.77-.034Zm2.748,14.626a44.139,44.139,0,0,1,6.013,6.6,44.137,44.137,0,0,1-6.013,6.6,66.2,66.2,0,0,0,0-13.2Zm-2.127,6.6a61.409,61.409,0,0,1-.648,8.948,61.4,61.4,0,0,1-7.426,5.037,61.293,61.293,0,0,1-8.073,3.905,61.327,61.327,0,0,1-8.074-3.905,61.4,61.4,0,0,1-7.426-5.037,62.066,62.066,0,0,1,0-17.9,61.2,61.2,0,0,1,15.5-8.929,61.2,61.2,0,0,1,15.5,8.929A61.405,61.405,0,0,1,53.987,38.427ZM52.695,25.9a66.163,66.163,0,0,0-11.412-6.591,44.07,44.07,0,0,1,8.708-1.9,44.154,44.154,0,0,1,2.7,8.495ZM37.838,6.459c4.246,0,8.111,3.265,11,8.587a49.042,49.042,0,0,0-11,2.833,49.049,49.049,0,0,0-11-2.832C29.727,9.725,33.592,6.459,37.838,6.459ZM25.687,17.408a44.072,44.072,0,0,1,8.707,1.9A65.778,65.778,0,0,0,22.982,25.9a44.162,44.162,0,0,1,2.7-8.494ZM10.153,22.443C12.185,18.925,16.628,17.2,22.31,17.2c.249,0,.516.027.77.034a49.064,49.064,0,0,0-3.037,10.921,49.046,49.046,0,0,0-7.951,8.106C8.926,31.1,8.031,26.12,10.153,22.443Zm9.41,22.586a44.135,44.135,0,0,1-6.013-6.6,44.138,44.138,0,0,1,6.013-6.6,66.2,66.2,0,0,0,0,13.2Zm-9.41,9.382c-2.123-3.677-1.228-8.657,1.939-13.818A49.049,49.049,0,0,0,20.043,48.7a49.064,49.064,0,0,0,3.038,10.923C17.039,59.781,12.273,58.084,10.153,54.412Zm12.829-3.459a65.316,65.316,0,0,0,11.452,6.6,43.967,43.967,0,0,1-8.746,1.9,44.149,44.149,0,0,1-2.706-8.5ZM37.838,70.4c-4.251,0-8.121-3.273-11.007-8.607a48.921,48.921,0,0,0,11.007-2.825,48.9,48.9,0,0,0,11.008,2.826C45.959,67.123,42.089,70.4,37.838,70.4ZM49.989,59.45a43.972,43.972,0,0,1-8.747-1.9,65.29,65.29,0,0,0,11.453-6.6,44.151,44.151,0,0,1-2.706,8.5Zm15.535-5.039C63.4,58.085,58.638,59.783,52.6,59.625A49.062,49.062,0,0,0,55.634,48.7a49.049,49.049,0,0,0,7.951-8.107C66.751,45.754,67.646,50.735,65.524,54.412Z" transform="translate(0)" fill="#d7ff35"/>
      <path id="Path_2665" data-name="Path 2665" d="M21,34.525A13.525,13.525,0,1,0,34.525,21,13.525,13.525,0,0,0,21,34.525ZM34.525,45.591a11,11,0,0,1-6.723-2.3A7.16,7.16,0,0,1,39.6,40.65a7.276,7.276,0,0,1,1.659,2.637,11,11,0,0,1-6.733,2.3ZM31.076,32.646a3.449,3.449,0,1,1,3.449,3.449,3.449,3.449,0,0,1-3.449-3.449Zm14.514,1.879a11.008,11.008,0,0,1-2.453,6.932A9.338,9.338,0,0,0,38.52,36.97a5.909,5.909,0,1,0-7.968.018,9.637,9.637,0,0,0-4.643,4.465,11.062,11.062,0,1,1,19.682-6.928Z" transform="translate(3.314 3.902)" fill="#d7ff35"/>
    </g>
  </g>
</svg>
