<svg xmlns="http://www.w3.org/2000/svg" width="109" height="109" viewBox="0 0 109 109">
  <g id="Group_21" data-name="Group 21" transform="translate(-1022 -1249)">
    <rect id="Rectangle_8" data-name="Rectangle 8" width="109" height="109" rx="8" transform="translate(1022 1249)" fill="#191919"/>
    <g id="Group_35180" data-name="Group 35180" transform="translate(1042 1252.317)">
      <path id="Path_2666" data-name="Path 2666" d="M60.8,54.845v-3.2a1.016,1.016,0,0,0-2.031,0v2.367a15.093,15.093,0,0,0-4.723-.755c-.118,0-.237,0-.357.005V39.021a1.016,1.016,0,0,0-1.016-1.016h-.4L56.226,33.8l3.957,4.207h-.4a1.016,1.016,0,0,0-1.016,1.016v8.657a1.016,1.016,0,1,0,2.031,0V40.036h1.736a1.022,1.022,0,0,0,.74-1.711L56.966,31.62a1.022,1.022,0,0,0-1.479,0l-6.307,6.705a1.022,1.022,0,0,0,.74,1.711h1.736v7.619a14.856,14.856,0,0,0-5.391-5.3V30.013H48a1.022,1.022,0,0,0,.74-1.711L42.432,21.6a1.022,1.022,0,0,0-1.479,0L34.646,28.3a1.022,1.022,0,0,0,.74,1.711h1.736V40.522a14.711,14.711,0,0,0-5.391,1.765V37.169h1.736a1.022,1.022,0,0,0,.74-1.712L27.9,28.753a1.022,1.022,0,0,0-1.479,0l-6.307,6.705a1.022,1.022,0,0,0,.74,1.712h1.736V51.1a13.088,13.088,0,0,0-5.391.521v-23.2h1.736a1.022,1.022,0,0,0,.74-1.711L13.365,20a1.022,1.022,0,0,0-1.479,0L5.578,26.7a1.022,1.022,0,0,0,.74,1.711H8.054v8.33a1.016,1.016,0,1,0,2.031,0V27.4A1.016,1.016,0,0,0,9.07,26.385h-.4l3.958-4.207,3.958,4.207h-.4A1.016,1.016,0,0,0,15.165,27.4v25.05a13.2,13.2,0,0,0-5.08,4.617V40.809a1.016,1.016,0,0,0-2.031,0V63.18c0,.046-.007.092-.01.138a10.239,10.239,0,0,0,2.2,20.239H41.47a1.016,1.016,0,1,0,0-2.031H10.239A8.207,8.207,0,0,1,9.168,65.183a1.016,1.016,0,0,0,.884-1.011c0-.018,0-.036,0-.058a11.08,11.08,0,0,1,15-10.353,1.022,1.022,0,0,0,1.36-.777A12.729,12.729,0,0,1,51.657,54.4c.1,1.263,1.525.882,2.386.888a13.121,13.121,0,0,1,0,26.242H45.532a1.016,1.016,0,1,0,0,2.031h8.51A15.151,15.151,0,0,0,60.8,54.845Zm-19.1-31.071,3.958,4.207h-.4A1.016,1.016,0,0,0,44.233,29V41.386a14.687,14.687,0,0,0-5.08-.975V29a1.016,1.016,0,0,0-1.016-1.016h-.4ZM24.654,51.495l-.035-.009V36.153A1.016,1.016,0,0,0,23.6,35.138h-.4l3.958-4.207,3.958,4.207h-.4A1.016,1.016,0,0,0,29.7,36.153v7.5A14.694,14.694,0,0,0,24.654,51.495Z" fill="#d7ff35"/>
      <path id="Path_2667" data-name="Path 2667" d="M246.245,327.992a1.016,1.016,0,0,0,0-2.031H241.49a1.016,1.016,0,0,0-1.016,1.016v11.287a1.016,1.016,0,0,0,1.016,1.016h4.756a1.016,1.016,0,1,0,0-2.031h-3.74v-3.612h3.389a1.016,1.016,0,0,0,0-2.031h-3.389v-3.612h3.74Z" transform="translate(-207.975 -264.886)" fill="#d7ff35"/>
      <path id="Path_2668" data-name="Path 2668" d="M162.2,336.966a4.379,4.379,0,0,1-3.217-1.355,1.016,1.016,0,1,0-1.505,1.364A6.44,6.44,0,0,0,162.2,339a4.346,4.346,0,0,0,4.391-3.306c.388-2.174-1.321-3.63-3.051-4.268-1.466-.541-2.826-1.131-3.169-1.282a1.188,1.188,0,0,1-.474-1.154,1.577,1.577,0,0,1,1.192-1.246,4.207,4.207,0,0,1,3.511.8,1.016,1.016,0,0,0,1.3-1.558,6.208,6.208,0,0,0-5.4-1.187,3.6,3.6,0,0,0-2.617,2.9,3.216,3.216,0,0,0,1.434,3.184,1,1,0,0,0,.141.077c.065.029,1.622.722,3.376,1.369,1.259.464,1.9,1.2,1.754,2.006A2.3,2.3,0,0,1,162.2,336.966Z" transform="translate(-135.967 -264.552)" fill="#d7ff35"/>
      <path id="Path_2669" data-name="Path 2669" d="M311.513,332.288A6.711,6.711,0,1,0,304.8,339,6.718,6.718,0,0,0,311.513,332.288Zm-11.391,0a4.68,4.68,0,1,1,4.68,4.68A4.685,4.685,0,0,1,300.122,332.288Z" transform="translate(-257.805 -264.554)" fill="#d7ff35"/>
    </g>
  </g>
</svg>
