<svg xmlns="http://www.w3.org/2000/svg" width="43.343" height="37.584" viewBox="0 0 43.343 37.584">
  <g id="Layer_x0020_1" transform="translate(0 -2.883)">
    <path id="Path_51664" data-name="Path 51664" d="M18.792,40.467A18.792,18.792,0,1,1,31.481,7.795a34.152,34.152,0,0,0-3.344,2.26,14.887,14.887,0,1,0,3.956,4.816q1.118-1.039,2.3-2.014.349-.288.7-.57a18.823,18.823,0,0,1-16.3,28.179Z" fill="#d7ff00" fill-rule="evenodd"/>
    <path id="Path_51665" data-name="Path 51665" d="M19.286,31.335a.5.5,0,0,1-.458-.317c-.035-.07-3.067-7.9-7.757-10.859-.917-.564-1.622-1.163-1.34-2.5.282-1.3,1.163-2.045,2.75-2.4,2.821-.6,5.853,3.773,6.981,5.571C23.411,15.081,31.308,6.056,42.8,5a.519.519,0,0,1,.247.987c-.176.07-16.606,7.58-23.27,25.068a.563.563,0,0,1-.493.282Z" fill="#d7ff00" fill-rule="evenodd"/>
  </g>
</svg>
