<svg id="Group_34947" data-name="Group 34947" xmlns="http://www.w3.org/2000/svg" xmlns:xlink="http://www.w3.org/1999/xlink" width="761.063" height="499.612" viewBox="0 0 761.063 499.612">
  <defs>
    <clipPath id="clip-path">
      <rect id="Rectangle_1795" data-name="Rectangle 1795" width="761.063" height="499.612" fill="none"/>
    </clipPath>
    <clipPath id="clip-path-2">
      <rect id="Rectangle_1778" data-name="Rectangle 1778" width="761.062" height="499.612" fill="none"/>
    </clipPath>
    <clipPath id="clip-path-3">
      <path id="Path_2303" data-name="Path 2303" d="M-666.662-360h0Z" transform="translate(666.662 360)" fill="none"/>
    </clipPath>
    <clipPath id="clip-path-4">
      <path id="Path_2304" data-name="Path 2304" d="M-666.662,2760h0Z" transform="translate(666.662 -2760)" fill="none"/>
    </clipPath>
    <clipPath id="clip-path-5">
      <rect id="Rectangle_1776" data-name="Rectangle 1776" width="47.816" height="70.858" fill="none"/>
    </clipPath>
    <clipPath id="clip-path-6">
      <rect id="Rectangle_1777" data-name="Rectangle 1777" width="39.425" height="64.975" fill="none"/>
    </clipPath>
    <clipPath id="clip-path-7">
      <path id="Path_2404" data-name="Path 2404" d="M690.075,651.461a3.074,3.074,0,0,0,.459-.046l-.51-.254a1.463,1.463,0,0,0,.051.3" transform="translate(-690.024 -651.16)" fill="none"/>
    </clipPath>
    <clipPath id="clip-path-9">
      <rect id="Rectangle_1779" data-name="Rectangle 1779" width="20.488" height="48.156" fill="none"/>
    </clipPath>
    <clipPath id="clip-path-10">
      <rect id="Rectangle_1780" data-name="Rectangle 1780" width="50.89" height="70.054" fill="none"/>
    </clipPath>
    <clipPath id="clip-path-11">
      <rect id="Rectangle_1781" data-name="Rectangle 1781" width="6.784" height="3.156" fill="none"/>
    </clipPath>
    <clipPath id="clip-path-12">
      <rect id="Rectangle_1782" data-name="Rectangle 1782" width="1.808" height="2.781" fill="none"/>
    </clipPath>
    <clipPath id="clip-path-13">
      <rect id="Rectangle_1786" data-name="Rectangle 1786" width="134.179" height="96.021" fill="none"/>
    </clipPath>
    <clipPath id="clip-path-14">
      <rect id="Rectangle_1787" data-name="Rectangle 1787" width="121.982" height="87.295" fill="none"/>
    </clipPath>
    <clipPath id="clip-path-15">
      <rect id="Rectangle_1789" data-name="Rectangle 1789" width="10.588" height="5.007" fill="none"/>
    </clipPath>
  </defs>
  <g id="Group_34946" data-name="Group 34946" clip-path="url(#clip-path)">
    <g id="Group_34920" data-name="Group 34920">
      <g id="Group_34919" data-name="Group 34919" clip-path="url(#clip-path-2)">
        <g id="Group_34909" data-name="Group 34909" transform="translate(-138.78 -74.942)" opacity="0">
          <g id="Group_34908" data-name="Group 34908">
            <g id="Group_34907" data-name="Group 34907" clip-path="url(#clip-path-3)">
              <line id="Line_17" data-name="Line 17" x2="974.243" fill="#fff"/>
            </g>
          </g>
        </g>
        <g id="Group_34912" data-name="Group 34912" transform="translate(-138.78 574.554)" opacity="0">
          <g id="Group_34911" data-name="Group 34911">
            <g id="Group_34910" data-name="Group 34910" clip-path="url(#clip-path-4)">
              <line id="Line_18" data-name="Line 18" x1="974.243" transform="translate(0)" fill="#fff"/>
            </g>
          </g>
        </g>
        <path id="Path_2305" data-name="Path 2305" d="M2134.007,1967.9,2061.586,1969a9.184,9.184,0,0,1-9.321-9.045l-.653-43.374a9.184,9.184,0,0,1,9.045-9.321l72.421-1.091a9.184,9.184,0,0,1,9.321,9.045l.654,43.374a9.184,9.184,0,0,1-9.045,9.321" transform="translate(-1624.524 -1509.355)" fill="#9a60a6"/>
        <path id="Path_2306" data-name="Path 2306" d="M2217.711,1973.583a20.664,20.664,0,1,0-22.2,20.945,8.253,8.253,0,0,0,3.308-.02,20.687,20.687,0,0,0,18.895-20.925m-7.833-.8a30.389,30.389,0,0,0-1.816-9.186,30.275,30.275,0,0,0,3.078-2.092,18.709,18.709,0,0,1,4.666,11.179Zm-12.2-17.333c3.081.46,5.828,3.1,7.69,7.012a19.717,19.717,0,0,1-7.539,2.129Zm-1.714,9.173a19.361,19.361,0,0,1-4.673-.747,21.371,21.371,0,0,1-3.182-1.2c1.785-4.052,4.539-6.794,7.7-7.235Zm-5.4,1.437a21.374,21.374,0,0,0,5.441.85l.1,6.1-10.133.168a28.723,28.723,0,0,1,1.321-8.341,23.836,23.836,0,0,0,3.27,1.221m5.573,8.817.1,6.1a21.4,21.4,0,0,0-5.41,1.029,23.9,23.9,0,0,0-3.27,1.349,28.832,28.832,0,0,1-1.558-8.313Zm-4.507,9.291a19.34,19.34,0,0,1,4.646-.9l.155,9.325c-3.208-.34-6.076-3.037-8-7.093a21.389,21.389,0,0,1,3.194-1.329m6.511-.932a19.729,19.729,0,0,1,7.661,1.9c-1.73,4.036-4.411,6.816-7.506,7.384Zm-.038-2.278-.1-6.111,9.856-.164a28.87,28.87,0,0,1-1.264,8.306,22.2,22.2,0,0,0-8.491-2.032m-.133-7.976-.1-6.109a22.2,22.2,0,0,0,8.377-2.291,28.737,28.737,0,0,1,1.577,8.237Zm9.184-11.511a21.211,21.211,0,0,0-1.137-2.054,16.459,16.459,0,0,0-2.545-3.151,18.829,18.829,0,0,1,6.034,3.6,28.342,28.342,0,0,1-2.352,1.608m-19.823-1.744a21.246,21.246,0,0,0-1.03,2.007,22.89,22.89,0,0,1-2.177-1.434,18.84,18.84,0,0,1,5.476-3.623,16.666,16.666,0,0,0-2.269,3.051m-1.884,4.175a30.357,30.357,0,0,0-1.534,9.314l-5.647.094a18.709,18.709,0,0,1,4.28-11.313,24.606,24.606,0,0,0,2.9,1.905m-1.505,11.179a30.478,30.478,0,0,0,1.8,9.283,24.621,24.621,0,0,0-2.795,1.975,18.707,18.707,0,0,1-4.654-11.165Zm2.717,11.429a21.292,21.292,0,0,0,1.152,2.083,16.911,16.911,0,0,0,2.128,2.734,18.854,18.854,0,0,1-5.355-3.344,22.8,22.8,0,0,1,2.076-1.473m19.837,1.774a21.48,21.48,0,0,0,1.121-2.205q1.178.67,2.349,1.5a18.835,18.835,0,0,1-5.686,3.7,16.69,16.69,0,0,0,2.216-2.994m1.948-4.368a30.516,30.516,0,0,0,1.47-9.266l5.926-.1a18.712,18.712,0,0,1-4.295,11.33,30.348,30.348,0,0,0-3.1-1.966" transform="translate(-1723.324 -1546.648)" fill="#fff"/>
        <path id="Path_2307" data-name="Path 2307" d="M225.438,478.572c-17.092,58.328,26.954,116.66,87.735,116.66H817.35a153.282,153.282,0,0,0,11.03-35.569c6.406-35.26-3.863-65.338-6.425-99.912-2.425-32.733,8.077-60.262,13.9-91.438,5.185-27.746,3.457-59.173-3.052-86.442-8.886-37.231-29.352-71.705-58.838-92.722C728.025,156.4,666.751,160.257,616,182.783c-21.257,9.435-41.845,21.99-64.61,25.165-33.2,4.631-65.52-11.213-97.864-20.718-44.028-12.939-92.361-13.9-133.9,6.523-47.1,23.155-80.59,75.424-76.678,132.993,1.773,26.086,10.843,51.829,7.632,77.742-3.256,26.283-17.36,48.27-24.826,73.023" transform="translate(-175.566 -130.832)" fill="#f2fec1"/>
        <path id="Path_2308" data-name="Path 2308" d="M226.078,2044.992c1.318,4.126,11.59,7.4,22.57,6.543,9.849-.488,28.392-5.922,31.276-9.929,3.022,1.787,6.074,3.545,9.188,5.241q1.047-1.508,2.083-3.027c-1.622-.857-3.21-1.75-4.808-2.633a2.105,2.105,0,0,0,.68.143c4.6-.2,3.352-20.747,1.9-29.74-1.646-9.021-5.891-16.146-10.035-16.111s-6.924,7.287-5.69,16.405c.851,7.955,7.036,24.649,11.851,28.6a308.138,308.138,0,0,1-50.213-35.089" transform="translate(-179.015 -1580.077)" fill="#016045"/>
        <path id="Path_2309" data-name="Path 2309" d="M217.866,2142.216c9.164.227,26.8-3.492,29.807-7.033q9.411,6.932,19.507,13.27c-8.432-1.19-22.8-1.053-30.4-.853" transform="translate(-172.512 -1690.699)" fill="#016045"/>
        <path id="Path_2310" data-name="Path 2310" d="M212.153,2052.555q7.773,6.838,16.138,13.247c-7.662-1.772-21.156-2.708-28.287-3.038" transform="translate(-158.368 -1625.271)" fill="#016045"/>
        <path id="Path_2311" data-name="Path 2311" d="M353.967,1970.528c4.268.166,4.975-19.216,4.422-27.765-.73-8.6-4.059-15.613-7.922-15.89-3.849-.272-7.056,6.326-6.69,14.98.128,8.608,5.665,28.472,10.19,28.676" transform="translate(-272.19 -1525.746)" fill="#016045"/>
        <path id="Path_2312" data-name="Path 2312" d="M147.331,1321.685s44.905,35.1,56.794,88.155-13.74,103.962-13.74,103.962-44.905-35.1-56.794-88.155" transform="translate(-105.781 -1046.548)" fill="#45dbad"/>
        <path id="Path_2313" data-name="Path 2313" d="M272.76,1621.242c3.472,14.332,6.684,28.723,10.03,43.083,3.094,14.417,6.342,28.8,9.311,43.245l4.4,21.679c1.356,7.251,2.817,14.479,4.079,21.752-1.962-7.115-3.726-14.276-5.594-21.412L289.72,1708.1c-3.48-14.33-6.681-28.723-10.036-43.081" transform="translate(-215.979 -1283.745)" fill="#1fa47c"/>
        <path id="Path_2314" data-name="Path 2314" d="M283.42,2021.586c2.96.338,5.873.875,8.785,1.417,2.907.562,5.8,1.2,8.671,1.9l-.716.189a151.352,151.352,0,0,1,11.819-9.906,151.079,151.079,0,0,1-10.749,11.058l-.3.285-.416-.1c-2.883-.664-5.752-1.384-8.6-2.182-2.846-.818-5.692-1.642-8.49-2.665" transform="translate(-224.42 -1595.682)" fill="#1fa47c"/>
        <path id="Path_2315" data-name="Path 2315" d="M286.487,1590.264c2.7-2.289,5.448-4.535,8.325-6.638-2.309,2.715-4.751,5.286-7.234,7.813-2.448,2.565-5.015,5-7.587,7.433" transform="translate(-221.705 -1253.96)" fill="#1fa47c"/>
        <path id="Path_2316" data-name="Path 2316" d="M285.048,1890.613c4.008.775,7.991,1.658,11.955,2.618l-.987.26c2.614-2.386,5.233-4.766,7.971-7.019,2.7-2.289,5.447-4.536,8.325-6.638-2.309,2.714-4.751,5.285-7.233,7.813-2.448,2.564-5.015,5-7.587,7.433l-.416.393-.572-.132c-3.975-.915-7.932-1.909-11.863-3.009" transform="translate(-225.388 -1488.507)" fill="#1fa47c"/>
        <path id="Path_2317" data-name="Path 2317" d="M253.748,1735.907a256.84,256.84,0,0,1,20.773-17.409,256.741,256.741,0,0,1-18.892,19.435l-.53.5-.729-.167q-7.6-1.745-15.124-3.828" transform="translate(-189.443 -1360.756)" fill="#1fa47c"/>
        <path id="Path_2318" data-name="Path 2318" d="M241.753,1784.46q7.658,1.506,15.238,3.346l-1.258.332" transform="translate(-191.427 -1412.986)" fill="#1fa47c"/>
        <path id="Path_2319" data-name="Path 2319" d="M65.486,1956.729c29.305,23.561,37.4,62.143,37.4,62.143s-39.42.381-68.725-23.18" transform="translate(-27.049 -1549.394)" fill="#1fa47c"/>
        <path id="Path_2320" data-name="Path 2320" d="M306.086,2207.193c3.86,3.336,7.766,6.615,11.585,10-4.129-3-8.171-6.113-12.258-9.167" transform="translate(-241.835 -1747.718)" fill="#016045"/>
        <path id="Path_2321" data-name="Path 2321" d="M480.428,1768.935c-27.6,32.508-71.592,40.51-71.592,40.51s.768-44.7,28.372-77.211,71.593-40.51,71.593-40.51-.768,44.7-28.373,77.211" transform="translate(-323.728 -1339.555)" fill="#016045"/>
        <path id="Path_2322" data-name="Path 2322" d="M408.836,1854.808c3.529-4.59,7.179-9.077,10.765-13.618l10.965-13.45c7.329-8.949,14.83-17.753,22.237-26.637,7.561-8.753,15.04-17.576,22.678-26.263l11.5-13c3.9-4.274,7.737-8.6,11.7-12.828-3.527,4.592-7.178,9.078-10.763,13.621l-10.964,13.45c-7.334,8.945-14.828,17.755-22.24,26.634-7.566,8.749-15.038,17.577-22.682,26.26l-11.5,13c-3.9,4.275-7.736,8.6-11.694,12.83" transform="translate(-323.728 -1384.919)" fill="#1fa47c"/>
        <path id="Path_2323" data-name="Path 2323" d="M757.952,1753.292c1.187,2.013,2.227,4.091,3.263,6.17s1.985,4.2,2.907,6.327l-.456-.359a118.567,118.567,0,0,1,11.786,2.723,118.59,118.59,0,0,1-12-1.508l-.32-.054-.137-.306q-1.42-3.179-2.7-6.419c-.833-2.169-1.661-4.339-2.342-6.575" transform="translate(-600.168 -1388.306)" fill="#1fa47c"/>
        <path id="Path_2324" data-name="Path 2324" d="M475.115,2086.363c1.187,2.013,2.227,4.091,3.263,6.171,1.021,2.086,1.984,4.2,2.907,6.327l-.457-.359a118.457,118.457,0,0,1,11.787,2.722,118.515,118.515,0,0,1-12-1.508l-.321-.054-.136-.305c-.946-2.119-1.851-4.257-2.7-6.419-.832-2.169-1.661-4.34-2.342-6.575" transform="translate(-376.21 -1652.042)" fill="#1fa47c"/>
        <path id="Path_2325" data-name="Path 2325" d="M680.719,1811.971c1.637,2.776,3.07,5.641,4.5,8.508,1.408,2.876,2.737,5.787,4.009,8.723l-.63-.495c2.729.51,5.457,1.026,8.161,1.676,2.711.612,5.414,1.269,8.09,2.077-2.791-.163-5.555-.478-8.31-.839-2.763-.321-5.5-.778-8.239-1.24l-.442-.075-.188-.42c-1.3-2.922-2.552-5.868-3.72-8.85-1.148-2.99-2.291-5.984-3.23-9.066" transform="translate(-539.013 -1434.77)" fill="#1fa47c"/>
        <path id="Path_2326" data-name="Path 2326" d="M526.593,1993.474c1.637,2.775,3.071,5.64,4.5,8.508,1.408,2.876,2.737,5.787,4.008,8.723l-.63-.495c2.729.51,5.457,1.025,8.161,1.676,2.711.612,5.414,1.268,8.09,2.077-2.79-.164-5.554-.478-8.31-.839-2.763-.322-5.5-.777-8.239-1.239l-.442-.075-.188-.42q-1.958-4.383-3.72-8.85c-1.148-2.991-2.29-5.984-3.23-9.066" transform="translate(-416.971 -1578.49)" fill="#1fa47c"/>
        <path id="Path_2327" data-name="Path 2327" d="M591.59,1884.664c1.059,1.762,1.99,3.58,2.98,5.373q1.421,2.716,2.761,5.469,2.674,5.507,5.1,11.123l-.8-.631a201.489,201.489,0,0,1,20.716,4.784,201.421,201.421,0,0,1-21.1-2.649l-.564-.1-.239-.536q-2.5-5.585-4.748-11.279-1.121-2.848-2.165-5.732c-.653-1.94-1.364-3.856-1.946-5.827" transform="translate(-468.438 -1492.33)" fill="#1fa47c"/>
        <path id="Path_2328" data-name="Path 2328" d="M2981.427,1215.376c.409,2.394-3.511,5.949-8.72,7.667-5.066,1.769-16.332,3.071-17.271,1-.141.478-.3.955-.441,1.434a1.875,1.875,0,0,1-.294.957q-3.4,11.17-7.731,22.187c2.884-3.131,11.386-8.276,15.78-10.6,5.5-2.76,10.575-3.312,11.349-.887s-3.155,6.887-8.781,9.626c-5.423,2.776-17.76,5.966-19.176,3.97-.072.178-.139.357-.211.536a4.453,4.453,0,0,1-.736,1.8q-4.229,10.257-9.268,20.315c3.167-3.152,13.3-8.244,18.427-10.493,6.223-2.557,11.776-2.758,12.389-.04.615,2.7-4.076,7.273-10.451,9.8-6.3,2.65-20.538,5.116-21.293,2.529q-6.164,12.072-13.506,23.758c1.488-3.09,15.1-9.561,21.517-12.246,6.887-2.686,12.976-2.875,13.582.038s-4.658,7.8-11.737,10.462c-7.09,2.852-23.173,5.34-23.5,2.346a1.057,1.057,0,0,1,.113-.563q-6.678,10.6-14.317,20.816c-.016.021-.032.041-.047.062,5.453-2.52,16.488-5.134,22.256-6.242,7.742-1.282,14.013-.013,13.865,3.335s-6.786,7.391-14.7,8.555c-7.092,1.207-21.37.394-24.145-2.12q-7.337,9.483-15.524,18.532c5.9-2.691,18.3-5.507,24.712-6.734,8.477-1.382,15.34-.114,15.18,3.417-.156,3.513-7.465,7.873-16.171,9.153-8.08,1.389-24.6.392-26.744-2.522q-6.737,7.227-14.039,14.11c6.7-1.031,19.831-.142,26.492.619,8.7,1.234,14.751,4.915,13.183,8.728-1.559,3.795-10.233,6.057-19.026,4.55-7.618-1.126-21.52-6.681-24.3-10.484q-2.7,2.477-5.473,4.911-7.8,6.806-16.191,13.182c7.669-1.741,21.167-2.622,28.3-2.924,9.957-.123,17.521,2.427,16.615,6.4-.894,3.951-10.154,7.674-20.39,7.612-9.165.19-26.79-3.6-29.778-7.154q-9.439,6.894-19.561,13.191c8.436-1.156,22.8-.961,30.4-.73,10.669.664,18.522,3.942,17.173,8.083-1.335,4.12-11.62,7.352-22.6,6.452-9.847-.527-28.368-6.037-31.236-10.055-3.029,1.775-6.088,3.521-9.209,5.2q-1.041-1.512-2.071-3.035c1.625-.851,3.218-1.737,4.819-2.614a2.1,2.1,0,0,1-.68.14c-4.6-.22-3.269-20.76-1.782-29.747,1.683-9.014,5.956-16.123,10.1-16.07s6.894,7.315,5.623,16.428c-.883,7.952-7.135,24.62-11.967,28.548a308.128,308.128,0,0,0,50.355-34.886q11.777-10.025,22.271-20.945c-3.85-2.884-9.383-14.084-11.352-19.9-2.327-7.078-1.833-13.736,1.266-15.066s7.89,3.076,10.537,10.03c1.947,4.884,3.8,14.865,3.432,20.838q9.913-10.646,18.648-21.953c4.018-5.213,7.819-10.528,11.449-15.916-3.24-1.492-8.81-12.354-10.833-17.757-2.219-6.147-2.044-11.969.574-13.215s6.847,2.509,9.273,8.591c1.844,4.377,3.695,13.552,3.417,18.758q6.561-10.043,12.229-20.431c-2.871-.415-8.771-11.193-10.916-16.4-2.228-5.648-2.253-11.041.122-12.26s6.374,2.171,8.775,7.765c1.872,4.152,3.9,13.066,3.667,17.811q5.872-11.047,10.752-22.392c-2.469-1.535-6.126-11.748-7.4-16.649-1.335-5.538-.734-10.557,1.558-11.422s5.48,2.805,6.932,8.376a53.626,53.626,0,0,1,1.362,13.8q4.128-10.207,7.445-20.58c-2.611-.417-8.865-7.956-11.368-11.8-2.731-4.309-3.576-8.754-1.788-10.1s5.611.871,8.455,5.124a44.537,44.537,0,0,1,5.734,13.563c1.286-4.183,2.458-8.384,3.547-12.594-1.725-1.661-3.754-9.764-4.364-13.657-.632-4.467.2-8.4,2.015-8.9s3.936,2.7,4.609,7.244a35.355,35.355,0,0,1,.346,5.136c1-2.509,2.151-5.018,3.005-6.674,2.268-4.226,5.294-7.074,6.9-6.246s1.138,5.115-1.187,9.458c-1.888,3.662-6.9,10.228-9.43,11.739-.3,1.247-.7,2.09-1.205,2.2a.554.554,0,0,1-.195-.026q-1.433,5.831-3.109,11.638c2.074-2.51,11.14-6.686,15.6-8.352,5.131-1.8,9.64-1.532,10.048.868" transform="translate(-2220.395 -940.464)" fill="#a0c426"/>
        <path id="Path_2329" data-name="Path 2329" d="M3230.435,1708.225c-3.248.7-6.993-14.916-7.962-21.911-.846-7.058.651-13.208,3.665-13.966s6.572,4.168,7.637,11.24c1.225,7.007.092,23.869-3.34,24.638" transform="translate(-2551.46 -1324.152)" fill="#a0c426"/>
        <path id="Path_2330" data-name="Path 2330" d="M3041.832,1891.291c-3.928.464-6.263-17.606-6.464-25.649-.046-8.1,2.476-14.905,6.047-15.438s7.068,5.432,7.442,13.545c.568,8.066-2.868,27.022-7.024,27.543" transform="translate(-2403.49 -1465.018)" fill="#016045"/>
        <path id="Path_2331" data-name="Path 2331" d="M2933.44,1969.623c-4.269.148-4.9-19.236-4.31-27.783.765-8.6,4.122-15.6,7.986-15.858s7.031,6.354,6.63,15.007c-.163,8.607-5.78,28.449-10.306,28.634" transform="translate(-2319.22 -1525.042)" fill="#016045"/>
        <path id="Path_2332" data-name="Path 2332" d="M2860.118,1409.435c-12.1,53,13.32,104.017,13.32,104.017s45.047-34.922,57.15-87.925-13.32-104.017-13.32-104.017-45.047,34.922-57.15,87.925" transform="translate(-2262.136 -1046.409)" fill="#d7ff35"/>
        <path id="Path_2333" data-name="Path 2333" d="M2936.531,1587.418c1.991-7.107,3.783-14.26,5.681-21.389l5.356-21.464c3.538-14.316,6.8-28.7,10.209-43.041,3.161-14.4,6.456-28.774,9.491-43.206l4.49-21.661c1.384-7.247,2.874-14.468,4.163-21.736-1.993,7.107-3.786,14.26-5.685,21.388l-5.357,21.464c-3.53,14.318-6.8,28.7-10.2,43.042-3.153,14.4-6.458,28.774-9.485,43.207l-4.491,21.661c-1.385,7.245-2.875,14.467-4.167,21.735" transform="translate(-2325.229 -1120.375)" fill="#bcdf2e"/>
        <path id="Path_2334" data-name="Path 2334" d="M3075.805,1477.559c-2.961.325-5.877.851-8.79,1.381-2.909.551-5.8,1.179-8.678,1.864l.715.192a151.06,151.06,0,0,0-11.78-9.953,151.26,151.26,0,0,0,10.7,11.1l.3.286.416-.094c2.886-.652,5.758-1.361,8.613-2.147,2.85-.807,5.7-1.618,8.5-2.63" transform="translate(-2412.917 -1164.814)" fill="#bcdf2e"/>
        <path id="Path_2335" data-name="Path 2335" d="M2951.8,2020.628c-2.962.326-5.876.851-8.791,1.382-2.909.55-5.8,1.179-8.678,1.864l.715.192a151.178,151.178,0,0,0-11.78-9.953,151.2,151.2,0,0,0,10.7,11.1l.3.286.416-.094c2.885-.652,5.758-1.361,8.613-2.147,2.849-.807,5.7-1.619,8.5-2.63" transform="translate(-2314.721 -1594.831)" fill="#bcdf2e"/>
        <path id="Path_2336" data-name="Path 2336" d="M3033.772,1591.819c-4.083.449-8.1,1.174-12.12,1.9-4.011.759-8,1.626-11.966,2.57l.986.264c-2.6-2.4-5.214-4.787-7.943-7.051-2.695-2.3-5.429-4.557-8.3-6.671,2.3,2.724,4.73,5.3,7.2,7.843,2.438,2.575,4.995,5.022,7.557,7.464l.414.394.573-.129c3.979-.9,7.939-1.876,11.875-2.961,3.929-1.112,7.857-2.231,11.721-3.626" transform="translate(-2371.075 -1253.334)" fill="#bcdf2e"/>
        <path id="Path_2337" data-name="Path 2337" d="M2966.2,1887.758c-4.083.449-8.1,1.173-12.12,1.905-4.011.759-8,1.626-11.966,2.57l.986.264c-2.6-2.4-5.214-4.787-7.943-7.051-2.695-2.3-5.429-4.558-8.3-6.671,2.3,2.724,4.73,5.3,7.2,7.843,2.438,2.574,4.995,5.022,7.557,7.463l.414.394.573-.129c3.979-.9,7.939-1.877,11.875-2.961,3.929-1.113,7.857-2.231,11.721-3.627" transform="translate(-2317.567 -1487.667)" fill="#bcdf2e"/>
        <path id="Path_2338" data-name="Path 2338" d="M2986.524,1728.925c-2.607.264-5.175.7-7.76,1.062q-3.859.623-7.691,1.358-7.664,1.475-15.251,3.284l1.256.337a256.869,256.869,0,0,0-20.7-17.493,256.768,256.768,0,0,0,18.813,19.511l.528.5.73-.164q7.608-1.715,15.139-3.767,3.764-1.031,7.5-2.167c2.479-.815,4.977-1.553,7.435-2.463" transform="translate(-2325.105 -1359.944)" fill="#bcdf2e"/>
        <path id="Path_2339" data-name="Path 2339" d="M3016.258,1869.491c-29.4,23.443-37.65,61.991-37.65,61.991s39.417.541,68.818-22.9,37.65-61.991,37.65-61.991-39.418-.541-68.818,22.9" transform="translate(-2358.546 -1462.181)" fill="#a0c426"/>
        <path id="Path_2340" data-name="Path 2340" d="M2978.607,1964.2c4.141-2.985,8.2-6.08,12.295-9.117l12.152-9.3c8.086-6.216,16.05-12.586,24.08-18.872,7.92-6.425,15.9-12.776,23.763-19.271l11.769-9.777c3.873-3.322,7.793-6.585,11.624-9.959-4.143,2.984-8.2,6.078-12.3,9.114l-12.152,9.3c-8.083,6.22-16.051,12.585-24.078,18.875-7.917,6.43-15.9,12.775-23.76,19.274l-11.769,9.776c-3.873,3.321-7.793,6.583-11.625,9.956" transform="translate(-2358.546 -1494.899)" fill="#d7ff35"/>
        <path id="Path_2341" data-name="Path 2341" d="M3384.221,1900.243c-1.741-1.1-3.544-2.074-5.349-3.043s-3.645-1.864-5.5-2.734l.3.412a104.533,104.533,0,0,0-2.078-10.462,104.615,104.615,0,0,0,1,10.619l.039.284.266.128q2.762,1.338,5.583,2.553c1.889.793,3.779,1.582,5.73,2.243" transform="translate(-2669.729 -1492.134)" fill="#d7ff35"/>
        <path id="Path_2342" data-name="Path 2342" d="M3082.986,2140.435c-1.742-1.1-3.545-2.074-5.35-3.043s-3.645-1.864-5.5-2.734l.3.412a104.616,104.616,0,0,0-2.078-10.462,104.692,104.692,0,0,0,1,10.619l.039.284.265.128c1.842.892,3.7,1.747,5.583,2.553s3.779,1.582,5.731,2.243" transform="translate(-2431.203 -1682.325)" fill="#d7ff35"/>
        <path id="Path_2343" data-name="Path 2343" d="M3312.221,1943.905c-2.4-1.518-4.887-2.859-7.375-4.2q-3.745-1.979-7.579-3.77l.419.568c-.375-2.419-.756-4.837-1.254-7.238-.465-2.406-.971-4.805-1.611-7.186.068,2.464.27,4.908.513,7.346.208,2.443.535,4.869.868,7.295l.054.392.365.177q3.809,1.844,7.7,3.52c2.6,1.093,5.211,2.182,7.9,3.093" transform="translate(-2608.933 -1521.96)" fill="#d7ff35"/>
        <path id="Path_2344" data-name="Path 2344" d="M3148.067,2074.795c-2.4-1.518-4.887-2.86-7.375-4.2-2.5-1.319-5.025-2.569-7.579-3.77l.419.568c-.375-2.419-.756-4.837-1.255-7.239-.465-2.405-.971-4.805-1.611-7.186.068,2.464.27,4.908.513,7.346.208,2.443.536,4.87.868,7.295l.053.392.365.177q3.809,1.844,7.7,3.52c2.6,1.093,5.211,2.181,7.9,3.093" transform="translate(-2478.951 -1625.602)" fill="#d7ff35"/>
        <path id="Path_2345" data-name="Path 2345" d="M3227.55,1997.671c-1.524-.981-3.1-1.852-4.654-2.772q-2.355-1.327-4.744-2.582-4.781-2.507-9.663-4.8l.534.724a177.642,177.642,0,0,0-3.652-18.387,177.566,177.566,0,0,0,1.76,18.663l.069.5.465.226q4.854,2.354,9.811,4.491,2.48,1.066,4.992,2.064c1.692.628,3.361,1.307,5.083,1.874" transform="translate(-2538.103 -1559.786)" fill="#d7ff35"/>
        <path id="Path_2346" data-name="Path 2346" d="M2484.2,1766.084c27.472,32.619,71.428,40.8,71.428,40.8s-.587-44.706-28.061-77.325-71.428-40.8-71.428-40.8.587,44.706,28.06,77.325" transform="translate(-1944.845 -1337.207)" fill="#a1c413"/>
        <path id="Path_2347" data-name="Path 2347" d="M2593.971,1852.4c-3.51-4.6-7.142-9.106-10.71-13.662l-10.91-13.494c-7.293-8.979-14.759-17.813-22.129-26.726-7.526-8.784-14.969-17.636-22.572-26.354l-11.443-13.045c-3.884-4.29-7.7-8.635-11.644-12.875,3.508,4.606,7.141,9.108,10.708,13.664l10.91,13.495c7.3,8.974,14.757,17.814,22.132,26.724,7.531,8.779,14.967,17.638,22.575,26.351l11.442,13.046c3.883,4.29,7.7,8.635,11.642,12.877" transform="translate(-1983.184 -1382.727)" fill="#d7ff35"/>
        <path id="Path_2348" data-name="Path 2348" d="M2520.191,1750.856c-1.2,2.008-2.243,4.082-3.288,6.157q-1.544,3.123-2.933,6.315l.458-.357a118.582,118.582,0,0,0-11.8,2.674,118.506,118.506,0,0,0,12.008-1.459l.321-.053.138-.3c.955-2.115,1.868-4.249,2.724-6.408s1.679-4.333,2.369-6.566" transform="translate(-1981.655 -1386.377)" fill="#d7ff35"/>
        <path id="Path_2349" data-name="Path 2349" d="M2801.678,2085.068c-1.2,2.008-2.243,4.082-3.288,6.157s-2,4.189-2.933,6.315l.458-.357a118.776,118.776,0,0,0-11.8,2.674,118.521,118.521,0,0,0,12.009-1.458l.321-.052.137-.305q1.433-3.172,2.724-6.407c.841-2.166,1.678-4.333,2.369-6.566" transform="translate(-2204.544 -1651.016)" fill="#d7ff35"/>
        <path id="Path_2350" data-name="Path 2350" d="M2571.884,1809.847c-1.648,2.769-3.093,5.628-4.533,8.49q-2.13,4.306-4.044,8.707l.631-.493c-2.731.5-5.461,1-8.168,1.643-2.713.6-5.419,1.247-8.1,2.044,2.792-.152,5.556-.456,8.313-.805,2.764-.31,5.5-.755,8.244-1.206l.442-.073.189-.42c1.317-2.916,2.576-5.858,3.756-8.835,1.16-2.986,2.315-5.974,3.266-9.053" transform="translate(-2017.32 -1433.088)" fill="#d7ff35"/>
        <path id="Path_2351" data-name="Path 2351" d="M2725.278,1991.972c-1.648,2.769-3.094,5.628-4.533,8.49-1.42,2.87-2.76,5.776-4.043,8.707l.632-.492c-2.731.5-5.461,1-8.168,1.643-2.713.6-5.419,1.246-8.1,2.044,2.791-.152,5.557-.456,8.313-.8,2.764-.311,5.5-.755,8.244-1.206l.443-.073.19-.42c1.316-2.916,2.575-5.858,3.755-8.835,1.159-2.986,2.315-5.974,3.267-9.053" transform="translate(-2138.781 -1577.3)" fill="#d7ff35"/>
        <path id="Path_2352" data-name="Path 2352" d="M2635.42,1882.9c-1.066,1.757-2.005,3.572-3,5.361q-1.433,2.71-2.783,5.458-2.7,5.5-5.149,11.1l.805-.628a201.359,201.359,0,0,0-20.735,4.7,201.523,201.523,0,0,0,21.106-2.563l.564-.094.242-.535q2.521-5.575,4.794-11.26,1.132-2.843,2.188-5.723c.661-1.938,1.379-3.85,1.97-5.819" transform="translate(-2062.362 -1490.933)" fill="#d7ff35"/>
        <path id="Path_2353" data-name="Path 2353" d="M0,2159.825c0-15.41,97.97-27.9,218.822-27.9s218.822,12.493,218.822,27.9-97.97,27.9-218.822,27.9S0,2175.236,0,2159.825" transform="translate(0 -1688.117)" fill="#d7ff35"/>
        <path id="Path_2354" data-name="Path 2354" d="M2145.964,2195.2c0,9.179-61.986,16.62-138.45,16.62s-138.45-7.441-138.45-16.62,61.987-16.621,138.45-16.621,138.45,7.441,138.45,16.621" transform="translate(-1479.977 -1725.062)" fill="#d7ff35"/>
        <path id="Path_2355" data-name="Path 2355" d="M712.4,79.92H653.946a4.446,4.446,0,0,0-3.2,1.362l-9.415,9.774a1.756,1.756,0,0,1-3.021-1.218V37.827a9.492,9.492,0,0,1,9.492-9.492h66.1a7.725,7.725,0,0,1,7.725,7.725V70.69a9.23,9.23,0,0,1-9.23,9.23" transform="translate(-505.43 -22.436)" fill="#3ecaa1"/>
        <path id="Path_2356" data-name="Path 2356" d="M697.207,132.271l1.485,5.707c.325,1.253.626,2.413.835,3.573h.07c.255-1.137.627-2.343,1-3.55l1.833-5.731h1.717l1.74,5.615c.418,1.346.742,2.529,1,3.666h.07a33.746,33.746,0,0,1,.858-3.643l1.6-5.638h2.018L707.81,143.5h-1.856l-1.717-5.359a37.454,37.454,0,0,1-1-3.689h-.046a33.2,33.2,0,0,1-1.021,3.712l-1.81,5.336h-1.856l-3.387-11.229Z" transform="translate(-550.415 -104.736)" fill="#fff"/>
        <path id="Path_2357" data-name="Path 2357" d="M780.566,132.271l1.485,5.707c.325,1.253.626,2.413.835,3.573h.07c.255-1.137.626-2.343,1-3.55l1.833-5.731H787.5l1.74,5.615c.417,1.346.742,2.529,1,3.666h.07a33.747,33.747,0,0,1,.859-3.643l1.6-5.638h2.018L791.169,143.5h-1.856l-1.717-5.359a37.42,37.42,0,0,1-1-3.689h-.046a33.256,33.256,0,0,1-1.021,3.712l-1.81,5.336h-1.856l-3.387-11.229Z" transform="translate(-616.421 -104.736)" fill="#fff"/>
        <path id="Path_2358" data-name="Path 2358" d="M863.923,132.271l1.485,5.707c.325,1.253.626,2.413.835,3.573h.07c.255-1.137.627-2.343,1-3.55l1.833-5.731h1.717l1.74,5.615c.418,1.346.743,2.529,1,3.666h.07a33.746,33.746,0,0,1,.858-3.643l1.6-5.638h2.018L874.526,143.5H872.67l-1.717-5.359a37.471,37.471,0,0,1-1-3.689h-.046a33.19,33.19,0,0,1-1.021,3.712l-1.81,5.336h-1.856l-3.387-11.229Z" transform="translate(-682.425 -104.736)" fill="#fff"/>
        <path id="Path_2359" data-name="Path 2359" d="M943.3,174.859a1.372,1.372,0,0,1,1.392-1.462,1.464,1.464,0,1,1-1.392,1.462" transform="translate(-746.933 -137.301)" fill="#fff"/>
        <path id="Path_2360" data-name="Path 2360" d="M325.87,416.346c6.07-7.967,13.026-7.841,17.326-6.45s4.679-1.138,4.679-1.138a9.863,9.863,0,0,1,.885-9.358c3.161-4.679,11.255-3.794,11.255-3.794s-3.162-4.426-1.138-12.9c.053-.22.122-.423.181-.636a11.178,11.178,0,0,1-5.337-5.558c-2.336-5.158-.669-10.951,3.721-12.938s9.843.582,12.178,5.741a12.015,12.015,0,0,1,.582,1.6,12.53,12.53,0,0,1,1.955-.346c4.3-.379,8.979-4.679,8.979-4.679,6.955-7.208,16.946-6.576,22.384.632s-.506,11.508,1.391,15.049,6.323.506,10.5,5.438-3.414,9.738-2.529,12.773,6.07,3.541,6.07,3.541,13.152-.506,14.67,13.152-17.073,17.2-17.073,17.2-70.187,7.208-80.557,6.2S319.8,424.313,325.87,416.346" transform="translate(-256.082 -285.681)" fill="#001a30"/>
        <path id="Path_2361" data-name="Path 2361" d="M678.827,1655.394s-.775,8.6-1.9,20.858c-2.8,30.528-7.789,83.774-8.421,83.583-.884-.266-18.578,0-18.578,0s0-31.6-4.128-53.827a173.048,173.048,0,0,1-2.408-22.576c-.766-15.828.048-29.644.048-29.644Z" transform="translate(-509.196 -1309.517)" fill="#fbc5a9"/>
        <path id="Path_2362" data-name="Path 2362" d="M677.232,2163.211s2.506,11.646,9.142,17.608l-4.571,10.042h-27.72s1.4-21.156,4.571-27.65Z" transform="translate(-517.922 -1712.892)" fill="#1f1f1f"/>
        <path id="Path_2363" data-name="Path 2363" d="M709.263,2250.043h28.31s-.664-11.448-10.616-12.051-18.136,5.624-17.694,12.051" transform="translate(-561.601 -1772.074)" fill="#3b3b3b"/>
        <path id="Path_2364" data-name="Path 2364" d="M453.591,1655.394s-1.088,12.083-2.563,28.027c-2.861,31-7.176,76.591-7.758,76.414-.884-.266-18.578,0-18.578,0s0-31.6-4.13-53.827a197.927,197.927,0,0,1-2.686-31.086c-.214-11.961.326-21.134.326-21.134Z" transform="translate(-330.846 -1309.517)" fill="#fbc5a9"/>
        <path id="Path_2365" data-name="Path 2365" d="M451.995,2163.211s2.506,11.646,9.142,17.608l-4.571,10.042h-27.72s1.4-21.156,4.571-27.65Z" transform="translate(-339.572 -1712.892)" fill="#1f1f1f"/>
        <path id="Path_2366" data-name="Path 2366" d="M484.028,2250.043h28.309s-.663-11.448-10.616-12.051-18.136,5.624-17.693,12.051" transform="translate(-383.253 -1772.074)" fill="#3b3b3b"/>
        <path id="Path_2367" data-name="Path 2367" d="M418.2,1653.789l35.389,1.605s-1.088,12.083-2.563,28.027a91.963,91.963,0,0,1-33.152-8.5c-.214-11.96.326-21.134.326-21.134" transform="translate(-330.846 -1309.517)" fill="#f7a18a"/>
        <path id="Path_2368" data-name="Path 2368" d="M678.827,1655.394s-.775,8.6-1.9,20.858a123.735,123.735,0,0,1-33.535,7.181c-.766-15.828.048-29.644.048-29.644Z" transform="translate(-509.196 -1309.517)" fill="#f7a18a"/>
        <path id="Path_2369" data-name="Path 2369" d="M455.5,1185.256s-17.967,8.629-47.908,8.682a172.452,172.452,0,0,1-47.746-6.881q-6.866-1.965-14.094-4.612l13.2-108.986,18.087-15.607,53.037,2.476,16.133,21.691Z" transform="translate(-273.775 -837.637)" fill="#8b233f"/>
        <g id="Group_34915" data-name="Group 34915" transform="translate(86.07 285.443)" opacity="0.22">
          <g id="Group_34914" data-name="Group 34914">
            <g id="Group_34913" data-name="Group 34913" clip-path="url(#clip-path-5)">
              <path id="Path_2370" data-name="Path 2370" d="M461.272,1441.961l-.07.085a172.447,172.447,0,0,1-47.746-6.881c11.773-2.642,25.909-6.805,30.632-12.268,8.592-9.935,6.712-56.652,10.472-51.282s6.711,66.05,6.711,70.345" transform="translate(-413.456 -1371.188)" fill="#fc488c"/>
            </g>
          </g>
        </g>
        <path id="Path_2371" data-name="Path 2371" d="M582.608,763.174s-13.4,10.225-47.839-1.088V673l38.55,2.694Z" transform="translate(-423.445 -532.902)" fill="#fff"/>
        <path id="Path_2372" data-name="Path 2372" d="M592.937,660.889s-6.42,12.977-18.8,14.13-22.7-9.66-22.7-9.66l2.895-12.731,38.614,5.522v2.739Z" transform="translate(-436.636 -516.769)" fill="#f7a18a"/>
        <g id="Group_34918" data-name="Group 34918" transform="translate(122.552 161.433)" opacity="0.3" style="mix-blend-mode: multiply;isolation: isolate">
          <g id="Group_34917" data-name="Group 34917">
            <g id="Group_34916" data-name="Group 34916" clip-path="url(#clip-path-6)">
              <path id="Path_2373" data-name="Path 2373" d="M622.457,775.478c-8.5,17.273-22.518,23.5-32.117,21.812l-1.63,43.162c13.145-3.688,23.119-18.032,39.425-20.788Z" transform="translate(-588.709 -775.478)" fill="#f6613a"/>
            </g>
          </g>
        </g>
        <path id="Path_2374" data-name="Path 2374" d="M762.161,710.446c-7.841,7.33-17.341,10.981-23.58,11.134A19.14,19.14,0,0,1,730.5,720.1c-9.76-4.033-13.27-15.04-13.379-15.384.035.208.764,4.456,1.757,10.64l.052.3c2.548,16.017,9.774,53.886,7.735,58.86-2.881,7.059-28.788,10.526-28.788,10.526s1.326-20.482-1.759-67.488c-1.809-27.218-3.8-46.82-5.173-58.508-.662-5.762-1.2-9.605-1.452-11.456a3.425,3.425,0,0,0,.458-.046l-.51-.256c-.1-.67-.152-1.018-.152-1.018,4.715,2.059,20.108,3.124,27.6,8.009,7.493,4.9,19.93,37.978,21.459,38.164.552.061,3.806-3.064,8.643-6.091l1.064,1.206c3.566,2.96,8.652,8.79,12.647,19.765Z" transform="translate(-545.801 -511.734)" fill="#f9b546"/>
      </g>
    </g>
    <g id="Group_34922" data-name="Group 34922" transform="translate(143.643 135.553)">
      <g id="Group_34921" data-name="Group 34921" clip-path="url(#clip-path-7)">
        <path id="Path_2375" data-name="Path 2375" d="M690.024,652.388l.51-.006v.047h-.51Z" transform="translate(-690.024 -652.127)" fill="#359de6"/>
        <path id="Path_2376" data-name="Path 2376" d="M690.024,652.342l.51-.006v.01l-.51.007Z" transform="translate(-690.024 -652.091)" fill="#359de6"/>
        <path id="Path_2377" data-name="Path 2377" d="M690.024,652.3l.51-.006v.01l-.51.006Z" transform="translate(-690.024 -652.054)" fill="#369ee6"/>
        <path id="Path_2378" data-name="Path 2378" d="M690.024,652.249l.51-.006v.01l-.51.006Z" transform="translate(-690.024 -652.017)" fill="#379fe7"/>
        <path id="Path_2379" data-name="Path 2379" d="M690.024,652.2l.51-.006v.01l-.51.006Z" transform="translate(-690.024 -651.981)" fill="#37a0e7"/>
        <path id="Path_2380" data-name="Path 2380" d="M690.024,652.156l.51-.006v.01l-.51.006Z" transform="translate(-690.024 -651.944)" fill="#38a1e7"/>
        <path id="Path_2381" data-name="Path 2381" d="M690.024,652.11l.51-.006v.01l-.51.006Z" transform="translate(-690.024 -651.907)" fill="#39a2e8"/>
        <path id="Path_2382" data-name="Path 2382" d="M690.024,652.064l.51-.006v.01l-.51.006Z" transform="translate(-690.024 -651.871)" fill="#3aa3e8"/>
        <path id="Path_2383" data-name="Path 2383" d="M690.024,652.017l.51-.006v.01l-.51.007Z" transform="translate(-690.024 -651.834)" fill="#3aa4e8"/>
        <path id="Path_2384" data-name="Path 2384" d="M690.024,651.971l.51-.006v.01l-.51.006Z" transform="translate(-690.024 -651.797)" fill="#3ba5e9"/>
        <path id="Path_2385" data-name="Path 2385" d="M690.024,651.925l.51-.006v.01l-.51.006Z" transform="translate(-690.024 -651.76)" fill="#3ca6e9"/>
        <path id="Path_2386" data-name="Path 2386" d="M690.024,651.878l.51-.006v.01l-.51.006Z" transform="translate(-690.024 -651.724)" fill="#3da7e9"/>
        <path id="Path_2387" data-name="Path 2387" d="M690.024,651.832l.51-.006v.01l-.51.006Z" transform="translate(-690.024 -651.687)" fill="#3da8ea"/>
        <path id="Path_2388" data-name="Path 2388" d="M690.024,651.786l.51-.006v.01l-.51.006Z" transform="translate(-690.024 -651.65)" fill="#3ea9ea"/>
        <path id="Path_2389" data-name="Path 2389" d="M690.024,651.739l.51-.006v.01l-.51.007Z" transform="translate(-690.024 -651.614)" fill="#3fabeb"/>
        <path id="Path_2390" data-name="Path 2390" d="M690.024,651.693l.51-.006v.01l-.51.006Z" transform="translate(-690.024 -651.577)" fill="#40aceb"/>
        <path id="Path_2391" data-name="Path 2391" d="M690.024,651.647l.51-.006v.01l-.51.006Z" transform="translate(-690.024 -651.54)" fill="#41adeb"/>
        <path id="Path_2392" data-name="Path 2392" d="M690.024,651.6l.51-.006v.01l-.51.006Z" transform="translate(-690.024 -651.504)" fill="#41aeec"/>
        <path id="Path_2393" data-name="Path 2393" d="M690.024,651.554l.51-.006v.01l-.51.006Z" transform="translate(-690.024 -651.467)" fill="#42afec"/>
        <path id="Path_2394" data-name="Path 2394" d="M690.024,651.508l.51-.006v.01l-.51.006Z" transform="translate(-690.024 -651.43)" fill="#43b0ec"/>
        <path id="Path_2395" data-name="Path 2395" d="M690.024,651.461l.51-.006v.01l-.51.006Z" transform="translate(-690.024 -651.393)" fill="#44b1ed"/>
        <path id="Path_2396" data-name="Path 2396" d="M690.024,651.415l.51-.006v.01l-.51.006Z" transform="translate(-690.024 -651.357)" fill="#44b2ed"/>
        <path id="Path_2397" data-name="Path 2397" d="M690.024,651.368l.51-.006v.01l-.51.007Z" transform="translate(-690.024 -651.32)" fill="#45b3ed"/>
        <path id="Path_2398" data-name="Path 2398" d="M690.024,651.322l.51-.006v.01l-.51.006Z" transform="translate(-690.024 -651.283)" fill="#46b4ee"/>
        <path id="Path_2399" data-name="Path 2399" d="M690.024,651.276l.51-.006v.01l-.51.006Z" transform="translate(-690.024 -651.247)" fill="#47b5ee"/>
        <path id="Path_2400" data-name="Path 2400" d="M690.024,651.23l.51-.006v.01l-.51.006Z" transform="translate(-690.024 -651.21)" fill="#47b6ee"/>
        <path id="Path_2401" data-name="Path 2401" d="M690.024,651.183l.51-.006v.01l-.51.006Z" transform="translate(-690.024 -651.173)" fill="#48b7ef"/>
        <path id="Path_2402" data-name="Path 2402" d="M690.024,651.161h.51v0l-.51.007Z" transform="translate(-690.024 -651.16)" fill="#49b8ef"/>
        <path id="Path_2403" data-name="Path 2403" d="M690.045,651.16h0Z" transform="translate(-690.024 -651.16)" fill="#49b8ef"/>
      </g>
    </g>
    <g id="Group_34945" data-name="Group 34945">
      <g id="Group_34944" data-name="Group 34944" clip-path="url(#clip-path-2)">
        <path id="Path_2405" data-name="Path 2405" d="M1007.152,771.289a314.432,314.432,0,0,1-23.969,26.639c-4.142-11.375-9.449-17.69-13.165-20.774,8.866-5.624,27.034-17.271,27.034-17.271Z" transform="translate(-768.088 -601.698)" fill="#fbc5a9"/>
        <g id="Group_34925" data-name="Group 34925" transform="translate(164.294 160.219)" opacity="0.62">
          <g id="Group_34924" data-name="Group 34924">
            <g id="Group_34923" data-name="Group 34923" clip-path="url(#clip-path-9)">
              <path id="Path_2406" data-name="Path 2406" d="M798,813.049c-1.008-6.347-1.752-10.653-1.752-10.653s3.468,11.312,13.376,15.409c.318-8.178-.071-19.812-3.857-27.669a58.255,58.255,0,0,0-16.543-20.487Z" transform="translate(-789.224 -769.65)" fill="#f68737"/>
            </g>
          </g>
        </g>
        <path id="Path_2407" data-name="Path 2407" d="M364.927,732.194c-.253,3-3.4,15.824-5.36,23.924-.77,3.177.107,5.259,2.222,7.752,6.34,7.472,23.548,11.208,38.1,12.808,0,0,1.656-20.39,2.6-47.214.484-13.285.79-28.12.611-42.84-.127-12.66-.611-25.2-1.606-36.614-.433-5.022-.968-9.813-1.605-14.28v-.023a263.179,263.179,0,0,0-26.633,6.249c-3.058.949-13.711,5.971-15.037,12.266-1.631,7.8-4.765,16.733-5.683,26.592-1.147,11.919.918,25.158,12.717,39.229a89.668,89.668,0,0,1-.331,12.151" transform="translate(-278.932 -503.37)" fill="#f9b546"/>
        <g id="Group_34928" data-name="Group 34928" transform="translate(73.336 160.219)" opacity="0.62">
          <g id="Group_34927" data-name="Group 34927">
            <g id="Group_34926" data-name="Group 34926" clip-path="url(#clip-path-10)">
              <path id="Path_2408" data-name="Path 2408" d="M364.952,838.245c14.367,3.342,28.451.305,37.563-2.731.478-13.272.779-28.119.619-42.837-24.842-1.462-30.628-23.025-30.628-23.025a144.372,144.372,0,0,0-19.94,17.225c-1.15,11.922.92,25.146,12.7,39.222a88.141,88.141,0,0,1-.319,12.147" transform="translate(-352.287 -769.651)" fill="#f68737"/>
            </g>
          </g>
        </g>
        <path id="Path_2409" data-name="Path 2409" d="M657.795,867.453l1.929.161,28.7,2.491a3.253,3.253,0,0,0,3.379-1.993l3.025-8.259,11.182-30.481a2.8,2.8,0,0,0-1.61-3.535,3.238,3.238,0,0,0-.9-.273l-30.681-4.756a3.242,3.242,0,0,0-3.609,2.008l-1.008,2.892-13.164,37.936a2.963,2.963,0,0,0,2.761,3.808" transform="translate(-518.554 -649.903)" fill="#00385c"/>
        <path id="Path_2410" data-name="Path 2410" d="M718.888,831.9l-11.183,30.482-3.026,8.258a3.25,3.25,0,0,1-3.378,1.992l-28.7-2.49a2.762,2.762,0,0,1-1.31-3.294l11.395-32.81,2.8-8.034a3.246,3.246,0,0,1,3.609-2.008l28.184,4.369a2.8,2.8,0,0,1,1.611,3.535" transform="translate(-531.433 -652.429)" fill="#0077b4"/>
        <path id="Path_2411" data-name="Path 2411" d="M768.781,916.611c-.964,3.1.034,6.062,2.228,6.625s4.754-1.489,5.718-4.585-.034-6.062-2.228-6.625-4.754,1.489-5.718,4.585" transform="translate(-608.452 -722.095)" fill="#fff"/>
        <path id="Path_2412" data-name="Path 2412" d="M707.706,900.73l-3.026,8.258a3.249,3.249,0,0,1-3.378,1.992l-28.7-2.49a2.762,2.762,0,0,1-1.31-3.294l11.395-32.81c3.574,11.055,10.74,24.134,25.018,28.344" transform="translate(-531.434 -690.78)" fill="#036ba1"/>
        <path id="Path_2413" data-name="Path 2413" d="M363.047,763.22c3.928.755,9.855.225,16.809-1.575a106.77,106.77,0,0,0,31.619-14.493s13.058,2.6,19.8-.8c6.741-3.423,5.308-9.352,6.423-12.662,1.1-3.31.319-5.222-9.183-2.908-9.5,2.3-10.386,1.494-10.386,1.494l2.318-6.025s-8.847,1.205-11.625,6.829l-30.893,5.029-4.936.8s3.557-46.806-6.847-49.6c-10.4-2.828-18.136,12.244-20.135,30.32-1.982,18.076,7.75,41.776,17.039,43.592" transform="translate(-273.774 -545.542)" fill="#f9b546"/>
        <path id="Path_2414" data-name="Path 2414" d="M498.867,903.46a106.761,106.761,0,0,0,31.618-14.493s13.058,2.6,19.8-.8c6.741-3.423,5.308-9.352,6.423-12.662,1.1-3.31.319-5.222-9.183-2.908-9.5,2.3-10.386,1.494-10.386,1.494l2.318-6.025s-8.847,1.2-11.625,6.829l-30.893,5.029c-1.221,4.692-1.681,12.308,1.929,23.539" transform="translate(-392.785 -687.357)" fill="#fbc5a9"/>
        <path id="Path_2415" data-name="Path 2415" d="M581.065,561.758v.023c.637,4.467,1.172,9.257,1.605,14.28,4.027,4.282,8.971,7.846,13.89,6.966a12.184,12.184,0,0,0,8.69-6.3c-.662-5.763-1.2-9.6-1.453-11.456a3.089,3.089,0,0,0,.459-.046l-.51-.255-.331-.162.178-.856,1.657-8.656-20.185-12.984Z" transform="translate(-460.104 -429.422)" fill="#fbc5a9"/>
        <path id="Path_2416" data-name="Path 2416" d="M600.286,542.317c.255,22.912,15.8,23.121,18.732,22.959a3.051,3.051,0,0,0,.459-.046l-.51-.254-.331-.162.178-.856,1.656-8.656Z" transform="translate(-475.324 -429.422)" fill="#ff856a"/>
        <path id="Path_2417" data-name="Path 2417" d="M562.717,391.055c.3,2.915,1.294,3.807,2.761,4.029-4.53,2.378-13.287,5.3-28.978,4-12.307-1.021-16.293-6.309-17.3-11.094.889-1.734.934-4.549.593-8.231-.753-8.159,3.013-18.452,16.067-22.845s24.753,4.282,24.753,4.282,13.656-2.274,15.54,9.839-14.185,12.616-13.432,20.021" transform="translate(-411.113 -281.631)" fill="#001a30"/>
        <path id="Path_2418" data-name="Path 2418" d="M604.082,452.275c-.041,10.075-1.3,15.667-10.857,13.539l-.454,15.923c-.07,2.472-10,1.264-12.328.437-7.453-2.646-9.164-6.655-9.164-6.655l2.83-18.439a6.438,6.438,0,0,1-7.062-4.431c-1.221-3.441.33-7.131,3.464-8.243s6.665.775,7.885,4.215c.023.063.038.127.058.191,4.744-1.769,13.485-6.652,17.493-19.343,0,0,7.907,5.085,8.1,18.076,0,.165,0,.327.006.49q.011.731.018,1.439c.006.455.009.9.012,1.343q0,.743,0,1.458" transform="translate(-448.675 -340.065)" fill="#fbc5a9"/>
        <path id="Path_2419" data-name="Path 2419" d="M623.432,448.814c4.744-1.769,13.485-6.653,17.492-19.342a17.892,17.892,0,0,1,5.5,6.756c-7.5,9.949-23,12.586-23,12.586" transform="translate(-493.651 -340.068)" fill="#f7a18a"/>
        <path id="Path_2420" data-name="Path 2420" d="M588.424,519.38h-4.519a.361.361,0,1,1,0-.722h3.467l-4.818-3.748a.361.361,0,0,1,.443-.57l5.649,4.393a.361.361,0,0,1-.222.646" transform="translate(-461.172 -407.209)" fill="#f7a18a"/>
        <path id="Path_2421" data-name="Path 2421" d="M656.369,575s-8.118-2.944-9.994-7.64c0,0,1.49,13.371,9.681,15.623Z" transform="translate(-511.818 -449.248)" fill="#f7a18a"/>
        <g id="Group_34931" data-name="Group 34931" transform="translate(138.575 109.198)" opacity="0.5">
          <g id="Group_34930" data-name="Group 34930">
            <g id="Group_34929" data-name="Group 34929" clip-path="url(#clip-path-11)">
              <path id="Path_2422" data-name="Path 2422" d="M672.46,526.16c-.006.871-1.529,1.567-3.4,1.555s-3.388-.728-3.382-1.6,1.529-1.567,3.4-1.555,3.388.728,3.382,1.6" transform="translate(-665.676 -524.56)" fill="#f3888a"/>
            </g>
          </g>
        </g>
        <g id="Group_34934" data-name="Group 34934" transform="translate(153.599 107.97)" opacity="0.5">
          <g id="Group_34933" data-name="Group 34933">
            <g id="Group_34932" data-name="Group 34932" clip-path="url(#clip-path-12)">
              <path id="Path_2423" data-name="Path 2423" d="M739.655,521.44c-1.079-.27-1.812-.8-1.808-1.409s.723-1.112,1.777-1.374q.012.731.018,1.439c.006.456.009.9.012,1.343" transform="translate(-737.847 -518.658)" fill="#f3888a"/>
            </g>
          </g>
        </g>
        <path id="Path_2424" data-name="Path 2424" d="M716.021,512.541a.361.361,0,0,1-.071-.715,12.566,12.566,0,0,0,3.017-1.283c.395-.216.423-.445.433-.52.105-.839-1.461-2.3-2.4-3.166a11.905,11.905,0,0,1-1-.988A5.876,5.876,0,0,1,715,502.762a.361.361,0,0,1,.351-.371.365.365,0,0,1,.371.35,5.228,5.228,0,0,0,.845,2.671,11.747,11.747,0,0,0,.927.916c1.235,1.149,2.772,2.579,2.621,3.784a1.4,1.4,0,0,1-.8,1.064,12.879,12.879,0,0,1-3.22,1.357.366.366,0,0,1-.072.007" transform="translate(-566.158 -397.808)" fill="#f7a18a"/>
        <path id="Path_2425" data-name="Path 2425" d="M689.456,508.994a.784.784,0,1,1-.943-.808.893.893,0,0,1,.943.808" transform="translate(-544.734 -402.387)" fill="#5b1e13"/>
        <path id="Path_2426" data-name="Path 2426" d="M728.72,504.435a.784.784,0,1,1-.814-.937.893.893,0,0,1,.814.937" transform="translate(-575.821 -398.683)" fill="#5b1e13"/>
        <path id="Path_2427" data-name="Path 2427" d="M678.014,490.585a.721.721,0,0,1-.5-1.237,4.268,4.268,0,0,1,4.354-.9.722.722,0,1,1-.525,1.345,2.817,2.817,0,0,0-2.825.595.723.723,0,0,1-.5.2" transform="translate(-536.299 -386.547)" fill="#5b1e13"/>
        <path id="Path_2428" data-name="Path 2428" d="M719.012,488.066a.721.721,0,0,1-.488-1.252,3.333,3.333,0,0,1,4.26-.16.722.722,0,1,1-.863,1.157,1.893,1.893,0,0,0-2.429.073.725.725,0,0,1-.48.181" transform="translate(-568.762 -384.792)" fill="#5b1e13"/>
        <path id="Path_2429" data-name="Path 2429" d="M607.21,415.736s-2.662,9.16-10.569,11.039c0,0,2.547-1.636,3.957-6.882,0,0-5.973,4.058-12.49,2.5,0,0,12.767-2.091,15.9-9.607a29.955,29.955,0,0,1-.909,6.72,21.252,21.252,0,0,0,4.113-3.767" transform="translate(-465.68 -326.853)" fill="#253c55"/>
        <path id="Path_2430" data-name="Path 2430" d="M741.712,410.754s4.351,1.874,4.792,5.886a5.859,5.859,0,0,0-3.149-2.372,8.673,8.673,0,0,1,.464,6.308s-.247-6.42-3.759-8.425a14.87,14.87,0,0,1,3.256.86,10.548,10.548,0,0,0-1.6-2.258" transform="translate(-586 -325.247)" fill="#253c55"/>
        <path id="Path_2431" data-name="Path 2431" d="M707.962,558.175a6.746,6.746,0,0,1-1.221,3.189,3.035,3.035,0,0,1-1.515,1.054c-1.321.393-1.984-.635-2.318-1.656a7.25,7.25,0,0,1-.321-1.679,8.727,8.727,0,0,0,5.375-.908" transform="translate(-556.328 -441.979)" fill="#3e2312"/>
        <path id="Path_2432" data-name="Path 2432" d="M707.962,569.766a3.035,3.035,0,0,1-1.515,1.054c-1.321.393-1.984-.635-2.318-1.656a3.132,3.132,0,0,1,3.833.6" transform="translate(-557.549 -450.381)" fill="#ef4623"/>
        <path id="Path_2433" data-name="Path 2433" d="M680.676,505.455a4.152,4.152,0,0,1-3.937-4.16,4.527,4.527,0,0,1,1.013-3.084,3.71,3.71,0,0,1,2.723-1.385,4.134,4.134,0,0,1,4.08,4.157,4.528,4.528,0,0,1-1.013,3.084,3.711,3.711,0,0,1-2.723,1.385l-.143,0m-.058-8.064-.121,0a3.149,3.149,0,0,0-2.308,1.18,3.961,3.961,0,0,0-.883,2.7,3.571,3.571,0,0,0,3.49,3.612,3.149,3.149,0,0,0,2.308-1.18,3.961,3.961,0,0,0,.883-2.7,3.586,3.586,0,0,0-3.37-3.615" transform="translate(-535.858 -393.399)" fill="#eef6f9"/>
        <path id="Path_2434" data-name="Path 2434" d="M726.764,503.615a4.329,4.329,0,1,1,3.879-4.472,4.527,4.527,0,0,1-1.013,3.084,3.711,3.711,0,0,1-2.722,1.385l-.143,0m-.058-8.064-.121,0a3.773,3.773,0,0,0,.3,7.491,3.149,3.149,0,0,0,2.308-1.18,3.961,3.961,0,0,0,.883-2.7,3.586,3.586,0,0,0-3.37-3.615" transform="translate(-572.352 -391.942)" fill="#eef6f9"/>
        <path id="Path_2435" data-name="Path 2435" d="M711.146,512.1a.284.284,0,0,1-.139-.531c.079-.044,1.941-1.075,2.852-.024a.284.284,0,1,1-.429.372c-.6-.69-2.13.138-2.145.147a.282.282,0,0,1-.139.036" transform="translate(-562.881 -404.683)" fill="#eef6f9"/>
        <path id="Path_2436" data-name="Path 2436" d="M625.057,505.325a.272.272,0,0,1-.042,0l-13.733-2.058a.284.284,0,1,1,.084-.561L625.1,504.76a.284.284,0,0,1-.042.564" transform="translate(-483.839 -398.051)" fill="#eef6f9"/>
        <path id="Path_2437" data-name="Path 2437" d="M566.143,564.343a5.681,5.681,0,0,1-5.323-6.018,5.683,5.683,0,1,1,5.675,6.029c-.118,0-.236,0-.351-.011m-3.443-5.9h0a3.8,3.8,0,1,0,4.024-3.556c-.079,0-.158-.007-.235-.007a3.8,3.8,0,0,0-3.789,3.563" transform="translate(-444.064 -437.877)" fill="#fff"/>
        <path id="Path_2438" data-name="Path 2438" d="M1112.65,763.629s-.076,1.99-.356,5.3q-.055.63-.118,1.321c-.667.54-1.675,1.3-2.968,2.224a24.5,24.5,0,0,1-9.327-12.59l9.358,2.744Z" transform="translate(-870.917 -601.698)" fill="#f7a18a"/>
        <path id="Path_2439" data-name="Path 2439" d="M1108.617,667.92c2.209-.039,4.688-.98,7.884-3.56a102.061,102.061,0,0,0,13.283-13.782c3.042-3.844.71-6.17-1.113-5.136,6.075-4.217,2.806-9.051-.325-6.927,3.775-3.307-.552-7.105-2.985-3.941l-.177-.05c2.2-2.209-1.231-5.232-5.177-2.029l-16.08,12.5c.389-1.034,2.347-11.275-3.789-11.794,0,0-2.913,11.652-3.659,15.96a19.532,19.532,0,0,0-.576,5.959c1.643,7.813,9.718,12.561,12.714,12.8" transform="translate(-867.739 -499.724)" fill="#fbc5a9"/>
        <path id="Path_2440" data-name="Path 2440" d="M1169.882,700.692l.833-.316c-5.528-14.574-10.415-15.341-10.624-15.371l-.118.883c.05,0,4.629.887,9.908,14.8" transform="translate(-918.5 -542.406)" fill="#f7a18a"/>
        <rect id="Rectangle_1783" data-name="Rectangle 1783" width="16.627" height="0.89" transform="matrix(0.736, -0.677, 0.677, 0.736, 248.074, 149.725)" fill="#f7a18a"/>
        <rect id="Rectangle_1784" data-name="Rectangle 1784" width="15.598" height="0.891" transform="matrix(0.731, -0.682, 0.682, 0.731, 250.402, 155.074)" fill="#f7a18a"/>
        <rect id="Rectangle_1785" data-name="Rectangle 1785" width="16.764" height="0.891" transform="matrix(0.744, -0.668, 0.668, 0.744, 244.809, 145.368)" fill="#f7a18a"/>
        <path id="Path_2441" data-name="Path 2441" d="M1135.5,706.107c4.1-7.739-.419-11.375-.465-11.41l-.547.7.273-.351-.275.351c.164.129,3.959,3.243.226,10.292Z" transform="translate(-898.322 -550.081)" fill="#f7a18a"/>
        <g id="Group_34937" data-name="Group 34937" transform="translate(242.418 13.889)" opacity="0.65">
          <g id="Group_34936" data-name="Group 34936">
            <g id="Group_34935" data-name="Group 34935" clip-path="url(#clip-path-13)">
              <path id="Path_2442" data-name="Path 2442" d="M1275.343,162.742h-87.489a23.345,23.345,0,0,1-23.345-23.345V90.066a23.345,23.345,0,0,1,23.345-23.345h87.489a23.345,23.345,0,0,1,23.344,23.345V139.4a23.344,23.344,0,0,1-23.344,23.345" transform="translate(-1164.509 -66.721)" fill="#b0e0ff"/>
            </g>
          </g>
        </g>
        <path id="Path_2443" data-name="Path 2443" d="M1245.441,133.537h-87.489a23.345,23.345,0,0,1-23.345-23.345V60.861a23.345,23.345,0,0,1,23.345-23.345h87.489a23.345,23.345,0,0,1,23.345,23.345v49.332a23.344,23.344,0,0,1-23.345,23.345" transform="translate(-898.414 -29.706)" fill="#036ba1"/>
        <path id="Path_2444" data-name="Path 2444" d="M1219.666,324.086a2.861,2.861,0,0,1,2.9-3.048,3.054,3.054,0,1,1-2.9,3.048" transform="translate(-965.766 -254.207)" fill="#fff"/>
        <path id="Path_2445" data-name="Path 2445" d="M1282.911,255.976a15.685,15.685,0,0,1-6.726,1.355c-7.064,0-11.661-4.79-11.661-11.952,0-7.21,4.935-12.436,12.58-12.436a14.232,14.232,0,0,1,5.9,1.21l-.968,3.29a9.872,9.872,0,0,0-4.936-1.113c-5.371,0-8.274,3.968-8.274,8.855,0,5.419,3.484,8.758,8.129,8.758a12.1,12.1,0,0,0,5.226-1.161Z" transform="translate(-1001.286 -184.452)" fill="#fff"/>
        <path id="Path_2446" data-name="Path 2446" d="M1390.152,244.76c0,8.661-6,12.435-11.661,12.435-6.339,0-11.226-4.645-11.226-12.048,0-7.838,5.129-12.435,11.613-12.435,6.726,0,11.274,4.887,11.274,12.048m-18.581.242c0,5.129,2.952,9,7.113,9,4.065,0,7.113-3.822,7.113-9.1,0-3.968-1.984-9-7.016-9s-7.21,4.645-7.21,9.1" transform="translate(-1082.639 -184.268)" fill="#fff"/>
        <path id="Path_2447" data-name="Path 2447" d="M1502.275,239.583c0-2.419-.048-4.4-.194-6.339h3.726l.194,3.774h.145a8.072,8.072,0,0,1,7.355-4.307,6.924,6.924,0,0,1,6.629,4.694h.1a9.649,9.649,0,0,1,2.613-3.048,7.991,7.991,0,0,1,5.177-1.645c3.1,0,7.693,2.032,7.693,10.161v13.79h-4.161V243.406c0-4.5-1.645-7.21-5.081-7.21a5.513,5.513,0,0,0-5.032,3.871,7.013,7.013,0,0,0-.339,2.129v14.468h-4.161V242.631c0-3.726-1.645-6.436-4.887-6.436a6.347,6.347,0,0,0-5.613,6.339v14.129h-4.161Z" transform="translate(-1189.39 -184.268)" fill="#fff"/>
        <path id="Path_2448" data-name="Path 2448" d="M1619.159,694.587h-67.024a23.345,23.345,0,0,1-23.345-23.345V636.556a23.345,23.345,0,0,1,23.345-23.345h67.024a23.345,23.345,0,0,1,23.345,23.345v34.687a23.345,23.345,0,0,1-23.345,23.345" transform="translate(-1210.539 -485.558)" fill="#b0e0ff"/>
        <path id="Path_2449" data-name="Path 2449" d="M1593.818,669.837h-67.024a23.345,23.345,0,0,1-23.345-23.345V611.806a23.345,23.345,0,0,1,23.345-23.345h67.024a23.345,23.345,0,0,1,23.344,23.345v34.687a23.345,23.345,0,0,1-23.344,23.345" transform="translate(-1190.474 -465.96)" fill="#1db2ed"/>
        <path id="Path_2450" data-name="Path 2450" d="M1584.872,819.315a2.861,2.861,0,0,1,2.9-3.048,3.054,3.054,0,1,1-2.9,3.048" transform="translate(-1254.947 -646.343)" fill="#fff"/>
        <path id="Path_2451" data-name="Path 2451" d="M1652.617,739.99c0,8.661-6,12.436-11.661,12.436-6.339,0-11.226-4.645-11.226-12.049,0-7.838,5.129-12.435,11.613-12.435,6.726,0,11.274,4.887,11.274,12.048m-18.58.242c0,5.129,2.952,9,7.113,9,4.064,0,7.113-3.822,7.113-9.1,0-3.968-1.984-9-7.016-9s-7.21,4.645-7.21,9.1" transform="translate(-1290.467 -576.405)" fill="#fff"/>
        <path id="Path_2452" data-name="Path 2452" d="M1764.74,735.781c0-2.758-.048-5.129-.194-7.307h3.726l.145,4.6h.194a7.027,7.027,0,0,1,6.484-5.129,4.6,4.6,0,0,1,1.21.145V732.1a6.394,6.394,0,0,0-1.452-.145c-3,0-5.129,2.274-5.71,5.467a11.985,11.985,0,0,0-.193,1.984v12.484h-4.21Z" transform="translate(-1397.218 -576.405)" fill="#fff"/>
        <path id="Path_2453" data-name="Path 2453" d="M1853.362,728.474c-.1,1.694-.193,3.581-.193,6.436v13.6c0,5.371-1.065,8.661-3.339,10.693-2.274,2.129-5.565,2.807-8.516,2.807a15.116,15.116,0,0,1-7.79-1.935l1.064-3.242a13.207,13.207,0,0,0,6.871,1.839c4.355,0,7.548-2.274,7.548-8.177v-2.613h-.1a8.361,8.361,0,0,1-7.452,3.919c-5.806,0-9.968-4.936-9.968-11.419,0-7.935,5.177-12.435,10.548-12.435a7.788,7.788,0,0,1,7.306,4.065h.1l.194-3.532Zm-4.4,9.242a6.062,6.062,0,0,0-.242-1.935,6.134,6.134,0,0,0-5.952-4.5c-4.064,0-6.968,3.435-6.968,8.855,0,4.6,2.323,8.419,6.919,8.419a6.225,6.225,0,0,0,5.9-4.355,7.414,7.414,0,0,0,.339-2.274Z" transform="translate(-1450.227 -576.405)" fill="#fff"/>
        <g id="Group_34940" data-name="Group 34940" transform="translate(504.985 31.201)" opacity="0.69">
          <g id="Group_34939" data-name="Group 34939">
            <g id="Group_34938" data-name="Group 34938" clip-path="url(#clip-path-14)">
              <path id="Path_2454" data-name="Path 2454" d="M2524.449,237.174h-75.294a23.345,23.345,0,0,1-23.345-23.345v-40.6a23.345,23.345,0,0,1,23.345-23.345h75.294a23.345,23.345,0,0,1,23.345,23.345v40.6a23.345,23.345,0,0,1-23.345,23.345" transform="translate(-2425.81 -149.88)" fill="#b0e0ff"/>
            </g>
          </g>
        </g>
        <path id="Path_2455" data-name="Path 2455" d="M2497.264,210.624H2421.97a23.345,23.345,0,0,1-23.345-23.345v-40.6a23.345,23.345,0,0,1,23.345-23.345h75.294a23.344,23.344,0,0,1,23.344,23.345v40.6a23.344,23.344,0,0,1-23.344,23.345" transform="translate(-1899.299 -97.656)" fill="#ffaf32"/>
        <path id="Path_2456" data-name="Path 2456" d="M2478.78,384.851a3.153,3.153,0,0,1,3.2-3.36,3.366,3.366,0,1,1-3.2,3.36" transform="translate(-1962.768 -302.075)" fill="#fff"/>
        <path id="Path_2457" data-name="Path 2457" d="M2536.374,291.717c0-2.666-.053-4.853-.213-6.986h4.16l.267,4.266h.107a9.49,9.49,0,0,1,8.532-4.853c3.573,0,9.119,2.133,9.119,10.986v15.412h-4.693V295.663c0-4.159-1.546-7.626-5.973-7.626a6.667,6.667,0,0,0-6.293,4.8,6.74,6.74,0,0,0-.32,2.187v15.519h-4.693Z" transform="translate(-2008.204 -224.993)" fill="#fff"/>
        <path id="Path_2458" data-name="Path 2458" d="M2674.88,298.49c.107,6.346,4.16,8.959,8.853,8.959a16.971,16.971,0,0,0,7.146-1.333l.8,3.36a20.905,20.905,0,0,1-8.586,1.6c-7.946,0-12.693-5.226-12.693-13.012s4.587-13.919,12.106-13.919c8.426,0,10.666,7.413,10.666,12.159a17.68,17.68,0,0,1-.16,2.187Zm13.759-3.36c.053-2.986-1.227-7.626-6.506-7.626-4.746,0-6.826,4.373-7.2,7.626Z" transform="translate(-2114.499 -224.993)" fill="#fff"/>
        <path id="Path_2459" data-name="Path 2459" d="M2802.211,251.353v7.413h6.719v3.573h-6.719v13.919c0,3.2.906,5.013,3.52,5.013a10.451,10.451,0,0,0,2.72-.32l.213,3.52a11.483,11.483,0,0,1-4.159.64,6.5,6.5,0,0,1-5.066-1.973c-1.333-1.386-1.813-3.68-1.813-6.72V262.339h-4v-3.573h4V252.58Z" transform="translate(-2212.072 -199.028)" fill="#fff"/>
        <path id="Path_2460" data-name="Path 2460" d="M2913.456,25.441A25.442,25.442,0,1,1,2888.015,0a25.441,25.441,0,0,1,25.441,25.441" transform="translate(-2266.667 0)" fill="#e33f40"/>
        <path id="Path_2461" data-name="Path 2461" d="M2926.65,88.324h0a2.468,2.468,0,0,1-1.745-.723l-6.235-6.235a2.468,2.468,0,0,1,3.49-3.489l4.49,4.49,17.5-17.5a2.468,2.468,0,0,1,3.49,3.49L2928.395,87.6a2.468,2.468,0,0,1-1.745.723" transform="translate(-2310.514 -50.794)" fill="#fff"/>
        <path id="Path_2462" data-name="Path 2462" d="M1946.072,1670.856l-2.779,18.5-18.825,112.865h-3.034l13.689-112.865,2.023-18.5Z" transform="translate(-1521.446 -1323.031)" fill="#3f1111"/>
        <path id="Path_2463" data-name="Path 2463" d="M1989.215,1670.856h8.926l-2.779,18.5h-8.17Z" transform="translate(-1573.515 -1323.031)" fill="#100"/>
        <path id="Path_2464" data-name="Path 2464" d="M2230.049,1799.042h-3.034l-18.825-109.685-2.779-18.5h8.927l2.022,18.5Z" transform="translate(-1746.307 -1323.032)" fill="#3f1111"/>
        <path id="Path_2465" data-name="Path 2465" d="M2214.337,1670.856l2.022,18.5h-8.17l-2.779-18.5Z" transform="translate(-1746.307 -1323.031)" fill="#100"/>
        <path id="Path_2466" data-name="Path 2466" d="M2501.287,1799.042h-3.034l-18.825-109.685-2.779-18.5h8.926l2.023,18.5Z" transform="translate(-1961.081 -1323.032)" fill="#3f1111"/>
        <path id="Path_2467" data-name="Path 2467" d="M2487.6,1686.678h-8.17l-2.779-18.5h8.926Z" transform="translate(-1961.081 -1320.91)" fill="#100"/>
        <path id="Path_2468" data-name="Path 2468" d="M2047.194,1134.083H1909.253v-16.137h51.638l17.355-135.959h63.689Z" transform="translate(-1511.801 -777.565)" fill="#3f1111"/>
        <path id="Path_2469" data-name="Path 2469" d="M2039.158,1635.1h-129.9v16.136h130.422Z" transform="translate(-1511.801 -1294.72)" fill="#562020"/>
        <path id="Path_2470" data-name="Path 2470" d="M2524.642,1134.083h-7.52l-4.9-152.1h7.161Z" transform="translate(-1989.249 -777.565)" fill="#562020"/>
        <path id="Path_2471" data-name="Path 2471" d="M1774.516,2072.762c1.943.659,39.994.95,42.124-.4.255-.151,1.343-4.447,1.361-11.546l0-.135c.014-1.673-2.974-37.63-4.311-44.955-6.155.2-8.632,3.218-16.717,3.777l1.111,35.655s-20.5,10.688-21.129,11.187c-2.16,1.733-4.395,5.782-2.438,6.419" transform="translate(-1404.517 -1596.108)" fill="#fbc5a9"/>
        <path id="Path_2472" data-name="Path 2472" d="M1767.93,2219.368c2.008.66,43.847.689,46.028-.705.83-.524-.044-9.45-.882-19.229l-20.533-.2s-20.433,10.126-22.661,11.912-3.959,7.561-1.951,8.221" transform="translate(-1399.198 -1741.417)" fill="#0077b4"/>
        <path id="Path_2473" data-name="Path 2473" d="M1774.608,2284.159c9.617-.287,31.2-.278,40.733.169.077,0,.077.056,0,.06-9.526.492-31.114.169-40.733-.072-.2-.005-.2-.152,0-.158" transform="translate(-1405.065 -1808.508)" fill="#fff"/>
        <path id="Path_2474" data-name="Path 2474" d="M1798.121,2246.42a7.729,7.729,0,0,1,5.767,2.319,7.488,7.488,0,0,1,2.177,5.125c0,.057-.107.059-.116,0a8.929,8.929,0,0,0-7.827-7.323.06.06,0,0,1,0-.121" transform="translate(-1423.758 -1778.774)" fill="#fff"/>
        <path id="Path_2475" data-name="Path 2475" d="M1828.2,2154.261c2.092,2.669,5.266,4.34,8.017,6.222a.47.47,0,0,0,.691-.314.1.1,0,0,0,.12-.111,20.2,20.2,0,0,0-3.55-9.827c-1.21-1.672-3.674-3.238-5.614-1.612-1.835,1.538-.884,4.083.337,5.642m-.2-3.189c.361-4.191,4.157-.993,5,.275a21.686,21.686,0,0,1,1.42,2.589,60.541,60.541,0,0,1,2.2,5.693c-1.295-1.007-2.664-1.895-3.995-2.853-1.586-1.142-4.824-3.394-4.625-5.7" transform="translate(-1446.543 -1700.796)" fill="#fff"/>
        <path id="Path_2476" data-name="Path 2476" d="M1886,2183.575c-.315-2.512-3.186-3.041-5.21-2.64a20.2,20.2,0,0,0-9.289,4.784.1.1,0,0,0,.012.162.47.47,0,0,0,.292.7c3.3.493,6.759,1.43,10.108.9,1.955-.311,4.384-1.528,4.086-3.9m-9.044,2.733c-1.627-.2-3.234-.485-4.869-.628a60.51,60.51,0,0,1,5.486-2.675,21.751,21.751,0,0,1,2.8-.931c1.481-.355,6.438-.115,3.85,3.2-1.426,1.828-5.331,1.275-7.271,1.032" transform="translate(-1481.875 -1726.831)" fill="#fff"/>
        <path id="Path_2477" data-name="Path 2477" d="M1851.108,2200.458c3.85-.073,8.321,1.262,10.729,4.4.094.122-.081.252-.2.194a53.24,53.24,0,0,0-10.6-4.118.242.242,0,0,1,.064-.474" transform="translate(-1465.571 -1742.383)" fill="#fff"/>
        <path id="Path_2478" data-name="Path 2478" d="M1836.861,2206.1c3.85-.074,8.32,1.262,10.729,4.4.093.122-.081.252-.2.194a53.188,53.188,0,0,0-10.6-4.117.242.242,0,0,1,.064-.475" transform="translate(-1454.29 -1746.85)" fill="#fff"/>
        <path id="Path_2479" data-name="Path 2479" d="M1822.612,2211.74c3.849-.074,8.32,1.262,10.73,4.4.094.121-.081.252-.2.194a53.224,53.224,0,0,0-10.6-4.118.242.242,0,0,1,.064-.474" transform="translate(-1443.008 -1751.316)" fill="#fff"/>
        <path id="Path_2480" data-name="Path 2480" d="M1808.365,2217.381c3.85-.074,8.32,1.261,10.729,4.4.093.121-.081.252-.2.194a53.2,53.2,0,0,0-10.6-4.118.242.242,0,0,1,.064-.474" transform="translate(-1431.726 -1755.783)" fill="#fff"/>
        <path id="Path_2481" data-name="Path 2481" d="M2090.1,2070.04c1.94.669,39.989,1.16,42.125-.181.255-.149,1.366-4.44,1.422-11.539v-.135c.023-1.673-2.777-37.645-4.074-44.977-6.156.163-8.649,3.173-16.737,3.69l.924,35.66s-20.555,10.58-21.188,11.076c-2.169,1.722-4.425,5.759-2.472,6.406" transform="translate(-1654.409 -1594.115)" fill="#fbc5a9"/>
        <path id="Path_2482" data-name="Path 2482" d="M2083.494,2216.321c2,.671,43.842.92,46.031-.463.833-.52.005-9.45-.781-19.233l-20.532-.306s-20.486,10.018-22.723,11.792-4,7.54-1.995,8.21" transform="translate(-1649.078 -1739.107)" fill="#0077b4"/>
        <path id="Path_2483" data-name="Path 2483" d="M2090.193,2280.939c9.619-.236,31.206-.114,40.732.383.078,0,.078.057,0,.06-9.529.442-31.115.006-40.732-.286-.2-.006-.2-.153,0-.158" transform="translate(-1654.953 -1806.02)" fill="#fff"/>
        <path id="Path_2484" data-name="Path 2484" d="M2113.908,2243.029a7.728,7.728,0,0,1,5.755,2.349,7.49,7.49,0,0,1,2.149,5.136c0,.057-.108.059-.116,0a8.929,8.929,0,0,0-7.788-7.364.06.06,0,0,1,0-.121" transform="translate(-1673.807 -1776.089)" fill="#fff"/>
        <path id="Path_2485" data-name="Path 2485" d="M2202.015,2180.851c-.3-2.514-3.17-3.057-5.2-2.667a20.2,20.2,0,0,0-9.314,4.735.1.1,0,0,0,.012.163.469.469,0,0,0,.288.7c3.293.511,6.751,1.465,10.1.95,1.957-.3,4.392-1.505,4.107-3.883m-9.058,2.686c-1.626-.212-3.232-.5-4.865-.654a60.572,60.572,0,0,1,5.5-2.646,21.763,21.763,0,0,1,2.807-.916c1.482-.347,6.439-.081,3.833,3.222-1.436,1.821-5.338,1.247-7.276.995" transform="translate(-1732.091 -1724.657)" fill="#fff"/>
        <path id="Path_2486" data-name="Path 2486" d="M2167.132,2197.348c3.85-.053,8.314,1.305,10.706,4.454.093.122-.082.252-.2.193a53.237,53.237,0,0,0-10.576-4.173.242.242,0,0,1,.066-.474" transform="translate(-1715.807 -1739.922)" fill="#fff"/>
        <path id="Path_2487" data-name="Path 2487" d="M2152.855,2202.915c3.85-.053,8.314,1.305,10.707,4.454.092.122-.082.252-.2.193a53.237,53.237,0,0,0-10.576-4.173.242.242,0,0,1,.066-.474" transform="translate(-1704.502 -1744.33)" fill="#fff"/>
        <path id="Path_2488" data-name="Path 2488" d="M2138.577,2208.481c3.85-.054,8.314,1.305,10.706,4.454.093.122-.082.252-.2.193a53.218,53.218,0,0,0-10.576-4.173.242.242,0,0,1,.067-.474" transform="translate(-1693.197 -1748.737)" fill="#fff"/>
        <path id="Path_2489" data-name="Path 2489" d="M2124.3,2214.047c3.85-.054,8.313,1.305,10.706,4.454.093.122-.082.252-.2.193a53.212,53.212,0,0,0-10.576-4.173.242.242,0,0,1,.066-.474" transform="translate(-1681.892 -1753.145)" fill="#fff"/>
        <path id="Path_2490" data-name="Path 2490" d="M2144.415,2151.078c2.078,2.681,5.243,4.368,7.984,6.264a.47.47,0,0,0,.692-.311.1.1,0,0,0,.12-.11,20.2,20.2,0,0,0-3.5-9.845c-1.2-1.678-3.657-3.257-5.606-1.641-1.843,1.529-.906,4.078.307,5.643m-.178-3.189c.383-4.189,4.162-.971,5,.3a21.782,21.782,0,0,1,1.406,2.6,60.487,60.487,0,0,1,2.17,5.7c-1.29-1.014-2.654-1.908-3.98-2.873-1.58-1.151-4.806-3.42-4.594-5.729" transform="translate(-1696.944 -1698.282)" fill="#fff"/>
        <path id="Path_2491" data-name="Path 2491" d="M1831.625,1426.593l5.248,98.618c8.84,2.55,20.937,1.389,29.42,0,5.967-.981,10.145-2.076,10.145-2.076s-2.018-84.041-.358-87.637,31.538-19.413,31.538-19.413c17.428-16.321,20.122-52.811,20.122-52.811h-29.692l-2.515,5.955a29,29,0,0,1-14.067,14.82c-8.861,4.294-21.993,10.412-32.137,14.093-16.874,6.124-17.7,28.454-17.7,28.454" transform="translate(-1450.333 -1079.477)" fill="#1f1f1f"/>
        <path id="Path_2492" data-name="Path 2492" d="M1987.813,1545.849c5.967-.981,10.145-2.076,10.145-2.076s-2.018-84.041-.358-87.637,31.538-19.413,31.538-19.413c17.428-16.321,17.838-46.195,17.838-46.195l-14.31-1.19c-2.427,8.448-7.626,24.172-13.606,27.948-8.282,5.23-30.391,25.642-33,33.543-2,6.045-.653,65.783,1.753,95.019" transform="translate(-1571.853 -1100.118)" fill="#121212"/>
        <path id="Path_2493" data-name="Path 2493" d="M2205.444,1363.271s1.392,10.679,2.97,21.317c4.56,30.746-27.4,41.8-32.586,55.56l3.872,89.623s-25.107,2.2-40.286-.252c0,0-6.787-89.121-6.787-96.871,0-4.8-.471-20.232,6.048-29.47,9.264-13.128,22.128-29,27.4-39.906Z" transform="translate(-1688.668 -1079.477)" fill="#303030"/>
        <path id="Path_2494" data-name="Path 2494" d="M2300.319,1530.158c-.015-.241-1.477-24.4-2.506-48.771-2.088-49.446-.419-51.519.13-52.2a78.025,78.025,0,0,1,5.954-5.835c7.165-6.654,17.993-16.71,22.5-25.812,6.165-12.462-1.743-34.448-1.823-34.669l.782-.286a83.265,83.265,0,0,1,3.291,12.781c1.143,6.587,1.81,15.845-1.5,22.543-4.571,9.24-15.467,19.358-22.676,26.053a78.264,78.264,0,0,0-5.872,5.747c-.755.938-1.751,8.893.054,51.643,1.029,24.359,2.49,48.514,2.5,48.755Z" transform="translate(-1818.665 -1078.933)" fill="#121212"/>
        <path id="Path_2495" data-name="Path 2495" d="M2353.977,1371.055c.239,1.122.4,2.258.7,3.368.287,1.087.616,2.172,1.008,3.226a11.616,11.616,0,0,0,1.473,2.889,10.972,10.972,0,0,0,2.273,2.182,18.867,18.867,0,0,0,5.426,2.814,24.973,24.973,0,0,0,2.992.781c.527.1,1.059.178,1.594.23a3.357,3.357,0,0,1,1.286.258.258.258,0,0,1-.011.443,4.616,4.616,0,0,1-2.358.145,17.317,17.317,0,0,1-2.535-.369,18.277,18.277,0,0,1-4.827-1.868,15.024,15.024,0,0,1-4.082-3.142,11.319,11.319,0,0,1-2.269-4.608,23.066,23.066,0,0,1-.883-6.324.111.111,0,0,1,.218-.024" transform="translate(-1863.77 -1085.575)"/>
        <path id="Path_2496" data-name="Path 2496" d="M2114.523,991.985l3.565-19.044,5.614,21.073Zm24.964-46.191c-4.438-6.811-10.89-11-17.846-13.51h0c-12.324-4.448-19.352-3.619-26.434-2.754-2.928.357-4.691.722-4.691.722l-.731.019-25.682.677s-1.441-.131-4.322-.09a125.251,125.251,0,0,0-13.012.945c-11.556,1.382-18.377,13.375-21.76,23.527-3.838,11.519-15.064,63.95-15.064,63.95h147.118c1.291-.082-4.891-.126-4.891-.126,4.54-2.271,5.414-10.661,5.414-10.661,2.731-19.534-2.54-38.828-18.1-62.7" transform="translate(-1591.531 -735.485)" fill="#fe4565"/>
        <path id="Path_2497" data-name="Path 2497" d="M2392.581,1021.574s-.874,8.391-5.414,10.661l-1.985.126h-76.789c-.443-4.954-1.565-14.731-1.565-14.731s-1.067-2.534,3.467-3.068,4.666-1.467,5.6-5.067,10.667-8.533,23.068-6.4,19.734,4,19.734,4l-10.8-40.536a30.261,30.261,0,0,1,.8-13.467,12.431,12.431,0,0,1,7.938-7.728h0c6.955,2.51,13.407,6.7,17.845,13.51,8.4,12.887,13.8,24.441,16.564,35.418a70.09,70.09,0,0,1,1.535,27.281" transform="translate(-1826.526 -748.567)" fill="#fe4565"/>
        <path id="Path_2498" data-name="Path 2498" d="M2345.082,1159.718c-2.909-.589-6.454-1.265-10.552-1.969-12.4-2.134-22.135,2.8-23.068,6.4s-1.066,4.534-5.6,5.067c-4.444.523-3.507,2.967-3.468,3.065-4.566-6,4.528-6.308,5.572-11.035,1.485-6.725,18.524-11.656,29.243-7.7,4.5,1.66,11.441-12.867,11.441-12.867s-3.67,18.987-3.569,19.042" transform="translate(-1822.092 -903.219)" fill="#ca3253"/>
        <path id="Path_2499" data-name="Path 2499" d="M2398.948,1207.683s-.874,8.391-5.414,10.661l-1.985.126H2314.76s45.779-2.7,57.833-5.366,26.368-12.48,24.82-32.7v0a70.094,70.094,0,0,1,1.535,27.281" transform="translate(-1832.893 -934.676)" fill="#ca3253"/>
        <path id="Path_2500" data-name="Path 2500" d="M2527.84,1040.182l-14.076-3.69-10.8-40.536a30.258,30.258,0,0,1,.8-13.467c-1.564,9.563,6.841,26.389,11.672,37.432a98.455,98.455,0,0,0,12.4,20.261" transform="translate(-1981.593 -777.963)" fill="#ca3253"/>
        <rect id="Rectangle_1788" data-name="Rectangle 1788" width="7.947" height="0.613" transform="translate(480.55 271.086) rotate(-2.996)" fill="#fff"/>
        <path id="Path_2501" data-name="Path 2501" d="M2310.663,1321.782l-.113-.6c.6-.112,7.213-.506,7.494-.523l.037.612c-1.906.114-6.953.427-7.417.514" transform="translate(-1829.559 -1045.733)" fill="#fff"/>
        <path id="Path_2502" data-name="Path 2502" d="M2319.849,1341.958a48.39,48.39,0,0,0-7.389-.027l-.253-.559c.771-.349,6.527-.084,7.673-.027Z" transform="translate(-1830.87 -1061.996)" fill="#fff"/>
        <path id="Path_2503" data-name="Path 2503" d="M2255.4,946.64c-6.884-3.7-6.84-10.44-6.5-13.177,2.881-.041,4.322.09,4.322.09l25.682-.677.732-.019s1.762-.365,4.691-.722c-1.317,13.961-20.691,18.929-28.927,14.5" transform="translate(-1780.653 -738.091)" fill="#fff"/>
        <path id="Path_2504" data-name="Path 2504" d="M2158.933,1116.073h-8.4c0-1.073-6.231-49.5,1.941-64.989,0,0-1.5,43.239,6.464,64.989" transform="translate(-1701.05 -832.278)" fill="#ca3253"/>
        <path id="Path_2505" data-name="Path 2505" d="M2304.066,1047.548a2.241,2.241,0,1,1-2.241-2.241,2.241,2.241,0,0,1,2.241,2.241" transform="translate(-1820.876 -827.704)" fill="#fff"/>
        <path id="Path_2506" data-name="Path 2506" d="M2308.362,1101.772a2.241,2.241,0,1,1-2.241-2.241,2.241,2.241,0,0,1,2.241,2.241" transform="translate(-1824.278 -870.64)" fill="#fff"/>
        <path id="Path_2507" data-name="Path 2507" d="M2228.433,1283.769s0,.434-3.542,0a14.019,14.019,0,0,1-6.226-2.68c-.159-.119-.244-.19-.244-.19l-3.625,2.219h-5.665l-.9-3.8,3.565-4.462-4.146,2-1.543-6.531c1.737-4.305,5.514-2.794,5.514-2.794l15.434,4.463,1.116,9.546Z" transform="translate(-1746.86 -1003.463)" fill="#fbc5a9"/>
        <path id="Path_2508" data-name="Path 2508" d="M2263.969,1323.39a.337.337,0,0,1-.226-.586l2.435-2.207a.337.337,0,1,1,.452.5l-2.435,2.207a.336.336,0,0,1-.226.087" transform="translate(-1792.408 -1045.618)" fill="#f7a18a"/>
        <path id="Path_2509" data-name="Path 2509" d="M2219.34,1313.914a.336.336,0,0,1-.241-.571l7.308-7.5a.337.337,0,0,1,.482.469l-7.308,7.5a.335.335,0,0,1-.241.1" transform="translate(-1757.07 -1033.922)" fill="#f7a18a"/>
        <path id="Path_2510" data-name="Path 2510" d="M2208.307,1286.067a.336.336,0,0,1-.176-.624l4.152-2.536a.336.336,0,1,1,.351.574l-4.152,2.536a.337.337,0,0,1-.175.049" transform="translate(-1748.334 -1015.804)" fill="#f7a18a"/>
        <path id="Path_2511" data-name="Path 2511" d="M2276.19,1331.5s0,.434-3.542,0a14.019,14.019,0,0,1-6.226-2.68c.972-.953,3.825-1.805,5.461-.85a13.885,13.885,0,0,0,4.047,1.3Z" transform="translate(-1794.617 -1051.191)" fill="#f7a18a"/>
        <path id="Path_2512" data-name="Path 2512" d="M2251.121,659.224a8.31,8.31,0,0,0-7.447-6.787c.754-4.9-4.053-8.578-11.5-7.824s-9.333-3.3-17.817-4.336-12.255,7.164-10.275,14.234,10.275,7.73,10.275,7.73l.66,23.472,20.639.566c5.365,0,9.715-4.073,9.715-9.1a8.54,8.54,0,0,0-.314-2.26c4.138-4.15,6.912-11.267,6.065-15.7" transform="translate(-1744.845 -506.919)" fill="#00184c"/>
        <path id="Path_2513" data-name="Path 2513" d="M2264.47,731.362a5.939,5.939,0,0,0-5.493,3.684c-1.795-1.65-3.432-4.5-3.557-9.434,0,0-6.994,3.042-9.615.471a8.8,8.8,0,0,1-2.545-6.222,7.076,7.076,0,0,1-8.424,3.541l-2.384,21.795s-1.938,9.721,9.511,11.831l-1.154,6.268s-.745,11.069,8.924,11.5c14.077.628,14.077-11.5,14.077-11.5l-2.039-20.71a5.937,5.937,0,1,0,2.7-11.224" transform="translate(-1767.621 -570.006)" fill="#fbc5a9"/>
        <path id="Path_2514" data-name="Path 2514" d="M2264.959,725.611s-6.994,3.042-9.615.471a8.793,8.793,0,0,1-2.545-6.222,7.076,7.076,0,0,1-8.424,3.541s3.71,2.807,7.984,1.676c0,0,2.894,5.907,8.549,5.153,0,0,3.278,5.608,7.608,4.815-1.795-1.65-3.432-4.5-3.557-9.434" transform="translate(-1777.16 -570.006)" fill="#f7a18a"/>
        <path id="Path_2515" data-name="Path 2515" d="M2276.65,869.26s10.158,1.577,14.023-7.661c0,0-.8,12.1-14.538,13.119Z" transform="translate(-1802.308 -682.239)" fill="#f7a18a"/>
        <path id="Path_2516" data-name="Path 2516" d="M2373.661,797.394a.434.434,0,0,1-.193-.045l-4.445-2.193a.436.436,0,0,1-.009-.778l6.128-3.205a.437.437,0,0,1,.4.774l-5.366,2.807,3.674,1.812a.437.437,0,0,1-.194.828" transform="translate(-1875.668 -626.434)" fill="#f7a18a"/>
        <path id="Path_2517" data-name="Path 2517" d="M2252.53,788.414a.556.556,0,0,1-.2-.037l-3.22-1.235a2.069,2.069,0,0,1-1.023-3.014l3.965-6.466a.561.561,0,0,1,.957.586l-3.966,6.466a.947.947,0,0,0,.469,1.38l3.22,1.235a.561.561,0,0,1-.2,1.085" transform="translate(-1779.857 -615.562)" fill="#f7a18a"/>
        <path id="Path_2518" data-name="Path 2518" d="M2261.561,835.795h-.078a10.462,10.462,0,0,1-2.737-.385.436.436,0,0,1,.257-.834c.044.013,4.36,1.3,6.685-1.2a.437.437,0,0,1,.639.595,6.3,6.3,0,0,1-4.766,1.824" transform="translate(-1788.296 -659.78)" fill="#7c2c19"/>
        <path id="Path_2519" data-name="Path 2519" d="M2249.064,769.444c0,.807-.464,1.461-1.037,1.461s-1.037-.654-1.037-1.461.464-1.461,1.037-1.461,1.037.654,1.037,1.461" transform="translate(-1779.231 -608.111)" fill="#00184c"/>
        <path id="Path_2520" data-name="Path 2520" d="M2298.092,776.974c0,.807-.464,1.461-1.037,1.461s-1.037-.654-1.037-1.461.464-1.461,1.037-1.461,1.037.654,1.037,1.461" transform="translate(-1818.052 -614.073)" fill="#00184c"/>
        <path id="Path_2521" data-name="Path 2521" d="M2294.277,758.472a1.185,1.185,0,0,1-.992-.533,3.476,3.476,0,0,0-3.821-1.492,1.188,1.188,0,0,1-.662-2.282,5.894,5.894,0,0,1,6.464,2.464,1.188,1.188,0,0,1-.99,1.843" transform="translate(-1811.667 -597.013)" fill="#00184c"/>
        <path id="Path_2522" data-name="Path 2522" d="M2240.12,751.913a1.185,1.185,0,0,1-.369-.059,5.4,5.4,0,0,0-3.36-.03,1.188,1.188,0,1,1-.9-2.2,7.752,7.752,0,0,1,5-.03,1.188,1.188,0,0,1-.368,2.318" transform="translate(-1769.541 -593.24)" fill="#00184c"/>
        <path id="Path_2523" data-name="Path 2523" d="M2233.693,663.329s-3.271.456-3.424,3.5,2.663,5.4,7.532,4.032c0,0,5.1,5.63,11.565.3,0,0-5.479,3.5-10.348-3.043,0,0-4.108,2.511-6.163-.457s.837-4.337.837-4.337" transform="translate(-1765.986 -525.243)" fill="#00386e"/>
        <g id="Group_34943" data-name="Group 34943" transform="translate(477.071 166.029)" opacity="0.5">
          <g id="Group_34942" data-name="Group 34942">
            <g id="Group_34941" data-name="Group 34941" clip-path="url(#clip-path-15)">
              <path id="Path_2524" data-name="Path 2524" d="M2302.307,800.524c-.119,1.358-2.583,2.253-5.5,2s-5.193-1.563-5.074-2.921,2.583-2.253,5.5-2,5.193,1.563,5.074,2.921" transform="translate(-2291.723 -797.56)" fill="#f3888a"/>
            </g>
          </g>
        </g>
        <rect id="Rectangle_1790" data-name="Rectangle 1790" width="330.201" height="11.743" transform="translate(287.451 283.812)" fill="#0077b4"/>
        <rect id="Rectangle_1791" data-name="Rectangle 1791" width="306.563" height="11.739" transform="translate(299.27 295.558)" fill="#04577c"/>
        <path id="Path_2525" data-name="Path 2525" d="M2829.563,1640.934h4.747l-13.815-164.763h-12.114Z" transform="translate(-2223.756 -1168.874)" fill="#074878"/>
        <path id="Path_2526" data-name="Path 2526" d="M2808.394,1476.187l1.418,11.024h11.614l-.921-11.024Z" transform="translate(-2223.766 -1168.886)" fill="#0f3756"/>
        <path id="Path_2527" data-name="Path 2527" d="M1419.677,1640.934h-4.746l13.814-164.763h12.114Z" transform="translate(-1120.382 -1168.874)" fill="#074878"/>
        <path id="Path_2528" data-name="Path 2528" d="M1489.9,1476.187l-1.418,11.024h-11.613l.921-11.024Z" transform="translate(-1169.429 -1168.886)" fill="#0f3756"/>
        <path id="Path_2529" data-name="Path 2529" d="M1913.108,1149.292H1807.995a4.678,4.678,0,0,1-4.6-3.826l-.8-4.327-8.256-44.587a2.96,2.96,0,0,1,2.892-3.537h69.482a3.129,3.129,0,0,1,3.023,2.322l13.3,49.816s23.937,1.431,26.723,1.562a3.528,3.528,0,0,1,3.353,2.577" transform="translate(-1420.762 -865.48)" fill="#1f00bd"/>
        <path id="Path_2530" data-name="Path 2530" d="M1828.446,1131.048c-12.12,7.155-20.96,9.406-25.852,10.091l-8.256-44.587a2.96,2.96,0,0,1,2.892-3.537h43.557c1.3,9.651,1.991,29.571-12.342,38.033" transform="translate(-1420.762 -865.48)" fill="#005aff"/>
        <path id="Path_2531" data-name="Path 2531" d="M2150.967,1145.153h-3.522s-11.219-42.454-12.894-47.789a17.946,17.946,0,0,0-1.9-4.349h1.992a3.128,3.128,0,0,1,3.023,2.322Z" transform="translate(-1688.697 -865.48)" fill="#121a78"/>
        <path id="Path_2532" data-name="Path 2532" d="M1967.833,1195.135c.844,5.283-1.878,10.109-6.078,10.78s-8.288-3.068-9.132-8.351,1.877-10.109,6.078-10.78,8.288,3.068,9.132,8.351" transform="translate(-1546.021 -939.668)" fill="#121a78"/>
        <rect id="Rectangle_1792" data-name="Rectangle 1792" width="114.869" height="152.49" transform="translate(217.739 322.149) rotate(-0.376)" fill="#eb5648"/>
        <path id="Path_2533" data-name="Path 2533" d="M1052.6,1502.9l-6.645,9.287,1,152.486,6.645-9.287Z" transform="translate(-828.219 -1190.042)" fill="#ef3b24"/>
        <path id="Path_2534" data-name="Path 2534" d="M1065.591,2232.607l112.179-.736-3.982,5.59-112.691,1.426Z" transform="translate(-840.208 -1767.259)" fill="#ffdcdc"/>
        <rect id="Rectangle_1793" data-name="Rectangle 1793" width="114.869" height="152.49" transform="translate(224.383 312.862) rotate(-0.376)" fill="#ed6623"/>
        <path id="Path_2535" data-name="Path 2535" d="M1110.533,1555.685a1.279,1.279,0,0,0,1.7-1.212l-.132-20.024,23.4-.154a1.277,1.277,0,1,0-.016-2.553l-24.672.162a1.277,1.277,0,0,0-1.269,1.285l.14,21.3a1.278,1.278,0,0,0,.85,1.2" transform="translate(-878.568 -1212.877)" fill="#ffaf32"/>
        <path id="Path_2536" data-name="Path 2536" d="M1114.208,2116.369a1.275,1.275,0,0,0,.435.073l19.43-.128a1.277,1.277,0,0,0-.016-2.553l-18.154.119-.128-19.524a1.277,1.277,0,0,0-2.554.017l.136,20.8a1.277,1.277,0,0,0,.85,1.2" transform="translate(-881.48 -1657.367)" fill="#ffaf32"/>
        <path id="Path_2537" data-name="Path 2537" d="M1496.009,2115.1a1.278,1.278,0,0,0,.435.073l19.856-.13a1.276,1.276,0,0,0,1.268-1.286l-.138-20.345a1.277,1.277,0,1,0-2.553.018l.129,19.068-18.579.122a1.277,1.277,0,0,0-.418,2.48" transform="translate(-1183.909 -1656.623)" fill="#ffaf32"/>
        <path id="Path_2538" data-name="Path 2538" d="M1502.968,1551.376a1.277,1.277,0,0,0,1.7-1.212l-.132-19.5a1.276,1.276,0,0,0-1.285-1.268l-22.1.145a1.277,1.277,0,1,0,.016,2.553l20.827-.136.124,18.226a1.277,1.277,0,0,0,.85,1.195" transform="translate(-1171.813 -1211.017)" fill="#ffaf32"/>
        <path id="Path_2539" data-name="Path 2539" d="M1244.92,1735.588a37.282,37.282,0,1,1-37.282-37.282,37.282,37.282,0,0,1,37.282,37.282" transform="translate(-926.721 -1344.767)" fill="#ffaf32"/>
        <path id="Path_2540" data-name="Path 2540" d="M1331.939,1762.137a8.621,8.621,0,1,1-8.621-8.621,8.621,8.621,0,0,1,8.621,8.621" transform="translate(-1041.014 -1388.484)" fill="#fff"/>
        <path id="Path_2541" data-name="Path 2541" d="M1319.964,1851.067v31.262h-18.592l1.874-5.248h3.748v-20.316h-4.648l1.81-5.709Z" transform="translate(-1030.463 -1465.719)" fill="#fff"/>
        <path id="Path_2542" data-name="Path 2542" d="M1158.012,2249.6a45.945,45.945,0,0,0-10.483-.491s6.605,4.431,6.289,14.2l5.045-6.671,6.956,4.791s-2.186-9.724-7.808-11.829" transform="translate(-908.646 -1780.828)" fill="#fcc700"/>
        <path id="Path_2543" data-name="Path 2543" d="M2930.828,679.115a58.7,58.7,0,1,1-58.695-58.695,58.695,58.695,0,0,1,58.695,58.695" transform="translate(-2227.76 -491.266)" fill="#ed6623"/>
        <path id="Path_2544" data-name="Path 2544" d="M2993.906,763.692a36.2,36.2,0,1,0-38.891,36.689,14.469,14.469,0,0,0,5.795-.035,36.236,36.236,0,0,0,33.1-36.654m-13.72-1.407a53.23,53.23,0,0,0-3.181-16.09,52.962,52.962,0,0,0,5.391-3.665,32.774,32.774,0,0,1,8.174,19.582Zm-21.373-30.361c5.4.807,10.208,5.433,13.47,12.283a34.538,34.538,0,0,1-13.2,3.729Zm-3,16.068a33.911,33.911,0,0,1-8.186-1.308,37.406,37.406,0,0,1-5.573-2.1c3.126-7.1,7.95-11.9,13.492-12.673Zm-9.465,2.517a37.431,37.431,0,0,0,9.531,1.489l.177,10.688-17.749.294a50.281,50.281,0,0,1,2.313-14.61,41.782,41.782,0,0,0,5.728,2.138m9.763,15.445.177,10.691a37.472,37.472,0,0,0-9.476,1.8,41.851,41.851,0,0,0-5.728,2.363,50.512,50.512,0,0,1-2.729-14.561Zm-7.894,16.273a33.884,33.884,0,0,1,8.138-1.58l.271,16.333c-5.619-.594-10.643-5.319-14-12.424a37.457,37.457,0,0,1,5.595-2.329m11.406-1.633a34.566,34.566,0,0,1,13.419,3.333c-3.03,7.07-7.727,11.939-13.149,12.935Zm-.066-3.991-.178-10.7,17.264-.286a50.563,50.563,0,0,1-2.215,14.549,38.89,38.89,0,0,0-14.872-3.559m-.232-13.971-.177-10.7a38.871,38.871,0,0,0,14.674-4.014,50.343,50.343,0,0,1,2.762,14.428Zm16.087-20.163a37.271,37.271,0,0,0-1.991-3.6,28.831,28.831,0,0,0-4.459-5.518,32.985,32.985,0,0,1,10.571,6.3,49.756,49.756,0,0,1-4.12,2.817m-34.722-3.055a37.342,37.342,0,0,0-1.8,3.516,40.108,40.108,0,0,1-3.814-2.513,33.009,33.009,0,0,1,9.593-6.346,29.136,29.136,0,0,0-3.974,5.344m-3.3,7.312a53.175,53.175,0,0,0-2.687,16.314l-9.892.164a32.77,32.77,0,0,1,7.5-19.816,43.135,43.135,0,0,0,5.082,3.337m-2.637,19.582a53.383,53.383,0,0,0,3.158,16.26,43.11,43.11,0,0,0-4.9,3.46,32.773,32.773,0,0,1-8.151-19.557Zm4.759,20.02a37.355,37.355,0,0,0,2.017,3.649,29.678,29.678,0,0,0,3.727,4.789,33.018,33.018,0,0,1-9.38-5.858,39.958,39.958,0,0,1,3.636-2.579m34.747,3.106a37.568,37.568,0,0,0,1.963-3.863q2.064,1.174,4.115,2.626a33,33,0,0,1-9.958,6.482,29.282,29.282,0,0,0,3.881-5.245m3.411-7.65a53.437,53.437,0,0,0,2.576-16.231l10.38-.172a32.773,32.773,0,0,1-7.523,19.847,53.034,53.034,0,0,0-5.433-3.443" transform="translate(-2313.343 -576.529)" fill="#fff"/>
      </g>
    </g>
  </g>
</svg>
