<svg id="Group_14156" data-name="Group 14156" xmlns="http://www.w3.org/2000/svg" xmlns:xlink="http://www.w3.org/1999/xlink" width="58.001" height="64.198" viewBox="0 0 58.001 64.198">
  <defs>
    <clipPath id="clip-path">
      <rect id="Rectangle_6925" data-name="Rectangle 6925" width="58.001" height="64.198" fill="#d7ff35"/>
    </clipPath>
  </defs>
  <g id="Group_14156-2" data-name="Group 14156" transform="translate(0 0)" clip-path="url(#clip-path)">
    <path id="Path_146" data-name="Path 146" d="M46.88,47.333c2.1.113,4.054.223,6.012.323a3.264,3.264,0,0,1,2.326.9,2.656,2.656,0,0,1,.638,2.936A2.555,2.555,0,0,1,53.4,53.312c-4.223.037-8.446.023-12.669,0A3.543,3.543,0,0,1,39.535,53c-.856-.329-1.7-.7-2.615-1.076a4.249,4.249,0,0,0,.509,2.944,27.864,27.864,0,0,1,1.471,2.5,1.278,1.278,0,0,1-.175,1.648l-.279.308c-1.3,1.43-1.3,1.43-1.222,3.342a.993.993,0,0,0,.249.535c.4.477.824.935,1.246,1.393a1.273,1.273,0,0,1,.183,1.645c-.6,1.037-1.2,2.079-1.8,3.114A1.243,1.243,0,0,1,35.577,70a2.626,2.626,0,0,1-.473-.1c-1.31-.648-2.38-.021-3.43.652a.992.992,0,0,0-.324.5c-.21.585-.39,1.182-.581,1.773a1.271,1.271,0,0,1-1.291.956c-1.223.013-2.446.017-3.669,0a1.234,1.234,0,0,1-1.264-.98c-.031-.111-.077-.217-.112-.327-.608-1.876-.605-1.881-2.3-2.788a.956.956,0,0,0-.578-.058c-.635.113-1.264.257-1.895.395a1.214,1.214,0,0,1-1.416-.605c-.633-1.072-1.25-2.154-1.864-3.237A1.21,1.21,0,0,1,16.51,64.7a2.527,2.527,0,0,1,.323-.361,3,3,0,0,0,1.22-3.067,2.794,2.794,0,0,0-.389-1.029,10.668,10.668,0,0,0-1.053-1.192,1.3,1.3,0,0,1-.184-1.706c.5-.856.935-1.758,1.507-2.562a4.156,4.156,0,0,0,.466-2.848c-.89.365-1.7.745-2.544,1.027a5.955,5.955,0,0,1-1.807.359c-3.761.032-7.523.028-11.285.008a2.795,2.795,0,0,1-.437-5.55c1.184-.169,2.39-.185,3.587-.262.8-.052,1.609-.093,2.551-.146-.187-.279-.313-.477-.449-.668C7,45.271,5.975,43.847,4.965,42.415a3.148,3.148,0,1,1,4.945-3.9c1.949,2.154,3.936,4.274,5.912,6.414,2.667-1.608,4.718-4.07,7.793-5.093a5.934,5.934,0,0,1-1.779-5.1,5.7,5.7,0,0,1,2.077-3.718,5.9,5.9,0,0,1,7.78.249,5.991,5.991,0,0,1-.024,8.647A9.851,9.851,0,0,1,35.7,42.163c1.231.932,2.47,1.852,3.744,2.806.572-.613,1.123-1.2,1.666-1.786q2.226-2.42,4.448-4.846a3.132,3.132,0,0,1,4.95,3.821c-1.037,1.526-2.131,3.013-3.2,4.518-.129.182-.245.373-.43.657M34.948,53.7c0-1-.006-1.989,0-2.98.008-1.063.6-1.465,1.578-1.066,1.238.5,2.466,1.029,3.7,1.538.9.371,1.279.27,1.835-.508q3.338-4.675,6.666-9.357c.518-.728.49-1.4-.053-1.849-.567-.466-1.178-.359-1.805.322q-3.144,3.41-6.288,6.822c-.743.8-1.082.834-1.941.188-1.623-1.219-3.287-2.389-4.858-3.671a7.866,7.866,0,0,0-4.656-1.7,23.581,23.581,0,0,0-2.975,0,7.808,7.808,0,0,0-4.592,1.68c-1.61,1.31-3.306,2.513-4.97,3.754-.769.573-1.125.535-1.783-.177q-3.174-3.431-6.339-6.869c-.629-.683-1.231-.816-1.8-.373-.59.456-.622,1.12-.072,1.892q3.329,4.68,6.666,9.357a1.227,1.227,0,0,0,1.78.51c1.257-.517,2.507-1.053,3.767-1.564.934-.379,1.549.023,1.573,1.026.019.761-.011,1.524.013,2.285.009.278.047.752.179.793a2.5,2.5,0,0,0,1.515.184c1.114-.477,2.173-1.114,2.281-2.548a1.959,1.959,0,0,1,.146-.46,1.289,1.289,0,0,1,1.469-1.076c.946-.006,1.892,0,2.838,0,1.552,0,1.682.067,2.131,1.579a3.22,3.22,0,0,0,1.633,2.2,2.646,2.646,0,0,0,2.366.068m-8.658-1.9a6.111,6.111,0,0,0-.252.743,2.928,2.928,0,0,1-2.128,2.594,1.211,1.211,0,0,0-.526.324,2.078,2.078,0,0,1-2.355.445c-.2-.064-.418-.058-.6-.138-.564-.241-.886-.043-1.131.491-.275.6-.9,1.193-.856,1.749.041.517.738,1,1.182,1.465a1.574,1.574,0,0,1,.441,1.443,6.123,6.123,0,0,0,0,1.79,1.606,1.606,0,0,1-.483,1.5c-.447.456-.858.947-1.277,1.415.163.286.285.508.414.725.316.533.522,1.329.983,1.527.492.21,1.231-.123,1.853-.259a1.718,1.718,0,0,1,1.547.336,7.1,7.1,0,0,0,1.549.891,1.6,1.6,0,0,1,1.041,1.184c.058.269.17.525.255.789.33,1.024.33,1.024,1.39,1.024,1.7,0,1.721.006,2.232-1.668a1.9,1.9,0,0,1,1.214-1.373,5.942,5.942,0,0,0,1.479-.877,1.6,1.6,0,0,1,1.417-.321c.648.139,1.429.512,1.922.284s.688-1.092,1.072-1.635a.739.739,0,0,0-.129-1.168,2.929,2.929,0,0,1-1.231-3.191,2.106,2.106,0,0,0-.055-.892,1.669,1.669,0,0,1,.523-1.624c.443-.428.833-.912,1.239-1.362-.371-.643-.734-1.207-1.029-1.805a.727.727,0,0,0-1.032-.453,3.873,3.873,0,0,1-3.417-.435,4.334,4.334,0,0,1-2.364-3.03.745.745,0,0,0-.521-.462c-.778-.053-1.563-.022-2.364-.022M23.73,35.487a3.933,3.933,0,1,0,7.866.072,3.933,3.933,0,0,0-7.866-.072M43.965,51.379c3.216,0,6.295.014,9.373-.014a.754.754,0,0,0,.735-.912c-.055-.646-.546-.807-1.084-.838q-3.555-.206-7.112-.382a.647.647,0,0,0-.483.157c-.472.613-.908,1.254-1.43,1.989m-32.607.016c-.519-.73-.941-1.352-1.4-1.945a.644.644,0,0,0-.479-.169c-2.163.1-4.324.211-6.486.344-.714.044-1.069.407-1.04.949s.4.818,1.136.819q3.075.007,6.15,0h2.118" transform="translate(0 -9.59)" fill="#d7ff35"/>
    <path id="Path_147" data-name="Path 147" d="M67.3,29.94c-1.592,0-3.185.007-4.777,0a2.424,2.424,0,0,1-2.7-2.686q-.007-4.812,0-9.625a2.437,2.437,0,0,1,2.614-2.653c3.231-.013,6.461,0,9.692,0a.933.933,0,0,1,.411.023c.9.489,1.371-.079,1.855-.7.371-.47.774-.917,1.182-1.357a.971.971,0,1,1,1.445,1.28c-.636.761-1.316,1.487-1.933,2.263a1.483,1.483,0,0,0-.294.854c-.018,3.37,0,6.739-.014,10.109a2.39,2.39,0,0,1-2.493,2.485c-1.661.022-3.323.005-4.984.006M72.1,16.911c-3.345,0-6.48,0-9.616,0-.579,0-.738.3-.736.835.014,3.115.006,6.23.008,9.346,0,.84.069.911.91.912q4.6.005,9.205,0c.881,0,.961-.079.962-.941q0-3.669,0-7.338c0-.165-.032-.331-.06-.587-.211.234-.352.383-.487.538q-2.3,2.635-4.594,5.269c-.624.712-1.184.711-1.782,0q-1.087-1.3-2.146-2.626a.971.971,0,0,1,.007-1.471,1,1,0,0,1,1.5.259c.516.609,1.019,1.229,1.555,1.878L72.1,16.911" transform="translate(-19.328 -4.05)" fill="#d7ff35"/>
    <path id="Path_148" data-name="Path 148" d="M7.621,29.94c-1.616,0-3.232.007-4.848,0a2.443,2.443,0,0,1-2.668-2.67q-.01-4.813,0-9.628a2.473,2.473,0,0,1,2.688-2.667c3.185-.009,6.371,0,9.556,0a1.133,1.133,0,0,1,.48.025c.929.482,1.411-.1,1.9-.742A17.031,17.031,0,0,1,15.917,12.9a.962.962,0,0,1,1.415-.1.919.919,0,0,1,.048,1.364c-.668.8-1.37,1.562-2.029,2.365a1.246,1.246,0,0,0-.279.723c-.015,3.348,0,6.7,0,10.043a2.407,2.407,0,0,1-2.669,2.65c-1.593.009-3.185,0-4.778,0m5.5-10.835c-.273.294-.43.453-.577.622q-2.25,2.582-4.5,5.165c-.682.78-1.224.777-1.874-.005q-1.038-1.251-2.06-2.516c-.477-.59-.485-1.137-.036-1.528s1.049-.286,1.545.31.979,1.19,1.506,1.831L12.4,16.916c-3.389,0-6.585-.012-9.781.028-.193,0-.544.4-.547.625-.035,3.252-.025,6.5-.024,9.757A.593.593,0,0,0,2.728,28q4.877-.007,9.755,0c.425,0,.643-.185.643-.622,0-2.7,0-5.4,0-8.272" transform="translate(-0.032 -4.049)" fill="#d7ff35"/>
    <path id="Path_149" data-name="Path 149" d="M44.75,9.926c0,1.615.007,3.23,0,4.845a2.412,2.412,0,0,1-2.669,2.65q-4.808.012-9.618,0a2.445,2.445,0,0,1-2.676-2.662q-.013-4.81,0-9.62a2.469,2.469,0,0,1,2.667-2.682q4.809-.008,9.619,0a1.389,1.389,0,0,1,.615.042c.719.389,1.12.024,1.525-.522.384-.517.833-.987,1.264-1.467.512-.571,1.042-.662,1.5-.276.482.4.468.96-.059,1.576-.63.736-1.285,1.451-1.9,2.2a1.261,1.261,0,0,0-.271.724c-.022,1.73-.012,3.461-.012,5.191h.011M42.084,4.4c-3.365,0-6.521,0-9.678,0-.564,0-.682.345-.682.822,0,3.139.01,6.278,0,9.416,0,.619.227.857.86.853q4.672-.032,9.345,0c.657,0,.9-.21.892-.879-.029-2.123-.011-4.247-.011-6.37V6.588c-.254.27-.394.409-.523.558q-2.3,2.635-4.594,5.27c-.576.657-1.145.733-1.642.162-.833-.956-1.635-1.942-2.414-2.942a.925.925,0,0,1,.182-1.35.989.989,0,0,1,1.4.25c.533.618,1.044,1.254,1.6,1.923L42.084,4.4" transform="translate(-9.623 0)" fill="#d7ff35"/>
    <path id="Path_150" data-name="Path 150" d="M37.963,80.322a6.094,6.094,0,1,1,6.063-6.071,6.1,6.1,0,0,1-6.063,6.071m4.119-6.058a4.153,4.153,0,0,0-4.1-4.188,4.2,4.2,0,0,0-4.2,4.171,4.15,4.15,0,0,0,8.3.016" transform="translate(-10.288 -22.017)" fill="#d7ff35"/>
  </g>
</svg>
