<svg xmlns="http://www.w3.org/2000/svg" xmlns:xlink="http://www.w3.org/1999/xlink" width="58.001" height="64" viewBox="0 0 58.001 64">
  <defs>
    <clipPath id="clip-path">
      <rect id="Rectangle_6922" data-name="Rectangle 6922" width="58.001" height="64" fill="#d7ff35"/>
    </clipPath>
  </defs>
  <g id="Group_14154" data-name="Group 14154" transform="translate(0 0)">
    <g id="Group_14154-2" data-name="Group 14154" transform="translate(0 0)" clip-path="url(#clip-path)">
      <path id="Path_130" data-name="Path 130" d="M7.526,28.838A7.533,7.533,0,0,1,5.04,24.423a5.963,5.963,0,0,1,1.5-5.73A5.63,5.63,0,0,1,16.13,23,7.923,7.923,0,0,1,13.5,28.825c.818.05,1.521.106,2.225.122.115,0,.255-.146.349-.255a9.315,9.315,0,0,1,7.452-3.306h1.753a8.735,8.735,0,0,1-2.933-3.754c-1.024-2.515-1.548-5.093-.593-7.754A7.732,7.732,0,0,1,36.724,17a11.709,11.709,0,0,1-1.7,5.809,27.781,27.781,0,0,1-2.052,2.534c.906.041,1.933.034,2.947.143a9.043,9.043,0,0,1,5.932,3.1,1.279,1.279,0,0,0,.82.329c.563.027,1.13-.043,1.84-.079a7.243,7.243,0,0,1-2.39-3.956,6.2,6.2,0,0,1,1.118-5.893,5.6,5.6,0,0,1,6.545-1.446A5.714,5.714,0,0,1,53.1,23.447a7.913,7.913,0,0,1-2.57,5.345,24.952,24.952,0,0,1,2.486.28,6.142,6.142,0,0,1,4.958,5.94c.057,2.238.013,4.479.013,6.719A1.11,1.11,0,0,1,57.3,42.9c-.741.287-1.41-.233-1.416-1.123-.014-2.042-.08-4.089.011-6.127a4.345,4.345,0,0,0-4.619-4.67c-2.44.041-4.881.009-7.323.01-.172,0-.345.017-.5.026-.036.07-.077.112-.068.141.726,2.477.32,5.017.413,7.528.037.986.01,1.977,0,2.965,0,.846-.379,1.316-1.036,1.32s-1.068-.478-1.071-1.3c-.007-2.416-.1-4.836.02-7.246a6.609,6.609,0,0,0-6.622-6.89c-4.065-.089-8.136-.082-12.2,0A6.628,6.628,0,0,0,16.4,32.794a7.26,7.26,0,0,0-.094,1.375c-.009,2.482.017,4.963-.024,7.445a1.75,1.75,0,0,1-.479,1.135,1.088,1.088,0,0,1-1.017.074,1.307,1.307,0,0,1-.567-.931c-.058-1.557-.046-3.118-.023-4.677q.036-2.433.148-4.866a7.436,7.436,0,0,1,.293-1.3,2.988,2.988,0,0,0-.417-.062c-2.574,0-5.146,0-7.719,0a4.277,4.277,0,0,0-4.4,4.542c.074,2.062.01,4.129.016,6.193a1.076,1.076,0,0,1-.728,1.189C.662,43.147.03,42.649.014,41.784-.01,40.511,0,39.236.007,37.963c.007-1.143-.043-2.289.053-3.423a6.242,6.242,0,0,1,5.707-5.612c.541-.044,1.084-.055,1.759-.089m21.237-4.491A4.773,4.773,0,0,0,33.078,22a9.981,9.981,0,0,0,1.541-5.3A5.606,5.606,0,0,0,29.8,11a5.49,5.49,0,0,0-6.273,4.359,8.7,8.7,0,0,0,2.3,7.721,3.955,3.955,0,0,0,2.934,1.267M10.54,19.167a3.4,3.4,0,0,0-3.465,2.819A5.584,5.584,0,0,0,8.391,26.7a2.75,2.75,0,0,0,4.312-.088,5.8,5.8,0,0,0,1.275-4.365,3.433,3.433,0,0,0-3.437-3.084m36.99,0A3.441,3.441,0,0,0,44.006,22.3a5.833,5.833,0,0,0,1.154,4.149,2.807,2.807,0,0,0,4.692-.035A6.033,6.033,0,0,0,51,22.45a3.47,3.47,0,0,0-3.468-3.283" transform="translate(0 3.692)" fill="#d7ff35"/>
      <path id="Path_131" data-name="Path 131" d="M32.573,29.211a.817.817,0,0,1,0,.132,2.75,2.75,0,0,0,1.182,2.9,1.226,1.226,0,0,1,.385,1.639c-.124.281-.208.578-.315.866a1.826,1.826,0,0,0,1.054,2.587c1.924.869,1.751.7,1.751,2.721,0,.528-.01,1.055,0,1.581a1.133,1.133,0,0,1-.725,1.143,9.617,9.617,0,0,1-1.078.487,1.4,1.4,0,0,0-1.054,1.131,2.558,2.558,0,0,0-.007,1.241c.82,2.264.782,1.915-.795,3.493-1.637,1.639-1.275,1.641-3.544.792a1.835,1.835,0,0,0-2.28.934c-1.014,2.193-.678,1.954-3.054,1.954s-2.04.234-3.052-1.953a1.808,1.808,0,0,0-2.279-.93c-2.289.856-1.926.806-3.5-.754-1.7-1.689-1.645-1.293-.8-3.594a1.838,1.838,0,0,0-.92-2.23c-2.232-1.022-1.977-.674-1.983-3.1-.006-2.372-.191-2.01,1.929-3a1.817,1.817,0,0,0,.951-2.321c-.846-2.228-.8-1.9.742-3.431a1.343,1.343,0,0,0,.442-1.1c-.031-.856-.019-1.713,0-2.569.011-.715.38-1.131.99-1.157A1.045,1.045,0,0,1,17.72,27.8a8.385,8.385,0,0,1-.006,1.513,1.037,1.037,0,0,0,.887,1.309,2.085,2.085,0,0,0,1.567-.041,1.617,1.617,0,0,0,.893-.879c.979-2.149.648-1.932,3-1.927,2.419,0,2.068-.257,3.1,1.981a1.857,1.857,0,0,0,2.235.918,4.5,4.5,0,0,1,.557-.2c.423-.094.54-.346.518-.761-.033-.636-.027-1.275,0-1.909a1.041,1.041,0,0,1,1.1-1.126c.608.024.97.441,1,1.154,0,.043,0,.087,0,.131v1.252m-.587,4.4c.007-.433-1.1-1.216-1.517-1.091-.624.186-1.333.623-1.867.468-1.412-.406-3.024-.715-3.436-2.526-.141-.617-.575-.588-1.058-.592-.51,0-.907.009-1.117.619-.179.525-.417,1.214-.839,1.438-1.319.707-2.681,1.652-4.282.649-.5-.314-.795-.031-1.1.311s-.738.575-.417,1.206a2.748,2.748,0,0,1,.432,1.734c-.427,1.409-.756,3-2.564,3.412-.526.121-.6.483-.554.944s-.137.935.526,1.172c.564.2,1.3.454,1.545.908.718,1.313,1.625,2.687.621,4.279-.325.514.023.789.348,1.093s.561.681,1.152.4a2.885,2.885,0,0,1,1.735-.446c1.409.424,3.02.721,3.436,2.535.127.555.51.617.991.583.464-.034.964.122,1.144-.562a3.131,3.131,0,0,1,2.1-2.133,3.353,3.353,0,0,1,3.068-.017.869.869,0,0,0,.659.1,1.341,1.341,0,0,0,.709-1.895,2.89,2.89,0,0,1-.038-2.323,3.652,3.652,0,0,1,2.49-2.617c.657-.183.293-.775.363-1.184.056-.334.038-.659-.4-.771A3.228,3.228,0,0,1,31.7,36.716a.5.5,0,0,0-.057-.118,1.944,1.944,0,0,1-.048-1.945,9.121,9.121,0,0,0,.387-1.047" transform="translate(4.903 11.185)" fill="#d7ff35"/>
      <path id="Path_132" data-name="Path 132" d="M18.453,7.471a2.237,2.237,0,0,0-.275-.449c-.494-.529-1-1.045-1.516-1.557a1.158,1.158,0,0,1-.423-1.232,1.132,1.132,0,0,1,1.048-.764c.63-.085,1.248-.267,1.879-.322A1.117,1.117,0,0,0,20.2,2.4,9.394,9.394,0,0,1,21.135.671a1.547,1.547,0,0,1,1-.671,1.534,1.534,0,0,1,1,.683c.409.59.659,1.287,1.045,1.9a1.312,1.312,0,0,0,.738.51c.722.179,1.469.255,2.2.409a1.045,1.045,0,0,1,.6,1.834c-.5.554-1.07,1.046-1.544,1.618a1.421,1.421,0,0,0-.291.914c.044.7.256,1.387.269,2.082a1.565,1.565,0,0,1-.413,1.135,1.4,1.4,0,0,1-1.145.062c-.7-.247-1.336-.663-2.025-.938a1.314,1.314,0,0,0-.89.009c-.669.268-1.285.68-1.966.911a1.516,1.516,0,0,1-1.2-.057,1.521,1.521,0,0,1-.393-1.141,23.721,23.721,0,0,1,.342-2.455m3.691-4.146a2.63,2.63,0,0,1-2.7,1.945,2.587,2.587,0,0,1,1.048,3.151,2.581,2.581,0,0,1,3.329-.033,2.471,2.471,0,0,1,.987-3.134,2.516,2.516,0,0,1-2.664-1.929" transform="translate(6.869 0)" fill="#d7ff35"/>
      <path id="Path_133" data-name="Path 133" d="M5.076,13.92c.1-.717.165-1.463.329-2.187a1.038,1.038,0,0,0-.356-1.1c-.508-.484-1-.991-1.469-1.51A1.059,1.059,0,0,1,4.2,7.256c.752-.153,1.518-.238,2.265-.412a1.1,1.1,0,0,0,.62-.461c.383-.636.7-1.317,1.058-1.967a1.07,1.07,0,0,1,2.007,0,17.724,17.724,0,0,1,.91,1.749,1.185,1.185,0,0,0,1.087.775,9.41,9.41,0,0,1,1.877.325,1.563,1.563,0,0,1,.954.744,1.511,1.511,0,0,1-.329,1.154,11.556,11.556,0,0,1-1.456,1.519.994.994,0,0,0-.316,1,13.351,13.351,0,0,1,.275,2.017,1.911,1.911,0,0,1-.366,1.165c-.328.406-.826.281-1.269.055-.645-.329-1.285-.673-1.954-.945a1.206,1.206,0,0,0-.84.006c-.728.3-1.414.7-2.137,1.016a1.045,1.045,0,0,1-1.506-1.07M9.052,7.039A2.377,2.377,0,0,1,6.463,9.027a2.547,2.547,0,0,1,1,3.177,2.636,2.636,0,0,1,3.33-.058,2.444,2.444,0,0,1,1.061-3.062c-1.711-.514-1.711-.514-2.8-2.045" transform="translate(1.361 1.558)" fill="#d7ff35"/>
      <path id="Path_134" data-name="Path 134" d="M41.052,8.2a4.192,4.192,0,0,1-.437.7c-.481.541-1.026,1.026-1.493,1.577a1.216,1.216,0,0,0-.271.792c.053.7.256,1.387.272,2.081a2.025,2.025,0,0,1-.377,1.232c-.32.4-.828.274-1.273.044-.584-.3-1.2-.545-1.765-.88a1.078,1.078,0,0,0-1.215.014c-.611.343-1.246.646-1.889.928a1.057,1.057,0,0,1-1.543-1.168,8.944,8.944,0,0,1,.235-1.558,1.737,1.737,0,0,0-.7-2.052,9.409,9.409,0,0,1-1.105-1.127,1.025,1.025,0,0,1,.56-1.771c.746-.175,1.521-.229,2.263-.414a1.444,1.444,0,0,0,.772-.569A16.942,16.942,0,0,0,34.022,4.3c.228-.454.5-.826,1.073-.836.605-.01.886.392,1.124.862.278.548.605,1.073.846,1.635A1.049,1.049,0,0,0,38,6.634c.7.092,1.387.213,2.077.346A1.119,1.119,0,0,1,41.052,8.2M36.8,11.93a2.549,2.549,0,0,1,1-3.184A2.566,2.566,0,0,1,35.1,6.806,2.567,2.567,0,0,1,32.42,8.762,2.532,2.532,0,0,1,33.461,11.9a2.583,2.583,0,0,1,3.334.03" transform="translate(12.377 1.45)" fill="#d7ff35"/>
      <path id="Path_135" data-name="Path 135" d="M22.28,31.787a6.358,6.358,0,1,1-6.39,6.333,6.339,6.339,0,0,1,6.39-6.333m0,2.109a4.249,4.249,0,1,0,4.235,4.286A4.223,4.223,0,0,0,22.277,33.9" transform="translate(6.743 13.33)" fill="#d7ff35"/>
      <path id="Path_136" data-name="Path 136" d="M20.611,36.7c.526-.576,1.006-1.121,1.5-1.644a1.051,1.051,0,0,1,1.577-.128,1.069,1.069,0,0,1-.014,1.536c-.726.823-1.467,1.637-2.225,2.43a1.026,1.026,0,0,1-1.575.044c-.377-.334-.739-.687-1.1-1.047a1.059,1.059,0,1,1,1.439-1.544c.115.1.225.206.39.353" transform="translate(7.8 14.521)" fill="#d7ff35"/>
    </g>
  </g>
</svg>
