<svg id="Group_14146" data-name="Group 14146" xmlns="http://www.w3.org/2000/svg" xmlns:xlink="http://www.w3.org/1999/xlink" width="53.207" height="64.054" viewBox="0 0 53.207 64.054">
  <defs>
    <clipPath id="clip-path">
      <rect id="Rectangle_6921" data-name="Rectangle 6921" width="53.207" height="64.054" transform="translate(0 0)" fill="#d7ff35"/>
    </clipPath>
  </defs>
  <g id="Group_14145" data-name="Group 14145" clip-path="url(#clip-path)">
    <path id="Path_123" data-name="Path 123" d="M34.416,33.757l-2.35,3.263c-.19.262-.374.53-.577.781-.437.541-.938,1.008-1.7.823-.739-.179-.957-.813-1.1-1.464-.184-.843-.349-1.69-.521-2.535-.414-2.029-.821-4.06-1.249-6.086A1.941,1.941,0,0,0,26.6,28a2.185,2.185,0,0,0-.305.558c-.589,2.83-1.158,5.664-1.746,8.494a3.341,3.341,0,0,1-.344.967,1.183,1.183,0,0,1-1.778.413,3.857,3.857,0,0,1-.861-.864c-.812-1.09-1.611-2.192-2.382-3.313-.264-.384-.478-.495-.935-.27-1.141.56-2.313,1.059-3.475,1.578a7.373,7.373,0,0,1-.778.317,1.394,1.394,0,0,1-1.909-1.856c.93-2.8,1.854-5.61,2.812-8.4a.921.921,0,0,0-.318-1.237,2.876,2.876,0,0,1-.971-3.094c.1-.418.257-.823.391-1.233a1.45,1.45,0,0,0-.62-2.01c-.327-.247-.664-.482-.983-.74a3.12,3.12,0,0,1,.016-4.983c.371-.3.769-.558,1.152-.839a1.335,1.335,0,0,0,.531-1.594c-.157-.516-.332-1.027-.458-1.551A3.087,3.087,0,0,1,16.3,4.495a13.153,13.153,0,0,1,1.552-.043,1.4,1.4,0,0,0,1.621-1.165c.127-.367.242-.738.375-1.1A3.126,3.126,0,0,1,24.749.652c.355.247.7.511,1.048.762a1.312,1.312,0,0,0,1.626.02c.429-.291.839-.61,1.275-.889A3.111,3.111,0,0,1,33.384,2.1c.153.4.267.819.4,1.228a1.409,1.409,0,0,0,1.57,1.159c.475.016.951.006,1.425.032a3.1,3.1,0,0,1,2.842,3.825c-.113.46-.281.906-.424,1.358a1.406,1.406,0,0,0,.593,1.906c.344.261.7.51,1.034.781a3.117,3.117,0,0,1,.026,4.942c-.384.314-.8.588-1.2.88a1.327,1.327,0,0,0-.525,1.595c.156.515.33,1.027.457,1.55A2.971,2.971,0,0,1,38.5,24.538a.651.651,0,0,0-.246.861c.908,2.652,1.788,5.313,2.674,7.973a8.18,8.18,0,0,1,.273.93c.236,1.155-.554,1.963-1.681,1.634a22.525,22.525,0,0,1-2.511-1.019c-.85-.366-1.689-.755-2.594-1.16M35.58,23.44c.281,0,.562.011.842,0a1.345,1.345,0,0,0,1.348-1.847c-.12-.436-.27-.864-.393-1.3a3.11,3.11,0,0,1,1.207-3.545c.329-.246.674-.469,1-.72a1.333,1.333,0,0,0,.028-2.283c-.388-.309-.808-.58-1.187-.9a3.021,3.021,0,0,1-1.06-3.305c.127-.479.308-.943.445-1.419a1.3,1.3,0,0,0-1.26-1.79c-.475-.024-.951-.006-1.425-.032a3.16,3.16,0,0,1-3.03-2.3c-.109-.327-.2-.66-.308-.987a1.364,1.364,0,0,0-2.305-.8c-.356.243-.7.507-1.059.745a3.116,3.116,0,0,1-3.639-.032c-.409-.282-.792-.6-1.213-.863a1.287,1.287,0,0,0-1.974.629c-.176.416-.3.856-.444,1.283a3.137,3.137,0,0,1-3.218,2.3,12.289,12.289,0,0,0-1.358.021,1.288,1.288,0,0,0-1.151,1.719c.136.521.317,1.03.448,1.553a3.02,3.02,0,0,1-1.114,3.286c-.383.313-.811.574-1.2.886a1.3,1.3,0,0,0-.026,2.156c.414.346.877.633,1.286.984a3.019,3.019,0,0,1,1.039,3.255c-.135.521-.348,1.021-.485,1.541a1.291,1.291,0,0,0,1.2,1.688c.515.042,1.035.028,1.553.054a3.11,3.11,0,0,1,2.986,2.26c.139.408.246.828.4,1.23a1.3,1.3,0,0,0,2.035.7c.44-.273.846-.6,1.278-.884a3.089,3.089,0,0,1,3.583.033c.392.268.757.576,1.153.837a1.322,1.322,0,0,0,2.095-.677c.118-.3.208-.612.312-.918a3.213,3.213,0,0,1,3.608-2.56M22.861,36.287c.487-2.4.938-4.628,1.4-6.919-.27.083-.451.143-.635.193A3.115,3.115,0,0,1,19.871,27.7c-.128-.32-.224-.653-.329-.981-.429-1.338-.639-1.479-2.021-1.523a.659.659,0,0,0-.778.545c-.671,2.1-1.383,4.178-2.081,6.264-.195.585-.389,1.171-.619,1.863.278-.11.453-.171.622-.246,1.259-.567,2.515-1.14,3.774-1.7.78-.35,1.086-.266,1.593.436.909,1.257,1.813,2.519,2.829,3.931M29,29.615l1.36,6.662c1.007-1.4,1.9-2.641,2.8-3.883.551-.765.812-.831,1.692-.436L37.626,33.2l1.57.7c-.967-2.883-1.883-5.618-2.8-8.351a.488.488,0,0,0-.166-.257,1.978,1.978,0,0,0-2.351.792c-.2.5-.343,1.023-.537,1.525a2.9,2.9,0,0,1-2.286,1.982,12.817,12.817,0,0,1-2.051.02" fill="#d7ff35"/>
    <path id="Path_124" data-name="Path 124" d="M7.507,37.744c.284-.168.5-.305.719-.423A3.36,3.36,0,0,1,12.269,38q3.864,3.835,7.7,7.7a4,4,0,0,1,1.183,2.923q0,3.176,0,6.351v.792c.294,0,.544-.009.794,0a2.488,2.488,0,0,1,2.488,2.471c.033,1.122.035,2.247,0,3.369a2.452,2.452,0,0,1-2.512,2.436q-6.578.024-13.156,0a2.477,2.477,0,0,1-2.528-2.557c-.015-.993-.008-1.987,0-2.981A2.529,2.529,0,0,1,8.917,55.76c.19,0,.38-.018.82-.04a9.48,9.48,0,0,0-.885-1.29c-2.383-2.413-4.771-4.821-7.2-7.193A5.236,5.236,0,0,1,0,43.249C.034,37.525,0,31.8.019,26.075A3.7,3.7,0,0,1,3.978,22.3a3.71,3.71,0,0,1,3.483,3.8c.028,2.4.008,4.8.008,7.194,0,1.253,0,2.506,0,3.759,0,.207.021.415.036.689M19.333,55.729c0-2.5.036-4.916-.03-7.331a2.346,2.346,0,0,0-.654-1.421C16.13,44.4,13.571,41.852,11,39.319a2.159,2.159,0,0,0-1-.535,1.474,1.474,0,0,0-1.605.833,1.512,1.512,0,0,0,.381,1.83c1.438,1.464,2.892,2.913,4.338,4.368a12.041,12.041,0,0,1,1.343,1.4,1.255,1.255,0,0,1,.1,1.049,1.029,1.029,0,0,1-.838.419,1.45,1.45,0,0,1-.791-.494c-2.005-2-3.965-4.04-6.005-6a3.9,3.9,0,0,1-1.276-3.045c.027-2.268.006-4.536.005-6.8,0-2.052-.005-4.1,0-6.156a1.917,1.917,0,1,0-3.822.023c-.006,5.724.007,11.448-.012,17.172a3.263,3.263,0,0,0,1.031,2.481c2.185,2.152,4.346,4.329,6.512,6.5.954.957,2.066,1.82,2,3.37Zm-4.015,6.5c2.118,0,4.235,0,6.353,0,.728,0,.948-.208.957-.907q.018-1.427,0-2.852c-.009-.654-.248-.88-.915-.894-.518-.011-1.037,0-1.555,0H9.266c-1.076,0-1.216.144-1.217,1.243,0,.8,0,1.6,0,2.4.005.827.2,1.014,1.045,1.015q3.111,0,6.223,0" fill="#d7ff35"/>
    <path id="Path_125" data-name="Path 125" d="M43.5,55.677a15.551,15.551,0,0,1,1.621.2,2.4,2.4,0,0,1,1.856,2.292q.042,1.716,0,3.434a2.431,2.431,0,0,1-2.38,2.432q-6.708.045-13.415,0a2.418,2.418,0,0,1-2.393-2.348c-.047-1.078-.03-2.16-.018-3.239a2.523,2.523,0,0,1,2.676-2.686c.172,0,.344,0,.62,0v-.7c0-2.1.011-4.191,0-6.286a4.332,4.332,0,0,1,1.351-3.248c2.363-2.341,4.708-4.7,7.061-7.054,1.807-1.805,2.949-1.977,5.27-.732V37c0-3.608-.015-7.216.006-10.823a3.712,3.712,0,0,1,3.928-3.88,3.655,3.655,0,0,1,3.507,3.5c.032,6.049.022,12.1,0,18.147a4.324,4.324,0,0,1-1.44,3.088q-3.7,3.683-7.371,7.385a9.536,9.536,0,0,0-.879,1.255m-1.614.05a3.623,3.623,0,0,1,1.464-2.861c2.358-2.346,4.7-4.709,7.061-7.051a3.145,3.145,0,0,0,.989-2.368c-.015-5.723-.006-11.447-.009-17.171a1.925,1.925,0,1,0-3.825-.036c-.011,1.382,0,2.764,0,4.147q-.014,4.665-.031,9.33a2.97,2.97,0,0,1-.965,2.181c-2.1,2.086-4.177,4.193-6.263,6.291a2.859,2.859,0,0,1-.382.349.832.832,0,0,1-1.171-.1.858.858,0,0,1-.056-1.181,3.533,3.533,0,0,1,.4-.423q2.6-2.619,5.211-5.236a1.735,1.735,0,0,0,.65-1.543,1.453,1.453,0,0,0-1.035-1.215,1.576,1.576,0,0,0-1.708.469q-3.823,3.828-7.652,7.651a2.276,2.276,0,0,0-.676,1.693c.005,1.6,0,3.2,0,4.8,0,.749,0,1.5,0,2.281ZM37.9,62.233c2.114,0,4.229,0,6.343,0,.7,0,.924-.23.93-.931.008-.949,0-1.9,0-2.848a.766.766,0,0,0-.871-.875q-6.408,0-12.815,0c-.652,0-.89.25-.9.908-.013.906-.008,1.812,0,2.718.006.836.2,1.026,1.033,1.027q3.139,0,6.278,0" fill="#d7ff35"/>
    <path id="Path_126" data-name="Path 126" d="M26.565,22.962a8.114,8.114,0,1,1,8.173-8.07,8.15,8.15,0,0,1-8.173,8.07m.04-1.816a6.3,6.3,0,1,0-6.313-6.3,6.318,6.318,0,0,0,6.313,6.3" fill="#d7ff35"/>
    <path id="Path_127" data-name="Path 127" d="M18.617,59.073c.41,0,.822-.032,1.228.008a.882.882,0,0,1-.041,1.758c-.84.032-1.684.033-2.523-.006a.79.79,0,0,1-.785-.862.8.8,0,0,1,.764-.884,12.788,12.788,0,0,1,1.357-.01v0" fill="#d7ff35"/>
    <path id="Path_128" data-name="Path 128" d="M34.588,60.849c-.39,0-.78.023-1.165-.006a.825.825,0,0,1-.84-.886.791.791,0,0,1,.779-.871c.861-.042,1.728-.043,2.589,0a.786.786,0,0,1,.772.874.82.82,0,0,1-.841.882c-.43.03-.862.006-1.294.006" fill="#d7ff35"/>
    <path id="Path_129" data-name="Path 129" d="M25.693,15.514c.963-.966,1.874-1.88,2.786-2.793.153-.153.3-.317.463-.453a.879.879,0,0,1,1.234-.006.845.845,0,0,1,.042,1.271c-.37.42-.784.8-1.181,1.2-.84.841-1.676,1.685-2.522,2.518a.977.977,0,0,1-1.615.012c-.6-.588-1.2-1.182-1.787-1.787A.9.9,0,0,1,23,14.1a.935.935,0,0,1,1.379.08c.432.416.843.854,1.309,1.329" fill="#d7ff35"/>
  </g>
</svg>
