<svg xmlns="http://www.w3.org/2000/svg" width="152" height="28" viewBox="0 0 152 28">
  <g id="Group_37386" data-name="Group 37386" transform="translate(-780 -1396)">
    <g id="Group_37381" data-name="Group 37381" transform="translate(-86.854 -30.854)">
      <rect id="Rectangle_16414" data-name="Rectangle 16414" width="28" height="28" transform="translate(866.854 1426.854)" fill="#00b67a"/>
      <path id="trustpilot-svgrepo-com" d="M9.236,13.974l4.013-1.017,1.677,5.168ZM18.472,7.3H11.407L9.236.643,7.065,7.3H0l5.718,4.123L3.547,18.07l5.718-4.123,3.518-2.529L18.472,7.3Z" transform="translate(871.618 1431.745)" fill="#fff"/>
    </g>
    <g id="Group_37382" data-name="Group 37382" transform="translate(-55.854 -30.854)">
      <rect id="Rectangle_16414-2" data-name="Rectangle 16414" width="28" height="28" transform="translate(866.854 1426.854)" fill="#00b67a"/>
      <path id="trustpilot-svgrepo-com-2" data-name="trustpilot-svgrepo-com" d="M9.236,13.974l4.013-1.017,1.677,5.168ZM18.472,7.3H11.407L9.236.643,7.065,7.3H0l5.718,4.123L3.547,18.07l5.718-4.123,3.518-2.529L18.472,7.3Z" transform="translate(871.618 1431.745)" fill="#fff"/>
    </g>
    <g id="Group_37383" data-name="Group 37383" transform="translate(-24.854 -30.854)">
      <rect id="Rectangle_16414-3" data-name="Rectangle 16414" width="28" height="28" transform="translate(866.854 1426.854)" fill="#00b67a"/>
      <path id="trustpilot-svgrepo-com-3" data-name="trustpilot-svgrepo-com" d="M9.236,13.974l4.013-1.017,1.677,5.168ZM18.472,7.3H11.407L9.236.643,7.065,7.3H0l5.718,4.123L3.547,18.07l5.718-4.123,3.518-2.529L18.472,7.3Z" transform="translate(871.618 1431.745)" fill="#fff"/>
    </g>
    <g id="Group_37384" data-name="Group 37384" transform="translate(6.146 -30.854)">
      <rect id="Rectangle_16414-4" data-name="Rectangle 16414" width="28" height="28" transform="translate(866.854 1426.854)" fill="#00b67a"/>
      <path id="trustpilot-svgrepo-com-4" data-name="trustpilot-svgrepo-com" d="M9.236,13.974l4.013-1.017,1.677,5.168ZM18.472,7.3H11.407L9.236.643,7.065,7.3H0l5.718,4.123L3.547,18.07l5.718-4.123,3.518-2.529L18.472,7.3Z" transform="translate(871.618 1431.745)" fill="#fff"/>
    </g>
    <g id="Group_37385" data-name="Group 37385" transform="translate(37.146 -30.854)">
      <rect id="Rectangle_16414-5" data-name="Rectangle 16414" width="28" height="28" transform="translate(866.854 1426.854)" fill="#dcdce6"/>
      <rect id="Rectangle_16415" data-name="Rectangle 16415" width="14" height="28" transform="translate(866.854 1426.854)" fill="#00b67a"/>
      <path id="trustpilot-svgrepo-com-5" data-name="trustpilot-svgrepo-com" d="M9.236,13.974l4.013-1.017,1.677,5.168ZM18.472,7.3H11.407L9.236.643,7.065,7.3H0l5.718,4.123L3.547,18.07l5.718-4.123,3.518-2.529L18.472,7.3Z" transform="translate(871.618 1431.745)" fill="#fff"/>
    </g>
  </g>
</svg>
