<svg xmlns="http://www.w3.org/2000/svg" xmlns:xlink="http://www.w3.org/1999/xlink" width="46.229" height="64" viewBox="0 0 46.229 64">
  <defs>
    <clipPath id="clip-path">
      <rect id="Rectangle_6924" data-name="Rectangle 6924" width="46.229" height="64" fill="#d7ff35"/>
    </clipPath>
  </defs>
  <g id="Group_14155" data-name="Group 14155" transform="translate(0 0)">
    <g id="Group_14155-2" data-name="Group 14155" transform="translate(0 0)" clip-path="url(#clip-path)">
      <path id="Path_137" data-name="Path 137" d="M11.018,48.871H21.982c.014-.22.037-.419.037-.618,0-2.644-.01-5.287.01-7.929a2.657,2.657,0,0,0-.845-2.026c-2.227-2.186-4.435-4.392-6.655-6.588-.634-.626-1.248-.692-1.74-.207-.513.507-.441,1.135.22,1.8,1.586,1.595,3.18,3.182,4.76,4.782a1.1,1.1,0,0,1,.068,1.686c-.486.411-1.057.331-1.642-.25q-2.417-2.4-4.826-4.814C9.255,32.6,7.15,30.486,5.024,28.392a1.958,1.958,0,0,1-.616-1.528c.021-2.575.017-5.149,0-7.722a3.115,3.115,0,0,0-2.2-3.075c0,.932,0,1.838,0,2.743-.006.875-.4,1.38-1.086,1.39S.021,19.7.017,18.839q-.009-1.965,0-3.93c.008-.932.437-1.341,1.359-1.318a5.468,5.468,0,0,1,5.23,5.369c.037,2.414.023,4.827,0,7.241a1.444,1.444,0,0,0,.482,1.137c1.151,1.144,2.266,2.322,3.281,3.367a11.542,11.542,0,0,1,2.109-1.491,3.133,3.133,0,0,1,3.58.854q3.23,3.243,6.462,6.488a6.62,6.62,0,0,1,.5.659c.29-.271.474-.431.645-.6,2.058-2.063,4.19-4.061,6.152-6.213a3.529,3.529,0,0,1,5.885.441c1.283-1.3,2.554-2.585,3.8-3.891.126-.133.119-.427.121-.645.008-2.39-.008-4.782.008-7.173a5.49,5.49,0,0,1,4.8-5.5c1.3-.193,1.8.23,1.8,1.53,0,5.562.014,11.125-.021,16.687a3.089,3.089,0,0,1-.49,1.585q-3.825,5.846-7.737,11.637a2.766,2.766,0,0,0-.564,1.844c.051.636.01,1.277.01,1.993.416,0,.777-.021,1.135.006a1.09,1.09,0,0,1,1.059,1.061A1.1,1.1,0,0,1,38.555,51.1c-.181.018-.365.008-.548.008H8.237c-.138,0-.274,0-.412,0a1.105,1.105,0,1,1-.008-2.2c.3-.01.595,0,.993,0-.1-1.4.266-2.735-.672-4.075C5.506,41.063,3.007,37.212.492,33.371a3.181,3.181,0,0,1-.455-1.527C-.027,30.607.01,29.363.019,28.123c.006-.805.443-1.3,1.11-1.293s1.079.5,1.085,1.32c.008,1.1-.021,2.207.017,3.308a2.048,2.048,0,0,0,.305,1.012q3.945,5.978,7.936,11.92a2.91,2.91,0,0,1,.556,1.86c-.043.846-.01,1.7-.01,2.62m24.206,0c0-.949.031-1.825-.01-2.694a2.733,2.733,0,0,1,.527-1.731q3.988-5.945,7.93-11.924a2.209,2.209,0,0,0,.34-1.139c.023-4.872.016-9.746.016-14.62V16.08a3.067,3.067,0,0,0-2.2,3.043c-.014,2.527-.025,5.057.008,7.584a2.223,2.223,0,0,1-.711,1.764c-2.567,2.529-5.1,5.092-7.644,7.644-1.166,1.17-2.328,2.345-3.5,3.507a1.09,1.09,0,0,1-1.537.211c-.6-.45-.608-1.146.012-1.772,1.615-1.632,3.244-3.248,4.855-4.882a1.107,1.107,0,0,0,.121-1.651,1.092,1.092,0,0,0-1.685.115c-2.278,2.267-4.569,4.521-6.8,6.837a2.683,2.683,0,0,0-.694,1.644c-.07,2.8-.033,5.607-.029,8.413a2.355,2.355,0,0,0,.047.329Z" transform="translate(0 12.894)" fill="#d7ff35"/>
      <path id="Path_138" data-name="Path 138" d="M5.675,15.2c0-1.287.016-2.573-.006-3.862a1.25,1.25,0,0,1,.892-1.306C10.091,8.628,13.611,7.2,17.15,5.813A1.867,1.867,0,0,1,18.39,5.8c3.539,1.384,7.057,2.815,10.585,4.227.509.2.9.5.9,1.088-.023,2.9.159,5.814-.144,8.68-.678,6.4-4.122,10.926-9.872,13.768a4.378,4.378,0,0,1-4.326-.012c-6.28-3.223-9.584-8.315-9.85-15.382-.037-.987-.006-1.977-.006-2.965m22.005.513c0-1.1-.014-2.207.008-3.31a.629.629,0,0,0-.453-.716C24.213,10.5,21.2,9.278,18.178,8.082a1.071,1.071,0,0,0-.709-.027q-4.633,1.828-9.242,3.706a.649.649,0,0,0-.336.484,63.628,63.628,0,0,0,.165,7.709c.756,5.7,3.963,9.649,9.257,11.865a1.31,1.31,0,0,0,.9.008,14.62,14.62,0,0,0,8.929-9.888,20.957,20.957,0,0,0,.534-6.223" transform="translate(5.343 5.412)" fill="#d7ff35"/>
      <path id="Path_139" data-name="Path 139" d="M9.548,7.36c-.245.277-.453.69-.777.827a1.2,1.2,0,0,1-1.057-.123C6.563,7.017,5.461,5.915,4.384,4.79a1.016,1.016,0,0,1,.1-1.482.984.984,0,0,1,1.429-.07C7.053,4.332,8.145,5.475,9.237,6.617a2.7,2.7,0,0,1,.311.743" transform="translate(3.878 2.812)" fill="#d7ff35"/>
      <path id="Path_140" data-name="Path 140" d="M13.533,3.33c0,.69.012,1.378,0,2.069a1.1,1.1,0,1,1-2.19.018q-.023-2.1,0-4.205a1.1,1.1,0,1,1,2.19-.018c.017.712,0,1.425,0,2.137" transform="translate(10.689 -0.001)" fill="#d7ff35"/>
      <path id="Path_141" data-name="Path 141" d="M4.4,12.394c-.688,0-1.376.014-2.062,0a1.1,1.1,0,1,1,0-2.2q2.1-.02,4.194,0a1.1,1.1,0,1,1,0,2.2c-.709.016-1.419,0-2.13,0" transform="translate(1.078 9.668)" fill="#d7ff35"/>
      <path id="Path_142" data-name="Path 142" d="M22.556,10.189c.711,0,1.421-.016,2.13,0a1.1,1.1,0,1,1-.008,2.2c-1.419.018-2.842.018-4.26,0a1.1,1.1,0,1,1,.008-2.2c.709-.019,1.421,0,2.13,0" transform="translate(18.172 9.669)" fill="#d7ff35"/>
      <path id="Path_143" data-name="Path 143" d="M16.916,7.264a5.615,5.615,0,0,1,.527-.868Q18.819,4.9,20.234,3.445a1.111,1.111,0,1,1,1.59,1.523c-.978,1-1.949,2.014-2.981,2.958a1.287,1.287,0,0,1-1.086.248c-.334-.125-.55-.575-.84-.909" transform="translate(15.962 2.826)" fill="#d7ff35"/>
      <path id="Path_144" data-name="Path 144" d="M2.2,19.186a1.109,1.109,0,0,1-1.053,1.123,1.1,1.1,0,1,1-.049-2.2,1.1,1.1,0,0,1,1.1,1.074" transform="translate(0.01 17.198)" fill="#d7ff35"/>
      <path id="Path_145" data-name="Path 145" d="M12.269,16.54c1.423-1.46,2.647-2.726,3.879-3.983.626-.638,1.258-1.273,1.9-1.9.593-.579,1.217-.62,1.691-.135a1.094,1.094,0,0,1-.119,1.647Q16.425,15.4,13.2,18.6a1.044,1.044,0,0,1-1.683,0q-1.038-1-2.039-2.047A1.095,1.095,0,1,1,11.011,15a7.016,7.016,0,0,1,.682.678c.19.228.334.493.575.858" transform="translate(8.559 9.676)" fill="#d7ff35"/>
    </g>
  </g>
</svg>
