<svg xmlns="http://www.w3.org/2000/svg" width="94" height="94" viewBox="0 0 94 94">
  <g id="Group_34003" data-name="Group 34003" transform="translate(-353 -4829)">
    <circle id="Ellipse_17" data-name="Ellipse 17" cx="47" cy="47" r="47" transform="translate(353 4829)" fill="#d7ff35"/>
    <g id="Group_34002" data-name="Group 34002" transform="translate(376 4852)">
      <path id="Path_1185" data-name="Path 1185" d="M46,24A22,22,0,1,0,5,35.1V33a5.019,5.019,0,0,1,.98-2.98A18.757,18.757,0,0,1,5,24a19,19,0,0,1,38,0,18.757,18.757,0,0,1-.98,6.02A5.019,5.019,0,0,1,43,33v2.1A21.849,21.849,0,0,0,46,24Z" fill="#191919"/>
      <path id="Path_1186" data-name="Path 1186" d="M38,24a1,1,0,0,1,1-1h1.95a16.854,16.854,0,0,0-1.78-6.6l-.81.47a1,1,0,0,1-1-1.74l.81-.47a17.091,17.091,0,0,0-4.83-4.83l-.47.81a1,1,0,0,1-1.74-1l.47-.81A16.854,16.854,0,0,0,25,7.05V9a1,1,0,0,1-2,0V7.05a16.854,16.854,0,0,0-6.6,1.78l.47.81a1,1,0,0,1-1.74,1l-.47-.81a17.091,17.091,0,0,0-4.83,4.83l.81.47a1,1,0,0,1-1,1.74l-.81-.47A16.854,16.854,0,0,0,7.05,23H9a1,1,0,0,1,0,2H7.05a16.847,16.847,0,0,0,.6,3.58A5.015,5.015,0,0,1,10,28H38a5.015,5.015,0,0,1,2.35.58,16.847,16.847,0,0,0,.6-3.58H39a1,1,0,0,1-1-1ZM24,26a1.968,1.968,0,0,1-1.72-1H16a1,1,0,0,1,0-2h6.28a1.914,1.914,0,0,1,.72-.72V14a1,1,0,1,1,2,0v8.28A1.968,1.968,0,0,1,26,24,2.006,2.006,0,0,1,24,26Z" fill="#191919"/>
      <path id="Path_1187" data-name="Path 1187" d="M38,30H10a3,3,0,0,0-3,3V43a3,3,0,0,0,3,3H38a3,3,0,0,0,3-3V33A3,3,0,0,0,38,30ZM16,37a2,2,0,0,1-2,2H12v2h3a1,1,0,0,1,0,2H12a2,2,0,0,1-2-2V39a2,2,0,0,1,2-2h2V35H11a1,1,0,0,1,0-2h3a2,2,0,0,1,2,2Zm8,5a1,1,0,0,1-2,0V39H20a2,2,0,0,1-2-2V34a1,1,0,0,1,2,0v3h2V34a1,1,0,0,1,2,0Zm3.98,1.2A1,1,0,0,1,27,44a.948.948,0,0,1-.2-.02A1,1,0,0,1,26.02,42.8l2-10a1,1,0,0,1,1.961.393l-2,10ZM37.429,35.7l-2.493,6.649a1,1,0,0,1-1.873-.7L35.556,35H33a1,1,0,0,1,0-2h2.557a2,2,0,0,1,1.873,2.7Z" fill="#191919"/>
    </g>
  </g>
</svg>
