<svg xmlns="http://www.w3.org/2000/svg" xmlns:xlink="http://www.w3.org/1999/xlink" width="109" height="109" viewBox="0 0 109 109">
  <defs>
    <clipPath id="clip-path">
      <rect id="Rectangle_9" data-name="Rectangle 9" width="59.49" height="59.502" transform="translate(0 0)" fill="#d7ff00"/>
    </clipPath>
  </defs>
  <g id="Group_21" data-name="Group 21" transform="translate(-1022 -1249)">
    <rect id="Rectangle_8" data-name="Rectangle 8" width="109" height="109" rx="8" transform="translate(1022 1249)" fill="#191919"/>
    <g id="Group_20" data-name="Group 20" transform="translate(1047 1274.002)">
      <g id="Group_19" data-name="Group 19" transform="translate(0 -0.002)" clip-path="url(#clip-path)">
        <path id="Path_80" data-name="Path 80" d="M244.14,59.5c-.279-.065-.558-.126-.836-.2a8.737,8.737,0,0,1-6.736-6.709.98.98,0,0,0-.454-.58,5.226,5.226,0,0,1-3.243-5c-.031-1.51.041-3.027-.085-4.528a13.636,13.636,0,0,0-3.493-7.874,20.906,20.906,0,1,1,33.919-24.095A20.135,20.135,0,0,1,265.786,23.6,20.636,20.636,0,0,1,261,34.433a13.9,13.9,0,0,0-3.065,5.343,25.658,25.658,0,0,0-.643,4.049c-.1,1.056,0,2.129-.024,3.194a5.211,5.211,0,0,1-3.243,5,.911.911,0,0,0-.444.525,8.684,8.684,0,0,1-7.374,6.872.972.972,0,0,0-.208.09Zm9.684-17.564c.214-.952.384-1.863.626-2.755a20.131,20.131,0,0,1,4.129-7.319,16.9,16.9,0,0,0,3.68-13.694,16.589,16.589,0,0,0-4.867-9.554,16.879,16.879,0,0,0-14.173-5,16.39,16.39,0,0,0-14.039,10.194c-2.9,6.654-1.858,12.943,2.781,18.558a18.359,18.359,0,0,1,3.734,6.813c.25.9.415,1.832.621,2.759Zm-.047,3.542H236.355c0,.521,0,1,0,1.484a1.78,1.78,0,0,0,1.985,1.962c1.9,0,3.792,0,5.687,0,2.631,0,5.262.006,7.893,0a1.728,1.728,0,0,0,1.849-1.618c.04-.594.007-1.193.007-1.825m-13.569,6.939a5.219,5.219,0,0,0,5.185,3.577c2.089-.17,4.283-1.912,4.49-3.577Z" transform="translate(-215.327 0.001)" fill="#d7ff00"/>
        <path id="Path_81" data-name="Path 81" d="M1340.509,532.745a2.154,2.154,0,0,1-2.337,1.29c-.924-.058-1.855,0-2.782-.015a1.744,1.744,0,1,1,0-3.481c.928-.01,1.859.047,2.782-.015a2.147,2.147,0,0,1,2.335,1.291Z" transform="translate(-1281.018 -509.62)" fill="#d7ff00"/>
        <path id="Path_82" data-name="Path 82" d="M18.58,238.008a1.806,1.806,0,0,1-.959,1.739,1.532,1.532,0,0,1-1.8-.152c-.984-.9-1.937-1.84-2.829-2.829a1.714,1.714,0,0,1,2.434-2.378c.956.873,1.864,1.8,2.746,2.75a2.712,2.712,0,0,1,.408.87" transform="translate(-12.119 -224.776)" fill="#d7ff00"/>
        <path id="Path_83" data-name="Path 83" d="M1352.412,236.074a4.488,4.488,0,0,1-.586,1.048c-.752.831-1.562,1.612-2.373,2.387a1.735,1.735,0,1,1-2.474-2.432c.8-.842,1.626-1.658,2.462-2.463a1.652,1.652,0,0,1,1.93-.34,1.834,1.834,0,0,1,1.041,1.8" transform="translate(-1293.422 -224.883)" fill="#d7ff00"/>
        <path id="Path_84" data-name="Path 84" d="M14.4,771.021a1.782,1.782,0,0,1-1.715-.968,1.531,1.531,0,0,1,.166-1.8c.9-.982,1.842-1.935,2.829-2.829a1.711,1.711,0,0,1,2.426,2.358c-.913,1.022-1.908,1.973-2.909,2.911a2.118,2.118,0,0,1-.8.326" transform="translate(-11.981 -734.926)" fill="#d7ff00"/>
        <path id="Path_85" data-name="Path 85" d="M1348.335,765a4.572,4.572,0,0,1,1.046.589c.818.738,1.584,1.535,2.349,2.329a1.74,1.74,0,1,1-2.439,2.477q-1.233-1.188-2.419-2.424a1.654,1.654,0,0,1-.336-1.932,1.83,1.83,0,0,1,1.8-1.04" transform="translate(-1293.337 -734.874)" fill="#d7ff00"/>
        <path id="Path_86" data-name="Path 86" d="M3.483,530.982c.581,0,1.162-.015,1.743,0a1.737,1.737,0,1,1,0,3.474q-1.742.035-3.485,0a1.737,1.737,0,1,1,0-3.473c.58-.018,1.162,0,1.743,0" transform="translate(0 -510.064)" fill="#d7ff00"/>
        <path id="Path_87" data-name="Path 87" d="M726.635,190.658c0-.077,0-.039,0,0,.049,1.281-.588,2.115-1.653,2.164s-1.78-.741-1.828-2.01a10.416,10.416,0,0,0-10.211-10.162,1.814,1.814,0,0,1-1.884-2.329,1.72,1.72,0,0,1,1.69-1.175,13.767,13.767,0,0,1,11.662,6.4,13.548,13.548,0,0,1,2.224,7.109" transform="translate(-682.962 -170.168)" fill="#d7ff00"/>
      </g>
    </g>
  </g>
</svg>
