<svg xmlns="http://www.w3.org/2000/svg" xmlns:xlink="http://www.w3.org/1999/xlink" width="109" height="109" viewBox="0 0 109 109">
  <defs>
    <clipPath id="clip-path">
      <rect id="Rectangle_11" data-name="Rectangle 11" width="54.566" height="60.847" fill="#d7ff00"/>
    </clipPath>
  </defs>
  <g id="Group_21" data-name="Group 21" transform="translate(-1022 -1249)">
    <rect id="Rectangle_8" data-name="Rectangle 8" width="109" height="109" rx="8" transform="translate(1022 1249)" fill="#191919"/>
    <g id="Group_29" data-name="Group 29" transform="translate(1049 1272.781)">
      <g id="Group_28" data-name="Group 28" clip-path="url(#clip-path)">
        <path id="Path_89" data-name="Path 89" d="M26.1,0H28.47a1.467,1.467,0,0,0,.28.08A17.179,17.179,0,0,1,38.344,3.9a17.041,17.041,0,0,1,6.607,12.345c.217,2.916.108,5.857.12,8.787a3.588,3.588,0,0,1-3.864,3.846c-.606,0-1.212,0-1.873,0a13.609,13.609,0,0,1-3.744,8.4c.56,1.124,1.138,2.205,1.639,3.321a1.754,1.754,0,0,0,1.179,1.02,47.931,47.931,0,0,1,6.243,2.208c6.29,3.1,9.386,8.372,9.905,15.281a1.641,1.641,0,0,1-.824,1.743H.834a1.667,1.667,0,0,1-.827-1.742,17.949,17.949,0,0,1,1.2-5.78A16.777,16.777,0,0,1,11.375,43.2c1.709-.609,3.444-1.145,5.157-1.742a1.153,1.153,0,0,0,.589-.5c.574-1.082,1.091-2.193,1.662-3.276.172-.325.085-.5-.118-.765a23.714,23.714,0,0,1-1.824-2.617,1.126,1.126,0,0,0-1.176-.689,3.359,3.359,0,0,1-3.475-2.167,11.368,11.368,0,0,1-.335-2.322.878.878,0,0,0-.318-.585,3.609,3.609,0,0,1-2.042-3.417c0-2.276.009-4.553,0-6.829a17.972,17.972,0,0,1,2.02-8.689A17.4,17.4,0,0,1,22.393.72C23.6.372,24.861.235,26.1,0M17.982,31.256c1.157,0,2.144-.013,3.13.007a.584.584,0,0,0,.624-.388,3.441,3.441,0,0,1,3.134-1.988c.809-.03,1.621-.028,2.431,0A3.559,3.559,0,0,1,27.274,36c-.77.021-1.542.018-2.312,0a3.534,3.534,0,0,1-3.248-2.013c-.069-.13-.177-.334-.273-.337-.732-.029-1.466-.016-2.282-.016a9.492,9.492,0,0,0,4.26,3.916c5.646,2.505,11.521-.731,13.075-6.547a47.3,47.3,0,0,0,.981-6.085c.2-1.545.284-3.105.421-4.676-.17-.041-.261-.068-.354-.084-1.127-.2-2.269-.338-3.379-.607a21.226,21.226,0,0,1-9.377-4.968,1,1,0,0,0-.663-.265,8.263,8.263,0,0,0-3.46,1.124c-1.712.982-2.728,2.606-3.858,4.126a.914.914,0,0,0-.089.563c.12,1.638.2,3.281.395,4.911.241,2.058.572,4.105.872,6.209M17.1,43.791c-1.544.518-2.955,1.023-4.387,1.464a14.116,14.116,0,0,0-8.343,6.866,14.9,14.9,0,0,0-1.921,6.319H25.2C22,53.769,18.858,49.19,17.1,43.791m20.43.006c-.292.734-.554,1.413-.831,2.085a48.977,48.977,0,0,1-5.533,9.852c-.611.853-1.133,1.769-1.731,2.712H52.1c0-.118.009-.213,0-.306a15.469,15.469,0,0,0-5.357-10.257C44.1,45.561,40.7,45,37.527,43.8M16.7,15.539l.193.15a1.346,1.346,0,0,1,.164-.318,10.774,10.774,0,0,1,6.594-3.409,3.052,3.052,0,0,1,2.778.863,18.9,18.9,0,0,0,11.458,4.958.453.453,0,0,0,.053-.12,9.81,9.81,0,0,0-6.133-9.88A14.506,14.506,0,0,0,26.2,7.135a9.655,9.655,0,0,0-9.5,8.4m-2.484,1.073c.019-.232.032-.426.053-.62A11.877,11.877,0,0,1,22.524,5.359,16.106,16.106,0,0,1,29.152,4.8a11.886,11.886,0,0,1,10.719,8.807c.26.981.374,2,.556,3H42.6a15.351,15.351,0,0,0-30.618,0ZM27.17,46.263c-1.374,1.457-2.708,2.857-4.014,4.284-.092.1-.042.44.057.594,1.316,2.042,2.651,4.071,3.984,6.1.016.025.067.028.124.05,1.382-2.1,2.771-4.209,4.14-6.329a.528.528,0,0,0-.093-.485c-1.37-1.4-2.757-2.775-4.2-4.216m1.712-1.812,4.085,4.088q1.228-2.985,2.444-5.958a.536.536,0,0,0-.033-.387c-.483-.993-.979-1.978-1.5-3.031l-4.992,5.288m-7.233,4.2,3.709-3.932L20.4,39.755c-.362.723-.775,1.531-1.168,2.35a.7.7,0,0,0-.066.494c.8,1.973,1.612,3.938,2.485,6.054M14.813,26.5c-.2-2.533-.4-4.986-.59-7.437H11.866c0,2.083-.012,4.117.006,6.15A1.2,1.2,0,0,0,13.126,26.5c.548.023,1.1,0,1.687,0m24.942,0c.5,0,.987,0,1.475,0,1.036-.01,1.468-.442,1.471-1.49.005-1.777,0-3.554,0-5.332v-.635H40.344c-.2,2.484-.39,4.937-.589,7.457M26.073,33.625c.415,0,.832.026,1.244-.006a1.191,1.191,0,0,0,1.143-1.149,1.174,1.174,0,0,0-1.154-1.2c-.808-.038-1.62-.037-2.428,0a1.173,1.173,0,0,0-1.143,1.146,1.2,1.2,0,0,0,1.154,1.2c.392.031.789.006,1.184,0m3.107,7.047H25.111l2.087,2.1,1.981-2.1M14.288,28.9c-.2,1.386.04,2.4,1.322,2.3l-.416-2.3Z" transform="translate(0 -0.001)" fill="#d7ff00"/>
        <path id="Path_90" data-name="Path 90" d="M117.633,132.439a4.082,4.082,0,0,1,.764.406,11.788,11.788,0,0,1,3.1,3.768,1.218,1.218,0,0,1-.369,1.712,1.145,1.145,0,0,1-1.657-.512,11.407,11.407,0,0,0-2.659-3.225,1.124,1.124,0,0,1-.374-1.38,1.3,1.3,0,0,1,1.192-.769" transform="translate(-73.021 -83.125)" fill="#d7ff00"/>
        <path id="Path_91" data-name="Path 91" d="M106.348,128.772a1.179,1.179,0,1,1,1.157-1.2,1.214,1.214,0,0,1-1.157,1.2" transform="translate(-65.998 -79.344)" fill="#d7ff00"/>
      </g>
    </g>
  </g>
</svg>
