<svg xmlns="http://www.w3.org/2000/svg" xmlns:xlink="http://www.w3.org/1999/xlink" width="109" height="109" viewBox="0 0 109 109">
  <defs>
    <clipPath id="clip-path">
      <rect id="Rectangle_10" data-name="Rectangle 10" width="64.001" height="64.005" fill="#d7ff00"/>
    </clipPath>
  </defs>
  <g id="Group_21" data-name="Group 21" transform="translate(-1022 -1249)">
    <rect id="Rectangle_8" data-name="Rectangle 8" width="109" height="109" rx="8" transform="translate(1022 1249)" fill="#191919"/>
    <g id="Group_27" data-name="Group 27" transform="translate(1044 1271)">
      <g id="Group_26" data-name="Group 26" clip-path="url(#clip-path)">
        <path id="Path_88" data-name="Path 88" d="M0,39.128v-3.5c.122-.882.228-1.767.369-2.645a26.7,26.7,0,0,1,21.6-21.87,26.069,26.069,0,0,1,21.094,5.243c.506.386.99.8,1.474,1.194.806-.7.806-.7.806-1.672,0-1.645-.006-3.291,0-4.936a2.523,2.523,0,0,1,.783-1.889C48.878,6.347,51.583,3.6,54.325.9a8.716,8.716,0,0,1,1.3-.9h1a1.983,1.983,0,0,1,.726,1.7c-.027,1.145-.007,2.291-.007,3.437V6.657c1.717,0,3.338-.006,4.96.005a1.884,1.884,0,0,1,.912.132c.31.187.695.5.747.814A1.981,1.981,0,0,1,63.4,9.429q-4.2,4.151-8.349,8.355a2.817,2.817,0,0,1-2.167.876c-1.625-.008-3.251.038-4.874-.021a1.6,1.6,0,0,0-1.541.845c.137.167.268.326.4.486,7.044,8.76,8.622,18.421,3.877,28.616C46.3,58.128,38.424,63.249,27.9,63.948a25.1,25.1,0,0,1-17.027-5.181A26.21,26.21,0,0,1,.48,42.259c-.2-1.035-.322-2.087-.48-3.131M42.642,19.421a24.025,24.025,0,1,0,2.744,33c8.263-10.348,5.921-24.149-.772-30.961l-4.67,4.669A17.358,17.358,0,1,1,12.382,27.5a16.733,16.733,0,0,1,10.033-6.964A17.211,17.211,0,0,1,37.933,24.1l4.709-4.683m-6.709,6.658A14.6,14.6,0,0,0,16.944,48.245,14.5,14.5,0,0,0,37.765,46.84a14.267,14.267,0,0,0,.129-18.74L33.3,32.691a8.267,8.267,0,0,1-1.91,11.178,8.062,8.062,0,0,1-11.149-11.4,8.256,8.256,0,0,1,11.071-1.759l4.618-4.63m-6.6,6.733c-1.8-1.415-4.955-.923-6.645.995a5.324,5.324,0,0,0,7.667,7.375c1.8-1.715,2.222-4.872.842-6.484q-1.815,1.807-3.629,3.611a1.168,1.168,0,0,1-.373.306,1.633,1.633,0,0,1-1.8-.492,1.366,1.366,0,0,1,.366-1.738c.13-.135.265-.266.4-.4l3.174-3.173M48,16c1.476,0,2.886.02,4.295-.016a1.378,1.378,0,0,0,.853-.354c1.961-1.922,3.9-3.871,5.837-5.814.121-.121.223-.259.406-.474-1.141,0-2.158.01-3.175,0-1.093-.013-1.541-.47-1.557-1.571-.01-.666,0-1.331,0-2q0-.537,0-1.073c-2.266,2.088-4.38,4.206-6.484,6.334a.687.687,0,0,0-.165.44C48,12.951,48,14.427,48,16" fill="#d7ff00"/>
      </g>
    </g>
  </g>
</svg>
